<svg xmlns="http://www.w3.org/2000/svg" width="452.391" height="452.769" viewBox="0 0 452.391 452.769">
  <g id="Capa_2" data-name="Capa 2" transform="translate(-28.049 -32.281)">
    <g id="Grupo_60096" data-name="Grupo 60096">
      <g id="Grupo_60055" data-name="Grupo 60055">
        <path id="Trazado_110429" data-name="Trazado 110429" d="M225.67,475.3c-1.56-1.34-5-5.56-2.35-10.47,1-1.8,3.06-2.69,5-3.49a19.94,19.94,0,0,0,5.42-2.81c2.94-2.5,3.75-6.65,5.7-10,2.25-3.83,6.43-6.7,10.85-6.5,5.06.23,9.28,4.36,11.19,9.07s2,9.95,2,15c0,2.81-.1,6-2.17,7.88-1.9,1.76-4.77,1.78-7.35,1.7l-27.66-.85" fill="#aed3f2"/>
        <path id="Trazado_110430" data-name="Trazado 110430" d="M278.56,399.25H205.83l13.1,78.12a8.72,8.72,0,0,0,6.21,6.95l.26.07c.21.06.42.13.64.17a9.055,9.055,0,0,0,1.48.17v.08l.35-.06h32.42a9.3,9.3,0,0,0,9.14-7.81l6.31-53.83.29-2.14h0l2.5-21.32Zm-13.72,49.83h-7.46l.75-22.67h8.65Zm2.66-22.67h7.15L272,449.08h-6.42Zm-21.32,47.8-.45-19.69h10.74l-.65,19.69Zm-11.62-19.69H245l.46,19.69h-9.37Zm.81,19.69h-8.76c-.83-5.31-1.91-12.23-3.09-19.69h10.32Zm-1.23-25.13-1.77-22.67h12l.52,22.67Zm11.46,0-.52-22.67h12.33l-.75,22.67ZM245,421l-.48-21h13.82l-.7,21Zm-.72,0H232l-1.63-21H243.8Zm-13,0h-13L217,412.86c-1.36-8.49-1.87-11.69-2.15-12.89h14.8Zm.42,5.44,1.76,22.67H222.67c-.36-2.3-.73-4.63-1.09-7-.85-5.35-1.69-10.7-2.48-15.71Zm-9.71,22.67h-7l-3.8-22.67h7.25c1.03,6.97,2.26,14.77,3.5,22.64Zm.85,5.44c1.07,6.81,2.13,13.53,3.09,19.69h-6.74l-3.31-19.69Zm33.75,19.69.66-19.69h7.18l-1.69,19.69ZM258.31,421l.7-21h10l-1.8,21Zm-44.2-21c.29,1.52,1.62,9.78,3.4,21h-7.3l-3.53-21ZM269,474.21h-5.62l1.68-19.69h6.25ZM275.29,421H268l1.79-21h8Z" fill="#839eb6"/>
      </g>
      <g id="Grupo_60057" data-name="Grupo 60057">
        <g id="Grupo_60056" data-name="Grupo 60056">
          <path id="Trazado_110431" data-name="Trazado 110431" d="M282.1,322l-39.24,12.23a5.13,5.13,0,0,1-6.43-3.38l-16.93-54.3a5.13,5.13,0,0,1,3.38-6.44l24.88-7.76,25.45,13.85,12.27,39.36A5.15,5.15,0,0,1,282.1,322Z" fill="#aed3f2"/>
          <path id="Trazado_110432" data-name="Trazado 110432" d="M247.76,262.38l4.77,15.29a4.78,4.78,0,0,0,6,3.14l14.7-4.58Z" fill="#839eb6"/>
        </g>
        <path id="Trazado_110433" data-name="Trazado 110433" d="M249,278.07c.06.19-3.95,1.62-9,3.18s-9.13,2.67-9.19,2.47,4-1.62,9-3.18S249,277.87,249,278.07Z" fill="#fafafa"/>
        <path id="Trazado_110434" data-name="Trazado 110434" d="M263.46,283.05c.06.2-6.58,2.44-14.83,5s-15,4.49-15,4.3,6.58-2.44,14.83-5S263.4,282.86,263.46,283.05Z" fill="#fafafa"/>
        <path id="Trazado_110435" data-name="Trazado 110435" d="M268.4,289.43c.06.2-7.18,2.63-16.17,5.43s-16.34,4.92-16.4,4.72S243,297,252,294.15,268.34,289.24,268.4,289.43Z" fill="#fafafa"/>
        <path id="Trazado_110436" data-name="Trazado 110436" d="M270.52,296.24c.06.2-7.18,2.63-16.17,5.43S238,306.59,238,306.39s7.18-2.63,16.18-5.43S270.46,296,270.52,296.24Z" fill="#fafafa"/>
        <path id="Trazado_110437" data-name="Trazado 110437" d="M272.64,303.05c.06.19-7.18,2.63-16.17,5.43s-16.33,4.91-16.39,4.72,7.17-2.63,16.17-5.43S272.58,302.85,272.64,303.05Z" fill="#fafafa"/>
        <path id="Trazado_110438" data-name="Trazado 110438" d="M274.76,309.86c.06.19-7.18,2.62-16.17,5.43S242.26,320.2,242.2,320s7.18-2.63,16.17-5.43S274.7,309.66,274.76,309.86Z" fill="#fafafa"/>
      </g>
      <g id="Grupo_60059" data-name="Grupo 60059">
        <g id="Grupo_60058" data-name="Grupo 60058">
          <path id="Trazado_110439" data-name="Trazado 110439" d="M448.59,110.12l-38.3-14.9a5.15,5.15,0,0,1-2.93-6.66l20.63-53a5.14,5.14,0,0,1,6.65-2.93l24.29,9.45L470.2,68.76l-14.95,38.43a5.14,5.14,0,0,1-6.66,2.93Z" fill="#aed3f2"/>
          <path id="Trazado_110440" data-name="Trazado 110440" d="M458.93,42.07,453.13,57a4.78,4.78,0,0,0,2.72,6.19l14.35,5.58Z" fill="#839eb6"/>
        </g>
        <path id="Trazado_110441" data-name="Trazado 110441" d="M450.15,55.13c-.07.19-4.1-1.19-9-3.1s-8.8-3.6-8.73-3.79,4.11,1.19,9,3.1S450.23,54.94,450.15,55.13Z" fill="#fafafa"/>
        <path id="Trazado_110442" data-name="Trazado 110442" d="M458.32,68c-.08.19-6.67-2.19-14.72-5.33s-14.52-5.82-14.45-6,6.67,2.2,14.72,5.33S458.39,67.83,458.32,68Z" fill="#fafafa"/>
        <path id="Trazado_110443" data-name="Trazado 110443" d="M458.2,76.09c-.07.19-7.25-2.43-16-5.84s-15.83-6.34-15.76-6.53,7.25,2.42,16,5.84S458.28,75.89,458.2,76.09Z" fill="#fafafa"/>
        <path id="Trazado_110444" data-name="Trazado 110444" d="M455.62,82.73c-.08.19-7.26-2.42-16-5.83s-15.84-6.34-15.76-6.54,7.25,2.43,16,5.84S455.69,82.54,455.62,82.73Z" fill="#fafafa"/>
        <path id="Trazado_110445" data-name="Trazado 110445" d="M453,89.38c-.07.19-7.25-2.42-16-5.84S421.17,77.2,421.24,77s7.25,2.42,16,5.84S453.11,89.19,453,89.38Z" fill="#fafafa"/>
        <path id="Trazado_110446" data-name="Trazado 110446" d="M450.45,96c-.08.19-7.26-2.42-16-5.83s-15.84-6.34-15.76-6.53,7.25,2.42,16,5.83S450.52,95.83,450.45,96Z" fill="#fafafa"/>
      </g>
      <g id="Grupo_60060" data-name="Grupo 60060">
        <path id="Trazado_110447" data-name="Trazado 110447" d="M88.75,261.78a3.06,3.06,0,0,1,2.58,3.48c-.16,1.07-.31,2.12-.38,2.58L87.42,291a2,2,0,0,1-2.29,1.7l-53-8.06a2,2,0,0,1-1.7-2.19l2.71-30a2,2,0,0,1,2.31-1.83l12,1.82A4.83,4.83,0,0,1,50.32,254l2.16,2.48Z" fill="#839eb6"/>
        <rect id="Rectángulo_8909" data-name="Rectángulo 8909" width="58.63" height="35.38" transform="translate(34.255 256.697) rotate(8.65)" fill="#aed3f2"/>
        <path id="Trazado_110448" data-name="Trazado 110448" d="M29.17,259.13l-1.12,37.15a1.3,1.3,0,0,0,1.1,1.33l56.49,8.59a1.3,1.3,0,0,0,1.46-1l8.39-36a1.3,1.3,0,0,0-1.06-1.59l-63.76-9.7a1.31,1.31,0,0,0-1.5,1.22Z" fill="#aed3f2"/>
      </g>
      <g id="Grupo_60062" data-name="Grupo 60062">
        <path id="Trazado_110449" data-name="Trazado 110449" d="M164.9,264.86c-11.46,5.93-20.24,16.15-26.56,27.41s-10.39,23.6-14.43,35.86l-3.53,63.22c13.34-22.68,24-49.35,26.93-75.5l-8.87-.79c5.95-.91,10.94-5.22,14.12-10.33s4.81-11,6.41-16.81l-10.83,1.61A40.1,40.1,0,0,0,164.9,264.86Z" fill="#5e6178"/>
        <g id="Grupo_60061" data-name="Grupo 60061" opacity="0.3">
          <path id="Trazado_110450" data-name="Trazado 110450" d="M164.9,264.86c-11.46,5.93-20.24,16.15-26.56,27.41s-10.39,23.6-14.43,35.86l-3.53,63.22c13.34-22.68,24-49.35,26.93-75.5l-8.87-.79c5.95-.91,10.94-5.22,14.12-10.33s4.81-11,6.41-16.81l-10.83,1.61A40.1,40.1,0,0,0,164.9,264.86Z" fill="#d9a171"/>
        </g>
        <path id="Trazado_110451" data-name="Trazado 110451" d="M118.41,406.16s-28.94-34.64-28.61-67.7h11.69s-12.69-8.36-11.69-13,1.34-22.38,1.34-22.38l10.69,2.67s-8-4-9-10.35,2.34-35.75,2.34-35.75,13,13.7,17,27.73,14.53,30.4,11.44,73.15S118.41,406.16,118.41,406.16Z" fill="#5e6178"/>
        <path id="Trazado_110452" data-name="Trazado 110452" d="M133.08,409.43s31.36-20.88,38.32-47.54l-9.4-2.56s12-3.94,12.26-7.92,3.82-18.28,3.82-18.28l-9.18-.19s7.32-1.47,9.51-6.35,5.94-29.25,5.94-29.25-13.47,8.16-19.76,18.56-18.33,21.26-25.2,56.31S133.08,409.43,133.08,409.43Z" fill="#5e6178"/>
        <path id="Trazado_110453" data-name="Trazado 110453" d="M103.05,289.83a1.4,1.4,0,0,1,.11.36c.06.26.14.62.25,1.06l.92,4.11c.4,1.79.87,4,1.37,6.52s1.12,5.45,1.7,8.67c1.24,6.42,2.55,14.1,3.9,22.64s2.6,18,3.76,27.88,2,19.39,2.7,28,1.12,16.4,1.37,22.93c.17,3.27.24,6.23.32,8.82s.14,4.84.15,6.67,0,3.21.05,4.21v1.09a2.789,2.789,0,0,1,0,.38,1.42,1.42,0,0,1,0-.38V431.7c0-1-.08-2.41-.15-4.21s-.12-4.06-.24-6.66-.21-5.55-.4-8.81c-.31-6.53-.82-14.3-1.49-22.92s-1.6-18.07-2.73-28-2.45-19.32-3.73-27.86S108.22,317,107,310.62c-.57-3.22-1.14-6.13-1.63-8.68s-.91-4.74-1.28-6.53-.62-3.16-.82-4.13c-.08-.46-.15-.81-.2-1.08A2.14,2.14,0,0,1,103.05,289.83Z" fill="#344154"/>
        <path id="Trazado_110454" data-name="Trazado 110454" d="M114.4,427.38s-26.49-30.05-34.71-48.22l6.21-2.65c-4.5.74-9.11-1.19-12.6-4.13s-6.06-6.8-8.57-10.61l8.18-1.38A30.41,30.41,0,0,1,55,346.55c9.65,1.59,18.38,6.89,25.58,13.51a128.38,128.38,0,0,1,15.5,18,60.481,60.481,0,0,1,6,9.9C106.58,397.12,114.41,416.34,114.4,427.38Z" fill="#5e6178"/>
        <path id="Trazado_110455" data-name="Trazado 110455" d="M171.82,314.83a1.15,1.15,0,0,1-.12.31c-.11.22-.24.51-.41.87-.38.8-.92,1.91-1.61,3.33-1.42,2.89-3.43,7.09-5.87,12.29s-5.25,11.45-8.27,18.43-6.18,14.7-9.35,22.88-6,16.05-8.48,23.23-4.58,13.7-6.27,19.2-3,9.95-3.93,13c-.45,1.51-.8,2.7-1.05,3.55-.12.38-.21.68-.29.92a1.431,1.431,0,0,1-.11.31,1.27,1.27,0,0,1,.06-.33c.06-.24.14-.55.23-.93l1-3.58c.82-3.11,2.1-7.59,3.76-13.09s3.73-12,6.17-19.25,5.29-15.07,8.44-23.26,6.38-15.91,9.41-22.89,5.89-13.2,8.38-18.39,4.54-9.36,6-12.22c.73-1.4,1.3-2.5,1.7-3.29l.46-.85a1.28,1.28,0,0,1,.15-.24Z" fill="#344154"/>
        <path id="Trazado_110456" data-name="Trazado 110456" d="M116.64,440.25a1.89,1.89,0,0,1-.12-.55c-.07-.42-.16-.95-.26-1.59-.2-1.39-.55-3.39-1-5.85s-1.16-5.36-2-8.56-2-6.66-3.33-10.23-2.83-6.91-4.27-9.89-2.87-5.6-4.13-7.76-2.33-3.9-3.09-5.07l-.86-1.37a2,2,0,0,1-.27-.5,2.431,2.431,0,0,1,.36.44l.94,1.31c.82,1.14,1.94,2.85,3.24,5s2.77,4.77,4.26,7.74a98.9,98.9,0,0,1,4.33,9.92c1.33,3.59,2.43,7.08,3.3,10.29s1.49,6.14,1.92,8.62.73,4.49.87,5.89l.15,1.61A2.15,2.15,0,0,1,116.64,440.25Z" fill="#344154"/>
        <rect id="Rectángulo_8910" data-name="Rectángulo 8910" width="57.97" height="11.82" transform="translate(93.62 433.19)" fill="#d9a171"/>
        <path id="Trazado_110457" data-name="Trazado 110457" d="M99.15,445.01l6.27,39.77h35.02l5.85-39.77Z" fill="#d9a171"/>
        <path id="Trazado_110458" data-name="Trazado 110458" d="M148,445c0,.15-11,.27-24.49.27s-24.49-.12-24.49-.27,11-.27,24.49-.27S148,444.86,148,445Z" fill="#344154"/>
      </g>
      <g id="Grupo_60067" data-name="Grupo 60067">
        <g id="Grupo_60066" data-name="Grupo 60066">
          <rect id="Rectángulo_8911" data-name="Rectángulo 8911" width="258.85" height="162.14" transform="translate(82.18 47.66)" fill="#fff"/>
          <rect id="Rectángulo_8912" data-name="Rectángulo 8912" width="258.85" height="14.86" transform="translate(82.18 47.66)" fill="#5e6178"/>
          <rect id="Rectángulo_8913" data-name="Rectángulo 8913" width="258.95" height="29.23" transform="translate(82.08 206.58)" fill="#aed3f2"/>
          <path id="Trazado_110459" data-name="Trazado 110459" d="M116.1,219.7l-1.9-.28-.85-1.72-.85,1.72-1.9.28,1.37,1.34-.01.09-.31,1.81,1.7-.9,1.7.9-.32-1.9.06-.06Z" fill="none" opacity="0"/>
          <path id="Trazado_110460" data-name="Trazado 110460" d="M101.05,218.15a1.14,1.14,0,1,0,1.14,1.14,1.14,1.14,0,0,0-1.14-1.14Z" fill="none" opacity="0"/>
          <path id="Trazado_110461" data-name="Trazado 110461" d="M135.31,220.73h2.32l.73,1.51h.49l-2.31-4.83h-.13l-2.32,4.83h.5Zm1.16-2.41.94,2h-1.88Z" fill="#344154"/>
          <rect id="Rectángulo_8914" data-name="Rectángulo 8914" width="5.48" height="0.39" transform="translate(133.71 223.27)" fill="#344154"/>
          <path id="Trazado_110462" data-name="Trazado 110462" d="M101.24,217.13h-.37a2.05,2.05,0,0,0-1.93,2.08,8.7,8.7,0,0,0,1.93,4.13s.14.25.37,0a8.7,8.7,0,0,0,1.93-4.13A2.05,2.05,0,0,0,101.24,217.13Zm-.19,3.3a1.14,1.14,0,1,1,1.14-1.14,1.14,1.14,0,0,1-1.14,1.14Z" fill="#344154"/>
          <path id="Trazado_110463" data-name="Trazado 110463" d="M126.92,222a1.18,1.18,0,0,1-2.35,0v-3.79a.76.76,0,0,1,1.52,0v3.21h0a.44.44,0,0,1-.42.34.45.45,0,0,1-.42-.34v-2.48H125v2.37h0v.11h0a.7.7,0,0,0,.69.61.72.72,0,0,0,.7-.61h0v-.06a.429.429,0,0,1,0-.05h0v-3.14h0a1.04,1.04,0,1,0-2.08,0h0v4h0a1.46,1.46,0,0,0,2.9,0h0v-3.19h-.28Z" fill="#344154"/>
          <path id="Trazado_110464" data-name="Trazado 110464" d="M114.43,219.1l-1.08-2.2-1.09,2.2-2.43.35,1.76,1.72-.41,2.41,2.17-1.14,2.17,1.14-.41-2.41,1.75-1.72Zm.62,3.84-1.7-.9-1.7.9.31-1.8V221l-1.37-1.34,1.9-.28.85-1.72.85,1.72,1.9.28-1.3,1.34-.06.06Z" fill="#344154"/>
          <path id="Trazado_110465" data-name="Trazado 110465" d="M157.18,214.2h-.35v11.27h.35ZM157,225.47Z" fill="#344154"/>
          <rect id="Rectángulo_8915" data-name="Rectángulo 8915" width="4.49" height="4.78" transform="translate(145.8 218.19)" fill="#344154"/>
          <path id="Trazado_110466" data-name="Trazado 110466" d="M147.22,217.07v.36h1.65v-.36h1.42v.73H145.8v-.73Z" fill="#344154"/>
          <rect id="Rectángulo_8916" data-name="Rectángulo 8916" width="1.65" height="0.37" transform="translate(147.22 216.7)" fill="#344154"/>
          <rect id="Rectángulo_8917" data-name="Rectángulo 8917" width="1.65" height="0.37" transform="translate(147.22 217.07)" fill="#344154"/>
          <path id="Trazado_110467" data-name="Trazado 110467" d="M167.34,220.75l1.38-1.38.16.17-1.54,1.54-1.55-1.54.17-.17Z" fill="#344154"/>
          <g id="Grupo_60063" data-name="Grupo 60063">
            <circle id="Elipse_4285" data-name="Elipse 4285" cx="1.61" cy="1.61" r="1.61" transform="translate(87.82 53.48)" fill="#fff"/>
            <circle id="Elipse_4286" data-name="Elipse 4286" cx="1.61" cy="1.61" r="1.61" transform="translate(93.54 53.48)" fill="#fff"/>
            <circle id="Elipse_4287" data-name="Elipse 4287" cx="1.61" cy="1.61" r="1.61" transform="translate(99.27 53.48)" fill="#fff"/>
          </g>
          <g id="Grupo_60065" data-name="Grupo 60065">
            <rect id="Rectángulo_8918" data-name="Rectángulo 8918" width="149.17" height="15.59" transform="translate(106.56 97.31)" fill="#ffbf9d"/>
            <rect id="Rectángulo_8919" data-name="Rectángulo 8919" width="149.17" height="15.59" transform="translate(106.56 81.71)" fill="#d9a171"/>
            <rect id="Rectángulo_8920" data-name="Rectángulo 8920" width="149.17" height="15.59" transform="translate(106.56 112.88)" fill="#dbdbdb"/>
            <rect id="Rectángulo_8921" data-name="Rectángulo 8921" width="149.17" height="15.59" transform="translate(106.56 128.48)" fill="#ffbf9d"/>
            <rect id="Rectángulo_8922" data-name="Rectángulo 8922" width="149.17" height="15.59" transform="translate(106.56 144.07)" fill="#dbdbdb"/>
            <rect id="Rectángulo_8923" data-name="Rectángulo 8923" width="44.72" height="78.14" transform="translate(106.56 81.71)" fill="#c7c7c7"/>
            <path id="Trazado_110468" data-name="Trazado 110468" d="M106.56,112.88l74.58-.19,74.58.19-74.58.21Z" fill="#344154"/>
            <path id="Trazado_110469" data-name="Trazado 110469" d="M106.56,128.48l74.58-.19,74.58.19-74.58.2Z" fill="#344154"/>
            <path id="Trazado_110470" data-name="Trazado 110470" d="M106.56,144.07l74.58-.21,74.58.21-74.58.19Z" fill="#344154"/>
            <path id="Trazado_110471" data-name="Trazado 110471" d="M106.56,159.65l74.58-.19,74.58.19-74.58.2Z" fill="#344154"/>
            <path id="Trazado_110472" data-name="Trazado 110472" d="M114.55,89.47c4.76-.31,9.52-.35,14.28-.39s9.52,0,14.29.39c-4.77.33-9.52.35-14.29.4S119.31,89.83,114.55,89.47Z" fill="#344154"/>
            <path id="Trazado_110473" data-name="Trazado 110473" d="M114.55,98.92c3.6-.24,7.2-.26,10.8-.29s7.2,0,10.81.29c-3.61.24-7.2.25-10.81.29S118.15,99.16,114.55,98.92Z" fill="#344154"/>
            <path id="Trazado_110474" data-name="Trazado 110474" d="M161.73,89.47c3.57-.31,7.16-.35,10.73-.39a87.57,87.57,0,0,1,10.74.39c-3.57.33-7.15.35-10.74.4A96.4,96.4,0,0,1,161.73,89.47Z" fill="#344154"/>
            <path id="Trazado_110475" data-name="Trazado 110475" d="M161.73,105.1c3.57-.34,7.16-.35,10.73-.4a85.629,85.629,0,0,1,10.74.4c-3.57.33-7.15.34-10.74.39a101.462,101.462,0,0,1-10.73-.39Z" fill="#344154"/>
            <path id="Trazado_110476" data-name="Trazado 110476" d="M161.73,120.69c3.57-.33,7.16-.35,10.73-.4a87.57,87.57,0,0,1,10.74.4c-3.57.33-7.15.34-10.74.39a107.1,107.1,0,0,1-10.73-.39Z" fill="#344154"/>
            <path id="Trazado_110477" data-name="Trazado 110477" d="M161.73,136.26c3.57-.31,7.16-.34,10.73-.39a87.573,87.573,0,0,1,10.74.39c-3.57.34-7.15.35-10.74.4A98.87,98.87,0,0,1,161.73,136.26Z" fill="#344154"/>
            <path id="Trazado_110478" data-name="Trazado 110478" d="M161.73,151.86c3.57-.33,7.16-.35,10.73-.4a87.567,87.567,0,0,1,10.74.4c-3.57.33-7.15.34-10.74.39a101.464,101.464,0,0,1-10.73-.39Z" fill="#344154"/>
            <path id="Trazado_110479" data-name="Trazado 110479" d="M192.76,89.47c3.59-.31,7.16-.35,10.75-.39a87.478,87.478,0,0,1,10.73.39c-3.58.33-7.16.35-10.73.4A96.672,96.672,0,0,1,192.76,89.47Z" fill="#344154"/>
            <path id="Trazado_110480" data-name="Trazado 110480" d="M200.13,151.86a14.14,14.14,0,0,1,3.48-.4,13.671,13.671,0,0,1,3.42.4,15.23,15.23,0,0,1-6.85,0Z" fill="#344154"/>
            <path id="Trazado_110481" data-name="Trazado 110481" d="M200.13,136.26a15.28,15.28,0,0,1,6.86,0A15,15,0,0,1,200.13,136.26Z" fill="#344154"/>
            <path id="Trazado_110482" data-name="Trazado 110482" d="M200.13,120.69a15,15,0,0,1,6.86,0A15.28,15.28,0,0,1,200.13,120.69Z" fill="#344154"/>
            <path id="Trazado_110483" data-name="Trazado 110483" d="M200.13,105.1a14.14,14.14,0,0,1,3.48-.4,13.22,13.22,0,0,1,3.42.4,13.649,13.649,0,0,1-3.42.39,14.63,14.63,0,0,1-3.48-.39Z" fill="#344154"/>
            <path id="Trazado_110484" data-name="Trazado 110484" d="M223.8,89.47c3.58-.31,7.15-.35,10.74-.39a87.41,87.41,0,0,1,10.73.39c-3.57.33-7.16.35-10.73.4a96.488,96.488,0,0,1-10.74-.4Z" fill="#344154"/>
            <path id="Trazado_110485" data-name="Trazado 110485" d="M223.8,105.1c3.58-.34,7.15-.35,10.74-.4a85.486,85.486,0,0,1,10.73.4c-3.57.33-7.16.34-10.73.39a101.553,101.553,0,0,1-10.74-.39Z" fill="#344154"/>
            <path id="Trazado_110486" data-name="Trazado 110486" d="M223.8,120.69c3.58-.33,7.15-.35,10.74-.4a87.407,87.407,0,0,1,10.73.4c-3.57.33-7.16.34-10.73.39A107.187,107.187,0,0,1,223.8,120.69Z" fill="#344154"/>
            <path id="Trazado_110487" data-name="Trazado 110487" d="M223.8,136.26c3.58-.31,7.15-.34,10.74-.39a87.419,87.419,0,0,1,10.73.39c-3.57.34-7.16.35-10.73.4a99,99,0,0,1-10.74-.4Z" fill="#344154"/>
            <path id="Trazado_110488" data-name="Trazado 110488" d="M223.8,151.86c3.58-.33,7.15-.35,10.74-.4a87.407,87.407,0,0,1,10.73.4c-3.57.33-7.16.34-10.73.39a101.555,101.555,0,0,1-10.74-.39Z" fill="#344154"/>
            <g id="Grupo_60064" data-name="Grupo 60064">
              <path id="Trazado_110489" data-name="Trazado 110489" d="M125.6,121.2h-3.67v2.49h4.31v1.53H120v-9.28h6.21v1.55h-4.3v2.21h3.67Z" fill="#344154"/>
              <path id="Trazado_110490" data-name="Trazado 110490" d="M129.28,122v3.27h-1.92v-9.28H131a4.26,4.26,0,0,1,1.84.38,2.82,2.82,0,0,1,1.22,1.09,3,3,0,0,1,.43,1.6,2.69,2.69,0,0,1-.93,2.16A3.94,3.94,0,0,1,131,122Zm0-1.55H131a1.66,1.66,0,0,0,1.16-.35,1.29,1.29,0,0,0,.4-1,1.54,1.54,0,0,0-.4-1.11,1.51,1.51,0,0,0-1.11-.43H129.3Z" fill="#344154"/>
              <path id="Trazado_110491" data-name="Trazado 110491" d="M140.6,122.79a1,1,0,0,0-.39-.83,4.85,4.85,0,0,0-1.37-.62,9.2,9.2,0,0,1-1.58-.63,2.58,2.58,0,0,1-1.58-2.3,2.19,2.19,0,0,1,.43-1.34,2.66,2.66,0,0,1,1.21-.92,4.64,4.64,0,0,1,1.79-.34,4.18,4.18,0,0,1,1.77.36,2.83,2.83,0,0,1,1.21,1,2.73,2.73,0,0,1,.43,1.49H140.6a1.25,1.25,0,0,0-.4-1,1.68,1.68,0,0,0-1.13-.35,1.83,1.83,0,0,0-1.09.29.94.94,0,0,0-.39.79.89.89,0,0,0,.46.75,4.92,4.92,0,0,0,1.34.58,5.78,5.78,0,0,1,2.38,1.22,2.4,2.4,0,0,1,.75,1.81,2.24,2.24,0,0,1-.92,1.89,4,4,0,0,1-2.45.68,4.78,4.78,0,0,1-2-.39,3.09,3.09,0,0,1-1.34-1.07,2.77,2.77,0,0,1-.46-1.59h1.91c0,1,.62,1.54,1.84,1.54a1.71,1.71,0,0,0,1.06-.28.88.88,0,0,0,.44-.74Z" fill="#344154"/>
              <path id="Trazado_110492" data-name="Trazado 110492" d="M125.06,139h-3.35l-.64,1.91h-2l3.45-9.28h1.78l3.47,9.28h-2Zm-2.83-1.55h2.32L123.38,134Z" fill="#344154"/>
              <path id="Trazado_110493" data-name="Trazado 110493" d="M132,137.49h-1.52v3.4h-1.91v-9.28h3.45a3.87,3.87,0,0,1,2.53.73,2.52,2.52,0,0,1,.89,2.07,2.6,2.6,0,0,1-1.65,2.6l2,3.79v.09h-2.06Zm-1.52-1.55h1.54a1.62,1.62,0,0,0,1.12-.36,1.33,1.33,0,0,0,.39-1,1.41,1.41,0,0,0-.37-1,1.55,1.55,0,0,0-1.14-.37h-1.54Z" fill="#344154"/>
              <path id="Trazado_110494" data-name="Trazado 110494" d="M138.85,139.35h4.06v1.54h-6v-9.28h1.91Z" fill="#344154"/>
              <path id="Trazado_110495" data-name="Trazado 110495" d="M125,154.64h-3.36l-.63,1.92h-2l3.46-9.28h1.77l3.47,9.28h-2Zm-2.84-1.54h2.32l-1.17-3.48Z" fill="#344154"/>
              <path id="Trazado_110496" data-name="Trazado 110496" d="M134.1,152.76h-3.67v3.8h-1.91v-9.28h6v1.54h-4.13v2.4h3.67Z" fill="#344154"/>
              <path id="Trazado_110497" data-name="Trazado 110497" d="M137.59,153.29v3.27h-1.92v-9.28h3.62a4.12,4.12,0,0,1,1.84.38,2.8,2.8,0,0,1,1.22,1.08,3,3,0,0,1,.43,1.61,2.67,2.67,0,0,1-.93,2.15,4,4,0,0,1-2.59.79Zm0-1.55h1.7a1.66,1.66,0,0,0,1.16-.36,1.29,1.29,0,0,0,.4-1,1.44,1.44,0,0,0-1.51-1.54h-1.75Z" fill="#344154"/>
            </g>
          </g>
        </g>
        <path id="Trazado_110498" data-name="Trazado 110498" d="M342.06,235.81c0-1.81-.08-74.05-.22-188.15l.22.22H82.2l.27-.27V235.76l-.24-.24,259.88.24-259.88.25h-.25V47.34H342.35v.22C342.15,161.76,342.07,234,342.06,235.81Z" fill="#344154"/>
      </g>
      <g id="Grupo_60095" data-name="Grupo 60095">
        <g id="Grupo_60068" data-name="Grupo 60068">
          <rect id="Rectángulo_8924" data-name="Rectángulo 8924" width="6.01" height="3.23" transform="translate(415.64 424.7)" fill="#839eb6"/>
          <rect id="Rectángulo_8925" data-name="Rectángulo 8925" width="13.87" height="68.79" transform="translate(405.72 343.28)" fill="#aed3f2"/>
          <path id="Trazado_110499" data-name="Trazado 110499" d="M444.14,346.9H379a12.54,12.54,0,0,1-12.55-12.54h0A12.54,12.54,0,0,1,379,321.82h65.1a12.54,12.54,0,0,1,12.54,12.54h0a12.54,12.54,0,0,1-12.5,12.54Z" fill="#5e6178"/>
          <rect id="Rectángulo_8926" data-name="Rectángulo 8926" width="8.79" height="48.82" transform="translate(408.31 412.06)" fill="#839eb6"/>
          <path id="Trazado_110500" data-name="Trazado 110500" d="M377.46,484.68c-1.73.22,74.06,0,74.06,0s-32.33-3.61-34.42-23.8h-8.79S406.1,481,377.46,484.68Z" fill="#839eb6"/>
          <path id="Trazado_110501" data-name="Trazado 110501" d="M446.71,346.9c0,.15-15,.27-33.61.27s-33.62-.12-33.62-.27,15-.27,33.62-.27S446.71,346.75,446.71,346.9Z" fill="#344154"/>
          <path id="Trazado_110502" data-name="Trazado 110502" d="M419.59,412.06a90.753,90.753,0,0,1-14,0,90.746,90.746,0,0,1,14,0Z" fill="#344154"/>
          <path id="Trazado_110503" data-name="Trazado 110503" d="M421.65,431.55h0a1.77,1.77,0,0,1-1.77-1.77v-6.93a1.77,1.77,0,0,1,1.77-1.77h0a1.77,1.77,0,0,1,1.77,1.77v6.93A1.77,1.77,0,0,1,421.65,431.55Z" fill="#839eb6"/>
        </g>
        <g id="Grupo_60094" data-name="Grupo 60094">
          <g id="Grupo_60074" data-name="Grupo 60074">
            <g id="Grupo_60069" data-name="Grupo 60069">
              <path id="Trazado_110504" data-name="Trazado 110504" d="M283.14,146.88s3.05-3.33,4-3.4,10.42,2.76,10.42,2.76a6.47,6.47,0,0,1,3,1.42c.85,1,10.21,11.17,10.21,11.17L300.3,168s-12.2-2.19-13.26-3.47-1.91-3.33-1.14-4a5.32,5.32,0,0,1-.7-3,20,20,0,0,1,.63-2.16s-1.84-1.31-1.91-2.23a3.709,3.709,0,0,0-.35-1.42l-.43-.71Z" fill="#ffbf9d"/>
              <path id="Trazado_110505" data-name="Trazado 110505" d="M287.39,148.87c.05,0,0,.32-.17.79a3.69,3.69,0,0,1-1.15,1.59,2.36,2.36,0,0,1-1.94.45c-.52-.13-.73-.41-.69-.44s.3.1.74.14a2.47,2.47,0,0,0,1.63-.5,4.71,4.71,0,0,0,1.13-1.38C287.18,149.11,287.33,148.84,287.39,148.87Z" fill="#ff9a6c"/>
            </g>
            <g id="Grupo_60073" data-name="Grupo 60073">
              <g id="Grupo_60070" data-name="Grupo 60070">
                <path id="Trazado_110506" data-name="Trazado 110506" d="M245.72,125.08A5.66,5.66,0,0,0,240,130.7l-.49,62.65a5.66,5.66,0,0,0,5.62,5.71l45.27.36a5.66,5.66,0,0,0,5.7-5.62l.31-62.69a5.81,5.81,0,0,0-5.78-5.84Z" fill="#839eb6"/>
                <path id="Trazado_110507" data-name="Trazado 110507" d="M270.5,144.11c0,.23-4.69.37-10.47.33s-10.47-.27-10.47-.5,4.69-.37,10.47-.32S270.5,143.88,270.5,144.11Z" fill="#839eb6"/>
                <path id="Trazado_110508" data-name="Trazado 110508" d="M284,152.26c0,.23-7.72.35-17.24.28s-17.23-.32-17.23-.55,7.72-.35,17.24-.27S284,152,284,152.26Z" fill="#839eb6"/>
                <path id="Trazado_110509" data-name="Trazado 110509" d="M287,160.61c0,.23-8.42.35-18.79.27s-18.79-.34-18.79-.56,8.42-.35,18.79-.26S287,160.39,287,160.61Z" fill="#839eb6"/>
                <path id="Trazado_110510" data-name="Trazado 110510" d="M286.92,168.47c0,.23-8.41.34-18.78.26s-18.79-.33-18.79-.56,8.42-.34,18.79-.26S286.93,168.24,286.92,168.47Z" fill="#839eb6"/>
                <path id="Trazado_110511" data-name="Trazado 110511" d="M286.86,176.32c0,.23-8.41.35-18.79.27s-18.78-.34-18.78-.56,8.41-.35,18.79-.26S286.86,176.1,286.86,176.32Z" fill="#839eb6"/>
                <path id="Trazado_110512" data-name="Trazado 110512" d="M286.8,184.18c0,.23-8.41.34-18.79.26s-18.78-.33-18.78-.56,8.41-.34,18.79-.26S286.8,184,286.8,184.18Z" fill="#839eb6"/>
              </g>
              <g id="Grupo_60072" data-name="Grupo 60072">
                <g id="Grupo_60071" data-name="Grupo 60071">
                  <path id="Trazado_110513" data-name="Trazado 110513" d="M243.63,123.21a5.66,5.66,0,0,0-5.71,5.62l-.49,62.65a5.66,5.66,0,0,0,5.62,5.71l45.26.36a5.66,5.66,0,0,0,5.71-5.62l.31-62.69a5.81,5.81,0,0,0-5.78-5.84Z" fill="#fff"/>
                  <path id="Trazado_110514" data-name="Trazado 110514" d="M243.63,123.21h43.43a23.091,23.091,0,0,1,2.33.07,6,6,0,0,1,4.07,2.51,5.86,5.86,0,0,1,1,2.31,14.424,14.424,0,0,1,.11,2.53c0,6.68-.06,13.83-.08,21.34s-.07,15.41-.1,23.59q0,6.14-.06,12.48v3.17a6.8,6.8,0,0,1-.58,3.24,6,6,0,0,1-5.44,3.39l-25.33-.21-12-.1h-5.84a26,26,0,0,1-2.91-.1,5.73,5.73,0,0,1-2.68-1.17,6,6,0,0,1-2.28-5.08c0-1.83,0-3.64,0-5.42q.06-5.34.1-10.36c.06-6.68.12-12.91.18-18.6.12-11.35.23-20.55.3-26.93a9.7,9.7,0,0,1,.17-2.25,5.76,5.76,0,0,1,3.16-3.84,5.93,5.93,0,0,1,1.84-.5,5.309,5.309,0,0,1,.65,0,6.16,6.16,0,0,0-2.45.6,5.53,5.53,0,0,0-2.26,2,5.31,5.31,0,0,0-.75,1.78,9.271,9.271,0,0,0-.15,2.22c0,6.37-.08,15.57-.13,26.93,0,5.68-.07,11.91-.11,18.6,0,3.34-.05,6.8-.07,10.36v5.42a5.5,5.5,0,0,0,2.1,4.68,5.28,5.28,0,0,0,2.46,1.06,26.165,26.165,0,0,0,2.83.09h5.84l12,.09,25.34.2a5.43,5.43,0,0,0,4.94-3.08,6.12,6.12,0,0,0,.53-3v-3.18q0-6.33.07-12.47c0-8.18.09-16.07.13-23.59s.09-14.66.13-21.35a13.818,13.818,0,0,0-.09-2.43,5.47,5.47,0,0,0-.9-2.15,5.59,5.59,0,0,0-3.78-2.34,21.34,21.34,0,0,0-2.27-.08h-6.64l-26.94-.2-7.32-.09h-1.9Z" fill="#344154"/>
                </g>
                <path id="Trazado_110515" data-name="Trazado 110515" d="M268.41,142.24c0,.23-4.69.37-10.48.33s-10.47-.27-10.46-.5,4.69-.37,10.47-.32S268.41,142,268.41,142.24Z" fill="#344154"/>
                <path id="Trazado_110516" data-name="Trazado 110516" d="M281.85,150.39c0,.23-7.72.35-17.23.28s-17.23-.32-17.23-.55,7.71-.35,17.23-.27S281.86,150.17,281.85,150.39Z" fill="#344154"/>
                <path id="Trazado_110517" data-name="Trazado 110517" d="M284.89,158.74c0,.23-8.41.35-18.79.27s-18.78-.34-18.78-.56,8.41-.35,18.79-.26S284.89,158.52,284.89,158.74Z" fill="#344154"/>
                <path id="Trazado_110518" data-name="Trazado 110518" d="M284.83,166.6c0,.23-8.41.34-18.79.26s-18.78-.33-18.78-.56,8.41-.34,18.79-.26S284.83,166.37,284.83,166.6Z" fill="#344154"/>
                <path id="Trazado_110519" data-name="Trazado 110519" d="M284.77,174.45c0,.23-8.42.35-18.79.27s-18.78-.34-18.78-.56,8.41-.35,18.79-.27S284.77,174.23,284.77,174.45Z" fill="#344154"/>
                <path id="Trazado_110520" data-name="Trazado 110520" d="M284.71,182.31c0,.22-8.42.34-18.79.26s-18.79-.33-18.78-.56,8.41-.34,18.79-.26S284.71,182.08,284.71,182.31Z" fill="#344154"/>
              </g>
              <path id="Trazado_110521" data-name="Trazado 110521" d="M249.94,129.89v-5.22a1.57,1.57,0,0,0-1.58-1.57h0a1.57,1.57,0,0,0-1.58,1.57V132a2.53,2.53,0,0,0,2.53,2.53h0a2.53,2.53,0,0,0,2.53-2.53v-8.39a3.52,3.52,0,0,0-3.52-3.52h0a3.51,3.51,0,0,0-3.31,2.341v.409" fill="none" stroke="#1a2e35" stroke-linecap="round" stroke-linejoin="round" stroke-width="0.75" opacity="0"/>
            </g>
            <path id="Trazado_110522" data-name="Trazado 110522" d="M304.6,154.07l-5-3.09-12.71-6.7s-2.53,2.45,1.74,6l5.26,4.16s4.67,8.57,5.67,9.2a59,59,0,0,0,5.59,2.3Z" fill="#ffbf9d"/>
            <path id="Trazado_110523" data-name="Trazado 110523" d="M305.67,166.11a1.81,1.81,0,0,1-.51-.11c-.33-.09-.82-.24-1.44-.45s-1.37-.48-2.22-.86a12.921,12.921,0,0,1-1.33-.68,4.26,4.26,0,0,1-1.29-1.12,59.348,59.348,0,0,1-4.29-7l-.58-1a3,3,0,0,0-.75-.84c-.6-.52-1.25-1-1.91-1.54a47.674,47.674,0,0,1-4.05-3.3,4.21,4.21,0,0,1-.72-5.18l.11-.16.17.1c5.09,2.87,9.46,5.49,12.78,7,1.61.89,2.83,1.67,3.68,2.21l1,.63a1.34,1.34,0,0,1,.32.25,1.82,1.82,0,0,1-.36-.18l-1-.57c-.87-.5-2.12-1.25-3.73-2.09-3.35-1.46-7.77-4-12.86-6.89l.28-.06a3.4,3.4,0,0,0-.47,2.35,4.08,4.08,0,0,0,1.16,2.26,46.4,46.4,0,0,0,4,3.27c.66.52,1.32,1,1.93,1.56a4.569,4.569,0,0,1,.45.43,2.659,2.659,0,0,1,.38.52l.58,1a63.347,63.347,0,0,0,4.17,7,6.39,6.39,0,0,0,2.48,1.77c.83.4,1.58.69,2.18.92l1.41.53a2.351,2.351,0,0,1,.43.23Z" fill="#ff9a6c"/>
          </g>
          <g id="Grupo_60082" data-name="Grupo 60082">
            <g id="Grupo_60075" data-name="Grupo 60075">
              <path id="Trazado_110524" data-name="Trazado 110524" d="M442.83,129.89c-.17-3.09-.56-18.1-.74-20.38a12.69,12.69,0,0,0-3.77-8.26c-2.27-2.1-5.79-3-8.57-1.65h0a5.27,5.27,0,0,0-3.78,3.71c-6.32,22.46-5.32,46.38-8.11,69.61,8.24,1.34,19.34.8,27.68.36C445.54,154.73,444,149.91,442.83,129.89Z" fill="#344154"/>
              <path id="Trazado_110525" data-name="Trazado 110525" d="M439.35,161.56a3.231,3.231,0,0,1-.06-.6c0-.46-.05-1-.08-1.73,0-1.57-.11-3.71-.2-6.33-.11-5.42-.26-12.78-.43-20.91-.07-4.08-.13-8-.18-11.51,0-1.77,0-3.45-.06-5a24.145,24.145,0,0,0-.3-4.32,7,7,0,0,0-3.21-5.08,5.8,5.8,0,0,0-2.18-.67h.15a2.47,2.47,0,0,1,.46,0,4.23,4.23,0,0,1,1.67.49,6.2,6.2,0,0,1,2.07,1.82,8.36,8.36,0,0,1,1.42,3.37,26,26,0,0,1,.37,4.39c0,1.58.07,3.26.11,5,.07,3.54.14,7.43.22,11.51.11,8.13.2,15.49.28,20.91v8.06a2.248,2.248,0,0,1-.05.6Z" fill="#5e6178"/>
              <path id="Trazado_110526" data-name="Trazado 110526" d="M431.86,153a6.347,6.347,0,0,1-.1-1.35c0-.87-.05-2.14-.05-3.69,0-3.12.06-7.42.18-12.18s.25-8.94.34-12.16c0-1.47.09-2.71.12-3.69a5.858,5.858,0,0,1,.11-1.35,6.353,6.353,0,0,1,.1,1.35c0,.87.05,2.13.05,3.69,0,3.12-.06,7.42-.18,12.18s-.25,8.94-.34,12.16c0,1.47-.09,2.71-.12,3.69a7.777,7.777,0,0,1-.11,1.35Z" fill="#5e6178"/>
            </g>
            <g id="Grupo_60081" data-name="Grupo 60081">
              <g id="Grupo_60080" data-name="Grupo 60080">
                <path id="Trazado_110527" data-name="Trazado 110527" d="M404.31,82.32c6.19-.64,11.41,2.07,16.35,5.86A30.82,30.82,0,0,1,431,103.37c2,6.25,2,15.11-.24,21.27A19.05,19.05,0,0,1,418,136.76c-8.62,2.44-18.32,1.45-25.09-4.4s-10.26-15-10-24a29.58,29.58,0,0,1,5.82-17.24,22.53,22.53,0,0,1,15.65-8.83" fill="#344154"/>
                <g id="Grupo_60079" data-name="Grupo 60079">
                  <path id="Trazado_110528" data-name="Trazado 110528" d="M420.35,104.28c-.74-2.4-.22-5-.41-7.5-.43-5.52-4.54-10.19-9.5-12.65-4.6-2.29-10.42-2.24-16.25-.77a21.87,21.87,0,0,0-10.63,6,17.21,17.21,0,0,0-4.17,15.21l28.23-2.24c2.47,2.34,5,4.71,8.11,6.13a5.87,5.87,0,0,0,2.89.66,2.63,2.63,0,0,0,2.29-1.66C421.23,106.4,420.67,105.32,420.35,104.28Z" fill="#344154"/>
                  <path id="Trazado_110529" data-name="Trazado 110529" d="M393.09,91l24.07,6.77a4.57,4.57,0,0,1,4,4.74l-3.76,52.81a16.4,16.4,0,0,1-4.09,9.74L410.76,168c-5.76,6.5-16.47,5.1-20-2.82a5.689,5.689,0,0,1-.47-1.42,9.8,9.8,0,0,1-.15-1.2,38.112,38.112,0,0,1,.1-8c.07-4.72.12-6.65.12-6.61s-9.91-1.92-11.63-15c-.85-6.48-.25-17.06.53-25.7C379.94,99.44,385.35,90,393.09,91Z" fill="#ffbf9d"/>
                  <g id="Grupo_60078" data-name="Grupo 60078">
                    <g id="Grupo_60076" data-name="Grupo 60076">
                      <path id="Trazado_110530" data-name="Trazado 110530" d="M382.3,117.37a1.67,1.67,0,0,0,1.56,1.72,1.59,1.59,0,0,0,1.76-1.45,1.68,1.68,0,0,0-1.56-1.73,1.6,1.6,0,0,0-1.76,1.46Z" fill="#344154"/>
                      <path id="Trazado_110531" data-name="Trazado 110531" d="M381.39,112.78c.2.22,1.49-.68,3.28-.62s3.08,1,3.28.76-.1-.49-.66-.92a4.57,4.57,0,0,0-2.62-.88,4.39,4.39,0,0,0-2.62.76C381.49,112.29,381.29,112.68,381.39,112.78Z" fill="#344154"/>
                    </g>
                    <g id="Grupo_60077" data-name="Grupo 60077">
                      <path id="Trazado_110532" data-name="Trazado 110532" d="M398.35,118a1.65,1.65,0,0,0,1.56,1.72,1.61,1.61,0,0,0,1.76-1.46,1.67,1.67,0,0,0-1.56-1.72,1.6,1.6,0,0,0-1.76,1.46Z" fill="#344154"/>
                      <path id="Trazado_110533" data-name="Trazado 110533" d="M398.39,113.46c.2.22,1.49-.68,3.28-.63s3.08,1,3.28.77-.1-.49-.66-.92a4.65,4.65,0,0,0-2.62-.89,4.39,4.39,0,0,0-2.62.77C398.49,113,398.29,113.36,398.39,113.46Z" fill="#344154"/>
                    </g>
                    <path id="Trazado_110534" data-name="Trazado 110534" d="M392.14,126.7a11.6,11.6,0,0,0-2.9-.6c-.46-.06-.89-.17-1-.48a2.41,2.41,0,0,1,.35-1.35q.69-1.63,1.44-3.45c2-4.91,3.48-8.95,3.28-9s-2,3.84-4,8.75c-.48,1.21-1,2.36-1.39,3.47a2.66,2.66,0,0,0-.28,1.79,1.16,1.16,0,0,0,.73.69,3.519,3.519,0,0,0,.78.13,12,12,0,0,0,2.99.05Z" fill="#344154"/>
                    <path id="Trazado_110535" data-name="Trazado 110535" d="M390.34,147.87a33.08,33.08,0,0,0,17.51-4.18s-4.61,8.88-17.58,7.31Z" fill="#ff9a6c"/>
                    <path id="Trazado_110536" data-name="Trazado 110536" d="M392.78,131a3.23,3.23,0,0,1,2.93-1.13,2.94,2.94,0,0,1,2,1.15,1.87,1.87,0,0,1,.09,2.14,2.16,2.16,0,0,1-2.37.53,6.63,6.63,0,0,1-2.25-1.43,2,2,0,0,1-.5-.54.62.62,0,0,1,0-.67" fill="#ff9a6c"/>
                    <path id="Trazado_110537" data-name="Trazado 110537" d="M397.38,128.08c-.29,0-.35,1.92-2.05,3.25s-3.77,1.07-3.79,1.34.45.39,1.33.44a4.86,4.86,0,0,0,3.16-1,4.25,4.25,0,0,0,1.59-2.73C397.71,128.56,397.51,128.07,397.38,128.08Z" fill="#344154"/>
                  </g>
                  <path id="Trazado_110538" data-name="Trazado 110538" d="M398.84,108.16c.16.49,2,.31,4.05.61s3.78.93,4.07.5c.13-.2-.15-.67-.82-1.16a6.9,6.9,0,0,0-3-1.14,6.83,6.83,0,0,0-3.19.29C399.17,107.55,398.77,107.92,398.84,108.16Z" fill="#344154"/>
                  <path id="Trazado_110539" data-name="Trazado 110539" d="M382.12,105c.3.41,1.55,0,3,0s2.74.35,3-.07c.13-.2-.06-.61-.6-1a4.36,4.36,0,0,0-4.89,0C382.17,104.34,382,104.76,382.12,105Z" fill="#344154"/>
                  <path id="Trazado_110540" data-name="Trazado 110540" d="M425.07,100.8c-2-7.6-12.43-18.45-20.3-18.26l-12.86,6.94a12.1,12.1,0,0,0,7.78,9.62c2.18.77,4.84,1.08,6.07,3s.34,4.81,1.5,6.87c1.61,2.86,6.36,2.94,7.52,6,.51,1.33.14,2.89.67,4.22.71,1.77,5,4.17,6.85,3.68s2-3.59,2.66-5.18a8.57,8.57,0,0,0,.52-5.75C424.86,108.29,426.05,104.43,425.07,100.8Z" fill="#344154"/>
                  <path id="Trazado_110541" data-name="Trazado 110541" d="M416.87,124.21c0-1,1.2-3.22,2.16-3.34,2.56-.33,7.16,0,7,6.47-.18,8.86-9,6.85-9,6.6S416.77,127.55,416.87,124.21Z" fill="#ffbf9d"/>
                  <path id="Trazado_110542" data-name="Trazado 110542" d="M419.79,130.64a2.6,2.6,0,0,0,.41.23,1.56,1.56,0,0,0,1.15,0c.94-.32,1.76-1.79,1.83-3.39a5.17,5.17,0,0,0-.38-2.22,1.78,1.78,0,0,0-1.14-1.2.78.78,0,0,0-.92.4c-.12.25-.07.42-.12.44s-.18-.15-.11-.52a1.09,1.09,0,0,1,.36-.55,1.17,1.17,0,0,1,.86-.2,2.18,2.18,0,0,1,1.59,1.4,5.39,5.39,0,0,1,.48,2.48c-.09,1.78-1,3.43-2.33,3.78a1.66,1.66,0,0,1-1.4-.26C419.8,130.85,419.76,130.65,419.79,130.64Z" fill="#ff9a6c"/>
                </g>
                <path id="Trazado_110543" data-name="Trazado 110543" d="M432.32,113.08a8,8,0,0,0,.51-2.63,19.81,19.81,0,0,0-.6-6.44,19.579,19.579,0,0,0-2.68-5.89,7.811,7.811,0,0,0-1.74-2c-.17.1,2.6,3.23,3.85,8.07S432.12,113.07,432.32,113.08Z" fill="#d9a171"/>
                <path id="Trazado_110544" data-name="Trazado 110544" d="M394.65,87c-1,3.54-6.81,7.79-9.39,10.43-4.93,5-5.84,5.77-6.84,21.86a38.11,38.11,0,0,1-2.65-16.22,19.32,19.32,0,0,1,5.94-12.32A15,15,0,0,1,394.65,87" fill="#344154"/>
              </g>
              <path id="Trazado_110545" data-name="Trazado 110545" d="M429.58,101a9.412,9.412,0,0,1-1.52.27,17.475,17.475,0,0,1-1.81.2c-.71,0-1.51.13-2.41.12a42.44,42.44,0,0,1-6.26-.35,46.871,46.871,0,0,1-7.51-1.65,47.68,47.68,0,0,1-7.1-2.93,41.829,41.829,0,0,1-5.34-3.3,22.471,22.471,0,0,1-1.91-1.47c-.56-.47-1-.85-1.37-1.19a7.473,7.473,0,0,1-1.09-1.1,9.659,9.659,0,0,1,1.22.94c.38.32.85.71,1.42,1.12s1.19.92,1.94,1.4a46.186,46.186,0,0,0,5.35,3.17,51.3,51.3,0,0,0,7,2.86,49.4,49.4,0,0,0,7.41,1.67,47.817,47.817,0,0,0,6.2.46h2.39a17.477,17.477,0,0,0,1.8-.1,8.231,8.231,0,0,1,1.59-.12Z" fill="#5e6178"/>
              <path id="Trazado_110546" data-name="Trazado 110546" d="M430.09,107.37a3.87,3.87,0,0,1-1,.18,24,24,0,0,1-2.87.18A35.48,35.48,0,0,1,408,102.92a26.411,26.411,0,0,1-2.41-1.57c-.55-.41-.84-.65-.81-.68s1.28.78,3.4,1.92A40.78,40.78,0,0,0,416.9,106a41.579,41.579,0,0,0,9.28,1.32C428.59,107.41,430.08,107.28,430.09,107.37Z" fill="#5e6178"/>
            </g>
            <path id="Trazado_110547" data-name="Trazado 110547" d="M432.3,107.73a6,6,0,0,1,.22,1.35,34.287,34.287,0,0,1,.12,3.72,53.522,53.522,0,0,1-.35,5.5,36.35,36.35,0,0,1-1.34,6.64,17.75,17.75,0,0,1-7.5,9.55,17.4,17.4,0,0,1-3.39,1.55,6.569,6.569,0,0,1-1.32.36,6.542,6.542,0,0,1,1.25-.55,20.668,20.668,0,0,0,3.26-1.69,16.21,16.21,0,0,0,4-3.61,17.9,17.9,0,0,0,3.18-5.78,37.321,37.321,0,0,0,1.36-6.53c.27-2,.4-3.9.47-5.45s.07-2.82.05-3.7A8.917,8.917,0,0,1,432.3,107.73Z" fill="#5e6178"/>
          </g>
          <path id="Trazado_110548" data-name="Trazado 110548" d="M310.71,158.83l25.68,26c3.38-.78,44.82-25.55,44.82-25.55l6.55,31.88s-42.41,19.49-54.08,17.13c-1.91-.39-5-.63-7-3.16-9.33-12-27.07-37.27-27.07-37.27Z" fill="#ffbf9d"/>
          <g id="Grupo_60087" data-name="Grupo 60087">
            <path id="Trazado_110549" data-name="Trazado 110549" d="M344.39,397.14l12.68,27.47,20.45-9.45-13.11-34Z" fill="#ffbf9d"/>
            <g id="Grupo_60084" data-name="Grupo 60084">
              <path id="Trazado_110550" data-name="Trazado 110550" d="M354.67,422.78l7.41,14.12s-19,19.6-17.18,24l44.57-21.36-12.25-28.33Z" fill="#5e6178"/>
              <path id="Trazado_110551" data-name="Trazado 110551" d="M374.93,428.36a2,2,0,0,1,2.26,1.48,1.94,1.94,0,0,1-1.45,2.24,2.11,2.11,0,0,1-2.37-1.57,2,2,0,0,1,1.75-2.17" fill="#839eb6"/>
              <g id="Grupo_60083" data-name="Grupo 60083" opacity="0.6">
                <path id="Trazado_110552" data-name="Trazado 110552" d="M389.47,439.52,387.61,436l-42,21.82s-1.58,1.81-.68,3.1Z" fill="#fff"/>
              </g>
              <path id="Trazado_110553" data-name="Trazado 110553" d="M361.25,437c.11.21,1.24-.21,2.65,0s2.41.82,2.57.64-.76-1.28-2.47-1.48S361.1,436.84,361.25,437Z" fill="#344154"/>
              <path id="Trazado_110554" data-name="Trazado 110554" d="M357.5,441.19c.05.24,1.17.16,2.35.72s1.86,1.44,2.07,1.33-.24-1.41-1.72-2.09S357.4,441,357.5,441.19Z" fill="#344154"/>
              <path id="Trazado_110555" data-name="Trazado 110555" d="M357.53,448.06c.22-.05,0-1.28-1.13-2.2s-2.4-.86-2.4-.69.93.56,1.84,1.34S357.3,448.14,357.53,448.06Z" fill="#344154"/>
              <path id="Trazado_110556" data-name="Trazado 110556" d="M359.12,431.58c.19.15,1-.63,2.31-1.13s2.42-.58,2.44-.82-1.27-.58-2.76,0S358.93,431.46,359.12,431.58Z" fill="#344154"/>
            </g>
            <path id="Trazado_110557" data-name="Trazado 110557" d="M343.38,412.06l-31.57-85.84s.75-14.27,3.38-18.77,82.23-30.79,82.23-30.79,20.27-4.88,33.79,0,27.25,10.91,25.9,20.38a24.624,24.624,0,0,1-1,4.26,34.44,34.44,0,0,1-31.82,23.37l-10.52,1.18-53.66,10.24a4.11,4.11,0,0,0-3.17,5.23l17.33,57.74S355.3,408.3,343.38,412.06Z" fill="#344154"/>
            <path id="Trazado_110558" data-name="Trazado 110558" d="M315.51,352.7l-.76,30.25,22.53.55,3.24-36.3Z" fill="#ffbf9d"/>
            <g id="Grupo_60086" data-name="Grupo 60086">
              <path id="Trazado_110559" data-name="Trazado 110559" d="M314.75,378.92l-.93,17.27s-25.66,9.22-26,13.94l49.42.5,1.52-30.83Z" fill="#5e6178"/>
              <path id="Trazado_110560" data-name="Trazado 110560" d="M313.59,386.45a1.83,1.83,0,0,1,0-.88,5.44,5.44,0,0,1,1-2.25,3.16,3.16,0,0,1,.59-.65,1.23,1.23,0,0,1,1.11-.22.78.78,0,0,1,.5.44.87.87,0,0,1,0,.6,5.178,5.178,0,0,1-.52.9c-.38.59-.7,1.17-1.19,1.82a1.49,1.49,0,0,1-1.33.54,3,3,0,0,1-1.27-.51,10.36,10.36,0,0,1-1.88-1.55,8.531,8.531,0,0,1-.74-.87,2.809,2.809,0,0,1-.56-1,.92.92,0,0,1,.57-1.08,1.36,1.36,0,0,1,1.19.24,7.1,7.1,0,0,1,1.25,1.28,8.138,8.138,0,0,1,1.23,2.14c.2.53.25.85.21.86a16.109,16.109,0,0,0-1.77-2.78,7.333,7.333,0,0,0-1.21-1.14.87.87,0,0,0-.71-.17.47.47,0,0,0-.23.56,2.43,2.43,0,0,0,.49.8c.22.27.46.55.71.81a10.353,10.353,0,0,0,1.79,1.46,2.471,2.471,0,0,0,1,.42.86.86,0,0,0,.8-.34c.41-.53.81-1.19,1.19-1.74a5.822,5.822,0,0,0,.49-.81q.15-.37-.15-.48c-.45-.17-.89.29-1.19.67a8.12,8.12,0,0,0-1.37,2.93Z" fill="#344154"/>
              <path id="Trazado_110561" data-name="Trazado 110561" d="M329.13,394.2a1.906,1.906,0,0,1-.92,3.7,2.14,2.14,0,0,1-1.44-2.46,2,2,0,0,1,2.54-1.17" fill="#839eb6"/>
              <g id="Grupo_60085" data-name="Grupo 60085" opacity="0.6">
                <path id="Trazado_110562" data-name="Trazado 110562" d="M337.24,410.63l-.09-4-47.35,1s-2.21.93-2,2.49Z" fill="#fff"/>
              </g>
              <path id="Trazado_110563" data-name="Trazado 110563" d="M313,395.93c0,.24,1.22.36,2.4,1.15s1.8,1.81,2,1.72-.12-1.5-1.57-2.42S313,395.71,313,395.93Z" fill="#344154"/>
              <path id="Trazado_110564" data-name="Trazado 110564" d="M307.82,398c-.06.23,1,.65,1.79,1.68s1,2.11,1.28,2.11.41-1.38-.63-2.64S307.83,397.79,307.82,398Z" fill="#344154"/>
              <path id="Trazado_110565" data-name="Trazado 110565" d="M304.81,404.19c.22.06.57-1.14,0-2.47s-1.73-1.87-1.83-1.67.59.92,1.07,2S304.57,404.17,304.81,404.19Z" fill="#344154"/>
              <path id="Trazado_110566" data-name="Trazado 110566" d="M313.52,390.11c.1.22,1.21-.1,2.57,0s2.42.55,2.55.35-.88-1.08-2.49-1.18S313.4,389.92,313.52,390.11Z" fill="#344154"/>
            </g>
            <path id="Trazado_110567" data-name="Trazado 110567" d="M328.66,268.73s-13.5-1.08-15,13.56-8.55,82.52-8.55,82.52l37.11,3.09,4.89-69.84,50.31-21.4S337.67,266.85,328.66,268.73Z" fill="#344154"/>
            <path id="Trazado_110568" data-name="Trazado 110568" d="M384.29,249s-8.19,23-6.63,25.52,22.62,13.09,22.62,13.09L453,307.82s5.41-8.61,5.41-21.83-18.33-37-18.33-37Z" fill="#344154"/>
            <path id="Trazado_110569" data-name="Trazado 110569" d="M399.91,275.49a2.669,2.669,0,0,1-.25.13l-.74.35-2.92,1.3L385,282l-37.82,16.28.17-.24c-.48,6.9-1,14.35-1.53,22.06-1.28,18-2.47,34.63-3.4,47.77v.24h-.23l-23-2-6.33-.59-1.65-.17a3.323,3.323,0,0,1-.56-.08,3.377,3.377,0,0,1,.56,0l1.66.11,6.34.46,23,1.81-.25.22c.9-13.15,2-29.76,3.28-47.78.54-7.71,1.07-15.16,1.55-22.06v-.17l.16-.07,37.9-16.09,11-4.62,3-1.21.76-.3Z" fill="#5e6178"/>
            <path id="Trazado_110570" data-name="Trazado 110570" d="M441.83,277.79a8.424,8.424,0,0,1-1.48-.41l-4-1.28a86.485,86.485,0,0,0-13.28-3.35,38.839,38.839,0,0,0-13.6.17,53.316,53.316,0,0,0-5.44,1.58,6.221,6.221,0,0,1,1.37-.69,24.359,24.359,0,0,1,4-1.3,36.82,36.82,0,0,1,13.78-.35,73.79,73.79,0,0,1,13.32,3.55c1.67.59,3,1.09,3.92,1.46A7.589,7.589,0,0,1,441.83,277.79Z" fill="#5e6178"/>
            <path id="Trazado_110571" data-name="Trazado 110571" d="M434.38,265.68a37.749,37.749,0,0,0-4.61,0c-1.42.1-3.11.32-5,.54s-3.94.47-6.07.88a28.139,28.139,0,0,0-10.33,3.83,32.4,32.4,0,0,0-3.58,2.88,4.579,4.579,0,0,1,.77-1,15.607,15.607,0,0,1,2.58-2.24,26.42,26.42,0,0,1,10.45-4.06c2.16-.41,4.24-.65,6.12-.84s3.59-.36,5-.41a19.28,19.28,0,0,1,3.41.15,4.05,4.05,0,0,1,1.26.27Z" fill="#5e6178"/>
            <path id="Trazado_110572" data-name="Trazado 110572" d="M357.81,428.76a2.29,2.29,0,0,1-.41-.9,6.65,6.65,0,0,1-.21-2.69,3.812,3.812,0,0,1,.21-.91,1.14,1.14,0,0,1,.89-.72.8.8,0,0,1,.66.23,1.06,1.06,0,0,1,.28.61,7,7,0,0,1,0,1.13c-.06.76-.06,1.48-.18,2.35a1.43,1.43,0,0,1-.93,1.12,2.75,2.75,0,0,1-1.39.06,10.721,10.721,0,0,1-2.45-.73c-.38-.16-.74-.34-1.09-.53a3.409,3.409,0,0,1-1-.75,1,1,0,0,1,0-1.33,1.24,1.24,0,0,1,1.18-.29,7.31,7.31,0,0,1,1.75.73,9.39,9.39,0,0,1,2.16,1.59,2.5,2.5,0,0,1,.62.77,19.546,19.546,0,0,0-3-2,8.18,8.18,0,0,0-1.64-.61.82.82,0,0,0-.72.15.55.55,0,0,0,.07.66,2.89,2.89,0,0,0,.83.58,11,11,0,0,0,3.36,1.18,2.41,2.41,0,0,0,1.11,0,.83.83,0,0,0,.55-.69c.11-.71.14-1.55.2-2.27a5.258,5.258,0,0,0,0-1c0-.3-.16-.44-.37-.42-.49,0-.66.68-.74,1.21a9.569,9.569,0,0,0,.26,3.47Z" fill="#344154"/>
          </g>
          <g id="Grupo_60091" data-name="Grupo 60091">
            <g id="Grupo_60090" data-name="Grupo 60090">
              <path id="Trazado_110573" data-name="Trazado 110573" d="M383,158.49a17.09,17.09,0,0,0-8.76,7.6c-3.28,5.82-2.41,8.7-1.55,12.14s2.38,10.26,2.46,9.82S383,158.49,383,158.49Z" fill="#ffbf9d"/>
              <path id="Trazado_110574" data-name="Trazado 110574" d="M438.55,168.87s-4.3-10.38-5.17-11.35l-15.87-4-9.93,4.86a17.41,17.41,0,0,1-9.26,1.84c-3.55-.34-6.67-1.77-8.24-4.39h0l-6.2,1.68s-9.85,29.72-9.65,37.95,3.62,31.6,3.23,36.21S378.67,249,384.29,249h55.78s12.59-3.49,13.14-11.06S438.55,168.87,438.55,168.87Z" fill="#d9a171"/>
              <path id="Trazado_110575" data-name="Trazado 110575" d="M420.77,214a4.42,4.42,0,0,1-.94.79,16.921,16.921,0,0,1-2.88,1.68,17.4,17.4,0,0,1-4.76,1.43,16.46,16.46,0,0,1-6.09-.26,20.09,20.09,0,0,1-9.47-5.5,21.932,21.932,0,0,1-2.18-2.53,5.089,5.089,0,0,1-.65-1c.08-.07,1.09,1.36,3.12,3.26a20.8,20.8,0,0,0,9.31,5.22,17.06,17.06,0,0,0,10.55-1C419.33,215,420.7,213.87,420.77,214Z" fill="#344154"/>
              <g id="Grupo_60088" data-name="Grupo 60088" opacity="0.3">
                <path id="Trazado_110576" data-name="Trazado 110576" d="M394.73,209.83a16.2,16.2,0,0,0,5.73,11,13.5,13.5,0,0,0,11.94,2.61,11.57,11.57,0,0,0,8.15-8.86,34,34,0,0,1-8.9,3.1,17.51,17.51,0,0,1-17.19-8.11l.46.48" fill="#d9a171"/>
              </g>
              <g id="Grupo_60089" data-name="Grupo 60089" opacity="0.3">
                <path id="Trazado_110577" data-name="Trazado 110577" d="M441.67,218.88c-5.89-11.43-12.12-23.27-22.43-31h0c2.29,7.82,4.33,15.16,6.86,22.91.72,2.19,1.84,4.74,4.12,5.1.84.13,1.71-.07,2.54.1,1.43.28,2.41,1.56,3.18,2.8a7.839,7.839,0,0,0,2.84,3.23c1.31.64,3.3,0,3.42-1.42a3.32,3.32,0,0,0-.53-1.72Z" fill="#d9a171"/>
              </g>
              <path id="Trazado_110578" data-name="Trazado 110578" d="M458.4,197.1l-28.11,13.18s-12.44-24.93-13.42-28.4-3.1-9.37.07-16.59a14.15,14.15,0,0,1,16.88-7.63C446.21,162,458.4,197.1,458.4,197.1Z" fill="#d9a171"/>
              <path id="Trazado_110579" data-name="Trazado 110579" d="M376.91,197c-1.31,0-16.38,7.88-16.38,7.88l-10-28.9c12.95-7,27.34-16.94,34.84-19l-6.52,22.61Z" fill="#d9a171"/>
              <path id="Trazado_110580" data-name="Trazado 110580" d="M433.05,208.49c5.32,8.74,9,13.77,9,13.77l-47.74,29.08,5.56,12.92,58-23.88a13.29,13.29,0,0,0,8-9.08,11,11,0,0,0-.14-5.81l-9.87-27.24Z" fill="#ffbf9d"/>
              <path id="Trazado_110581" data-name="Trazado 110581" d="M453.7,226.71c-.11.15-2.37-1.75-5.71-3s-6.28-1.29-6.27-1.48a15.47,15.47,0,0,1,12,4.45Z" fill="#ff9a6c"/>
              <path id="Trazado_110582" data-name="Trazado 110582" d="M378.64,171.3a8,8,0,0,0-.8,1.34,24.811,24.811,0,0,0-1.56,3.85,59,59,0,0,0-2.36,13.22,76.589,76.589,0,0,0,.16,13.37,39.929,39.929,0,0,0,.62,4,6.4,6.4,0,0,0,.41,1.45,6.721,6.721,0,0,0-.15-1.48c-.12-.95-.29-2.32-.41-4a93.367,93.367,0,0,1,0-13.3,67.23,67.23,0,0,1,2.16-13.17,32.366,32.366,0,0,1,1.34-3.87A6.751,6.751,0,0,0,378.64,171.3Z" fill="#344154"/>
              <path id="Trazado_110583" data-name="Trazado 110583" d="M357.31,260.19l11.91-5.69,23.23-1.85,1.9-1.31,5.56,12.92s-6.09,2.91-9.28,3.17l-19.54-.59-10.21,1.07Z" fill="#ffbf9d"/>
              <path id="Trazado_110584" data-name="Trazado 110584" d="M458.4,197.1a2.129,2.129,0,0,0-.56.2l-1.55.66-5.68,2.52L432,209l-2.32,1,.35.13c-3.24-6.69-6.09-12.67-8.1-17-1-2.12-1.77-3.84-2.35-5.11-.25-.56-.46-1-.63-1.38a2.7,2.7,0,0,0-.25-.47,1.64,1.64,0,0,0,.15.51c.12.32.3.81.55,1.42.49,1.23,1.24,3,2.2,5.18,1.92,4.36,4.71,10.37,7.95,17.06l.11.24.24-.11,2.28-1.05,18.59-8.64,5.6-2.68,1.52-.76a2.08,2.08,0,0,0,.51-.24Z" fill="#344154"/>
            </g>
            <path id="Trazado_110585" data-name="Trazado 110585" d="M432.54,157.66c0,.1-1.32.06-3.36.55a15.87,15.87,0,0,0-11.47,10.5c-.66,2-.75,3.3-.84,3.29a2.44,2.44,0,0,1,0-.92,12.771,12.771,0,0,1,.48-2.48,15.24,15.24,0,0,1,11.75-10.76,13.749,13.749,0,0,1,2.51-.26,2.78,2.78,0,0,1,.93.08Z" fill="#344154"/>
            <path id="Trazado_110586" data-name="Trazado 110586" d="M448.7,175.76a6.531,6.531,0,0,1-.38,1.25,12.6,12.6,0,0,1-1.6,3.17l-.74.93-.4.49c-.15.15-.32.29-.48.44l-1,.93-1.21.82a22.681,22.681,0,0,1-5.93,2.55c-4.41,1.23-8.49,1.82-11.32,2.7a46.251,46.251,0,0,0-4.49,1.69,5.64,5.64,0,0,1,1.1-.69,9.456,9.456,0,0,1,1.38-.66l.88-.37,1-.34c2.84-1,6.94-1.63,11.29-2.85a23.3,23.3,0,0,0,5.81-2.45l1.19-.78,1-.87c.16-.15.33-.28.48-.42l.4-.47.74-.88a14.679,14.679,0,0,0,1.72-3,5.757,5.757,0,0,1,.56-1.19Z" fill="#fff"/>
            <path id="Trazado_110587" data-name="Trazado 110587" d="M445,169.14a5.719,5.719,0,0,0-1.17.28,5.33,5.33,0,0,0-2.33,2.21c-.38.59-.76,1.27-1.26,2a10.18,10.18,0,0,1-1.89,1.95,16.56,16.56,0,0,1-5.53,2.68c-2.09.64-4.12,1-5.93,1.45a26,26,0,0,0-4.68,1.52,16.841,16.841,0,0,0-3.8,2.47,1.4,1.4,0,0,1,.19-.26,5.752,5.752,0,0,1,.63-.67,11.941,11.941,0,0,1,2.81-1.88,24.21,24.21,0,0,1,4.73-1.66c1.82-.48,3.84-.86,5.89-1.48a16.649,16.649,0,0,0,5.39-2.57,10.182,10.182,0,0,0,1.83-1.82c.5-.65.89-1.32,1.3-1.9a5.29,5.29,0,0,1,2.58-2.2,2.789,2.789,0,0,1,.92-.14A.67.67,0,0,1,445,169.14Z" fill="#fff"/>
            <path id="Trazado_110588" data-name="Trazado 110588" d="M422.33,194.13a2,2,0,0,1-.44.25l-1.32.61c-1.14.52-2.81,1.26-4.91,2.07a52.878,52.878,0,0,1-7.58,2.35,28.47,28.47,0,0,1-9.69.57,42.71,42.71,0,0,1-9.34-2.67,35.249,35.249,0,0,0-7.56-2.09,15.33,15.33,0,0,0-5.25.12c-1.22.26-1.86.54-1.88.49s.15-.1.45-.23a8.919,8.919,0,0,1,1.38-.47,14.9,14.9,0,0,1,5.35-.29,33.69,33.69,0,0,1,7.67,2,43.771,43.771,0,0,0,9.24,2.6,28.94,28.94,0,0,0,9.53-.52,55.916,55.916,0,0,0,7.54-2.22c2.11-.76,3.8-1.44,5-1.9l1.35-.52A1.551,1.551,0,0,1,422.33,194.13Z" fill="#fff"/>
            <path id="Trazado_110589" data-name="Trazado 110589" d="M376.21,184.57a4.456,4.456,0,0,1,.37-.29,6.48,6.48,0,0,1,1.18-.61,9.68,9.68,0,0,1,4.85-.49,18.789,18.789,0,0,1,6.81,2.45,63.8,63.8,0,0,0,7.75,4.1,22.78,22.78,0,0,0,8.56,1.28,42.524,42.524,0,0,0,7.1-.85c2-.39,3.62-.77,4.74-1a10.683,10.683,0,0,1,1.75-.35,11.854,11.854,0,0,1-1.7.55c-1.1.32-2.7.76-4.71,1.2a41,41,0,0,1-7.16,1,22.6,22.6,0,0,1-8.77-1.28,59,59,0,0,1-7.8-4.16,19,19,0,0,0-6.62-2.51,10,10,0,0,0-4.73.31C376.76,184.24,376.24,184.62,376.21,184.57Z" fill="#fff"/>
            <path id="Trazado_110590" data-name="Trazado 110590" d="M370.86,199.37h-.32a4.839,4.839,0,0,1-.89-.26,7.32,7.32,0,0,1-2.72-2,11.579,11.579,0,0,1-2.33-4.47,26.461,26.461,0,0,1-.75-6.1,41.318,41.318,0,0,0-.48-6,13.53,13.53,0,0,0-1.7-4.56,9.071,9.071,0,0,0-3.22-3.11.853.853,0,0,1,.31.09,5.569,5.569,0,0,1,.83.41,8,8,0,0,1,2.4,2.4,13.13,13.13,0,0,1,1.87,4.68,38.721,38.721,0,0,1,.53,6.11,27.534,27.534,0,0,0,.69,6,11.7,11.7,0,0,0,2.14,4.36,7.69,7.69,0,0,0,2.52,2.07A5.992,5.992,0,0,1,370.86,199.37Z" fill="#fff"/>
            <path id="Trazado_110591" data-name="Trazado 110591" d="M373.71,192a32.546,32.546,0,0,1-1.5-3.38l-3.48-8.21c-1.39-3.19-2.67-6.06-3.66-8.11s-1.68-3.28-1.61-3.33a3.709,3.709,0,0,1,.59.8c.35.55.82,1.35,1.36,2.35,1.08,2,2.43,4.88,3.82,8.08s2.55,6.13,3.34,8.28c.39,1.07.7,1.94.89,2.55A3.47,3.47,0,0,1,373.71,192Z" fill="#fff"/>
          </g>
          <g id="Grupo_60093" data-name="Grupo 60093">
            <g id="Grupo_60092" data-name="Grupo 60092">
              <path id="Trazado_110592" data-name="Trazado 110592" d="M290.33,214.33l67,.54c2.18,0,4.25,1,4.58,3.19l7.32,48.83h34.5a2,2,0,0,1,0,4H293.52L286,219.38a4.4,4.4,0,0,1,4.33-5.05Z" fill="#839eb6"/>
              <path id="Trazado_110593" data-name="Trazado 110593" d="M290.33,214.33a3.41,3.41,0,0,0-1.06.1,4.42,4.42,0,0,0-3.38,3.83,12.94,12.94,0,0,0,.24,2.76c.28,2,.61,4.24,1,6.8,1.47,10.23,3.6,25,6.21,43.12v.17h.18l106.9.07h2.88a2.79,2.79,0,0,0,1.52-.29,2.23,2.23,0,0,0,1-1.21,2.29,2.29,0,0,0-1-2.78,2.749,2.749,0,0,0-1.51-.28h-34.1l.26.23c-2.64-17.49-5.1-33.8-7.3-48.43a3.81,3.81,0,0,0-1.24-2.55,4.94,4.94,0,0,0-2.56-1.13,22.533,22.533,0,0,0-2.7-.1H353l-10-.08-18-.12-25.51-.13h-6.83l6.83.1,25.51.28,18,.31,10.09.1h2.63a22.864,22.864,0,0,1,2.63.1,4.56,4.56,0,0,1,2.34,1,3.39,3.39,0,0,1,1.09,2.29c2.18,14.63,4.61,30.95,7.22,48.43v.23h34.3a2.2,2.2,0,0,1,1.25.21,1.75,1.75,0,0,1,0,3.05,2.32,2.32,0,0,1-1.26.22h-2.88l-106.9.06.2.18c-2.69-18.13-4.87-32.87-6.39-43.1-.38-2.55-.72-4.82-1-6.79a12.241,12.241,0,0,1-.27-2.71,4.33,4.33,0,0,1,.77-2.09,4.4,4.4,0,0,1,2.48-1.7,6.22,6.22,0,0,1,1.03-.15Z" fill="#344154"/>
            </g>
            <circle id="Elipse_4288" data-name="Elipse 4288" cx="4.19" cy="4.19" r="4.19" transform="translate(319.51 237.81)" fill="#fff"/>
            <path id="Trazado_110594" data-name="Trazado 110594" d="M366.49,270.46c-.09,0-2.22-12.42-4.76-27.77s-4.51-27.8-4.42-27.82,2.23,12.42,4.77,27.77S366.59,270.44,366.49,270.46Z" fill="#344154"/>
          </g>
        </g>
      </g>
      <path id="Trazado_110595" data-name="Trazado 110595" d="M31.57,484.78c0-.15,100.49-.27,224.43-.27s224.44.12,224.44.27-100.47.27-224.44.27S31.57,484.93,31.57,484.78Z" fill="#344154"/>
    </g>
  </g>
</svg>
