<svg xmlns="http://www.w3.org/2000/svg" width="453.528" height="455.76" viewBox="0 0 453.528 455.76">
  <g id="Capa_2" data-name="Capa 2" transform="translate(-15.222 -22.12)">
    <g id="Grupo_60011" data-name="Grupo 60011">
      <g id="Grupo_59954" data-name="Grupo 59954">
        <path id="Trazado_110200" data-name="Trazado 110200" d="M220.73,467.62c-1.59-1.36-5.12-5.66-2.4-10.66,1-1.84,3.12-2.74,5-3.55a20.591,20.591,0,0,0,5.53-2.86c3-2.55,3.82-6.78,5.81-10.18,2.28-3.91,6.54-6.83,11-6.63,5.16.24,9.45,4.45,11.4,9.25s2,10.13,2.06,15.31c0,2.87-.11,6.1-2.21,8-1.94,1.79-4.86,1.81-7.49,1.73l-28.17-.87" fill="#aed3f2"/>
        <path id="Trazado_110201" data-name="Trazado 110201" d="M274.6,390.16H200.52l13.35,79.57a8.87,8.87,0,0,0,6.32,7.08l.26.07a4.91,4.91,0,0,0,.66.17,8.309,8.309,0,0,0,1.51.18v.07l.36-.05h33a9.833,9.833,0,0,0,1.81-.18,9,9,0,0,0,7.5-7.78l6.43-54.82.29-2.18h0l2.55-21.71Zm-14,50.76H253l.77-23.09h8.81Zm2.71-23.09h7.27l-2.71,23.09h-6.54Zm-21.72,48.69-.46-20.07H252.1l-.66,20.07Zm-11.84-20.07h10.64l.46,20.07h-9.54Zm.82,20.07h-8.91c-.85-5.42-1.95-12.46-3.15-20.07h10.51Zm-1.25-25.6-1.79-23.09h12.2l.53,23.09Zm11.68,0-.53-23.09h12.55l-.76,23.09Zm-.66-28.63-.49-21.39H254l-.71,21.39Zm-.74,0H227.1l-1.66-21.39h13.67Zm-13.24,0h-13.2L211.85,404c-1.39-8.64-1.9-11.89-2.19-13.12h15.07Zm.43,5.54,1.8,23.09h-11c-.37-2.35-.74-4.72-1.11-7.09-.86-5.45-1.72-10.9-2.52-16Zm-9.89,23.09h-7.15l-3.87-23.09h7.38c1.16,7.17,2.41,15.07,3.67,23.09Zm.87,5.53c1.09,6.95,2.16,13.79,3.14,20.07h-6.87l-3.36-20.07Zm34.37,20.07.67-20.07h7.31l-1.71,20.07Zm1.8-54.23.71-21.39H264.9l-1.83,21.39ZM209,390.9c.29,1.55,1.64,10,3.45,21.39H205l-3.59-21.39Zm55.94,75.62h-5.72l1.71-20.07h6.36Zm6.36-54.23h-7.45l1.83-21.39h8.13Z" fill="#839eb6"/>
      </g>
      <g id="Grupo_59955" data-name="Grupo 59955">
        <rect id="Rectángulo_8864" data-name="Rectángulo 8864" width="38.6" height="76.52" transform="translate(300.44 92.83)" fill="#aed3f2"/>
        <rect id="Rectángulo_8865" data-name="Rectángulo 8865" width="41.71" height="76.52" transform="translate(340.53 92.83)" fill="#aed3f2"/>
        <rect id="Rectángulo_8866" data-name="Rectángulo 8866" width="41.71" height="73.94" transform="translate(340.53 174.7)" fill="#aed3f2"/>
        <path id="Trazado_110202" data-name="Trazado 110202" d="M387.59,91.51h43.92V23.63H433V91.51h35.75V22.12H387.59Z" fill="#aed3f2"/>
        <rect id="Rectángulo_8867" data-name="Rectángulo 8867" width="35.75" height="76.52" transform="translate(433 92.83)" fill="#aed3f2"/>
        <rect id="Rectángulo_8868" data-name="Rectángulo 8868" width="35.75" height="73.94" transform="translate(433 174.7)" fill="#aed3f2"/>
        <rect id="Rectángulo_8869" data-name="Rectángulo 8869" width="38.6" height="73.94" transform="translate(300.44 174.7)" fill="#aed3f2"/>
        <rect id="Rectángulo_8870" data-name="Rectángulo 8870" width="43.93" height="73.94" transform="translate(387.59 174.7)" fill="#aed3f2"/>
        <rect id="Rectángulo_8871" data-name="Rectángulo 8871" width="38.6" height="66.63" transform="translate(300.44 249.96)" fill="#aed3f2"/>
        <rect id="Rectángulo_8872" data-name="Rectángulo 8872" width="35.75" height="66.63" transform="translate(433 249.96)" fill="#aed3f2"/>
        <path id="Trazado_110203" data-name="Trazado 110203" d="M339.05,91.51V23.63h1.48V91.51h41.71V22.12h-81.8V91.51Z" fill="#aed3f2"/>
        <rect id="Rectángulo_8873" data-name="Rectángulo 8873" width="43.93" height="66.63" transform="translate(387.59 249.96)" fill="#aed3f2"/>
        <rect id="Rectángulo_8874" data-name="Rectángulo 8874" width="41.71" height="66.63" transform="translate(340.53 249.96)" fill="#aed3f2"/>
        <rect id="Rectángulo_8875" data-name="Rectángulo 8875" width="43.93" height="76.52" transform="translate(387.59 92.83)" fill="#aed3f2"/>
      </g>
      <g id="Grupo_59956" data-name="Grupo 59956">
        <path id="Trazado_110204" data-name="Trazado 110204" d="M30.14,209.7a3.92,3.92,0,0,1-4.8-2.77L16.5,174a3.26,3.26,0,0,1,2.43-3.91l3.09-.83a3.36,3.36,0,0,0,2.47-2.55l.31-1.53a3.36,3.36,0,0,1,2.46-2.55L42,158.68a3.42,3.42,0,0,1,3.19.75l1,.95a3.4,3.4,0,0,0,3.19.74l18.74-5a3.25,3.25,0,0,1,4,2.17l9,33.68a3.93,3.93,0,0,1-2.77,4.81Z" fill="#839eb6"/>
        <path id="Trazado_110205" data-name="Trazado 110205" d="M47.52,161.62,35.6,164.79,34,163.08A4.29,4.29,0,0,0,29.79,162l-11.66,3.13a3.77,3.77,0,0,0-2.81,4.52l.37,1.36,9.59,35.76a4.28,4.28,0,0,0,5.34,2.85L78,196.87a4.28,4.28,0,0,0,3.2-5.14L72.08,158a2.82,2.82,0,0,0-3.46-2Z" fill="#aed3f2"/>
      </g>
      <g id="Grupo_59957" data-name="Grupo 59957">
        <path id="Trazado_110206" data-name="Trazado 110206" d="M190,157.34a4.75,4.75,0,0,1-3.5-5.73l9.68-40.07A3.93,3.93,0,0,1,201,108.8l3.76.91a4.09,4.09,0,0,0,4.1-1.28l1.21-1.45a4.09,4.09,0,0,1,4.1-1.28l17.92,4.3a4.13,4.13,0,0,1,3,2.63l.54,1.61a4.15,4.15,0,0,0,3,2.63l22.8,5.51a3.92,3.92,0,0,1,3,4.64l-9.89,41a4.75,4.75,0,0,1-5.73,3.5Z" fill="#839eb6"/>
        <path id="Trazado_110207" data-name="Trazado 110207" d="M236.3,116.35l-14.5-3.54-.71-2.73a5.14,5.14,0,0,0-3.81-3.64L203.1,103a4.56,4.56,0,0,0-5.61,3.17l-.4,1.66-10.51,43.51a5.19,5.19,0,0,0,4,6.12l57.6,13.91a5.19,5.19,0,0,0,6.37-3.61l9.92-41.11a3.41,3.41,0,0,0-2.51-4.12Z" fill="#aed3f2"/>
      </g>
      <g id="Grupo_59959" data-name="Grupo 59959">
        <g id="Grupo_59958" data-name="Grupo 59958">
          <path id="Trazado_110208" data-name="Trazado 110208" d="M78.34,104.47a5.32,5.32,0,0,1-5.88-4.71l-5-46A4.42,4.42,0,0,1,71.47,49l4.32-.47a4.59,4.59,0,0,0,3.84-2.92l.72-2a4.59,4.59,0,0,1,3.84-2.91l20.54-2.26a4.63,4.63,0,0,1,4.12,1.66L110,41.61a4.6,4.6,0,0,0,4.12,1.66l26.18-2.88a4.41,4.41,0,0,1,5,3.74l5.17,47.06a5.31,5.31,0,0,1-4.71,5.87Z" fill="#839eb6"/>
          <path id="Trazado_110209" data-name="Trazado 110209" d="M111.58,43.55l-16.66,1.8-1.79-2.62a5.79,5.79,0,0,0-5.41-2.39L71.44,42.13a5.12,5.12,0,0,0-4.71,5.49l.21,1.9,5.49,49.95A5.82,5.82,0,0,0,79,104.4l66.12-7.27a5.8,5.8,0,0,0,5.34-6.23l-5.18-47.19a3.85,3.85,0,0,0-4.24-3.4Z" fill="#aed3f2"/>
        </g>
        <path id="Trazado_110210" data-name="Trazado 110210" d="M114.52,73.12a6.44,6.44,0,0,0,3.17-6.36,6.07,6.07,0,1,0-12,1.27,6.45,6.45,0,0,0,4.49,5.57C101,76,102.56,86,102.56,86l21.91-2.31S123.85,73.5,114.52,73.12Z" fill="#839eb6"/>
      </g>
      <path id="Trazado_110211" data-name="Trazado 110211" d="M35,97.41a11.51,11.51,0,0,1,2.88-.87l.89-2.64,4.59.46.34,2.76a11.22,11.22,0,0,1,2.66,1.43l2.49-1.25,2.93,3.57L50,103.07a11.45,11.45,0,0,1,.9,2.93l2.65.88-.46,4.59-2.77.35a11.35,11.35,0,0,1-1.43,2.65l1.25,2.5-3.57,2.92-2.2-1.72a11.11,11.11,0,0,1-2.88.87l-.89,2.65-4.6-.5-.35-2.77A11.31,11.31,0,0,1,33,117l-2.49,1.24-2.93-3.57,1.72-2.2a11.51,11.51,0,0,1-.87-2.88l-2.65-.89.46-4.59,2.77-.34a11.48,11.48,0,0,1,1.42-2.65l-1.24-2.5,3.57-2.92Zm1.73,6.4a4.95,4.95,0,1,0,7,.69,5,5,0,0,0-7.03-.69Z" fill="#839eb6"/>
      <g id="Grupo_59960" data-name="Grupo 59960">
        <path id="Trazado_110212" data-name="Trazado 110212" d="M58.26,284.24a3.11,3.11,0,0,0,1.2-.2,2.45,2.45,0,0,0,1.12-.91,2.51,2.51,0,0,0,.36-.85c.05-.32.08-.7.14-1.08.38-3.1.94-7.53,1.62-13l.55-4.31c.09-.74.19-1.51.29-2.28l.15-1.18a5.13,5.13,0,0,0,.09-1.15,2.28,2.28,0,0,0-1.22-1.79,3,3,0,0,0-1.15-.29l-1.28-.16-5.29-.69-23.57-3.08a2.21,2.21,0,0,0-2.5,1.93l-.11.77c-.06.51-.13,1-.2,1.53q-.41,3.06-.79,6c-.53,3.94-1,7.74-1.51,11.37-.12.9-.24,1.79-.35,2.67a2.23,2.23,0,0,0,1,2.05,2.32,2.32,0,0,0,1.1.4l1.26.16,2.45.33,9,1.21,13,1.79L57,284l.91.15.31.07h-.31l-.92-.09-3.54-.42-13-1.62-9-1.15L29,280.63l-1.26-.17a2.73,2.73,0,0,1-2.49-2.93c.11-.89.23-1.79.34-2.7.47-3.62,1-7.42,1.48-11.36q.39-3,.79-6c.07-.5.13-1,.2-1.53l.1-.77a3,3,0,0,1,.24-.82,2.77,2.77,0,0,1,2.85-1.55l23.65,3.1,5.29.7,1.28.17a3.581,3.581,0,0,1,1.29.34,2.74,2.74,0,0,1,1.45,2.15,5.561,5.561,0,0,1-.1,1.25,7.83,7.83,0,0,1-.16,1.17c-.1.78-.2,1.54-.3,2.29-.21,1.49-.4,2.92-.59,4.29-.75,5.45-1.36,9.87-1.78,13-.06.38-.1.74-.17,1.09a2.52,2.52,0,0,1-1.61,1.82,2.17,2.17,0,0,1-.92.14A1.638,1.638,0,0,1,58.26,284.24Z" fill="#839eb6"/>
        <path id="Trazado_110213" data-name="Trazado 110213" d="M59,280.23a2.26,2.26,0,0,1-.3-.38l-.77-1.15-2.75-4.26-1.88-3-.51-.8a.73.73,0,0,0-.65-.32c-.27,0-.46.18-.74.43l-.8.68-1.65,1.41a2.7,2.7,0,0,1-.49.37,1.17,1.17,0,0,1-.69.13,1.24,1.24,0,0,1-.65-.27,2,2,0,0,1-.24-.27l-.16-.24-2.62-4-1.33-2c-.21-.33-.43-.66-.65-1a.71.71,0,0,0-.74-.34.77.77,0,0,0-.37.19l-.4.4-.8.79-1.54,1.53-5.37,5.28L29.21,277l-1,.94a2,2,0,0,1-.38.3,1.691,1.691,0,0,1,.31-.37c.25-.28.56-.61.94-1l3.53-3.65,5.29-5.35,1.53-1.55.79-.79.41-.41a1.17,1.17,0,0,1,.63-.33,1.23,1.23,0,0,1,1.26.56l.66,1c.43.67.88,1.34,1.33,2,.89,1.37,1.76,2.71,2.61,4a.82.82,0,0,0,1.48.18l1.66-1.4.81-.67a4.1,4.1,0,0,1,.42-.34,1.18,1.18,0,0,1,.59-.19,1.2,1.2,0,0,1,1,.53l.51.82,1.82,3c1.07,1.79,2,3.26,2.62,4.35l.68,1.2A2.388,2.388,0,0,1,59,280.23Z" fill="#839eb6"/>
        <path id="Trazado_110214" data-name="Trazado 110214" d="M52,263.7a3.687,3.687,0,0,0-.1-.72,3,3,0,0,0-.89-1.64,2.8,2.8,0,0,0-2.54-.68,2.73,2.73,0,0,0-.66,5.07,2.8,2.8,0,0,0,2.63,0,3,3,0,0,0,1.28-1.36c.19-.41.23-.68.28-.67a1.41,1.41,0,0,1-.09.74,3,3,0,0,1-1.29,1.61,3.19,3.19,0,1,1-2.21-5.89,3.11,3.11,0,0,1,2.9.89,2.93,2.93,0,0,1,.83,1.88,1.35,1.35,0,0,1-.14.77Z" fill="#839eb6"/>
      </g>
      <g id="Grupo_59961" data-name="Grupo 59961">
        <path id="Trazado_110215" data-name="Trazado 110215" d="M214,86.51a3.12,3.12,0,0,0,1.17.32,2.46,2.46,0,0,0,1.39-.38,2.37,2.37,0,0,0,.68-.63c.18-.27.36-.6.57-.92l6.8-11.18,2.27-3.7,1.2-2c.21-.33.41-.67.62-1a5.321,5.321,0,0,0,.55-1,2.25,2.25,0,0,0-.38-2.13,2.9,2.9,0,0,0-.93-.74l-1.09-.67-4.55-2.8c-6.22-3.83-13.06-8-20.23-12.47a2.27,2.27,0,0,0-2.63.2A3.239,3.239,0,0,0,199,48l-.41.66-.81,1.32-3.19,5.16c-2.09,3.38-4.11,6.64-6,9.74-.47.78-.95,1.54-1.41,2.29a2.24,2.24,0,0,0,0,2.28,2.33,2.33,0,0,0,.84.81l1.08.67,2.1,1.31L198.84,77l11.09,7,3,1.91.77.51a2.093,2.093,0,0,1,.26.18,1.27,1.27,0,0,1-.29-.14l-.8-.46-3.05-1.83-11.18-6.8-7.7-4.73-2.11-1.29-1.09-.67a2.72,2.72,0,0,1-1-1,2.69,2.69,0,0,1-.07-2.74c.46-.77.94-1.54,1.41-2.32l6-9.76,3.19-5.16.81-1.32.41-.66a3.11,3.11,0,0,1,.55-.65,2.79,2.79,0,0,1,3.24-.25l20.21,12.51,4.54,2.81,1.09.68a3.44,3.44,0,0,1,1,.84,2.7,2.7,0,0,1,.44,2.55,5.481,5.481,0,0,1-.6,1.1l-.62,1-1.22,2c-.8,1.28-1.56,2.51-2.3,3.68L217.94,85c-.21.33-.39.64-.6.93a2.5,2.5,0,0,1-3.12.76,1.26,1.26,0,0,1-.22-.18Z" fill="#839eb6"/>
        <path id="Trazado_110216" data-name="Trazado 110216" d="M211.23,65.23l1.85,3.7a1,1,0,0,1-1,1.51l-4.21-.13-4.1-.12a1,1,0,0,1-.84-1.62l2.3-3.52,2.33-3.57a1,1,0,0,1,1.81.11Z" fill="#839eb6"/>
      </g>
      <path id="Trazado_110217" data-name="Trazado 110217" d="M466,477.62c0,.14-96.71.26-216,.26s-216-.12-216-.26,96.68-.26,216-.26S466,477.47,466,477.62Z" fill="#344154"/>
      <g id="Grupo_59963" data-name="Grupo 59963">
        <path id="Trazado_110218" data-name="Trazado 110218" d="M441.25,296.94c-9.4,4.87-16.61,13.25-21.79,22.48s-8.53,19.36-11.83,29.42l-2.9,51.87c10.94-18.61,19.72-40.49,22.09-61.94l-7.28-.65c4.88-.75,9-4.28,11.59-8.48s3.94-9,5.25-13.79l-8.88,1.32a32.87,32.87,0,0,0,13.75-20.23Z" fill="#5e6178"/>
        <g id="Grupo_59962" data-name="Grupo 59962" opacity="0.3">
          <path id="Trazado_110219" data-name="Trazado 110219" d="M441.25,296.94c-9.4,4.87-16.61,13.25-21.79,22.48s-8.53,19.36-11.83,29.42l-2.9,51.87c10.94-18.61,19.72-40.49,22.09-61.94l-7.28-.65c4.88-.75,9-4.28,11.59-8.48s3.94-9,5.25-13.79l-8.88,1.32a32.87,32.87,0,0,0,13.75-20.23Z" fill="#d9a171"/>
        </g>
        <path id="Trazado_110220" data-name="Trazado 110220" d="M403.11,412.86s-23.74-28.42-23.47-55.55h9.59s-10.41-6.85-9.59-10.68,1.1-18.36,1.1-18.36l8.77,2.19s-6.58-3.29-7.4-8.5S384,292.64,384,292.64s10.68,11.24,14,22.75,11.92,24.93,9.39,60S403.11,412.86,403.11,412.86Z" fill="#5e6178"/>
        <path id="Trazado_110221" data-name="Trazado 110221" d="M415.15,415.54s25.72-17.13,31.44-39l-7.72-2.1s9.88-3.23,10.06-6.5,3.13-15,3.13-15l-7.53-.15s6-1.21,7.81-5.21,4.87-24,4.87-24-11,6.7-16.21,15.23-15,17.44-20.68,46.2S415.15,415.54,415.15,415.54Z" fill="#5e6178"/>
        <path id="Trazado_110222" data-name="Trazado 110222" d="M390.51,317.42a1.321,1.321,0,0,1,.09.29l.21.88c.18.8.44,1.93.76,3.37s.72,3.26,1.14,5.35.91,4.46,1.4,7.1c1,5.27,2.09,11.57,3.2,18.58s2.14,14.74,3.09,22.87,1.66,15.91,2.21,23,.91,13.45,1.12,18.81c.13,2.68.19,5.11.26,7.24s.1,4,.11,5.47,0,2.63,0,3.45v.9a1.919,1.919,0,0,1,0,.31,1.611,1.611,0,0,1,0-.31q0-.345,0-.9c0-.82-.07-2-.13-3.45s-.11-3.33-.2-5.46-.18-4.55-.34-7.23c-.25-5.36-.68-11.73-1.23-18.8s-1.31-14.83-2.24-23-2-15.85-3.05-22.86-2.12-13.31-3.09-18.58c-.46-2.64-.93-5-1.33-7.12s-.75-3.89-1.05-5.36-.5-2.58-.66-3.39c-.07-.37-.12-.66-.16-.89a1.731,1.731,0,0,1-.11-.27Z" fill="#344154"/>
        <path id="Trazado_110223" data-name="Trazado 110223" d="M399.82,430.26s-21.73-24.65-28.48-39.55l5.1-2.18c-3.7.61-7.48-1-10.34-3.39a36.867,36.867,0,0,1-7-8.7l6.71-1.13A25,25,0,0,1,351.12,364c7.92,1.31,15.08,5.65,21,11.09a104.539,104.539,0,0,1,12.71,14.73,49.861,49.861,0,0,1,4.94,8.12C393.41,405.44,399.83,421.21,399.82,430.26Z" fill="#5e6178"/>
        <path id="Trazado_110224" data-name="Trazado 110224" d="M446.93,337.93a2.555,2.555,0,0,1-.1.26l-.33.71-1.32,2.74c-1.16,2.37-2.8,5.81-4.8,10.09-4,8.54-9.25,20.47-14.45,33.89s-9.31,25.79-12.11,34.8c-1.4,4.5-2.5,8.16-3.23,10.69l-.87,2.91-.24.76a.87.87,0,0,1-.1.25,2,2,0,0,1,.05-.27l.19-.77c.19-.71.45-1.69.77-2.93.68-2.56,1.73-6.23,3.08-10.75,2.71-9,6.79-21.44,12-34.88s10.52-25.35,14.6-33.86c2-4.26,3.73-7.68,4.95-10l1.41-2.69.37-.7a1.333,1.333,0,0,1,.13-.25Z" fill="#344154"/>
        <path id="Trazado_110225" data-name="Trazado 110225" d="M401.66,440.83a11.718,11.718,0,0,1-.33-1.76c-.17-1.14-.46-2.78-.86-4.8a99.007,99.007,0,0,0-4.4-15.41,100.109,100.109,0,0,0-6.88-14.47c-1-1.78-1.9-3.2-2.53-4.17a12.15,12.15,0,0,1-.91-1.54,12.128,12.128,0,0,1,1.08,1.43c.68.93,1.6,2.33,2.67,4.09a87.581,87.581,0,0,1,11.33,30c.36,2,.59,3.68.7,4.83a10.752,10.752,0,0,1,.13,1.8Z" fill="#344154"/>
        <rect id="Rectángulo_8876" data-name="Rectángulo 8876" width="47.55" height="9.7" transform="translate(382.78 435.03)" fill="#d9a171"/>
        <path id="Trazado_110226" data-name="Trazado 110226" d="M387.31,444.73l5.14,32.63h28.74l4.79-32.63Z" fill="#d9a171"/>
        <path id="Trazado_110227" data-name="Trazado 110227" d="M427.41,444.73c0,.14-9,.26-20.09.26s-20.09-.12-20.09-.26,9-.26,20.09-.26S427.41,444.58,427.41,444.73Z" fill="#344154"/>
      </g>
      <g id="Grupo_59983" data-name="Grupo 59983">
        <rect id="Rectángulo_8877" data-name="Rectángulo 8877" width="151.98" height="355.17" transform="translate(56.07 122.44)" fill="#5e6178"/>
        <g id="Grupo_59964" data-name="Grupo 59964" opacity="0.3">
          <rect id="Rectángulo_8878" data-name="Rectángulo 8878" width="41.55" height="355.17" transform="translate(56.07 122.44)" fill="#d9a171"/>
        </g>
        <g id="Grupo_59966" data-name="Grupo 59966">
          <path id="Trazado_110228" data-name="Trazado 110228" d="M202.59,217V197.76c0-12.27-.07-29.85-.11-51.22l.21.21-99.14.05h0l.26-.26V217l-.24-.24,71.47.12,20.38.06h.08l-20.32.06-71.63.12h-.24V146.28h.27l99.14.05h.21v.21c-.05,21.42-.08,39-.11,51.35,0,6.11,0,10.89-.05,14.16v3.7A3.33,3.33,0,0,1,202.59,217Z" fill="#344154"/>
          <g id="Grupo_59965" data-name="Grupo 59965" opacity="0.3">
            <rect id="Rectángulo_8879" data-name="Rectángulo 8879" width="40.36" height="6.83" transform="translate(133.76 189.86)" fill="#d9a171"/>
          </g>
          <rect id="Rectángulo_8880" data-name="Rectángulo 8880" width="25.79" height="19.76" rx="2.49" transform="translate(143.41 159.48)" fill="#fff"/>
        </g>
        <g id="Grupo_59978" data-name="Grupo 59978">
          <g id="Grupo_59967" data-name="Grupo 59967" opacity="0.4">
            <rect id="Rectángulo_8881" data-name="Rectángulo 8881" width="86.43" height="67.15" transform="translate(102.29 222.31)" fill="#d9a171"/>
          </g>
          <path id="Trazado_110229" data-name="Trazado 110229" d="M152.92,224.86H136.5l-1-1.65a3.61,3.61,0,0,0-3.11-1.78H120.3a3.6,3.6,0,0,0-3.6,3.43h-4.32a3.39,3.39,0,0,0-3.38,3.38v8.38h47.3v-8.38A3.38,3.38,0,0,0,152.92,224.86Z" fill="#839eb6"/>
          <path id="Trazado_110230" data-name="Trazado 110230" d="M161.6,224.86H145.17l-1-1.65a3.63,3.63,0,0,0-3.12-1.78H129a3.6,3.6,0,0,0-3.6,3.43h-4.31a3.38,3.38,0,0,0-3.38,3.38v8.38H165v-8.38a3.38,3.38,0,0,0-3.4-3.38Z" fill="#aed3f2"/>
          <path id="Trazado_110231" data-name="Trazado 110231" d="M172.87,224.86H156.44l-1-1.65a3.62,3.62,0,0,0-3.12-1.78H140.25a3.61,3.61,0,0,0-3.61,3.43h-4.31a3.38,3.38,0,0,0-3.38,3.38v8.38h47.3v-8.38a3.39,3.39,0,0,0-3.38-3.38Z" fill="#aed3f2"/>
          <path id="Trazado_110232" data-name="Trazado 110232" d="M134.76,268.55V228.29a3.49,3.49,0,0,1,3.63-3.33h3.47a3.67,3.67,0,0,0,3.29-1.93l.75-1.48a3.67,3.67,0,0,1,3.3-1.94h16.46a3.69,3.69,0,0,1,3.13,1.64l.81,1.25a3.69,3.69,0,0,0,3.12,1.64h21a3.49,3.49,0,0,1,3.63,3.32v41.09Z" fill="#d9a171"/>
          <g id="Grupo_59968" data-name="Grupo 59968" opacity="0.3">
            <path id="Trazado_110233" data-name="Trazado 110233" d="M134.76,268.55V228.29a3.49,3.49,0,0,1,3.63-3.33h3.47a3.67,3.67,0,0,0,3.29-1.93l.75-1.48a3.67,3.67,0,0,1,3.3-1.94h16.46a3.69,3.69,0,0,1,3.13,1.64l.81,1.25a3.69,3.69,0,0,0,3.12,1.64h21a3.49,3.49,0,0,1,3.63,3.32v41.09Z" fill="#d9a171"/>
          </g>
          <g id="Grupo_59973" data-name="Grupo 59973">
            <g id="Grupo_59970" data-name="Grupo 59970">
              <path id="Trazado_110234" data-name="Trazado 110234" d="M147.91,235.75V203.94a4.75,4.75,0,0,1,4.75-4.75h50.65a4.75,4.75,0,0,1,4.75,4.75v30.93Z" fill="#fff"/>
              <g id="Grupo_59969" data-name="Grupo 59969">
                <path id="Trazado_110235" data-name="Trazado 110235" d="M149.89,245V204.77a3.49,3.49,0,0,1,3.63-3.33H157a3.66,3.66,0,0,0,3.3-1.93L161,198a3.67,3.67,0,0,1,3.3-1.93h16.5a3.7,3.7,0,0,1,3.12,1.63l.81,1.25a3.7,3.7,0,0,0,3.13,1.64h21a3.49,3.49,0,0,1,3.63,3.33V245Z" fill="#d9a171"/>
                <path id="Trazado_110236" data-name="Trazado 110236" d="M149.89,245h4.63l12.87-.06,45.09-.12-.23.24V204.95a11.219,11.219,0,0,0,0-1.44,3,3,0,0,0-1.56-2.14,3.76,3.76,0,0,0-1.22-.42,9.749,9.749,0,0,0-1.34,0H187.92a4.23,4.23,0,0,1-1.36-.2,3.91,3.91,0,0,1-2.12-1.67l-.69-1.08a3.16,3.16,0,0,0-.8-.87,3.64,3.64,0,0,0-2.21-.71H163.85a3.51,3.51,0,0,0-1.93.88c-1.06.91-1.17,2.75-2.55,3.66a3.94,3.94,0,0,1-2.16.75H155a20.282,20.282,0,0,0-2.08,0,3.45,3.45,0,0,0-1.77.79,3.11,3.11,0,0,0-1,1.59,11.292,11.292,0,0,0-.09,1.95v7.58c0,9.67-.07,17.5-.1,22.94v.12c0-5.45-.06-13.3-.1-23v-7.63a10.24,10.24,0,0,1,.1-2,3.4,3.4,0,0,1,1.13-1.81,3.91,3.91,0,0,1,2-.9,17.117,17.117,0,0,1,2.14-.05h2.15a3.63,3.63,0,0,0,1.92-.68c1.22-.77,1.27-2.48,2.5-3.64a4,4,0,0,1,2.18-1c.83-.07,1.56,0,2.35,0h14.6a4.13,4.13,0,0,1,2.52.8,3.771,3.771,0,0,1,.91,1l.7,1.08a3.29,3.29,0,0,0,1.85,1.45,3.5,3.5,0,0,0,1.2.18h20.14a9.828,9.828,0,0,1,1.42,0,4.09,4.09,0,0,1,1.39.47,3.56,3.56,0,0,1,1.82,2.52,9.889,9.889,0,0,1,.05,1.52v40.35h-.24l-45.24-.12-12.82-.06h-4.24Z" fill="#344154"/>
              </g>
            </g>
            <path id="Trazado_110237" data-name="Trazado 110237" d="M178.51,199.73a43.131,43.131,0,0,1-6.64.26,43.207,43.207,0,0,1-6.65-.26,41.753,41.753,0,0,1,6.65-.26,41.669,41.669,0,0,1,6.64.26Z" fill="#fff"/>
            <g id="Grupo_59972" data-name="Grupo 59972">
              <g id="Grupo_59971" data-name="Grupo 59971">
                <path id="Trazado_110238" data-name="Trazado 110238" d="M169.38,262V221.69c0-1.84,1.83-3.33,4.1-3.33h3.92a4.26,4.26,0,0,0,3.73-1.93L182,215a4.24,4.24,0,0,1,3.72-1.94h18.62a4.38,4.38,0,0,1,3.53,1.64l.91,1.25a4.35,4.35,0,0,0,3.53,1.64H236c2.27,0,4.1,1.49,4.1,3.32V262Z" fill="#d9a171"/>
                <path id="Trazado_110239" data-name="Trazado 110239" d="M169.38,262h5.25l14.6-.06,50.87-.12-.24.24V220.59a3,3,0,0,0-1.49-2.15,4.66,4.66,0,0,0-2.71-.64h-23a5.24,5.24,0,0,1-2.79-.62,4,4,0,0,1-1.13-.93c-.3-.38-.55-.74-.82-1.11a3.77,3.77,0,0,0-2-1.58,6.61,6.61,0,0,0-2.57-.29H185.41a4.45,4.45,0,0,0-2.17.69,3.181,3.181,0,0,0-.83.76,8.389,8.389,0,0,0-.61,1c-.2.34-.37.67-.6,1a3.64,3.64,0,0,1-.85.9,4.7,4.7,0,0,1-2.22.9c-1.59.11-3,0-4.54,0a4.15,4.15,0,0,0-3.59,1.7,3.06,3.06,0,0,0-.43,1.91v6.06c0,10.39-.08,18.79-.1,24.63v6.8c0-1.55,0-3.8-.05-6.68,0-5.86,0-14.29-.1-24.7v-6.07a3.46,3.46,0,0,1,.48-2.13,4.57,4.57,0,0,1,3.93-1.91c1.46,0,3,0,4.48-.05a4.44,4.44,0,0,0,2-.83,5,5,0,0,0,1.33-1.81q.29-.515.63-1a3.8,3.8,0,0,1,.94-.85,4.88,4.88,0,0,1,2.4-.78h17.95a7,7,0,0,1,2.74.31,4.33,4.33,0,0,1,2.2,1.75c.27.36.54.76.8,1.09a3.75,3.75,0,0,0,1,.81,4.77,4.77,0,0,0,2.54.55h23a5.23,5.23,0,0,1,3,.72,3.48,3.48,0,0,1,1.72,2.53c.05,1,0,2,0,2.95v38.71h-.24l-51-.12L174.53,262h-5.15Z" fill="#344154"/>
              </g>
              <path id="Trazado_110240" data-name="Trazado 110240" d="M203.5,217.19a75.532,75.532,0,0,1-8.79.26,75.28,75.28,0,0,1-8.78-.26,75.277,75.277,0,0,1,8.78-.26,75.532,75.532,0,0,1,8.79.26Z" fill="#fff"/>
            </g>
          </g>
          <g id="Grupo_59976" data-name="Grupo 59976">
            <rect id="Rectángulo_8882" data-name="Rectángulo 8882" width="62.9" height="54.22" transform="translate(102.29 235.74)" fill="#5e6178"/>
            <g id="Grupo_59974" data-name="Grupo 59974" opacity="0.3">
              <rect id="Rectángulo_8883" data-name="Rectángulo 8883" width="62.9" height="54.22" transform="translate(102.29 235.74)" fill="#d9a171"/>
            </g>
            <g id="Grupo_59975" data-name="Grupo 59975">
              <rect id="Rectángulo_8884" data-name="Rectángulo 8884" width="99.15" height="70.46" transform="translate(165.18 221.43)" fill="#5e6178"/>
              <path id="Trazado_110241" data-name="Trazado 110241" d="M264.33,291.88V272.64c0-12.26-.07-29.85-.11-51.21l.21.21-99.14.05h0l.26-.26v70.45l-.24-.23,71.47.12,20.38.06h-.03l-20.32.06-71.63.12h-.24V221.06h.27l99.14.05h.21v.21c-.05,21.42-.08,39.05-.11,51.34,0,6.11,0,10.9-.05,14.17v3.7A10.78,10.78,0,0,1,264.33,291.88Z" fill="#344154"/>
            </g>
          </g>
          <g id="Grupo_59977" data-name="Grupo 59977" opacity="0.3">
            <rect id="Rectángulo_8885" data-name="Rectángulo 8885" width="46" height="6.83" transform="translate(197.11 267.84)" fill="#d9a171"/>
          </g>
          <rect id="Rectángulo_8886" data-name="Rectángulo 8886" width="25.79" height="19.76" rx="2.49" transform="translate(205.71 241.41)" fill="#fff"/>
        </g>
        <g id="Grupo_59980" data-name="Grupo 59980">
          <path id="Trazado_110242" data-name="Trazado 110242" d="M202.59,370.36V351.11c0-12.26-.07-29.85-.11-51.21l.21.21-99.14.05h0l.26-.26v70.46l-.24-.24,71.47.12,20.38.06h.1l-20.32.07-71.63.11h-.24V299.53h.27l99.14.05h.21v.21c-.05,21.42-.08,39.05-.11,51.34,0,6.12,0,10.9-.05,14.17V369A4.056,4.056,0,0,1,202.59,370.36Z" fill="#344154"/>
          <g id="Grupo_59979" data-name="Grupo 59979" opacity="0.3">
            <rect id="Rectángulo_8887" data-name="Rectángulo 8887" width="41.94" height="6.83" transform="translate(133.76 343.21)" fill="#d9a171"/>
          </g>
          <rect id="Rectángulo_8888" data-name="Rectángulo 8888" width="25.79" height="19.76" rx="2.49" transform="translate(142.57 316.66)" fill="#fff"/>
        </g>
        <g id="Grupo_59982" data-name="Grupo 59982">
          <path id="Trazado_110243" data-name="Trazado 110243" d="M202.59,447V427.76c0-12.27-.07-29.85-.11-51.22l.21.21H103.55l.26-.26v70.46l-.24-.24,71.47.12,20.38.06h.08l-20.32.06-71.63.12h-.24V376.28h.27l99.14.05h.21v.21c-.05,21.42-.08,39.05-.11,51.35,0,6.11,0,10.89-.05,14.16v3.7A3.33,3.33,0,0,1,202.59,447Z" fill="#344154"/>
          <g id="Grupo_59981" data-name="Grupo 59981" opacity="0.3">
            <rect id="Rectángulo_8889" data-name="Rectángulo 8889" width="41.94" height="6.83" transform="translate(133.76 419.89)" fill="#d9a171"/>
          </g>
          <rect id="Rectángulo_8890" data-name="Rectángulo 8890" width="25.79" height="19.76" rx="2.49" transform="translate(142.57 393.09)" fill="#fff"/>
        </g>
      </g>
      <g id="Grupo_59990" data-name="Grupo 59990">
        <g id="Grupo_59986" data-name="Grupo 59986">
          <g id="Grupo_59984" data-name="Grupo 59984">
            <path id="Trazado_110244" data-name="Trazado 110244" d="M348.2,111.1a3.33,3.33,0,1,1-3.33-3.33,3.33,3.33,0,0,1,3.33,3.33Z" fill="#fff"/>
            <path id="Trazado_110245" data-name="Trazado 110245" d="M348.2,111.1a6,6,0,0,1-.21-.79,3.29,3.29,0,0,0-1.22-1.71,3.14,3.14,0,0,0-2.95-.4,3.09,3.09,0,0,0,0,5.79,3.14,3.14,0,0,0,2.95-.4,3.29,3.29,0,0,0,1.22-1.71c.15-.49.16-.79.21-.78a1.56,1.56,0,0,1,0,.83,3.28,3.28,0,0,1-1.19,1.95,3.5,3.5,0,0,1-3.34.56,3.55,3.55,0,0,1,0-6.69,3.5,3.5,0,0,1,3.34.56,3.28,3.28,0,0,1,1.19,2A1.62,1.62,0,0,1,348.2,111.1Z" fill="#344154"/>
          </g>
          <g id="Grupo_59985" data-name="Grupo 59985">
            <circle id="Elipse_4280" data-name="Elipse 4280" cx="27.47" cy="27.47" r="27.47" transform="translate(349.51 60.72)" fill="#fff"/>
            <path id="Trazado_110246" data-name="Trazado 110246" d="M404.46,88.19a2.188,2.188,0,0,1,0-.44l-.09-1.31a6.3,6.3,0,0,0-.06-1c-.06-.4-.12-.74-.18-1.15a20.677,20.677,0,0,0-.58-2.83,26.151,26.151,0,0,0-3.05-7.27,27.3,27.3,0,0,0-7-7.74A26.94,26.94,0,0,0,382,61.42a27.39,27.39,0,0,0-14.31,1.19,29.288,29.288,0,0,0-3.55,1.57c-.57.31-1.12.67-1.69,1a14,14,0,0,0-1.64,1.13A29.44,29.44,0,0,0,357.73,69a30.007,30.007,0,0,0-2.67,3.15,26.459,26.459,0,0,0-3.89,7.5,27.05,27.05,0,0,0,0,17.18,26.46,26.46,0,0,0,3.89,7.5,31.165,31.165,0,0,0,2.67,3.16,30.585,30.585,0,0,0,3.09,2.62,14.135,14.135,0,0,0,1.64,1.14c.57.33,1.12.7,1.69,1a27.741,27.741,0,0,0,3.55,1.56,27.34,27.34,0,0,0,32.75-11.62,26.28,26.28,0,0,0,3.05-7.27,21.3,21.3,0,0,0,.58-2.83c.06-.42.14-.8.18-1.15s0-.67.06-1l.09-1.3a2.231,2.231,0,0,1,0-.45,2.539,2.539,0,0,1,0,.45c0,.32,0,.75,0,1.31v1a8.2,8.2,0,0,1-.15,1.16,20.433,20.433,0,0,1-.53,2.85,26.309,26.309,0,0,1-3,7.38,27.57,27.57,0,0,1-33.16,11.92,28,28,0,0,1-3.62-1.58c-.58-.32-1.15-.68-1.73-1a13.39,13.39,0,0,1-1.67-1.15,30.48,30.48,0,0,1-3.15-2.67,32.442,32.442,0,0,1-2.72-3.21,26.82,26.82,0,0,1-4-7.64,27.49,27.49,0,0,1,0-17.5,27.08,27.08,0,0,1,4-7.64,32.439,32.439,0,0,1,2.72-3.21,30.483,30.483,0,0,1,3.15-2.67,13.848,13.848,0,0,1,1.68-1.15c.58-.34,1.14-.71,1.72-1a31,31,0,0,1,3.62-1.58A27.309,27.309,0,0,1,400.7,74.1a26.26,26.26,0,0,1,3,7.37,20.273,20.273,0,0,1,.53,2.86c.06.42.12.8.15,1.15s0,.68,0,1v1.31A2.439,2.439,0,0,1,404.46,88.19Z" fill="#344154"/>
          </g>
        </g>
        <g id="Grupo_59989" data-name="Grupo 59989">
          <g id="Grupo_59987" data-name="Grupo 59987">
            <path id="Trazado_110247" data-name="Trazado 110247" d="M375.51,93.88a8.32,8.32,0,1,1,8.31-8.32,8.32,8.32,0,0,1-8.31,8.32Zm0-15.63a7.32,7.32,0,1,0,7.31,7.31,7.32,7.32,0,0,0-7.31-7.31Z" fill="#344154"/>
            <rect id="Rectángulo_8891" data-name="Rectángulo 8891" width="1" height="8.11" transform="matrix(0.809, -0.587, 0.587, 0.809, 379.426, 92.387)" fill="#344154"/>
          </g>
          <g id="Grupo_59988" data-name="Grupo 59988">
            <path id="Trazado_110248" data-name="Trazado 110248" d="M371.54,82.49A4.81,4.81,0,0,0,373,89.62" fill="#fff"/>
            <path id="Trazado_110249" data-name="Trazado 110249" d="M373,89.62a2.654,2.654,0,0,1-1.09-.59,4.64,4.64,0,0,1-1.15-5.57,2.466,2.466,0,0,1,.78-1c.05,0-.2.44-.44,1.12a5.16,5.16,0,0,0-.21,2.73,5.26,5.26,0,0,0,1.27,2.43C372.65,89.3,373,89.55,373,89.62Z" fill="#344154"/>
          </g>
        </g>
      </g>
      <g id="Grupo_60010" data-name="Grupo 60010">
        <g id="Grupo_59993" data-name="Grupo 59993">
          <path id="Trazado_110250" data-name="Trazado 110250" d="M347,178.7c-1.5-26.78-13.46-39.24-17-60.17-1.77-10.51-1.32-21.27-8.77-28.88-2.68-2.74-7.68-5.56-11.49-6-2.08-.26-5.32-.18-7.21.72-3.53-.53-5.11-.7-7.59,0a20.771,20.771,0,0,0-9,5.44c-5.31,6.48-6.4,15.4-6.48,23.77a139,139,0,0,0,5.59,40.07,5.61,5.61,0,0,0,1.86,3.28c1.14.78,2.67.63,4,.42a79.622,79.622,0,0,0,15.11-3.95,5.07,5.07,0,0,0,1.92-1.05c1.35-1.38.78-3.66.16-5.49l13.57-11.61c-.9,8.08-3.5,15.87-4.65,23.91a67.681,67.681,0,0,0,2.14,28.82,44,44,0,0,1,16-.36c1.28.21,3.34,10.27,4.47,9.64C341.73,196.14,347.15,180.92,347,178.7Z" fill="#344154"/>
          <g id="Grupo_59992" data-name="Grupo 59992">
            <g id="Grupo_59991" data-name="Grupo 59991">
              <path id="Trazado_110251" data-name="Trazado 110251" d="M298.86,90.08l3.85-.43,14.71,5.93a4.09,4.09,0,0,1,3.87,4l-.13,47.91a13.42,13.42,0,0,1-2.59,8.65l-2.07,2.73c-4.7,6.22-14.39,5.7-18.12-1.15a5.121,5.121,0,0,1-.52-1.23,10.923,10.923,0,0,1-.22-1.08,34,34,0,0,1-.46-7.19c-.26-4.23-.35-6-.35-5.93s-9-1-11.44-12.6c-1.21-5.75-1.4-15.26-1.3-23.06C284.18,99.59,290.2,90.07,298.86,90.08Z" fill="#ffbf9d"/>
              <path id="Trazado_110252" data-name="Trazado 110252" d="M286.89,115.71a1.5,1.5,0,0,0,1.51,1.44,1.44,1.44,0,0,0,1.48-1.43,1.5,1.5,0,0,0-1.52-1.43,1.42,1.42,0,0,0-1.47,1.42Z" fill="#344154"/>
              <path id="Trazado_110253" data-name="Trazado 110253" d="M301.84,114.78a1.5,1.5,0,0,0,1.52,1.43,1.42,1.42,0,0,0,1.47-1.42,1.5,1.5,0,0,0-1.51-1.44,1.44,1.44,0,0,0-1.48,1.43Z" fill="#344154"/>
              <path id="Trazado_110254" data-name="Trazado 110254" d="M286.33,111.41c.2.19,1.29-.71,2.89-.78s2.83.67,3,.46-.13-.43-.66-.78a4.07,4.07,0,0,0-2.41-.61,3.93,3.93,0,0,0-2.29.86C286.38,111,286.23,111.33,286.33,111.41Z" fill="#344154"/>
              <path id="Trazado_110255" data-name="Trazado 110255" d="M301.59,110.58c.2.18,1.27-.74,2.87-.86s2.85.58,3,.37-.13-.43-.68-.76a4,4,0,0,0-2.42-.54,3.92,3.92,0,0,0-2.26.93C301.63,110.14,301.49,110.5,301.59,110.58Z" fill="#344154"/>
              <path id="Trazado_110256" data-name="Trazado 110256" d="M297,123.13a9.75,9.75,0,0,0-2.63-.34c-.42,0-.81-.09-.89-.36a2.16,2.16,0,0,1,.21-1.24l1.06-3.18c1.46-4.54,2.5-8.26,2.32-8.32s-1.52,3.57-3,8.11l-1,3.2a2.42,2.42,0,0,0-.13,1.63,1,1,0,0,0,.7.56,3.12,3.12,0,0,0,.7.07A10.89,10.89,0,0,0,297,123.13Z" fill="#344154"/>
              <path id="Trazado_110257" data-name="Trazado 110257" d="M296.88,142.21a29.6,29.6,0,0,0,15.39-4.94S308.75,145.53,297,145Z" fill="#ff9a6c"/>
              <path id="Trazado_110258" data-name="Trazado 110258" d="M297.91,127a2.88,2.88,0,0,1,2.54-1.21,2.66,2.66,0,0,1,1.88.89,1.68,1.68,0,0,1,.22,1.91,2,2,0,0,1-2.08.64,6.1,6.1,0,0,1-2.12-1.12,1.75,1.75,0,0,1-.48-.46.55.55,0,0,1,0-.6" fill="#ff9a6c"/>
              <path id="Trazado_110259" data-name="Trazado 110259" d="M301.82,124c-.26,0-.18,1.75-1.61,3.06s-3.3,1.21-3.3,1.46.43.32,1.22.3a4.37,4.37,0,0,0,2.76-1.12,3.85,3.85,0,0,0,1.24-2.56C302.16,124.41,301.94,124,301.82,124Z" fill="#344154"/>
              <path id="Trazado_110260" data-name="Trazado 110260" d="M301.59,104.75c.24.39,1.58-.15,3.26-.33s3.13,0,3.25-.44c.06-.2-.27-.55-.9-.83a5.2,5.2,0,0,0-2.58-.35,5,5,0,0,0-2.39.93C301.7,104.15,301.48,104.56,301.59,104.75Z" fill="#344154"/>
              <path id="Trazado_110261" data-name="Trazado 110261" d="M286,105.32c.3.35,1.39-.09,2.72-.17s2.48.12,2.72-.27c.1-.2-.09-.55-.6-.87a3.75,3.75,0,0,0-2.25-.49,3.7,3.7,0,0,0-2.13.84C286,104.76,285.85,105.14,286,105.32Z" fill="#344154"/>
              <path id="Trazado_110262" data-name="Trazado 110262" d="M319,119.19c0-.86.86-3,1.71-3.14,2.27-.47,6.41-.49,6.74,5.32.45,7.94-7.62,6.76-7.65,6.53S319.16,122.19,319,119.19Z" fill="#ffbf9d"/>
              <path id="Trazado_110263" data-name="Trazado 110263" d="M322.07,124.75a2.665,2.665,0,0,0,.38.19,1.4,1.4,0,0,0,1,0c.82-.36,1.45-1.73,1.41-3.16a4.511,4.511,0,0,0-.5-2,1.63,1.63,0,0,0-1.1-1,.72.72,0,0,0-.8.43c-.09.23,0,.38-.07.4s-.18-.12-.13-.46a.85.85,0,0,1,.28-.51,1.05,1.05,0,0,1,.75-.25,2,2,0,0,1,1.52,1.15,4.7,4.7,0,0,1,.6,2.19c0,1.6-.69,3.15-1.82,3.54a1.5,1.5,0,0,1-1.28-.13C322.1,124.94,322,124.77,322.07,124.75Z" fill="#ff9a6c"/>
            </g>
            <path id="Trazado_110264" data-name="Trazado 110264" d="M323.24,107.29c.56-3.17-.63-7.61-1.45-10.7A11.65,11.65,0,0,0,317,90.34a19.37,19.37,0,0,0-12-3.62l-1.59.53c-2.35-.19-4.86.3-6.15,2.2h-.05V87.32c-4.28.53-8,3.36-10.49,6.88s-3.86,7.69-5,11.84c5.25-4.7,10.94-9.89,15.32-15.43,4.6,6,11.39,9.86,17.59,14.35a22.94,22.94,0,0,1,1.37,9.12c0,7.8,1.65,14.85,2.26,22.64.35,4.49.32,8.33,4.91,7.94C323.84,130.28,320.77,121.42,323.24,107.29Z" fill="#344154"/>
          </g>
          <path id="Trazado_110265" data-name="Trazado 110265" d="M328.46,106.68a7.439,7.439,0,0,1-2.2.4,21.49,21.49,0,0,1-5.41-.21,25.5,25.5,0,0,1-5.19-1.5,8.46,8.46,0,0,1-2-1c.07-.18,3.18,1.27,7.28,2a46.3,46.3,0,0,0,7.52.31Z" fill="#5e6178"/>
          <path id="Trazado_110266" data-name="Trazado 110266" d="M327.25,102.42a7,7,0,0,1-1.27-.08c-.82-.08-2-.25-3.43-.52a58.47,58.47,0,0,1-21.08-8.55c-1.22-.81-2.18-1.5-2.82-2a6.248,6.248,0,0,1-1-.82,5.86,5.86,0,0,1,1.08.66c.68.46,1.67,1.1,2.9,1.87a69.44,69.44,0,0,0,10.12,5.14,68,68,0,0,0,10.85,3.36c1.42.31,2.57.54,3.38.68A5.34,5.34,0,0,1,327.25,102.42Z" fill="#5e6178"/>
          <path id="Trazado_110267" data-name="Trazado 110267" d="M284,103.34a15.11,15.11,0,0,1-4,3.9c-.1-.11.72-1.06,1.83-2.14a7.94,7.94,0,0,1,2.17-1.76Z" fill="#5e6178"/>
        </g>
        <g id="Grupo_59995" data-name="Grupo 59995">
          <path id="Trazado_110268" data-name="Trazado 110268" d="M297,156.08c.88-1.55.21-7.89.21-7.89l-2.05,3.71c-4.36,1.69-10.34,4.1-12,5.28-2.52,1.76-5.91,9.18-5.91,9.18L256.3,192.94l-39.31-6.88-3.7,19.71,13.27,2.75,23.31,3c6.55,1.41,12.92,1.93,18.05-2.37l.36-.68c-1.86,26.5.69,55.72,1.57,82.27a14.18,14.18,0,0,0,1.1,6.07c1.34,2.62,6.3,4,9.21,3.62s2-2.25,2.62-5.13c.33-1.57-1.13-3.75-1.33-5.34q-4.29-34.59-8.57-69.19c-.09-1.42-.19-2.73-.28-3.91-1-12.19-1.16-15.48-.62-21.06C272.76,187.19,291,166.55,297,156.08Z" fill="#d9a171"/>
          <path id="Trazado_110269" data-name="Trazado 110269" d="M275,173.3a6.35,6.35,0,0,1-.59,1.2c-.43.74-1,1.85-1.66,3.23a55,55,0,0,0-4,11.24,55.771,55.771,0,0,0-1.43,11.84c0,1.53,0,2.77,0,3.63a5.7,5.7,0,0,1,0,1.33,7.407,7.407,0,0,1-.2-1.32,35.8,35.8,0,0,1-.22-3.64,49.907,49.907,0,0,1,1.3-12,49.38,49.38,0,0,1,4.15-11.29,33.758,33.758,0,0,1,1.81-3.16,6.629,6.629,0,0,1,.84-1.06Z" fill="#344154"/>
          <g id="Grupo_59994" data-name="Grupo 59994" opacity="0.3">
            <path id="Trazado_110270" data-name="Trazado 110270" d="M272.24,177.89c-3.07,4.43-5.9,9.2-7.25,14.43s-.5,8.21-.62,13.72l3.16.71C266.82,196.88,267.15,190.37,272.24,177.89Z" fill="#d9a171"/>
          </g>
          <path id="Trazado_110271" data-name="Trazado 110271" d="M271.08,192.32a2.885,2.885,0,0,1,0-.52c.06-.33.09-.84.25-1.47a40.2,40.2,0,0,1,1.6-5.23,153.6,153.6,0,0,1,7.46-16.4c.92-1.78,1.83-3.5,2.73-5.14l.07-.12h.15l3.31-.06-.22.34a3.29,3.29,0,0,0-1.28-1.45l-.24-.14.18-.21a76.723,76.723,0,0,1,7.1-7.45c.92-.85,1.67-1.49,2.19-1.92a5.481,5.481,0,0,1,.83-.62,5.481,5.481,0,0,1-.73.73l-2.1,2a92.657,92.657,0,0,0-6.93,7.55l-.06-.35a3.74,3.74,0,0,1,1.49,1.65l.15.34h-.37l-3.31.08.22-.13c-.89,1.63-1.8,3.36-2.72,5.13-3.21,6.25-5.91,12-7.58,16.29a50.885,50.885,0,0,0-1.75,5.15A16.365,16.365,0,0,1,271.08,192.32Z" fill="#344154"/>
        </g>
        <g id="Grupo_59997" data-name="Grupo 59997">
          <path id="Trazado_110272" data-name="Trazado 110272" d="M310.93,430.39l12.9,20.75s-16.77,20.08-14.76,24.15l41.14-23.56-18.76-33.16Z" fill="#d9a171"/>
          <path id="Trazado_110273" data-name="Trazado 110273" d="M335.53,442.08a1.94,1.94,0,0,1,2.26,1.25,1.87,1.87,0,0,1-1.23,2.25,2,2,0,0,1-2.38-1.34,1.94,1.94,0,0,1,1.53-2.2" fill="#839eb6"/>
          <g id="Grupo_59996" data-name="Grupo 59996" opacity="0.6">
            <path id="Trazado_110274" data-name="Trazado 110274" d="M350.21,451.73l-2-3.27L309.5,472.27s-1.38,1.84-.43,3Z" fill="#fff"/>
          </g>
          <path id="Trazado_110275" data-name="Trazado 110275" d="M323,451.32c.12.19,1.18-.29,2.54-.21s2.36.62,2.5.44-.82-1.18-2.47-1.25S322.89,451.16,323,451.32Z" fill="#344154"/>
          <path id="Trazado_110276" data-name="Trazado 110276" d="M319.75,455.57c.06.22,1.13.07,2.3.52s1.88,1.25,2.07,1.13-.33-1.34-1.79-1.88S319.64,455.38,319.75,455.57Z" fill="#344154"/>
          <path id="Trazado_110277" data-name="Trazado 110277" d="M320.25,462.14c.21-.06-.09-1.23-1.23-2s-2.34-.71-2.33-.49.93.47,1.86,1.15S320,462.23,320.25,462.14Z" fill="#344154"/>
          <path id="Trazado_110278" data-name="Trazado 110278" d="M320.63,446.26c.18.13.95-.67,2.13-1.24s2.27-.72,2.27-1-1.25-.46-2.63.24S320.44,446.16,320.63,446.26Z" fill="#344154"/>
        </g>
        <g id="Grupo_59999" data-name="Grupo 59999">
          <path id="Trazado_110279" data-name="Trazado 110279" d="M312.72,438.91l1.39,24.4s-24.33,9.6-24.51,14.14l47.4-1-.61-38.1Z" fill="#d9a171"/>
          <path id="Trazado_110280" data-name="Trazado 110280" d="M328.72,461a1.93,1.93,0,0,1,1.39,2.18,1.87,1.87,0,0,1-2.15,1.39,2.05,2.05,0,0,1-1.46-2.32,1.94,1.94,0,0,1,2.4-1.2" fill="#839eb6"/>
          <g id="Grupo_59998" data-name="Grupo 59998" opacity="0.6">
            <path id="Trazado_110281" data-name="Trazado 110281" d="M337,476.45l-.22-3.84L291.42,475s-2.09,1-1.82,2.45Z" fill="#fff"/>
          </g>
          <path id="Trazado_110282" data-name="Trazado 110282" d="M313.34,463.08c0,.23,1.17.32,2.32,1s1.79,1.68,2,1.58-.17-1.43-1.58-2.27S313.28,462.87,313.34,463.08Z" fill="#344154"/>
          <path id="Trazado_110283" data-name="Trazado 110283" d="M308.41,465.24c-.05.23,1,.6,1.77,1.56s1.05,2,1.28,2,.35-1.33-.67-2.5S308.41,465,308.41,465.24Z" fill="#344154"/>
          <path id="Trazado_110284" data-name="Trazado 110284" d="M305.71,471.25c.21.05.51-1.12-.11-2.37s-1.71-1.74-1.81-1.54.59.86,1.09,1.89S305.48,471.23,305.71,471.25Z" fill="#344154"/>
          <path id="Trazado_110285" data-name="Trazado 110285" d="M313.64,457.49c.1.21,1.15-.13,2.46-.07s2.34.45,2.46.25-.88-1-2.43-1.06S313.52,457.31,313.64,457.49Z" fill="#344154"/>
        </g>
        <g id="Grupo_60001" data-name="Grupo 60001">
          <g id="Grupo_60000" data-name="Grupo 60000">
            <path id="Trazado_110286" data-name="Trazado 110286" d="M277.38,256.68s-2.18,103.81-.22,111,42.09,80.66,42.09,80.66l24.2-11.88-32.1-77.59,7.08-99.75Z" fill="#344154"/>
            <path id="Trazado_110287" data-name="Trazado 110287" d="M330.47,250.88s13.92,22.73,11.46,36.36c-1,5.59-8.63,18-8.63,18V371.8l5.88,88.84H311L298.89,382.3s-4.25-7.19-5.88-13.39S286,289.33,286,289.33l-8.44-29.83Z" fill="#344154"/>
            <path id="Trazado_110288" data-name="Trazado 110288" d="M336.42,413.69a11.221,11.221,0,0,0,0,1.87c0,1.2.12,2.94.24,5.09.25,4.29.67,10.21,1.17,16.75s.92,12.46,1.2,16.75c.14,2.07.25,3.78.34,5.08a10.929,10.929,0,0,0,.19,1.86,11.34,11.34,0,0,0,0-1.87c0-1.2-.06-2.94-.15-5.09-.17-4.3-.53-10.23-1-16.77s-1-12.36-1.33-16.74c-.18-2.07-.32-3.78-.43-5.07a11.61,11.61,0,0,0-.23-1.86Z" fill="#5e6178"/>
          </g>
          <path id="Trazado_110289" data-name="Trazado 110289" d="M327.46,262.51a4.11,4.11,0,0,1-.75.85,16.539,16.539,0,0,1-2.43,2,19.29,19.29,0,0,1-19.67,1.16,17,17,0,0,1-2.64-1.67,4.221,4.221,0,0,1-.85-.76,41.542,41.542,0,0,0,3.65,2.09A19.89,19.89,0,0,0,324.08,265C326.28,263.63,327.39,262.43,327.46,262.51Z" fill="#5e6178"/>
          <path id="Trazado_110290" data-name="Trazado 110290" d="M286.26,283.39a1.609,1.609,0,0,1,.05.37c0,.27.06.62.09,1.08.08,1,.18,2.36.31,4.14.25,3.63.6,8.83,1,15.24.91,12.86,2,30.65,3.76,50.24.23,2.67.5,5.31.8,7.89.17,1.28.31,2.57.59,3.78a31.242,31.242,0,0,0,1.18,3.58c1.74,4.69,3.6,9.12,5.38,13.26V383c1.87,12.07,3.46,22.27,4.59,29.49.58,3.57,1,6.4,1.37,8.37.16.95.29,1.68.39,2.22s.17.74.16.75a7.174,7.174,0,0,1-.24-.74c-.11-.49-.28-1.23-.46-2.2-.39-1.93-.89-4.76-1.51-8.35-1.23-7.18-2.88-17.38-4.78-29.47v.06c-1.8-4.14-3.67-8.56-5.43-13.27a32,32,0,0,1-1.19-3.62,38.737,38.737,0,0,1-.61-3.86c-.31-2.59-.57-5.22-.81-7.9-1.72-19.61-2.79-37.4-3.6-50.27L286.5,289c-.09-1.78-.15-3.17-.2-4.15v-1.08a1.75,1.75,0,0,1-.04-.38Z" fill="#5e6178"/>
        </g>
        <g id="Grupo_60005" data-name="Grupo 60005">
          <path id="Trazado_110291" data-name="Trazado 110291" d="M297.28,152.64s-.3,4.55,3.4,4.55c5.2,0,16.11-10,16.11-10l-21,50.12v60.65L278,259.8s-2.08-.3-2.51-3.31c-.83-5.87-.71-16.57-1.39-21-2.12-13.69-6.28-21.16-5.69-32,.87-16.13,23.57-43.95,23.57-43.95Z" fill="#fff"/>
          <path id="Trazado_110292" data-name="Trazado 110292" d="M319.22,140.88a136,136,0,0,1-8.78,14.22c-4.53,6.31-33.3,50.36-33.3,50.36l11.5,89.38,1.27,7.57a3.78,3.78,0,0,0,4.52,3.08l50.8-8.93a4.61,4.61,0,0,0,3.61-5.89l-22.68-63.73,14.65-56.57s-.54-8.24-9.46-16.6c-1.7-1.59-8.71-7.4-9.86-9Z" fill="#d9a171"/>
          <g id="Grupo_60002" data-name="Grupo 60002" opacity="0.3">
            <path id="Trazado_110293" data-name="Trazado 110293" d="M280.76,233.56s23.38,18.54,34.76,18.71,17.3-9.46,17.3-9.46l-22.89.62-30-16.49Z" fill="#d9a171"/>
          </g>
          <path id="Trazado_110294" data-name="Trazado 110294" d="M263.39,216s21.1,13.93,25,16.58,22.31,13.33,24.71,14.1,17.3.88,20-4.19,4.58-15.86,4.58-15.86l3.59-50.55a20.4,20.4,0,0,0-3.63-13.22c-2.19-3.08-5.07-5.86-8.19-5.39-6.64,1-21,17.07-20.26,25.33s.71,31.26.71,31.26L272.26,201.6Z" fill="#d9a171"/>
          <path id="Trazado_110295" data-name="Trazado 110295" d="M337.67,162.84s.25.32.68,1a17.55,17.55,0,0,1,1.6,3.07,20,20,0,0,1,1.38,5.4,41.368,41.368,0,0,1-.17,7.53c-.78,11.26-1.89,27.3-3.22,46.47h0q-.57,3.23-1.38,6.54a57.439,57.439,0,0,1-2,6.66,14.242,14.242,0,0,1-1.59,3.23,8.171,8.171,0,0,1-2.89,2.3,22.691,22.691,0,0,1-7.13,2.11,30.84,30.84,0,0,1-7.63.2,10.4,10.4,0,0,1-3.79-1c-1.17-.58-2.3-1.22-3.45-1.85q-6.87-3.84-13.86-8c-5.58-3.24-10.77-6.9-15.93-10.27l-15-10-.19-.13.12-.2,8.88-14.64.09-.16.18.06L310,213.91l-.22.15c.77-9.39,1.38-16.87,1.8-22,.22-2.54.39-4.52.51-5.87.06-.65.11-1.15.14-1.51s.06-.51.06-.51a4.876,4.876,0,0,1,0,.51c0,.36-.06.86-.1,1.52-.09,1.35-.23,3.33-.41,5.88-.39,5.15-.95,12.63-1.65,22v.22l-.21-.07-37.69-12.64.28-.11q-4.24,7-8.86,14.65l-.07-.33,15,9.95c5.18,3.38,10.34,7,15.92,10.26,4.65,2.77,9.27,5.46,13.84,8,1.14.63,2.28,1.27,3.43,1.84a9.85,9.85,0,0,0,3.62,1,29.84,29.84,0,0,0,7.5-.19,22.13,22.13,0,0,0,7-2.05,7.52,7.52,0,0,0,2.72-2.15,13.139,13.139,0,0,0,1.54-3.12,56.5,56.5,0,0,0,2-6.59c.55-2.2,1-4.38,1.39-6.51h0c1.41-19.17,2.59-35.2,3.41-46.46a41.57,41.57,0,0,0,.24-7.49,20.17,20.17,0,0,0-1.31-5.37,19.328,19.328,0,0,0-1.53-3.08c-.19-.34-.37-.58-.47-.75A1.533,1.533,0,0,0,337.67,162.84Z" fill="#344154"/>
          <path id="Trazado_110296" data-name="Trazado 110296" d="M283.55,195.55A4.921,4.921,0,0,1,284,195l1.36-1.47,5-5.44,7.51-8c2.87-3,6-6.33,9.57-9.52v.38l-.3-.34-2.54-2.81-.42-.46h.63l4.7.24-.23.13,9.46-16.47,2.8-4.78.77-1.27a2.059,2.059,0,0,1,.3-.43,2.231,2.231,0,0,1-.22.47l-.69,1.32c-.66,1.18-1.56,2.82-2.68,4.85l-9.3,16.6-.08.14h-.15l-4.71-.23.21-.44,2.53,2.81.31.34.18.19-.21.18c-3.56,3.14-6.67,6.5-9.56,9.45l-7.58,7.94c-2.16,2.27-3.91,4.08-5.14,5.32-.62.62-1.1,1.1-1.44,1.41a2.65,2.65,0,0,1-.53.44Z" fill="#344154"/>
          <g id="Grupo_60003" data-name="Grupo 60003" opacity="0.3">
            <path id="Trazado_110297" data-name="Trazado 110297" d="M281.86,198.35l28.61-26.97-2.43-2.66h2.43l.64-3.69-1.61,2.84-4.7-.24,2.77,2.55L283.81,195.3Z" fill="#d9a171"/>
          </g>
          <path id="Trazado_110298" data-name="Trazado 110298" d="M299.93,268.64a2.46,2.46,0,0,1,.47-.13l1.46-.31,5.52-1.16,19.28-3.92h.17l.09.15,5.31,8.65.2.32-.37.07-.63.12-28.11,5.28h-.15l-.05-.14c-1-2.78-1.82-5-2.39-6.6l-.62-1.74a3.6,3.6,0,0,1-.18-.58s.1.22.27.62.41,1,.7,1.75c.62,1.55,1.47,3.72,2.54,6.43l-.19-.11,28.08-5.45.63-.12-.17.39-5.3-8.66.26.12-19.14,3.64-5.61,1-1.52.27Z" fill="#344154"/>
          <g id="Grupo_60004" data-name="Grupo 60004" opacity="0.3">
            <path id="Trazado_110299" data-name="Trazado 110299" d="M300.25,269.48l2.02,10.5,29.12-5.25-.81-2.44-27.3,5.21Z" fill="#d9a171"/>
          </g>
          <path id="Trazado_110300" data-name="Trazado 110300" d="M317.28,222.89c-.14.07-1.36-2.33-3.53-4.78s-4.39-4-4.3-4.11a17.58,17.58,0,0,1,7.83,8.89Z" fill="#344154"/>
        </g>
        <g id="Grupo_60008" data-name="Grupo 60008">
          <g id="Grupo_60006" data-name="Grupo 60006">
            <path id="Trazado_110301" data-name="Trazado 110301" d="M212.43,190.35s-7.3-4.37-10.21-7.17c0,0-4.26-1.34-6.21,1.34,0,0-4.49,1.24-5.1,2.08s-4.38,6.67-4.38,6.67,2,6.95,2.19,7.3c.37.76,1.18,1.56,1.87.73a1.56,1.56,0,0,0,.33-1v-.46l1.09-.77s.49,2.7,1.95,2.28,4.74-2.85,4.74-2.85,4.62,2.63,7.05,2.9a76.224,76.224,0,0,1,8,1.79L216.2,190Z" fill="#ffbf9d"/>
            <path id="Trazado_110302" data-name="Trazado 110302" d="M190.71,200.42a.628.628,0,0,1-.58.11,1.47,1.47,0,0,1-1-1.2,21.52,21.52,0,0,1,0-5.08,46.391,46.391,0,0,1,.8-5,8.25,8.25,0,0,1,.55-2c.17,0-.4,3.17-.83,7.05a30.631,30.631,0,0,0-.18,4.95,1.28,1.28,0,0,0,.74,1.08C190.49,200.46,190.69,200.38,190.71,200.42Z" fill="#ff9a6c"/>
            <path id="Trazado_110303" data-name="Trazado 110303" d="M199.26,189a5.8,5.8,0,0,1-3.45,1.59l.21-.19-.06.26a15.86,15.86,0,0,1-1.2,3.86,15.859,15.859,0,0,1,.69-4l.07-.26v-.17h.17a28.381,28.381,0,0,0,3.57-1.09Z" fill="#ff9a6c"/>
          </g>
          <g id="Grupo_60007" data-name="Grupo 60007">
            <path id="Trazado_110304" data-name="Trazado 110304" d="M205.18,189.94a3.55,3.55,0,0,0-4-.82l-.77,1-5.76,4.81a8.83,8.83,0,0,0-2.58,2.9,3,3,0,0,0,.61,3.58c1.17.9,2.92.39,4.08-.54s2-2.22,3.17-3.1c1.86-1.37,4.56-1.74,5.71-3.74a3.57,3.57,0,0,0-.46-4.09Z" fill="#ffbf9d"/>
            <path id="Trazado_110305" data-name="Trazado 110305" d="M200.74,188.12a3.22,3.22,0,0,1-.51,2.1,7.93,7.93,0,0,1-1.45,1.86,19.069,19.069,0,0,1-2.25,1.75,14,14,0,0,0-3.81,3.27,12.442,12.442,0,0,0-1,1.84,3.39,3.39,0,0,1,.67-2.05,8.64,8.64,0,0,1,1.54-1.78,24.167,24.167,0,0,1,2.28-1.71,21.565,21.565,0,0,0,2.23-1.67,8.59,8.59,0,0,0,1.45-1.7,10,10,0,0,0,.85-1.91Z" fill="#ff9a6c"/>
          </g>
        </g>
        <g id="Grupo_60009" data-name="Grupo 60009">
          <path id="Trazado_110306" data-name="Trazado 110306" d="M229.72,211.23s.2-7.17,2-9.29,12.42-4.85,12.42-4.85l26.64,6.18-6.19,10-1.87-1.76s-8.39,2.52-12.53,1.61a45.79,45.79,0,0,1-7.27-2.22l-4.34.31s-3.13,3.23-4.14,3.23-2.12-.91-1.61-1.92l-.91-1.52S230.12,212.13,229.72,211.23Z" fill="#ffbf9d"/>
          <path id="Trazado_110307" data-name="Trazado 110307" d="M243.7,206.23a4.33,4.33,0,0,1-1.9.65,32.639,32.639,0,0,0-4.65.91,6.49,6.49,0,0,0-3.34,3.06,11.692,11.692,0,0,1-1,1.72,5.49,5.49,0,0,1,.68-1.89,8.3,8.3,0,0,1,1.21-1.85,5.68,5.68,0,0,1,2.27-1.52,21.1,21.1,0,0,1,4.77-.79C243,206.38,243.68,206.16,243.7,206.23Z" fill="#ff9a6c"/>
          <path id="Trazado_110308" data-name="Trazado 110308" d="M241.59,200.92c0,.07-.85.22-2.16.68a21,21,0,0,0-2.27.91,11.32,11.32,0,0,0-2.52,1.5,5.44,5.44,0,0,0-.85,1.21q-.39.65-.69,1.26a13.191,13.191,0,0,0-.87,2.26c-.35,1.34-.29,2.22-.38,2.22a4.52,4.52,0,0,1,0-2.3,11.189,11.189,0,0,1,.78-2.39c.2-.43.43-.87.69-1.31a5.76,5.76,0,0,1,.94-1.34,10.759,10.759,0,0,1,2.68-1.55,16.68,16.68,0,0,1,2.35-.82A5.6,5.6,0,0,1,241.59,200.92Z" fill="#ff9a6c"/>
        </g>
      </g>
    </g>
    <g id="Grupo_60012" data-name="Grupo 60012">
      <path id="Trazado_110309" data-name="Trazado 110309" d="M140.34,138.26h-1.13l-4.3-6.57v6.57h-1.13v-8.53h1.13l4.31,6.61v-6.61h1.12Z" fill="#f2e9e4"/>
      <path id="Trazado_110310" data-name="Trazado 110310" d="M141.88,135a3.67,3.67,0,0,1,.37-1.68,2.71,2.71,0,0,1,1-1.15,2.81,2.81,0,0,1,1.5-.4,2.68,2.68,0,0,1,2.09.89,3.49,3.49,0,0,1,.8,2.39v.07a3.9,3.9,0,0,1-.35,1.67,2.69,2.69,0,0,1-1,1.14,2.74,2.74,0,0,1-1.51.41,2.68,2.68,0,0,1-2.09-.89,3.46,3.46,0,0,1-.8-2.38Zm1.09.12a2.7,2.7,0,0,0,.49,1.7,1.57,1.57,0,0,0,1.31.64,1.55,1.55,0,0,0,1.31-.65,3,3,0,0,0,.49-1.81,2.7,2.7,0,0,0-.5-1.69,1.64,1.64,0,0,0-2.61,0,2.9,2.9,0,0,0-.46,1.85Zm2.28-5.9h1.31L145,131h-.87Z" fill="#f2e9e4"/>
      <path id="Trazado_110311" data-name="Trazado 110311" d="M150,131.92v.71a2.32,2.32,0,0,1,1.88-.82,1.81,1.81,0,0,1,1.81,1,2.34,2.34,0,0,1,2-1c1.39,0,2.1.73,2.12,2.21v4.24h-1.08v-4.18a1.47,1.47,0,0,0-.31-1,1.485,1.485,0,0,0-2.47,1v4.2H152.9v-4.15a1.21,1.21,0,0,0-1.35-1.38,1.45,1.45,0,0,0-1.46.91v4.62H149v-6.34Z" fill="#f2e9e4"/>
      <path id="Trazado_110312" data-name="Trazado 110312" d="M159.53,130.24a.68.68,0,0,1,.16-.44.73.73,0,0,1,1,0,.64.64,0,0,1,.17.44.6.6,0,0,1-.17.44.73.73,0,0,1-1,0A.64.64,0,0,1,159.53,130.24Zm1.18,8h-1.09V131.9h1.09Z" fill="#f2e9e4"/>
      <path id="Trazado_110313" data-name="Trazado 110313" d="M163.47,131.92v.8a2.3,2.3,0,0,1,1.9-.91c1.34,0,2,.75,2,2.27v4.18h-1.09v-4.19a1.43,1.43,0,0,0-.31-1,1.27,1.27,0,0,0-1-.33,1.57,1.57,0,0,0-.93.28,2,2,0,0,0-.62.74v4.51h-1.08v-6.34Z" fill="#f2e9e4"/>
      <path id="Trazado_110314" data-name="Trazado 110314" d="M173,138.26a2.3,2.3,0,0,1-.15-.66,2.41,2.41,0,0,1-1.8.78,2.2,2.2,0,0,1-1.54-.53,1.71,1.71,0,0,1-.6-1.34,1.79,1.79,0,0,1,.75-1.54,3.52,3.52,0,0,1,2.12-.55h1.05v-.5a1.22,1.22,0,0,0-.33-.9,1.37,1.37,0,0,0-1-.34,1.62,1.62,0,0,0-1,.29.88.88,0,0,0-.39.71H169a1.45,1.45,0,0,1,.34-.91,2.16,2.16,0,0,1,.91-.7,3,3,0,0,1,1.27-.26,2.46,2.46,0,0,1,1.71.55,2,2,0,0,1,.65,1.5v2.92a3.55,3.55,0,0,0,.22,1.39v.09Zm-1.79-.82a1.84,1.84,0,0,0,1-.27,1.49,1.49,0,0,0,.66-.68v-1.3H172c-1.33,0-2,.39-2,1.16a1,1,0,0,0,.34.8,1.33,1.33,0,0,0,.84.29Z" fill="#f2e9e4"/>
    </g>
  </g>
</svg>
