<svg xmlns="http://www.w3.org/2000/svg" width="250" height="250" viewBox="0 0 250 250">
  <g id="Grupo_59422" data-name="Grupo 59422" transform="translate(-531.929 -7561.115)">
    <rect id="Rectángulo_5971" data-name="Rectángulo 5971" width="250" height="250" transform="translate(531.929 7561.115)" fill="#344154" opacity="0"/>
    <g id="Grupo_59421" data-name="Grupo 59421">
      <g id="freepik--Character--inject-99">
        <path id="Trazado_106364" data-name="Trazado 106364" d="M697.06,7790.361l-10.149-1.177v-58.217h-8.7v58.217l-10.149,1.177-.883,2.886h30.763Z" fill="#344154"/>
        <path id="Trazado_106365" data-name="Trazado 106365" d="M697.06,7790.361l-10.149-1.177v-58.217h-8.7v58.217l-10.149,1.177-.883,2.886h30.763Z" fill="#d9a171" opacity="0.4" style="isolation: isolate"/>
        <path id="Trazado_106366" data-name="Trazado 106366" d="M679.971,7652.632h45.218a245.349,245.349,0,0,0-11.671,74.014H668.3A245.351,245.351,0,0,1,679.971,7652.632Z" fill="#d9a171"/>
        <path id="Trazado_106367" data-name="Trazado 106367" d="M679.971,7652.632h45.218a245.349,245.349,0,0,0-11.671,74.014H668.3A245.351,245.351,0,0,1,679.971,7652.632Z" opacity="0.3" style="isolation: isolate"/>
        <path id="Trazado_106368" data-name="Trazado 106368" d="M677.222,7652.632H722.44a245.351,245.351,0,0,0-11.678,74.014H665.544A245.1,245.1,0,0,1,677.222,7652.632Z" fill="#d9a171"/>
        <path id="Trazado_106369" data-name="Trazado 106369" d="M703.133,7733.594h-64.01c2.692-5.857,7.587-9.445,12.869-9.445h46.8Z" fill="#d9a171"/>
        <path id="Trazado_106370" data-name="Trazado 106370" d="M716.138,7733.594H685.232c2.684-5.857,7.579-9.445,12.869-9.445H709.04C714.322,7724.149,716.935,7727.2,716.138,7733.594Z" fill="#d9a171"/>
        <path id="Trazado_106371" data-name="Trazado 106371" d="M716.138,7733.594H685.232c2.684-5.857,7.579-9.445,12.869-9.445H709.04C714.322,7724.149,716.935,7727.2,716.138,7733.594Z" opacity="0.3" style="isolation: isolate"/>
        <path id="Trazado_106372" data-name="Trazado 106372" d="M653.019,7787.254l-5.792.761-3.768-13.121,5.792-.761Z" fill="#ffc3bd"/>
        <path id="Trazado_106373" data-name="Trazado 106373" d="M646.5,7786.5l6.459-.854a.423.423,0,0,1,.481.337l.991,5.1a1.033,1.033,0,0,1-.876,1.163c-2.268.259-3.366.266-6.223.646-1.758.23-7.809,1.07-10.256,1.084s-2.326-2.4-1.321-2.641c4.644-1,8.326-2.871,9.79-4.357A1.661,1.661,0,0,1,646.5,7786.5Z" fill="#344154"/>
        <path id="Trazado_106374" data-name="Trazado 106374" d="M649.251,7774.14l-5.792.761,1.945,6.761,5.792-.761Z" opacity="0.2" style="isolation: isolate"/>
        <path id="Trazado_106375" data-name="Trazado 106375" d="M672.018,7703.126s-45.4,3.251-43.568,19.881c2.634,23.909,12.92,55.3,12.92,55.3L651.9,7776.5s-4.407-28.947-6.747-47.609c11.326-4.694,42.046-.194,45.649-9.977a32.036,32.036,0,0,0,1.357-15.79Z" fill="#344154"/>
        <path id="Trazado_106376" data-name="Trazado 106376" d="M649.9,7716.971s1.105,4.945,1.859,10.314h-.1l-1.163.18-.6.115-.668.122a26.172,26.172,0,0,0-2.7.717l-.61.2c-.265.086-.524.194-.768.295.266,2.153,1.185,4.959,1.192,7.414C636.245,7724.386,644.571,7716.971,649.9,7716.971Z" opacity="0.3" style="isolation: isolate"/>
        <path id="Trazado_106377" data-name="Trazado 106377" d="M653.55,7778.892l-12.353,1.623-1.665-4.443L651.9,7773.3Z" fill="#d9a171"/>
        <path id="Trazado_106378" data-name="Trazado 106378" d="M644.578,7787.749a7.368,7.368,0,0,0,1.515-.409.145.145,0,0,0,.093-.115.136.136,0,0,0-.079-.129c-.2-.108-1.981-1.012-2.656-.639a.531.531,0,0,0-.265.423.719.719,0,0,0,.265.718A1.58,1.58,0,0,0,644.578,7787.749Zm1.12-.553c-1.005.338-1.773.409-2.082.173a.483.483,0,0,1-.158-.467.245.245,0,0,1,.122-.208,3.817,3.817,0,0,1,2.118.531Z" fill="#d9a171"/>
        <path id="Trazado_106379" data-name="Trazado 106379" d="M646.064,7787.376a.082.082,0,0,0,.057,0,.143.143,0,0,0,.065-.122c0-.065-.093-1.752-.754-2.233a.661.661,0,0,0-.6-.114.522.522,0,0,0-.437.473c-.051.646.976,1.744,1.593,2.01A.119.119,0,0,0,646.064,7787.376Zm-1.1-2.24a.428.428,0,0,1,.308.079,3.057,3.057,0,0,1,.618,1.787c-.56-.358-1.257-1.2-1.221-1.622,0-.086.036-.186.23-.229Z" fill="#d9a171"/>
        <path id="Trazado_106380" data-name="Trazado 106380" d="M678.3,7658.23c-.5,2.254-1.112,4.35-1.722,6.5s-1.3,4.256-2.046,6.359-1.529,4.206-2.383,6.3-1.809,4.149-2.835,6.194l-.187.366-.071.108a9.581,9.581,0,0,1-2.268,2.282,18.053,18.053,0,0,1-2.118,1.328,30.068,30.068,0,0,1-4.084,1.751c-1.356.474-2.713.869-4.069,1.206a40.465,40.465,0,0,1-4.142.8l-1.342-4.163,3.409-1.909c1.127-.646,2.24-1.285,3.3-1.945a33.423,33.423,0,0,0,2.971-2.017,9.205,9.205,0,0,0,1.142-1c.294-.309.509-.61.466-.639l-.258.474c.782-1.909,1.5-3.869,2.2-5.85s1.328-3.99,1.952-6.022,1.221-4.062,1.8-6.108,1.148-4.127,1.687-6.1Z" fill="#ffc3bd"/>
        <path id="Trazado_106381" data-name="Trazado 106381" d="M668.817,7656.672a55.133,55.133,0,0,0-7.9,13.071l12.418,7.472c3.588-4.371,8.053-15.92,8.232-19.818C681.851,7651.411,673.927,7650.808,668.817,7656.672Z" fill="#d9a171"/>
        <path id="Trazado_106382" data-name="Trazado 106382" d="M668.817,7656.672a55.133,55.133,0,0,0-7.9,13.071l12.418,7.472c3.588-4.371,8.053-15.92,8.232-19.818C681.851,7651.411,673.927,7650.808,668.817,7656.672Z" fill="#aed3f2" opacity="0.5" style="isolation: isolate"/>
        <path id="Trazado_106383" data-name="Trazado 106383" d="M673.188,7662.228c-2.706,2.275-4.63,7-5.47,11.6l5.62,3.38a42.673,42.673,0,0,0,5.341-9.955C677.415,7663.4,675.578,7660.218,673.188,7662.228Z" fill="#d9a171" opacity="0.5" style="isolation: isolate"/>
        <path id="Trazado_106384" data-name="Trazado 106384" d="M671.436,7790.749H665.6l-2.677-13.515h5.835Z" fill="#ffc3bd"/>
        <path id="Trazado_106385" data-name="Trazado 106385" d="M665.414,7789.328h6.561a.416.416,0,0,1,.43.4l.316,5.189a1.034,1.034,0,0,1-1.019,1.041c-2.282-.043-3.373-.172-6.259-.172-1.773,0-7.787.179-10.235.179s-2.383-2.419-1.342-2.641c4.651-.984,8.9-2.34,10.544-3.632A1.643,1.643,0,0,1,665.414,7789.328Z" fill="#344154"/>
        <path id="Trazado_106386" data-name="Trazado 106386" d="M668.759,7777.234h-5.835l1.385,6.969h5.835Z" opacity="0.2" style="isolation: isolate"/>
        <path id="Trazado_106387" data-name="Trazado 106387" d="M683.452,7703.126s-38.472,3.251-37.525,19.96c1.034,18.3,15.848,59.438,15.848,59.438h10.688s-4.838-37.223-7.178-55.856c10.846,0,33.347,2.046,36.95-7.737a28.713,28.713,0,0,0,1.027-15.5Z" fill="#344154"/>
        <path id="Trazado_106388" data-name="Trazado 106388" d="M673.073,7782.689l-12.819.581-.991-5.5,13.415.043Z" fill="#d9a171"/>
        <path id="Trazado_106389" data-name="Trazado 106389" d="M663.347,7790.347a7.657,7.657,0,0,0,1.558-.208.135.135,0,0,0,.1-.108.127.127,0,0,0-.057-.136c-.187-.129-1.838-1.263-2.548-.983a.516.516,0,0,0-.316.387.72.72,0,0,0,.172.718A1.557,1.557,0,0,0,663.347,7790.347Zm1.185-.409c-1.048.208-1.816.18-2.089-.093a.5.5,0,0,1-.093-.488.25.25,0,0,1,.15-.194c.381-.144,1.35.344,2.032.775Z" fill="#d9a171"/>
        <path id="Trazado_106390" data-name="Trazado 106390" d="M664.9,7790.139h.057a.127.127,0,0,0,.072-.108c0-.071.136-1.751-.452-2.318a.721.721,0,0,0-.574-.194.532.532,0,0,0-.5.417,2.967,2.967,0,0,0,1.321,2.2A.126.126,0,0,0,664.9,7790.139Zm-.8-2.369a.414.414,0,0,1,.294.122,3.027,3.027,0,0,1,.388,1.852c-.51-.423-1.091-1.349-1.005-1.765,0-.079.064-.18.265-.2Z" fill="#d9a171"/>
        <path id="Trazado_106391" data-name="Trazado 106391" d="M653.8,7687.421l-6.524-1.636.459,6.976s6.46,0,7.005-1.9Z" fill="#ffc3bd"/>
        <path id="Trazado_106392" data-name="Trazado 106392" d="M642.317,7689.187l1.536,4.378,3.883-.8-.459-6.977Z" fill="#ffc3bd"/>
        <path id="Trazado_106393" data-name="Trazado 106393" d="M672.075,7703.427h31.208c.223-2.785-.423-11.857.058-23.406a148.181,148.181,0,0,1,3.1-25.452c.144-.631.287-1.248.438-1.88,0,0-1.586-.323-3.854-.653-1.881-.28-4.242-.56-6.553-.668a114.918,114.918,0,0,0-13.264,0c-2.039.187-4.034.524-5.62.833-2.032.409-3.23.761-3.23.761S666.649,7670.611,672.075,7703.427Z" fill="#d9a171"/>
        <path id="Trazado_106394" data-name="Trazado 106394" d="M672.075,7703.427h31.208c.223-2.785-.423-11.857.058-23.406a148.181,148.181,0,0,1,3.1-25.452c.144-.631.287-1.248.438-1.88,0,0-1.586-.323-3.854-.653-1.881-.28-4.242-.56-6.553-.668a114.918,114.918,0,0,0-13.264,0c-2.039.187-4.034.524-5.62.833-2.032.409-3.23.761-3.23.761S666.649,7670.611,672.075,7703.427Z" fill="#aed3f2" opacity="0.5" style="isolation: isolate"/>
        <path id="Trazado_106395" data-name="Trazado 106395" d="M703.319,7680.028a148.352,148.352,0,0,1,3.1-25.459c-2.082-.179-5.649,0-6.237,3.4C699.544,7661.582,699.494,7670.037,703.319,7680.028Z" fill="#d9a171" opacity="0.5" style="isolation: isolate"/>
        <path id="Trazado_106396" data-name="Trazado 106396" d="M708.839,7656.73c.3.553.509.969.717,1.435s.438.933.646,1.436q.625,1.4,1.185,2.821a57.278,57.278,0,0,1,1.93,5.835,49.994,49.994,0,0,1,1.285,6.1,36.445,36.445,0,0,1,.373,6.417v.617a6.961,6.961,0,0,1-.638,2.4,7.9,7.9,0,0,1-1.572,2.218,12.756,12.756,0,0,1-3.28,2.311,28.3,28.3,0,0,1-6.123,2.154,53.673,53.673,0,0,1-5.957,1.069,56.813,56.813,0,0,1-5.972.431l-.588-4.343a110.027,110.027,0,0,0,10.486-3.517,25.978,25.978,0,0,0,4.472-2.246,5.135,5.135,0,0,0,1.291-1.141c.094-.137.094-.208.044-.144a.593.593,0,0,0-.087.187.765.765,0,0,0-.035.143v-.107a42.256,42.256,0,0,0-2.06-10.1q-.819-2.528-1.824-5.025c-.323-.832-.667-1.665-1.026-2.483l-.553-1.213-.524-1.127Z" fill="#ffc3bd"/>
        <path id="Trazado_106397" data-name="Trazado 106397" d="M706.858,7652.689c-5.685-1.794-9.331,2.749-7.752,10.623s3.589,10.809,3.589,10.809l13.293-1.88C714.9,7664.518,712.671,7654.526,706.858,7652.689Z" fill="#d9a171"/>
        <path id="Trazado_106398" data-name="Trazado 106398" d="M706.858,7652.689c-5.685-1.794-9.331,2.749-7.752,10.623s3.589,10.809,3.589,10.809l13.293-1.88C714.9,7664.518,712.671,7654.526,706.858,7652.689Z" fill="#aed3f2" opacity="0.5" style="isolation: isolate"/>
        <path id="Trazado_106399" data-name="Trazado 106399" d="M696.163,7636.489l-3.546,2.943-4.837,4.048a15.922,15.922,0,0,1,.308,1.952c.259,2.627-.416,5.025-4.27,5.922,0,0-3.8,3.546,3.789,3.653s9.331-3.588,9.331-3.588C694.074,7648.547,695.18,7640.76,696.163,7636.489Z" fill="#ffc3bd"/>
        <path id="Trazado_106400" data-name="Trazado 106400" d="M696.422,7649.272a23.945,23.945,0,0,1-9.188,5.7,4.25,4.25,0,0,1,3.417,4.013c3.754-1.12,8.211-6.762,8.089-7.81A23.956,23.956,0,0,1,696.422,7649.272Z" fill="#aed3f2"/>
        <path id="Trazado_106401" data-name="Trazado 106401" d="M685.548,7650.442s-3.546,2.972,1.686,4.529a4.772,4.772,0,0,0-4.062,3.589,6.271,6.271,0,0,1-.574-7.651A23.188,23.188,0,0,0,685.548,7650.442Z" fill="#aed3f2"/>
        <path id="Trazado_106402" data-name="Trazado 106402" d="M687.78,7643.48a15.922,15.922,0,0,1,.308,1.952c1.8-.358,4.214-2.282,4.465-4.119a8.76,8.76,0,0,0,.064-1.845Z" opacity="0.2" style="isolation: isolate"/>
        <path id="Trazado_106403" data-name="Trazado 106403" d="M683.15,7623.383c-2.383,1.974-1.952,9.611.338,8.907S687.084,7620.139,683.15,7623.383Z" fill="#344154"/>
        <path id="Trazado_106404" data-name="Trazado 106404" d="M697.627,7630.345c-1.234,5.67-1.665,9.044-5.024,11.635a7.551,7.551,0,0,1-12.2-5.433c-.438-5.283,1.658-13.674,7.623-15.281a7.636,7.636,0,0,1,9.6,9.079Z" fill="#ffc3bd"/>
        <path id="Trazado_106405" data-name="Trazado 106405" d="M695.761,7634.235a5.533,5.533,0,0,1-.33-4.938c-.983-.782-1.967-3.309-1.206-4.306-1.923-.129-11.879,2.261-13.86-4.888a9.266,9.266,0,0,0,3.115,0s-2.024-3.366,1.565-4.371c.524,1.7,4.852,1.873,7,1.794,4.4-.179,9.417,1.651,7.386,5.067C702.644,7624.007,703.168,7630.252,695.761,7634.235Z" fill="#344154"/>
        <path id="Trazado_106406" data-name="Trazado 106406" d="M698.632,7622.378s2.2.46,1.773-2.34C702.221,7621.574,701.058,7624.381,698.632,7622.378Z" fill="#344154"/>
        <path id="Trazado_106407" data-name="Trazado 106407" d="M698.553,7635.585a5.163,5.163,0,0,1-3.115,1.923c-1.608.288-2.1-1.191-1.385-2.619.639-1.292,2.247-2.993,3.725-2.627S699.508,7634.35,698.553,7635.585Z" fill="#ffc3bd"/>
        <path id="Trazado_106408" data-name="Trazado 106408" d="M695.244,7632.233a17.875,17.875,0,0,1-2.871,5.792,6.736,6.736,0,0,1-5.857,2.663c-2.059-.036-1.744-2.871-1.744-2.871l-1.012-.23s.108,3.51-1.9,2.024a5.366,5.366,0,0,1-1.127-2.153,6.966,6.966,0,0,1-.358-1.923h0c-.489.775-.668,4.213.078,5.849a5.521,5.521,0,0,0,3.216,2.541,12.31,12.31,0,0,0,7.544-.265c3.66-1.436,4.191-4.967,4.306-6.977a32.7,32.7,0,0,1,.718-4.421Z" fill="#344154"/>
        <path id="Trazado_106409" data-name="Trazado 106409" d="M687.909,7630.862c-.072.467-.373.811-.682.775s-.495-.445-.423-.9.38-.818.717-.783S687.981,7630.4,687.909,7630.862Z" fill="#344154"/>
        <path id="Trazado_106410" data-name="Trazado 106410" d="M682.626,7630.23c-.072.467-.373.819-.682.783s-.495-.445-.423-.912.38-.811.682-.775S682.7,7629.764,682.626,7630.23Z" fill="#344154"/>
        <path id="Trazado_106411" data-name="Trazado 106411" d="M684.277,7630.417a15.064,15.064,0,0,1-2.211,3.323,2.267,2.267,0,0,0,1.881.452Z" fill="#ed847e"/>
        <path id="Trazado_106412" data-name="Trazado 106412" d="M683.918,7636.489a4.024,4.024,0,0,0,3.079-.8.136.136,0,0,0,.015-.193.138.138,0,0,0-.194-.015,3.874,3.874,0,0,1-3.366.632.137.137,0,0,0-.165.1h0a.129.129,0,0,0,.083.163l.01,0A3.909,3.909,0,0,0,683.918,7636.489Z" fill="#344154"/>
        <path id="Trazado_106413" data-name="Trazado 106413" d="M690.909,7627.977a.235.235,0,0,0,.122-.065.273.273,0,0,0,0-.386l0,0a2.633,2.633,0,0,0-2.318-.911.273.273,0,0,0-.231.309v.007a.28.28,0,0,0,.323.222,2.153,2.153,0,0,1,1.816.718A.267.267,0,0,0,690.909,7627.977Z" fill="#344154"/>
        <path id="Trazado_106414" data-name="Trazado 106414" d="M680.889,7626.843a.252.252,0,0,0,.252-.051,2.282,2.282,0,0,1,1.966-.531.288.288,0,0,0,.345-.194.28.28,0,0,0-.194-.344h0a2.866,2.866,0,0,0-2.469.646.266.266,0,0,0-.049.372l.013.015A.276.276,0,0,0,680.889,7626.843Z" fill="#344154"/>
        <path id="Trazado_106415" data-name="Trazado 106415" d="M691.943,7687.378h-5.391l2.613,5.742s5.3-.079,5.024-2.806Z" fill="#ffc3bd"/>
        <path id="Trazado_106416" data-name="Trazado 106416" d="M681.413,7691.075l2.763,3.725,4.988-1.687-2.613-5.742Z" fill="#ffc3bd"/>
      </g>
      <g id="freepik--Desk--inject-99">
        <rect id="Rectángulo_5972" data-name="Rectángulo 5972" width="2.62" height="99.955" transform="translate(731.9 7697.046)" fill="#d9a171"/>
        <rect id="Rectángulo_5973" data-name="Rectángulo 5973" width="2.62" height="99.955" transform="translate(747.375 7697.046)" fill="#d9a171"/>
        <rect id="Rectángulo_5974" data-name="Rectángulo 5974" width="2.62" height="99.955" transform="translate(747.375 7697.046)" opacity="0.2" style="isolation: isolate"/>
        <rect id="Rectángulo_5975" data-name="Rectángulo 5975" width="2.62" height="99.955" transform="translate(583.038 7697.046)" fill="#d9a171"/>
        <path id="Trazado_106417" data-name="Trazado 106417" d="M583.038,7697.046h2.62v67.16l-2.62-5.864Z" opacity="0.2" style="isolation: isolate"/>
        <rect id="Rectángulo_5976" data-name="Rectángulo 5976" width="2.62" height="99.955" transform="translate(567.57 7697.046)" fill="#d9a171"/>
        <rect id="Rectángulo_5977" data-name="Rectángulo 5977" width="166.957" height="58.468" transform="translate(567.57 7697.046)" fill="#5e6178"/>
        <rect id="Rectángulo_5978" data-name="Rectángulo 5978" width="168.629" height="4.271" transform="translate(565.898 7692.775)" fill="#d9a171"/>
        <rect id="Rectángulo_5979" data-name="Rectángulo 5979" width="15.468" height="58.468" transform="translate(734.52 7697.046)" fill="#2f313c"/>
        <rect id="Rectángulo_5980" data-name="Rectángulo 5980" width="17.14" height="4.271" transform="translate(734.52 7692.783)" fill="#d9a171"/>
        <rect id="Rectángulo_5981" data-name="Rectángulo 5981" width="17.14" height="4.271" transform="translate(734.52 7692.783)" opacity="0.2" style="isolation: isolate"/>
        <rect id="Rectángulo_5982" data-name="Rectángulo 5982" width="182.425" height="2.972" transform="translate(567.57 7697.053)" opacity="0.2" style="isolation: isolate"/>
        <path id="Trazado_106418" data-name="Trazado 106418" d="M671.989,7681.306h-62.05a4.559,4.559,0,0,1-4.493-4.307l-1.636-36.06a4.083,4.083,0,0,1,3.855-4.3c.081-.005.162-.007.243-.006h62.05a4.558,4.558,0,0,1,4.486,4.306l1.644,36.06a4.077,4.077,0,0,1-3.841,4.3C672.161,7681.3,672.075,7681.306,671.989,7681.306Z" fill="#d9a171"/>
        <path id="Trazado_106419" data-name="Trazado 106419" d="M671.157,7681.306h-62.05a4.559,4.559,0,0,1-4.494-4.307l-1.636-36.06a4.083,4.083,0,0,1,3.855-4.3c.081-.005.162-.007.243-.006h62.05a4.557,4.557,0,0,1,4.486,4.306l1.644,36.06a4.076,4.076,0,0,1-3.841,4.3C671.329,7681.3,671.243,7681.306,671.157,7681.306Z" fill="#d9a171"/>
        <path id="Trazado_106420" data-name="Trazado 106420" d="M671.157,7681.306h-62.05a4.559,4.559,0,0,1-4.494-4.307l-1.636-36.06a4.083,4.083,0,0,1,3.855-4.3c.081-.005.162-.007.243-.006h62.05a4.557,4.557,0,0,1,4.486,4.306l1.644,36.06a4.076,4.076,0,0,1-3.841,4.3C671.329,7681.3,671.243,7681.306,671.157,7681.306Z" fill="#aed3f2" opacity="0.2" style="isolation: isolate"/>
        <rect id="Rectángulo_5983" data-name="Rectángulo 5983" width="11.85" height="21.791" transform="translate(633.855 7659.515)" fill="#d9a171"/>
        <path id="Trazado_106421" data-name="Trazado 106421" d="M633.482,7657.189l-5.233,35.579h12.819l5.233-35.579Zm7.529,11.305-.847,5.742a1.794,1.794,0,0,1-1.773,1.536H636.46a1.8,1.8,0,0,1-1.8-1.805,1.826,1.826,0,0,1,.018-.255l.847-5.742a1.794,1.794,0,0,1,1.773-1.536h1.931a1.8,1.8,0,0,1,1.8,1.8A1.822,1.822,0,0,1,641.011,7668.494Z" fill="#d9a171"/>
        <path id="Trazado_106422" data-name="Trazado 106422" d="M633.482,7657.189l-5.233,35.579h12.819l5.233-35.579Zm7.529,11.305-.847,5.742a1.794,1.794,0,0,1-1.773,1.536H636.46a1.8,1.8,0,0,1-1.8-1.805,1.826,1.826,0,0,1,.018-.255l.847-5.742a1.794,1.794,0,0,1,1.773-1.536h1.931a1.8,1.8,0,0,1,1.8,1.8A1.822,1.822,0,0,1,641.011,7668.494Z" fill="#aed3f2" opacity="0.2" style="isolation: isolate"/>
        <path id="Trazado_106423" data-name="Trazado 106423" d="M648.375,7690.17H625.938l-2.756,2.613H654.34Z" fill="#d9a171"/>
        <path id="Trazado_106424" data-name="Trazado 106424" d="M648.375,7690.17H625.938l-2.756,2.613H654.34Z" fill="#aed3f2" opacity="0.2" style="isolation: isolate"/>
        <path id="Trazado_106425" data-name="Trazado 106425" d="M582.112,7684.8c-1.263-.717-.833-7.622-.28-11.57.675-4.773,2.684-13.221,9.072-17.9,3.044-2.232,5.951-4.127,6.46-6.531.933,2.153,6.237,17.4-1.328,24.253C589.634,7678.844,584.89,7677.552,582.112,7684.8Z" fill="#d9a171"/>
        <g id="Grupo_59420" data-name="Grupo 59420" opacity="0.2">
          <path id="Trazado_106426" data-name="Trazado 106426" d="M582.112,7684.8c-1.263-.717-.833-7.622-.28-11.57.675-4.773,2.684-13.221,9.072-17.9,3.044-2.232,5.951-4.127,6.46-6.531.933,2.153,6.237,17.4-1.328,24.253C589.634,7678.844,584.89,7677.552,582.112,7684.8Z"/>
        </g>
        <path id="Trazado_106427" data-name="Trazado 106427" d="M583.791,7680.882c1.472-.825-.215-8.871-1.564-13.45-1.63-5.541-5.549-15.332-14.355-20.686-4.178-2.548-8.147-4.7-9.2-7.508-.818,2.491-3.445,22.107,7.177,29.974C574.87,7675.865,579.09,7672.5,583.791,7680.882Z" fill="#d9a171"/>
        <path id="Trazado_106428" data-name="Trazado 106428" d="M583.074,7679.088a.207.207,0,0,1-.194-.144,124.482,124.482,0,0,0-8.24-19.673c-5.383-10.587-12.625-12.31-12.7-12.324a.2.2,0,0,1-.145-.233v0a.194.194,0,0,1,.229-.151h0c.079,0,7.486,1.766,12.963,12.539a124.61,124.61,0,0,1,8.232,19.746.2.2,0,0,1-.136.244Z" fill="#aed3f2"/>
        <path id="Trazado_106429" data-name="Trazado 106429" d="M560.177,7653.9a.191.191,0,0,1-.136-.05.2.2,0,0,1,0-.28,8.835,8.835,0,0,1,10.149-1.472.186.186,0,0,1,.091.248l-.005.011a.187.187,0,0,1-.244.1l-.014-.007a8.442,8.442,0,0,0-9.7,1.435A.21.21,0,0,1,560.177,7653.9Z" fill="#aed3f2"/>
        <path id="Trazado_106430" data-name="Trazado 106430" d="M567.764,7666.994a.164.164,0,0,1-.173-.265h0c0-.064,3.588-5.986,8.85-4.536a.2.2,0,1,1-.108.38c-4.96-1.37-8.369,4.307-8.4,4.357A.21.21,0,0,1,567.764,7666.994Z" fill="#aed3f2"/>
        <path id="Trazado_106431" data-name="Trazado 106431" d="M573.456,7656.931a.207.207,0,0,1-.194-.144,2.958,2.958,0,0,1,.187-2.038,1.514,1.514,0,0,1,1.033-.682.188.188,0,0,1,.227.135l0,.016a.2.2,0,0,1-.151.237,1.068,1.068,0,0,0-.775.5,2.621,2.621,0,0,0-.144,1.73.185.185,0,0,1-.123.233l-.013,0Z" fill="#aed3f2"/>
        <path id="Trazado_106432" data-name="Trazado 106432" d="M593.431,7677.208H575.264l1.672,15.554h14.822Z" fill="#d9a171"/>
        <path id="Trazado_106433" data-name="Trazado 106433" d="M593.431,7677.208H575.264l1.672,15.554h14.822Z" fill="#aed3f2" opacity="0.7" style="isolation: isolate"/>
        <path id="Trazado_106434" data-name="Trazado 106434" d="M737.391,7678.65v-.969a.782.782,0,0,0-.782-.782h-9.654a.783.783,0,0,0-.783.782v15.073h11.219V7691c2.44,0,4.357-2.713,4.357-6.18S739.839,7678.65,737.391,7678.65Zm0,10.766v-9.172c1.507,0,2.785,2.11,2.785,4.608s-1.271,4.608-2.785,4.608Z" fill="#d9a171"/>
        <path id="Trazado_106435" data-name="Trazado 106435" d="M737.391,7678.65v-.969a.782.782,0,0,0-.782-.782h-9.654a.783.783,0,0,0-.783.782v15.073h11.219V7691c2.44,0,4.357-2.713,4.357-6.18S739.839,7678.65,737.391,7678.65Zm0,10.766v-9.172c1.507,0,2.785,2.11,2.785,4.608s-1.271,4.608-2.785,4.608Z" fill="#aed3f2" opacity="0.2" style="isolation: isolate"/>
        <path id="Trazado_106436" data-name="Trazado 106436" d="M737.4,7680.244h-1.278l1.278,3.539Z" opacity="0.3" style="isolation: isolate"/>
        <path id="Trazado_106437" data-name="Trazado 106437" d="M737.4,7691.031h-1.278l1.278.589Z" opacity="0.3" style="isolation: isolate"/>
      </g>
    </g>
  </g>
</svg>
