<svg xmlns="http://www.w3.org/2000/svg" width="249.57" height="286.576" viewBox="0 0 249.57 286.576">
  <g id="Capa_2" data-name="Capa 2" transform="translate(-51.424 -29.597)">
    <g id="Grupo_60048" data-name="Grupo 60048" transform="translate(52.75 29.597)">
      <circle id="Elipse_4281" data-name="Elipse 4281" cx="118.297" cy="118.297" r="118.297" transform="translate(1.174 24.994)" fill="#f2e9e4" stroke="#aed3f2" stroke-miterlimit="10" stroke-width="5"/>
      <g id="Grupo_60047" data-name="Grupo 60047">
        <path id="Trazado_110315" data-name="Trazado 110315" d="M210.553,247.095a7.292,7.292,0,0,0,4.339-6.735,6.843,6.843,0,1,0-13.658-.048,7.262,7.262,0,0,0,4.351,6.8c-10.505,1.579-10.027,13-10.027,13l24.841.115S220.967,248.668,210.553,247.095Z" transform="translate(-109.139 -109.933)" fill="#aed3f2"/>
        <g id="Grupo_60026" data-name="Grupo 60026" transform="translate(101.771)">
          <g id="Grupo_60014" data-name="Grupo 60014" transform="translate(0 11.276)">
            <g id="Grupo_60013" data-name="Grupo 60013">
              <rect id="Rectángulo_8892" data-name="Rectángulo 8892" width="146.17" height="108.561" transform="translate(0.127 0.169)" fill="#fff"/>
              <path id="Trazado_110316" data-name="Trazado 110316" d="M367.227,156.954c0-1.132-.054-42.843-.139-108.555l.139.133-146.158.03h0l.163-.163V156.954l-.151-.151,146.17.151-146.17.151h-.151V48.23h.182l146.158.03h.133V48.4C367.281,114.111,367.227,155.8,367.227,156.954Z" transform="translate(-220.93 -48.23)" fill="#344154"/>
            </g>
            <path id="Trazado_110317" data-name="Trazado 110317" d="M367.519,74.979c0,.091-32.677.163-72.925.163s-72.925-.073-72.925-.163,32.641-.169,72.925-.169S367.519,74.889,367.519,74.979Z" transform="translate(-221.222 -58.726)" fill="#839eb6"/>
            <path id="Trazado_110318" data-name="Trazado 110318" d="M232.935,60.253a2.2,2.2,0,1,1-2.2-2.2A2.2,2.2,0,0,1,232.935,60.253Z" transform="translate(-223.931 -52.108)" fill="#839eb6"/>
            <path id="Trazado_110319" data-name="Trazado 110319" d="M243.9,60.253a2.2,2.2,0,1,1-2.2-2.2A2.2,2.2,0,0,1,243.9,60.253Z" transform="translate(-228.259 -52.108)" fill="#839eb6"/>
            <path id="Trazado_110320" data-name="Trazado 110320" d="M254.855,60.253a2.2,2.2,0,1,1-2.2-2.2A2.2,2.2,0,0,1,254.855,60.253Z" transform="translate(-232.586 -52.108)" fill="#839eb6"/>
          </g>
          <g id="Grupo_60017" data-name="Grupo 60017" transform="translate(55.023)">
            <path id="Trazado_110321" data-name="Trazado 110321" d="M335.81,32.945a3.831,3.831,0,0,0-3.867-2.142,5.228,5.228,0,0,0-6.433-.194,4.647,4.647,0,0,0-7.2,3.467,3.879,3.879,0,0,0-3.709,6.366,3.734,3.734,0,0,0,1.21,7.328L334.9,37.284A3.818,3.818,0,0,0,335.81,32.945Z" transform="translate(-311.858 -29.597)" fill="#839eb6"/>
            <g id="Grupo_60016" data-name="Grupo 60016" transform="translate(1.233 1.786)">
              <g id="Grupo_60015" data-name="Grupo 60015" transform="translate(0 2.004)">
                <path id="Trazado_110322" data-name="Trazado 110322" d="M316.053,51.424a15.842,15.842,0,0,1,16.49-13.767l.817.042c8.811.956,12.92,8.968,11.721,17.742L342.34,84.791l-.151,1.428-20.575,3.074.4-7.5s-8.423-1.743-8.109-10.239C314.05,67.454,315.054,59.037,316.053,51.424Z" transform="translate(-313.896 -36.563)" fill="#ffbf9d"/>
                <path id="Trazado_110323" data-name="Trazado 110323" d="M327.143,108.825a20.641,20.641,0,0,0,11.286-2.7s-2.929,5.979-11.358,4.768Z" transform="translate(-319.098 -63.604)" fill="#ff9a6c"/>
                <path id="Trazado_110324" data-name="Trazado 110324" d="M320.5,73.379a1.21,1.21,0,0,0,1.107,1.283,1.168,1.168,0,0,0,1.307-1.035,1.21,1.21,0,0,0-1.107-1.283,1.168,1.168,0,0,0-1.307,1.035Z" transform="translate(-316.502 -50.263)" fill="#344154"/>
                <path id="Trazado_110325" data-name="Trazado 110325" d="M320.117,66.665c.145.163,1.1-.466,2.421-.4s2.227.769,2.372.605-.061-.363-.466-.684a3.28,3.28,0,0,0-1.894-.69,3.219,3.219,0,0,0-1.918.514C320.2,66.314,320.039,66.592,320.117,66.665Z" transform="translate(-316.345 -47.562)" fill="#344154"/>
                <path id="Trazado_110326" data-name="Trazado 110326" d="M339.528,74.672a1.21,1.21,0,0,0,1.107,1.283,1.162,1.162,0,0,0,1.3-1.035,1.21,1.21,0,0,0-1.107-1.277,1.156,1.156,0,0,0-1.3,1.029Z" transform="translate(-324.016 -50.776)" fill="#344154"/>
                <path id="Trazado_110327" data-name="Trazado 110327" d="M341.29,68.141c.145.163,1.1-.472,2.421-.4s2.227.762,2.378.605-.067-.357-.472-.684A3.322,3.322,0,0,0,343.711,67a3.183,3.183,0,0,0-1.924.52C341.375,67.784,341.224,68.062,341.29,68.141Z" transform="translate(-324.707 -48.154)" fill="#344154"/>
                <path id="Trazado_110328" data-name="Trazado 110328" d="M330.555,77.413a8.381,8.381,0,0,0-2.1-.49c-.327-.048-.641-.133-.684-.363a1.682,1.682,0,0,1,.272-.974l1.107-2.487a43.2,43.2,0,0,0,2.542-6.529,43.956,43.956,0,0,0-3.062,6.305c-.369.877-.726,1.706-1.071,2.505a1.973,1.973,0,0,0-.236,1.3.835.835,0,0,0,.526.514,2.318,2.318,0,0,0,.563.1A8.587,8.587,0,0,0,330.555,77.413Z" transform="translate(-319.188 -47.986)" fill="#344154"/>
                <path id="Trazado_110329" data-name="Trazado 110329" d="M336.173,86.29c-.212,0-.29,1.392-1.549,2.342s-2.759.714-2.784.908c0,.091.321.29.962.345a3.54,3.54,0,0,0,2.318-.684,3.086,3.086,0,0,0,1.21-1.967C336.385,86.647,336.245,86.29,336.173,86.29Z" transform="translate(-320.981 -55.774)" fill="#344154"/>
                <path id="Trazado_110330" data-name="Trazado 110330" d="M341.167,59.85c.109.363,1.422.26,2.941.52s2.741.738,2.959.43c.1-.151-.1-.49-.605-.859a5.186,5.186,0,0,0-4.5-.726C341.415,59.414,341.118,59.68,341.167,59.85Z" transform="translate(-324.662 -44.994)" fill="#839eb6"/>
                <path id="Trazado_110331" data-name="Trazado 110331" d="M321.212,60.4c.218.309,1.132.048,2.215.085s1.985.3,2.209,0c.1-.145-.03-.454-.411-.75a3.026,3.026,0,0,0-1.773-.605,3.062,3.062,0,0,0-1.815.508C321.261,59.951,321.122,60.26,321.212,60.4Z" transform="translate(-316.774 -45.048)" fill="#839eb6"/>
                <path id="Trazado_110332" data-name="Trazado 110332" d="M319.13,46.868s2.5-5.2,5.125-6.318C327.432,39.2,328.6,42.674,331.6,42s6.051-1.973,8.938.46c3.189,2.669,1.549,4.345,1.567,8.121.067,15.316,2.644,19.776,3.794,12.617.127-.781,2.342-1.3,2.832-4.611.635-4.3,1.065-9.531.254-12.647-.69-2.62-2.07-4.478-4.611-6.578-4.018-3.31-9.737-3.631-13.646-3.461S319.106,40.181,319.13,46.868Z" transform="translate(-315.963 -35.861)" fill="#839eb6"/>
                <path id="Trazado_110333" data-name="Trazado 110333" d="M362.123,79.227a2.312,2.312,0,0,1,2.6-2.1c1.573.23,3.292,1.21,3.026,4.484-.472,5.8-6.2,4.121-6.191,3.958S361.9,81.648,362.123,79.227Z" transform="translate(-332.717 -52.148)" fill="#ffbf9d"/>
                <path id="Trazado_110334" data-name="Trazado 110334" d="M363.935,84.722a1.547,1.547,0,0,0,.26.169,1.017,1.017,0,0,0,.75.079,2.591,2.591,0,0,0,1.337-2.148,3.334,3.334,0,0,0-.163-1.47,1.168,1.168,0,0,0-.7-.835.514.514,0,0,0-.605.23c-.091.151-.067.272-.1.278s-.115-.109-.048-.345a.605.605,0,0,1,.26-.339.744.744,0,0,1,.569-.1,1.422,1.422,0,0,1,.98.98,3.413,3.413,0,0,1,.218,1.646,2.637,2.637,0,0,1-1.676,2.384,1.089,1.089,0,0,1-.914-.23C363.935,84.862,363.911,84.728,363.935,84.722Z" transform="translate(-333.651 -53.377)" fill="#ff9a6c"/>
              </g>
              <path id="Trazado_110335" data-name="Trazado 110335" d="M348.627,50.371a5.555,5.555,0,0,1-2.517,1.011,1.9,1.9,0,0,1-2.033-1.434c-.048-.411.073-.871-.175-1.21s-.89-.3-1.38-.272a3.709,3.709,0,0,1-3.716-2.826,1.587,1.587,0,0,1-2.1.1,8.473,8.473,0,0,1-1.495-1.773,2.421,2.421,0,0,0-1.943-1.1,5.531,5.531,0,0,1-1.277.218c-.756-.109-1.083-1.017-1.162-1.779s-.127-1.652-.75-2.094a2.9,2.9,0,0,0-2.07-.163c-.7.067-1.61-.139-1.755-.835a1.4,1.4,0,0,1,.315-1.041,3.764,3.764,0,0,1,4.508-1.21,5.1,5.1,0,0,1,9.41-.526,5.174,5.174,0,0,1,8.169,2.3,3.752,3.752,0,0,1,3.958,5.658,3.576,3.576,0,0,1,1.815,2.935,2.036,2.036,0,0,1-2.421,1.967,2.082,2.082,0,0,1-3.7,1.894" transform="translate(-318.773 -32.549)" fill="#839eb6"/>
            </g>
            <path id="Trazado_110336" data-name="Trazado 110336" d="M363.978,58.6a1.374,1.374,0,0,1-.418,1.1,1.888,1.888,0,0,1-1.21.605,2,2,0,0,1-1.628-.563h.248a5.846,5.846,0,0,1-1.21,1.386,3.22,3.22,0,0,1-1.089.605,2.566,2.566,0,0,1-2.8-.992,3.37,3.37,0,0,1-.405-1.21,1.131,1.131,0,0,1,0-.472s.067.157.151.442a3.838,3.838,0,0,0,.478,1.132,2.372,2.372,0,0,0,3.486.254,5.9,5.9,0,0,0,1.174-1.3l.109-.163.139.139a1.749,1.749,0,0,0,1.374.514,1.688,1.688,0,0,0,1.077-.5,2.693,2.693,0,0,0,.526-.974Z" transform="translate(-329.067 -41.049)" fill="#fff"/>
            <path id="Trazado_110337" data-name="Trazado 110337" d="M342.246,34.16a2.916,2.916,0,0,0-.418.127,1.985,1.985,0,0,0-.944.72l-.073.109-.091-.109a7.261,7.261,0,0,0-2.7-2.421,5.549,5.549,0,0,0-2.257-.605,4.678,4.678,0,0,0-2.493.575,4.841,4.841,0,0,0-1.531,1.319,3.934,3.934,0,0,0-.726,1.719l-.03.182-.169-.061a3.274,3.274,0,0,0-2.421.175A3.165,3.165,0,0,0,327,37.24a4.357,4.357,0,0,0-.448,1.7,1.21,1.21,0,0,1-.048-.478,3.286,3.286,0,0,1,.327-1.307,3.353,3.353,0,0,1,1.44-1.495,3.5,3.5,0,0,1,2.644-.236l-.206.127a4.236,4.236,0,0,1,.781-1.876,5.035,5.035,0,0,1,1.64-1.416,4.974,4.974,0,0,1,2.669-.605,5.858,5.858,0,0,1,2.378.678,7.129,7.129,0,0,1,2.711,2.554h-.169a1.942,1.942,0,0,1,1.059-.708.853.853,0,0,1,.466-.018Z" transform="translate(-317.64 -30.406)" fill="#fff"/>
            <path id="Trazado_110338" data-name="Trazado 110338" d="M341.13,86.575c-.091,0-.1-.605-.563-1.144s-1.059-.647-1.047-.744.163-.079.43,0a1.682,1.682,0,0,1,.871.551,1.652,1.652,0,0,1,.4.944C341.238,86.424,341.172,86.581,341.13,86.575Z" transform="translate(-322.781 -51.324)" fill="#ff9a6c"/>
            <path id="Trazado_110339" data-name="Trazado 110339" d="M342.38,84.761c-.085.048-.284-.163-.605-.315s-.605-.206-.605-.3.357-.206.756,0S342.465,84.731,342.38,84.761Z" transform="translate(-323.432 -51.089)" fill="#ff9a6c"/>
            <path id="Trazado_110340" data-name="Trazado 110340" d="M353.19,104.95c0-.03.085-.042.157-.145a.508.508,0,0,0,.042-.514c-.085-.224-.339-.43-.5-.817a.738.738,0,0,1,.036-.672,3.861,3.861,0,0,1,.4-.478c.472-.557-.823-1.017-.605-1.749a.92.92,0,0,1,.339-.605c.139-.1.236-.1.242-.085a1.162,1.162,0,0,0-.345.708.96.96,0,0,0,.4.708,1.477,1.477,0,0,1,.369.5.72.72,0,0,1-.115.726c-.145.188-.3.309-.381.442a.436.436,0,0,0-.036.405c.1.29.351.539.436.841a.605.605,0,0,1-.176.684C353.293,105,353.184,104.962,353.19,104.95Z" transform="translate(-327.985 -57.348)" fill="#ff9a6c"/>
            <path id="Trazado_110341" data-name="Trazado 110341" d="M356.053,104.631c-.03,0,0-.085-.067-.212a2.046,2.046,0,0,0-.3-.5,2.186,2.186,0,0,1-.23-.381.829.829,0,0,1-.061-.575c.115-.411.472-.654.641-.95s.048-.545-.188-.811a1.573,1.573,0,0,1-.3-.442,1.017,1.017,0,0,1-.067-.472c.073-.605.49-.762.484-.72a1.482,1.482,0,0,0-.248.726.986.986,0,0,0,.357.708,1.488,1.488,0,0,1,.339.49.811.811,0,0,1-.091.69c-.248.381-.557.605-.635.865a.968.968,0,0,0,.194.744,1.434,1.434,0,0,1,.23.605C356.119,104.558,356.071,104.667,356.053,104.631Z" transform="translate(-329.038 -57.223)" fill="#ff9a6c"/>
          </g>
          <g id="Grupo_60022" data-name="Grupo 60022" transform="translate(29.289 46.742)">
            <path id="Trazado_110342" data-name="Trazado 110342" d="M374.238,177.746l7.709,7.425-2.493-14.2L395.1,166s4.151,19.491,4.871,24.1c1.3,8.272-.29,20.03-8,20.853-8.339.9-14.638-7.328-18.644-12.708-3.08-4.145-8.054-11.4-8.054-11.4l8.968-9.107" transform="translate(-307.215 -130.2)" fill="#839eb6"/>
            <path id="Trazado_110343" data-name="Trazado 110343" d="M276.78,164.54c-2.511,7.9-6.021,9.077-7.407,31.733-.266,4.411.684,10.287,4.871,11.727,4.653,1.579,11.77-1.3,14-5.119V187.293Z" transform="translate(-269.332 -129.624)" fill="#839eb6"/>
            <path id="Trazado_110344" data-name="Trazado 110344" d="M296.377,215.058a33.747,33.747,0,0,0-1.543-3.328,33.012,33.012,0,0,0-2.124-2.989,3.353,3.353,0,0,1,.811.732,11.872,11.872,0,0,1,1.555,2.118,12.284,12.284,0,0,1,1.071,2.421A3.431,3.431,0,0,1,296.377,215.058Z" transform="translate(-278.563 -147.077)" fill="#344154"/>
            <path id="Trazado_110345" data-name="Trazado 110345" d="M275.39,157.236c.133-.466,7.867-21.476,10.287-26.075,2.947-5.5,9.144-7.933,12.986-8.169s44.979,3.026,44.979,3.026,11.5,2.9,13.858,13.313c2.923,13.071,5.277,25.966,5.277,25.966l-20.623,4.454-2.421-6.112-38.729,8.647-9.452-13.973Z" transform="translate(-271.724 -113.213)" fill="#839eb6"/>
            <g id="Grupo_60019" data-name="Grupo 60019" transform="translate(18.776)">
              <path id="Trazado_110346" data-name="Trazado 110346" d="M356.244,120.855l-16.066-7.08-1.8-6.935-18.759,8.871-3.927-4.339-1.646,4.889-4.109,1.343-8.091,15.945L300.36,170.5l.139,9.6,55.436.369-.454-15.715Z" transform="translate(-300.36 -106.84)" fill="#839eb6"/>
              <path id="Trazado_110347" data-name="Trazado 110347" d="M350.949,106.84a46.757,46.757,0,0,0-7.486,3.486c-5.277,2.814-11.274,5.386-11.274,5.386l.454,8.472,19.969-10.021" transform="translate(-312.929 -106.84)" fill="#839eb6"/>
              <path id="Trazado_110348" data-name="Trazado 110348" d="M324.61,114.33l3.927,4.339-2.1,9.077-3.5-8.206" transform="translate(-309.276 -109.798)" fill="#839eb6"/>
              <g id="Grupo_60018" data-name="Grupo 60018" transform="translate(17.924 8.181)" opacity="0.3">
                <path id="Trazado_110349" data-name="Trazado 110349" d="M331.245,121.988c-.176.127-1.265,10.475-1.265,10.475l20.006-12.1L331.771,129.5Z" transform="translate(-329.98 -120.36)" fill="#d9a171"/>
              </g>
            </g>
            <path id="Trazado_110350" data-name="Trazado 110350" d="M325.172,193.212s-.411-15.34-.048-24.956c.3-7.915-.944-28.108-.944-28.108l-2.608-.418a294.815,294.815,0,0,0-6.693,43.678l-.738,9.737" transform="translate(-287.025 -119.827)" fill="#d9a171"/>
            <path id="Trazado_110351" data-name="Trazado 110351" d="M384.86,160.84a4.234,4.234,0,0,1,.188.817c.1.605.242,1.337.405,2.245.339,1.949.781,4.545,1.277,7.419s.938,5.531,1.21,7.437c.145.95.254,1.725.321,2.257a4.466,4.466,0,0,1,.079.835,4.642,4.642,0,0,1-.182-.817c-.109-.605-.242-1.337-.411-2.245-.339-1.949-.793-4.545-1.295-7.419s-.914-5.531-1.21-7.437c-.127-.914-.236-1.676-.321-2.257A5.3,5.3,0,0,1,384.86,160.84Z" transform="translate(-314.95 -128.163)" fill="#344154"/>
            <path id="Trazado_110352" data-name="Trazado 110352" d="M390.8,132c.03.036-.539.484-1.349,1.319a16.441,16.441,0,0,0-4.236,7.867c-.248,1.138-.3,1.864-.357,1.858a1.816,1.816,0,0,1,0-.508,9.5,9.5,0,0,1,.163-1.386,14.742,14.742,0,0,1,4.3-7.988,10.549,10.549,0,0,1,1.059-.9C390.637,132.1,390.789,132,390.8,132Z" transform="translate(-314.942 -116.775)" fill="#344154"/>
            <path id="Trazado_110353" data-name="Trazado 110353" d="M329.822,127.736l-1.785-.7-1.694,2.9-.3,4.774,2.384.381,1.791-2.947Z" transform="translate(-291.724 -114.816)" fill="#d9a171"/>
            <path id="Trazado_110354" data-name="Trazado 110354" d="M300.269,151.65c.079,0,.139,10.33.139,23.074s-.061,23.068-.139,23.068-.139-10.324-.139-23.068S300.191,151.65,300.269,151.65Z" transform="translate(-281.493 -124.534)" fill="#344154"/>
            <path id="Trazado_110355" data-name="Trazado 110355" d="M328.674,121.38a19.778,19.778,0,0,1-1.017,1.725c-.635,1.059-1.47,2.548-2.275,4.236-.061.139-.127.278-.188.405l-.127.272-.121-.266a31.873,31.873,0,0,1-1.67-4.236c-.175-.551-.3-1-.375-1.313a1.616,1.616,0,0,1-.091-.49,18.452,18.452,0,0,1,.641,1.743c.393,1.077.974,2.566,1.743,4.169h-.254l.194-.411a35.552,35.552,0,0,1,2.354-4.236,13.271,13.271,0,0,1,.841-1.21A1.937,1.937,0,0,1,328.674,121.38Z" transform="translate(-290.449 -112.581)" fill="#344154"/>
            <path id="Trazado_110356" data-name="Trazado 110356" d="M352.759,118.3a1.883,1.883,0,0,1-.272.163l-.811.424-2.983,1.543c-2.511,1.307-5.961,3.171-9.779,5.216-2.324,1.21-4.526,2.384-6.439,3.34l-.182.091v-.194c0-2.487-.042-4.581-.061-6.094v-1.719a4.353,4.353,0,0,1,0-.605,3.025,3.025,0,0,1,.048.605c0,.43.042,1,.067,1.713.042,1.513.1,3.631.163,6.094l-.182-.109c1.906-.974,4.1-2.13,6.427-3.371,3.812-2.039,7.262-3.879,9.815-5.144,1.271-.605,2.306-1.132,3.026-1.464l.835-.375A1.059,1.059,0,0,1,352.759,118.3Z" transform="translate(-294.165 -111.365)" fill="#344154"/>
            <path id="Trazado_110357" data-name="Trazado 110357" d="M302.832,129.08c.042,0-.272.557-.678,1.464a16.41,16.41,0,0,0-1.144,3.679,16.71,16.71,0,0,0-.242,3.849c.054.992.157,1.6.115,1.61a1.506,1.506,0,0,1-.127-.418,9.023,9.023,0,0,1-.182-1.174,14.129,14.129,0,0,1,.157-3.915,13.96,13.96,0,0,1,1.247-3.716,9.152,9.152,0,0,1,.605-1.029C302.723,129.195,302.814,129.074,302.832,129.08Z" transform="translate(-281.641 -115.622)" fill="#344154"/>
            <path id="Trazado_110358" data-name="Trazado 110358" d="M328.034,140.088c-.042.067-.5-.145-1.017-.472s-.9-.647-.859-.714.49.151,1.011.478S328.076,140.022,328.034,140.088Z" transform="translate(-291.769 -119.496)" fill="#344154"/>
            <path id="Trazado_110359" data-name="Trazado 110359" d="M329.266,135.714a12.556,12.556,0,0,1-1.21-2.421,12.921,12.921,0,0,1-.956-2.523,13.192,13.192,0,0,1,1.21,2.421A13.718,13.718,0,0,1,329.266,135.714Z" transform="translate(-292.142 -116.289)" fill="#344154"/>
            <g id="Grupo_60020" data-name="Grupo 60020" transform="translate(4.64 50.081)" opacity="0.3">
              <path id="Trazado_110360" data-name="Trazado 110360" d="M320.781,201.206a1.779,1.779,0,0,0-.605-1.168c-.666-.436-1.495.133-2.172.539-1.815,1.065-4,1.029-6.051.938a152.864,152.864,0,0,1-18.729-1.779,28.4,28.4,0,0,1-8.793-2.62,11.787,11.787,0,0,1-5.942-6.729L277,189.6c1.12,2.421,1,9.174,1.41,11.788s1.561,4.478,4.079,5.289a8.775,8.775,0,0,0,3.159.224c10.318-.514,20.726-.048,31.043-.557,1.477-.073,3.177-.272,3.97-1.519C321.338,203.76,321.072,202.411,320.781,201.206Z" transform="translate(-277 -189.6)" fill="#d9a171"/>
            </g>
            <path id="Trazado_110361" data-name="Trazado 110361" d="M394.188,205.3a.678.678,0,0,1-.067-.121l-.188-.363c-.085-.163-.182-.363-.3-.605a7.556,7.556,0,0,0-.508-.762,27.674,27.674,0,0,0-4-4.351c-1.87-1.713-4.236-3.631-6.9-5.852-1.319-1.113-2.729-2.275-4.145-3.576a39.932,39.932,0,0,1-4.157-4.327h.2l-8.018,8.423-1.071,1.119v-.175c3.026,4.442,5.8,8.738,8.708,12.345a58.884,58.884,0,0,0,4.369,4.883,36.312,36.312,0,0,0,4.236,3.782c2.778,2.1,5.567,3.026,7.5,2.953h.684l.605-.067.508-.054.418-.091.569-.127.194-.03a.787.787,0,0,1-.188.061l-.563.151-.418.1-.514.073-.605.073h-.69a12.854,12.854,0,0,1-7.619-2.9,36.1,36.1,0,0,1-4.3-3.782,58.194,58.194,0,0,1-4.405-4.883c-2.929-3.631-5.7-7.909-8.732-12.345l-.067-.091.079-.079,1.071-1.126,8.042-8.393.109-.109.1.121a38.79,38.79,0,0,0,4.115,4.3c1.4,1.3,2.808,2.475,4.121,3.588,2.651,2.221,5.01,4.169,6.862,5.906a26.2,26.2,0,0,1,3.964,4.424l.5.775c.109.242.206.442.284.605l.163.375a.478.478,0,0,1,.054.145Z" transform="translate(-307.001 -137.727)" fill="#344154"/>
            <g id="Grupo_60021" data-name="Grupo 60021" transform="translate(59.024 59.315)" opacity="0.3">
              <path id="Trazado_110362" data-name="Trazado 110362" d="M367.747,205.126l-.877-.266a52.779,52.779,0,0,0,5.283,14.311h6.293C376.026,216.206,367.747,205.126,367.747,205.126Z" transform="translate(-366.87 -204.86)" fill="#d9a171"/>
            </g>
          </g>
          <g id="Grupo_60025" data-name="Grupo 60025" transform="translate(28.344 80.212)">
            <g id="Grupo_60023" data-name="Grupo 60023" transform="translate(34.644)">
              <path id="Trazado_110363" data-name="Trazado 110363" d="M357.11,177.448,344.4,163.6,336.8,162.15l-8.611,1.12a1.852,1.852,0,0,0,1.1,2.094l-3.189.182a1.815,1.815,0,0,0,1.21,2.372l-2.281.4a3.274,3.274,0,0,0,3.558,1.876,49.681,49.681,0,0,1,6.741-.454l4.466,2.463-6.656-.272-4.841.908s-.605,1.21.46,1.531a28.406,28.406,0,0,0,5.283,0l6.051,1.912s2.36,3.346,3.177,4.236,4.738,2.6,4.738,2.6l1.93,1.725Z" transform="translate(-325.02 -162.15)" fill="#ffbf9d"/>
              <path id="Trazado_110364" data-name="Trazado 110364" d="M326.79,166.828a11.772,11.772,0,0,0,2.481-.091c1.519-.115,3.631-.315,5.942-.569l2.227-.248h-.1c1.731.484,3.225.89,4.3,1.156a7.425,7.425,0,0,0,1.731.351,7.4,7.4,0,0,0-1.646-.641c-1.047-.345-2.529-.811-4.236-1.325H337.4l-2.227.23c-2.318.254-4.411.508-5.93.714A12.43,12.43,0,0,0,326.79,166.828Z" transform="translate(-325.719 -163.457)" fill="#ff9a6c"/>
              <path id="Trazado_110365" data-name="Trazado 110365" d="M325.88,171.082a9.683,9.683,0,0,0,2.245-.151c1.38-.157,3.28-.405,5.374-.714l2.082-.315h-.121a40.048,40.048,0,0,0,5.246,1.846,38.42,38.42,0,0,0-5.071-2.287h-.121l-2.088.3c-2.094.3-3.982.605-5.349.853a10.649,10.649,0,0,0-2.2.472Z" transform="translate(-325.36 -165.036)" fill="#ff9a6c"/>
            </g>
            <g id="Grupo_60024" data-name="Grupo 60024" transform="translate(0 0.46)">
              <path id="Trazado_110366" data-name="Trazado 110366" d="M272.469,166.341l6.427,24.3a3.026,3.026,0,0,0,2.983,2.245l33.282-.654a3.026,3.026,0,0,0,2.9-3.631l-4.908-23.267a3.026,3.026,0,0,0-2.953-2.421H275.1a2.723,2.723,0,0,0-2.632,3.431Z" transform="translate(-269.588 -162.91)" fill="#344154"/>
              <path id="Trazado_110367" data-name="Trazado 110367" d="M306.849,178.964a1.628,1.628,0,1,1-2.348.647A1.725,1.725,0,0,1,306.849,178.964Z" transform="translate(-282.207 -169.161)" fill="#fff"/>
              <path id="Trazado_110368" data-name="Trazado 110368" d="M268.23,174.835a2.172,2.172,0,0,1,0-2.675,3.31,3.31,0,0,1,2.535-1.21,7.219,7.219,0,0,1,2.82.605,17.96,17.96,0,0,1,3.2,1.6,3.064,3.064,0,0,1,1.6,1.864c.145.835-.769,1.779-1.5,1.362a3.516,3.516,0,0,1,2.063,2.457c.157,1.053-.405,1.622-1.428,1.924a1.585,1.585,0,0,1,.92,2.027,1.824,1.824,0,0,1-2.281.7,5.337,5.337,0,0,1-1.991-1.67,4.877,4.877,0,0,1,.569,3.34,6.529,6.529,0,0,1-4.272-5.247,3.026,3.026,0,0,1-.823-3.709,3.129,3.129,0,0,1-1.864-2.62" transform="translate(-267.769 -166.085)" fill="#ffbf9d"/>
              <path id="Trazado_110369" data-name="Trazado 110369" d="M279.277,185.62a10.088,10.088,0,0,1-.974-.744,6.451,6.451,0,0,0-2.566-1.313,3.546,3.546,0,0,0-1.555,0,2.941,2.941,0,0,0-1.144.569,3.577,3.577,0,0,0-.738.938.672.672,0,0,1,.085-.327,2.336,2.336,0,0,1,.539-.744,2.941,2.941,0,0,1,1.21-.654,3.522,3.522,0,0,1,1.67,0,6,6,0,0,1,2.62,1.416A4.751,4.751,0,0,1,279.277,185.62Z" transform="translate(-269.558 -170.939)" fill="#ff9a6c"/>
              <path id="Trazado_110370" data-name="Trazado 110370" d="M278.389,178.933a5.282,5.282,0,0,1-1.18-.5c-.357-.169-.775-.375-1.259-.551a11.1,11.1,0,0,0-1.622-.418,4.841,4.841,0,0,0-1.64,0,2.965,2.965,0,0,0-1.21.533,3.116,3.116,0,0,0-.8.95.744.744,0,0,1,.1-.339,2.13,2.13,0,0,1,.605-.75,3.026,3.026,0,0,1,1.277-.605,4.618,4.618,0,0,1,1.731,0,9.573,9.573,0,0,1,1.658.448,9.833,9.833,0,0,1,1.259.605A8.933,8.933,0,0,1,278.389,178.933Z" transform="translate(-268.919 -168.543)" fill="#ff9a6c"/>
            </g>
          </g>
        </g>
        <g id="Grupo_60029" data-name="Grupo 60029" transform="translate(81.535 26.05)">
          <g id="Grupo_60027" data-name="Grupo 60027">
            <path id="Trazado_110371" data-name="Trazado 110371" d="M231.4,83.047l-8.127-.182a18.959,18.959,0,1,0,2,6.481h0Z" transform="translate(-187.489 -72.648)" fill="#fafafa"/>
            <path id="Trazado_110372" data-name="Trazado 110372" d="M231.4,83.045,225.354,89.4l-.067.061-.03-.085h.115a19.564,19.564,0,0,1,0,4.545,19.14,19.14,0,0,1-1.392,5.216,16.943,16.943,0,0,1-1.41,2.644c-.284.43-.569.871-.877,1.307l-1.029,1.247a19.08,19.08,0,0,1-20.5,5.253,19.292,19.292,0,0,1-7.11-4.514,18.656,18.656,0,0,1-4.6-7.473l-.333-1.1c-.115-.369-.163-.75-.248-1.119a7.9,7.9,0,0,1-.2-1.119l-.121-1.132a8.712,8.712,0,0,1-.048-1.126c0-.375,0-.744,0-1.119s.061-.744.1-1.113a8.3,8.3,0,0,1,.133-1.1,19.292,19.292,0,0,1,3.231-7.951,18.681,18.681,0,0,1,5.967-5.5,19.189,19.189,0,0,1,14.1-2.039,20.459,20.459,0,0,1,5.7,2.421,18.6,18.6,0,0,1,4.085,3.522,19.055,19.055,0,0,1,2.523,3.716H223.3l8.127.242-8.127-.127h-.036v-.03a19.013,19.013,0,0,0-2.529-3.679,18.613,18.613,0,0,0-4.066-3.473A20.169,20.169,0,0,0,211,73.35,19.056,19.056,0,0,0,197.082,75.4a18.541,18.541,0,0,0-5.894,5.446A19.249,19.249,0,0,0,188,88.709a9.225,9.225,0,0,0-.127,1.089c-.03.363-.067.732-.1,1.1s0,.738,0,1.113a7.549,7.549,0,0,0,.054,1.107l.115,1.119a6.387,6.387,0,0,0,.2,1.1,8.826,8.826,0,0,0,.242,1.107l.333,1.083a18.42,18.42,0,0,0,4.538,7.383,19.134,19.134,0,0,0,7.026,4.466,18.68,18.68,0,0,0,7.818,1,18.91,18.91,0,0,0,12.466-6.16l1.017-1.21c.309-.43.605-.865.877-1.289a16.943,16.943,0,0,0,1.4-2.62,18.8,18.8,0,0,0,1.4-5.168,19.42,19.42,0,0,0,0-4.514l-.054-.436.163.411h-.1Z" transform="translate(-187.496 -72.646)" fill="#344154"/>
          </g>
          <g id="Grupo_60028" data-name="Grupo 60028" transform="translate(9.556 16.56)">
            <path id="Trazado_110373" data-name="Trazado 110373" d="M207.129,101.938a1.924,1.924,0,1,1-1.924-1.918,1.924,1.924,0,0,1,1.924,1.918Z" transform="translate(-203.28 -100.015)" fill="#344154"/>
            <path id="Trazado_110374" data-name="Trazado 110374" d="M219.839,101.938a1.924,1.924,0,1,1-1.924-1.918,1.924,1.924,0,0,1,1.924,1.918Z" transform="translate(-208.299 -100.015)" fill="#344154"/>
            <path id="Trazado_110375" data-name="Trazado 110375" d="M232.658,100.973a1.918,1.918,0,1,1-1.167-.9,1.924,1.924,0,0,1,1.167.9Z" transform="translate(-213.463 -100.011)" fill="#344154"/>
          </g>
        </g>
        <g id="Grupo_60043" data-name="Grupo 60043" transform="translate(0 131.794)">
          <g id="Grupo_60031" data-name="Grupo 60031" transform="translate(0 29.416)">
            <g id="Grupo_60030" data-name="Grupo 60030">
              <rect id="Rectángulo_8893" data-name="Rectángulo 8893" width="146.17" height="108.561" transform="translate(0.145 0.157)" fill="#fff"/>
              <path id="Trazado_110376" data-name="Trazado 110376" d="M199.065,404.718c0-1.132-.054-42.843-.139-108.561l.139.139-146.164.03h0l.163-.169V404.718l-.151-.151,146.17.151L52.9,404.869H52.75V296H52.9l146.158.03h.133v.133C199.12,361.875,199.065,403.587,199.065,404.718Z" transform="translate(-52.75 -296)" fill="#344154"/>
            </g>
            <path id="Trazado_110377" data-name="Trazado 110377" d="M199.164,319.989c0,.091-32.732.169-73.094.169S53,320.08,53,319.989s32.72-.169,73.1-.169S199.164,319.929,199.164,319.989Z" transform="translate(-52.849 -305.406)" fill="#839eb6"/>
            <circle id="Elipse_4282" data-name="Elipse 4282" cx="2.148" cy="2.148" r="2.148" transform="translate(4.181 4.514)" fill="#839eb6"/>
            <circle id="Elipse_4283" data-name="Elipse 4283" cx="2.148" cy="2.148" r="2.148" transform="translate(10.662 4.514)" fill="#839eb6"/>
            <circle id="Elipse_4284" data-name="Elipse 4284" cx="2.148" cy="2.148" r="2.148" transform="translate(17.143 4.514)" fill="#839eb6"/>
          </g>
          <g id="Grupo_60042" data-name="Grupo 60042" transform="translate(16.587)">
            <path id="Trazado_110378" data-name="Trazado 110378" d="M267.94,433.982s3.564-4.666,5.24-4.841,12.175.182,13.652,0,9.779-3.691,9.779-3.691,1.477.5,1.289,1.815-9.41,6.3-10.511,6.487-9.96.835-9.96.835L275.2,438.6Z" transform="translate(-154.308 -317.7)" fill="#b8695e"/>
            <g id="Grupo_60037" data-name="Grupo 60037" transform="translate(45.253 33.95)">
              <path id="Trazado_110379" data-name="Trazado 110379" d="M211.853,334.675a5.591,5.591,0,0,0,.89-9.682l-6.475-2.172q-1.41,12.532-2.977,25.052a9.487,9.487,0,0,0,4.968-1.374,4.231,4.231,0,0,0,1.846-4.52,4.424,4.424,0,0,0,1.749-7.262Z" transform="translate(-174.033 -311.125)" fill="#344154"/>
              <g id="Grupo_60035" data-name="Grupo 60035" transform="translate(3.832 14.098)">
                <g id="Grupo_60034" data-name="Grupo 60034">
                  <path id="Trazado_110380" data-name="Trazado 110380" d="M163.529,331.341l.242-2.977,18.154-1.573c5.561,0,10.941,6.1,10.729,11.655-.242,6.172-.775,13.7-1.973,18.2-2.421,9.047-9.567,9.5-9.567,9.5l-.641,9.119c-.478,5.319-5.071,6.051-10.384,5.555h0a9.682,9.682,0,0,1-8.8-10.178Z" transform="translate(-161.275 -326.79)" fill="#b8695e"/>
                  <g id="Grupo_60032" data-name="Grupo 60032" transform="translate(24.39 13.861)">
                    <path id="Trazado_110381" data-name="Trazado 110381" d="M206.834,356.075a1.21,1.21,0,0,1-1.259,1.071,1.132,1.132,0,0,1-1.107-1.21,1.21,1.21,0,0,1,1.259-1.077,1.144,1.144,0,0,1,1.107,1.216Z" transform="translate(-202.72 -351.734)" fill="#344154"/>
                    <path id="Trazado_110382" data-name="Trazado 110382" d="M206.234,351.2c-.157.139-.986-.605-2.257-.738s-2.263.411-2.384.242c-.061-.073.115-.339.551-.605a3.244,3.244,0,0,1,1.93-.381,3.1,3.1,0,0,1,1.779.781C206.21,350.848,206.312,351.138,206.234,351.2Z" transform="translate(-201.581 -349.696)" fill="#344154"/>
                  </g>
                  <g id="Grupo_60033" data-name="Grupo 60033" transform="translate(11.882 12.818)">
                    <path id="Trazado_110383" data-name="Trazado 110383" d="M187.234,354.839a1.21,1.21,0,0,1-1.259,1.077,1.132,1.132,0,0,1-1.107-1.21,1.21,1.21,0,0,1,1.259-1.077,1.132,1.132,0,0,1,1.107,1.21Z" transform="translate(-182.472 -350.205)" fill="#344154"/>
                    <path id="Trazado_110384" data-name="Trazado 110384" d="M185.57,349.484c-.163.139-.992-.605-2.257-.744s-2.269.418-2.39.248c-.061-.079.115-.339.551-.605a3.249,3.249,0,0,1,1.912-.393,3.147,3.147,0,0,1,1.779.781C185.546,349.127,185.649,349.423,185.57,349.484Z" transform="translate(-180.911 -347.972)" fill="#344154"/>
                  </g>
                  <path id="Trazado_110385" data-name="Trazado 110385" d="M194.64,359.88a8.176,8.176,0,0,1,2.1-.163c.327,0,.641-.036.714-.248a1.67,1.67,0,0,0-.115-.986l-.708-2.566a43.282,43.282,0,0,1-1.495-6.656,44.478,44.478,0,0,1,2.027,6.5l.666,2.578a1.87,1.87,0,0,1,.036,1.289.811.811,0,0,1-.605.418,1.961,1.961,0,0,1-.557,0,8.3,8.3,0,0,1-2.064-.163Z" transform="translate(-174.45 -335.663)" fill="#344154"/>
                  <path id="Trazado_110386" data-name="Trazado 110386" d="M186.042,388.869a24.484,24.484,0,0,1-12.3-4.6s2.421,6.759,12.06,6.892Z" transform="translate(-166.197 -349.487)" fill="#925249"/>
                </g>
                <path id="Trazado_110387" data-name="Trazado 110387" d="M185.861,343.8c-.157.333-1.41.036-2.917.067s-2.753.309-2.923,0c-.073-.157.169-.46.69-.744a5.065,5.065,0,0,1,4.448-.036C185.686,343.34,185.934,343.643,185.861,343.8Z" transform="translate(-168.673 -333.029)" fill="#344154"/>
                <path id="Trazado_110388" data-name="Trazado 110388" d="M207.192,343.978c-.254.266-1.1-.127-2.148-.248s-1.967,0-2.136-.327c-.079-.151.091-.43.508-.66a2.965,2.965,0,0,1,1.815-.3,3.026,3.026,0,0,1,1.658.756C207.192,343.524,207.271,343.833,207.192,343.978Z" transform="translate(-177.707 -332.959)" fill="#344154"/>
              </g>
              <path id="Trazado_110389" data-name="Trazado 110389" d="M194.232,321.349a5.749,5.749,0,0,0,2.832-5.67,6.548,6.548,0,0,0-3.964-5.071,7.048,7.048,0,0,0-1.307-.387,5.961,5.961,0,0,0-2.778-1.107,3.11,3.11,0,0,0-2.106-2.657,7.406,7.406,0,0,0-3.552-.224,6.051,6.051,0,0,0-9.712-.563,4.932,4.932,0,0,0-7.576,2.281,4.938,4.938,0,0,0-3.679,1.289,4.877,4.877,0,0,0-.92,1.21,4.648,4.648,0,0,0-1.059,1.731,5.555,5.555,0,0,0-3.528,9.773,5.071,5.071,0,0,0,.284,8.133,6.5,6.5,0,0,0,0,5.113,3.189,3.189,0,0,0,1.47,1.676,1.265,1.265,0,0,0,.1.357c.46.92,1.858.684,2.723.127a11.212,11.212,0,0,0,4.194-6.051c.8-2.384,1.21-4.841,1.961-7.219a.522.522,0,0,1,.061-.169,6.747,6.747,0,0,1,1.6-2.62,17.277,17.277,0,0,0,2.064,1.64,7.358,7.358,0,0,0,8.69-.823,10.82,10.82,0,0,0,6.584,3.2,10.363,10.363,0,0,0,7.032-1.349,3.37,3.37,0,0,0,1.21-1.434A1.059,1.059,0,0,0,194.232,321.349Z" transform="translate(-154.942 -303.493)" fill="#344154"/>
              <path id="Trazado_110390" data-name="Trazado 110390" d="M161.726,354.262c-.115-.079-4.744-2.421-5.495,2.626s4.448,4.732,4.478,4.593S161.726,354.262,161.726,354.262Z" transform="translate(-155.422 -323.299)" fill="#b8695e"/>
              <path id="Trazado_110391" data-name="Trazado 110391" d="M160.294,360.385a1.489,1.489,0,0,1-.254.091.853.853,0,0,1-.654-.085,2.183,2.183,0,0,1-.714-2.088,2.862,2.862,0,0,1,.436-1.21,1.017,1.017,0,0,1,.756-.575.454.454,0,0,1,.478.321.388.388,0,0,1,0,.254c0,.012.121-.067.115-.278a.605.605,0,0,0-.151-.345.678.678,0,0,0-.466-.2,1.21,1.21,0,0,0-1.029.641,2.983,2.983,0,0,0-.514,1.355,2.291,2.291,0,0,0,.956,2.354.938.938,0,0,0,.817,0C160.269,360.506,160.312,360.4,160.294,360.385Z" transform="translate(-156.259 -324.333)" fill="#925249"/>
              <path id="Trazado_110392" data-name="Trazado 110392" d="M206.185,322.19a.817.817,0,0,1,0,.121,3.13,3.13,0,0,1,.042.375,3.861,3.861,0,0,1-1.489,3.25,3.988,3.988,0,0,1-2.82.8l.1-.067a8.744,8.744,0,0,1-2.6,4.133,6.759,6.759,0,0,1-2.421,1.41,5.525,5.525,0,0,1-2.947.085,9.978,9.978,0,0,1-2.717-1.029,7.721,7.721,0,0,1-2.16-1.676h.151a9.18,9.18,0,0,1-4.5,1.846,7.2,7.2,0,0,1-3.752-.762,7.485,7.485,0,0,1-2.033-1.483,5.551,5.551,0,0,1-.442-.508.653.653,0,0,1-.133-.188s.206.242.605.641a7.758,7.758,0,0,0,2.039,1.416,7.183,7.183,0,0,0,3.673.7,9.108,9.108,0,0,0,4.381-1.815l.085-.06.067.079a7.492,7.492,0,0,0,2.106,1.616,9.683,9.683,0,0,0,2.65,1,5.4,5.4,0,0,0,2.832-.079,6.608,6.608,0,0,0,2.336-1.355,8.617,8.617,0,0,0,2.566-4.018v-.079h.079a3.867,3.867,0,0,0,2.7-.738,3.752,3.752,0,0,0,1.289-1.749,4.03,4.03,0,0,0,.236-1.386A3.678,3.678,0,0,0,206.185,322.19Z" transform="translate(-164.233 -310.876)" fill="#5e6178"/>
              <path id="Trazado_110393" data-name="Trazado 110393" d="M163.41,317.47a10.836,10.836,0,0,0-.66,1.67,7.207,7.207,0,0,0,.242,4.581v.079l-.073.048a4.641,4.641,0,0,0-1.591,1.876,4.448,4.448,0,0,0-.375,2.675,4.69,4.69,0,0,0,1.815,2.941l.085.067-.054.085a5.882,5.882,0,0,0-.986,3.068,6.324,6.324,0,0,0,.418,2.535,6.886,6.886,0,0,0,1.21,1.961.778.778,0,0,1-.121-.1,3.551,3.551,0,0,1-.321-.333,5.538,5.538,0,0,1-.89-1.477,6.263,6.263,0,0,1-.478-2.59,5.918,5.918,0,0,1,.992-3.183v.151a4.877,4.877,0,0,1-1.906-3.086,4.647,4.647,0,0,1,.4-2.808,4.841,4.841,0,0,1,1.688-1.955l-.042.127a7.159,7.159,0,0,1-.163-4.69,6.8,6.8,0,0,1,.514-1.241c.079-.139.145-.236.188-.3S163.4,317.464,163.41,317.47Z" transform="translate(-157.197 -309.012)" fill="#5e6178"/>
              <path id="Trazado_110394" data-name="Trazado 110394" d="M159.045,365.483a3.806,3.806,0,0,0-.218.89,1.38,1.38,0,0,0,.248.9,1.113,1.113,0,0,0,1,.43.932.932,0,0,0,.732-.744,1.815,1.815,0,0,0-.048-.956,8.925,8.925,0,0,1-.321-.877,2.342,2.342,0,0,1,.472.823,1.815,1.815,0,0,1,.109,1.059,1.32,1.32,0,0,1-.29.605,1,1,0,0,1-.605.345,1.307,1.307,0,0,1-1.21-.533,1.458,1.458,0,0,1-.242-1.035A1.337,1.337,0,0,1,159.045,365.483Z" transform="translate(-156.409 -327.828)" fill="#344154"/>
              <g id="Grupo_60036" data-name="Grupo 60036" transform="translate(19.565 39.44)">
                <path id="Trazado_110395" data-name="Trazado 110395" d="M188.646,369.2a2.33,2.33,0,0,0,.375,3.806,1.392,1.392,0,0,0,.859.2c.52-.079.871-.557,1.168-.992s.484-.732.732-1.1a.405.405,0,0,0-.206-.714l-2.808-1.343" transform="translate(-187.493 -368.824)" fill="#925249"/>
                <path id="Trazado_110396" data-name="Trazado 110396" d="M189.626,372.894a2.808,2.808,0,0,1-1.307-.46,2.172,2.172,0,0,1-.974-1.21,1.664,1.664,0,0,1,0-.956,2.729,2.729,0,0,1,.436-.9,2.523,2.523,0,0,1,.72-.648l.1-.054.091.054c1.815,1.107,3.262,1.815,3.231,1.864a13.668,13.668,0,0,1-3.419-1.561h.188a2.359,2.359,0,0,0-.605.563,1.936,1.936,0,0,0-.418,1.543,1.961,1.961,0,0,0,.793,1.083C189.135,372.676,189.656,372.827,189.626,372.894Z" transform="translate(-187.274 -368.67)" fill="#344154"/>
              </g>
            </g>
            <g id="Grupo_60038" data-name="Grupo 60038" transform="translate(0 88.077)">
              <path id="Trazado_110397" data-name="Trazado 110397" d="M80.16,443.033s18.269-32.762,21.313-38.057c3.576-6.233,6.693-8.472,9.495-9.852a22.057,22.057,0,0,1,9.452-2.118l9.077-.067s3.437,5.15,8.109,6.16c6.439,1.392,11.255-3.383,11.255-3.383l13.022,5.331-2.614,24.06a35.419,35.419,0,0,1-6.426,16.8l-.859,1.12L104,442.991l5.567-17.313L99.276,443.033Z" transform="translate(-80.16 -392.94)" fill="#5e6178"/>
              <path id="Trazado_110398" data-name="Trazado 110398" d="M210.491,406.34s3.782,2.221,6.656,11.431,8.962,25.6,8.962,25.6l15.407-17.488,9.144,5.8s-14.753,25.615-17.1,28.647c-3.486,4.5-12.3,7.1-17.5,1.1-3.77-4.369-12.774-25.5-12.774-25.5Z" transform="translate(-128.78 -398.231)" fill="#5e6178"/>
              <path id="Trazado_110399" data-name="Trazado 110399" d="M203.161,428.41a1.494,1.494,0,0,1,.139.278c.085.182.212.454.345.817a24.474,24.474,0,0,1,.98,3.116,27.515,27.515,0,0,1-3.165,20.829,24.712,24.712,0,0,1-1.858,2.687c-.236.309-.442.526-.575.678s-.206.23-.218.224a9.775,9.775,0,0,1,.72-.98,30.623,30.623,0,0,0,1.755-2.729,28.538,28.538,0,0,0,3.141-20.653,30.929,30.929,0,0,0-.871-3.128,7.619,7.619,0,0,1-.393-1.138Z" transform="translate(-127.011 -406.946)" fill="#344154"/>
              <path id="Trazado_110400" data-name="Trazado 110400" d="M127.974,423.55a1.379,1.379,0,0,1,0,.333c-.036.26-.079.569-.127.95-.121.829-.315,2.015-.605,3.486-.539,2.929-1.4,6.953-2.614,11.34s-2.523,8.3-3.558,11.086c-.52,1.4-.962,2.517-1.283,3.286-.151.357-.272.648-.375.883a1.209,1.209,0,0,1-.151.3,1.108,1.108,0,0,1,.091-.327l.315-.9,1.21-3.322c.98-2.808,2.257-6.717,3.461-11.092s2.106-8.387,2.7-11.3c.284-1.422.514-2.59.69-3.455.073-.375.139-.69.188-.938A1.265,1.265,0,0,1,127.974,423.55Z" transform="translate(-95.599 -405.027)" fill="#344154"/>
            </g>
            <g id="Grupo_60040" data-name="Grupo 60040" transform="translate(9.428 134.992)">
              <g id="Grupo_60039" data-name="Grupo 60039">
                <path id="Trazado_110401" data-name="Trazado 110401" d="M95.74,473.616a14.559,14.559,0,0,1,2.6-2.82,2.533,2.533,0,0,1,2.56.03l.52.466s2.711-1.21,4.012-.284c0,0,2.578-1.21,3.812.175,0,0,1.985-1.289,2.826-.163a4.617,4.617,0,0,1,.345,4.012c-.405.986-1.168,4.327-1.761,4.387,0,0-1.579.163-1.815-.69s-.3-1.271-.3-1.271-.605,3.026-1.337,3.177-2.118.073-2.166-1.259c0,0-.672,1-1.337.714s-1.477-.775-1.4-1.6.085-1.646.085-1.646-.363,1.21-.962.938-1.21-.2-1.531-1.21-1.168-2.953-1.168-2.953Z" transform="translate(-95.74 -470.468)" fill="#b8695e"/>
                <path id="Trazado_110402" data-name="Trazado 110402" d="M105.99,477.259c-.036,0,.121-.333.26-.859a4.708,4.708,0,0,0-.75-4.024c-.315-.442-.605-.678-.545-.708s.321.157.7.605a4.3,4.3,0,0,1,.775,4.194A1.972,1.972,0,0,1,105.99,477.259Z" transform="translate(-99.375 -470.941)" fill="#925249"/>
                <path id="Trazado_110403" data-name="Trazado 110403" d="M111.621,471.39a4.091,4.091,0,0,1,.345,1.21,11.709,11.709,0,0,1,.182,3,11.552,11.552,0,0,1-.605,2.947,4.031,4.031,0,0,1-.5,1.132,21.422,21.422,0,0,0,.823-4.1,21.04,21.04,0,0,0-.242-4.187Z" transform="translate(-101.781 -470.832)" fill="#925249"/>
                <path id="Trazado_110404" data-name="Trazado 110404" d="M117.68,471.72a12.786,12.786,0,0,1-.726,6.318c-.073,0,.309-1.4.5-3.147S117.583,471.726,117.68,471.72Z" transform="translate(-104.113 -470.963)" fill="#925249"/>
              </g>
              <path id="Trazado_110405" data-name="Trazado 110405" d="M132.249,472.456a1.011,1.011,0,0,0-.678-.551,2.2,2.2,0,0,0-1.967.526,7.624,7.624,0,0,0-1.434,1.767h3.837C131.97,473.606,132.466,473.007,132.249,472.456Z" transform="translate(-108.546 -471.015)" fill="#b8695e"/>
            </g>
            <path id="Trazado_110406" data-name="Trazado 110406" d="M287.319,371.481a4.545,4.545,0,0,0-1.126-3.237,10.318,10.318,0,0,0-3.837-2.227A44.379,44.379,0,0,1,277.685,364a14.917,14.917,0,0,1-3.365-2.312,9.228,9.228,0,0,1-2.185-3.068,10.288,10.288,0,0,1-.781-4.194,9.313,9.313,0,0,1,2.681-6.88,11.316,11.316,0,0,1,7.128-3.129V339.1h3.964v5.386a10.354,10.354,0,0,1,6.88,3.667,11.988,11.988,0,0,1,2.487,7.867h-7.177a6.943,6.943,0,0,0-1.21-4.46,4.042,4.042,0,0,0-3.286-1.477,4.169,4.169,0,0,0-3.159,1.156,4.393,4.393,0,0,0-1.113,3.189,4.236,4.236,0,0,0,1.089,3.026,12.034,12.034,0,0,0,4.06,2.33,46.414,46.414,0,0,1,4.883,2.251,13.992,13.992,0,0,1,3.2,2.421,9.265,9.265,0,0,1,2.015,3.026,10.511,10.511,0,0,1,.7,3.964,9.258,9.258,0,0,1-2.638,6.856,11.557,11.557,0,0,1-7.262,3.1v4.938H280.65V381.4A10.968,10.968,0,0,1,270,369.647h7.177a6.607,6.607,0,0,0,1.4,4.532,5.125,5.125,0,0,0,4.036,1.573,4.9,4.9,0,0,0,3.449-1.156A4,4,0,0,0,287.319,371.481Z" transform="translate(-155.122 -283.603)" fill="#344154"/>
            <g id="Grupo_60041" data-name="Grupo 60041" transform="translate(113.13)">
              <rect id="Rectángulo_8894" data-name="Rectángulo 8894" width="5.349" height="37.119" transform="translate(15.231)" fill="#344154"/>
              <path id="Trazado_110407" data-name="Trazado 110407" d="M302.928,304.291,285.016,315.6l-17.906-11.31v-.121h35.818Z" transform="translate(-267.11 -269.811)" fill="#344154"/>
            </g>
          </g>
        </g>
        <g id="Grupo_60046" data-name="Grupo 60046" transform="translate(14.919 170.376)">
          <g id="Grupo_60044" data-name="Grupo 60044">
            <path id="Trazado_110408" data-name="Trazado 110408" d="M116.59,347.144l-4.012-7.068a18.959,18.959,0,1,0-4.538,5.047h0Z" transform="translate(-77.434 -311.156)" fill="#fafafa"/>
            <path id="Trazado_110409" data-name="Trazado 110409" d="M116.559,347.137l-8.575-1.955H107.9l.054-.073h0l.085.085a19.424,19.424,0,0,1-3.891,2.342,18.868,18.868,0,0,1-5.192,1.483,16.816,16.816,0,0,1-3.026.151c-.514-.03-1.041-.042-1.567-.085l-1.6-.242A18.994,18.994,0,0,1,77.988,325.5a18.589,18.589,0,0,1,4.066-7.782l.775-.853c.254-.284.557-.52.829-.781a7.787,7.787,0,0,1,.859-.75l.908-.678a7.485,7.485,0,0,1,.944-.605l.956-.605,1-.49a9.494,9.494,0,0,1,1.017-.454,19.3,19.3,0,0,1,8.472-1.3,18.621,18.621,0,0,1,7.782,2.281,19.225,19.225,0,0,1,8.98,11.056,20.454,20.454,0,0,1,.823,6.154,18.844,18.844,0,0,1-.926,5.313,19.158,19.158,0,0,1-1.9,4.073v-.061c2.529,4.538,3.77,6.753,3.964,7.1-.2-.345-1.47-2.542-4.06-7.044h0v-.03a18.984,18.984,0,0,0,1.858-4.054,18.632,18.632,0,0,0,.9-5.277,20.66,20.66,0,0,0-.835-6.094,19.074,19.074,0,0,0-8.914-10.892,18.5,18.5,0,0,0-7.7-2.263,19.11,19.11,0,0,0-8.381,1.3,8.129,8.129,0,0,0-1,.448l-.992.478-.95.605a6.805,6.805,0,0,0-.926.605l-.9.672c-.3.218-.563.5-.847.738a8.26,8.26,0,0,0-.823.775l-.762.841a18.42,18.42,0,0,0-3.988,7.667,19.141,19.141,0,0,0-.23,8.315,18.91,18.91,0,0,0,14.838,14.753l1.585.242c.52.048,1.041.061,1.555.091a16.563,16.563,0,0,0,2.971-.139,18.759,18.759,0,0,0,9.029-3.758l.351-.266-.272.351h0v-.091Z" transform="translate(-77.403 -311.148)" fill="#344154"/>
          </g>
          <g id="Grupo_60045" data-name="Grupo 60045" transform="translate(9.825 17.084)">
            <path id="Trazado_110410" data-name="Trazado 110410" d="M97.489,341.3a1.918,1.918,0,1,1-.562-1.362A1.924,1.924,0,0,1,97.489,341.3Z" transform="translate(-93.64 -339.38)" fill="#344154"/>
            <path id="Trazado_110411" data-name="Trazado 110411" d="M110.229,341.3a1.918,1.918,0,1,1-.56-1.36A1.924,1.924,0,0,1,110.229,341.3Z" transform="translate(-98.671 -339.38)" fill="#344154"/>
            <path id="Trazado_110412" data-name="Trazado 110412" d="M123.078,340.373a1.918,1.918,0,1,1-1.167-.9A1.924,1.924,0,0,1,123.078,340.373Z" transform="translate(-103.847 -339.392)" fill="#344154"/>
          </g>
        </g>
      </g>
    </g>
  </g>
</svg>
