<svg xmlns="http://www.w3.org/2000/svg" width="357.26" height="338.862" viewBox="0 0 357.26 338.862">
  <g id="Capa_2" data-name="Capa 2" transform="translate(-18.87 -44.855)">
    <g id="freepik--background-complete--inject-32" transform="translate(38.806 44.855)">
      <rect id="Rectángulo_8600" data-name="Rectángulo 8600" width="19.337" height="20.512" transform="matrix(1, -0.005, 0.005, 1, 207.175, 55.84)" fill="#ebebeb"/>
      <rect id="Rectángulo_8601" data-name="Rectángulo 8601" width="19.337" height="20.512" transform="matrix(1, -0.005, 0.005, 1, 226.418, 55.744)" fill="#f5f5f5"/>
      <path id="Trazado_106989" data-name="Trazado 106989" d="M312.718,124.28c12.853.108,25.736,0,38.581-.178a.209.209,0,0,0,.162-.247.193.193,0,0,0-.162-.162c-12.853-.07-25.736,0-38.581.232a.178.178,0,1,0,0,.356Z" transform="translate(-105.512 -62.757)" fill="#e0e0e0"/>
      <rect id="Rectángulo_8602" data-name="Rectángulo 8602" width="35.134" height="16.717" transform="matrix(1, -0.005, 0.005, 1, 195.121, 76.386)" fill="#ebebeb"/>
      <rect id="Rectángulo_8603" data-name="Rectángulo 8603" width="35.134" height="16.717" transform="matrix(1, -0.005, 0.005, 1, 230.091, 76.197)" fill="#f5f5f5"/>
      <path id="Trazado_106990" data-name="Trazado 106990" d="M297.11,149.478c23.34.263,46.765,0,70.106-.348a.209.209,0,0,0,.162-.247.193.193,0,0,0-.162-.162c-23.34-.124-46.765-.108-70.1.4a.178.178,0,1,0,0,.356Z" transform="translate(-101.969 -68.433)" fill="#e0e0e0"/>
      <rect id="Rectángulo_8604" data-name="Rectángulo 8604" width="136.115" height="5.99" transform="translate(182.003 92.831)" fill="#ebebeb"/>
      <rect id="Rectángulo_8605" data-name="Rectángulo 8605" width="5.526" height="20.434" transform="translate(204.292 95.706)" fill="#ebebeb"/>
      <rect id="Rectángulo_8606" data-name="Rectángulo 8606" width="5.526" height="20.434" transform="translate(286.779 95.706)" fill="#ebebeb"/>
      <path id="Trazado_106991" data-name="Trazado 106991" d="M371.78,113.86h71.705s-.734,29.6-19.986,33.233l-.3,6.283H390.9v-6.392S371.78,142.069,371.78,113.86Z" transform="translate(-118.968 -60.529)" fill="#e0e0e0"/>
      <path id="Trazado_106992" data-name="Trazado 106992" d="M429.09,156.805c0,.108-7.319.185-16.346.185s-16.354-.077-16.354-.185,7.319-.185,16.354-.185S429.09,156.69,429.09,156.805Z" transform="translate(-124.558 -70.242)" fill="#fff"/>
      <path id="Trazado_106993" data-name="Trazado 106993" d="M441.636,130.392l-.464.054-1.345.116a17.853,17.853,0,0,1-5.209-.255,10.472,10.472,0,0,1-3.509-1.4,7.984,7.984,0,0,1-2.975-3.346,5.919,5.919,0,0,1-.495-2.473,4.367,4.367,0,0,1,.858-2.558,3.091,3.091,0,0,1,1.121-.9,2.628,2.628,0,0,1,1.461-.193,3.478,3.478,0,0,1,2.4,1.762,4.7,4.7,0,0,1,.41,3.091,8.694,8.694,0,0,1-1.237,3.037,10.82,10.82,0,0,1-5.333,4.313,10.341,10.341,0,0,1-7.334-.077,11.028,11.028,0,0,1-3.323-2.025,7.512,7.512,0,0,1-2.264-3.316,3.687,3.687,0,0,1,0-2.087,2.782,2.782,0,0,1,1.314-1.669,3.424,3.424,0,0,1,3.988.912,7.528,7.528,0,0,1,1.669,3.949,12.026,12.026,0,0,1-.131,4.367,12.768,12.768,0,0,1-4.637,7.512,11.77,11.77,0,0,1-4.119,2.017,13.192,13.192,0,0,1-4.637.309,12.366,12.366,0,0,1-8.053-4.173,8.671,8.671,0,0,1-1.971-4.065,5.9,5.9,0,0,1,.912-4.343,4.436,4.436,0,0,1,3.787-2.079,4.135,4.135,0,0,1,3.524,2.319,3.091,3.091,0,0,1,.147,2.156,4.236,4.236,0,0,1-1.136,1.808,8.185,8.185,0,0,1-3.632,1.917,14.978,14.978,0,0,1-14.259-3.563,8.27,8.27,0,0,1-1.94-2.975,5.827,5.827,0,0,1-.193-3.408,4.853,4.853,0,0,1,1.762-2.767,4.2,4.2,0,0,1,3.045-.773,4.019,4.019,0,0,1,2.62,1.438,4.351,4.351,0,0,1,.966,2.666,4.158,4.158,0,0,1-.842,2.55,6.291,6.291,0,0,1-1.886,1.669,15.108,15.108,0,0,1-4.2,1.584,29.03,29.03,0,0,1-3.725.618,26.742,26.742,0,0,1-5.217,0,17.773,17.773,0,0,1-1.8-.278l.464.054c.3.039.773.093,1.345.147a26.9,26.9,0,0,0,8.888-.688,14.731,14.731,0,0,0,4.143-1.584,6.283,6.283,0,0,0,1.816-1.623,3.926,3.926,0,0,0,.773-2.411,4.026,4.026,0,0,0-.927-2.512,3.864,3.864,0,0,0-2.458-1.345,3.918,3.918,0,0,0-2.844.7,4.637,4.637,0,0,0-1.646,2.612,5.58,5.58,0,0,0,.2,3.238,7.892,7.892,0,0,0,1.87,2.852,14.684,14.684,0,0,0,13.911,3.455,7.991,7.991,0,0,0,3.486-1.832,3.764,3.764,0,0,0,1.036-1.654,2.8,2.8,0,0,0-.131-1.924,3.864,3.864,0,0,0-3.215-2.125,3.648,3.648,0,0,0-1.963.5,4.837,4.837,0,0,0-1.507,1.43,5.5,5.5,0,0,0-.85,4.073,8.292,8.292,0,0,0,1.893,3.864,11.918,11.918,0,0,0,7.814,4.042,12.768,12.768,0,0,0,4.5-.3,11.238,11.238,0,0,0,3.988-1.955,12.481,12.481,0,0,0,4.506-7.288,11.648,11.648,0,0,0,.131-4.235,7.188,7.188,0,0,0-1.546-3.764,3.092,3.092,0,0,0-3.563-.842,2.458,2.458,0,0,0-1.144,1.461,3.315,3.315,0,0,0,0,1.9,7.11,7.11,0,0,0,2.187,3.254,10.4,10.4,0,0,0,3.223,1.971,10.047,10.047,0,0,0,7.1.1,10.58,10.58,0,0,0,5.2-4.181,8.649,8.649,0,0,0,1.206-2.937,4.32,4.32,0,0,0-.371-2.929,3.246,3.246,0,0,0-2.21-1.646,2.419,2.419,0,0,0-1.322.17,2.975,2.975,0,0,0-1.036.819,4.135,4.135,0,0,0-.866,2.388,5.6,5.6,0,0,0,.464,2.38,7.782,7.782,0,0,0,2.883,3.277,10.155,10.155,0,0,0,3.439,1.414,18.719,18.719,0,0,0,5.17.317l1.352-.077Z" transform="translate(-119.87 -61.79)" fill="#fff"/>
      <rect id="Rectángulo_8607" data-name="Rectángulo 8607" width="104.158" height="143.388" transform="translate(10.213 0.058)" fill="#e0e0e0"/>
      <rect id="Rectángulo_8608" data-name="Rectángulo 8608" width="107.558" height="143.388" transform="translate(0.289 0.058)" fill="#ebebeb"/>
      <rect id="Rectángulo_8609" data-name="Rectángulo 8609" width="87.07" height="122.297" transform="translate(10.56 10.082)" fill="#fff"/>
      <path id="Trazado_106994" data-name="Trazado 106994" d="M58.33,206.711h87.078V174.63H58.33Z" transform="translate(-47.77 -74.333)" fill="#f5f5f5"/>
      <path id="Trazado_106995" data-name="Trazado 106995" d="M126.284,128.192l2.813,6.569s-6.43,4.691-5.495,11.925,6.3,21.841,6.3,21.841h11.26s5.626-20.365,5.487-23.719-4.985-9.916-4.985-9.916l2.543-6.7S134.191,122.01,126.284,128.192Z" transform="translate(-62.575 -63.161)" fill="#e0e0e0"/>
      <path id="Trazado_106996" data-name="Trazado 106996" d="M124.573,153.1c-2.179-1.963-4.884-4.405-5.773-7.729a4.413,4.413,0,0,1,.487-3.864,3.942,3.942,0,0,1,3.292-1.383,9.793,9.793,0,0,1,3.138.773l-.518,1.383a8.369,8.369,0,0,0-2.666-.68,2.5,2.5,0,0,0-2.071.811,3.138,3.138,0,0,0-.24,2.6c.773,2.906,3.308,5.186,5.34,7.018Z" transform="translate(-61.45 -66.493)" fill="#e0e0e0"/>
      <path id="Trazado_106997" data-name="Trazado 106997" d="M150.864,154.215l-1.128-.958a17.814,17.814,0,0,0,3.215-5.116,7.659,7.659,0,0,0,.649-2.55,3.192,3.192,0,0,0-.68-2.2,2.79,2.79,0,0,0-2.4-.866,4.166,4.166,0,0,0-2.489,1.267L147,142.722a5.719,5.719,0,0,1,3.393-1.7,4.313,4.313,0,0,1,3.663,1.376,4.637,4.637,0,0,1,1.036,3.215,8.927,8.927,0,0,1-.773,3.091A18.927,18.927,0,0,1,150.864,154.215Z" transform="translate(-67.911 -66.693)" fill="#e0e0e0"/>
      <path id="Trazado_106998" data-name="Trazado 106998" d="M145.038,129.08a10.628,10.628,0,0,1-2.581.649,39.7,39.7,0,0,1-12.829.1,10.333,10.333,0,0,1-2.6-.611,17.87,17.87,0,0,1,2.651.224,56.362,56.362,0,0,0,6.361.309,58.316,58.316,0,0,0,6.361-.41A16.825,16.825,0,0,1,145.038,129.08Z" transform="translate(-63.374 -63.986)" fill="#ebebeb"/>
      <path id="Trazado_106999" data-name="Trazado 106999" d="M149.512,77.959c-1.09-1.492-6.283-3.37-8.1-3.671-8.13-1.314-16.585-1.468-24.36,1.113S102.2,83.546,99.145,91.175C97.6,95.1,97.089,99.46,95.033,103.161c-2.6,4.707-7.373,7.729-11,11.716a29.206,29.206,0,0,0-1.546,37.545l21.856.27c-.533-8.594-.51-17.382,2.048-25.6s7.984-15.9,15.82-19.46c8.239-3.733,18.7-2.829,27.645-1.546Z" transform="translate(-51.874 -51.33)" fill="#ebebeb"/>
      <path id="Trazado_107000" data-name="Trazado 107000" d="M89.974,57.86c2.419,3.741-.7,9.831-3.864,12.953s-7.226,5.781-8.718,9.985,0,8.857-.7,13.262a13.139,13.139,0,0,1-18.386,9.846V57.86Z" transform="translate(-47.765 -47.809)" fill="#ebebeb"/>
      <path id="Trazado_107001" data-name="Trazado 107001" d="M86.992,160.459s1.19,1.662.711,2.728-6.183,8.664-4.034,13.911a59.422,59.422,0,0,0,6.407,10.92h13.3s6.546-10.325,6.407-13.772c-.224-5.7-4.39-11.593-4.39-11.593l1.067-2.133S94.117,156.9,86.992,160.459Z" transform="translate(-53.416 -70.758)" fill="#e0e0e0"/>
      <path id="Trazado_107002" data-name="Trazado 107002" d="M145.317,180.085v-9c0-5.835,0-14.352-.07-25.126,0-21.532-.07-52.067-.116-88.175l.247.247H58.316l.271-.278c0,45.807,0,88.175-.054,122.3l-.216-.216,63.3.116,17.559.054h.116l-17.505.054-63.436.116h-.363v-.2c0-34.122,0-76.513-.054-122.3V57.41h87.6v.371c-.054,36.17-.093,66.767-.124,88.337,0,10.75-.054,19.244-.07,25.071v8.324C145.317,179.884,145.317,180.085,145.317,180.085Z" transform="translate(-47.679 -47.707)" fill="#e0e0e0"/>
      <path id="Trazado_107003" data-name="Trazado 107003" d="M181.216,44.929a37.014,37.014,0,0,1-4.923,5.209A61.747,61.747,0,0,1,171,54.922a39.306,39.306,0,0,1,4.923-5.209A59.132,59.132,0,0,1,181.216,44.929Z" transform="translate(-73.361 -44.871)" fill="#e0e0e0"/>
      <path id="Trazado_107004" data-name="Trazado 107004" d="M44.669,44.859A49.684,49.684,0,0,1,50.18,49.7a48.418,48.418,0,0,1,5.124,5.24A50.718,50.718,0,0,1,49.8,50.1,48.914,48.914,0,0,1,44.669,44.859Z" transform="translate(-44.666 -44.855)" fill="#e0e0e0"/>
      <path id="Trazado_107005" data-name="Trazado 107005" d="M45,227.386a48.3,48.3,0,0,1,4.892-5.41,50.573,50.573,0,0,1,5.279-5.047,47.39,47.39,0,0,1-4.892,5.41C47.464,225.214,45.138,227.494,45,227.386Z" transform="translate(-44.741 -83.94)" fill="#e0e0e0"/>
      <path id="Trazado_107006" data-name="Trazado 107006" d="M180.853,227.353c-.147.093-1.924-2.813-4.683-5.943s-5.41-5.294-5.271-5.41a8.13,8.13,0,0,1,1.824,1.291,34.988,34.988,0,0,1,3.864,3.779,33.735,33.735,0,0,1,3.223,4.32A7.852,7.852,0,0,1,180.853,227.353Z" transform="translate(-73.338 -83.73)" fill="#e0e0e0"/>
    </g>
    <g id="freepik--character-2--inject-32" transform="translate(170.119 144.018)">
      <path id="Trazado_107007" data-name="Trazado 107007" d="M256.382,386.943s-1.816-3.493-3.493-4.328-10.9-3.091-12.582-3.362-12.3-1.677-13.981,0c0,0-1.546,1.4.982,3.091l6.291,1.963h-4.784l-2.983-1.175s.185-3.161-1.631-3.864-2.234,1.121-2.937,2.241l-5.31-3.091s-2.1-.3-1.121,3.091,6.013,6.291,6.013,6.291.835,3.772,1.955,4.336c0,0,1.4,4.637,2.8,5.17a46.908,46.908,0,0,0,2.937,4.336c.974,1.113,5.17,3.354,5.17,3.354s16.075-1.546,18.317-2.52Z" transform="translate(-214.572 -219.783)" fill="#9e7361"/>
      <path id="Trazado_107008" data-name="Trazado 107008" d="M290.836,381c-.773.688,3.447,12.2,3.447,12.2l-30.721-6.793-2.952,16.647s46.194,17.953,49.378,17.953,15.233.927,13.409-16.354l-5.41-15.457-4.034-4.5Z" transform="translate(-225.029 -220.372)" fill="#9e7361"/>
      <path id="Trazado_107009" data-name="Trazado 107009" d="M317.774,407.392c-.046,0-.672-.719-1.762-1.87a40.838,40.838,0,0,0-4.583-4.143A39.25,39.25,0,0,0,306.267,398c-1.391-.773-2.28-1.182-2.257-1.237s.247.046.665.209,1,.417,1.723.773a32.344,32.344,0,0,1,9.823,7.589c.518.6.927,1.113,1.182,1.476A2.18,2.18,0,0,1,317.774,407.392Z" transform="translate(-234.887 -223.949)" fill="#755043"/>
      <path id="Trazado_107010" data-name="Trazado 107010" d="M437.015,386.74s28,28.024,26.6,54.718v6.067l-24.453.193L410.63,392.073Z" transform="translate(-259.106 -221.675)" fill="#344154"/>
      <path id="Trazado_107011" data-name="Trazado 107011" d="M249.647,237.72a25.5,25.5,0,0,1,3.447,24.175c-1.383,3.617-3.64,7.025-3.864,10.89-.271,4.282,1.979,8.293,2.79,12.5s-.819,9.707-5.07,10.318c5.758,3.9,12.8,5.572,19.754,5.881s13.911-.641,20.79-1.608c3.864-.533,7.937-1.19,10.735-3.864,3.625-3.47,3.864-9.081,3.864-14.089V238.238" transform="translate(-221.927 -187.826)" fill="#344154"/>
      <path id="Trazado_107012" data-name="Trazado 107012" d="M294.845,190.024a6.067,6.067,0,0,0-7.4-3.532L255.993,185c-9.908,3.037-12.59,24.044-9.135,33.82a174.7,174.7,0,0,0,15,30.5c9.274,14.785,20.164,10.774,20.164,10.774l13.556,24.5,31.03-12.52Z" transform="translate(-221.58 -175.851)" fill="#9e7361"/>
      <path id="Trazado_107013" data-name="Trazado 107013" d="M260.457,242.3a2.21,2.21,0,0,0,2.836,1.221,2.118,2.118,0,0,0,1.329-2.682V240.8a2.2,2.2,0,0,0-2.836-1.221,2.118,2.118,0,0,0-1.337,2.666Z" transform="translate(-224.969 -188.214)" fill="#344154"/>
      <path id="Trazado_107014" data-name="Trazado 107014" d="M254.926,236c.309.1,1.816-.773,4.158-1.19s4.212-.07,4.428-.263-.224-.3-1.043-.456a10.348,10.348,0,0,0-3.586,0,9.638,9.638,0,0,0-3.261,1.128C254.973,235.655,254.78,235.957,254.926,236Z" transform="translate(-223.728 -186.967)" fill="#344154"/>
      <path id="Trazado_107015" data-name="Trazado 107015" d="M285.587,231.216a2.21,2.21,0,0,0,2.836,1.221,2.125,2.125,0,0,0,1.329-2.7h0a2.21,2.21,0,0,0-2.836-1.213,2.118,2.118,0,0,0-1.337,2.666Z" transform="translate(-230.677 -185.704)" fill="#344154"/>
      <path id="Trazado_107016" data-name="Trazado 107016" d="M283.739,225.1c.348-.054,1.291-1.731,3.323-3.323s4-2.241,4.1-2.543c.054-.139-.386-.185-1.26.077a11.113,11.113,0,0,0-3.424,1.87,9.916,9.916,0,0,0-2.5,2.813C283.577,224.732,283.569,225.1,283.739,225.1Z" transform="translate(-230.259 -183.602)" fill="#344154"/>
      <path id="Trazado_107017" data-name="Trazado 107017" d="M279.318,244.514a16.149,16.149,0,0,0-3.826.873c-.587.185-1.159.3-1.422-.046a3.091,3.091,0,0,1-.332-1.816c-.046-1.546-.1-3.223-.162-4.962-.286-7.041-.773-12.729-1.036-12.713s-.278,5.727,0,12.768c.085,1.731.17,3.385.24,4.962a3.493,3.493,0,0,0,.649,2.319,1.546,1.546,0,0,0,1.268.425,3.81,3.81,0,0,0,1-.278A20.006,20.006,0,0,0,279.318,244.514Z" transform="translate(-227.693 -185.13)" fill="#344154"/>
      <path id="Trazado_107018" data-name="Trazado 107018" d="M292.87,278.031A43.859,43.859,0,0,0,311.7,263.3s0,13.664-16.477,18.95Z" transform="translate(-232.357 -193.637)" fill="#755043"/>
      <path id="Trazado_107019" data-name="Trazado 107019" d="M284.752,255.206a6.322,6.322,0,0,1,3.014-4.583,2.713,2.713,0,0,1,3.053.317,4.3,4.3,0,0,1,1.206,3.787,3.64,3.64,0,0,1-2.628,3.022,6.1,6.1,0,0,1-3.5-.6,2.125,2.125,0,0,1-.889-.549,1.461,1.461,0,0,1-.325-1.221" transform="translate(-230.492 -190.682)" fill="#755043"/>
      <path id="Trazado_107020" data-name="Trazado 107020" d="M289.216,248.367c-.371.131.641,2.5-.672,5.062s-3.957,3.37-3.864,3.71c0,.162.773.224,1.839-.209a6.446,6.446,0,0,0,3.261-2.96,5.619,5.619,0,0,0,.41-4.181C289.888,248.746,289.371,248.282,289.216,248.367Z" transform="translate(-230.496 -190.242)" fill="#344154"/>
      <path id="Trazado_107021" data-name="Trazado 107021" d="M276.123,214.009c.518.456,2.45-.958,5.062-2.017s4.954-1.476,5-2.164c0-.317-.626-.665-1.731-.773a9.491,9.491,0,0,0-7.659,3.184C276.092,213.1,275.891,213.793,276.123,214.009Z" transform="translate(-228.532 -181.311)" fill="#344154"/>
      <path id="Trazado_107022" data-name="Trazado 107022" d="M251.352,229.284c.688.286,2.319-1.036,4.575-2.025s4.3-1.461,4.513-2.172c.085-.332-.433-.7-1.468-.773a8.2,8.2,0,0,0-4.088.773,8.045,8.045,0,0,0-3.231,2.581C251.074,228.5,251.035,229.129,251.352,229.284Z" transform="translate(-222.882 -184.777)" fill="#344154"/>
      <path id="Trazado_107023" data-name="Trazado 107023" d="M330.126,220.289c-4.228-6.538-17.675-27.552-28.781-36.865s-20.257-11.075-28-9.97a17.381,17.381,0,0,0-13.8,10.047c-1.932,4.15.5,12.775.5,12.775s18.348-3.462,28.093,3.671c11.191,8.192,15.125,13.038,15.125,13.038l4.676,5.1s10.526,27.436,12.3,33.488L349,243.637C343.148,239.5,334.353,226.828,330.126,220.289Z" transform="translate(-224.617 -173.162)" fill="#344154"/>
      <path id="Trazado_107024" data-name="Trazado 107024" d="M255.8,198.262s-10.047,3.091-8.919,15.411c.495,5.58,6.129,20.133,6.129,20.133s-7.01-10.511-9.274-17.142-2.5-16.1.51-22.722c2.906-6.415,6.051-10.186,14.816-13.332a14.979,14.979,0,0,0-4.189,7.249C254.475,189.985,254.591,191.569,255.8,198.262Z" transform="translate(-220.804 -174.854)" fill="#344154"/>
      <path id="Trazado_107025" data-name="Trazado 107025" d="M316.552,223.76c-1.329-3.578,1.484-7.559,5.279-7.11,2.087.255,4.2,1.646,5.642,5.41,3.864,10.109-7.095,11.887-7.218,11.593S318.105,227.926,316.552,223.76Z" transform="translate(-237.66 -183.032)" fill="#9e7361"/>
      <path id="Trazado_107026" data-name="Trazado 107026" d="M322.946,229.622c0-.046.224.054.572.077a1.863,1.863,0,0,0,1.329-.471c.92-.773,1.175-2.836.526-4.637a6.267,6.267,0,0,0-1.453-2.319,2.21,2.21,0,0,0-1.839-.85.974.974,0,0,0-.858.881c0,.332.116.51.07.549s-.278-.085-.355-.533a1.175,1.175,0,0,1,.155-.773,1.414,1.414,0,0,1,.873-.626,2.659,2.659,0,0,1,2.435.866,6.353,6.353,0,0,1,1.685,2.589c.711,2.056.394,4.359-.9,5.34a2.04,2.04,0,0,1-1.708.348C323.062,229.861,322.923,229.653,322.946,229.622Z" transform="translate(-238.73 -184.002)" fill="#755043"/>
      <path id="Trazado_107027" data-name="Trazado 107027" d="M269.09,174.94c0,.07-1.353.618-3.385,1.832a12.366,12.366,0,0,0-5.58,7.033,20.094,20.094,0,0,0-.866,9.1c.325,2.319.842,3.741.773,3.764a4.472,4.472,0,0,1-.379-.966,18.846,18.846,0,0,1-.657-2.759,19.182,19.182,0,0,1,.773-9.274,12.211,12.211,0,0,1,5.8-7.141,22.1,22.1,0,0,1,2.543-1.244A5.41,5.41,0,0,1,269.09,174.94Z" transform="translate(-224.606 -173.566)" fill="#5e6178"/>
      <path id="Trazado_107028" data-name="Trazado 107028" d="M315.855,222.581a.626.626,0,0,1-.054-.17l-.116-.5c-.046-.232-.108-.5-.17-.773s-.185-.7-.294-1.105a25.983,25.983,0,0,0-10.3-14.275,29.067,29.067,0,0,0-12.227-4.444,53.99,53.99,0,0,0-6.793-.526c-2.2-.054-4.328.077-6.368,0a70.679,70.679,0,0,1-10.743-1.152c-3.03-.556-5.449-1.136-7.11-1.546-.827-.224-1.468-.4-1.9-.533l-.495-.147c-.108,0-.17-.062-.162-.07h.17l.5.116,1.924.456c1.669.394,4.1.935,7.118,1.453a73,73,0,0,0,10.7,1.067c2.017,0,4.158-.108,6.376-.062a54.737,54.737,0,0,1,6.84.526,29.276,29.276,0,0,1,12.366,4.529,25.752,25.752,0,0,1,7.4,7.837,24.6,24.6,0,0,1,2.844,6.693c.1.417.185.773.263,1.113l.139.827a2.548,2.548,0,0,0,.077.51A.5.5,0,0,1,315.855,222.581Z" transform="translate(-224.691 -178.654)" fill="#5e6178"/>
      <path id="Trazado_107029" data-name="Trazado 107029" d="M316.834,215.518a.961.961,0,0,1-.077-.155l-.2-.479c-.178-.417-.394-1.051-.773-1.839a41.131,41.131,0,0,0-10.611-14.421A40.428,40.428,0,0,0,294,191.668a47.916,47.916,0,0,0-12.814-3.091c-4.042-.464-7.729-.587-10.82-.773s-5.572-.271-7.3-.41c-.858-.062-1.546-.139-1.979-.185l-.51-.062H260.4a.348.348,0,0,1,.178,0h.518l1.979.108c1.723.1,4.22.193,7.3.286s6.762.216,10.82.657A47.661,47.661,0,0,1,294.1,191.3a40.188,40.188,0,0,1,11.268,7,41.254,41.254,0,0,1,7.095,8.192,39.167,39.167,0,0,1,3.416,6.469c.332.773.526,1.438.68,1.863.07.2.124.363.162.495a.463.463,0,0,1,.116.193Z" transform="translate(-224.982 -176.336)" fill="#5e6178"/>
      <path id="Trazado_107030" data-name="Trazado 107030" d="M386.352,266.069,409,292.222l-30.767,22.413s-23.657-22.544-23.657-37.313c0-12.312,5.155-23.278,18.464-19.63A27.661,27.661,0,0,1,386.352,266.069Z" transform="translate(-246.374 -192.201)" fill="#6595bf"/>
      <path id="Trazado_107031" data-name="Trazado 107031" d="M344.168,257.65l-23.286,8.5s-1.329,28.758-8.416,29.817c-1.213.178-2.388.773-3.586.927-6.832.835-10.712-6.051-15.905-10.565l-8.339,6.183s-9.491,6.956-12.783,17.451c-2.411,7.729,9.089,44.826,9.089,44.826l32.955,1.175s13.424,14.058,18.927,15.573c7.775,2.141,55-6.075,60.538-7.474a32.306,32.306,0,0,0,13.1-6.392Z" transform="translate(-227.508 -192.353)" fill="#6595bf"/>
      <path id="Trazado_107032" data-name="Trazado 107032" d="M337.82,393.316a2.222,2.222,0,0,1-.371-.216l-1.012-.68c-.889-.587-2.133-1.546-3.632-2.682a78.585,78.585,0,0,1-10.665-10.364,119.292,119.292,0,0,1-8.88-11.91c-1.051-1.592-1.878-2.89-2.434-3.795l-.634-1.051a1.779,1.779,0,0,1-.2-.379,4.209,4.209,0,0,1,.27.34l.7,1c.634.927,1.492,2.179,2.535,3.717a141.424,141.424,0,0,0,8.957,11.832,86.965,86.965,0,0,0,10.542,10.395c1.468,1.2,2.674,2.156,3.532,2.775l.974.773A1.841,1.841,0,0,1,337.82,393.316Z" transform="translate(-236.246 -216.11)" fill="#344154"/>
      <path id="Trazado_107033" data-name="Trazado 107033" d="M408.115,398.383c3.787-1.886,15.619-7.11,15.619-7.11l-5.572-7.783-4.343,2.187a66.265,66.265,0,0,1-21.4,6.515l-49.463,6.237s-9.437,36.919-12.706,48.358l103.06-.108Z" transform="translate(-240.848 -220.937)" fill="#e0e0e0"/>
      <path id="Trazado_107034" data-name="Trazado 107034" d="M326.827,238.08c-1.963,2.612-.842,6.376.773,9.228s3.694,5.75,3.462,9.011c-.255,3.586-3.261,6.446-3.864,9.985-.526,3.014.773,6.013,1.306,9.019s0,6.739-2.744,8.061a47.345,47.345,0,0,0,26.524.139l1.136-14,4.235,7.528a6.161,6.161,0,0,0,4.467-4.56,14.406,14.406,0,0,0-.116-6.67,46.509,46.509,0,0,0-8.13-18.332" transform="translate(-239.828 -187.908)" fill="#344154"/>
      <path id="Trazado_107035" data-name="Trazado 107035" d="M395.713,428.613c-1.693-1.878-5.047.263-7.257-.958a6.877,6.877,0,0,1-1.77-1.77,3.091,3.091,0,0,0-2.071-1.314c-.649,0-1.229.734-1.43,1.608a3.972,3.972,0,0,0-2.9-2.489,3.818,3.818,0,0,0-3.362,1.917,18.307,18.307,0,0,0-1.584,3.741,6.361,6.361,0,0,1-2.319,3.269c-1.244.773-2.8.773-4.22,1.136s-2.914,1.461-2.775,2.921c.131,1.337,1.546,2.141,2.836,2.5s2.736.564,3.64,1.546c1.638,1.785.827,5.356,3.037,6.33,1.3.572,2.775-.263,3.864-1.19s2.149-2.048,3.563-2.172c2.319-.209,3.934,2.257,6.183,2.86a3.988,3.988,0,0,0,4.815-5.147c-.386-1.113-1.252-2.048-1.414-3.215-.247-1.793,1.206-3.3,2.319-4.7S396.918,429.958,395.713,428.613Z" transform="translate(-248.972 -230.068)" fill="#d9a171"/>
      <g id="Grupo_59681" data-name="Grupo 59681" transform="translate(70.089 133.75)" opacity="0.2">
        <path id="Trazado_107036" data-name="Trazado 107036" d="M359.159,349.574c-17.691-3.81-36.146-4.637-53.9-1.105l3.818,5.688c1.638,2.434,4.637,3.617,7.551,4.027s5.881.193,8.8.549c11.384,1.407,19.762,10.967,29.739,16.616,17.165,9.723,40.567,6.747,54.749-6.956C393.791,360.132,376.834,353.385,359.159,349.574Z" transform="translate(-305.26 -346.221)"/>
      </g>
      <path id="Trazado_107037" data-name="Trazado 107037" d="M397.461,307.23s11.253,21.756,15.851,33.155,1.345,14.027.471,18.409-10.774,6.886-10.774,6.886-27.127,0-45.722-11.716c-13.757-8.656-29.314-8.95-29.314-8.95L324.48,329.79l56.2,2.659-4.761-10.2Z" transform="translate(-239.537 -203.615)" fill="#9e7361"/>
      <path id="Trazado_107038" data-name="Trazado 107038" d="M397.22,339.747a5.108,5.108,0,0,1,.966-.139c.626-.077,1.546-.139,2.666-.193a30.009,30.009,0,0,1,8.787.773,27.472,27.472,0,0,1,4.591,1.631c1.376.6,2.574,1.213,3.571,1.739s1.793.974,2.319,1.3a4.38,4.38,0,0,1,.819.533,4.861,4.861,0,0,1-.9-.394l-2.388-1.182c-1.012-.495-2.218-1.082-3.586-1.654a30.413,30.413,0,0,0-4.544-1.584,33.471,33.471,0,0,0-8.679-.889l-2.659.07a4.482,4.482,0,0,1-.966-.008Z" transform="translate(-256.06 -210.913)" fill="#755043"/>
      <path id="Trazado_107039" data-name="Trazado 107039" d="M312.09,336.074s-24.546-2.195-27.4-1.1-4.382,1.546-6.786.881-7.018-1.368-7.018-1.368-1.213,4.057,3.826,6.685l-6.237,4.637-4.158,10.426a3.091,3.091,0,0,0,3.864.325c2.411-1.314,5.92-8.3,5.92-8.3l6.832-2.45-1.546,8.9s5.48,8.324,7.45,8.548,10.3-.657,10.3-1.979c0,0,4.6-1.971,4.6-4.6a7.846,7.846,0,0,0-.657-3.725l-1.314-1.546,1.971-1.1,8.764,1.971s3.725-.441,5.263-1.546Z" transform="translate(-225.872 -209.807)" fill="#9e7361"/>
      <path id="Trazado_107040" data-name="Trazado 107040" d="M289.07,341.818a1.917,1.917,0,0,1-.054-1.043,5.928,5.928,0,0,1,2.6-4.22,2.025,2.025,0,0,1,.966-.425A8.061,8.061,0,0,0,289.07,341.818Z" transform="translate(-231.471 -210.179)" fill="#755043"/>
      <path id="Trazado_107041" data-name="Trazado 107041" d="M296.074,344.9a2.318,2.318,0,0,1,.139-1.816c.371-.966,1.036-1.546,1.105-1.438s-.394.7-.727,1.584A15.244,15.244,0,0,1,296.074,344.9Z" transform="translate(-233.057 -211.43)" fill="#755043"/>
      <path id="Trazado_107042" data-name="Trazado 107042" d="M297.335,366.346a2.443,2.443,0,0,1-.773-.209,15.859,15.859,0,0,1-1.94-.819,8.5,8.5,0,0,1-2.527-1.87,5.673,5.673,0,0,1-1.376-3.6,10.4,10.4,0,0,1,.649-3.795c.386-1.113.827-2.071,1.167-2.883.7-1.615.989-2.666,1.043-2.659a2.6,2.6,0,0,1-.124.773,20.045,20.045,0,0,1-.657,1.994c-.309.835-.719,1.8-1.082,2.9a10.743,10.743,0,0,0-.6,3.663,5.356,5.356,0,0,0,1.283,3.339,8.447,8.447,0,0,0,2.38,1.863A26.355,26.355,0,0,1,297.335,366.346Z" transform="translate(-231.868 -213.446)" fill="#755043"/>
      <path id="Trazado_107043" data-name="Trazado 107043" d="M302.211,351.08a1.831,1.831,0,0,1,0,.649,9.54,9.54,0,0,1-.371,1.739c-.216.711-.533,1.546-.873,2.458a12.467,12.467,0,0,0-.773,3.03,5.047,5.047,0,0,0,.5,2.983,5.193,5.193,0,0,0,1.716,1.809c1.221.773,2.118,1.074,2.087,1.144a2,2,0,0,1-.634-.155,7.729,7.729,0,0,1-1.608-.773,4.915,4.915,0,0,1-2.465-5.07,11.865,11.865,0,0,1,.819-3.091c.363-.92.7-1.723.951-2.419C302.072,351.992,302.141,351.072,302.211,351.08Z" transform="translate(-233.915 -213.575)" fill="#755043"/>
      <path id="Trazado_107044" data-name="Trazado 107044" d="M307.288,362.882c-.1-.07.85-1.383,1.484-3.254s.7-3.478.827-3.478a8.857,8.857,0,0,1-2.319,6.732Z" transform="translate(-235.63 -214.727)" fill="#755043"/>
      <path id="Trazado_107045" data-name="Trazado 107045" d="M303.884,347.083c-.054,0-.093-.24,0-.6a2.318,2.318,0,0,1,.873-1.128,2.226,2.226,0,0,1,1.368-.41c.371,0,.572.139.564.185a4.445,4.445,0,0,0-1.708.556A4.158,4.158,0,0,0,303.884,347.083Z" transform="translate(-234.846 -212.182)" fill="#755043"/>
      <path id="Trazado_107046" data-name="Trazado 107046" d="M264.29,362.082a.773.773,0,0,0,.935.263,2.975,2.975,0,0,0,.842-.641,1.43,1.43,0,0,1,.927-.464c.355,0,.719.348.611.688a1.778,1.778,0,0,1,.85-.5.634.634,0,0,1,.773.464h0a.9.9,0,0,1-.526.7,4.189,4.189,0,0,1-2.319.7,2.319,2.319,0,0,1-2.009-1.275" transform="translate(-225.865 -215.883)" fill="#d9a171"/>
      <path id="Trazado_107047" data-name="Trazado 107047" d="M282.57,339.29a15.97,15.97,0,0,1-2.945,1.9,15.244,15.244,0,0,1-3.146,1.546,15.331,15.331,0,0,1,2.945-1.9A14.5,14.5,0,0,1,282.57,339.29Z" transform="translate(-228.634 -210.897)" fill="#755043"/>
      <path id="Trazado_107048" data-name="Trazado 107048" d="M345.989,357.511c.734.286.51-1.546,0-2.141a5.209,5.209,0,0,0-1.924-1.337,4,4,0,0,1-1.824-1.445c-.7-1.229-.216-3.13-1.414-3.864-.958-.6-2.179.093-3.03.827s-1.863,1.592-2.952,1.314c-.657-.162-1.152-.719-1.8-.935a2.512,2.512,0,0,0-2.829,1.422,7.024,7.024,0,0,0-.533,3.377S340.463,355.37,345.989,357.511Z" transform="translate(-240.712 -212.989)" fill="#d9a171"/>
      <path id="Trazado_107049" data-name="Trazado 107049" d="M403.643,414a4.045,4.045,0,0,1-.224.495c-.162.309-.379.773-.711,1.368a50.644,50.644,0,0,1-3.03,4.8A69.432,69.432,0,0,1,386.8,434.2a122.731,122.731,0,0,1-15.457,10.534c-2.064,1.213-3.756,2.149-4.931,2.79l-1.368.719a2.816,2.816,0,0,1-.487.232,2.529,2.529,0,0,1,.448-.3l1.329-.773,4.861-2.89a135.126,135.126,0,0,0,15.341-10.619A73.554,73.554,0,0,0,399.447,420.5a54.014,54.014,0,0,0,3.091-4.714c.356-.572.6-1.028.773-1.329A2.751,2.751,0,0,1,403.643,414Z" transform="translate(-248.641 -227.867)" fill="#344154"/>
    </g>
    <g id="freepik--Desk--inject-32" transform="translate(18.87 369.667)">
      <path id="Trazado_107050" data-name="Trazado 107050" d="M376.13,465.331c0,.108-79.983.2-178.622.2s-178.638-.093-178.638-.2,79.96-.2,178.638-.2S376.13,465.215,376.13,465.331Z" transform="translate(-18.87 -465.13)" fill="#344154"/>
    </g>
    <g id="freepik--speech-bubble--inject-32" transform="translate(200.861 45.646)">
      <path id="Trazado_107051" data-name="Trazado 107051" d="M260.591,119.445,273,111.253a34.678,34.678,0,1,0-9.769-7.667h0Z" transform="translate(-254.384 -45.884)" fill="#fff"/>
      <path id="Trazado_107052" data-name="Trazado 107052" d="M260.556,119.44c.116-.711.92-5.758,2.527-15.882a.1.1,0,0,1,.116-.085h.039l-.131.155a35.553,35.553,0,0,1-4.753-6.817,34.408,34.408,0,0,1-3.339-9.274,31.133,31.133,0,0,1-.641-5.41c0-.943-.054-1.9,0-2.875s.162-1.948.247-2.945A34.9,34.9,0,0,1,266.986,53.8a34.384,34.384,0,0,1,12.945-6.732,35.3,35.3,0,0,1,15.388-.626A34.091,34.091,0,0,1,310,52.889l1.646,1.306c.556.425,1.02.951,1.546,1.422a13.305,13.305,0,0,1,1.476,1.476l1.345,1.546a15.055,15.055,0,0,1,1.252,1.638l1.182,1.685.974,1.785a16.012,16.012,0,0,1,.951,1.8,35.327,35.327,0,0,1,3.416,15.31,34.006,34.006,0,0,1-3.246,14.483,35.08,35.08,0,0,1-19.059,17.776,37.29,37.29,0,0,1-11.129,2.257,34.1,34.1,0,0,1-9.808-1.036,35.552,35.552,0,0,1-7.667-2.96h.1l-12.466,8.115,12.366-8.277a.116.116,0,0,1,.1,0,34.933,34.933,0,0,0,7.636,2.9,33.882,33.882,0,0,0,9.738.989,37.143,37.143,0,0,0,11.029-2.272A34.778,34.778,0,0,0,320.22,95.226,33.751,33.751,0,0,0,323.412,80.9a35,35,0,0,0-3.393-15.14,16.913,16.913,0,0,0-.935-1.778l-1-1.778-1.136-1.662a14.043,14.043,0,0,0-1.237-1.623l-1.337-1.546c-.433-.533-.966-.966-1.453-1.461a12.142,12.142,0,0,0-1.546-1.4l-1.646-1.283a33.735,33.735,0,0,0-14.53-6.376,34.856,34.856,0,0,0-15.21.611,34.183,34.183,0,0,0-12.768,6.6,34.624,34.624,0,0,0-12.327,22.258c-.085.989-.162,1.963-.247,2.921s0,1.909,0,2.844a31.887,31.887,0,0,0,.626,5.41,34.144,34.144,0,0,0,3.277,9.228,35.094,35.094,0,0,0,4.691,6.793.1.1,0,0,1,0,.139.116.116,0,0,1-.124,0h0l.155-.07Z" transform="translate(-254.349 -45.878)" fill="#344154"/>
      <path id="Trazado_107053" data-name="Trazado 107053" d="M306.718,82.7a11.639,11.639,0,1,0-16.6,10.526v2.937h10.2s.062-1.646.085-3.091A11.593,11.593,0,0,0,306.718,82.7Z" transform="translate(-260.956 -51.597)" fill="#d9a171"/>
      <path id="Trazado_107054" data-name="Trazado 107054" d="M298.213,99.55v-.139a1.546,1.546,0,0,1,.046-.417c.046-.371.116-.92.216-1.615s.24-1.546.464-2.527A16.533,16.533,0,0,1,300,91.613a10.534,10.534,0,0,1,.951-1.7,2.156,2.156,0,0,1,.773-.719,1.167,1.167,0,0,1,1.105,0,.773.773,0,0,1,.371.456.85.85,0,0,1-.046.6,1.708,1.708,0,0,1-.9.773,3.184,3.184,0,0,1-4.057-2.118,2.465,2.465,0,0,1-.07-1.337,1.036,1.036,0,0,1,1.059-.773.773.773,0,0,1,.587.41,1.105,1.105,0,0,1,.1.719,2.318,2.318,0,0,1-.819,1.159,3.455,3.455,0,0,1-2.713.773,3.03,3.03,0,0,1-2.257-1.677A1.785,1.785,0,0,1,294,86.775a.912.912,0,0,1,.51-.518.9.9,0,0,1,.719.07,1.167,1.167,0,0,1,.495.51,1.846,1.846,0,0,1,.178.672,3.524,3.524,0,0,1-.178,1.329,3.47,3.47,0,0,1-1.646,1.948,3.509,3.509,0,0,1-2.4.332,1.847,1.847,0,0,1-1.051-.556.9.9,0,0,1-.062-1.121.773.773,0,0,1,.526-.255,1.028,1.028,0,0,1,.549.108,1.739,1.739,0,0,1,.719.773c.286.634.526,1.244.773,1.832.927,2.319,1.584,4.282,2.033,5.619.216.672.379,1.19.487,1.546l.124.41a.933.933,0,0,1,0,.139,1.037,1.037,0,0,1-.054-.139l-.131-.4c-.124-.355-.294-.873-.518-1.546-.464-1.329-1.136-3.254-2.079-5.6-.24-.58-.479-1.2-.773-1.816a1.546,1.546,0,0,0-.665-.773.7.7,0,0,0-.873,1.09,1.777,1.777,0,0,0,.982.51,3.4,3.4,0,0,0,2.319-.325,3.316,3.316,0,0,0,1.546-1.878,3.245,3.245,0,0,0,.17-1.275,1.26,1.26,0,0,0-.6-1.067.706.706,0,0,0-1.036.379,1.615,1.615,0,0,0,.077,1.3,2.883,2.883,0,0,0,2.149,1.592,3.339,3.339,0,0,0,2.6-.773,2.164,2.164,0,0,0,.773-1.074.9.9,0,0,0-.085-.618.611.611,0,0,0-.479-.34.773.773,0,0,0-.58.185,1.028,1.028,0,0,0-.332.526,2.257,2.257,0,0,0,.07,1.26,3.091,3.091,0,0,0,3.864,2.04,1.546,1.546,0,0,0,.827-.711.7.7,0,0,0-.263-.9,1.082,1.082,0,0,0-1,0,2.048,2.048,0,0,0-.773.68,10.321,10.321,0,0,0-.773,1.716,17.451,17.451,0,0,0-1.074,3.215c-.232.974-.371,1.824-.487,2.52s-.185,1.237-.24,1.608a2.2,2.2,0,0,1-.062.417Z" transform="translate(-262.537 -55.04)" fill="#344154"/>
      <path id="Trazado_107055" data-name="Trazado 107055" d="M301.493,105.614h-8.756a.657.657,0,0,1-.657-.657h0a.657.657,0,0,1,.657-.657h8.756a.657.657,0,0,1,.657.657h0a.657.657,0,0,1-.657.657Z" transform="translate(-262.919 -59.149)" fill="#344154"/>
      <path id="Trazado_107056" data-name="Trazado 107056" d="M301.493,106.72h-8.756a.657.657,0,1,0,0,1.314h.966l1.275,2.427a.85.85,0,0,0,.773.456h3.091a.842.842,0,0,0,.773-.464l1.244-2.419h.649a.657.657,0,1,0,0-1.314Z" transform="translate(-262.919 -59.698)" fill="#344154"/>
      <g id="Grupo_59682" data-name="Grupo 59682" transform="translate(23.787 21.6)" opacity="0.2">
        <path id="Trazado_107057" data-name="Trazado 107057" d="M287.989,75.908a8.5,8.5,0,0,1,2.319-1.546,6.353,6.353,0,0,1,1.793-.518c.441-.046.7,0,.719.093a22.362,22.362,0,0,1-2.025,1.314,10.209,10.209,0,0,0-3.563,4.057,10.048,10.048,0,0,0-.773,5.34c.155,1.422.487,2.319.294,2.4s-.278-.124-.526-.487a6.082,6.082,0,0,1-.773-1.708,8.641,8.641,0,0,1-.317-2.775,9.057,9.057,0,0,1,.811-3.37" transform="translate(-285.127 -73.826)" fill="#fff"/>
      </g>
      <g id="Grupo_59683" data-name="Grupo 59683" transform="translate(32.816 20.774)" opacity="0.2">
        <path id="Trazado_107058" data-name="Trazado 107058" d="M298.278,74.189c-.773,0-1.391-.209-1.468-.6a.68.68,0,0,1,.371-.564,2.125,2.125,0,0,1,1.105-.263,2.094,2.094,0,0,1,1.1.278c.263.162.394.371.363.564" transform="translate(-296.81 -72.758)" fill="#fff"/>
      </g>
      <path id="Trazado_107059" data-name="Trazado 107059" d="M300.38,111.709c-.2-.054-.4-.116-.6-.185a4.9,4.9,0,0,0-2.96.085,5.524,5.524,0,0,1-.6.224,1.732,1.732,0,0,1,.556-.317,4.2,4.2,0,0,1,1.507-.317,4.042,4.042,0,0,1,1.546.232,1.8,1.8,0,0,1,.541.278Z" transform="translate(-263.862 -60.715)" fill="#5e6178"/>
      <path id="Trazado_107060" data-name="Trazado 107060" d="M301.362,108.433c0,.039-1.584.077-3.532.07a34.675,34.675,0,0,1-3.54-.07,31.621,31.621,0,0,1,3.54-.07C299.824,108.364,301.362,108.395,301.362,108.433Z" transform="translate(-263.421 -60.067)" fill="#5e6178"/>
      <path id="Trazado_107061" data-name="Trazado 107061" d="M300.994,109.86a5.409,5.409,0,0,1-.858.085c-.533,0-1.275.062-2.087.077s-1.546,0-2.094,0a5.414,5.414,0,0,1-.866-.07,5.41,5.41,0,0,1,.866,0h4.173a5.41,5.41,0,0,1,.866-.093Z" transform="translate(-263.603 -60.411)" fill="#5e6178"/>
    </g>
    <g id="freepik--character-1--inject-32" transform="translate(28.216 78.127)">
      <path id="Trazado_107062" data-name="Trazado 107062" d="M213.065,258.8c1.546,10.117-3.354,69.858-3.354,69.858L224.4,344.811l-26.841,25.18L183.38,346.264l7.481-67.934,9-39.57S211.636,249.557,213.065,258.8Z" transform="translate(-65.583 -122.172)" fill="#5e6178"/>
      <path id="Trazado_107063" data-name="Trazado 107063" d="M96.51,201.4l19.955-.116h6.786l4.583-2.489,35.961,16.168v5.518l9.413,5.07,8.192,11.33h0l-9.738,41.788-32.823,75.74L93.566,325.981S79.09,259.376,79.09,258.65,96.51,201.4,96.51,201.4Z" transform="translate(-41.894 -113.095)" fill="#5e6178"/>
      <path id="Trazado_107064" data-name="Trazado 107064" d="M96.027,200.44s-3.8,49.725-7.821,56.279-5.294,8.671-5.294,8.671L55.228,289.349,51.9,332.39a41.077,41.077,0,0,1-.263,10.464c-.309,1.546-4.73,7.45-5.116,9.39C42.824,370.87,36.61,405.2,36.61,405.2H156.24l-6.183-59.718c-1.855-1.8,12.412-68.869,12.412-68.869V224.986l-4.637-3.176-3.447,54.8s-6.77,3.377-17.559.209-35.551-18.409-35.551-18.409,4.436-42.731,5.286-52.461l.209-4.282Z" transform="translate(-32.245 -113.468)" fill="#e0e0e0"/>
      <path id="Trazado_107065" data-name="Trazado 107065" d="M95.932,200.438l10.82,1.175h.046v.031c-.077,1.391-.124,2.906-.232,4.552s-.34,3.416-.526,5.31c-.379,3.787-.773,8.076-1.275,12.837-.951,9.529-2.094,20.952-3.4,34.06l-.054-.116c7.056,4.274,14.854,8.826,23.5,13.208,1.082.541,2.172,1.09,3.292,1.608s2.241,1.043,3.385,1.546a42.028,42.028,0,0,0,7.18,2.5,30.589,30.589,0,0,0,7.775.842,23.626,23.626,0,0,0,3.972-.4,16.818,16.818,0,0,0,3.864-1.136l-.085.124c1.02-16.6,2.156-35.1,3.362-54.788v-.309l.255.17,4.637,3.176.077.054v51.781q-3.431,16.307-6.847,33.565c-1.121,5.75-2.234,11.593-3.292,17.436-.526,2.945-1.036,5.9-1.5,8.88-.232,1.484-.448,2.983-.634,4.483-.085.773-.178,1.5-.232,2.249,0,.379-.046.773-.054,1.128v.549a1.451,1.451,0,0,0,.039.255v.108a.069.069,0,0,1,0,.054l.062.124c1.546,14.893,3.176,30.582,4.83,46.51l1.368,13.2v.224H36.19v-.216q3.733-19.878,7.2-38.388l1.716-9.143c.286-1.546.572-3.014.842-4.506.085-.379.124-.773.232-1.128a6.824,6.824,0,0,1,.441-1.074c.348-.68.726-1.337,1.113-1.986l2.319-3.81a17.252,17.252,0,0,0,1.028-1.94,11.075,11.075,0,0,0,.394-2.125,42.63,42.63,0,0,0,0-8.656h0c1.206-15.519,2.319-29.832,3.339-43.04v-.062l.046-.039,27.7-23.958h0l4.042-6.616A22.16,22.16,0,0,0,88.6,255.5a27.893,27.893,0,0,0,1.02-3.439c1.074-4.637,1.7-9.019,2.319-13.139,1.136-8.208,1.863-15.233,2.442-20.937s.966-10.093,1.229-13.054c.124-1.476.224-2.6.294-3.354s.1-1.144.1-1.144,0,.386-.07,1.144-.147,1.878-.263,3.362c-.24,2.96-.611,7.35-1.167,13.061s-1.267,12.737-2.38,20.944c-.58,4.1-1.206,8.5-2.272,13.139a27.165,27.165,0,0,1-1.02,3.478,23.519,23.519,0,0,1-1.778,3.277l-4.034,6.623h0L55.349,289.417l.046-.1c-1.012,13.216-2.11,27.529-3.3,43.048h0a43.4,43.4,0,0,1,0,8.733,11.972,11.972,0,0,1-.41,2.21,16.565,16.565,0,0,1-1.136,2.009l-2.319,3.818c-.386.641-.773,1.291-1.1,1.955a5.888,5.888,0,0,0-.417,1.02c-.1.34-.147.773-.224,1.105-.278,1.492-.564,2.991-.842,4.5q-.85,4.537-1.708,9.151-3.47,18.479-7.18,38.38l-.185-.216h119.6l-.2.224q-.672-6.562-1.368-13.208c-1.654-15.929-3.285-31.617-4.83-46.51l.062.124a1.045,1.045,0,0,1-.116-.2l-.07-.139a1.415,1.415,0,0,1-.039-.309v-.587a7.141,7.141,0,0,1,.062-1.152c.054-.773.139-1.546.232-2.272.185-1.5.41-3,.634-4.49.471-2.983.982-5.943,1.507-8.888,1.059-5.881,2.172-11.693,3.3-17.436q3.385-17.242,6.855-33.581V225l.077.147-4.637-3.176.278-.139c-1.229,19.685-2.373,38.187-3.408,54.8v.093h-.077a17.514,17.514,0,0,1-3.942,1.167,26.035,26.035,0,0,1-4.019.4,30.459,30.459,0,0,1-7.844-.866,41.9,41.9,0,0,1-7.226-2.52c-1.152-.5-2.319-1.012-3.4-1.546s-2.21-1.067-3.292-1.615c-8.648-4.4-16.446-8.957-23.5-13.247h-.062v-.077c1.337-13.1,2.5-24.523,3.47-34.006.487-4.761.92-9.05,1.314-12.837.193-1.9.371-3.663.541-5.31s.17-3.161.247-4.544l.046.046Z" transform="translate(-32.15 -113.465)" fill="#344154"/>
      <path id="Trazado_107066" data-name="Trazado 107066" d="M154.688,384.818h-14.4c-8.88-.046-21.145-.263-34.693-.564s-25.806-.564-34.686-.688L60.4,383.426l-2.86-.046H70.91c8.88.046,21.145.263,34.693.572s25.806.564,34.686.688l10.511.131,2.86.046Z" transform="translate(-37 -155.022)" fill="#344154"/>
      <path id="Trazado_107067" data-name="Trazado 107067" d="M153.848,375.579H139.589c-8.8-.046-20.96-.255-34.384-.564s-25.581-.556-34.384-.68L60.4,374.2l-2.829-.046H56.53a.665.665,0,0,1,.247,0H70.8c8.8.046,20.96.263,34.384.564s25.574.564,34.377.688l10.418.131,2.836.046h1.028Z" transform="translate(-36.77 -152.924)" fill="#344154"/>
      <path id="Trazado_107068" data-name="Trazado 107068" d="M173.54,300.143a3.346,3.346,0,0,1-.549.209c-.371.108-.9.325-1.623.495a30.5,30.5,0,0,1-6.183.981,38.024,38.024,0,0,1-9.22-.6,49.548,49.548,0,0,1-10.82-3.339,91.046,91.046,0,0,1-17.521-10.681c-2.1-1.546-3.779-2.89-4.931-3.8-.541-.448-.982-.773-1.314-1.067a2.674,2.674,0,0,1-.441-.394,4.163,4.163,0,0,1,.487.332l1.368,1,5,3.7a94.015,94.015,0,0,0,17.513,10.542,50.383,50.383,0,0,0,10.712,3.346,38.644,38.644,0,0,0,9.143.672,33.418,33.418,0,0,0,6.129-.842c.719-.147,1.26-.34,1.638-.425a2.775,2.775,0,0,1,.611-.131Z" transform="translate(-51.401 -131.982)" fill="#344154"/>
      <path id="Trazado_107069" data-name="Trazado 107069" d="M160.167,235.98a4.212,4.212,0,0,1-.649.448c-.433.286-1.067.7-1.855,1.267a46.087,46.087,0,0,0-6.144,5.232l-.162.162-.1-.2c-1.909-3.864-4.135-8.8-6.26-14.213q-3.439-8.787-6-17.884c-.641-2.319-1.128-4.22-1.437-5.534l-.34-1.546a4.312,4.312,0,0,1-.1-.533,2.411,2.411,0,0,1,.178.518c.1.379.24.873.417,1.492.356,1.306.881,3.184,1.546,5.495,1.376,4.637,3.408,10.967,6.106,17.814,2.118,5.41,4.313,10.3,6.183,14.213l-.263-.046a42.2,42.2,0,0,1,6.268-5.155c.811-.541,1.461-.935,1.909-1.2a3.863,3.863,0,0,1,.7-.332Z" transform="translate(-55.076 -114.09)" fill="#344154"/>
      <path id="Trazado_107070" data-name="Trazado 107070" d="M184.224,236.7a4.543,4.543,0,0,1-.232,1l-.773,2.581c-.7,2.172-1.7,5.163-2.829,8.5l-1.468,4.258-.108.332-.216-.247c-1.445-1.886-2.674-3.5-3.532-4.637l-.989-1.352a1.94,1.94,0,0,1-.317-.51,4.548,4.548,0,0,1,.417.433l1.074,1.291c.9,1.113,2.172,2.7,3.648,4.56l-.332.054,1.445-4.266c1.128-3.3,2.164-6.276,2.937-8.424l.935-2.543a5.286,5.286,0,0,1,.34-1.036Z" transform="translate(-63.398 -121.704)" fill="#344154"/>
      <path id="Trazado_107071" data-name="Trazado 107071" d="M160.059,327.753a5.936,5.936,0,0,0-4.135-2.929c-1.94-.448-4.228-.425-5.526-1.94-.827-.958-1-2.319-1.615-3.424a4.923,4.923,0,0,0-6.685-1.94,4.977,4.977,0,0,0-1.816,1.723,3.926,3.926,0,0,1-.835,1.175,2.5,2.5,0,0,1-2.5,0,5.8,5.8,0,0,0-2.489-.811A1.608,1.608,0,0,0,133,320.713h0c-2.056,2.659-.711,7.767,2.458,8.88,1.476.518,3.2.4,4.459,1.314,2.241,1.615,1.546,5.109,2.713,7.62a5.41,5.41,0,0,0,10.047-.672c.51-1.7.34-3.864,1.839-4.838,1.206-.773,2.844-.216,4.158-.773A3.385,3.385,0,0,0,160.059,327.753Z" transform="translate(-53.917 -139.923)" fill="#d9a171"/>
      <path id="Trazado_107072" data-name="Trazado 107072" d="M205.832,133.9a29.863,29.863,0,0,0-22.1-33.928l-1.5-.379c-16.4-3.146-28.232,9.019-30.914,25.5l-9.135,51.063,22.413,36.834,10.82-15.72,2.952-11.933s16.145,1.546,20.272-13.958C200.561,163.9,203.413,148.168,205.832,133.9Z" transform="translate(-56.225 -90.448)" fill="#ffbe9d"/>
      <path id="Trazado_107073" data-name="Trazado 107073" d="M183.542,207.424A38.836,38.836,0,0,1,164.7,196.31s1.955,12.366,17.776,14.924Z" transform="translate(-61.34 -112.53)" fill="#eb996e"/>
      <path id="Trazado_107074" data-name="Trazado 107074" d="M212.841,157.146a2.319,2.319,0,0,1-2.7,1.693,2.187,2.187,0,0,1-1.785-2.527v-.054a2.272,2.272,0,0,1,2.7-1.693,2.195,2.195,0,0,1,1.8,2.52A.247.247,0,0,1,212.841,157.146Z" transform="translate(-71.248 -103.035)" fill="#344154"/>
      <path id="Trazado_107075" data-name="Trazado 107075" d="M215.149,151.8c-.348.224-1.708-1.445-4.1-2.048s-4.444.155-4.637-.2c-.093-.162.317-.618,1.221-.974a6.245,6.245,0,0,1,3.795-.193,6.028,6.028,0,0,1,3.161,1.978C215.2,151.13,215.32,151.7,215.149,151.8Z" transform="translate(-70.813 -101.595)" fill="#344154"/>
      <path id="Trazado_107076" data-name="Trazado 107076" d="M182.959,151.908a2.319,2.319,0,0,1-2.7,1.693,2.187,2.187,0,0,1-1.793-2.512v-.062a2.319,2.319,0,0,1,2.705-1.7,2.179,2.179,0,0,1,1.785,2.52A.416.416,0,0,1,182.959,151.908Z" transform="translate(-64.46 -101.847)" fill="#344154"/>
      <path id="Trazado_107077" data-name="Trazado 107077" d="M184.649,144.683c-.348.216-1.716-1.453-4.1-2.048s-4.444.147-4.637-.209c-.093-.162.317-.611,1.221-.974a6.244,6.244,0,0,1,3.795-.193,6.044,6.044,0,0,1,3.176,1.994C184.7,144,184.82,144.582,184.649,144.683Z" transform="translate(-63.885 -99.978)" fill="#344154"/>
      <path id="Trazado_107078" data-name="Trazado 107078" d="M192.63,165.573c0-.139,1.546,0,4.05.286.626.085,1.237.116,1.445-.278a3.215,3.215,0,0,0,.046-1.909c-.2-1.615-.4-3.316-.626-5.093-.827-7.242-1.26-13.139-.974-13.139s1.206,5.812,2.033,13.054c.185,1.785.371,3.486.541,5.109a3.694,3.694,0,0,1-.286,2.473,1.546,1.546,0,0,1-1.229.634,4.166,4.166,0,0,1-1.074-.116C194.106,166.083,192.6,165.712,192.63,165.573Z" transform="translate(-67.684 -100.975)" fill="#344154"/>
      <path id="Trazado_107079" data-name="Trazado 107079" d="M182.749,171.319c.394.077-.263,2.666,1.492,5.07s4.583,2.813,4.506,3.184c0,.17-.773.348-1.909.077a6.585,6.585,0,0,1-3.8-2.5,5.819,5.819,0,0,1-1.09-4.212C182.123,171.844,182.572,171.257,182.749,171.319Z" transform="translate(-65.246 -106.852)" fill="#344154"/>
      <path id="Trazado_107080" data-name="Trazado 107080" d="M187.807,132.9c-.4.587-2.7-.325-5.6-.7s-5.34-.185-5.565-.858c-.093-.325.456-.835,1.546-1.229a9.753,9.753,0,0,1,8.5,1.182C187.6,131.964,187.985,132.605,187.807,132.9Z" transform="translate(-64.052 -97.383)" fill="#344154"/>
      <path id="Trazado_107081" data-name="Trazado 107081" d="M216.491,142.546c-.556.433-2.056-.541-4.027-1.074s-3.741-.556-3.988-1.221c-.093-.317.309-.773,1.167-1.121a5.727,5.727,0,0,1,3.509-.062,5.8,5.8,0,0,1,2.952,1.909C216.661,141.711,216.746,142.329,216.491,142.546Z" transform="translate(-71.281 -99.472)" fill="#344154"/>
      <path id="Trazado_107082" data-name="Trazado 107082" d="M218.679,119.2a3.091,3.091,0,0,0-2.427-3.238,6.422,6.422,0,0,0,2.434-.487,2.21,2.21,0,0,0,1.329-1.948c-.054-1.3-1.546-1.971-2.628-2.659a8.239,8.239,0,0,1-3.269-3.818c-.943-2.257-.835-4.83-1.546-7.18a10.627,10.627,0,0,0-15.4-6.183,11.075,11.075,0,0,0-17.884-2.2,12.922,12.922,0,0,0-20.867,8.826l7.953,8.586a5.41,5.41,0,0,1,7.048-2.983,4.915,4.915,0,0,1,.541.255c2.659,1.654,3.571,5.534,6.515,6.608,2.319.835,4.8-.417,7.242-.386,2.96,0,5.557,1.955,7.651,4.05s3.957,4.5,6.531,5.974c3.006,1.731,6.662,1.986,10.109,1.584a10.65,10.65,0,0,0,4.251-1.221,4.7,4.7,0,0,0,2.419-3.578Z" transform="translate(-59.914 -87.906)" fill="#344154"/>
      <path id="Trazado_107083" data-name="Trazado 107083" d="M167.482,106.915l44.053,12.1a20.733,20.733,0,0,0-4.637-9.158A35.683,35.683,0,0,0,188.65,97.595c-7.188-1.94-24.105,3.169-30.6,6.832-5.186,2.937-6.028,6.392-6.028,6.392-2.11,5.572-.533,12.914-.672,18.873-.07,3.091-1.012,12.2-1.012,12.2h0c2.442.6,3.864-1.113,4.073-3.617l1.917-9.583s9.784-3.81,8.563-15.6C164.514,112.07,164.159,107.789,167.482,106.915Z" transform="translate(-58.079 -90.01)" fill="#344154"/>
      <path id="Trazado_107084" data-name="Trazado 107084" d="M173.547,156.1a.3.3,0,1,1,.286-.317h0a.3.3,0,0,1-.286.317Z" transform="translate(-63.278 -103.26)" fill="#eb996e"/>
      <path id="Trazado_107085" data-name="Trazado 107085" d="M179.8,156.232a.3.3,0,0,1-.247-.348h0a.309.309,0,0,1,.286-.325.348.348,0,0,1,0,.68Z" transform="translate(-64.712 -103.273)" fill="#eb996e"/>
      <path id="Trazado_107086" data-name="Trazado 107086" d="M183.805,157.081c-.147,0-.24-.232-.216-.471s.178-.425.325-.41.247.232.216.471S183.952,157.1,183.805,157.081Z" transform="translate(-65.63 -103.419)" fill="#eb996e"/>
      <path id="Trazado_107087" data-name="Trazado 107087" d="M175.534,160.608a.216.216,0,0,1-.224-.232c0-.093.162-.139.309-.1s.24.139.216.232S175.681,160.647,175.534,160.608Z" transform="translate(-63.75 -104.342)" fill="#eb996e"/>
      <path id="Trazado_107088" data-name="Trazado 107088" d="M181.263,160.68a.3.3,0,0,1-.224-.348.286.286,0,0,1,.317-.263.3.3,0,0,1,.224.348.286.286,0,0,1-.317.263Z" transform="translate(-65.05 -104.297)" fill="#eb996e"/>
      <path id="Trazado_107089" data-name="Trazado 107089" d="M210.264,164.428a.294.294,0,0,1-.255-.325.286.286,0,0,1,.286-.294.309.309,0,0,1,0,.618Z" transform="translate(-71.632 -105.147)" fill="#eb996e"/>
      <path id="Trazado_107090" data-name="Trazado 107090" d="M214.384,165.06a.317.317,0,0,1-.216-.379.294.294,0,0,1,.325-.3.317.317,0,0,1,.216.379C214.677,164.944,214.531,165.083,214.384,165.06Z" transform="translate(-72.575 -105.276)" fill="#eb996e"/>
      <path id="Trazado_107091" data-name="Trazado 107091" d="M206.685,163.706a.255.255,0,0,1-.255-.255h0a.271.271,0,0,1,.541,0,.255.255,0,0,1-.271.255Z" transform="translate(-70.819 -105.004)" fill="#eb996e"/>
      <path id="Trazado_107092" data-name="Trazado 107092" d="M208.627,168.4a.317.317,0,0,1-.317-.317.3.3,0,0,1,.216-.3.317.317,0,0,1,.1.618Z" transform="translate(-71.246 -106.049)" fill="#eb996e"/>
      <path id="Trazado_107093" data-name="Trazado 107093" d="M212.287,168.639a.255.255,0,0,1-.124-.332.247.247,0,0,1,.34-.077h0a.255.255,0,0,1,.124.332.247.247,0,0,1-.34.077Z" transform="translate(-72.117 -106.143)" fill="#eb996e"/>
      <path id="Trazado_107094" data-name="Trazado 107094" d="M152.418,129.312c-.046-8.416.24-17.343,4.8-24.422l-1.3-.394-.657.247a6.392,6.392,0,0,0-9.583,7.535,5.526,5.526,0,0,0-6.647,3.153,9.934,9.934,0,0,0,0,5.541,12.077,12.077,0,0,1,.247,5.549c-.487,1.8-2.2,3.439-4.05,3.146a4.583,4.583,0,0,0,4.3,3.864,9.058,9.058,0,0,1-4.088,2.96c2.319,2.759,6.438,3.192,9.978,2.55,2.1-.379,4.274-1.152,5.572-2.852C152.4,134.266,152.434,131.739,152.418,129.312Z" transform="translate(-54.646 -91.478)" fill="#344154"/>
      <path id="Trazado_107095" data-name="Trazado 107095" d="M149.554,147.889c-.232-.185-9.869-5.866-12.219,4.838s8.88,10.859,8.965,10.557S149.554,147.889,149.554,147.889Z" transform="translate(-55.051 -101.152)" fill="#ffbe9d"/>
      <path id="Trazado_107096" data-name="Trazado 107096" d="M145.953,159.787a3.5,3.5,0,0,1-.564.17,1.894,1.894,0,0,1-1.4-.278c-1.036-.665-1.6-2.666-1.221-4.637a6.314,6.314,0,0,1,1.105-2.558,2.21,2.21,0,0,1,1.716-1.121.966.966,0,0,1,.989.773c.077.332-.039.533,0,.564s.27-.131.278-.6a1.128,1.128,0,0,0-.27-.773,1.414,1.414,0,0,0-.974-.5,2.674,2.674,0,0,0-2.319,1.229,6.461,6.461,0,0,0-1.329,2.844c-.41,2.172.255,4.436,1.7,5.217a2.033,2.033,0,0,0,1.77.093C145.876,160.042,145.984,159.818,145.953,159.787Z" transform="translate(-56.149 -102.199)" fill="#eb996e"/>
      <path id="Trazado_107097" data-name="Trazado 107097" d="M142.251,127.457c-.039,0-.185-.479.147-1.283a4.119,4.119,0,0,1,2.736-2.195,12.677,12.677,0,0,1,5.155.193c1.847.3,3.988.371,5.495-1.09a9.05,9.05,0,0,0,2.373-5.3c.247-1.839.232-3.578.386-5.024.232-2.945,1.26-4.575,1.345-4.5a21.586,21.586,0,0,0-.773,4.544c-.077,1.422,0,3.138-.209,5.085a9.552,9.552,0,0,1-2.581,5.82,5.41,5.41,0,0,1-3.091,1.414,10.635,10.635,0,0,1-3.091-.178,13.1,13.1,0,0,0-4.892-.379,3.972,3.972,0,0,0-2.581,1.754,8.755,8.755,0,0,0-.417,1.136Z" transform="translate(-56.226 -92.529)" fill="#5e6178"/>
      <path id="Trazado_107098" data-name="Trazado 107098" d="M140.622,121.471c-.046,0-.147-.371-.062-1.043a4.738,4.738,0,0,1,1.291-2.566,4.9,4.9,0,0,1,1.669-1.152,5.673,5.673,0,0,1,2.319-.379,6.052,6.052,0,0,0,2.234-.255,2.512,2.512,0,0,0,1.322-1.739c.255-.773.371-1.669.626-2.512a13.14,13.14,0,0,1,.943-2.319,12.15,12.15,0,0,1,2.566-3.339,3.022,3.022,0,0,1,2.751-.827c.7.2.9.6.858.618a3.316,3.316,0,0,0-.92-.294,2.759,2.759,0,0,0-2.28.951,12.953,12.953,0,0,0-3.091,5.41c-.232.773-.332,1.638-.618,2.543a3.331,3.331,0,0,1-1.824,2.218,6.368,6.368,0,0,1-2.558.271,4.552,4.552,0,0,0-3.54,1.175A6.3,6.3,0,0,0,140.622,121.471Z" transform="translate(-55.85 -91.852)" fill="#5e6178"/>
      <path id="Trazado_107099" data-name="Trazado 107099" d="M216.149,108.811a2.319,2.319,0,0,1-2.156-.688,6.438,6.438,0,0,1-1.546-2.249,9.027,9.027,0,0,0-1.839-2.86,7.613,7.613,0,0,0-8.092-1.7c-1.546.58-3.091,1.546-4.915,2.257a7.149,7.149,0,0,1-2.983.479,5.966,5.966,0,0,1-2.914-1.128c-1.708-1.213-2.883-2.8-4.351-3.864a13.772,13.772,0,0,0-4.7-2.319,13.587,13.587,0,0,0-8.749.5A15.14,15.14,0,0,0,168.9,100.6a18.448,18.448,0,0,1-1.546,1.677c-.1-.039.07-.2.263-.533a11.99,11.99,0,0,1,1.043-1.3,14.166,14.166,0,0,1,5.016-3.687,13.911,13.911,0,0,1,9.182-.7,14.344,14.344,0,0,1,4.993,2.365c1.592,1.144,2.79,2.736,4.343,3.864a4.993,4.993,0,0,0,2.5.982,6.307,6.307,0,0,0,2.62-.417c1.7-.611,3.254-1.6,4.931-2.2a7.953,7.953,0,0,1,5.031-.232,8.455,8.455,0,0,1,3.764,2.257,9.1,9.1,0,0,1,1.839,3.091,6.384,6.384,0,0,0,1.306,2.2,3.091,3.091,0,0,0,1.963.85Z" transform="translate(-61.936 -89.649)" fill="#5e6178"/>
      <path id="Trazado_107100" data-name="Trazado 107100" d="M162.139,180.736c-.5-.155-.487-.958-.062-1.267a1.623,1.623,0,0,1,1.507-.046,5.9,5.9,0,0,0,1.484.5c.526.054,1.175-.085,1.507.332.448.564-.24,1.322-.41,2.025a3.547,3.547,0,0,0,.417,1.963,1.855,1.855,0,0,1-.093,1.932,1.492,1.492,0,0,1-1.445.309,9.706,9.706,0,0,1-1.438-.6c-1.182-.495-2.666-.626-3.362-1.7A1.963,1.963,0,0,1,162,181.153" transform="translate(-60.255 -108.657)" fill="#d9a171"/>
      <g id="Grupo_59684" data-name="Grupo 59684" transform="translate(19.35 210.073)" opacity="0.3">
        <path id="Trazado_107101" data-name="Trazado 107101" d="M152.553,402.76c-5.85-8.154-11.863-16.423-20.04-22.2-10.194-7.2-22.822-9.869-35.057-12.366L56,359.72l.7,11.152c4.011,4.405,8.679,5.75,14.491,7.056S83,379.536,88.9,380.355c21.053,2.906,40.745,12.458,58.111,24.731a7.579,7.579,0,0,0,3.64,1.677c1.322.077,2.852-.966,2.736-2.319a3.578,3.578,0,0,0-.835-1.685Z" transform="translate(-56 -359.72)"/>
      </g>
      <g id="Grupo_59685" data-name="Grupo 59685" transform="translate(34.545 128.096)" opacity="0.3">
        <path id="Trazado_107102" data-name="Trazado 107102" d="M81.093,315.308c1.917,1.067,4.235-.889,4.923-2.975s.541-4.428,1.546-6.361c1.152-2.149,3.509-3.331,5.124-5.147,2.094-2.319,2.844-5.588,3.045-8.718s-.07-6.283.3-9.4c.618-5.147,2.975-9.893,4.707-14.777a19.476,19.476,0,0,0-.216-14.282c-3.6,23.626-6.77,17.1-7.96,22.9s-.17,3.5-1.012,9.359c-1.592,11.114-9.753,14.213-15.89,23.611Z" transform="translate(-75.66 -253.65)"/>
      </g>
      <path id="Trazado_107103" data-name="Trazado 107103" d="M130.224,361.953,93.112,345.53,81.14,369.063l49.571,10.325Z" transform="translate(-42.36 -146.424)" fill="#ffbe9d"/>
      <path id="Trazado_107104" data-name="Trazado 107104" d="M85.6,202.135c-1.09,0-22.413-2.535-30.412,15.929s-19.909,62.988-19.909,62.988-4.807,3.733-3.547,7.729a13.174,13.174,0,0,0,3.146,5.665,13.332,13.332,0,0,0-3.362,12.814s-2.52,11.979,7.141,20.38l7.566,3.779s8.192,2.736,10.047,2.319,9.274,6.1,13.023,3.578L81.658,312.94s-7.358-7.35-10.72-9.274.216-1.051.216-1.051a8.78,8.78,0,0,0,3.571-7.35c-.209-4.83-1.26-4.83-1.26-4.83s7.141-3.571,7.141-7.149,4.915-31.865,4.915-31.865" transform="translate(-30.984 -113.826)" fill="#5e6178"/>
      <path id="Trazado_107105" data-name="Trazado 107105" d="M85.578,251.453a4.273,4.273,0,0,1-.108.773c-.108.518-.2,1.229-.356,2.172-.309,1.924-.773,4.738-1.368,8.37s-1.314,8.092-2.079,13.278c-.193,1.3-.386,2.643-.556,4.034-.1.7-.17,1.4-.247,2.118,0,.363-.046.719-.07,1.082a3.988,3.988,0,0,1-.209,1.128,5.874,5.874,0,0,1-1.206,1.955,13,13,0,0,1-1.708,1.615,25.837,25.837,0,0,1-4.088,2.643l-.085-.3a.664.664,0,0,1,.425.278,1.615,1.615,0,0,1,.232.363,3.865,3.865,0,0,1,.286.773,11.593,11.593,0,0,1,.309,1.623,14.684,14.684,0,0,1,.085,3.393,8.919,8.919,0,0,1-3.563,6.013l-.054.039H71.18a7.352,7.352,0,0,0-1-.162,1.545,1.545,0,0,0-.456,0h0a1.39,1.39,0,0,0,.147.155,20.287,20.287,0,0,0,1.778,1.128,36.589,36.589,0,0,1,3.478,2.69c2.257,1.932,4.483,4.027,6.708,6.221l.093.093-.062.116L69.5,337.417v.046h0a4.313,4.313,0,0,1-2.975.564,11.5,11.5,0,0,1-2.906-.842c-1.863-.773-3.609-1.832-5.41-2.728a6.707,6.707,0,0,0-1.376-.518,2.195,2.195,0,0,0-.711,0,4.307,4.307,0,0,1-.773,0,23.41,23.41,0,0,1-3.091-.58c-2.017-.5-4.019-1.105-6.021-1.754h0l-7.559-3.787h0a21.918,21.918,0,0,1-5.951-8.355,23.356,23.356,0,0,1-1.445-6.051,22.7,22.7,0,0,1,.155-6.183v.093a13.347,13.347,0,0,1,0-7.018,13.78,13.78,0,0,1,3.424-6.028v.294a12.073,12.073,0,0,1-2.257-3.331,18.16,18.16,0,0,1-.773-1.839,5.935,5.935,0,0,1-.286-.958,4.413,4.413,0,0,1-.124-1,6.662,6.662,0,0,1,1.237-3.71,13.14,13.14,0,0,1,2.589-2.852l-.07.108c3.926-14.4,7.829-27.73,11.593-39.593,1.9-5.928,3.772-11.485,5.673-16.593.951-2.55,1.917-4.985,2.929-7.288a26.177,26.177,0,0,1,3.864-6.1,25.211,25.211,0,0,1,9.923-7.056,34.052,34.052,0,0,1,8.865-2.172,40.245,40.245,0,0,1,5.711-.2c1.3.054,1.971.131,1.971.131h-.5l-1.468-.054a40.1,40.1,0,0,0-5.7.263,34.005,34.005,0,0,0-8.811,2.21,24.94,24.94,0,0,0-9.808,7.041,25.983,25.983,0,0,0-3.779,6.051c-1,2.319-1.955,4.73-2.9,7.28C50.854,230.014,49,235.571,47.113,241.5c-3.756,11.863-7.62,25.2-11.539,39.593v.054l-.046.046a12.659,12.659,0,0,0-2.5,2.72,6.33,6.33,0,0,0-1.167,3.5,3.37,3.37,0,0,0,.116.92,5.41,5.41,0,0,0,.27.912,17.539,17.539,0,0,0,.773,1.8,11.9,11.9,0,0,0,2.164,3.207l.147.147-.147.147a13.37,13.37,0,0,0-3.316,5.8,12.914,12.914,0,0,0,0,6.817v.093a22.181,22.181,0,0,0-.155,6.028,23.958,23.958,0,0,0,1.422,5.951,21.547,21.547,0,0,0,5.812,8.208h0l7.559,3.779h0c1.994.649,3.988,1.252,5.99,1.747a24.838,24.838,0,0,0,3.006.572,6.44,6.44,0,0,0,.773,0,2.427,2.427,0,0,1,.819,0,6.794,6.794,0,0,1,1.476.549c1.839.912,3.563,1.963,5.41,2.728a11.424,11.424,0,0,0,2.566.773,3.942,3.942,0,0,0,2.7-.495l-.062.07c4.313-8.571,8.5-16.825,12.366-24.36v.2c-2.218-2.187-4.436-4.289-6.677-6.183a34.653,34.653,0,0,0-3.439-2.666,18.776,18.776,0,0,1-1.8-1.167,1.493,1.493,0,0,1-.209-.232.332.332,0,0,1,0-.255.286.286,0,0,1,.247-.155,1.5,1.5,0,0,1,.587,0,9.621,9.621,0,0,1,1.051.178H71.18a8.687,8.687,0,0,0,3.447-5.781,14.483,14.483,0,0,0-.085-3.323,10.488,10.488,0,0,0-.294-1.546,4.552,4.552,0,0,0-.263-.773.989.989,0,0,0-.4-.487l-.394-.1.325-.17a25.572,25.572,0,0,0,4.019-2.574,12.7,12.7,0,0,0,1.677-1.546,5.611,5.611,0,0,0,1.167-1.87,9.567,9.567,0,0,0,.271-2.149c.077-.719.155-1.43.255-2.125.178-1.391.379-2.736.572-4.034.773-5.186,1.546-9.638,2.149-13.278l1.445-8.347c.17-.951.3-1.669.394-2.164A8.084,8.084,0,0,0,85.578,251.453Z" transform="translate(-30.963 -113.812)" fill="#344154"/>
      <path id="Trazado_107106" data-name="Trazado 107106" d="M71.68,355.39a58.942,58.942,0,0,1-2.9,6.268,58.275,58.275,0,0,1-3.261,6.09,62.234,62.234,0,0,1,2.906-6.268,59.706,59.706,0,0,1,3.254-6.09Z" transform="translate(-38.812 -148.664)" fill="#344154"/>
      <path id="Trazado_107107" data-name="Trazado 107107" d="M48.592,322.729a12.832,12.832,0,0,1-1.955-.216c-1.2-.162-2.852-.348-4.691-.448s-3.509-.085-4.714-.054a11.984,11.984,0,0,1-1.971,0,7.923,7.923,0,0,1,1.955-.294,35.691,35.691,0,0,1,9.437.5,7.419,7.419,0,0,1,1.94.51Z" transform="translate(-31.939 -140.99)" fill="#344154"/>
      <path id="Trazado_107108" data-name="Trazado 107108" d="M46.623,305.934a32.278,32.278,0,0,0-4.931-1.546,32.015,32.015,0,0,0-5.163-.348,4.584,4.584,0,0,1,1.546-.271,14.684,14.684,0,0,1,7.257,1.376,4.529,4.529,0,0,1,1.291.788Z" transform="translate(-32.227 -136.931)" fill="#344154"/>
      <path id="Trazado_107109" data-name="Trazado 107109" d="M75.7,302.75a6.452,6.452,0,0,1,1.778.912,17.536,17.536,0,0,1,3.625,3.091,18,18,0,0,1,2.666,3.918,6.3,6.3,0,0,1,.7,1.847,29.78,29.78,0,0,0-3.671-5.534A29.939,29.939,0,0,0,75.7,302.75Z" transform="translate(-41.124 -136.707)" fill="#344154"/>
      <path id="Trazado_107110" data-name="Trazado 107110" d="M167.811,370.894s3.864,5.024,5.99,6.4,6.863,5.7,6.546,7.311-4.413,2.736-5.634,2.133-5.024-2.9-5.024-2.9,1.677,5.333,2.434,5.634,14.939,11.84,14.939,11.84,2.9,4.266,0,5.48c0,0,1.067,4.266-.456,6.1h-1.979l-17.7-10.341-8.664-7.883s-15.295-9.112-15.388-10.82c-.108-1.546,1.368-17.057,1.368-17.057s13.409,2.133,14.321,1.979S164.511,367.54,167.811,370.894Z" transform="translate(-56.382 -151.253)" fill="#ffbe9d"/>
      <path id="Trazado_107111" data-name="Trazado 107111" d="M175.924,387.932c-.093.077-1.229-1.152-2.813-2.473s-2.975-2.241-2.921-2.319a10.457,10.457,0,0,1,3.184,2.033,10.325,10.325,0,0,1,2.55,2.759Z" transform="translate(-62.587 -154.967)" fill="#eb996e"/>
      <path id="Trazado_107112" data-name="Trazado 107112" d="M169.4,398.194a5.533,5.533,0,0,1-3.146-1.329,5.6,5.6,0,0,1-2.1-2.705,21.826,21.826,0,0,0,2.319,2.388A20.921,20.921,0,0,0,169.4,398.194Z" transform="translate(-61.215 -157.47)" fill="#eb996e"/>
      <path id="Trazado_107113" data-name="Trazado 107113" d="M194.041,414.7a5.7,5.7,0,0,1-.912-.479c-.58-.325-1.407-.811-2.427-1.422-2.04-1.221-4.838-2.937-7.868-4.931s-5.7-3.864-7.589-5.348c-.943-.727-1.693-1.329-2.2-1.754a4.776,4.776,0,0,1-.773-.7,6.423,6.423,0,0,1,.858.58l2.272,1.646c1.924,1.391,4.637,3.261,7.644,5.248s5.8,3.741,7.79,5.024l2.357,1.546a4.947,4.947,0,0,1,.85.6Z" transform="translate(-63.06 -158.81)" fill="#eb996e"/>
      <path id="Trazado_107114" data-name="Trazado 107114" d="M186.7,383.64a1.159,1.159,0,0,0-.734,1.2,7.419,7.419,0,0,0,.363,1.468,1.693,1.693,0,0,1-.155,1.453c-.34.44-1.012.556-1.306,1.028a1.136,1.136,0,0,0,.07,1.206,1.948,1.948,0,0,0,1,.711,3.192,3.192,0,0,0,3.864-1.724,1.994,1.994,0,0,0-.271-2.125,8.5,8.5,0,0,0-2.805-3.192" transform="translate(-65.89 -155.081)" fill="#d9a171"/>
      <path id="Trazado_107115" data-name="Trazado 107115" d="M246.29,417.811s1.94.425,2.8-.541a1.863,1.863,0,0,0,.108-2.156l1.19-1.723a2.512,2.512,0,0,0-.108-3.091,2.867,2.867,0,0,0,2.8-1.94c.974-2.156-.858-4.2-.858-4.2s2.473-1.723,2.365-3.864-4.3-3.663-5.6-5.348a9.683,9.683,0,0,0-2.69-2.45s.433-.6,2.906.9,3.447,1.546,3.447,1.546c3.022-.819,3.455-3.269,1.94-4.452a20.457,20.457,0,0,1-3.091-3.447l-8.246-2.543a18.154,18.154,0,0,0-5.41,1.623A63.121,63.121,0,0,0,231.8,389.8L222.981,376l-14.63,12.01-5.1,6.075L223.823,409.2s1.4,2.411,2.272,3.563S246.29,417.811,246.29,417.811Z" transform="translate(-70.097 -153.345)" fill="#ffbe9d"/>
      <path id="Trazado_107116" data-name="Trazado 107116" d="M109.85,465.938c0-1.244,1.816-9.112,3.03-10.928s6.453-3.223,6.453-3.223,5.41-9.042,8.671-8.957c2.458.062,11.353,2.064,15.457,3.014a3.771,3.771,0,0,1,2.72,2.543l5.364,17.552Z" transform="translate(-48.881 -168.525)" fill="#d9a171"/>
      <path id="Trazado_107117" data-name="Trazado 107117" d="M96.62,477.827s2.79-3.2,3.254-3.316c.232-.062,1.546-.549,2.759-1.02a2.458,2.458,0,0,1,3.176,1.414v.062l1.012,2.86Z" transform="translate(-45.876 -175.453)" fill="#d9a171"/>
      <path id="Trazado_107118" data-name="Trazado 107118" d="M198.319,449.364a4.7,4.7,0,0,1-1.043,0,16.768,16.768,0,0,1-2.836-.433,19.082,19.082,0,0,1-13.625-12.049,16.232,16.232,0,0,1-.773-2.759,4.336,4.336,0,0,1-.131-1.043c.085,0,.278,1.476,1.159,3.7a19.77,19.77,0,0,0,13.432,11.91C196.828,449.248,198.327,449.248,198.319,449.364Z" transform="translate(-64.795 -166.311)" fill="#344154"/>
      <path id="Trazado_107119" data-name="Trazado 107119" d="M198.034,445.525a3.764,3.764,0,0,1-.773-.131,15.032,15.032,0,0,1-2.079-.641,21.462,21.462,0,0,1-2.921-1.383,20.689,20.689,0,0,1-5.959-5.178,19.4,19.4,0,0,1-1.785-2.7,14.269,14.269,0,0,1-.92-1.971,3.007,3.007,0,0,1-.247-.773c.07,0,.487,1.028,1.414,2.589a22.571,22.571,0,0,0,1.824,2.612,22.227,22.227,0,0,0,5.858,5.085,22.753,22.753,0,0,0,2.836,1.445C196.945,445.2,198.05,445.448,198.034,445.525Z" transform="translate(-65.577 -166.236)" fill="#344154"/>
      <path id="Trazado_107120" data-name="Trazado 107120" d="M266.461,470.379c0,4.459-21.184,8.076-47.322,8.076s-47.979-3.771-47.979-8.231c0-.665.232-5.889.232-5.889,5.054-3.532,25.5-2.025,47.747-2.025,21.988,0,41.332-1.608,46.657,1.855C265.8,464.142,266.461,469.653,266.461,470.379Z" transform="translate(-62.808 -172.866)" fill="#344154"/>
      <ellipse id="Elipse_4228" data-name="Elipse 4228" cx="47.314" cy="8.069" rx="47.314" ry="8.069" transform="translate(108.352 284.182)" fill="#5e6178"/>
      <path id="Trazado_107121" data-name="Trazado 107121" d="M248.136,395.849a27.259,27.259,0,1,0-38.875,24.662v6.871H233.15s.147-3.864.2-7.3A27.235,27.235,0,0,0,248.136,395.849Z" transform="translate(-67.908 -151.662)" fill="#d9a171"/>
      <g id="Grupo_59686" data-name="Grupo 59686" transform="translate(138.357 244.25)" opacity="0.3">
        <path id="Trazado_107122" data-name="Trazado 107122" d="M228.235,435.28v-.34c0-.224.062-.556.108-.982.108-.866.263-2.141.5-3.772s.564-3.632,1.082-5.928a41.4,41.4,0,0,1,2.473-7.582,26.493,26.493,0,0,1,2.241-4.081,5.093,5.093,0,0,1,1.863-1.654,2.79,2.79,0,0,1,2.589.077,1.893,1.893,0,0,1,.773,2.481,3.864,3.864,0,0,1-2.1,1.816,7.5,7.5,0,0,1-9.46-4.769.84.84,0,0,0-.054-.185,5.7,5.7,0,0,1-.162-3.138,2.435,2.435,0,0,1,2.473-1.894,1.739,1.739,0,0,1,1.391.958,2.473,2.473,0,0,1,.216,1.677,5.286,5.286,0,0,1-1.917,2.713,8.107,8.107,0,0,1-6.345,1.809,7.072,7.072,0,0,1-5.271-3.926,4.127,4.127,0,0,1-.185-3.3,2.094,2.094,0,0,1,1.2-1.206,2.025,2.025,0,0,1,1.677.155,2.643,2.643,0,0,1,1.152,1.19,4.3,4.3,0,0,1,.417,1.546,7.767,7.767,0,0,1-.417,3.091,8.107,8.107,0,0,1-3.864,4.568,8.269,8.269,0,0,1-5.642.773,4.313,4.313,0,0,1-2.45-1.306,2.118,2.118,0,0,1-.155-2.628,1.762,1.762,0,0,1,1.229-.6,2.512,2.512,0,0,1,1.3.255,3.864,3.864,0,0,1,1.669,1.87c.68,1.476,1.237,2.914,1.793,4.282,2.179,5.495,3.725,10.047,4.761,13.139.518,1.546.9,2.79,1.152,3.625l.286.943c.062.216.085.325.085.325a2.206,2.206,0,0,1-.116-.317c-.077-.216-.178-.533-.317-.935-.278-.835-.688-2.048-1.213-3.6-1.074-3.091-2.651-7.636-4.861-13.139-.556-1.36-1.121-2.813-1.8-4.258a3.694,3.694,0,0,0-1.546-1.747,1.863,1.863,0,0,0-2.195.278,1.824,1.824,0,0,0,.155,2.264,4,4,0,0,0,2.319,1.2,7.968,7.968,0,0,0,5.41-.773,7.783,7.783,0,0,0,3.687-4.405,7.52,7.52,0,0,0,.394-2.983,2.944,2.944,0,0,0-1.4-2.5,1.693,1.693,0,0,0-1.407-.131,1.723,1.723,0,0,0-1,1.02,3.864,3.864,0,0,0,.178,3.037,6.747,6.747,0,0,0,5.024,3.741,7.845,7.845,0,0,0,6.09-1.77,5.031,5.031,0,0,0,1.8-2.527,2.148,2.148,0,0,0-.2-1.43,1.43,1.43,0,0,0-1.128-.773,1.948,1.948,0,0,0-1.353.433,2.357,2.357,0,0,0-.773,1.221,5.41,5.41,0,0,0,.162,2.983,7.273,7.273,0,0,0,3.679,4.367,7.18,7.18,0,0,0,5.41.4,3.571,3.571,0,0,0,1.955-1.662,1.615,1.615,0,0,0-.634-2.118,2.558,2.558,0,0,0-2.319-.077,4.776,4.776,0,0,0-1.77,1.584,26.5,26.5,0,0,0-2.234,4.019,41.043,41.043,0,0,0-2.5,7.535c-.533,2.28-.873,4.274-1.136,5.9s-.433,2.89-.564,3.764c-.062.417-.108.773-.147.982a3.5,3.5,0,0,0-.046.417Z" transform="translate(-209.983 -403.943)"/>
      </g>
      <path id="Trazado_107123" data-name="Trazado 107123" d="M235.907,452.1H215.4a1.546,1.546,0,0,0,0,3.091h2.257l2.983,5.688a1.986,1.986,0,0,0,1.754,1.051h7.327a1.971,1.971,0,0,0,1.762-1.074l2.9-5.665h1.546a1.546,1.546,0,0,0,0-3.091Z" transform="translate(-72.505 -170.631)" fill="#d9a171"/>
      <path id="Trazado_107124" data-name="Trazado 107124" d="M211.877,444.63c-1.654.541-4.83,4.861-4.475,8.138.332,3.03,1.654,6.307,2.141,6.361a4.969,4.969,0,0,0-4.382,5.495,2.233,2.233,0,0,0,.062.386l31.958-.471-1.414-19.909Z" transform="translate(-70.524 -168.934)" fill="#d9a171"/>
      <path id="Trazado_107125" data-name="Trazado 107125" d="M236.946,444.282H213.111a1.221,1.221,0,0,1-1.221-1.221h0a1.221,1.221,0,0,1,1.221-1.221h23.835a1.221,1.221,0,0,1,1.221,1.221h0a1.221,1.221,0,0,1-1.221,1.221Z" transform="translate(-72.059 -168.301)" fill="#d9a171"/>
      <path id="Trazado_107126" data-name="Trazado 107126" d="M237.114,441.282H213.271a1.221,1.221,0,0,1-1.221-1.221h0a1.221,1.221,0,0,1,1.221-1.221h23.843a1.213,1.213,0,0,1,1.213,1.213h0a1.213,1.213,0,0,1-1.206,1.221Z" transform="translate(-72.096 -167.619)" fill="#d9a171"/>
      <path id="Trazado_107127" data-name="Trazado 107127" d="M244.522,443.44c.155.7,1.376,10.681,1.546,11.376a4.181,4.181,0,0,1,5.132-.116,6.569,6.569,0,0,1,2.465,4.792,5.526,5.526,0,0,1,8.88,4.575H243.61Z" transform="translate(-79.264 -168.664)" fill="#d9a171"/>
      <g id="Grupo_59687" data-name="Grupo 59687" transform="translate(141.57 271.082)" opacity="0.3">
        <path id="Trazado_107128" data-name="Trazado 107128" d="M236.877,438.861c0,.108-5.085.2-11.369.2s-11.369-.093-11.369-.2,5.093-.2,11.369-.2S236.877,438.753,236.877,438.861Z" transform="translate(-214.14 -438.66)"/>
      </g>
      <g id="Grupo_59688" data-name="Grupo 59688" transform="translate(141.855 273.462)" opacity="0.3">
        <path id="Trazado_107129" data-name="Trazado 107129" d="M237.247,441.941c0,.108-5.085.2-11.369.2s-11.369-.093-11.369-.2,5.093-.2,11.369-.2S237.247,441.833,237.247,441.941Z" transform="translate(-214.51 -441.74)"/>
      </g>
      <g id="Grupo_59689" data-name="Grupo 59689" transform="translate(142.141 275.781)" opacity="0.3">
        <path id="Trazado_107130" data-name="Trazado 107130" d="M237.617,444.941c0,.116-5.085.2-11.369.2s-11.369-.085-11.369-.2,5.093-.2,11.369-.2S237.617,444.833,237.617,444.941Z" transform="translate(-214.88 -444.74)"/>
      </g>
      <g id="Grupo_59690" data-name="Grupo 59690" transform="translate(145.349 277.999)" opacity="0.3">
        <path id="Trazado_107131" data-name="Trazado 107131" d="M240.338,465.216a5.619,5.619,0,0,0-1.306-1.7,5.069,5.069,0,0,0-2.187-1.059,4.344,4.344,0,0,0-3.091.425l-.255.147v-.294a6.662,6.662,0,0,0-1.128-3.609,6.33,6.33,0,0,0-3.346-2.566,6.693,6.693,0,0,0-5.062.363l-.317.155.039-.355a8.958,8.958,0,0,0-.556-4.251,9.375,9.375,0,0,0-1.778-2.906,12.491,12.491,0,0,0-2.319-1.955,3.185,3.185,0,0,1,.773.355,8.425,8.425,0,0,1,1.785,1.438,9.367,9.367,0,0,1,1.893,2.952,8.981,8.981,0,0,1,.641,4.413l-.278-.193a7.033,7.033,0,0,1,5.364-.41,6.716,6.716,0,0,1,3.547,2.736,7.071,7.071,0,0,1,1.152,3.826l-.216-.131a4.637,4.637,0,0,1,3.285-.394,5.039,5.039,0,0,1,2.257,1.175,4.2,4.2,0,0,1,.989,1.306,2.7,2.7,0,0,1,.116.533Z" transform="translate(-219.03 -447.61)"/>
      </g>
      <path id="Trazado_107132" data-name="Trazado 107132" d="M209.393,375.08c0,.062-1.02.773-2.558,2.056A27.276,27.276,0,0,0,204.3,379.6a30.649,30.649,0,0,0-2.659,3.416,32.379,32.379,0,0,0-2.11,3.787,27.977,27.977,0,0,0-1.275,3.3c-.611,1.924-.819,3.169-.9,3.153a4.212,4.212,0,0,1,.093-.881,18.874,18.874,0,0,1,.526-2.319,24.732,24.732,0,0,1,1.221-3.37,25.713,25.713,0,0,1,4.838-7.342,25.422,25.422,0,0,1,2.635-2.442,18.351,18.351,0,0,1,1.955-1.4,3.631,3.631,0,0,1,.765-.425Z" transform="translate(-68.759 -153.136)" fill="#fff"/>
      <path id="Trazado_107133" data-name="Trazado 107133" d="M262.558,404.13a4.2,4.2,0,0,0-2.6,6.538,3.517,3.517,0,0,0-2.96,4,3.625,3.625,0,0,0,.518,1.376,1.9,1.9,0,0,0-2.319,2.805,2.172,2.172,0,0,0-2.4,1.77c-.162,1.1.186,2.72,1.283,2.86l3.478.726,4.405-10.4,1.994-6.956Z" transform="translate(-81.341 -159.735)" fill="#ffbe9d"/>
      <g id="Grupo_59691" data-name="Grupo 59691" transform="translate(153.757 278.231)" opacity="0.3">
        <path id="Trazado_107134" data-name="Trazado 107134" d="M238.172,447.91a17.235,17.235,0,0,0-3.215,4.1,2.451,2.451,0,0,1-.773.866,2.234,2.234,0,0,1-1.012.348,6.725,6.725,0,0,1-1.716-.1,12.863,12.863,0,0,0-1.546-.1,2.472,2.472,0,0,1,1.546-.186,7.258,7.258,0,0,0,1.638,0,2.063,2.063,0,0,0,.835-.309,2.249,2.249,0,0,0,.626-.773,10.951,10.951,0,0,1,2.319-3,3.864,3.864,0,0,1,1.3-.85Z" transform="translate(-229.91 -447.91)"/>
      </g>
      <path id="Trazado_107135" data-name="Trazado 107135" d="M260.275,436.78a1.306,1.306,0,0,1,.216.525,5.8,5.8,0,0,1,.224,1.546,6.848,6.848,0,0,1-6.221,7.01,6.46,6.46,0,0,1-1.546-.046,1.493,1.493,0,0,1-.549-.155,16.564,16.564,0,0,0,2.056-.085,6.9,6.9,0,0,0,5.974-6.724A18.557,18.557,0,0,0,260.275,436.78Z" transform="translate(-81.261 -167.151)" fill="#344154"/>
      <path id="Trazado_107136" data-name="Trazado 107136" d="M264.542,430.11a3.222,3.222,0,0,1,.773.518,6.91,6.91,0,0,1,1.623,1.948,8.765,8.765,0,0,1,1.144,3.586,9.228,9.228,0,0,1-.711,4.56,10.048,10.048,0,0,1-2.836,3.632,11.384,11.384,0,0,1-3.277,1.863,10.819,10.819,0,0,1-2.458.611,3.333,3.333,0,0,1-.92.039,21.037,21.037,0,0,0,3.277-.912,11.894,11.894,0,0,0,3.138-1.886,9.946,9.946,0,0,0,2.7-3.509,9.1,9.1,0,0,0-.309-7.844,10.092,10.092,0,0,0-2.149-2.6Z" transform="translate(-82.506 -165.636)" fill="#344154"/>
    </g>
  </g>
</svg>
