<svg xmlns="http://www.w3.org/2000/svg" width="500" height="431.22" viewBox="0 0 500 431.22">
  <g id="Capa_2" data-name="Capa 2" transform="translate(2.68 -47)">
    <g id="freepik--background-complete--inject-72">
      <rect id="Rectángulo_8802" data-name="Rectángulo 8802" width="500" height="0.25" transform="translate(-2.68 433.06)" fill="#d9a171"/>
      <rect id="Rectángulo_8803" data-name="Rectángulo 8803" width="33.12" height="0.25" transform="translate(408.09 442.58)" fill="#d9a171"/>
      <rect id="Rectángulo_8804" data-name="Rectángulo 8804" width="49.86" height="0.25" transform="translate(128.79 445.97)" fill="#d9a171"/>
      <rect id="Rectángulo_8805" data-name="Rectángulo 8805" width="29.53" height="0.25" transform="translate(377.56 451.87)" fill="#d9a171"/>
      <rect id="Rectángulo_8806" data-name="Rectángulo 8806" width="21.6" height="0.25" transform="translate(49.78 450.19)" fill="#d9a171"/>
      <rect id="Rectángulo_8807" data-name="Rectángulo 8807" width="38.37" height="0.25" transform="translate(80.28 450.19)" fill="#d9a171"/>
      <rect id="Rectángulo_8808" data-name="Rectángulo 8808" width="93.68" height="0.25" transform="translate(234.86 439.87)" fill="#d9a171"/>
      <path id="Trazado_108270" data-name="Trazado 108270" d="M234.32,329.83H41.23a5.71,5.71,0,0,1-5.7-5.71V52.69A5.71,5.71,0,0,1,41.23,47H234.32A5.7,5.7,0,0,1,240,52.74h0V324.12a5.71,5.71,0,0,1-5.68,5.71ZM41.23,47.23a5.46,5.46,0,0,0-5.45,5.46V324.12a5.46,5.46,0,0,0,5.45,5.46H234.32a5.47,5.47,0,0,0,5.46-5.46V52.69a5.45,5.45,0,0,0-5.46-5.46Z" fill="#d9a171"/>
      <path id="Trazado_108271" data-name="Trazado 108271" d="M450.63,329.83H257.53a5.73,5.73,0,0,1-5.71-5.71V52.69A5.72,5.72,0,0,1,257.53,47h193.1a5.7,5.7,0,0,1,5.69,5.66V324.12a5.71,5.71,0,0,1-5.69,5.71ZM257.53,47.23a5.47,5.47,0,0,0-5.46,5.46V324.12a5.48,5.48,0,0,0,5.46,5.46h193.1a5.47,5.47,0,0,0,5.46-5.46V52.69a5.45,5.45,0,0,0-5.46-5.46Z" fill="#d9a171"/>
      <rect id="Rectángulo_8809" data-name="Rectángulo 8809" width="175.11" height="181.78" rx="12" transform="translate(269.81 71.47)" fill="#f7f2ef"/>
      <circle id="Elipse_4259" data-name="Elipse 4259" cx="13.83" cy="13.83" r="13.83" transform="translate(391.7 154.33)" fill="#f2e9e4"/>
      <circle id="Elipse_4260" data-name="Elipse 4260" cx="13.83" cy="13.83" r="13.83" transform="translate(355.49 154.33)" fill="#fff"/>
      <path id="Trazado_108272" data-name="Trazado 108272" d="M370.5,290.9a49.37,49.37,0,1,1,49.36-49.37v-.01A49.41,49.41,0,0,1,370.5,290.9Zm0-97.74a48.37,48.37,0,1,0,48.36,48.37v.01A48.42,48.42,0,0,0,370.5,193.16Z" fill="#fff"/>
      <path id="Trazado_108273" data-name="Trazado 108273" d="M372.63,341.33a34.129,34.129,0,0,0-33.569,28c-1.321,7.325-2.631,14.635-4.4,21.855l-10.34,42.13h96.6L410.6,391.16c-1.77-7.22-3.07-14.53-4.4-21.85a34.13,34.13,0,0,0-33.57-27.98Z" fill="#e0e0e0"/>
      <path id="Trazado_108274" data-name="Trazado 108274" d="M378,341.33a34.129,34.129,0,0,0-33.569,28c-1.331,7.325-2.641,14.635-4.4,21.855L329.7,433.33h96.59l-10.33-42.17c-1.76-7.22-3.07-14.53-4.39-21.85A34.13,34.13,0,0,0,378,341.33Z" fill="#f0d9c6"/>
      <path id="Trazado_108275" data-name="Trazado 108275" d="M166.13,179.16h0a17.25,17.25,0,0,1,20.75-12.7l155,37.31a17.26,17.26,0,0,1,12.7,20.75h0a17.24,17.24,0,0,1-20.75,12.7l-155-37.31A17.24,17.24,0,0,1,166.13,179.16Z" fill="#e0e0e0"/>
      <path id="Trazado_108276" data-name="Trazado 108276" d="M169.12,177.33h0a17.25,17.25,0,0,1,20.75-12.67l155,37.31a17.24,17.24,0,0,1,12.66,20.69h0a17.25,17.25,0,0,1-20.75,12.7l-155-37.31a17.27,17.27,0,0,1-12.66-20.72Z" fill="#d9a171"/>
      <path id="Trazado_108277" data-name="Trazado 108277" d="M189.91,182.33h0a8.88,8.88,0,0,1,10.67-6.53L330.21,207a8.88,8.88,0,0,1,6.53,10.65h0a8.87,8.87,0,0,1-10.67,6.53L196.44,193a8.88,8.88,0,0,1-6.53-10.67Z" fill="#e0e0e0"/>
      <path id="Trazado_108278" data-name="Trazado 108278" d="M169.46,178.84a36,36,0,0,0-31.8-10c-10.47,1.82-14.34,14.82-6.86,22.37l26.29,26.29c7.51,7.51,20.55,3.61,22.39-6.85A36,36,0,0,0,169.46,178.84Z" fill="#f5f5f5"/>
      <path id="Trazado_108279" data-name="Trazado 108279" d="M108.89,294V284a44.59,44.59,0,1,0-44.57-44.61h-10a54.59,54.59,0,1,1,54.6,54.61h-.007Z" fill="#d9a171"/>
      <path id="Trazado_108280" data-name="Trazado 108280" d="M138.53,209.77c3.54,3.54,9.53,3.82,15.78,1.34,5.84-2.32,9.59-9.8,6.52-12.88l-10.76-10.75c-3.08-3.08-10.56.67-12.87,6.51C134.72,200.25,135,206.23,138.53,209.77Z" fill="#f5f5f5"/>
      <circle id="Elipse_4261" data-name="Elipse 4261" cx="11" cy="11" r="11" transform="translate(158.46 167.84)" fill="#fafafa"/>
      <rect id="Rectángulo_8810" data-name="Rectángulo 8810" width="51.93" height="193.8" rx="22.54" transform="translate(292.621 200.838) rotate(-20.75)" fill="#e0e0e0"/>
      <rect id="Rectángulo_8811" data-name="Rectángulo 8811" width="51.93" height="193.8" rx="22.54" transform="translate(297.955 200.84) rotate(-20.75)" fill="#a66d58"/>
      <path id="Trazado_108281" data-name="Trazado 108281" d="M379.77,354.5a1.65,1.65,0,0,1-1.49-1l-52.7-139.07a1.61,1.61,0,0,1,.89-2l6.41-2.43a1.411,1.411,0,0,1,.49-.09,1.61,1.61,0,0,1,1.49,1L387.56,350a1.59,1.59,0,0,1-.89,2l-6.41,2.43a1.33,1.33,0,0,1-.49.07Z" fill="#e0e0e0"/>
      <path id="Trazado_108282" data-name="Trazado 108282" d="M389.13,341.33a34.129,34.129,0,0,0-33.569,28c-1.321,7.325-2.631,14.635-4.4,21.855l-10.32,42.15h96.58L427.1,391.16c-1.77-7.22-3.07-14.53-4.4-21.85A34.13,34.13,0,0,0,389.13,341.33Z" fill="#e0e0e0"/>
      <path id="Trazado_108283" data-name="Trazado 108283" d="M394.47,341.33a34.129,34.129,0,0,0-33.569,28c-1.331,7.325-2.641,14.635-4.4,21.855l-10.33,42.15h96.59l-10.33-42.17c-1.76-7.22-3.07-14.53-4.39-21.85a34.13,34.13,0,0,0-33.57-27.98Z" fill="#f5f5f5"/>
      <circle id="Elipse_4262" data-name="Elipse 4262" cx="23.82" cy="23.82" r="23.82" transform="translate(307.86 192.66)" fill="#f2e9e4"/>
      <path id="Trazado_108284" data-name="Trazado 108284" d="M331.67,235.82A19.35,19.35,0,1,1,351,216.46h0a19.37,19.37,0,0,1-19.33,19.36Zm0-37.75a18.41,18.41,0,1,0,18.41,18.41A18.41,18.41,0,0,0,331.67,198.07Z" fill="#e0e0e0"/>
      <rect id="Rectángulo_8812" data-name="Rectángulo 8812" width="69.83" height="65.4" transform="translate(69.53 367.66)" fill="#f5f5f5"/>
      <rect id="Rectángulo_8813" data-name="Rectángulo 8813" width="21" height="65.4" transform="translate(48.53 367.66)" fill="#f0d9c6"/>
      <rect id="Rectángulo_8814" data-name="Rectángulo 8814" width="59.41" height="40.22" transform="translate(73.2 327.44)" fill="#a66d58"/>
      <rect id="Rectángulo_8815" data-name="Rectángulo 8815" width="17.87" height="40.22" transform="translate(132.61 327.44)" fill="#e0e0e0"/>
      <rect id="Rectángulo_8816" data-name="Rectángulo 8816" width="51.69" height="60.74" transform="translate(171.34 372.32)" fill="#f0d9c6"/>
      <path id="Trazado_108285" data-name="Trazado 108285" d="M218,427H176.4V378.34H218Zm-40.58-1H217V379.34H177.4Z" fill="#f5f5f5"/>
      <rect id="Rectángulo_8817" data-name="Rectángulo 8817" width="15.54" height="60.74" transform="translate(223.03 372.31)" fill="#f5f5f5"/>
      <rect id="Rectángulo_8818" data-name="Rectángulo 8818" width="51.69" height="60.75" transform="translate(41.65 239.41)" fill="#f0d9c6"/>
      <rect id="Rectángulo_8819" data-name="Rectángulo 8819" width="15.54" height="60.75" transform="translate(93.34 239.42)" fill="#f5f5f5"/>
    </g>
    <g id="freepik--Shadow--inject-72">
      <ellipse id="freepik--path--inject-72" cx="193.89" cy="11.32" rx="193.89" ry="11.32" transform="translate(53.43 455.58)" fill="#f5f5f5"/>
    </g>
    <g id="freepik--assembly-line--inject-72">
      <path id="Trazado_108286" data-name="Trazado 108286" d="M155.19,329H249v-9.39H155.19a4.69,4.69,0,0,0-4.69,4.69h0a4.7,4.7,0,0,0,4.68,4.7Z" fill="#344154"/>
      <rect id="Rectángulo_8820" data-name="Rectángulo 8820" width="5.98" height="136.61" transform="translate(191.43 328.95)" fill="#6595bf"/>
      <rect id="Rectángulo_8821" data-name="Rectángulo 8821" width="5.98" height="136.61" transform="translate(191.43 328.95)" fill="#fff" opacity="0.7"/>
      <rect id="Rectángulo_8822" data-name="Rectángulo 8822" width="5.98" height="136.61" transform="translate(161.75 328.95)" fill="#6595bf"/>
      <rect id="Rectángulo_8823" data-name="Rectángulo 8823" width="5.98" height="136.61" transform="translate(161.75 328.95)" fill="#fff" opacity="0.7"/>
      <circle id="Elipse_4263" data-name="Elipse 4263" cx="3.05" cy="3.05" r="3.05" transform="translate(152.14 321.21)" fill="#6595bf"/>
      <path id="Trazado_108287" data-name="Trazado 108287" d="M165.54,324.26a3,3,0,1,0,0-.05Z" fill="#6595bf"/>
      <circle id="Elipse_4264" data-name="Elipse 4264" cx="3.05" cy="3.05" r="3.05" transform="translate(178.94 321.21)" fill="#6595bf"/>
      <circle id="Elipse_4265" data-name="Elipse 4265" cx="3.05" cy="3.05" r="3.05" transform="translate(192.34 321.21)" fill="#6595bf"/>
      <circle id="Elipse_4266" data-name="Elipse 4266" cx="3.05" cy="3.05" r="3.05" transform="translate(205.73 321.21)" fill="#6595bf"/>
      <circle id="Elipse_4267" data-name="Elipse 4267" cx="3.05" cy="3.05" r="3.05" transform="translate(219.13 321.21)" fill="#6595bf"/>
      <circle id="Elipse_4268" data-name="Elipse 4268" cx="3.05" cy="3.05" r="3.05" transform="translate(232.53 321.21)" fill="#6595bf"/>
      <path id="Trazado_108288" data-name="Trazado 108288" d="M249,321.22v6.09a3.045,3.045,0,1,1,0-6.09Z" fill="#6595bf"/>
      <rect id="Rectángulo_8824" data-name="Rectángulo 8824" width="6.21" height="1" transform="translate(288.76 215.23)" fill="#6595bf"/>
      <rect id="Rectángulo_8825" data-name="Rectángulo 8825" width="20" height="1" transform="translate(262.99 215.23)" fill="#6595bf"/>
      <path id="Trazado_108289" data-name="Trazado 108289" d="M224.55,218.73h96.21a8.2,8.2,0,0,1,8.21,8.21V465.56H216.32V226.94a8.21,8.21,0,0,1,8.21-8.21Z" fill="#6595bf"/>
      <path id="Trazado_108290" data-name="Trazado 108290" d="M247.5,291.16H216.34v-.93h30.24v-71.5h.92Z" fill="#fff" opacity="0.2"/>
      <path id="Trazado_108291" data-name="Trazado 108291" d="M303.18,218.73h17.58a8.2,8.2,0,0,1,8.21,8.21V465.56H295V226.94a8.21,8.21,0,0,1,8.21-8.21Z" fill="#344154" opacity="0.4"/>
      <path id="Trazado_108292" data-name="Trazado 108292" d="M305.8,259.66h12.35a4,4,0,0,1,4,4v75.16H301.81V263.66A4,4,0,0,1,305.8,259.66Z" fill="#6595bf"/>
      <path id="Trazado_108293" data-name="Trazado 108293" d="M305.8,259.66h10.7a4,4,0,0,1,4,4v75.16H301.81V263.66a4,4,0,0,1,4-4Z" fill="#5e6178"/>
      <path id="Trazado_108294" data-name="Trazado 108294" d="M294.97,452.11H260.11V339.4h34.86v.92H261.03V451.19h33.94Z" fill="#fff" opacity="0.2"/>
      <path id="Trazado_108295" data-name="Trazado 108295" d="M246.76,452.11a5.83,5.83,0,1,1,5.84-5.83,5.83,5.83,0,0,1-5.84,5.83Zm0-10.74a4.91,4.91,0,1,0,4.91,4.91,4.91,4.91,0,0,0-4.91-4.91Z" fill="#fff" opacity="0.2"/>
      <path id="Trazado_108296" data-name="Trazado 108296" d="M231.17,452.11a5.83,5.83,0,1,1,5.83-5.83h0a5.83,5.83,0,0,1-5.83,5.83Zm0-10.74a4.91,4.91,0,1,0,4.91,4.91,4.91,4.91,0,0,0-4.91-4.91Z" fill="#fff" opacity="0.2"/>
      <path id="Trazado_108297" data-name="Trazado 108297" d="M425.23,329H331.44v-9.39h93.79a4.69,4.69,0,0,1,4.69,4.69h0a4.69,4.69,0,0,1-4.68,4.7Z" fill="#6595bf"/>
      <path id="Trazado_108298" data-name="Trazado 108298" d="M395.61,329h-93.8v-9.39h93.8a4.69,4.69,0,0,1,4.71,4.67h0a4.69,4.69,0,0,1-4.68,4.7Z" fill="#344154"/>
      <rect id="Rectángulo_8826" data-name="Rectángulo 8826" width="5.98" height="136.61" transform="translate(383.01 328.96)" fill="#6595bf"/>
      <rect id="Rectángulo_8827" data-name="Rectángulo 8827" width="5.98" height="136.61" transform="translate(383.01 328.96)" fill="#fff" opacity="0.7"/>
      <rect id="Rectángulo_8828" data-name="Rectángulo 8828" width="5.98" height="136.61" transform="translate(412.69 328.96)" fill="#6595bf"/>
      <rect id="Rectángulo_8829" data-name="Rectángulo 8829" width="5.98" height="136.61" transform="translate(412.69 328.96)" fill="#fff" opacity="0.7"/>
      <circle id="Elipse_4269" data-name="Elipse 4269" cx="3.05" cy="3.05" r="3.05" transform="translate(392.56 321.21)" fill="#6595bf"/>
      <circle id="Elipse_4270" data-name="Elipse 4270" cx="3.05" cy="3.05" r="3.05" transform="translate(379.16 321.21)" fill="#6595bf"/>
      <circle id="Elipse_4271" data-name="Elipse 4271" cx="3.05" cy="3.05" r="3.05" transform="translate(365.76 321.21)" fill="#6595bf"/>
      <circle id="Elipse_4272" data-name="Elipse 4272" cx="3.05" cy="3.05" r="3.05" transform="translate(352.36 321.21)" fill="#6595bf"/>
      <circle id="Elipse_4273" data-name="Elipse 4273" cx="3.05" cy="3.05" r="3.05" transform="translate(338.96 321.21)" fill="#6595bf"/>
      <circle id="Elipse_4274" data-name="Elipse 4274" cx="3.05" cy="3.05" r="3.05" transform="translate(325.56 321.21)" fill="#6595bf"/>
      <circle id="Elipse_4275" data-name="Elipse 4275" cx="3.05" cy="3.05" r="3.05" transform="translate(312.16 321.21)" fill="#6595bf"/>
      <path id="Trazado_108299" data-name="Trazado 108299" d="M301.81,321.22v6.09a3.045,3.045,0,0,0,0-6.09Z" fill="#6595bf"/>
      <rect id="Rectángulo_8830" data-name="Rectángulo 8830" width="59.71" height="111.25" rx="3.5" transform="translate(225.8 243.38)" fill="#fff"/>
      <rect id="Rectángulo_8831" data-name="Rectángulo 8831" width="46.95" height="33.17" rx="3.73" transform="translate(232.18 255.26)" fill="#6595bf" opacity="0.3"/>
      <rect id="Rectángulo_8832" data-name="Rectángulo 8832" width="46.95" height="22.84" rx="3.54" transform="translate(232.18 293.18)" fill="#6595bf" opacity="0.3"/>
      <path id="Trazado_108300" data-name="Trazado 108300" d="M246.32,304.66l-7.84-2.85a8.34,8.34,0,0,1,16.05,1.41Z" fill="#6595bf"/>
      <path id="Trazado_108301" data-name="Trazado 108301" d="M246.32,304.66l8.21-1.44a7.709,7.709,0,0,1,.13,1.44,8.35,8.35,0,0,1-16.69.58v-.58a8.39,8.39,0,0,1,.51-2.85Z" fill="#fff"/>
      <rect id="Rectángulo_8833" data-name="Rectángulo 8833" width="3.16" height="9.42" transform="translate(265.95 303.52)" fill="#fff"/>
      <rect id="Rectángulo_8834" data-name="Rectángulo 8834" width="3.16" height="4.41" transform="translate(260.57 308.53)" fill="#fff"/>
      <rect id="Rectángulo_8835" data-name="Rectángulo 8835" width="3.16" height="2.69" transform="translate(260.57 305.84)" fill="#6595bf"/>
      <rect id="Rectángulo_8836" data-name="Rectángulo 8836" width="3.16" height="5.74" transform="translate(265.95 297.78)" fill="#6595bf"/>
      <rect id="Rectángulo_8837" data-name="Rectángulo 8837" width="3.16" height="7.7" transform="translate(271.32 305.23)" fill="#fff"/>
      <rect id="Rectángulo_8838" data-name="Rectángulo 8838" width="3.16" height="3.53" transform="translate(271.32 301.7)" fill="#6595bf"/>
      <path id="Trazado_108302" data-name="Trazado 108302" d="M239,279h33.18a1.33,1.33,0,0,0,1.35-1.32,1.35,1.35,0,0,0-.14-.59,26.271,26.271,0,0,1-2.32-8.91c-.62-7-5.36-8.7-7.38,0s-10.09,4.22-13.38.08c-3.06-3.84-8.06.41-12.5,8.77a1.36,1.36,0,0,0,.58,1.82,1.31,1.31,0,0,0,.61.15Z" fill="#6595bf"/>
      <path id="Trazado_108303" data-name="Trazado 108303" d="M237.73,323.76a4.63,4.63,0,1,1-4.63,4.63,4.63,4.63,0,0,1,4.63-4.63m0-.92a5.56,5.56,0,1,0,5.56,5.56h0a5.53,5.53,0,0,0-5.53-5.55Z" fill="#344154"/>
      <path id="Trazado_108304" data-name="Trazado 108304" d="M252.82,323.76a4.63,4.63,0,1,1-4.63,4.63,4.63,4.63,0,0,1,4.63-4.63m0-.92a5.56,5.56,0,1,0,5.55,5.57h0a5.53,5.53,0,0,0-5.53-5.55Z" fill="#6595bf"/>
      <path id="Trazado_108305" data-name="Trazado 108305" d="M279.13,343.15a2.4,2.4,0,1,1-2.4-2.4h0a2.39,2.39,0,0,1,2.4,2.4Z" fill="#6595bf"/>
      <path id="Trazado_108306" data-name="Trazado 108306" d="M268.59,343.15a2.4,2.4,0,1,1-2.4-2.4h0a2.39,2.39,0,0,1,2.4,2.4Z" fill="#6595bf" opacity="0.3"/>
      <path id="Trazado_108307" data-name="Trazado 108307" d="M258.05,343.15a2.4,2.4,0,1,1-2.4-2.4h0a2.39,2.39,0,0,1,2.4,2.4Z" fill="#6595bf"/>
      <path id="Trazado_108308" data-name="Trazado 108308" d="M247.51,343.15a2.4,2.4,0,1,1-2.4-2.4h0a2.39,2.39,0,0,1,2.4,2.4Z" fill="#6595bf"/>
      <path id="Trazado_108309" data-name="Trazado 108309" d="M237,343.15a2.4,2.4,0,1,1-2.4-2.4h0a2.39,2.39,0,0,1,2.4,2.4Z" fill="#6595bf"/>
      <rect id="Rectángulo_8839" data-name="Rectángulo 8839" width="52.75" height="36.39" transform="translate(342.85 283.19)" fill="#6595bf"/>
      <rect id="Rectángulo_8840" data-name="Rectángulo 8840" width="9.43" height="13.37" transform="translate(356.33 283.19)" fill="#fff" opacity="0.7"/>
      <rect id="Rectángulo_8841" data-name="Rectángulo 8841" width="16.45" height="36.39" transform="translate(379.16 283.19)" opacity="0.2"/>
      <rect id="Rectángulo_8842" data-name="Rectángulo 8842" width="5.26" height="13.37" transform="translate(384.75 283.19)" fill="#6595bf" opacity="0.7"/>
      <path id="Trazado_108310" data-name="Trazado 108310" d="M353,309.43v5.94h-5.94v-5.94H353m.92-.93h-7.79v7.79h7.79Z" fill="#fff"/>
      <rect id="Rectángulo_8843" data-name="Rectángulo 8843" width="7.79" height="7.79" transform="translate(357.2 308.5)" fill="#344154" opacity="0.4"/>
      <rect id="Rectángulo_8844" data-name="Rectángulo 8844" width="17.04" height="30.37" rx="0.78" transform="translate(183.82 289.2)" fill="#344154"/>
      <path id="Trazado_108311" data-name="Trazado 108311" d="M183.69,289.2h15.47a.78.78,0,0,1,.78.78v28.8a.78.78,0,0,1-.78.78H183.69a.8.8,0,0,1-.79-.79h0V290a.78.78,0,0,1,.79-.77Z" fill="#6595bf"/>
      <rect id="Rectángulo_8845" data-name="Rectángulo 8845" width="15.19" height="28.52" rx="0.72" transform="translate(183.84 290.13)" fill="#fff"/>
      <path id="Trazado_108312" data-name="Trazado 108312" d="M191.13,290.13h-3.14l-2.36,28.52h3.15Z" fill="#6595bf" opacity="0.2"/>
      <path id="Trazado_108313" data-name="Trazado 108313" d="M194.28,290.13h-2.04l-2.35,28.52h2.03Z" fill="#6595bf" opacity="0.2"/>
    </g>
    <g id="freepik--Character--inject-72">
      <path id="Trazado_108314" data-name="Trazado 108314" d="M185.07,260.51H159.78a.79.79,0,0,1-.82-.74,1.09,1.09,0,0,1,0-.26l6.56-35a1.24,1.24,0,0,1,1.16-1H192a.79.79,0,0,1,.83.75.54.54,0,0,1,0,.25l-6.56,35a1.22,1.22,0,0,1-1.2,1Z" fill="#6595bf"/>
      <path id="Trazado_108315" data-name="Trazado 108315" d="M184.17,259h-23.8a.74.74,0,0,1-.77-.71,1.489,1.489,0,0,1,0-.21l6.17-33a1.18,1.18,0,0,1,1.1-.92h23.8a.75.75,0,0,1,.78.71.76.76,0,0,1,0,.21l-6.18,33A1.14,1.14,0,0,1,184.17,259Z" fill="#fff"/>
      <path id="Trazado_108316" data-name="Trazado 108316" d="M128.85,226l-.22.47-.27.61-.53,1.26c-.34.87-.66,1.76-1,2.67-.59,1.81-1.14,3.66-1.57,5.56a76.862,76.862,0,0,0-1.82,11.58l-.11,1.4c0,.19,0,.25-.09.09a1.58,1.58,0,0,0-.64-.64c-.26-.14-.34-.09-.23,0a5,5,0,0,0,1.81,0,18.676,18.676,0,0,0,2.59-.58A87.811,87.811,0,0,0,137.9,244l2.42,3.77a53.259,53.259,0,0,1-11.08,7,26.76,26.76,0,0,1-3.37,1.26,12,12,0,0,1-4.38.51,7.11,7.11,0,0,1-3.16-1,6.51,6.51,0,0,1-2.53-3,8.54,8.54,0,0,1-.57-3v-1.81a68.549,68.549,0,0,1,1.31-13.1,53.647,53.647,0,0,1,1.69-6.48c.34-1.07.74-2.14,1.16-3.21.22-.53.43-1.06.68-1.6l.39-.82c.15-.29.26-.51.48-.92Z" fill="#b55b52"/>
      <path id="Trazado_108317" data-name="Trazado 108317" d="M134.81,190.33c1,5.25,3.34,16.69-.33,20.18,0,0,1.43,5.32,11.17,5.32,10.72,0,5.12-5.32,5.12-5.32-5.84-1.39-5.69-5.73-4.67-9.8Z" fill="#b55b52"/>
      <path id="Trazado_108318" data-name="Trazado 108318" d="M132.32,212.34s-.94-3-1.29-4.75,12.79-1.19,17.14-.07,5.74,6.21,5.74,6.21Z" fill="#344154"/>
      <path id="Trazado_108319" data-name="Trazado 108319" d="M158.24,189.12a19.511,19.511,0,0,0,1.57,5,3.09,3.09,0,0,1-2.59-.05Z" fill="#a02724"/>
      <path id="Trazado_108320" data-name="Trazado 108320" d="M156.69,183.75a.39.39,0,0,1-.16-.1.42.42,0,0,1,0-.58h0a4.12,4.12,0,0,1,3.62-1.22.41.41,0,0,1,.33.48h0a.42.42,0,0,1-.5.32h0a3.31,3.31,0,0,0-2.85,1,.42.42,0,0,1-.44.1Z" fill="#344154"/>
      <path id="Trazado_108321" data-name="Trazado 108321" d="M157.87,187.79c-.15.7.1,1.34.56,1.43s.94-.39,1.09-1.09-.11-1.34-.57-1.43S158,187.09,157.87,187.79Z" fill="#344154"/>
      <path id="Trazado_108322" data-name="Trazado 108322" d="M158.74,186.66l1.78-.13S159.39,187.66,158.74,186.66Z" fill="#344154"/>
      <path id="Trazado_108323" data-name="Trazado 108323" d="M89.82,465.05h8.83l2.82-20.46H92.63Z" fill="#b55b52"/>
      <path id="Trazado_108324" data-name="Trazado 108324" d="M100.16,459H90.23a.71.71,0,0,0-.71.6l-1.13,7.85A1.43,1.43,0,0,0,89.67,469h.14c3.46-.06,5.13-.27,9.5-.27,2.68,0,6.6.28,10.31.28s3.91-3.67,2.37-4c-6.93-1.49-8-3.54-10.36-5.5a2.26,2.26,0,0,0-1.47-.51Z" fill="#344154"/>
      <path id="Trazado_108325" data-name="Trazado 108325" d="M92.63,444.59h8.84l-1.46,10.55H91.17Z" opacity="0.2"/>
      <path id="Trazado_108326" data-name="Trazado 108326" d="M123.37,212.6c-3.58,1.14-6.27,14.66-6.27,14.66l11.35,10s7.43-13.15,5.27-17.53S127.6,211.26,123.37,212.6Z" fill="#344154"/>
      <path id="Trazado_108327" data-name="Trazado 108327" d="M166.76,219.66c0,5.67.21,16.21-3.49,35-.67,3.41.66,4.92.06,8.41-.39,2.27-1.66,1.94-1.84,3H125.6c0-1.07-1.57-1.64-1.93-3.94-.84-5.29,2.22-5.73,2.12-9.06-.25-8.4-1.47-17.84-5.15-34.42a6,6,0,0,1,4.5-7.2,4.373,4.373,0,0,1,.5-.09c2.58-.37,5.69-.73,8.83-.89a113.548,113.548,0,0,1,16.29,0c3.18.29,6.56.79,9.29,1.24A8,8,0,0,1,166.76,219.66Z" fill="#344154"/>
      <path id="Trazado_108328" data-name="Trazado 108328" d="M165.39,236c-.23,2.52-.07,5.36-.47,8.57-5.93-3-6.75-10.68-4.93-14.57a25.5,25.5,0,0,1,5.4,6Z" opacity="0.4"/>
      <path id="Trazado_108329" data-name="Trazado 108329" d="M168.1,222.11c1,3.88,2.08,7.88,3.22,11.77s2.36,7.78,3.79,11.46a53.2,53.2,0,0,0,2.3,5.27,2.36,2.36,0,0,0-.87-.59c-.59-.21-1-.07-.93,0a3.36,3.36,0,0,0,1.46-.6,31,31,0,0,0,4.4-3.42c1.48-1.31,3-2.74,4.4-4.12l3.65,2.6a48.294,48.294,0,0,1-3.44,5.62,29.779,29.779,0,0,1-4.63,5.21,13.479,13.479,0,0,1-1.67,1.22,8.891,8.891,0,0,1-2.37,1.07,6.24,6.24,0,0,1-4-.19,6.56,6.56,0,0,1-3.09-2.75,56.641,56.641,0,0,1-3.09-6,115.553,115.553,0,0,1-4.55-12.13c-.65-2-1.26-4.07-1.81-6.13s-1.1-4.09-1.57-6.23Z" fill="#b55b52"/>
      <path id="Trazado_108330" data-name="Trazado 108330" d="M165.32,214.72c4.64,5.22,6.59,14.73,6.59,14.73l-13.39,8.71s-6.62-15-5-19.6C155.65,212.41,160.8,209.66,165.32,214.72Z" fill="#344154"/>
      <path id="Trazado_108331" data-name="Trazado 108331" d="M190.13,242.29c.58-1.79-1.19-1.77-.59-5.43.21-1.29-.91-1.84-1-1.16-.58,3.45-7.37,8.67-3.74,10.33C187,247,190.13,242.29,190.13,242.29Z" fill="#b55b52"/>
      <path id="Trazado_108332" data-name="Trazado 108332" d="M192.81,240.58c-.07-2-1.62-4.55-3.15-1.38l-.8.62s-2.16.32-4.87,4l2.9,2.6,1-.15a9.5,9.5,0,0,0,4.33-1.9l.2-.17a1.88,1.88,0,0,0,.63-1.62Z" fill="#b55b52"/>
      <path id="Trazado_108333" data-name="Trazado 108333" d="M134.89,180.54c-1.24,8.68-2,12.33,1.46,17.62,5.15,8,16.08,7.6,19.9-.53,3.43-7.32,4.89-20.29-2.79-25.44a12,12,0,0,0-16.65,3.29,12.15,12.15,0,0,0-1.92,5.06Z" fill="#b55b52"/>
      <path id="Trazado_108334" data-name="Trazado 108334" d="M152.23,187.1c3.51-2.27,7.22-5.52,6.9-9.94s-5.89-8.58-13.56-8.58c-10.25,0-9.83,6.66-9.83,6.66-2,.25-21.92,17.87,2.75,24.71S152.23,187.1,152.23,187.1Z" fill="#344154"/>
      <path id="Trazado_108335" data-name="Trazado 108335" d="M131.76,175.85s-1,2.2-.67,3.2c3.34.86,15,1.36,20.87.28a13.71,13.71,0,0,1,2.55-3.17Z" fill="#fff"/>
      <path id="Trazado_108336" data-name="Trazado 108336" d="M130.82,176.91c.53,1.79,20.79.84,27.31,0a25.74,25.74,0,0,0,4.59-1.08v-.68h-2.79S158.13,163,145.75,163C135.12,163.05,128.89,170.37,130.82,176.91Z" fill="#6595bf"/>
      <path id="Trazado_108337" data-name="Trazado 108337" d="M148.55,162.41a37.559,37.559,0,0,0-6,0c-1.94.62-3.69.9-6.08,4.6l5.35.18s3.48-3.87,7-3.9a2.2,2.2,0,0,0-.27-.88Z" fill="#6595bf"/>
      <path id="Trazado_108338" data-name="Trazado 108338" d="M140.19,175.37h-.05a.38.38,0,0,1-.32-.41h0c1.39-8.94,7.86-12,8.14-12.08a.37.37,0,0,1,.49.19h0a.35.35,0,0,1-.16.48h0c-.07,0-6.38,3-7.71,11.51a.35.35,0,0,1-.39.31Z" opacity="0.2"/>
      <path id="Trazado_108339" data-name="Trazado 108339" d="M155.59,186.14a8,8,0,0,1-.32,5.43c-1,2.25-3.1,1.75-4.17-.25-1-1.79-1.62-5.12,0-6.72S154.93,184,155.59,186.14Z" fill="#b55b52"/>
      <path id="Trazado_108340" data-name="Trazado 108340" d="M152,266.11s-15.56,60.65-26.76,94.83c-9,27.61-23.54,92.14-23.54,92.14h-12s6.48-62.6,13.36-89.91c17.41-69.1,6.07-74.72,22.58-97.06Z" fill="#6595bf"/>
      <path id="Trazado_108341" data-name="Trazado 108341" d="M135.78,285.11c-5.21,19-4.81,39.73-2.58,49.89,3.22-11.06,6.44-22.61,9.28-33C141.5,296.36,138.51,289.81,135.78,285.11Z" opacity="0.4"/>
      <path id="Trazado_108342" data-name="Trazado 108342" d="M103.48,453.32H88.13l.41-5.39,16.36-.55Z" fill="#344154"/>
      <path id="Trazado_108343" data-name="Trazado 108343" d="M149.27,465.03h8.84l-.69-20.46h-8.84Z" fill="#b55b52"/>
      <path id="Trazado_108344" data-name="Trazado 108344" d="M158.81,459h-9.93a.69.69,0,0,0-.7.6l-1.13,7.85A1.43,1.43,0,0,0,148.3,469h.16c3.46-.06,5.13-.27,9.5-.27,2.68,0,6.61.28,10.32.28s3.9-3.67,2.36-4c-6.93-1.49-8-3.54-10.35-5.5a2.29,2.29,0,0,0-1.48-.51Z" fill="#344154"/>
      <path id="Trazado_108345" data-name="Trazado 108345" d="M148.58,444.57h8.84l.35,10.55h-8.84Z" opacity="0.2"/>
      <path id="Trazado_108346" data-name="Trazado 108346" d="M161.49,266.11s0,60.65-2.39,94.83c-1.95,27.61.15,92.14.15,92.14H147.2s-9.61-62.6-9.75-89.91c-.35-69.1-13.14-74.72-2.37-97.06Z" fill="#6595bf"/>
      <path id="Trazado_108347" data-name="Trazado 108347" d="M160.9,453.32H145.55l-.81-5.39,16.24-.55Z" fill="#344154"/>
      <path id="Trazado_108348" data-name="Trazado 108348" d="M125.06,264l-1.62,3.22c-.12.25.17.5.59.5h37.63c.33,0,.6-.16.62-.36l.32-3.21c0-.23-.26-.42-.61-.42H125.65a.66.66,0,0,0-.59.27Z" fill="#fff"/>
      <path id="Trazado_108349" data-name="Trazado 108349" d="M129.94,268.07h-1c-.19,0-.34-.1-.33-.22l.46-4.18c0-.12.18-.22.37-.22h1c.19,0,.34.1.33.22l-.46,4.18C130.32,268,130.14,268.07,129.94,268.07Z" fill="#344154"/>
      <path id="Trazado_108350" data-name="Trazado 108350" d="M153.54,268.07h-1c-.19,0-.34-.1-.33-.22l.46-4.18c0-.12.18-.22.38-.22h1c.19,0,.34.1.33.22l-.46,4.18C153.9,268,153.73,268.07,153.54,268.07Z" fill="#344154"/>
    </g>
  </g>
</svg>
