<svg id="Capa_2" data-name="Capa 2" xmlns="http://www.w3.org/2000/svg" width="150" height="150" viewBox="0 0 150 150">
  <circle id="Elipse_4255" data-name="Elipse 4255" cx="65" cy="65" r="65" transform="translate(10 10)" fill="#344154"/>
  <g id="Grupo_59867" data-name="Grupo 59867">
    <path id="Trazado_108230" data-name="Trazado 108230" d="M126.8,115a65.18,65.18,0,0,0-8.09-87.87H93.87V115Z" fill="#b88a79"/>
    <path id="Trazado_108231" data-name="Trazado 108231" d="M127.82,113.59h-2.29A30.69,30.69,0,0,1,94.84,82.9V27.09H54.53V127.78H113.8a65.74,65.74,0,0,0,14-14.19Z" fill="#a66d58"/>
    <path id="Trazado_108232" data-name="Trazado 108232" d="M53.32,38.47V141.9h1.21c11.31,0,20.47-5.09,20.47-11.37V38.47Z" fill="#e8c7aa"/>
    <path id="Trazado_108233" data-name="Trazado 108233" d="M54.53,121.24V38.47H34.06v92.08c0,6.28,9.17,11.37,20.47,11.37h.3c7.24-.06,10.18-9.44,4.22-13.55C56.22,126.37,54.53,123.94,54.53,121.24Z" fill="#d9a171"/>
    <path id="Trazado_108234" data-name="Trazado 108234" d="M75,38.47c0,4.52-4.74,8.42-11.61,10.26-2.68.71-5.89-1.14-9.06-1.14-11.31,0-17.41-2.84-17.41-9.12,0-3.26-.39-6.2,3.57-8.27a30.66,30.66,0,0,1,14-3.1C65.84,27.09,75,32.19,75,38.47Z" fill="#f7ece3"/>
    <path id="Trazado_108235" data-name="Trazado 108235" d="M63.37,41.91A2.44,2.44,0,0,1,61,39.39V31.17H48v.21a2.22,2.22,0,0,1-4.39.48.36.36,0,0,1,0-.1,2.17,2.17,0,0,0-3.14-1.56c-4,2.07-6.43,5-6.43,8.27,0,6.28,9.17,11.38,20.47,11.38a33.76,33.76,0,0,0,10-1.45,3.32,3.32,0,0,0-1-6.49Z" fill="#f0d9c6"/>
    <path id="Trazado_108236" data-name="Trazado 108236" d="M48,28.64v8.2c0,2,2.91,3.61,6.49,3.61S61,38.83,61,36.84v-8.2Z" fill="#6595bf"/>
    <ellipse id="Elipse_4256" data-name="Elipse 4256" cx="6.49" cy="3.61" rx="6.49" ry="3.61" transform="translate(48.04 25.03)" fill="#aed3f2"/>
  </g>
  <rect id="Rectángulo_8799" data-name="Rectángulo 8799" width="150" height="150" fill="none"/>
</svg>
