<svg xmlns="http://www.w3.org/2000/svg" width="482.706" height="380.122" viewBox="0 0 482.706 380.122">
  <g id="Capa_2" data-name="Capa 2" transform="translate(-1.516 -45.478)">
    <g id="Grupo_59835" data-name="Grupo 59835">
      <g id="Grupo_59812" data-name="Grupo 59812">
        <path id="Trazado_108105" data-name="Trazado 108105" d="M101.29,247.81c-3.14-5,2.17-13-2.18-13.83s-8.29-3.55-7.9-5.33,11.86-4.35,17-2.17.59,4.74,5.53,5.33,6.52,1.78,7.31-2.37,3.16-7.11-.79-7.31-13.41.59-13.42-1.38-1.2-8.5,3-11.86,13-15.41,15.22-17.38,7.11-2.18,11.65-3.16,12.45-11.66,12.45-11.66,7.51,3.16,9.28,0-3.16-9.29-3.16-9.29-.39-17.78,0-18.57,5.73-2.17,5.93-3.55-2.77-6.52-2.77-6.52-4.74-10.87-1.77-11.07,7.5,2.37,7.5,2.37l4.74,4.35,2,.2,1,24.69s3.75-2.56,4.54-5.13,7.71.79,9.09-1.58,3.75-3.76,5.73-3.56,3.16-6.72,3.16-6.72l11.85,1.78v4.55l13.64-1-11.07-3.16,3.16-5.14s4.15-2.77,4-3.75,4-3.16,4-3.16v-7.51l11.45-1s-1.52-9.09-6.26-11c-2.76-1.09-55.57,1.66-55.57,1.66l-4.35,4-5.93,2-.19,4.35-5.34-7.11-3.75,1v-5.14l-14.82,2.58v7.11l-4.74-.79.2-7.71-4,.6s.39,6.71.39,7.3-22.13,1.59-22.32,2.57-1,3.16-3.17,3.16-11.65,2-12,2.57-1.38,2.37-4.74,2.57-46.43-.2-49,.2-2.57-.4-4.94,2.57-14,13.41-13.61,17.59-17.87,1.22-15.61,6.72c.89,2.14,17.19,5.13,22.13,3.75s5.34-4.54,6.52-4.94,14.62,0,15.81.79,1.77,20.94-.4,22.92-4.74.59-4.94,2.17,0,18,3,17.39,2.56,11.26,3.16,13,3.55,3.36,4.54,3.36,1.38,4.94,3.75,5.53,1.59,5.33,3.36,7.7,7.91,4.94,8.1,3.95,8.7,2,8.7,2,5.13,6.72,8.69,6.72,8.89,8.1,13,7.31,4.15-4.24,4.74,0-4.15,5.87-4.15,5.87-3,21.54-.79,23.91,2.57-1.58,4.15,1,2,9.68,4,10.27,8.3,5.53,8.89,6.32,3.76,4,4.15,6.52-4,32.21-1.58,34.58,3.75-.4,4.54,1.18,1.19,11.66,3.56,12.25.79,9.68,4.54,11.06S140,374.25,145,370.3s-.2-10.67-1.38-11.06-6.13-15.61-3.36-17.78a36.91,36.91,0,0,0,5.73-5.14c2.17-2.37,5.33-2.76,7.5-5.13s2.57-6.92,2.77-9.29,4.15-.79,4.94-4.74,7.51-8.3,9.28-11.86-.39-13.43.2-13.43,4.35,2.77,4.55-1.19-.2-19.36-3.16-19.55,0-4.94-4.35-5.34-7.11-.39-7.11-.39.79-5.54-3.95-4.75-5.73-5.72-6.13-8.1-9.88-1.18-10.67-1.38-.2-3.95-1.18-4.34,2.76-4.35-4.15-5.14-26.67.15-27.27.86S103.26,251,101.29,247.81Z" fill="#aed3f2"/>
        <path id="Trazado_108106" data-name="Trazado 108106" d="M264.67,123.74c3.81-2.5,3.36-3.55,3.36-6.12s-8.1-2.77-16-2.77.59,7.11-2.57,8.89-5.33,1.39-5.14,3.76,17,1.18,18.58,1.18S261.63,125.75,264.67,123.74Z" fill="#aed3f2"/>
        <path id="Trazado_108107" data-name="Trazado 108107" d="M279.49,137.57c-2.77-2.57-19.55-3.36-23.31-2.17s-4.55,4.35-8.89,7.51-9.49,9.87-6.52,12.05,8.3,12.84.79,9.48-8.69-3.75-8.5-7.9-4.74-3.56-7.5-2.37-8.1,8.89-8.89,9.68.59,8.49,6.12,9.28,9.29,4.75,6.72,8.1-12,1.78-14.23,3.36-1.38,3.95,3.36,9.68,5.93,3.36-1.18,7.91-12.06,5.92-11.66,12.24,1.18,13.44-2.57,13.83-5.14,1.19-4.35,4.94,5.14,4.55,5.54,5.73-1.78,15.22,2.56,14.23,1.58,4.34,8.89,4.15,20.16,0,20.16,0,1.77-1,1.58,2.76,4.15-1.18,5.53,2.37-1.19,13.24,1.38,14.62,3.16-3.75,3.16,2.18,0,32.79,2.37,33.19,1.78-4.15,2.37.39-2.37,15.61,2.37,15.61,8.3,2.17,11.07,3.36,12.25,2.37,13.63-2.18,6.52-5.53,8.5-8.1,4.54-5.92,4.93-7.7,0-12.84,3.17-13,2,13.83,3.55,14.23,9.49.39,9.49-1.59,2.17-2.76,3.75-3-1-24.69-1-24.69a11.6,11.6,0,0,1-5.53,4.14c-3.36,1-4.15-1.18-3.56-3.75s.4-5.33-2.37-6.52-4.94-4.74-1.78-6.72,2.77-3.16,5.14-4.94,4.74-2.17,4.94-5.92-.55,2.57,4.66-1-2.09-6.32,2.06-8.3,3.95-.39,4.15-2-1.58-9.49,0-12.45,3-3.21,4.34-4.47,5.34-4.22,7.31-5.8-1.58-10.87,5.53-3.36,9.29,5.93,13.44,15.8,9.88,17.39,12.45,17,3.16,8.5,4.74.6,0-23.76.79-24.23,4.74-7.38,8.29-4.82,9.49,11.07,10.67,12.06,1.78,11.26,0,13.63,4.15,9.68,5.14,11.26.59,13.24,5.14,14a104.091,104.091,0,0,0,13.63.79c.79,0,9.28,3.16,10.67.39s13.83-4.34,17.58-4.34,14.42-1,15.21,0,13.83,14,6.92,11.65-11.07-5.53-12.65-6.12,0-1.19-8.89,3.16A106.83,106.83,0,0,0,420.55,298c-3.75,3-8.49,6.72-8.49,12.45s-1.78,17.58-.4,19.36,12.45,2.75,15.21,3.06,7.12,2.87,10.67-1.48,9.49-8.89,9.29.79-.6,13.64,1.18,15.41,8.1,7.51,8.7,3,1.46-11.46,6.75-13,10.43-3.36,9.25-5.73,1.18-4.94,4.54-7.31,6.32-5.14,4.94-9.09-3.36-9.29-3.75-10.27-3.76-4.74-3.95-6.33.59-2.56-2.77-5.33-3-5.14,2.57-6.72,7.31-5.33,7.31-6.32,2.17-4.15,2.57-4.94-1.58-5.73-3-5.92,2.77-7.12-2.56-4.94-6.52,6.52-8.3,6.12-2.37-6.12-7.31-6.12a15.56,15.56,0,0,1-10.47-3.56c-3-2.17-4.94-5.14-7.51-4.74s-4.35,1.78-6.72,3.16-15.58,6.45-7.3,1.5,10.08-5.14,11.07-5.33,1.58-3,1.18-6.52-2.37-11.26-4.54-12.85-3.76-6.71-5.53-7.9-9.49-6.12-9.29-.2.4,17.39,2.17,18.58,6.72,3.16,3.36,4.34-9.09-.59-11.06,1.19a20.26,20.26,0,0,0-4.35,5.92c-.59,1.39-3.55,3.36-5.73,1.58s-5.13-2.17-2.76-4.54S417,246,415.61,242.08s-2.76-6.91-2.17-8.49-1.19-4.94,2.77-5.93,6.32-2,7.11-2.76a23.279,23.279,0,0,1,3.16-2.18s2-7.9,1.38-12.25-1-7.9,1.38-7.5,13.24,9.28,14,6.32a31.41,31.41,0,0,1,4.55-9.09c.99-.99,4.34-12.64,3.16-14.82s-4.15-13-7.12-15.21-12.05-7.7-14.42-7.51,1.58-3.95,7.51-3,13.24,10.27,16,11.85,7.9.6,7.9-3-.79-12.25.6-12.64,7.9-2.37,8.89-6.52,4.15-11.26-.4-11.46-15,3.16-17.38,2.17,2.37-7.31-4.35-7.31-23.9,1.58-27.46,1.58-13.63,1.78-14.23-.79-1.58-6.12-4.34-5.93-9.68-1-13.63,0-15.41.79-17.59,1.19-7.9-5.14-8.89-6.13-11.26.4-12.64,0-4.74-2.37-4.94-4.74,2.4-5.73-3.05-5.73-12.76-.79-14.34,1.58-2.17,5.44.2,8.06,7.71,6.76,2.77,7.06-10.08-1.09-11.46,0-2.37,4.25-3.76,2.07-1.18-3.36-1.58-4.54,4.55-4.55-4.14-2.77-7.91,1.19-10.48,2.57-7.11,3.95-7.7,6.72,5.53,5.53-2.17,5.14S279.49,137.57,279.49,137.57Z" fill="#aed3f2"/>
      </g>
      <g id="Grupo_59814" data-name="Grupo 59814">
        <rect id="Rectángulo_8770" data-name="Rectángulo 8770" width="100.21" height="175.47" rx="10.37" transform="translate(217.25 116.2)" fill="#344154"/>
        <g id="Grupo_59813" data-name="Grupo 59813">
          <rect id="Rectángulo_8771" data-name="Rectángulo 8771" width="87.58" height="135.95" transform="translate(224.26 135.38)" fill="#f4f4f4"/>
          <circle id="Elipse_4242" data-name="Elipse 4242" cx="5.63" cy="5.63" r="5.63" transform="translate(264.593 283.098) rotate(-67.87)" fill="#4db9d6"/>
          <circle id="Elipse_4243" data-name="Elipse 4243" cx="28" cy="28" r="28" transform="translate(243.87 173.19)" fill="#d9a171"/>
          <path id="Trazado_108108" data-name="Trazado 108108" d="M269.58,218.3,253.9,202.86a3.263,3.263,0,1,1,4.58-4.65l10.37,10.21,16.09-21.37a3.263,3.263,0,0,1,5.21,3.93Z" fill="#f8faff"/>
          <path id="Trazado_108109" data-name="Trazado 108109" d="M279.87,126.13H264a1,1,0,0,1-1-1h0a1,1,0,0,1,1-1h15.9a1,1,0,0,1,1,1h0a1,1,0,0,1-1.03,1Z" fill="#438ea8"/>
        </g>
      </g>
      <g id="Grupo_59822" data-name="Grupo 59822">
        <g id="Grupo_59816" data-name="Grupo 59816">
          <circle id="Elipse_4244" data-name="Elipse 4244" cx="24.15" cy="24.15" r="24.15" transform="translate(82.782 94.256) rotate(-84.06)" fill="#f2e9e4"/>
          <path id="Trazado_108110" data-name="Trazado 108110" d="M90.34,87.63A24.15,24.15,0,0,0,131,62l-13,2.2v7.12l-4.74-.79.19-7.71-4,.59s.4,6.72.4,7.31S87.72,72.3,87.52,73.29a4.06,4.06,0,0,1-2.08,3,24,24,0,0,0,4.9,11.34Z" fill="#f2e9e4"/>
          <g id="Grupo_59815" data-name="Grupo 59815">
            <circle id="Elipse_4245" data-name="Elipse 4245" cx="24.15" cy="24.15" r="24.15" transform="translate(85.495 49.57) rotate(-4.86)" fill="#d9a171"/>
            <circle id="Elipse_4246" data-name="Elipse 4246" cx="19.12" cy="19.12" r="19.12" transform="translate(85.491 64.546) rotate(-29.91)" fill="#f2e9e4"/>
            <path id="Trazado_108111" data-name="Trazado 108111" d="M112.39,55.63l-1.19-1.19a2.35,2.35,0,0,0-2.89-.35l-1.44.88,1.19-1.19a2.33,2.33,0,0,0,.35-2.89l-.88-1.44,1.19,1.19a2.35,2.35,0,0,0,2.9.35l1.43-.88-1.19,1.19a2.36,2.36,0,0,0-.35,2.9Z" fill="#fff"/>
            <path id="Trazado_108112" data-name="Trazado 108112" d="M95.54,80.32l-.86-.86a1.7,1.7,0,0,0-2.09-.25l-1,.64.86-.86a1.71,1.71,0,0,0,.25-2.1l-.63-1,.86.87A1.69,1.69,0,0,0,95,77l1-.64-.87.86a1.71,1.71,0,0,0-.25,2.09Z" fill="#fff"/>
            <path id="Trazado_108113" data-name="Trazado 108113" d="M130.64,66.83l-.55-.56a1.09,1.09,0,0,0-1.35-.16l-.68.41.56-.56a1.09,1.09,0,0,0,.16-1.35l-.41-.67.56.56a1.09,1.09,0,0,0,1.35.16l.67-.41-.56.56a1.1,1.1,0,0,0-.16,1.35Z" fill="#fff"/>
            <path id="Trazado_108114" data-name="Trazado 108114" d="M115.44,80.14l1.3,3.66-1.22.43-1.31-3.65a9.61,9.61,0,0,1-4.7.21,3.25,3.25,0,0,1-2.44-2.05,2.21,2.21,0,0,1,0-1.66A2,2,0,0,1,108.29,76,2.37,2.37,0,0,1,110,76a1.75,1.75,0,0,1,1,1.11,2.1,2.1,0,0,1,0,1.29,5.79,5.79,0,0,0-.18.72q.14.39,1,.48a4.48,4.48,0,0,0,1.91-.27l-2.33-6.51a11,11,0,0,1-5-1.07,5.5,5.5,0,0,1-2.61-3.08,5.18,5.18,0,0,1,.12-4.15,7.16,7.16,0,0,1,3.44-3.14l-.64-1.78,1.22-.44.61,1.71a7.86,7.86,0,0,1,4.35-.26,3.25,3.25,0,0,1,2.44,2,2.06,2.06,0,0,1,0,1.62,2,2,0,0,1-1.23,1,2.08,2.08,0,0,1-1.57,0,1.85,1.85,0,0,1-.73-2.76c.09-.15.13-.24.12-.28-.1-.26-.41-.42-1-.48a4,4,0,0,0-1.78.26l-.18.06,2.17,6.07a13,13,0,0,1,5.56,1.13,5.53,5.53,0,0,1,2.77,3.17,5.36,5.36,0,0,1-.2,4.45,7.56,7.56,0,0,1-3.82,3.29Zm-5.69-12.06-2-5.5a4.27,4.27,0,0,0-1.9,1.62,2.28,2.28,0,0,0-.18,2A2.57,2.57,0,0,0,107,67.68a6.17,6.17,0,0,0,2.75.4ZM115,78.82a5.21,5.21,0,0,0,2.11-1.89,2.52,2.52,0,0,0,.19-2.19,2.32,2.32,0,0,0-1.29-1.4,9.13,9.13,0,0,0-3.14-.49Z" fill="#d9a171"/>
          </g>
        </g>
        <g id="Grupo_59818" data-name="Grupo 59818">
          <circle id="Elipse_4247" data-name="Elipse 4247" cx="22.07" cy="22.07" r="22.07" transform="translate(59.159 115.662) rotate(-35.65)" fill="#f2e9e4"/>
          <g id="Grupo_59817" data-name="Grupo 59817">
            <circle id="Elipse_4248" data-name="Elipse 4248" cx="22.07" cy="22.07" r="22.07" transform="matrix(1, -0.007, 0.007, 1, 70.019, 97.678)" fill="#d9a171"/>
            <circle id="Elipse_4249" data-name="Elipse 4249" cx="17.47" cy="17.47" r="17.47" transform="translate(72.152 133.951) rotate(-80.54)" fill="#f2e9e4"/>
            <path id="Trazado_108115" data-name="Trazado 108115" d="M101.84,108.57l-.18-1.53a2.15,2.15,0,0,0-1.89-1.88L98.24,105l1.53-.18a2.17,2.17,0,0,0,1.89-1.89l.18-1.53.18,1.53a2.15,2.15,0,0,0,1.88,1.89l1.53.18-1.53.18A2.13,2.13,0,0,0,102,107Z" fill="#fff"/>
            <path id="Trazado_108116" data-name="Trazado 108116" d="M75.79,116.79l-.13-1.11a1.56,1.56,0,0,0-1.37-1.36l-1.1-.13,1.1-.13a1.56,1.56,0,0,0,1.37-1.36l.13-1.11.13,1.11a1.54,1.54,0,0,0,1.36,1.36l1.1.13-1.1.13a1.54,1.54,0,0,0-1.36,1.36Z" fill="#fff"/>
            <path id="Trazado_108117" data-name="Trazado 108117" d="M108.62,126.92l-.08-.71a1,1,0,0,0-.88-.88l-.71-.09.71-.08a1,1,0,0,0,.88-.88l.08-.71.09.71a1,1,0,0,0,.88.88l.71.08-.71.09a1,1,0,0,0-.88.88Z" fill="#fff"/>
            <path id="Trazado_108118" data-name="Trazado 108118" d="M90.18,127.9l-1.13,3.36-1.12-.38,1.13-3.36a9,9,0,0,1-3.51-2.5,3,3,0,0,1-.59-2.85,2,2,0,0,1,1-1.19,1.8,1.8,0,0,1,1.46-.08,2.18,2.18,0,0,1,1.25.91,1.58,1.58,0,0,1,.11,1.38,1.9,1.9,0,0,1-.71.94l-.54.41c-.08.24.07.54.44.91a4.17,4.17,0,0,0,1.53.88l2-6a10,10,0,0,1-3-3.61,5,5,0,0,1-.13-3.69,4.72,4.72,0,0,1,2.44-2.91,6.43,6.43,0,0,1,4.23-.31l.55-1.64,1.13.38-.53,1.56a7.27,7.27,0,0,1,3.27,2.27,3,3,0,0,1,.62,2.83,1.9,1.9,0,0,1-.94,1.15,2.12,2.12,0,0,1-2.59-.83,1.7,1.7,0,0,1-.07-1.39,1.77,1.77,0,0,1,1.1-1,.264.264,0,0,0,.24-.13c.08-.24-.06-.53-.42-.88a3.63,3.63,0,0,0-1.42-.83h-.17l-1.87,5.59a11.88,11.88,0,0,1,3.37,3.94,5.13,5.13,0,0,1,.19,3.85,4.9,4.9,0,0,1-2.66,3.08,7,7,0,0,1-4.66.14ZM92.91,116l1.69-5a3.91,3.91,0,0,0-2.28.09,2.07,2.07,0,0,0-1.24,1.31,2.34,2.34,0,0,0,.11,1.84A5.48,5.48,0,0,0,92.91,116Zm-2.32,10.65a4.68,4.68,0,0,0,2.58-.16A2.26,2.26,0,0,0,94.54,125a2.11,2.11,0,0,0-.13-1.72,8.28,8.28,0,0,0-2-2.14Z" fill="#d9a171"/>
          </g>
        </g>
        <g id="Grupo_59821" data-name="Grupo 59821">
          <circle id="Elipse_4250" data-name="Elipse 4250" cx="26.47" cy="26.47" r="26.47" transform="translate(126.361 95.811) rotate(-45)" fill="#f2e9e4"/>
          <g id="Grupo_59819" data-name="Grupo 59819">
            <path id="Trazado_108119" data-name="Trazado 108119" d="M184.6,79.39a26.46,26.46,0,0,0-37.17-4.45,26.841,26.841,0,0,0-2.38,2.12,16.282,16.282,0,0,1,1.92,1l4.75,4.34,2,.2,1,24.7s3.75-2.57,4.54-5.14,7.71.79,9.09-1.58,3.71-3.8,5.65-3.58,3.16-6.71,3.16-6.71L189.05,92v4.54l1.2-.09a26.31,26.31,0,0,0-5.65-17.06Z" fill="#f2e9e4"/>
            <path id="Trazado_108120" data-name="Trazado 108120" d="M138.08,96.78c.4-.79,5.73-2.18,5.93-3.56s-2.77-6.52-2.77-6.52-.52-1.2-1.11-2.82a26.57,26.57,0,0,0-2.22,17.42A30.769,30.769,0,0,1,138.08,96.78Z" fill="#f2e9e4"/>
          </g>
          <g id="Grupo_59820" data-name="Grupo 59820">
            <circle id="Elipse_4251" data-name="Elipse 4251" cx="26.47" cy="26.47" r="26.47" transform="translate(136.657 117.78) rotate(-83.15)" fill="#d9a171"/>
            <circle id="Elipse_4252" data-name="Elipse 4252" cx="20.96" cy="20.96" r="20.96" transform="translate(145.14 73.7)" fill="#f2e9e4"/>
            <path id="Trazado_108121" data-name="Trazado 108121" d="M167,77.16l-1.3-1.31a2.6,2.6,0,0,0-3.18-.38l-1.57,1,1.31-1.31a2.59,2.59,0,0,0,.38-3.17l-1-1.58,1.3,1.31a2.57,2.57,0,0,0,3.18.38l1.58-1-1.31,1.3a2.57,2.57,0,0,0-.38,3.18Z" fill="#fff"/>
            <path id="Trazado_108122" data-name="Trazado 108122" d="M148.5,104.22l-.94-.94a1.86,1.86,0,0,0-2.3-.28l-1.14.7.95-.94a1.86,1.86,0,0,0,.27-2.3l-.69-1.14.94,1a1.86,1.86,0,0,0,2.29.28l1.14-.7-.94.94a1.85,1.85,0,0,0-.28,2.29Z" fill="#fff"/>
            <path id="Trazado_108123" data-name="Trazado 108123" d="M187,89.43l-.61-.61a1.2,1.2,0,0,0-1.48-.18l-.73.45.61-.61a1.21,1.21,0,0,0,.18-1.48l-.45-.73.6.61a1.22,1.22,0,0,0,1.49.18l.73-.45-.61.6a1.21,1.21,0,0,0-.18,1.48Z" fill="#fff"/>
            <path id="Trazado_108124" data-name="Trazado 108124" d="M170.31,104l1.43,4-1.34.48-1.43-4a10.67,10.67,0,0,1-5.16.24,3.57,3.57,0,0,1-2.67-2.25,2.38,2.38,0,0,1,0-1.82,2.13,2.13,0,0,1,1.32-1.16,2.62,2.62,0,0,1,1.86-.07,1.9,1.9,0,0,1,1.12,1.22,2.29,2.29,0,0,1,0,1.42,6.481,6.481,0,0,0-.2.78c.1.29.46.46,1.09.53a4.75,4.75,0,0,0,2.09-.3L165.91,96a12.18,12.18,0,0,1-5.52-1.16,6.05,6.05,0,0,1-2.86-3.39,5.64,5.64,0,0,1,.14-4.55,7.72,7.72,0,0,1,3.76-3.43l-.7-2,1.34-.48.67,1.86a8.58,8.58,0,0,1,4.76-.27,3.52,3.52,0,0,1,2.68,2.2,2.36,2.36,0,0,1-3.09,2.92A2.05,2.05,0,0,1,166,86.43a2.08,2.08,0,0,1,.28-1.76c.11-.16.15-.26.14-.3-.11-.29-.45-.46-1-.53a4.46,4.46,0,0,0-2,.28l-.2.07,2.38,6.66a14.44,14.44,0,0,1,6.1,1.23,6.09,6.09,0,0,1,3,3.48,5.89,5.89,0,0,1-.22,4.88,8.34,8.34,0,0,1-4.17,3.56Zm-6.24-13.2-2.16-6a4.79,4.79,0,0,0-2.08,1.78,2.49,2.49,0,0,0-.19,2.16,2.76,2.76,0,0,0,1.47,1.65,6.62,6.62,0,0,0,2.96.41Zm5.72,11.77a5.65,5.65,0,0,0,2.31-2.07,2.74,2.74,0,0,0,.2-2.4,2.55,2.55,0,0,0-1.4-1.53,9.91,9.91,0,0,0-3.45-.54Z" fill="#d9a171"/>
          </g>
        </g>
      </g>
      <g id="Grupo_59827" data-name="Grupo 59827">
        <path id="Trazado_108125" data-name="Trazado 108125" d="M455.85,305.47l-50.92-2.23-.32,7.38-2.53-4.49h0l-9.48-16.87-44.43,24.99,7.19,12.77-24.62,34.84,66.83,47.25h0l2.64,1.86-.11,2.6,4.04.18,16.77,11.85,7.63-10.79,15.93.7,3.83.29v-.12l2.72.12Z" fill="#f2e9e4"/>
        <g id="Grupo_59826" data-name="Grupo 59826">
          <path id="Trazado_108126" data-name="Trazado 108126" d="M455.85,305.47l-50.92-2.23-.32,7.38-2.53-4.49h0l-9.48-16.87-44.43,25L355.36,327l-24.63,34.84,33.09,23.38c-.27-7.31-1.45-18.53-1.45-18.53a11.65,11.65,0,0,1-5.53,4.15c-3.36,1-4.15-1.19-3.56-3.76s.4-5.33-2.37-6.52-4.94-4.74-1.77-6.71,2.76-3.16,5.13-4.94,4.74-2.17,4.94-5.93-.55,2.57,4.66-1-2.09-6.32,2.06-8.29,3.95-.4,4.15-2-1.58-9.48,0-12.45,3-3.21,4.34-4.47,5.34-4.22,7.31-5.8-1.58-10.87,5.54-3.36,9.28,5.93,13.43,15.81,9.88,17.38,12.45,17,3.16,8.49,4.74.59,0-23.76.79-24.23,4.74-7.38,8.3-4.81,9.48,11.06,10.66,12.05,1.78,11.26,0,13.63,4.15,9.68,5.14,11.26.59,13.24,5.14,14a52.364,52.364,0,0,0,5.47.56Z" fill="#f2e9e4"/>
          <g id="Grupo_59823" data-name="Grupo 59823">
            <path id="Trazado_108127" data-name="Trazado 108127" d="M352.54,322.01V311.79l-4.37,2.46Z" fill="#4aafc6"/>
            <path id="Trazado_108128" data-name="Trazado 108128" d="M352.54,377.27V331.01l-6.27,8.87v32.96Z" fill="#4aafc6"/>
            <path id="Trazado_108129" data-name="Trazado 108129" d="M346.27,339.88l-15.84,21.61,15.84,11.35Z" fill="#eaeaea"/>
          </g>
          <g id="Grupo_59825" data-name="Grupo 59825">
            <rect id="Rectángulo_8772" data-name="Rectángulo 8772" width="110.43" height="50.97" transform="translate(398.233 288.116) rotate(60.65)" fill="#344154"/>
            <path id="Trazado_108130" data-name="Trazado 108130" d="M438.4,370h0l-35.07-62.36h0A9.64,9.64,0,0,1,390.2,304l-.95-1.7L371,312.56l1,1.69a9.64,9.64,0,0,1-3.67,13.13l-.13.07,35.06,62.36.13-.08a9.64,9.64,0,0,1,13.13,3.68l.95,1.69,18.22-10.24-.95-1.7A9.63,9.63,0,0,1,438.4,370Zm-48.53-13.75a11.268,11.268,0,1,1,0,.04Z" fill="#7e8193"/>
            <path id="Trazado_108131" data-name="Trazado 108131" d="M361.25,326.42l-2.31-4.03,4.77-6.75,55.24,39.06Z" fill="#5e6178"/>
            <path id="Trazado_108132" data-name="Trazado 108132" d="M434.73,383.16A9.63,9.63,0,0,1,438.4,370h0l-1.48-2.65-19.15-13.53a15.35,15.35,0,1,1-24.1-17L372.74,322a9.58,9.58,0,0,1-4.43,5.36l-.13.08,35.07,62.35.13-.08a9.64,9.64,0,0,1,13.13,3.68l.95,1.7,18.22-10.25Z" fill="#5e6178"/>
            <rect id="Rectángulo_8773" data-name="Rectángulo 8773" width="110.43" height="50.97" transform="matrix(0.817, 0.577, -0.577, 0.817, 365.798, 319.102)" fill="#344154"/>
            <path id="Trazado_108133" data-name="Trazado 108133" d="M437.11,375.71h0l-58.41-41.3h0a9.65,9.65,0,0,1-13.44,2.31l-1.59-1.12-12.06,17.06,1.59,1.13a9.63,9.63,0,0,1,2.3,13.43l-.08.13,58.41,41.29.09-.12a9.63,9.63,0,0,1,13.43-2.31l1.59,1.12L441,390.27l-1.59-1.13a9.63,9.63,0,0,1-2.3-13.43Zm-49.73,8.38a15.35,15.35,0,1,1,11.469,2.58,15.39,15.39,0,0,1-11.469-2.58Z" fill="#7e8193"/>
            <path id="Trazado_108134" data-name="Trazado 108134" d="M392.22,378.09l-1.73,2.46-.83-.58,1.74-2.46a7.52,7.52,0,0,1-2.23-2.9,2.5,2.5,0,0,1,.21-2.46,1.7,1.7,0,0,1,1.06-.73,1.52,1.52,0,0,1,1.21.29,1.88,1.88,0,0,1,.8,1.05,1.4,1.4,0,0,1-.25,1.15,1.65,1.65,0,0,1-.81.59l-.54.2c-.12.18-.08.46.14.85a3.44,3.44,0,0,0,1,1.09l3.1-4.39a8.591,8.591,0,0,1-1.57-3.67,4.22,4.22,0,0,1,.8-3,4,4,0,0,1,2.69-1.77,5.42,5.42,0,0,1,3.52.78l.84-1.2.83.58-.81,1.15a6.21,6.21,0,0,1,2.1,2.64,2.52,2.52,0,0,1-.19,2.45,1.67,1.67,0,0,1-2.95-.6,1.448,1.448,0,0,1,1.43-1.7c.13,0,.21,0,.23-.05a1.207,1.207,0,0,0-.13-.82,3,3,0,0,0-.95-1l-.12-.09L397.94,370a10.16,10.16,0,0,1,1.77,4,4.29,4.29,0,0,1-.79,3.17,4.09,4.09,0,0,1-2.91,1.86,5.88,5.88,0,0,1-3.79-.94Zm5.12-9,2.62-3.7a3.39,3.39,0,0,0-1.88-.48,1.75,1.75,0,0,0-1.32.76,2,2,0,0,0-.37,1.53A4.759,4.759,0,0,0,397.34,369.09Zm-4.49,8.1a3.93,3.93,0,0,0,2.14.5,2,2,0,0,0,1.48-.86,1.78,1.78,0,0,0,.31-1.43,6.831,6.831,0,0,0-1.09-2.22Z" fill="#7e8193"/>
            <path id="Trazado_108135" data-name="Trazado 108135" d="M411.1,310.95,407.75,305l-4.51,102.97,4.63,3.24,46.09,3.46-2.17-100.08Z" fill="#5e6178"/>
            <path id="Trazado_108136" data-name="Trazado 108136" d="M413.9,408.52a9.65,9.65,0,0,1,13.44-2.31l1.59,1.12L441,390.27l-1.58-1.13a9.63,9.63,0,0,1-2.31-13.43h0l-31.49-22.26-.25,5.68a15.36,15.36,0,0,1,3.41,21.25,15.541,15.541,0,0,1-4.52,4.24l-.74,16.74,10.31,7.28Z" fill="#5e6178"/>
            <path id="Trazado_108137" data-name="Trazado 108137" d="M406.49,333.71a15.2,15.2,0,0,1,4.3,28.19c-1.79,1,3.22,26.89,5.7,31.31l1,1.69,18.21-10.24-1-1.7a9.64,9.64,0,0,1,3.68-13.13h0l-31.07-55.24Z" fill="#5e6178"/>
            <g id="Grupo_59824" data-name="Grupo 59824">
              <rect id="Rectángulo_8774" data-name="Rectángulo 8774" width="110.43" height="50.97" transform="translate(461.509 304.329) rotate(92.51)" fill="#344154"/>
              <path id="Trazado_108138" data-name="Trazado 108138" d="M452.47,394.92h0l3.13-71.47h0a9.64,9.64,0,0,1-9.21-10.05l.09-1.94-20.88-.92-.09,1.94a9.63,9.63,0,0,1-10.05,9.21h-.15l-3.13,71.47h.15a9.64,9.64,0,0,1,9.21,10l-.09,2,20.88.91.09-1.94a9.64,9.64,0,0,1,10.05-9.21Zm-34-37.29a14.73,14.73,0,1,0,.05,0Z" fill="#7e8193"/>
              <path id="Trazado_108139" data-name="Trazado 108139" d="M426.19,358.45l-3-.13v-1l3,.13a7.78,7.78,0,0,1,1.22-3.45,2.54,2.54,0,0,1,2.19-1.15,1.7,1.7,0,0,1,1.19.5,1.48,1.48,0,0,1,.41,1.17,1.85,1.85,0,0,1-.45,1.24,1.36,1.36,0,0,1-1.1.41,1.6,1.6,0,0,1-.94-.36,3.5,3.5,0,0,0-.46-.34q-.32,0-.63.57a3.44,3.44,0,0,0-.37,1.45l5.37.24a8.53,8.53,0,0,1,2.23-3.31,4.23,4.23,0,0,1,3-1,4,4,0,0,1,2.95,1.3,5.5,5.5,0,0,1,1.25,3.39l1.47.06-.05,1-1.4-.06a6.06,6.06,0,0,1-1.09,3.19,2.49,2.49,0,0,1-2.16,1.17,1.58,1.58,0,0,1-1.16-.49,1.55,1.55,0,0,1-.38-1.19,1.59,1.59,0,0,1,.45-1.12,1.45,1.45,0,0,1,2.2.27c.08.11.14.17.16.17q.33,0,.63-.54a3.28,3.28,0,0,0,.34-1.36v-.15l-5-.22a10.19,10.19,0,0,1-2.43,3.68,4.33,4.33,0,0,1-3.09,1.05,4.16,4.16,0,0,1-3.14-1.44,5.88,5.88,0,0,1-1.21-3.68Zm10.33-.55,4.53.19a3.35,3.35,0,0,0-.61-1.84,1.75,1.75,0,0,0-1.36-.7,1.94,1.94,0,0,0-1.47.52A4.67,4.67,0,0,0,436.52,357.9Zm-9.24.6a4.08,4.08,0,0,0,.74,2.07,2,2,0,0,0,1.52.78,1.83,1.83,0,0,0,1.38-.52,7.15,7.15,0,0,0,1.28-2.11Z" fill="#7e8193"/>
            </g>
          </g>
        </g>
      </g>
      <g id="Grupo_59833" data-name="Grupo 59833">
        <path id="Trazado_108140" data-name="Trazado 108140" d="M190.65,340.64l-44.47-96.43a6,6,0,0,0-7.9-2.91l-4.43,2-14.26-30.91a1.32,1.32,0,0,0-1.76-.65,1.34,1.34,0,0,0-.65,1.76,1.33,1.33,0,1,1-2.41,1.11,1.322,1.322,0,1,0-2.4,1.11,1.34,1.34,0,0,1-.65,1.76,1.32,1.32,0,0,1-1.76-.65,1.34,1.34,0,0,0-1.76-.65,1.32,1.32,0,0,0-.65,1.76,1.33,1.33,0,1,1-2.41,1.11,1.33,1.33,0,0,0-2.41,1.11,1.33,1.33,0,1,1-2.41,1.11,1.322,1.322,0,0,0-2.4,1.11,1.327,1.327,0,1,1-2.41,1.11,1.33,1.33,0,0,0-2.41,1.12,1.31,1.31,0,0,1-.65,1.75,1.33,1.33,0,0,1-1.76-.64,1.327,1.327,0,1,0-2.41,1.11,1.322,1.322,0,0,1-2.4,1.11,1.33,1.33,0,1,0-2.41,1.11,1.33,1.33,0,0,1-2.41,1.11,1.33,1.33,0,0,0-2.41,1.11l14.26,30.91-4.39,2a6,6,0,0,0-2.92,7.91L128,364c-.09-.15-.17-.31-.25-.47l2.32,5A6,6,0,0,0,138,371.5l15.59-7.19,34.18-15.76a6,6,0,0,0,2.88-7.91Z" fill="#5e6178"/>
        <path id="Trazado_108141" data-name="Trazado 108141" d="M150.77,254.08l-1.16-2.5c-2.44-1.11-9.14-.31-9.8-.48s-.2-3.95-1.18-4.35,1.93-3.44-2.09-4.72l-2.69,1.24-.83-1.78c-7.87-.55-25.25.32-25.81,1s-3.95,8.42-5.92,5.26c-3.14-5,2.17-13-2.18-13.83s-8.29-3.55-7.9-5.33,11.86-4.35,17-2.17.59,4.74,5.53,5.33,6.52,1.78,7.31-2.37,3.16-7.11-.79-7.31-13.41.59-13.42-1.38v-1a1.32,1.32,0,0,1-1.64-.69,1.33,1.33,0,0,0-2.41,1.11,1.33,1.33,0,0,1-2.41,1.11,1.322,1.322,0,0,0-2.4,1.11,1.327,1.327,0,1,1-2.41,1.11,1.34,1.34,0,0,0-1.76-.65,1.32,1.32,0,0,0-.65,1.76,1.33,1.33,0,1,1-2.41,1.11,1.33,1.33,0,0,0-2.41,1.12,1.322,1.322,0,0,1-2.4,1.11A1.354,1.354,0,0,0,83.47,229a1.33,1.33,0,0,1-2.41,1.11,1.33,1.33,0,0,0-2.41,1.11l6.42,13.91c3.51,1.17,8.28,7.86,12.07,7.14,4.15-.79,4.15-4.24,4.74.05s-4.15,5.87-4.15,5.87-3,21.54-.79,23.91,2.57-1.58,4.15,1,2,9.68,4,10.27,8.3,5.53,8.89,6.32,3.76,3.95,4.15,6.52c.33,2.14-2.64,23.1-2.26,31.38l1.86,4c1.67.68,2.71-.95,3.36.35.79,1.58,1.19,11.66,3.56,12.25,1.43.36,1.42,3.79,2,6.77l1.37,3a5.388,5.388,0,0,1-.25-.48l.61,1.33a2.679,2.679,0,0,0,.8.47c2.43.9,6.24,4.34,10,5.6l7.78-3.58c.91-3.69-2.41-7.83-3.33-8.14-1.19-.4-6.13-15.61-3.36-17.78a37.423,37.423,0,0,0,5.73-5.14c2.17-2.37,5.33-2.76,7.5-5.14s2.57-6.91,2.77-9.28,4.15-.79,4.94-4.74,7.51-8.3,9.28-11.86c.81-1.6.8-4.49.62-7.17l-17.69-38.34C151.85,258.4,151.14,255.94,150.77,254.08Z" fill="#f2e9e4"/>
        <g id="Grupo_59832" data-name="Grupo 59832">
          <g id="Grupo_59830" data-name="Grupo 59830">
            <path id="Trazado_108142" data-name="Trazado 108142" d="M191.24,346.12l-49.76,22.95a6,6,0,0,1-7.91-2.92L89.11,269.72a5.94,5.94,0,0,1,2.91-7.9l49.76-22.95c3-1.38,6.53-.07,8.4,4l44.47,96.42C195.53,341.2,194.22,344.74,191.24,346.12Z" fill="#6595bf"/>
            <path id="Trazado_108143" data-name="Trazado 108143" d="M188.9,341.11l-49.76,22.95a6,6,0,0,1-7.9-2.92l2.31,5a6,6,0,0,0,7.91,2.92l49.75-22.95a6,6,0,0,0,2.92-7.91l-2.32-5A6,6,0,0,1,188.9,341.11Z" fill="#667591"/>
            <rect id="Rectángulo_8775" data-name="Rectángulo 8775" width="12.71" height="9.58" rx="1.06" transform="translate(137.131 350.865) rotate(-24.76)" fill="#f7ece3"/>
            <rect id="Rectángulo_8776" data-name="Rectángulo 8776" width="12.71" height="9.58" rx="1.06" transform="translate(152.921 343.581) rotate(-24.76)" fill="#e8c7aa"/>
            <rect id="Rectángulo_8777" data-name="Rectángulo 8777" width="12.71" height="9.58" rx="1.06" transform="translate(168.701 336.302) rotate(-24.76)" fill="#d9a171"/>
            <rect id="Rectángulo_8778" data-name="Rectángulo 8778" width="12.71" height="9.58" rx="4.79" transform="translate(130.327 336.086) rotate(-24.76)" fill="#aed3f2"/>
            <rect id="Rectángulo_8779" data-name="Rectángulo 8779" width="12.71" height="9.58" rx="4.79" transform="translate(146.107 328.806) rotate(-24.76)" fill="#aed3f2"/>
            <rect id="Rectángulo_8780" data-name="Rectángulo 8780" width="12.71" height="9.58" rx="4.79" transform="translate(161.887 321.522) rotate(-24.76)" fill="#aed3f2"/>
            <rect id="Rectángulo_8781" data-name="Rectángulo 8781" width="12.71" height="9.58" rx="4.79" transform="translate(124.864 324.26) rotate(-24.76)" fill="#aed3f2"/>
            <rect id="Rectángulo_8782" data-name="Rectángulo 8782" width="12.71" height="9.58" rx="4.79" transform="translate(140.654 316.977) rotate(-24.76)" fill="#aed3f2"/>
            <rect id="Rectángulo_8783" data-name="Rectángulo 8783" width="12.71" height="9.58" rx="4.79" transform="translate(156.434 309.697) rotate(-24.76)" fill="#aed3f2"/>
            <rect id="Rectángulo_8784" data-name="Rectángulo 8784" width="12.71" height="9.58" rx="4.79" transform="translate(119.407 312.421) rotate(-24.76)" fill="#aed3f2"/>
            <rect id="Rectángulo_8785" data-name="Rectángulo 8785" width="12.71" height="9.58" rx="4.79" transform="translate(135.187 305.142) rotate(-24.76)" fill="#aed3f2"/>
            <rect id="Rectángulo_8786" data-name="Rectángulo 8786" width="12.71" height="9.58" rx="4.79" transform="translate(150.981 297.867) rotate(-24.76)" fill="#aed3f2"/>
            <rect id="Rectángulo_8787" data-name="Rectángulo 8787" width="52.45" height="36.92" rx="3.23" transform="translate(98.688 273.523) rotate(-24.76)" fill="#233975"/>
            <rect id="Rectángulo_8788" data-name="Rectángulo 8788" width="52.45" height="5.38" transform="translate(95.041 265.6) rotate(-24.76)" fill="#aed3f2"/>
            <g id="Grupo_59829" data-name="Grupo 59829">
              <path id="Trazado_108144" data-name="Trazado 108144" d="M82.15,228.88a1.33,1.33,0,0,1,2.41-1.11A1.34,1.34,0,1,0,87,226.66a1.32,1.32,0,0,1,.65-1.76,1.34,1.34,0,0,1,1.76.65,1.32,1.32,0,0,0,1.76.65,1.34,1.34,0,0,0,.65-1.76,1.322,1.322,0,0,1,2.4-1.11,1.33,1.33,0,1,0,2.41-1.11,1.34,1.34,0,0,1,.65-1.76,1.32,1.32,0,0,1,1.76.65,1.34,1.34,0,0,0,1.76.65,1.32,1.32,0,0,0,.65-1.76,1.33,1.33,0,0,1,2.41-1.11,1.33,1.33,0,1,0,2.41-1.11,1.322,1.322,0,0,1,2.4-1.11,1.34,1.34,0,0,0,1.76.65,1.32,1.32,0,0,0,.65-1.76,1.327,1.327,0,1,1,2.41-1.11,1.327,1.327,0,1,0,2.41-1.11,1.33,1.33,0,0,1,2.41-1.12,1.327,1.327,0,1,0,2.41-1.11,1.322,1.322,0,0,1,2.4-1.11l18.47,40-40.94,18.88Z" fill="#f4f4f4"/>
              <g id="Grupo_59828" data-name="Grupo 59828">
                <rect id="Rectángulo_8789" data-name="Rectángulo 8789" width="31.58" height="2.01" transform="translate(131.679 244.782) rotate(155.24)" fill="#a0a0a0"/>
                <rect id="Rectángulo_8790" data-name="Rectángulo 8790" width="12.08" height="2.01" transform="translate(128.892 238.728) rotate(155.24)" fill="#a0a0a0"/>
                <rect id="Rectángulo_8791" data-name="Rectángulo 8791" width="5.452" height="2.015" transform="translate(104.676 249.321) rotate(155.225)" fill="#a0a0a0"/>
                <rect id="Rectángulo_8792" data-name="Rectángulo 8792" width="12.08" height="2.01" transform="translate(127.163 234.978) rotate(155.24)" fill="#a0a0a0"/>
                <rect id="Rectángulo_8793" data-name="Rectángulo 8793" width="5.44" height="2.01" transform="translate(103.433 245.935) rotate(155.24)" fill="#a0a0a0"/>
                <rect id="Rectángulo_8794" data-name="Rectángulo 8794" width="12.08" height="2.01" transform="translate(125.435 231.229) rotate(155.24)" fill="#a0a0a0"/>
                <rect id="Rectángulo_8795" data-name="Rectángulo 8795" width="5.44" height="2.01" transform="translate(101.696 242.19) rotate(155.24)" fill="#a0a0a0"/>
                <rect id="Rectángulo_8796" data-name="Rectángulo 8796" width="12.08" height="2.01" transform="translate(123.706 227.48) rotate(155.24)" fill="#a0a0a0"/>
                <rect id="Rectángulo_8797" data-name="Rectángulo 8797" width="5.44" height="2.01" transform="translate(99.967 238.44) rotate(155.24)" fill="#a0a0a0"/>
              </g>
            </g>
          </g>
          <g id="Grupo_59831" data-name="Grupo 59831">
            <circle id="Elipse_4253" data-name="Elipse 4253" cx="12.57" cy="12.57" r="12.57" transform="translate(114.379 270.241) rotate(-16.43)" fill="#d9a171"/>
            <path id="Trazado_108145" data-name="Trazado 108145" d="M132.26,286.15,123,282.78a1.463,1.463,0,0,1,1-2.75l6.14,2.22,2.57-11.73a1.464,1.464,0,0,1,2.86.63Z" fill="#f8faff"/>
          </g>
        </g>
      </g>
      <g id="Grupo_59834" data-name="Grupo 59834">
        <path id="Trazado_108146" data-name="Trazado 108146" d="M145.78,218.63h-.16a2.19,2.19,0,0,0-2.12,2.73h0a2.19,2.19,0,0,0,2.12,1.64h.1A15,15,0,0,1,160,234.37a2.17,2.17,0,0,0,2.08,1.62h0a2.19,2.19,0,0,0,2.16-2.7,19.36,19.36,0,0,0-18.46-14.66Z" fill="#d9a171"/>
        <path id="Trazado_108147" data-name="Trazado 108147" d="M145.91,209.33a26.3,26.3,0,0,0-2.84.1,2.2,2.2,0,0,0-1.94,2.73h0a2.19,2.19,0,0,0,2.32,1.62,23.831,23.831,0,0,1,2.4-.09,24.29,24.29,0,0,1,23.64,20.55,2.2,2.2,0,0,0,2.13,1.87h0a2.2,2.2,0,0,0,2.19-2.53,28.67,28.67,0,0,0-27.9-24.25Z" fill="#d9a171"/>
        <path id="Trazado_108148" data-name="Trazado 108148" d="M146,200.05a37.541,37.541,0,0,0-5.43.31,2.18,2.18,0,0,0-1.81,2.71h0a2.18,2.18,0,0,0,2.39,1.62,33,33,0,0,1,4.79-.28,33.58,33.58,0,0,1,32.89,29.88,2.18,2.18,0,0,0,2.14,1.94h0a2.18,2.18,0,0,0,2.2-2.4A38,38,0,0,0,146,200.05Z" fill="#d9a171"/>
        <path id="Trazado_108149" data-name="Trazado 108149" d="M136.51,194.25a2.18,2.18,0,0,0,2.44,1.62,42.183,42.183,0,0,1,7.15-.51,42.66,42.66,0,0,1,41.87,39,2.18,2.18,0,0,0,2.15,2h0a2.19,2.19,0,0,0,2.21-2.36,47,47,0,0,0-54-42.46,2.2,2.2,0,0,0-1.79,2.71Z" fill="#d9a171"/>
      </g>
    </g>
  </g>
</svg>
