<svg xmlns="http://www.w3.org/2000/svg" width="479.351" height="444.307" viewBox="0 0 479.351 444.307">
  <g id="graficos_cf16_tema1" data-name="graficos cf16_tema1" transform="translate(5.427 -36.88)">
    <g id="Capa_2" data-name="Capa 2">
      <path id="Trazado_106869" data-name="Trazado 106869" d="M469.09,166.5l-85.82-33.42,4.45-11.44c.48-1.25.8-2,.8-2a5.67,5.67,0,0,0-3.21-7.34l-11.68-4.55h0a14,14,0,0,0,3.55-5.22c.14-.36.27-.72.38-1.08s.3-.64.43-1a14.23,14.23,0,0,0-7.84-18.33L370,82h-.28l-.27-.08a.58.58,0,0,0-.16,0,3.792,3.792,0,0,0-.48-.14l-.32-.08-.25-.06-.52-.1-.36-.06h-.65l-.73-.06h-.19a5.618,5.618,0,0,0-.58,0h-.31a9.078,9.078,0,0,0-.91.05h-.97a2.693,2.693,0,0,0-.62.11l-.32.07h-.07a1.747,1.747,0,0,0-.38.09,5.713,5.713,0,0,0-.59.17h-.08l-.16.06-.29.1-.23.08h-.16l-.17.08-.26.11h-.06a16,16,0,0,0-1.74.91l-.18.11h0a.1.1,0,0,0-.05,0l-.22.13h-.05l-.1.08h0a3.391,3.391,0,0,0-.3.23,8.266,8.266,0,0,0-.66.51l-.41.36-.21.18c-.09.08-.18.18-.27.27l-.38.37h0l-.11.13c-.29.32-.57.66-.83,1-.1.12-.19.25-.28.38-.23.34-.46.69-.67,1l-.09.15-.08.15-.27.5h0c-.15.3-.3.62-.43.94l-.09.21c-.06.19-.13.37-.19.55l-.06.18a1.572,1.572,0,0,1-.11.35h0a.451.451,0,0,0-.06.12,5.421,5.421,0,0,0-.26.6,1.6,1.6,0,0,0-.1.23c-.08.2-.14.39-.21.59a3.7,3.7,0,0,0-.13.4,4.311,4.311,0,0,0-.16.59,3.749,3.749,0,0,0-.12.45,4.345,4.345,0,0,1-.11.59l-.09.46a5.536,5.536,0,0,1-.07.57,4,4,0,0,0,0,.49v1.55a5.447,5.447,0,0,0,0,.57L338.56,94l-.25-.07h-.06a3.17,3.17,0,0,0-.44-.12h-.49a1.2,1.2,0,0,0-.2,0h-1.16a2.079,2.079,0,0,0-.6.09h-.21l-.23.06h-.14a5.869,5.869,0,0,0-1,.42h-.08c-.12.07-.24.14-.35.22h0l-.29.21h0l-.23.18h0l-.19.18-.27.27h0c-.08.1-.17.2-.25.31l-.05.06h0l-.06.08-.06.1h0c0,.06-.07.12-.11.17a1.269,1.269,0,0,0-.07.12v.06a6.67,6.67,0,0,0-.34.71l-.08.2c-.07.19-.2.5-.37.94a1.211,1.211,0,0,1-.14.37L330,100.5l-.09.22c-.05.11-.09.23-.14.35l-.18.47a.951.951,0,0,1-.11.29l-.31.78-.49,1.26-1.06,2.74c-.47,1.19-.91,2.34-1.31,3.34l-.1.26q-.1.29-.21.54L240.14,77.32c-4-1.56-8.62.68-10.29,5l-10.21,26.21L164.92,41.89,106.28,90.12,98,85.83l-8.77,17L74.05,132.3,57.18,165.14l2.89,1.49,4.6,2.36h0l-.23,1.23-3.05,16L43.27,189.7,45.63,202l8.75,45.39,5.76,30,2.13-.41.63-.12a104.57,104.57,0,0,0,148,144.64l7.24,2.82,130.71,50.92c4,1.57,8.62-.67,10.3-5l8-20.43L431.97,283.4,473.3,177.14A8.085,8.085,0,0,0,469.09,166.5ZM356.61,92.35c.07-.11.14-.24.2-.35s.18-.28.27-.41l.38-.54a.732.732,0,0,1,.09-.09,3.262,3.262,0,0,1,.34-.4l.15-.15.13-.14.32-.29a5.149,5.149,0,0,1,.52-.43l.21-.17a9.226,9.226,0,0,1,.84-.54c.24-.14.5-.27.76-.39a8.319,8.319,0,0,1,.78-.3,5.82,5.82,0,0,1,.6-.17,4,4,0,0,1,.47-.11,4.5,4.5,0,0,1,.64-.11,6.31,6.31,0,0,1,.76-.07h.07a8.74,8.74,0,0,1,3.44.55h0a.25.25,0,0,1,.14,0,8.93,8.93,0,0,1,5.41,10.52A8.94,8.94,0,0,1,362,102.9a.52.52,0,0,1-.13-.06h0a7.32,7.32,0,0,1-.69-.33.8.8,0,0,1-.16-.08l-.31-.18a8.4,8.4,0,0,1-1.05-.71h0l-.19-.16a5.209,5.209,0,0,1-.43-.39l-.14-.13a10.112,10.112,0,0,1-1-1.24h0c-.11-.16-.2-.32-.3-.49a3.079,3.079,0,0,1-.17-.31q-.13-.24-.24-.48c-.06-.13-.11-.26-.17-.4a7.384,7.384,0,0,1-.31-.94,1.664,1.664,0,0,0-.08-.3,4.7,4.7,0,0,1-.14-.73.9.9,0,0,1,0-.16,2.064,2.064,0,0,1,0-.26,3.252,3.252,0,0,1,0-.44c0-.13,0-.25,0-.38V93.35h0a.13.13,0,0,1,0-.06l.06-.36a2,2,0,0,1,.11-.47Z" fill="#bcbec0"/>
      <g id="Grupo_59680" data-name="Grupo 59680">
        <g id="Grupo_59662" data-name="Grupo 59662">
          <g id="Grupo_59644" data-name="Grupo 59644">
            <g id="Grupo_59631" data-name="Grupo 59631">
              <path id="Trazado_106870" data-name="Trazado 106870" d="M55.96,249l1.59-.77,2.15-1.04,1.72-.83,3.34-1.63,17.96-8.7,2.29-1.12,6.93-3.36,4.41-2.14,2.58-1.25,6.04-2.92,32.61-15.82,4.03-1.96,1.36-.66,5.16-2.51,2.52-1.21.17-.09,2.54-1.22,6.78-3.3.8-.38,9.94-4.83,1.56-.75.92-.44,1.22-.59,2.12-1.04,4.29-2.07,23.45-11.38,6.97-3.38,5.63-2.74,2.29-1.1,4.64-2.25,1.07-.52,7.06-3.42,3.71-1.8,1.51-.74.45-.21,2.35-1.15,3.08-1.49.04-.02.03.06,3.11,6.39.7,1.45,3.37,6.93.47.98.98,2.01.82,1.69,2.02,4.16,1.27,2.6,2.72,5.59.5,1.06,1.15,2.36.2.41,1.18,2.43,1.64,3.37.99,2.03.23.46.41.87.52,1.06.93,1.93.71,1.45,1.37,2.83,2.35,4.82.22.46,11.02,22.68-4.9,2.38-21.33,10.36-.99.48-5.84,2.84-2.83,1.38-4.34,2.1-3.33,1.62-6.92,3.37-2.29,1.11-65.39,31.77L94.93,329.21l-4.09-8.41L67.03,271.78l-.79-1.62-2.08-4.28-.6-1.25-.44-.91-4.29-8.82-2.09-4.32Z" fill="#e4e1c5"/>
              <path id="Trazado_106871" data-name="Trazado 106871" d="M64.12,255.27l2.62,5.39,1.06,2.16,1,2.16,2.09,4.29.78,1.6,22.77,46.86,2.58,5.33,66.23-32.18,4.37-2.13,1.37-.66,8.42-4.09,1.19-.58,43.16-21,2.29-1.11h0L231,258l3.33-1.62,1.24-.59.15-.08,1.2-.58.63-.31.42-.21,1.37-.66.13-.06,5.49-2.67,2.36-1.15,2.83-1.38,5.84-2.83,1-.48,1.27-.62,17-8.25.21-.09-3.31-6.82-2-4.11L267,219l-.23-.47-.33-.67-.63-1.31-1.38-2.83-1-2.11-.65-1.33-.41-.85h0l-.7-1.43-.25-.53-.71-1.45L259,202.43l-.17-.34-1.69-3.48v-.05l-.81-1.68-.7-1.43-4.67-9.63-.72-1.46-.54-1.14-1.27-2.6-2-4.15-.83-1.71L242.73,169l-1.34-2.76-.56-1.15-.22.1-1.82.89-.9.43-1.06.52-6.6,3.21-2.33,1.12-.46.23-1.82.88-5.35,2.6-.26.13-5.74,2.8-1.24.61-24.63,12-4,1.94-4.28,2.08-4.25,2.07-1.56.76-3.47,1.68L166,201.47l-6.81,3.31-.61.29h0l-2.73,1.32-1.86.9-5.16,2.52-1.36.66-2.78,1.35h0l-3,1.46-.23.11-33.78,16.42-7,3.38-6.93,3.37-2.29,1.11-22.71,11-4.36,2.11-2,1Zm18.16-8,16.8-8.16,2.29-1.11h0l6.93-3.36,7-3.38,21.67-10.53,8.71-4.23,6.43-3.13.55-.27,1.35-.65,5.17-2.52,1-.5,3.46-1.68.71-.35,5.48-2.65,7.51-3.66,1.56-.75,1.37-.67,2.88-1.4,4.29-2.08,1.83-.89,3.47-1.69,9.47-4.59h0l.78-.38,11.85-5.75.72-.35.48-.24,4.61-2.24,1.93-.93,2.27-1.1,2.16-1h0l.61-.3,2.91-1.41,2.71-1.32,2.28-1.1,1.8-.88.41-.2,1-.47.33.68.82,1.7.83,1.7,2,4.16,1.27,2.6.81,1.67.45.92.12.25h0l6.33,13,1.7,3.49.17.33h0l.07.15.5,1,1.19,2.46.68,1.41.15.31,1.37,2.81,1.17,2.39.31.66.7,1.44.52,1.08.54,1.11.07.13.49,1,.64,1.33.71,1.45h0l.42.89.24.47,4.75,9.78,1.2,2.45-1.16.56-10,4.88-1,.48-1,.47-.65.32-4.2,2-2.84,1.38L246,245.52,243,247l-1.91.93L238,249.42l-6.24,3h0l-1,.5-.31.15h-.06l-1.83.89-5.15,2.51-6.92,3.36L214.18,261l-17.1,8.31-4.11,2L179.27,278l-1.26.62-8.76,4.26-1.42.69-5,2.41-49.63,24.1h0l-14,6.78-1.09-2.23-5.7-11.75h0L76.41,270l-.78-1.61-.38-.77h0l-1.71-3.51-1-2.16-1-2.15-2.83-5.82L73,251.81l9.26-4.49Z" fill="#5e6178"/>
              <g id="Grupo_59630" data-name="Grupo 59630">
                <path id="Trazado_106872" data-name="Trazado 106872" d="M81.63,245.05l-16.1,7.82L73.35,269a20.46,20.46,0,0,0,8.28-23.95Z" fill="#5e6178"/>
                <path id="Trazado_106873" data-name="Trazado 106873" d="M247.39,184.41l-7.82-16.1-16.1,7.82a20.45,20.45,0,0,0,23.92,8.28Z" fill="#5e6178"/>
                <path id="Trazado_106874" data-name="Trazado 106874" d="M256.12,243.32l16.09-7.82-7.82-16.09a20.44,20.44,0,0,0-8.27,23.91Z" fill="#5e6178"/>
                <path id="Trazado_106875" data-name="Trazado 106875" d="M90.16,303.56l8,16.41,16.41-8a20.47,20.47,0,0,0-24.41-8.41Z" fill="#5e6178"/>
                <path id="Trazado_106876" data-name="Trazado 106876" d="M170.35,237.53c-8.67.62-10.68-.31-11.7-2.5s-.36-5.38,4.61-7.69a20.81,20.81,0,0,1,10.14-2l1.76.07-.31-8.77-1.53-.06a26.92,26.92,0,0,0-10.43,1.81l-3.17-6.81-7.84,3.65,3.34,7.19c-6.39,4.78-8.68,11.72-5.84,17.83,3.53,7.58,11.72,7.88,20,7.06,6.47-.57,9.65.37,11,3.24,1.46,3.14-.71,6.81-5.27,8.93a23.4,23.4,0,0,1-11.62,2l-1.89-.18.48,8.76,1.34.18a27.49,27.49,0,0,0,12.6-1.94l3.27,7,7.84-3.65-3.47-7.45c7.67-5.62,8.65-13.42,6.16-18.75C186.81,239,181,236.61,170.35,237.53Z" fill="#5e6178"/>
                <g id="Grupo_59629" data-name="Grupo 59629">
                  <path id="Trazado_106877" data-name="Trazado 106877" d="M130.53,262.73A10.2,10.2,0,1,1,116.91,258,10.2,10.2,0,0,1,130.53,262.73Z" fill="#5e6178"/>
                  <path id="Trazado_106878" data-name="Trazado 106878" d="M226.31,216.27a10.19,10.19,0,1,1-13.61-4.72,10.19,10.19,0,0,1,13.61,4.72Z" fill="#5e6178"/>
                </g>
              </g>
            </g>
            <path id="Trazado_106879" data-name="Trazado 106879" d="M260.11,234.61l-.19.04-4.92.94-24.31,4.68-.85.17-17.19,3.3-21.96,4.24-5.38,1.03-5.22,1-6.01,1.16-9.81,1.89-35.74,6.88-16.52,3.18-26.13,5.03-9.47,1.82-3.96.76-.74.14-1.6.32-2.35.45-.73.14-3.47-7.15.56-9.36.28-4.42.37-6.12,3.01-50.11.11-1.77,92.25,5.62,10.71.66,9.42.56,73.99,4.51,1.01,5.3.46,2.34.45,2.35,2.16,11.21.38,1.92.99,5.19.31,1.61Z" fill="#d1d3d4"/>
            <g id="Grupo_59634" data-name="Grupo 59634">
              <path id="Trazado_106880" data-name="Trazado 106880" d="M259.53,232.96l-.19.04-29.23,5.62-66.42,12.79L57.27,271.89l-2.13.41-5.76-29.95-8.75-45.39-2.35-12.23,19.05-3.66L163.65,160.7l46.55-8.93,28.93-5.55,3.58-.69,6.03,31.4,3.61,18.74,6.78,35.19.3,1.61Z" fill="#e4e1c5"/>
              <path id="Trazado_106881" data-name="Trazado 106881" d="M170.77,165.44c.17.17.32.35.47.53l.81.95.81-.64,6.44,1.22h0l.34.16h.27l5.73-1.1-3.44-2.29-4.6-.87-7.41,1.42ZM45.09,195.77l4.31,22.36h0l.45,2.33,1.54,8.06.31,1.6,7.08,36.78,5.38-1,4.68-.9,2.35-.46,2.35-.45,5.9-1.14,72-13.86,4-.77,4.56-.88,7.67-1.48,3.21-.61,9.12-1.76,1.15-.22,1.89-.36,4.62-.89,7.54-1.45,1.83-.35,6.16-1.19,1.16-.22.75-.15,2.75-.52h.14l1.73-.33,1.6-.31,1.09-.21,2.45-.47,2.47-.48,1.28-.25,1.18-.22h.26l13.2-2.54h0l4.06-.78.37-.07.3-.05,2.62-.51h.2l2-.37,1-.2,5.17-1,1.32-.25h.21l1.4-.27,1.61-.31h.07l-.41-2.11-.39-2-.32-1.67-1-5.18-.12-.58-.16-.86-.15-.76-.22-1.15-1.05-5.45-.54-2.8-.26-1.35-.31-1.58-1.15-6-.18-1L245,185.08l-.07-.39-.17-.87-.31-1.57-.47-2.46-.75-3.91h0l-.31-1.6-1.1-5.7-.44-2.29-.67-3.48-.6-3.12-.66-3.41-.89-4.65-5.92,1.14-8.33,1.6L217,155.79l-17.61,3.39-10.48,2-7.23,1.39h0l-1.46.29-2.54.49-7.41,1.42-2.6.5-2.3.45-2.54.49-3.54.68-1.64.32-2.3.44h-.15l-2.69.51-1.88.36-12.24,2.36-32.73,6.3-7.37,1.42-7.32,1.41-1.92.37L65.09,185l-4.9.94-3.93.76-.93.18L43.82,189.1Zm29.59-7.89,21-4,1.91-.37h0l7.31-1.4,7.37-1.42,32.2-6.2,2.72-.52,5.47-1.05,1.27-.25,1.88-.36,5.13-1h.18l1.59-.3.59-.11,2.82-.55,1.5-.28,5.95-1.15,6.1-1.18h.27l5.73-1.1,2.44-.46,1.82-.36,4-.77,2.61-.5L219.8,160l3.83-.74L231,157.8h0l3.91-.75.58,3.06.32,1.67.79,4.1.23,1.19.45,2.35.45,2.36v.2h0l.25,1.35.32,1.6.75,3.93.95,4.89.34,1.78,2.37,12.38,1.1,5.65.41,2.12.26,1.35.74,3.87.83,4.3.2,1.07v.07l1,5.39.37,1.89.36,1.87v.25l-1.65.32-5.73,1.1h-.05l-.83.15-3.12.61-3,.56h0l-.72.15h0l-1.09.21-4.2.8h0l-11,2.12-2.71.53-.86.16-1.62.31-3.76.72-1.37.27-.63.12-1.25.24-1.56.31-2.17.42-2.33.44-1.91.37-9.47,1.82-2,.39-2.84.55-8.56,1.65-5.91,1.13-12.32,2.38-3.13.6-9.1,1.75h0l-4,.78-57.25,11-4.13.8-6.28,1.21-2.35.45-2.36.45-3,.57-1.32.26-2.75-14.3-.18-1-2.93-15.16-.3-1.6-.93-4.85L54.09,218l-1.9-9.9-.09-.46-.36-1.88h0l-2.16-11.21-.34-1.8,5.16-1,.93-.18,3.93-.75,4.87-.94h0Z" fill="#5e6178"/>
              <g id="Grupo_59633" data-name="Grupo 59633">
                <path id="Trazado_106882" data-name="Trazado 106882" d="M64.09,187.57,46.52,191l3.38,17.57a20.43,20.43,0,0,0,14.19-21Z" fill="#5e6178"/>
                <path id="Trazado_106883" data-name="Trazado 106883" d="M239.91,172l-3.38-17.57L219,157.76A20.46,20.46,0,0,0,239.91,172Z" fill="#5e6178"/>
                <path id="Trazado_106884" data-name="Trazado 106884" d="M233.07,231.11l17.57-3.38-3.38-17.57A20.45,20.45,0,0,0,233.07,231.11Z" fill="#5e6178"/>
                <path id="Trazado_106885" data-name="Trazado 106885" d="M57.17,246.29l3.45,17.91,17.91-3.45a20.45,20.45,0,0,0-21.36-14.46Z" fill="#5e6178"/>
                <path id="Trazado_106886" data-name="Trazado 106886" d="M151.74,203.29c-8.54-1.64-10.24-3.06-10.65-5.44s1-5.29,6.44-6.24a20.82,20.82,0,0,1,10.31.73l1.67.52,2-8.55-1.45-.45a27.109,27.109,0,0,0-10.55-1l-1.3-7.4-8.52,1.5,1.37,7.8c-7.41,3-11.42,9.08-10.26,15.72,1.45,8.24,9.28,10.64,17.52,12,6.39,1.13,9.22,2.86,9.77,6,.59,3.41-2.45,6.4-7.4,7.26a23.4,23.4,0,0,1-11.75-1l-1.78-.66-1.81,8.59,1.25.51a27.39,27.39,0,0,0,12.67,1.39l1.34,7.61,8.52-1.49-1.42-8.09c8.86-3.44,11.83-10.72,10.82-16.52C167.25,209,162.24,205.16,151.74,203.29Z" fill="#5e6178"/>
                <g id="Grupo_59632" data-name="Grupo 59632">
                  <path id="Trazado_106887" data-name="Trazado 106887" d="M106.74,217.31a10.19,10.19,0,1,1-11.93-8.09,10.19,10.19,0,0,1,11.93,8.09Z" fill="#5e6178"/>
                  <path id="Trazado_106888" data-name="Trazado 106888" d="M211.3,197.26a10.19,10.19,0,1,1-11.93-8.09A10.19,10.19,0,0,1,211.3,197.26Z" fill="#5e6178"/>
                </g>
              </g>
            </g>
            <path id="Trazado_106889" data-name="Trazado 106889" d="M57.33,181.08l3.93-.76,4.9-.93,15.17-2.91,1.92-.37,7.32-1.4,7.38-1.42,43.3-8.3,5.52-1.06,1.87-.36,4.96-.94.19-.05,2.35-.44,2.83-.55,4.67-.89,1.9.36,2,.38,10.08,1.91,12.3,2.35,4.32.83,22.8,4.34,8.58,1.64,3.81.73,3.81.72,5.1.98,2.33.45,2.57.49,3.1.59,2.41.46,1.75.33,2.22.42,10.88,2.08,1.06.2,2.42.46,1.3.26.86.16-.27,1.44-.37,1.99-.08.38-2.94,15.5-.04.2-.45,2.37-.06.3-.94,4.96-.23,1.22-.45,2.39-.67,3.5-.79,4.1-.46,2.47-.27,1.42-.15.76-1.5,7.93-.14.7-.09.53-.34,1.83-.93,4.85-.57,2.97-.51,2.7-1.07,5.64-3.29,17.32-23.25-4.42-7.58-1.44-7.62-1.44-24.16-4.59-9.59-1.83-12.14-2.3-.31-.07-4.29-.81-12.26-2.34-12.32-2.33-40.03-7.6-7.61-1.45-8.75-1.66-17.24-3.28-8.89-1.69-4.89-.93-3.56-.68.28-1.48,1.43-7.5,2.35-12.33.1-.55v-.01l3.03-15.98.46-2.44h0l.47-2.44Z" fill="#d1d3d4"/>
            <g id="Grupo_59637" data-name="Grupo 59637">
              <path id="Trazado_106890" data-name="Trazado 106890" d="M268.67,179.18l-5.39,28.36-11.23,59.11L47.56,227.8l11.89-62.57,4.75-25.04Z" fill="#e4e1c5"/>
              <path id="Trazado_106891" data-name="Trazado 106891" d="M66.58,152.32l-.84,4.41-.45,2.38-.45,2.37-.9,4.71-.23,1.23-2.45,12.9L60.19,186l-.47,2.45-.46,2.44-2.67,14.06L54.09,218l-1.16,6.1,2.43.47,10.49,2,26.09,5,8.75,1.66,7.61,1.45,42.59,8.1,4.5.85,12.29,2.33,2.68.51,4.28.82h0l2.24.42,1.47.28,1.41.27h.19l4.61.87,3.84.73,1.22.24,1.4.26,32.35,6.15L231,258l7.57,1.44,4.62.88,4.59.87.09-.47,1-5.26.21-1.12.4-2.09.67-3.56,1.09-5.67,1.31-6.93.3-1.54v-.28l.83-4.36.15-.78,1-5.21.53-2.77.31-1.66h0l.58-3.07v-.09l.13-.7.07-.35.24-1.23.75-4,.56-3,.26-1.34.62-3.3.2-1.05.46-2.44,1-5.08.24-1.25h0l1.39-7.28.37-2-7.84-1.49-4.06-.78-1.18-.22-1.14-.22-3.09-.58h0l-1.27-.24-1.3-.24-3.6-.68-11.47-2.18-3.79-.73h0l-3.34-.63-.47-.09-2.93-.56-5.67-1.07-23.95-4.55h0l-7.52-1.44-.61-.11h0l-6.44-1.22-1.62-.31-3.63-.69-3.12-.58h0L161,164l-4.25-.82h0l-2.86-.54h-.26l-3.72-.7-3.07-.58h0l-2.56-.49L76.44,148l-6.94-1.33-1.77-.33ZM141.25,165h0l7.56,1.44,2.57.49,3.69.7h.21l3.16.6,2.24.42,4.87.93,2.05.39,7.69,1.45L204.44,177l8.59,1.64,1.45.27,3.61.69,2.56.48,2.7.52,5.25,1,5.72,1.09,5.72,1.09,2,.38h0l2.89.55.28.05.66.13,4.56.87.45.08L252,186h0l5.13,1-1,5.34h0l-.59,3.09L255,198.3l-.3,1.55-.39,2.09h0l-.2,1.09-.18.9h0v.22l-.24,1.27-.26,1.36-1.57,8.24-.16.91v.23l-.31,1.62-.15.8L250,224.54h0l-.22,1.17-.42,2.25h0l-.44,2.34-.65,3.4h0l-.06.31h0l-.09.45-.13.7-.35,1.83-.27,1.44-.47,2.45h0l-.88,4.61-1.02,5.7-.47,2.5-.37,1.93v.13l-.42-.08-3.49-.67-.55-.1-.63-.12-1-.2-.29-.05-3-.57-3.34-.64-.84-.15h-.16l-1.36-.25h0l-2.62-.5-.65-.12-4.92-.93-2.58-.49-21.34-4.06-4.42-.84h-.18l-1.06-.2-1.42-.27h0L182.36,244l-1.45-.28-.9-.17-7.52-1.42-4.78-.92-8.8-1.67-9.09-1.73-1.36-.25-33.19-6.3-7.61-1.45-6.79-1.29-1.94-.38-9.48-1.79-15.81-3-7.5-1.43-7.79-1.48,2.91-15.27,1.82-9.63h0l1-5.45v-.18l.93-4.89,1.07-5.63h0L68,169.63l.23-1.23.33-1.77h0l.55-2.93.46-2.38.44-2.37,1.38-7.22,7.08,1.34h0l7.81,1.49Z" fill="#5e6178"/>
              <g id="Grupo_59636" data-name="Grupo 59636">
                <path id="Trazado_106892" data-name="Trazado 106892" d="M87.15,152.35,69.57,149l-3.34,17.58A20.44,20.44,0,0,0,87.15,152.35Z" fill="#5e6178"/>
                <path id="Trazado_106893" data-name="Trazado 106893" d="M256.32,202.71l3.34-17.58-17.58-3.34A20.44,20.44,0,0,0,256.32,202.71Z" fill="#5e6178"/>
                <path id="Trazado_106894" data-name="Trazado 106894" d="M228.13,255.18l17.58,3.34,3.35-17.58a20.46,20.46,0,0,0-20.93,14.24Z" fill="#5e6178"/>
                <path id="Trazado_106895" data-name="Trazado 106895" d="M59.05,204.38l-3.4,17.92,17.92,3.4a20.47,20.47,0,0,0-14.52-21.32Z" fill="#5e6178"/>
                <path id="Trazado_106896" data-name="Trazado 106896" d="M162.8,199.31c-7.32-4.68-8.38-6.63-7.89-9s2.93-4.53,8.3-3.42a20.83,20.83,0,0,1,9.31,4.48l1.36,1.1,5-7.22-1.19-.95a26.68,26.68,0,0,0-9.45-4.78l1.53-7.36-8.47-1.76-1.61,7.76c-8,0-14,4.22-15.34,10.82-1.69,8.19,4.7,13.32,11.86,17.63,5.52,3.4,7.51,6,6.87,9.16-.71,3.39-4.63,5-9.56,4A23.43,23.43,0,0,1,143,214.48l-1.41-1.27-4.85,7.32,1,.94a27.67,27.67,0,0,0,11.27,6L147.39,235l8.47,1.76,1.67-8c9.5.07,14.95-5.6,16.14-11.36C175.13,210.32,171.87,204.92,162.8,199.31Z" fill="#5e6178"/>
                <g id="Grupo_59635" data-name="Grupo 59635">
                  <path id="Trazado_106897" data-name="Trazado 106897" d="M115.81,195.73a10.19,10.19,0,1,1-8.1-11.92,10.19,10.19,0,0,1,8.1,11.92Z" fill="#5e6178"/>
                  <path id="Trazado_106898" data-name="Trazado 106898" d="M220.39,215.68a10.2,10.2,0,1,1-8.11-11.92A10.2,10.2,0,0,1,220.39,215.68Z" fill="#5e6178"/>
                </g>
              </g>
            </g>
            <path id="Trazado_106899" data-name="Trazado 106899" d="M268.67,179.18l-5.39,28.36-4.34,8.45-4.06,7.9-6.41,12.45-1.08,2.11-1.28,2.5L239,254.78l-1.12,2.16-7.35-3.77-1.33-.68-.22-.12-17.78-9.14-39.97-20.55L162,217.94l-46.02-23.65-16.49-8.47L68.01,169.63l-4.3-2.21-4.26-2.19,4.75-25.04Z" fill="#d1d3d4"/>
            <g id="Grupo_59640" data-name="Grupo 59640">
              <path id="Trazado_106900" data-name="Trazado 106900" d="M92.95,80.83l8.33,4.28.49.26,3.96,2.04,2.25,1.15,2.23,1.16,8.05,4.14.01.01,30.23,15.56,10.46,5.38,28.17,14.51,9.6,4.95,1.51.77,10.51,5.42,9.28,4.77,7.13,3.67,7.5,3.86,3.33,1.73.62.3v.01l2.85,1.47,3.74,1.92.07.04,2.08,1.08,4.01,2.06h.01l10.39,5.35v.01l7.98,4.1,3.76,1.94,6.5,3.34-1.44,2.81-.84,1.63-1.77,3.43-1.14,2.24-1.16,2.25-6.1,11.88h-.01l-.72,1.39-.2.41-.51.98-1.58,3.07-.66,1.29-.24.46-1.82,3.55h0l-.82,1.59-.64,1.25-.52,1.01-.57,1.11-.46.9-.2.38-.88,1.71v.01l-1.25,2.42h0l-1.73,3.36-2.36,4.6-.12.22-1.79,3.5-.24.46v.01l-.34.66-.3.56-1,1.97-2,3.89-3.5,6.82-2.23,4.33-1.17,2.27-.13.26-.26.5-.37-.19-2.22-1.14-2.93-1.51-.01.01-2.02-1.05-1.35-.69-.5-.26-4.51-2.32-9.01-4.63-.14-.07-2.49-1.28-.36-.19-.77-.39-5.51-2.84-1.23-.63-3.15-1.61-1.07-.56-1.21-.62-6.51-3.35-1.27-.65-15.59-8.01-3.16-1.63-3.34-1.71-4.08-2.1-1.83-.94-.62-.31-6.22-3.2-1.85-.95-5.14-2.65-5.87-3.02-.01.01-12.18-6.27-8.51-4.37-6.32-3.25-15.33-7.88-3.04-1.57h-.02l-6.65-3.42-7.66-3.94L68.24,168.4l-4.3-2.21-4.27-2.2-4.6-2.36-2.89-1.49L69.05,127.3,84.18,97.88Z" fill="#e4e1c5"/>
              <path id="Trazado_106901" data-name="Trazado 106901" d="M92,92.76l-.6,1.14h0l-.83,1.62-2.1,4.06L67.3,140.78l-5.09,9.91h0l-3.83,7.47,2.2,1.12h0l4.27,2.19L67,162.59l2.14,1.1,4.19,2.15h0l17.24,8.86,7.66,3.93,6.66,3.43,4,2h0l3.06,1.56h0l19,9.76,2.78,1.43,14.45,7.43,5.87,3,5.15,2.65,2.89,1.49,6.13,3.15h0l3.91,2,1.57.8,1.23.63,10.94,5.63,8.28,4.25,1.29.67,7.85,4h0l1.1.58,1.37.7,1.25.64h0l2.95,1.52,2.45,1.27,4.92,2.52,1.72.89,2.5,1.28h0l.74.37,2,1,2.46,1.26,5,2.6.49.25.18.09,2.32,1.19,1.95-3.79.73-1.42.29-.58.59-1.13,1.77-3.43h0l1-2,2.67-5.2.55-1.07.74-1.43,1.41-2.73.94-1.83.31-.61,1.55-3h0l.39-.77,1.49-2.89.39-.76.13-.23.46-.91,2.88-5.59.19-.38.94-1.85.16-.29.67-1.33,1.81-3.52.37-.71,1.2-2.31,1.42-2.78L267.55,185h0l.49-.94.92-1.81,1.38-2.68.64-1.24-2.87-1.47-10.37-5.34-10.67-5.48-.47-.24-5.89-3-2.86-1.47-.54-.29-1.83-.93L231,157.8h0l-3.34-1.71-3.34-1.73-7.51-3.85h0L196.33,140l-.49-.26-10.14-5.22-68.13-35-11.85-6.1-2.23-1.15-2.25-1.15-4-2-.5-.26-2.19-1.12Zm23.87,11.07,66,33.92,4.28,2.2,7.83,4,4.07,2.09,11.4,5.86,7.53,3.87,3.34,1.71,3.34,1.71,8.47,4.37,4.5,2.3,1.29.67,1.08.55h0l2.85,1.47.9.47,5,2.56h0l2.73,1.4.61.32h0l7.74,4h0l4.79,2.46,1.16.6-2.55,5-3,5.77-1.12,2.2h0l-.3.59h0l-1.53,3-.76,1.49-.78,1.5-.94,1.85-.16.3v.06h0l-1,2-.68,1.32-.7,1.35-1.44,2.82-1.87,3.65h0l-1,1.92-.57,1.12v.07l-1.48,2.9-4.08,7.94v.05l-.58,1.14-.4.76-.4.78-1.28,2.5-.22.42-2.46,4.78h0l-.5,1-.5,1h0l-1.54,3-2.14-1.09-1.68-.87-.77-.4-1.74-.89-.3-.15-5.83-3-.51-.26-.69-.35-4.24-2.18-1.73-.9-3.22-1.65-1.5-.77-1.14-.59L203,227.27l-3.4-1.74h0l-.42-.22-1.31-.68-2-1-6.53-3.35-15.44-7.95-9.51-4.88-5.14-2.64-5.85-3L146.05,198h0l-.86-.44h0l-3.85-2-8.56-4.4-20.5-10.53-6.66-3.43L98,173.29,78.71,163.4l-.27-.14L70,158.94l-2.14-1.09h0l-2.15-1.11-1.13-.58,2-3.83,2.92-5.68,2.22-4.31h0l.33-.64,17.61-34.27h0l3.1-6,1-1.92.83-1.62,2-3.92,1.26.66,5.21,2.67h0l5.19,2.66,1.83.94h0Z" fill="#5e6178"/>
              <g id="Grupo_59639" data-name="Grupo 59639">
                <path id="Trazado_106902" data-name="Trazado 106902" d="M111.51,99,95.59,90.81l-8.18,15.91A20.45,20.45,0,0,0,111.51,99Z" fill="#5e6178"/>
                <path id="Trazado_106903" data-name="Trazado 106903" d="M259.5,195.18l8.18-15.92-15.91-8.18a20.45,20.45,0,0,0,7.73,24.1Z" fill="#5e6178"/>
                <path id="Trazado_106904" data-name="Trazado 106904" d="M217.62,237.52l15.91,8.18,8.18-15.91a20.43,20.43,0,0,0-24.09,7.73Z" fill="#5e6178"/>
                <path id="Trazado_106905" data-name="Trazado 106905" d="M69.83,140.93l-8.34,16.22,16.23,8.34a20.46,20.46,0,0,0-7.89-24.56Z" fill="#5e6178"/>
                <path id="Trazado_106906" data-name="Trazado 106906" d="M170.77,165.44c-5.7-6.56-6.16-8.73-5-10.86s4.09-3.51,8.92-.93a20.79,20.79,0,0,1,7.66,6.93l1,1.45,6.83-5.51-.87-1.26A27,27,0,0,0,181.6,148l3.55-6.62-7.63-4.08-3.74,7c-7.66-2.24-14.59.09-17.77,6-4,7.37.74,14.1,6.38,20.26,4.33,4.83,5.49,7.93,4,10.73-1.63,3.05-5.86,3.52-10.3,1.15a23.51,23.51,0,0,1-8.6-8.08l-1-1.62-6.72,5.65.67,1.17a27.49,27.49,0,0,0,9.11,8.92l-3.64,6.81,7.63,4.08,3.87-7.25c9.1,2.77,15.93-1.13,18.7-6.32C179.48,179.49,177.89,173.39,170.77,165.44Z" fill="#5e6178"/>
                <g id="Grupo_59638" data-name="Grupo 59638">
                  <path id="Trazado_106907" data-name="Trazado 106907" d="M126.72,148.71a10.19,10.19,0,1,1-4.4-13.73A10.19,10.19,0,0,1,126.72,148.71Z" fill="#5e6178"/>
                  <path id="Trazado_106908" data-name="Trazado 106908" d="M221.37,197.45a10.2,10.2,0,1,1-4.4-13.73,10.2,10.2,0,0,1,4.4,13.73Z" fill="#5e6178"/>
                </g>
              </g>
            </g>
            <path id="Trazado_106909" data-name="Trazado 106909" d="M90.07,94.99l1.3-1.06.03-.03,5.88-4.83,4.49-3.7,3.96,2.04,2.25,1.15,2.23,1.16,8.05,4.14.01.01,30.23,15.56,10.46,5.38,28.17,14.51,9.6,4.95,1.51.77,10.51,5.42,9.28,4.77,7.13,3.67,7.5,3.86,3.33,1.73.62.3v.01l2.85,1.47,3.74,1.92.07.04,2.08,1.08,4.01,2.06h.01l10.39,5.35v.01l7.98,4.1,7.98,9.72,15,18.27.32.39-8.5,6.98-4.5,3.71-1.24,1.02-5.67,4.65-2.07,1.71-1.1.91-.96.79-2.01,1.65-1.67,1.38-2.25,1.83-1.06.89L258.46,226l-.23.19-.72.59v.01l-3.77,3.09-2.33,1.91-1.04.86-2.23,1.83-.25.21-.81.66v.01l-2.79,2.29-.01.01-6.54,5.37-1.29,1.07-.88.72-.02.02-1.73,1.42-.04.03-1.51,1.25-3.87,3.18-.56.46-.45.37-1.01.83-4.1,3.37-4.05-4.91-4-4.88-1.68-2.04-.01-.01-.1-.12-1.25-1.53-.57-.68-2.76-3.36-1.74-2.11-1.61-1.96-.51-.61-.72-.89-.03-.03-5.22-6.35-.87-1.06-1.33-1.61-4.36-5.3-14.13-17.19-1.38-1.68-1.64-1.99-3.44-4.18-1.25-1.52-1.97-2.4-1.25-1.52-.01-.01-3.32-4.04-4.57-5.56-4.59-5.58-.84-1.02-2.51-3.05-1.75-2.13-2.05-2.5-2.54-3.09-5.26-6.39v-.01L126.92,139.8v-.01l-3.31-4.02-.01-.01-23.46-28.53-6.39-7.77-1.61-1.94-1.59-1.96Z" fill="#d1d3d4"/>
            <g id="Grupo_59643" data-name="Grupo 59643">
              <path id="Trazado_106910" data-name="Trazado 106910" d="M91.04,93.53l.95-.77,4.79-3.95,4.5-3.7,58.64-48.23,59.6,72.58,51.98,63.31,5.06,6.15,15.46,18.83-1.3,1.07L277.48,209.7l-1.25,1.03-5.32,4.38-2.46,2.01-1.11.92-.57.47-2.01,1.65-1.68,1.38-1.85,1.53-.01.01-1.06.87-1.81,1.48-.08.07-.15.12-4.23,3.48-.35.29-.06.05-2.31,1.9-.22.17-2.48,2.05-.18.15h0l-2.25,1.84-2.8,2.31-4.91,4.04-2.04,1.67-4.51,3.72-3.88,3.17-.51.43-.49.4-1.17.97-2.48,2.03-2.44-2.96-4.5-5.48-1.93-2.34-.07-.09-1.25-1.51-3.33-4.06-2.71-3.3h-.01l-.62-.76-1.09-1.33-.74-.89-4.96-6.04h-.01l-.27-.34-.86-1.05L178.9,200.36l-.66-.79-2.36-2.89-3.44-4.17-1.28-1.56-1.12-1.35-.13-.16-5.22-6.34-4.82-5.88-4.07-4.95-1.73-2.08-1.62-1.99-1.06-1.28-2.75-3.35-1.84-2.23-.01-.01-5.25-6.39-39.7-48.28-7.26-8.82-1.6-1.95-1.6-1.94-.01-.02Z" fill="#e4e1c5"/>
              <path id="Trazado_106911" data-name="Trazado 106911" d="M168.23,179.53A26.79,26.79,0,0,1,177,183.8l.59.45-.52-.64-7.74-9.41Zm7.7,10,.77.94,3.43,4.16,3,3.68,4.29-2.08-3-3.68L181,188.37l-2-2.46-.29-.36-.58.83Zm14.9,10.83-.52-.65a5.618,5.618,0,0,0,.15.62ZM97.83,94.6l8.17,9.9,42.59,51.78h0l1,1.18,4.21,5.11h0l.07.08,3.73,4.55.86,1,2.48,3,.14.17,5.9,7.17,7.68,9.34.17.2,1.11,1.35.77.94,3.43,4.16,3,3.68,1.36,1.66,10.14,12.33,1.72,2.08,5.73,7,.87,1.06,5.26,6.4.73.89,1,1.16,1.6,2,3.35,4.07,2.47,3,.86,1,1.25,1.53,4.05,4.92,3.24-2.67,1.86-1.53,2-1.67,1.91-1.57h0l2.14-1.75.63-.52h0l4.06-3.33,1.36-1.12.28-.23,1.74-1.43,1.54-1.27,2-1.68,2.32-1.9,1.13-.93.38-.31,2.23-1.84,2.05-1.69h0l.94-.76,1.55-1.28h0l.23-.19,3.4-2.78.12-.11.93-.76.16-.13.9-.74,1.69-1.39,4.14-3.41,1.54-1.27,1.31-1.08,5.25-4.31,8-6.6L274,184l-3.61-4.38-2.23-2.71-8.35-10.16h0l-16.94-20.61-.44-.52-26.85-32.66L158.71,43.84l-53,43.57-4.5,3.69-1.95,1.61h0l-1.77,1.45ZM146.36,60l11.71-9.62,9.64,11.71L212.2,116.2l25,30.41,7.42,9h0l4.71,5.74h0l8.38,10.18,3.69,4.51h0l1.7,2.07,1.51,1.83,1.64,2,1.49,1.82.26.32.35.42.12.14,3.13,3.82,6.53,7.93-6.6,5.42-5.1,4.19-.07.05-.76.64-1.39,1.15-.17.13-1.06.88-.68.55-.06.05h0l-2.48,2h0l-1.13.93L256.76,214l-.53.42h0l-.23.19-.66.54-1.34,1.1-2.6,2.14-.27.22-1.5,1.23-.46.38-1.85,1.52-.88.73-5.73,4.7-.08.07-.7.58-1.32,1.08-1.45,1.19-.36.3h0l-1,.84-2.54,2.09h0l-7.12,5.85-.33.27-1.68,1.38-.74-.91h0l-3.07-3.73-.25-.31-.6-.71-2.75-3.36-.81-1-1.53-1.8-1.53-1.87-.74-.89L210.26,224,207,220l-.16-.2-.87-1.06-5.6-6.8-.18-.22-2.43-2.94-6.5-7.92h0l-.4-.48-.52-.65-2.87-3.48-3-3.68-3.47-4.2-2-2.46-.29-.36-1.06-1.29h0l-.52-.64-7.74-9.41-2.1-2.56-1.13-1.36-.55-.67-2.79-3.39L161,164l-2-2.43-3.16-3.85-.09-.11-1.19-1.44-40.62-49.39-4.37-5.33-1.29-1.56-3.7-4.51h0l-.5-.61,1.68-1.39,4.49-3.68,5.84-4.81Zm31.73,126.4-2.16,3.13.77.94,3.43,4.16,3,3.68,1.36,1.66,6,.36h.37l-.52-.65-2.87-3.48-3-3.68L181,188.37l-2-2.46-.29-.36Zm-9.86-6.85A26.79,26.79,0,0,1,177,183.8l.59.45-.52-.64-7.74-9.41Z" fill="#5e6178"/>
              <g id="Grupo_59642" data-name="Grupo 59642">
                <path id="Trazado_106912" data-name="Trazado 106912" d="M169.76,60.92,158.39,47.1,144.57,58.46a20.45,20.45,0,0,0,25.19,2.46Z" fill="#5e6178"/>
                <path id="Trazado_106913" data-name="Trazado 106913" d="M267.47,207.91l13.82-11.36-11.36-13.83a20.45,20.45,0,0,0-2.46,25.19Z" fill="#5e6178"/>
                <path id="Trazado_106914" data-name="Trazado 106914" d="M212.23,230.17,223.6,244l13.82-11.36A20.45,20.45,0,0,0,212.23,230.17Z" fill="#5e6178"/>
                <path id="Trazado_106915" data-name="Trazado 106915" d="M114.87,82.89,100.78,94.48l11.58,14.09a20.45,20.45,0,0,0,2.51-25.68Z" fill="#5e6178"/>
                <path id="Trazado_106916" data-name="Trazado 106916" d="M197.81,145.43c-2.63-8.29-2.19-10.46-.3-12s5.15-1.61,8.56,2.68a20.89,20.89,0,0,1,4.28,9.4l.35,1.72,8.45-2.35-.31-1.49a26.92,26.92,0,0,0-4.19-9.72l5.88-4.68-5.38-6.77-6.21,4.93c-6.14-5.09-13.43-5.7-18.7-1.5-6.55,5.2-4.92,13.23-2.18,21.12,2.06,6.15,1.89,9.46-.59,11.44-2.71,2.15-6.78.9-9.91-3a23.46,23.46,0,0,1-4.69-10.83l-.27-1.88-8.41,2.5.15,1.34a27.45,27.45,0,0,0,4.83,11.8l-6,4.81,5.39,6.77,6.43-5.12c7.25,6.15,15.07,5.28,19.68,1.61C200.23,161.77,201.19,155.55,197.81,145.43Z" fill="#5e6178"/>
                <g id="Grupo_59641" data-name="Grupo 59641">
                  <path id="Trazado_106917" data-name="Trazado 106917" d="M164,112.6a10.2,10.2,0,1,1,1.4-14.35A10.2,10.2,0,0,1,164,112.6Z" fill="#5e6178"/>
                  <path id="Trazado_106918" data-name="Trazado 106918" d="M231.56,194.87A10.19,10.19,0,1,1,233,180.53a10.19,10.19,0,0,1-1.44,14.34Z" fill="#5e6178"/>
                </g>
              </g>
            </g>
          </g>
          <g id="Grupo_59661" data-name="Grupo 59661">
            <g id="Grupo_59650" data-name="Grupo 59650">
              <path id="Trazado_106919" data-name="Trazado 106919" d="M217.68,193.11a21.69,21.69,0,0,0-4,2.12,22,22,0,1,0-35.36,7.9,21.092,21.092,0,0,0-2.3.61,22,22,0,1,0,21.71,4.83A22.369,22.369,0,0,0,200,208a21.91,21.91,0,0,0,5.38-2.58,22.43,22.43,0,1,0,12.26-12.27Z" fill="#d1d3d4"/>
              <g id="Grupo_59645" data-name="Grupo 59645">
                <path id="Trazado_106920" data-name="Trazado 106920" d="M202.42,204.05a22.44,22.44,0,1,1,12,29.36,22.44,22.44,0,0,1-12-29.36Z" fill="#a37955"/>
                <path id="Trazado_106921" data-name="Trazado 106921" d="M203.4,204.46a21.37,21.37,0,1,1-.078,16.377A21.37,21.37,0,0,1,203.4,204.46Z" fill="#d9a171"/>
                <path id="Trazado_106922" data-name="Trazado 106922" d="M206.47,203.54a19,19,0,1,1,7.47,25.81A19,19,0,0,1,206.47,203.54Z" fill="#a37955"/>
                <path id="Trazado_106923" data-name="Trazado 106923" d="M220.67,214.29c3,2.85,3.3,3.85,2.86,4.91s-1.78,1.84-4.18.84a9.82,9.82,0,0,1-3.93-2.94l-.54-.63-3,2.91.47.55a12.78,12.78,0,0,0,4,3.09L215,226.31l3.79,1.59,1.46-3.47c3.72.71,6.89-.7,8.13-3.66,1.53-3.66-1-6.63-3.93-9.29-2.26-2.09-2.95-3.51-2.37-4.89s2.62-1.93,4.82-1a11.18,11.18,0,0,1,4.43,3.43l.54.72,2.92-3-.36-.52a13.16,13.16,0,0,0-4.71-3.81l1.42-3.38-3.8-1.59-1.5,3.6c-4.43-.9-7.48,1.25-8.56,3.83C215.92,208,217,210.85,220.67,214.29Z" fill="#d9a171"/>
              </g>
              <g id="Grupo_59646" data-name="Grupo 59646">
                <path id="Trazado_106924" data-name="Trazado 106924" d="M201.5,226.22c-.09.71-.21,1.41-.37,2.11a21.97,21.97,0,0,1-31.46,14.71,21.56,21.56,0,0,1-5.5-4,22,22,0,0,1,4.35-34.47,22.357,22.357,0,0,1,2.9-1.44l1.11-.42a23.338,23.338,0,0,1,2.27-.65h.46q.65-.14,1.29-.24h.37q1.22-.15,2.43-.18a22.691,22.691,0,0,1,2.33.09,20.81,20.81,0,0,1,4,.75,21.629,21.629,0,0,1,4,1.58c.43.22.85.45,1.25.7a4.784,4.784,0,0,1,.42.26,20,20,0,0,1,2.28,1.63c.35.28.68.58,1,.88h0l.21.22a22,22,0,0,1,6.76,14.82,24.9,24.9,0,0,1,0,2.59C201.59,225.44,201.55,225.83,201.5,226.22Z" fill="#a37955"/>
                <path id="Trazado_106925" data-name="Trazado 106925" d="M198.32,233a20.93,20.93,0,1,1-9.08-28.17A20.93,20.93,0,0,1,198.32,233Z" fill="#d9a171"/>
                <path id="Trazado_106926" data-name="Trazado 106926" d="M195.61,233.94a19,19,0,1,1,2.739-14.316A19,19,0,0,1,195.61,233.94Z" fill="#a37955"/>
                <path id="Trazado_106927" data-name="Trazado 106927" d="M181.79,231.47a7.27,7.27,0,0,1-3.69-.77,7.11,7.11,0,0,1-3.87-6.7l5.84,3,2.42-1.87-7.56-3.88.08-.15.17-.31,7.89,4.05,2.42-1.88-8.41-4.31a7.14,7.14,0,0,1,10.32,1.91l.34.55,2.36-1.82-.29-.45a10.12,10.12,0,0,0-3.85-3.47,10,10,0,0,0-6.44-.94,10.28,10.28,0,0,0-5.28,2.76l-2.14-1.09-2.42,1.9,2.86,1.47-.17.31-.07.15-1.7-.87-2.43,1.87,3.25,1.67a10.24,10.24,0,0,0,.76,6,10.09,10.09,0,0,0,9.61,5.87h.54l.1-3Z" fill="#d9a171"/>
              </g>
              <g id="Grupo_59647" data-name="Grupo 59647">
                <path id="Trazado_106928" data-name="Trazado 106928" d="M211.87,189.67c-.1.59-.23,1.17-.37,1.74s-.24.86-.38,1.28-.32.94-.51,1.39-.36.87-.56,1.29c-.11.24-.23.47-.35.7a22.05,22.05,0,0,1-4.43,5.84c-.37.35-.76.69-1.16,1a20.273,20.273,0,0,1-1.76,1.28c-.2.14-.39.27-.6.39a22.28,22.28,0,0,1-4.77,2.2,19.617,19.617,0,0,1-2,.53l-.31.07h0l-1.3.24a22.149,22.149,0,0,1-2.8.22h-1.1a21.437,21.437,0,0,1-3.22-.36,21.75,21.75,0,0,1-7.72-3c-.19-.11-.37-.23-.55-.35l-1-.69c-.26-.19-.51-.4-.76-.6s-.67-.57-1-.87c-.06-.06-.13-.12-.19-.19l-.18-.16a22.39,22.39,0,0,1-1.79-2c-.27-.34-.54-.69-.8-1.07a22,22,0,0,1-2.46-4.5c-.19-.49-.37-1-.52-1.47a22,22,0,1,1,42.55-3Z" fill="#a37955"/>
                <path id="Trazado_106929" data-name="Trazado 106929" d="M210.15,179.48A20.93,20.93,0,1,1,183.81,166a20.93,20.93,0,0,1,26.34,13.48Z" fill="#d9a171"/>
                <path id="Trazado_106930" data-name="Trazado 106930" d="M208.87,182a19,19,0,1,1-8.185-12.066A19,19,0,0,1,208.87,182Z" fill="#a37955"/>
                <path id="Trazado_106931" data-name="Trazado 106931" d="M197.34,190.05a7.13,7.13,0,0,1-10.62.07l6.24-2,.39-3-8.08,2.61-.06-.16a1.615,1.615,0,0,0-.1-.34l8.45-2.72.38-3-9,2.9a7.13,7.13,0,0,1,8.66-5.94l.63.14.38-2.95-.53-.12a10.19,10.19,0,0,0-5.17.27,10,10,0,0,0-5.22,3.89,10.24,10.24,0,0,0-1.78,5.69l-2.29.74-.39,3,3.06-1,.1.34.06.16-1.82.58-.39,3,3.47-1.12a10.16,10.16,0,0,0,4.79,3.71,9.9,9.9,0,0,0,6.6.14,10,10,0,0,0,4.34-2.78l.36-.4-2-2.18Z" fill="#d9a171"/>
              </g>
              <g id="Grupo_59649" data-name="Grupo 59649">
                <path id="Trazado_106932" data-name="Trazado 106932" d="M195.06,184a22.44,22.44,0,1,0,24.14,20.59A22.44,22.44,0,0,0,195.06,184Z" fill="#d1d3d4"/>
                <g id="Grupo_59648" data-name="Grupo 59648">
                  <path id="Trazado_106933" data-name="Trazado 106933" d="M192,182.79a22.44,22.44,0,1,1-20.59,24.14A22.44,22.44,0,0,1,192,182.79Z" fill="#a37955"/>
                  <path id="Trazado_106934" data-name="Trazado 106934" d="M192.08,183.85a21.38,21.38,0,1,1-19.62,23,21.38,21.38,0,0,1,19.62-23Z" fill="#d9a171"/>
                  <path id="Trazado_106935" data-name="Trazado 106935" d="M194.3,186.17a19,19,0,1,1-19.53,18.45,19,19,0,0,1,19.53-18.45Z" fill="#a37955"/>
                  <path id="Trazado_106936" data-name="Trazado 106936" d="M191.24,203.71c-1.16,4-1.91,4.7-3.05,4.79s-2.45-.73-2.66-3.33a9.94,9.94,0,0,1,.81-4.84l.32-.77-3.95-1.32-.28.67a12.83,12.83,0,0,0-.93,5l-3.56.28.33,4.1,3.75-.3c1.07,3.64,3.78,5.81,7,5.56,4-.32,5.45-3.92,6.46-7.75.82-3,1.77-4.23,3.27-4.35s2.91,1.44,3.1,3.82a11.12,11.12,0,0,1-1,5.51l-.4.82,4,1.24.3-.57a13,13,0,0,0,1.23-5.93l3.66-.29-.33-4.1-3.89.31c-1.22-4.34-4.53-6.08-7.32-5.86C194.63,196.62,192.6,198.83,191.24,203.71Z" fill="#d9a171"/>
                </g>
              </g>
            </g>
            <g id="Grupo_59652" data-name="Grupo 59652">
              <path id="Trazado_106937" data-name="Trazado 106937" d="M144,289.16a17.5,17.5,0,0,1-23.54,7.64,16.589,16.589,0,0,1-2.53-1.58,17,17,0,0,1-4.11-4.35,17.29,17.29,0,0,1-2.3-5.13h0a17.5,17.5,0,0,1,24.87-20.09c.21.1.4.21.6.32h0a17.11,17.11,0,0,1,4.46,3.56A17.49,17.49,0,0,1,144,289.16Z" fill="#d1d3d4"/>
              <g id="Grupo_59651" data-name="Grupo 59651">
                <path id="Trazado_106938" data-name="Trazado 106938" d="M142.43,287.14a17.48,17.48,0,0,1-23.54,7.63c-.27-.13-.54-.28-.8-.43a17.51,17.51,0,1,1,24.34-7.2Z" fill="#a37955"/>
                <path id="Trazado_106939" data-name="Trazado 106939" d="M141.69,286.77a16.67,16.67,0,1,1-7.26-22.43,16.67,16.67,0,0,1,7.26,22.43Z" fill="#d9a171"/>
                <path id="Trazado_106940" data-name="Trazado 106940" d="M139.25,287.3A14.82,14.82,0,1,1,135,266.78,14.82,14.82,0,0,1,139.25,287.3Z" fill="#a37955"/>
                <path id="Trazado_106941" data-name="Trazado 106941" d="M128.84,278.11c-2.16-2.4-2.34-3.19-1.94-4s1.49-1.33,3.3-.41a7.69,7.69,0,0,1,2.89,2.52l.38.52,2.49-2.09-.33-.46a10.12,10.12,0,0,0-2.91-2.63l1.27-2.48-2.86-1.46-1.33,2.62c-2.86-.78-5.41.13-6.54,2.36-1.41,2.76.37,5.22,2.5,7.46,1.64,1.76,2.09,2.9,1.56,3.95s-2.15,1.34-3.81.5a8.66,8.66,0,0,1-3.24-2.94l-.38-.59-2.45,2.14.25.43a10.38,10.38,0,0,0,3.44,3.24l-1.3,2.55,2.86,1.46,1.38-2.72c3.39,1,5.89-.53,6.88-2.47C132.16,283.25,131.53,281,128.84,278.11Z" fill="#d9a171"/>
              </g>
            </g>
            <g id="Grupo_59654" data-name="Grupo 59654">
              <path id="Trazado_106942" data-name="Trazado 106942" d="M132.32,126.29a17.5,17.5,0,0,1-30,2,1.67,1.67,0,0,1-.16-.24,17.31,17.31,0,0,1-2.35-5.18h0a17.49,17.49,0,0,1,24.86-20.11l.6.32h0a17.49,17.49,0,0,1,7,23.21Z" fill="#d1d3d4"/>
              <g id="Grupo_59653" data-name="Grupo 59653">
                <path id="Trazado_106943" data-name="Trazado 106943" d="M130.75,124.27a17.5,17.5,0,0,1-28.34,4,1.789,1.789,0,0,1-.23-.25,17.5,17.5,0,1,1,28.57-3.78Z" fill="#a37955"/>
                <path id="Trazado_106944" data-name="Trazado 106944" d="M130,123.89a16.66,16.66,0,1,1,1.015-12.722A16.67,16.67,0,0,1,130,123.89Z" fill="#d9a171"/>
                <path id="Trazado_106945" data-name="Trazado 106945" d="M127.56,124.43a14.8,14.8,0,1,1,2.119-11.148,14.82,14.82,0,0,1-2.119,11.148Z" fill="#a37955"/>
                <path id="Trazado_106946" data-name="Trazado 106946" d="M117.16,115.23c-2.16-2.39-2.35-3.19-1.94-4s1.49-1.34,3.3-.41a7.63,7.63,0,0,1,2.88,2.51l.38.53,2.49-2.09-.33-.46a10,10,0,0,0-2.9-2.63l1.26-2.48-2.85-1.46-1.34,2.61c-2.85-.77-5.4.14-6.54,2.37-1.41,2.76.37,5.21,2.51,7.46,1.64,1.75,2.09,2.9,1.55,3.94s-2.14,1.35-3.8.5a8.74,8.74,0,0,1-3.25-2.93l-.38-.59-2.44,2.14.25.43a10.08,10.08,0,0,0,3.44,3.23l-1.3,2.55,2.85,1.46,1.39-2.71c3.39,1,5.89-.53,6.88-2.48C120.48,120.37,119.85,118.13,117.16,115.23Z" fill="#d9a171"/>
              </g>
            </g>
            <g id="Grupo_59656" data-name="Grupo 59656">
              <path id="Trazado_106947" data-name="Trazado 106947" d="M106.71,221.86a19,19,0,1,1-13.47-27.27,18.629,18.629,0,0,1,5.19,1.76c.22.11.43.22.63.34a18.6,18.6,0,0,1,4.84,3.86,19,19,0,0,1,2.81,21.31Z" fill="#d1d3d4"/>
              <g id="Grupo_59655" data-name="Grupo 59655">
                <path id="Trazado_106948" data-name="Trazado 106948" d="M94,229.11a18.88,18.88,0,1,1,11.1-9.414A19,19,0,0,1,94,229.11Z" fill="#a37955"/>
                <path id="Trazado_106949" data-name="Trazado 106949" d="M105.3,205.46a18.09,18.09,0,1,1-22.79-11.64,18.09,18.09,0,0,1,22.79,11.64Z" fill="#d9a171"/>
                <path id="Trazado_106950" data-name="Trazado 106950" d="M103.83,207.74a16.09,16.09,0,1,1-19-12.45,16.09,16.09,0,0,1,19,12.45Z" fill="#a37955"/>
                <path id="Trazado_106951" data-name="Trazado 106951" d="M88.79,208.67c-3.49-.17-4.25-.64-4.55-1.57s.13-2.16,2.22-2.84a8.39,8.39,0,0,1,4.15-.29l.69.11.31-3.51-.61-.1a11,11,0,0,0-4.25.21l-.93-2.87-3.31,1.07,1,3c-2.78,1.6-4,4.25-3.2,6.83,1,3.2,4.29,3.72,7.65,3.8,2.6.09,3.83.63,4.22,1.84s-.62,2.68-2.54,3.3a9.43,9.43,0,0,1-4.74.24l-.74-.16-.24,3.52.52.13a11.12,11.12,0,0,0,5.13-.15l1,3,3.31-1.08-1-3.14c3.33-1.87,4.11-4.93,3.38-7.18C95.29,210.07,93.08,208.83,88.79,208.67Z" fill="#d9a171"/>
              </g>
            </g>
            <g id="Grupo_59658" data-name="Grupo 59658">
              <path id="Trazado_106952" data-name="Trazado 106952" d="M158.29,195a19,19,0,0,1-25.56,8.28,16,16,0,0,1-1.51-.87A18.987,18.987,0,0,1,150,169.45c.23.11.45.23.67.36h0A18.95,18.95,0,0,1,158.29,195Z" fill="#d1d3d4"/>
              <g id="Grupo_59657" data-name="Grupo 59657">
                <path id="Trazado_106953" data-name="Trazado 106953" d="M145.52,202.24a19,19,0,1,1-11.7-36.14,15,15,0,0,1,1.59-.43,19,19,0,0,1,10.11,36.57Z" fill="#a37955"/>
                <circle id="Elipse_4222" data-name="Elipse 4222" cx="18.09" cy="18.09" r="18.09" transform="translate(117.39 171.586) rotate(-15.54)" fill="#d9a171"/>
                <path id="Trazado_106954" data-name="Trazado 106954" d="M155.42,180.88a16.09,16.09,0,1,1-19-12.46,16.09,16.09,0,0,1,19,12.46Z" fill="#a37955"/>
                <path id="Trazado_106955" data-name="Trazado 106955" d="M140.37,181.81c-3.49-.18-4.24-.65-4.54-1.57s.12-2.17,2.22-2.85a8.31,8.31,0,0,1,4.14-.28l.7.11.3-3.52-.6-.09a10.77,10.77,0,0,0-4.25.2l-.94-2.87L134.09,172l1,3c-2.79,1.6-4.05,4.26-3.21,6.84,1,3.2,4.29,3.71,7.65,3.8,2.61.09,3.83.62,4.22,1.83s-.61,2.68-2.54,3.31a9.43,9.43,0,0,1-4.74.24l-.74-.17-.24,3.52.53.14a11,11,0,0,0,5.12-.16l1,3,3.31-1.07-1-3.15c3.34-1.86,4.11-4.93,3.38-7.18C146.87,183.2,144.66,182,140.37,181.81Z" fill="#d9a171"/>
              </g>
            </g>
            <g id="Grupo_59660" data-name="Grupo 59660">
              <path id="Trazado_106956" data-name="Trazado 106956" d="M193.32,136.91h0a19,19,0,0,1-32.74,1.87,19.51,19.51,0,0,1-2.54-5.64c-.06-.24-.11-.47-.17-.71A19,19,0,0,1,185,111.36c.22.11.45.23.67.36h0a19,19,0,0,1,7.62,25.19Z" fill="#d1d3d4"/>
              <g id="Grupo_59659" data-name="Grupo 59659">
                <path id="Trazado_106957" data-name="Trazado 106957" d="M190.54,136.56a19,19,0,0,1-33.79-4.26,3.816,3.816,0,0,1-.13-.36,19,19,0,1,1,33.92,4.62Z" fill="#a37955"/>
                <path id="Trazado_106958" data-name="Trazado 106958" d="M191.9,120.5a18.09,18.09,0,1,1-22.79-11.63A18.09,18.09,0,0,1,191.9,120.5Z" fill="#d9a171"/>
                <path id="Trazado_106959" data-name="Trazado 106959" d="M190.44,122.79a16.09,16.09,0,1,1-19-12.45A16.09,16.09,0,0,1,190.44,122.79Z" fill="#a37955"/>
                <path id="Trazado_106960" data-name="Trazado 106960" d="M175.39,123.72c-3.49-.18-4.24-.65-4.54-1.57s.12-2.17,2.21-2.85a8.47,8.47,0,0,1,4.15-.28l.7.11.3-3.51-.6-.1a10.65,10.65,0,0,0-4.26.21l-.93-2.88-3.31,1.07,1,3c-2.79,1.59-4,4.25-3.21,6.83,1,3.2,4.29,3.72,7.65,3.8,2.6.09,3.83.62,4.22,1.83s-.62,2.69-2.54,3.31a9.43,9.43,0,0,1-4.74.24l-.74-.17-.24,3.52.52.14a11.12,11.12,0,0,0,5.13-.15l1,2.95,3.31-1.07-1-3.14c3.33-1.87,4.11-4.94,3.38-7.19C181.89,125.12,179.68,123.88,175.39,123.72Z" fill="#d9a171"/>
              </g>
            </g>
          </g>
        </g>
        <g id="Grupo_59673" data-name="Grupo 59673">
          <g id="Grupo_59664" data-name="Grupo 59664">
            <path id="Trazado_106961" data-name="Trazado 106961" d="M468.3,172.14,426.93,278.33,362.11,444.74l-8,20.43c-1.68,4.31-6.29,6.55-10.3,5L213.14,419.23l-10.14-4L114.91,381c-4-1.56-5.89-6.32-4.21-10.64l45.35-116.42,8.23-21.13L224.85,77.3c1.67-4.3,6.29-6.54,10.29-5L321,105.75h0l28.51,11.11h0l28.78,11.22,85.82,33.42C468.1,163.06,470,167.83,468.3,172.14Z" fill="#344154"/>
            <path id="Trazado_106962" data-name="Trazado 106962" d="M120.43,367.93l110-282.29a5.14,5.14,0,0,1,6.53-3.16l219,85.3a5.13,5.13,0,0,1,2.66,6.75l-110,282.29a5.15,5.15,0,0,1-6.53,3.17l-219-85.31A5.14,5.14,0,0,1,120.43,367.93Z" fill="#5d6776"/>
            <rect id="Rectángulo_8551" data-name="Rectángulo 8551" width="276.53" height="215.2" transform="translate(139.87 370.1) rotate(-68.72)" fill="#fff"/>
            <rect id="Rectángulo_8552" data-name="Rectángulo 8552" width="276.53" height="215.2" transform="translate(139.653 367.278) rotate(-68.72)" fill="#d1d3d4"/>
            <rect id="Rectángulo_8553" data-name="Rectángulo 8553" width="276.53" height="215.2" transform="translate(139.739 365.313) rotate(-68.72)" fill="#fff"/>
            <rect id="Rectángulo_8554" data-name="Rectángulo 8554" width="277.28" height="215.2" transform="translate(137.523 366.458) rotate(-68.72)" fill="#d1d3d4"/>
            <rect id="Rectángulo_8555" data-name="Rectángulo 8555" width="215.2" height="276.53" transform="translate(237.662 107.879) rotate(21.28)" fill="#fff"/>
            <path id="Trazado_106963" data-name="Trazado 106963" d="M410,152.26a32.7,32.7,0,0,0-8.31-5.06c-3.51-1.5-7.5-3.2-11.25-4.93h-.08c-7.87-3.65-14.65-7.46-13.75-9.77l.8-2.05.91-2.33,4.45-11.44a5.65,5.65,0,0,0-3.21-7.33l-12.92-5a13.7,13.7,0,0,0,2-1.57h0a14,14,0,0,0,3.55-5.22c.14-.36.27-.72.38-1.08a14.23,14.23,0,0,0-8.22-17.26h-.14A.79.79,0,0,1,364,79c-.34-.12-.68-.22-1-.31h-.05c-.23-.06-.48-.1-.72-.14l-.61-.14h-.46a13.47,13.47,0,0,0-2-.1h-.55a11.89,11.89,0,0,0-1.2.12l-.58.11h-.22l-.31.07h-.11l-.29.07-.39.11a1.71,1.71,0,0,0-.3.09l-.24.08a1.34,1.34,0,0,0-.26.09,1.7,1.7,0,0,0-.48.16l-.45.21a13,13,0,0,0-1.74.9l-.25.14c-.07,0-.12.1-.18.14-.33.21-.65.44-.95.67-.11.1-.23.18-.34.27a13.718,13.718,0,0,0-2.2,2.3l-.21.29c-.23.33-.47.68-.68,1l-.15.2-.18.37c-.1.17-.18.35-.27.53h0a.521.521,0,0,0-.06.13,5.416,5.416,0,0,0-.26.6,1.6,1.6,0,0,0-.1.23c-.08.2-.14.39-.21.59a3.7,3.7,0,0,0-.13.4,4.306,4.306,0,0,0-.16.59,3.744,3.744,0,0,0-.12.45,4.35,4.35,0,0,1-.11.59l-.09.46a5.536,5.536,0,0,1-.07.57,4,4,0,0,0,0,.49v1.55a5.455,5.455,0,0,0,0,.57h0v.43a9.487,9.487,0,0,0,.15,1c.06.34.15.71.23,1.05l-12.9-5a5.83,5.83,0,0,0-1.05-.28h-.14a6,6,0,0,0-.94-.06h-.14a5.8,5.8,0,0,0-1,.13,5.55,5.55,0,0,0-.95.31l-.15.07a4.7,4.7,0,0,0-.85.47l-.1.07a6.709,6.709,0,0,0-.7.6l-.09.08a6.629,6.629,0,0,0-.62.78l-.1.16c-.14.26-.29.51-.41.78s-.3.75-.46,1.17l-.15.38c-.05.11-.09.23-.14.35l-.22.58-.38,1-.49,1.26c-.71,1.84-1.47,3.78-2.11,5.43,0,.11-.09.22-.12.32l-.24.59q-.1.29-.21.54c-.07.18-.13.35-.2.52l-.22.57-.25.64h0a.879.879,0,0,0,0,.15c-.07.17-.13.31-.17.42h0v.05h0l-.76,2h0a2.1,2.1,0,0,1-.13.26.38.38,0,0,0-.09.09.927.927,0,0,1-.15.13,1,1,0,0,1-.13.09l-.17.11-.17.07-.21.08h-.19l-.26.06h-2.1c-3.18-.18-8.14-1.51-13.38-3.19h-.06c-3.9-1.25-8-2.69-11.54-4a33,33,0,0,0-9.28-1.87h-.16a.27.27,0,0,0-.09,0h-2.25a10.339,10.339,0,0,0-1.44.06c-1.12.08-2.24.21-3.34.4a25,25,0,0,0-2.85.64.07.07,0,0,0-.06,0,23.387,23.387,0,0,0-2.61.85h0c-.41.16-.82.32-1.23.5l-.26.1-.79.35-1.18.59-.63.33-.12.06-.61.35a31.369,31.369,0,0,0-3.35,2.28h0a1.5,1.5,0,0,0-.31.24h0a30.879,30.879,0,0,0-2.81,2.57c-.66.68-1.29,1.4-1.89,2.14-.24.3-.47.61-.7.92l-.45.63c-.38.57-.75,1.13-1.11,1.72a.09.09,0,0,1,0,.06h0l-.24.41-.18.32c0,.09-.11.18-.15.27a.37.37,0,0,0-.08.15c0,.06-.07.14-.11.19-.1.21-.21.41-.3.62a.34.34,0,0,0-.08.14c-.14.27-.26.54-.38.8s-.29.64-.42,1a4.424,4.424,0,0,1-.23.54L250,124h0l-.81,2.05,84,32.72,84.27,32.82.8-2.06,1.24-3.21a21.76,21.76,0,0,0,.72-2.34l.33-1.3a24.792,24.792,0,0,0,.46-2.55h0c0-.26.06-.51.08-.77h0c.05-.38.08-.76.11-1.13h0a5.617,5.617,0,0,1,.05-.92A31,31,0,0,0,410,152.26ZM350.54,91.15v-.19c0-.07.05-.42.08-.63s.05-.31.07-.45.05-.24.08-.37l.12-.44a.88.88,0,0,0,.05-.15c.06-.19.12-.37.19-.55a4.282,4.282,0,0,1,.19-.43,3.923,3.923,0,0,1,.16-.36.911.911,0,0,0,.07-.14s0,0,0-.06h0s.14-.24.2-.35.18-.28.27-.41l.38-.54a.732.732,0,0,1,.09-.09,3.262,3.262,0,0,1,.34-.4l.15-.15.13-.14.32-.29a5.148,5.148,0,0,1,.52-.43l.21-.17a9.231,9.231,0,0,1,.84-.54c.24-.14.5-.27.76-.39a8.319,8.319,0,0,1,.78-.3,5.82,5.82,0,0,1,.6-.17,4,4,0,0,1,.47-.11,4.5,4.5,0,0,1,.64-.11,6.308,6.308,0,0,1,.76-.07h.07a8.74,8.74,0,0,1,3.44.55h0a.25.25,0,0,1,.14,0,8.93,8.93,0,0,1,5.41,10.52,7.57,7.57,0,0,1-.34,1,8.94,8.94,0,0,1-11.5,5.21l-.12-.06h0c-.25-.11-.49-.22-.72-.34h-.11a8.08,8.08,0,0,1-1.38-.92l-.13-.1-.49-.44-.12-.12a8.35,8.35,0,0,1-1.47-2h0l-.07-.13c-.12-.24-.23-.47-.33-.71a7.46,7.46,0,0,1-.4-1.21,1.291,1.291,0,0,1-.07-.21,9.122,9.122,0,0,1-.2-1.29v-.55a2.005,2.005,0,0,0,0-.24A1.3,1.3,0,0,1,350.54,91.15Z" fill="#d1d3d4"/>
            <g id="Grupo_59663" data-name="Grupo 59663">
              <path id="Trazado_106964" data-name="Trazado 106964" d="M410.76,150.2h0a32.73,32.73,0,0,0-8.29-5.05c-10.94-4.64-26.42-11.31-25.09-14.73l.91-2.33,4.45-11.44c.48-1.25.8-2,.8-2a5.67,5.67,0,0,0-3.21-7.34l-11.68-4.55-1.24-.48a14.16,14.16,0,0,0,5.17-5.83c.15-.32.3-.64.43-1a14.23,14.23,0,0,0-7.84-18.33L365,77h0l-.27-.1-.27-.08a.58.58,0,0,0-.16,0,4.61,4.61,0,0,0-.53-.15l-.52-.13-.52-.1L362,76.3h-.29l-.82-.06h-.68a13.859,13.859,0,0,0-1.59.09,1.463,1.463,0,0,0-.62.09,3.221,3.221,0,0,1-.62.11l-.32.07-.33.08a5.751,5.751,0,0,0-.71.2h-.08l-.28.1-.4.14h-.16l-.17.08-.26.11h-.07l-.18.08c-.59.29-1.18.59-1.73.93h0a.1.1,0,0,0-.05,0l-.22.13h-.05l-.1.08A13.448,13.448,0,0,0,350.48,80q-.36.33-.69.69a13.449,13.449,0,0,0-2,2.72l-.22.43-.13.23c-.15.3-.3.62-.43.94l-.09.21c-.06.19-.13.37-.19.55a4.008,4.008,0,0,0-.15.49h0c-.08.27-.15.55-.22.82v.4c-.06.29-.12.59-.16.89h0q-.06.45-.09.9a8.532,8.532,0,0,0,0,.88.309.309,0,0,0,0,.09h0a.25.25,0,0,0,0,.08v.1a3.727,3.727,0,0,0,0,.47v.18a2.475,2.475,0,0,0,.05.61c.05.2,0,.37.06.55s.09.58.15.87l.06.27a1.666,1.666,0,0,0,.06.21,1.552,1.552,0,0,0,.07.31l-1.23-.47h0L333.56,89l-.25-.07-.46-.13a.16.16,0,0,0-.09,0h-.24a2.57,2.57,0,0,0-.4-.06h-.24a1,1,0,0,0-.24,0h-.56a5.661,5.661,0,0,0-.84.12h0l-.28.07-.28.09-.39.15-.41.2-.14.06c-.12.07-.24.14-.35.22l-.33.24-.28.22-.25.24-.24.25-.23.28-.05.06-.06.07h0l-.06.08-.06.1a1.193,1.193,0,0,0-.09.15,1.747,1.747,0,0,0-.1.16,5,5,0,0,0-.37.77l-.45,1.14c-.09.23-.19.49-.29.77s-.3.75-.46,1.17l-.15.38c-.05.11-.09.23-.14.35l-.22.58-.38,1-.49,1.26c-.71,1.84-1.47,3.78-2.11,5.43,0,.11-.09.22-.12.32l-.24.59q-.1.29-.21.54h0l-.21.52-.22.57a1.147,1.147,0,0,1-.11.31,2.327,2.327,0,0,1-.14.33h0l-.06.15c-.07.17-.13.31-.17.42h0v.05h0v.05a.858.858,0,0,1-.07.1,1,1,0,0,1-.18.18l-.09.08a1,1,0,0,1-.17.1,1.57,1.57,0,0,1-.32.15,3.442,3.442,0,0,1-.38.11l-.43.08h-.48a6.83,6.83,0,0,1-.91,0h-.37a22.331,22.331,0,0,1-3.09-.42l-.77-.15-.61-.13-.95-.22h-.47l-.49-.13h-.19c-.89-.23-1.82-.48-2.77-.76l-.84-.24-.22-.07h-.09l-.62-.19-1.11-.34h-.11l-1.56-.5-.56-.19-.78-.25c-1.81-.6-3.63-1.22-5.39-1.84l-1.75-.61-.43-.15-1.07-.38-1-.37h0l-.85-.28-.2-.08-.31-.1-.31-.08-.33-.1a5.082,5.082,0,0,0-.52-.15H289l-.86-.22-.23-.06a1,1,0,0,1-.23-.06h-.07l-.29-.06q-.61-.14-1.23-.24l-1-.15-.55-.07c-.56-.07-1.12-.13-1.67-.16H278l-.56.06h0l-1.06.13a29.32,29.32,0,0,0-4.19.84l-.31.08-.3.09h-.13l-.42.13a1.066,1.066,0,0,0-.4.14c-.36.11-.71.23-1.06.37l-1,.38-.76.32-.61.27h-.07l-.69.33a1.179,1.179,0,0,0-.19.11l-.83.44a.28.28,0,0,0-.12,0l-.55.32-.19.11c-.25.15-.5.3-.74.46s-.49.31-.73.48l-.09.05-.34.24h0l-.16.12-.31.22a.21.21,0,0,0-.1.06h-.06a1.3,1.3,0,0,1-.23.18,4.463,4.463,0,0,0-.43.33c-.18.13-.36.27-.53.42a5.533,5.533,0,0,0-.45.37l-.41.35-.14.13c-.46.4-.9.82-1.32,1.25a1.061,1.061,0,0,0-.15.15h0c-.22.23-.44.46-.65.7s-.53.59-.8.89-.53.63-.77.95-.41.53-.6.79l-.29.4-.28.41-.14.21a2.387,2.387,0,0,1-.13.21l-.14.2a2.4,2.4,0,0,0-.13.21l-.06.09h0l-.4.65h0a1.74,1.74,0,0,0-.11.18c-.24.41-.47.83-.68,1.26h0l-.06.1h0c-.09.18-.19.36-.27.55-.35.71-.67,1.45-1,2.2l-.73,1.88L250,124h0l84,32.72,84.26,32.82,1.24-3.21L420,185c.3-.75.55-1.5.77-2.26h0c.08-.29.16-.56.23-.84.15-.55.29-1.1.41-1.64a3.409,3.409,0,0,1,.15-.76c.06-.25.13-.74.18-1.11h0a26.656,26.656,0,0,0,.3-3.19,31,31,0,0,0-11.28-25ZM368.61,92.8a7.663,7.663,0,0,1-.47,1A8.94,8.94,0,0,1,357,97.9a.52.52,0,0,1-.13-.06h0a3.5,3.5,0,0,1-.62-.29.94.94,0,0,1-.22-.12,6.723,6.723,0,0,1-.74-.42,1.66,1.66,0,0,1-.21-.16l-.15-.1a2.185,2.185,0,0,1-.25-.2h0l-.35-.29-.1-.09-.33-.32h0a4.507,4.507,0,0,1-.47-.51l-.13-.17-.1-.17-.08-.09a.131.131,0,0,0,0-.05c-.07-.1-.15-.2-.21-.3s-.16-.24-.23-.36a3.881,3.881,0,0,1-.34-.6l-.13-.27c-.11-.23-.21-.47-.3-.71a3.263,3.263,0,0,1-.11-.31.933.933,0,0,1,0-.13.249.249,0,0,0,0-.07,4.4,4.4,0,0,1-.13-.52,5,5,0,0,1-.15-.75v-.11a3.408,3.408,0,0,1-.05-.46.994.994,0,0,1,0-.17,6.361,6.361,0,0,1,0-1.38,2.837,2.837,0,0,1,0-.29v-.19h0a2.972,2.972,0,0,1,.12-.65h0a.2.2,0,0,0,0-.07v-.08h0a4.44,4.44,0,0,1,.15-.52c.05-.18.12-.35.18-.52l.15-.37v-.08h0s.12-.27.19-.4a9.31,9.31,0,0,1,.57-1,.27.27,0,0,0,.07-.08l.12-.17a.36.36,0,0,1,.07-.1l.06-.07.15-.18a.759.759,0,0,1,.11-.14,3.385,3.385,0,0,1,.31-.34,3.07,3.07,0,0,1,.25-.26l.14-.13a2.26,2.26,0,0,1,.29-.25,3.463,3.463,0,0,1,.37-.3,2.617,2.617,0,0,1,.34-.24,5.869,5.869,0,0,1,.89-.54,3.742,3.742,0,0,1,.45-.22,2.281,2.281,0,0,1,.4-.17,8.07,8.07,0,0,1,1.42-.45,2.2,2.2,0,0,1,.37-.07h0l.32-.05h1.97a4,4,0,0,1,.5.06h.15a1.28,1.28,0,0,1,.36.07h.45a5.74,5.74,0,0,1,.86.28h.14a9,9,0,0,1,5.22,11.6Z" fill="#aeb3bb"/>
              <path id="Trazado_106965" data-name="Trazado 106965" d="M291.62,102c11.19,4,27.1,9.54,28.44,6.12l6.16-15.82a5.67,5.67,0,0,1,7.33-3.3l12.91,5A14.23,14.23,0,0,1,365,77l-1.63,4.16a8.933,8.933,0,1,0-6.48,16.65L334,156.7,250,124l1.75-4.49C257.89,103.63,275.59,96.24,291.62,102Z" fill="#999aa1"/>
            </g>
          </g>
          <g id="Grupo_59672" data-name="Grupo 59672">
            <g id="Grupo_59667" data-name="Grupo 59667">
              <g id="Grupo_59665" data-name="Grupo 59665">
                <path id="Trazado_106966" data-name="Trazado 106966" d="M276.27,160.37a28.7,28.7,0,0,0-3.49-1.66,27.46,27.46,0,0,0-37.24,22.55l27.28,3Z" fill="#d9a171"/>
                <path id="Trazado_106967" data-name="Trazado 106967" d="M235.54,181.26A27.48,27.48,0,0,0,247.35,207l15.47-22.67Z" fill="#5e6178"/>
                <path id="Trazado_106968" data-name="Trazado 106968" d="M290.06,181a27.43,27.43,0,0,0-13.79-20.58l-13.45,23.91Z" fill="#f2e9e4"/>
                <path id="Trazado_106969" data-name="Trazado 106969" d="M294.49,197.5a27.47,27.47,0,0,0,1.67-13.29l-27.25,3.33,10.6,25.3a27.35,27.35,0,0,0,14.98-15.34Z" fill="#a66d58"/>
                <path id="Trazado_106970" data-name="Trazado 106970" d="M247.35,207a27.47,27.47,0,0,0,26.07,2.64l-10.6-25.31Z" fill="#7e8193"/>
                <path id="Trazado_106971" data-name="Trazado 106971" d="M294.12,200.7l15.61-15.49,15.15,5.9" fill="none" stroke="#bec8db" stroke-miterlimit="10" stroke-width="2.03"/>
                <rect id="Rectángulo_8556" data-name="Rectángulo 8556" width="4.07" height="12.87" transform="translate(311.834 183.479) rotate(-68.72)" fill="#bec8db"/>
                <rect id="Rectángulo_8557" data-name="Rectángulo 8557" width="4.07" height="12.87" transform="translate(299.683 160.565) rotate(-68.72)" fill="#bec8db"/>
                <rect id="Rectángulo_8558" data-name="Rectángulo 8558" width="4.07" height="12.87" transform="translate(241.172 137.775) rotate(-68.72)" fill="#bec8db"/>
                <rect id="Rectángulo_8559" data-name="Rectángulo 8559" width="4.07" height="12.87" transform="translate(215.829 195.784) rotate(-68.72)" fill="#bec8db"/>
                <rect id="Rectángulo_8560" data-name="Rectángulo 8560" width="4.07" height="12.87" transform="translate(272.192 221.34) rotate(-68.72)" fill="#bec8db"/>
                <path id="Trazado_106972" data-name="Trazado 106972" d="M286.43,169.46l10.93-7.25,15.36,5.98" fill="none" stroke="#bec8db" stroke-miterlimit="10" stroke-width="2.03"/>
                <path id="Trazado_106973" data-name="Trazado 106973" d="M256.45,157.09l-1.82-11.53-15.78-6.14" fill="none" stroke="#bec8db" stroke-miterlimit="10" stroke-width="2.03"/>
                <path id="Trazado_106974" data-name="Trazado 106974" d="M238.57,198.94l-8.7,4.6-16.74-6.51" fill="none" stroke="#bec8db" stroke-miterlimit="10" stroke-width="2.03"/>
                <path id="Trazado_106975" data-name="Trazado 106975" d="M266.03,212.26l2.46,9.97,16.02,6.24" fill="none" stroke="#bec8db" stroke-miterlimit="10" stroke-width="2.03"/>
              </g>
              <g id="Grupo_59666" data-name="Grupo 59666">
                <rect id="Rectángulo_8561" data-name="Rectángulo 8561" width="2.52" height="91.11" transform="translate(336.712 171.716) rotate(-68.72)" fill="#bec8db"/>
                <rect id="Rectángulo_8562" data-name="Rectángulo 8562" width="2.52" height="91.11" transform="translate(333.386 180.239) rotate(-68.72)" fill="#bec8db"/>
                <rect id="Rectángulo_8563" data-name="Rectángulo 8563" width="2.52" height="91.11" transform="translate(330.084 188.745) rotate(-68.72)" fill="#bec8db"/>
                <rect id="Rectángulo_8564" data-name="Rectángulo 8564" width="2.52" height="91.11" transform="translate(326.759 197.257) rotate(-68.72)" fill="#bec8db"/>
                <rect id="Rectángulo_8565" data-name="Rectángulo 8565" width="2.52" height="91.11" transform="translate(323.443 205.783) rotate(-68.72)" fill="#bec8db"/>
                <rect id="Rectángulo_8566" data-name="Rectángulo 8566" width="2.52" height="91.11" transform="translate(320.132 214.286) rotate(-68.72)" fill="#bec8db"/>
                <rect id="Rectángulo_8567" data-name="Rectángulo 8567" width="2.52" height="91.11" transform="translate(316.816 222.812) rotate(-68.72)" fill="#bec8db"/>
                <rect id="Rectángulo_8568" data-name="Rectángulo 8568" width="2.52" height="91.11" transform="translate(313.491 231.324) rotate(-68.72)" fill="#bec8db"/>
                <rect id="Rectángulo_8569" data-name="Rectángulo 8569" width="2.52" height="91.11" transform="translate(310.179 239.83) rotate(-68.72)" fill="#bec8db"/>
              </g>
            </g>
            <g id="Grupo_59670" data-name="Grupo 59670">
              <g id="Grupo_59668" data-name="Grupo 59668">
                <rect id="Rectángulo_8570" data-name="Rectángulo 8570" width="1.34" height="94.93" transform="translate(172.516 305.322) rotate(-68.72)" fill="#bec8db"/>
                <rect id="Rectángulo_8571" data-name="Rectángulo 8571" width="1.34" height="94.93" transform="translate(170.748 309.846) rotate(-68.72)" fill="#bec8db"/>
                <rect id="Rectángulo_8572" data-name="Rectángulo 8572" width="1.34" height="94.93" transform="translate(168.986 314.383) rotate(-68.72)" fill="#bec8db"/>
                <rect id="Rectángulo_8573" data-name="Rectángulo 8573" width="1.34" height="94.93" transform="translate(167.215 318.917) rotate(-68.72)" fill="#bec8db"/>
                <rect id="Rectángulo_8574" data-name="Rectángulo 8574" width="1.34" height="94.93" transform="translate(165.457 323.454) rotate(-68.72)" fill="#bec8db"/>
                <rect id="Rectángulo_8575" data-name="Rectángulo 8575" width="1.34" height="94.93" transform="translate(163.685 327.988) rotate(-68.72)" fill="#bec8db"/>
                <rect id="Rectángulo_8576" data-name="Rectángulo 8576" width="1.34" height="94.93" transform="translate(161.923 332.525) rotate(-68.72)" fill="#bec8db"/>
                <rect id="Rectángulo_8577" data-name="Rectángulo 8577" width="1.34" height="94.93" transform="translate(160.156 337.049) rotate(-68.72)" fill="#bec8db"/>
                <rect id="Rectángulo_8578" data-name="Rectángulo 8578" width="1.34" height="94.93" transform="translate(158.385 341.592) rotate(-68.72)" fill="#bec8db"/>
                <rect id="Rectángulo_8579" data-name="Rectángulo 8579" width="1.336" height="94.669" transform="translate(155.465 345.561) rotate(-68.839)" fill="#bec8db"/>
                <rect id="Rectángulo_8580" data-name="Rectángulo 8580" width="1.34" height="94.93" transform="translate(154.855 350.653) rotate(-68.72)" fill="#bec8db"/>
              </g>
              <g id="Grupo_59669" data-name="Grupo 59669">
                <rect id="Rectángulo_8581" data-name="Rectángulo 8581" width="44.89" height="16.27" transform="translate(258.901 389.923) rotate(-68.72)" fill="#d9a171"/>
                <rect id="Rectángulo_8582" data-name="Rectángulo 8582" width="24.96" height="16.27" transform="translate(274.062 395.822) rotate(-68.72)" fill="#5e6178"/>
                <rect id="Rectángulo_8583" data-name="Rectángulo 8583" width="28.39" height="16.27" transform="translate(289.221 401.725) rotate(-68.72)" fill="#7e8193"/>
                <rect id="Rectángulo_8584" data-name="Rectángulo 8584" width="16.27" height="16.27" transform="translate(304.376 407.634) rotate(-68.72)" fill="#f2e9e4"/>
                <rect id="Rectángulo_8585" data-name="Rectángulo 8585" width="39.16" height="16.27" transform="translate(319.537 413.533) rotate(-68.72)" fill="#a66d58"/>
              </g>
            </g>
            <g id="Grupo_59671" data-name="Grupo 59671">
              <rect id="Rectángulo_8586" data-name="Rectángulo 8586" width="4.68" height="197.07" transform="matrix(0.363, -0.932, 0.932, 0.363, 200.159, 230.518)" fill="#bec8db"/>
              <rect id="Rectángulo_8587" data-name="Rectángulo 8587" width="4.68" height="197.07" transform="matrix(0.363, -0.932, 0.932, 0.363, 197.935, 236.196)" fill="#bec8db"/>
              <rect id="Rectángulo_8588" data-name="Rectángulo 8588" width="4.68" height="197.07" transform="matrix(0.363, -0.932, 0.932, 0.363, 195.725, 241.865)" fill="#bec8db"/>
              <rect id="Rectángulo_8589" data-name="Rectángulo 8589" width="4.68" height="197.07" transform="matrix(0.363, -0.932, 0.932, 0.363, 178.18, 286.81)" fill="#bec8db"/>
              <rect id="Rectángulo_8590" data-name="Rectángulo 8590" width="4.68" height="157.83" transform="translate(229.019 264.379) rotate(-68.71)" fill="#bec8db"/>
              <rect id="Rectángulo_8591" data-name="Rectángulo 8591" width="4.68" height="22.17" transform="matrix(0.363, -0.932, 0.932, 0.363, 196.252, 251.634)" fill="#d9a171"/>
              <rect id="Rectángulo_8592" data-name="Rectángulo 8592" width="4.68" height="22.17" transform="matrix(0.363, -0.932, 0.932, 0.363, 193.643, 258.335)" fill="#f2e9e4"/>
              <rect id="Rectángulo_8593" data-name="Rectángulo 8593" width="4.68" height="22.17" transform="matrix(0.363, -0.932, 0.932, 0.363, 191.028, 265.027)" fill="#a66d58"/>
              <rect id="Rectángulo_8594" data-name="Rectángulo 8594" width="4.667" height="22.109" transform="translate(187.339 271.189) rotate(-68.839)" fill="#7e8193"/>
              <rect id="Rectángulo_8595" data-name="Rectángulo 8595" width="4.68" height="22.17" transform="matrix(0.363, -0.932, 0.932, 0.363, 185.808, 278.401)" fill="#5e6178"/>
              <rect id="Rectángulo_8596" data-name="Rectángulo 8596" width="4.68" height="157.83" transform="translate(226.405 271.07) rotate(-68.71)" fill="#bec8db"/>
              <rect id="Rectángulo_8597" data-name="Rectángulo 8597" width="4.68" height="157.83" transform="translate(223.791 277.75) rotate(-68.71)" fill="#bec8db"/>
              <rect id="Rectángulo_8598" data-name="Rectángulo 8598" width="4.68" height="157.83" transform="translate(221.183 284.451) rotate(-68.71)" fill="#bec8db"/>
              <rect id="Rectángulo_8599" data-name="Rectángulo 8599" width="4.68" height="157.83" transform="translate(218.569 291.132) rotate(-68.71)" fill="#bec8db"/>
            </g>
          </g>
        </g>
        <path id="Trazado_106976" data-name="Trazado 106976" d="M354.31,185.13q-.44-.93-.9-1.83c-.19-.37-.39-.72-.59-1.08-.28-.53-.56-1.06-.86-1.57s-.46-.75-.69-1.13-.58-1-.88-1.42-.52-.76-.78-1.14-.59-.88-.9-1.31l-.85-1.13c-.31-.41-.62-.82-.94-1.22s-.61-.75-.93-1.12-.62-.75-.95-1.12-.67-.74-1-1.11l-1-1c-.36-.37-.72-.72-1.09-1.08s-.65-.64-1-.94-.78-.72-1.17-1.07l-1-.85-1.25-1-1-.76c-.44-.35-.89-.69-1.34-1l-.94-.67c-.48-.34-1-.67-1.45-1l-.9-.58-1.56-1-.84-.49q-.84-.48-1.68-.93c-.25-.14-.51-.27-.77-.4-.6-.31-1.2-.61-1.81-.9l-.66-.31-2-.87-.51-.21c-.72-.29-1.45-.58-2.18-.84l-.3-.11a61.19,61.19,0,1,0-5.71,117l4.44,13-1.72.59a3.72,3.72,0,0,0-2.32,4.73l33.23,97a11,11,0,0,0,13.94,6.83l2.4-.82a11.05,11.05,0,0,0,4.52-2.95,8.995,8.995,0,0,0,.68-.82,11.306,11.306,0,0,0,1.1-1.79,11,11,0,0,0,.53-8.39l-33.23-97a3.72,3.72,0,0,0-4.73-2.31l-1.54.52-4.55-13.39h0c.83-.42,1.64-.86,2.45-1.32l.17-.09c.77-.44,1.52-.89,2.27-1.36l.26-.16c.72-.46,1.42-.93,2.12-1.41l.31-.22c.68-.47,1.34-1,2-1.46l.33-.26c.65-.5,1.28-1,1.9-1.53.11-.1.22-.2.34-.29.61-.53,1.21-1.06,1.79-1.6l.33-.31c.59-.55,1.16-1.11,1.72-1.68l.3-.31c.56-.58,1.11-1.17,1.64-1.76L345,252c.54-.61,1.06-1.22,1.58-1.85l.2-.27c.53-.65,1-1.3,1.53-2l.13-.17a62,62,0,0,0,7.78-14.21c0-.09.07-.17.1-.26.25-.65.48-1.32.71-2l.25-.72c.19-.6.37-1.2.55-1.79.09-.32.19-.64.28-1,.16-.56.29-1.12.43-1.68q.15-.56.27-1.11c.13-.54.23-1.07.34-1.61l.24-1.22c.09-.51.17-1,.25-1.55s.13-.87.19-1.3.12-1,.17-1.52.1-.91.13-1.37.08-1,.11-1.48.05-1,.06-1.42,0-1,0-1.46v-2.89c0-.47-.05-1-.08-1.51s-.06-.93-.1-1.4-.1-1-.16-1.55-.1-.91-.16-1.37-.16-1.06-.24-1.59-.14-.88-.22-1.33-.22-1.1-.34-1.65-.17-.84-.27-1.26q-.21-.87-.45-1.74c-.1-.39-.2-.78-.31-1.17-.18-.65-.39-1.29-.6-1.94-.11-.32-.2-.64-.31-1-.32-1-.68-1.93-1.06-2.88s-.78-1.91-1.21-2.84A2.486,2.486,0,0,1,354.31,185.13ZM248.82,231.49a54.11,54.11,0,0,1,30.28-70.27c1.23-.49,2.47-.91,3.72-1.31a53.87,53.87,0,0,1,34.7.73h.11c.68.25,1.35.52,2,.79l.35.15c.61.25,1.21.52,1.81.8l.53.24c.55.26,1.09.54,1.63.82l.65.33q.75.4,1.5.84l.73.42,1.38.86.78.5c.44.29.87.59,1.29.89s.55.39.82.59.8.59,1.2.9l.84.67c.38.3.75.61,1.11.92l.86.75,1,.94.87.83,1,1,.86.91c.3.32.6.65.89,1l.84,1c.27.33.55.65.82,1s.55.71.82,1.07.51.67.75,1,.54.78.81,1.16.46.67.68,1l.78,1.26c.2.33.41.66.6,1s.52.92.77,1.39l.52.95c.27.53.53,1.07.79,1.61l.39.81c.38.83.73,1.66,1.07,2.51a53.834,53.834,0,0,1,2.34,7.41c.09.36.17.73.25,1.1a52.891,52.891,0,0,1,1.24,11.42c0,1.29,0,2.57-.12,3.84-.06.87-.14,1.74-.25,2.61a54.11,54.11,0,0,1-33.74,43.89c-.41.17-.82.31-1.24.46h0A54.1,54.1,0,0,1,248.82,231.49Z" fill="#d1d3d4"/>
        <g id="Grupo_59675" data-name="Grupo 59675">
          <path id="Trazado_106977" data-name="Trazado 106977" d="M360.8,376.43,322,262.33l-12.87,4.38,38.79,114.1C355.21,385.23,358.3,385,360.8,376.43Z" fill="#344154"/>
          <path id="Trazado_106978" data-name="Trazado 106978" d="M238.25,232.65a61.2,61.2,0,1,1,79.48,34.24A61.2,61.2,0,0,1,238.25,232.65Zm76.86,27.65A54.11,54.11,0,1,0,244.84,230,54.11,54.11,0,0,0,315.11,260.3Z" fill="#344154"/>
          <path id="Trazado_106979" data-name="Trazado 106979" d="M244.84,230a54.11,54.11,0,1,1,70.27,30.28A54.11,54.11,0,0,1,244.84,230Z" fill="#c7dcff" opacity="0.24"/>
          <path id="Trazado_106980" data-name="Trazado 106980" d="M339.14,221.79l-1.78-.93a49.57,49.57,0,0,0-23.3-54.33l1.56-3a47.05,47.05,0,0,1,23.52,58.26Z" fill="#fff"/>
          <path id="Trazado_106981" data-name="Trazado 106981" d="M360,390.77l-2.4.82a11,11,0,0,1-13.94-6.83l-33.23-97a3.72,3.72,0,0,1,2.32-4.73l16.12-5.52a3.72,3.72,0,0,1,4.73,2.31l33.23,97A11,11,0,0,1,360,390.77Z" fill="#a66d58"/>
          <g id="Grupo_59674" data-name="Grupo 59674">
            <path id="Trazado_106982" data-name="Trazado 106982" d="M352,187.41a61.19,61.19,0,0,0-75.44-35.68l2.3,6.72A54.09,54.09,0,0,1,315.11,260.3c-.41.17-.82.31-1.24.46l44.69,130.5,1.44-.49a11,11,0,0,0,6.83-13.95l-33.23-97a3.72,3.72,0,0,0-4.73-2.31l-1.54.52-4.55-13.39A61.2,61.2,0,0,0,352,187.41Z" fill="#344154"/>
          </g>
        </g>
        <path id="Trazado_106983" data-name="Trazado 106983" d="M289.43,267l-4.7,3-1.46.94-4.89,3.12-4.4,2.81L269.09,280l-2.61,1.67-4.88,3.12-.36.23-5.57.14-12.1.31-2.68.07c.37.66.73,1.32,1.07,2,1.08,2,2.08,4.09,3,6.2.48,1.06.94,2.14,1.38,3.22.78,1.93,1.51,3.89,2.17,5.88.81,2.36,1.52,4.76,2.15,7.19q.7,2.73,1.27,5.52A104.642,104.642,0,0,1,254,335.64v1.43c0,1.25,0,2.5-.09,3.74a9.449,9.449,0,0,1-.07,1.43c-.06,1.23-.16,2.46-.27,3.67a10.73,10.73,0,0,1-.14,1.39c-.12,1.21-.26,2.41-.44,3.6-.06.46-.12.92-.19,1.37-.18,1.19-.39,2.37-.61,3.55-.08.45-.17.9-.26,1.34-.24,1.17-.49,2.33-.78,3.48-.09.44-.2.88-.31,1.31q-.43,1.73-.93,3.42c-.12.44-.25.87-.39,1.3-.33,1.13-.69,2.25-1.07,3.36-.14.43-.29.85-.44,1.26q-.58,1.66-1.23,3.3c-.17.42-.33.83-.51,1.25q-.66,1.64-1.38,3.24c-.19.41-.37.82-.57,1.22-.49,1.07-1,2.13-1.54,3.18-.2.4-.4.8-.62,1.2a104.693,104.693,0,0,1-10.63,16.41c-.24.3-.48.6-.73.89s-.32.42-.49.62q-.85,1-1.74,2.07a104,104,0,0,1-7.78,8.07q-3.66,3.43-7.65,6.49l-10.14-4L114.91,381c-4-1.56-5.89-6.32-4.21-10.64l45.35-116.42,8.23-21.13q4.16.58,8.21,1.5a103.331,103.331,0,0,1,14.25,4.3l.53.21,1.53.6.58.24,1.14.48A103.94,103.94,0,0,1,212.61,253q2.7,2,5.25,4.25a104.55,104.55,0,0,1,10.08,10c1.47,1.66,2.87,3.36,4.23,5.11l1.67-3.37L235,266.7l2.08-4.21,1.88-3.79,2.08-4.22.32-.64.72-.46,4.89-3.13,1.46-.93,4.89-3.12,16.23-10.38-3.38,15.38-.91,4.12,2.27-1.49.76.23.4.14.29.1c.17.06.33.13.48.2l.13.06.49.24h.05c.17.1.32.19.46.29h0a4.632,4.632,0,0,1,.42.32,3.811,3.811,0,0,1,.66.74,4.73,4.73,0,0,1,.76,2.49,10.911,10.911,0,0,1,0,1.49,6.4,6.4,0,0,1-.1.94l-2.42,1.59Z" fill="#bcbec0"/>
        <g id="Grupo_59679" data-name="Grupo 59679">
          <g id="Grupo_59676" data-name="Grupo 59676">
            <circle id="Elipse_4223" data-name="Elipse 4223" cx="104.57" cy="104.57" r="104.57" transform="translate(-5.427 333.302) rotate(-45)" fill="#6595bf"/>
            <circle id="Elipse_4224" data-name="Elipse 4224" cx="85.242" cy="85.242" r="85.242" transform="matrix(0.987, -0.16, 0.16, 0.987, 46.114, 263.085)" fill="#fff"/>
            <circle id="Elipse_4225" data-name="Elipse 4225" cx="62.92" cy="62.92" r="62.92" transform="translate(79.53 270.38)" fill="#6595bf"/>
            <circle id="Elipse_4226" data-name="Elipse 4226" cx="42.36" cy="42.36" r="42.36" transform="translate(100.09 290.94)" fill="#fff"/>
            <circle id="Elipse_4227" data-name="Elipse 4227" cx="26.63" cy="26.63" r="26.63" transform="matrix(0.987, -0.159, 0.159, 0.987, 111.924, 311.237)" fill="#6595bf"/>
          </g>
          <path id="Trazado_106984" data-name="Trazado 106984" d="M234,383.86l-87.26-57.37c-4.54.91-5.65,2.69-4.78,7.27l87.51,57.54Q231.88,387.68,234,383.86Z" fill="#bcbec0"/>
          <g id="Grupo_59678" data-name="Grupo 59678">
            <g id="Grupo_59677" data-name="Grupo 59677">
              <path id="Trazado_106985" data-name="Trazado 106985" d="M220.07,279.63l14.24-28.79,28.19-18.02-5.62,25.56,25.55,5.63-28.19,18.02-32.11.82Z" fill="#334b60"/>
              <path id="Trazado_106986" data-name="Trazado 106986" d="M234.31,250.84l-14.24,28.79,1.21,1.89,35.67-23.46,5.55-25.24Z" fill="#6595bf"/>
            </g>
            <path id="Trazado_106987" data-name="Trazado 106987" d="M265.26,258.1,146.73,336c-4.54-.91-5.65-2.69-4.78-7.27l118.53-77.94C264.9,252,265.83,253.85,265.26,258.1Z" fill="#6d5139"/>
            <path id="Trazado_106988" data-name="Trazado 106988" d="M142.25,333.67l122.39-80.49c-.73-1.05-2-1.77-4.16-2.35L142,328.77C141.53,331,141.58,332.54,142.25,333.67Z" fill="#d9a171"/>
          </g>
        </g>
      </g>
    </g>
  </g>
</svg>
