<svg id="Capa_2" data-name="Capa 2" xmlns="http://www.w3.org/2000/svg" width="150" height="150" viewBox="0 0 150 150">
  <circle id="Elipse_4254" data-name="Elipse 4254" cx="65" cy="65" r="65" transform="translate(10 10)" fill="#344154"/>
  <g id="Grupo_59866" data-name="Grupo 59866">
    <g id="Grupo_59865" data-name="Grupo 59865">
      <g id="Grupo_59862" data-name="Grupo 59862">
        <g id="Grupo_59860" data-name="Grupo 59860">
          <path id="Trazado_108217" data-name="Trazado 108217" d="M59.71,36.81A1.93,1.93,0,0,1,58.15,36a10.47,10.47,0,0,0-9.8-4.6,19.34,19.34,0,0,1-12.67-2.88,1.93,1.93,0,1,1,2.08-3.25A15.58,15.58,0,0,0,48,27.58a14.37,14.37,0,0,1,13.31,6.15,1.92,1.92,0,0,1-.41,2.7,1.86,1.86,0,0,1-1.14.38Z" fill="#aed3f2"/>
          <path id="Trazado_108218" data-name="Trazado 108218" d="M39.49,47.06a2,2,0,0,1-1-.28,1.94,1.94,0,0,1-.63-2.66c2.47-4,7-6.8,13.12-8a34.58,34.58,0,0,1,8.34-.63,1.93,1.93,0,1,1-.26,3.85c-.13,0-13.25-.79-17.91,6.81a1.91,1.91,0,0,1-1.65.92Z" fill="#aed3f2"/>
        </g>
        <g id="Grupo_59861" data-name="Grupo 59861">
          <path id="Trazado_108219" data-name="Trazado 108219" d="M68.6,121.05c31.71,0,49.25-46.51-.83-82.44a4.67,4.67,0,0,1-2-3.86,6.24,6.24,0,0,1,1.14-3.54,90.349,90.349,0,0,0,7.74-13.69,1.59,1.59,0,0,0-1.5-2.29c-3,0-3-2-6-2s-3,2-6,2c-2.57,0-3.62-2.2-4.87-.6-3.63,4.68,8.82,21.13,8.82,21.13-55,36.14-37.25,85.29-4.79,85.29Z" fill="#d9a171"/>
          <path id="Trazado_108220" data-name="Trazado 108220" d="M81.07,35.76s12.63-16.4,9-21.1c-1.24-1.61-2.3.57-4.86.57-3,0-3-2-6-2s-3,2-6,2h-.42C71.55,20.4,66.1,28.47,63,32.79c1.23,1.8,2.11,3,2.11,3-.73.48-1.45,1-2.16,1.45,52.53,36.11,35,83.84,2.83,83.84H86.05c32.56,0,50.18-49-5-85.29Z" fill="#a37955"/>
          <path id="Trazado_108221" data-name="Trazado 108221" d="M83.41,41.59a44,44,0,0,1-21.93,0,4.69,4.69,0,0,1-3.09-6.13v-.09a4.31,4.31,0,0,1,5.1-2.88,35.69,35.69,0,0,0,17.84,0,4.32,4.32,0,0,1,5.1,2.88v.09a4.68,4.68,0,0,1-3.09,6.13Z" fill="#aed3f2"/>
        </g>
      </g>
      <g id="Grupo_59864" data-name="Grupo 59864">
        <g id="Grupo_59863" data-name="Grupo 59863">
          <path id="Trazado_108222" data-name="Trazado 108222" d="M129.45,91.75h-8.06A40.28,40.28,0,0,0,101,97.26c-4.52,2.65-7.12,4.39-12.3,5.12L66.25,105a10.73,10.73,0,0,0-9.17,9.55l.05,6L20.2,104.26C16.46,102.48,13.05,103,11,106a6.66,6.66,0,0,0,1.08,8.72l37.93,24a22.34,22.34,0,0,0,12,3.47H92.26a22.36,22.36,0,0,0,7.8-1.4l29.39-10.94Z" fill="#ffddce"/>
          <path id="Trazado_108223" data-name="Trazado 108223" d="M129.45,124.75v-33h-8.06A40.28,40.28,0,0,0,101,97.26c-4.52,2.65-7.12,4.39-12.3,5.12L66.25,105a10.73,10.73,0,0,0-9.17,9.55l.05,6L29,108.14l-1.38,2.34a6.87,6.87,0,0,0,2.11,9.78L52,134.37a23.55,23.55,0,0,0,9.79,2.14H93.64a23.41,23.41,0,0,0,8.2-1.48Z" fill="#ffddce"/>
          <path id="Trazado_108224" data-name="Trazado 108224" d="M11,106a6.66,6.66,0,0,0,1.08,8.72l37.93,24a22.34,22.34,0,0,0,12,3.47H92.26a22.36,22.36,0,0,0,7.8-1.4l29.39-10.94v-7.38l-29.39,10.94a22.36,22.36,0,0,1-7.8,1.4H62a22.23,22.23,0,0,1-9.31-2l-22.1-14a6.66,6.66,0,0,1-1.08-8.72l.88-1.4-10.15-4.47C16.46,102.48,13.05,103,11,106Z" fill="#ffcbbe"/>
          <path id="Trazado_108225" data-name="Trazado 108225" d="M59.84,108.35l-.09.11h.09v-.15Z" fill="#f5dbcc"/>
          <path id="Trazado_108226" data-name="Trazado 108226" d="M57.1,116.45h23a2.03,2.03,0,0,1,0,4.06h-23Z" fill="#ffcbbe"/>
        </g>
        <path id="Trazado_108227" data-name="Trazado 108227" d="M123.12,88.5A3.86,3.86,0,0,1,127,84.63h9.32a3.86,3.86,0,0,1,3.86,3.87v47.27a3.85,3.85,0,0,1-3.86,3.86H127a3.86,3.86,0,0,1-3.86-3.86Z" fill="#6595bf"/>
      </g>
    </g>
    <path id="Trazado_108228" data-name="Trazado 108228" d="M80.12,70.65c-.93-.33-1.79-.65-2.58-1V56.76a8.29,8.29,0,0,1,3.95,1.73,2.031,2.031,0,1,0,2.74-3,12.43,12.43,0,0,0-6.69-2.84V49.77a2.03,2.03,0,0,0-4.06,0v3a12.6,12.6,0,0,0-1.5.37,9.81,9.81,0,0,0-6.72,7.7,8.58,8.58,0,0,0,2.79,8.47,24.56,24.56,0,0,0,5.43,3.07v16a10.76,10.76,0,0,1-6.31-2.19A2.059,2.059,0,1,0,65,89.69a14.86,14.86,0,0,0,8.53,2.85v3.22a2.03,2.03,0,0,0,4.06,0V92.4a11.9,11.9,0,0,0,9.75-9.84,10.41,10.41,0,0,0-7.17-11.91Zm-9.57-4.49a4.6,4.6,0,0,1-1.3-4.51,5.8,5.8,0,0,1,3.9-4.57l.33-.1V68a17.3,17.3,0,0,1-2.93-1.79ZM83.29,81.88a7.92,7.92,0,0,1-5.75,6.37V74l1.22.44a6.4,6.4,0,0,1,4.53,7.41Z" fill="#fff"/>
  </g>
  <path id="Trazado_108229" data-name="Trazado 108229" d="M59.22,77h-10a2.13,2.13,0,1,1,0-4.26h10a2.13,2.13,0,1,1,0,4.26Z" fill="#fff"/>
  <rect id="Rectángulo_8798" data-name="Rectángulo 8798" width="150" height="150" fill="none"/>
</svg>
