<svg xmlns="http://www.w3.org/2000/svg" xmlns:xlink="http://www.w3.org/1999/xlink" width="472.96" height="473.92" viewBox="0 0 472.96 473.92">
  <defs>
    <clipPath id="clip-path">
      <rect id="Rectángulo_8374" data-name="Rectángulo 8374" width="46.4" height="90.93" transform="translate(468.29 167.6) rotate(180)" fill="none"/>
    </clipPath>
    <clipPath id="clip-path-2">
      <circle id="Elipse_4190" data-name="Elipse 4190" cx="31.64" cy="31.64" r="31.64" transform="translate(431.25 94.69)" fill="none"/>
    </clipPath>
    <clipPath id="clip-path-3">
      <path id="Trazado_106506" data-name="Trazado 106506" d="M442.5,212.9a20.542,20.542,0,0,1-.19-2.43.65.65,0,0,1,.07-.36.63.63,0,0,1,.37-.21,9.871,9.871,0,0,1,2.41-.34,2.93,2.93,0,0,1,1.44.28,1.23,1.23,0,0,1,.69,1.21,1.28,1.28,0,0,1-.23.52,2.709,2.709,0,0,1-.59.67A5.28,5.28,0,0,1,445,213a12.3,12.3,0,0,1-2.64.78" fill="none"/>
    </clipPath>
    <clipPath id="clip-path-4">
      <path id="Trazado_106537" data-name="Trazado 106537" d="M148.74,226.65a30.571,30.571,0,0,1-.5,6.13,1.54,1.54,0,0,1-.57,1.07,1.4,1.4,0,0,1-1.3-.08,6.36,6.36,0,0,1-3.31-3.56,1.59,1.59,0,0,1-.1-1.09,1.64,1.64,0,0,1,1-.86,8.17,8.17,0,0,1,2.76-.55,2.13,2.13,0,0,0,1.56-.41" fill="none"/>
    </clipPath>
  </defs>
  <g id="Grupo_60118" data-name="Grupo 60118" transform="translate(-933.333 -83.04)">
    <g id="Capa_2" data-name="Capa 2" transform="translate(924.773 72.23)">
      <g id="Grupo_59479" data-name="Grupo 59479">
        <g id="Grupo_59432" data-name="Grupo 59432">
          <g id="Grupo_59428" data-name="Grupo 59428">
            <g id="Grupo_59424" data-name="Grupo 59424" opacity="0.79">
              <path id="Trazado_106438" data-name="Trazado 106438" d="M434.81,179.81a6.45,6.45,0,0,1,8.65-2.14,5.94,5.94,0,0,1,2.07,8.35,6.47,6.47,0,0,1-8.66,2.14,5.93,5.93,0,0,1-2.06-8.35Z" fill="#aed3f2"/>
            </g>
            <g id="Grupo_59427" data-name="Grupo 59427" clip-path="url(#clip-path)">
              <g id="Grupo_59426" data-name="Grupo 59426" clip-path="url(#clip-path-2)">
                <g id="Grupo_59425" data-name="Grupo 59425">
                  <rect id="Rectángulo_8366" data-name="Rectángulo 8366" width="86.12" height="3.42" transform="translate(446.783 169.282) rotate(-30)" fill="#aed3f2"/>
                  <rect id="Rectángulo_8367" data-name="Rectángulo 8367" width="86.12" height="3.42" transform="translate(440.376 162.875) rotate(-30)" fill="#aed3f2"/>
                  <rect id="Rectángulo_8368" data-name="Rectángulo 8368" width="86.12" height="3.42" transform="translate(433.974 156.463) rotate(-30)" fill="#aed3f2"/>
                  <rect id="Rectángulo_8369" data-name="Rectángulo 8369" width="86.417" height="3.432" transform="translate(429.245 150.566) rotate(-29.887)" fill="#aed3f2"/>
                  <rect id="Rectángulo_8370" data-name="Rectángulo 8370" width="86.12" height="3.42" transform="translate(421.161 143.65) rotate(-30)" fill="#aed3f2"/>
                  <rect id="Rectángulo_8371" data-name="Rectángulo 8371" width="86.12" height="3.42" transform="translate(414.745 137.244) rotate(-30)" fill="#aed3f2"/>
                  <rect id="Rectángulo_8372" data-name="Rectángulo 8372" width="86.12" height="3.42" transform="translate(408.339 130.838) rotate(-30)" fill="#aed3f2"/>
                  <rect id="Rectángulo_8373" data-name="Rectángulo 8373" width="86.12" height="3.42" transform="translate(401.936 124.425) rotate(-30)" fill="#aed3f2"/>
                </g>
              </g>
            </g>
          </g>
          <path id="Trazado_106439" data-name="Trazado 106439" d="M60.9,102.52l-7.5-7.4L53.26,95l.14-.14,7.4-7.42v.46l-7.44-7.46H54q-3.7,3.7-7.46,7.37l-.35.35-.35-.35L38.43,80.3h.75l-7.47,7.35v-.8l7.34,7.55.37.39-.38.37-7.52,7.3v-.71l7.31,7.58h-.61l7.57-7.25.24-.23.23.24,7.26,7.62h-.28Zm0,0L53.53,110l-.13.13-.14-.14-7.46-7.43h.47L38.85,110l-.31.3-.31-.31-7.41-7.49-.35-.35.36-.35,7.47-7.4v.76l-7.39-7.51-.4-.41.41-.39,7.52-7.3.38-.38.37.38,7.34,7.56h-.7c2.5-2.43,5-4.87,7.54-7.28l.32-.3.29.31,7.29,7.6.23.24-.24.23-7.59,7.23v-.27Z" fill="#f2e9e4"/>
          <g id="Grupo_59429" data-name="Grupo 59429">
            <path id="Trazado_106440" data-name="Trazado 106440" d="M373.13,58.16v4.89a.86.86,0,0,0,.89.84h5.21a.87.87,0,0,1,.9.84h0a.87.87,0,0,1-.9.84h-5.22a.87.87,0,0,0-.9.84V71.3a.86.86,0,0,1-.9.83h0a.87.87,0,0,1-.9-.84V66.4a.87.87,0,0,0-.89-.85H365.2a.87.87,0,0,1-.89-.85h0a.87.87,0,0,1,.9-.84h5.21a.89.89,0,0,0,.91-.84V58.13a.87.87,0,0,1,.9-.84h0a.87.87,0,0,1,.9.87Z" fill="#aed3f2"/>
            <path id="Trazado_106441" data-name="Trazado 106441" d="M344.68,42.5v8A1.37,1.37,0,0,0,346,51.89h8a1.38,1.38,0,0,1,1.37,1.39h0A1.38,1.38,0,0,1,354,54.69h-8A1.38,1.38,0,0,0,344.62,56v8a1.39,1.39,0,0,1-1.39,1.38h0a1.38,1.38,0,0,1-1.4-1.38V56a1.38,1.38,0,0,0-1.37-1.39h-8a1.38,1.38,0,0,1-1.37-1.39h0a1.37,1.37,0,0,1,1.38-1.37h8a1.39,1.39,0,0,0,1.39-1.37v-8a1.37,1.37,0,0,1,1.39-1.37h0a1.37,1.37,0,0,1,1.43,1.39Z" fill="#aed3f2"/>
          </g>
          <g id="Grupo_59430" data-name="Grupo 59430" opacity="0.16">
            <path id="Trazado_106442" data-name="Trazado 106442" d="M481.08,80.47a35.12,35.12,0,0,1-14.47,5.63A41.87,41.87,0,0,1,451,85.49a44.94,44.94,0,0,1-14.49-6.24,44.28,44.28,0,0,1-11.43-11,31.13,31.13,0,0,1-6.35-14.69,22,22,0,0,1,.63-8.2,29.68,29.68,0,0,1,3.21-7.47,27.659,27.659,0,0,1,5.14-6.34,19.16,19.16,0,0,1,7.22-4.21,13.93,13.93,0,0,1,4.32-.54,12.68,12.68,0,0,1,4.28,1,14.37,14.37,0,0,1,6.35,5.7,20.63,20.63,0,0,1,2.82,7.82,21.12,21.12,0,0,1-.32,8.3,22.25,22.25,0,0,1-9.8,13,29.94,29.94,0,0,1-15.46,4.44,37.11,37.11,0,0,1-8-.75A40.383,40.383,0,0,1,398.51,54.7a40.23,40.23,0,0,1-4.9-6.23,43.578,43.578,0,0,1-3.68-7,49.54,49.54,0,0,1-3.6-23,48.066,48.066,0,0,1,1.41-7.66,48.33,48.33,0,0,0,3.53,30.11A43.27,43.27,0,0,0,395,47.51a38.229,38.229,0,0,0,4.88,5.81,38.17,38.17,0,0,0,19.68,10.53,35.08,35.08,0,0,0,7.44.58,27,27,0,0,0,14-4.2,21.31,21.31,0,0,0,5.34-4.89A18.21,18.21,0,0,0,449.5,49a18.72,18.72,0,0,0-2.2-13.82,11.51,11.51,0,0,0-5-4.58,9.91,9.91,0,0,0-3.24-.77,11.34,11.34,0,0,0-3.36.41,16.35,16.35,0,0,0-6.1,3.55A25.769,25.769,0,0,0,425,39.4c-2.59,4.2-4.18,9.08-3.65,13.92a24.19,24.19,0,0,0,1.93,7.09,33.269,33.269,0,0,0,3.71,6.53,43.44,43.44,0,0,0,24.37,17.13,40.77,40.77,0,0,0,15.2,1.24,36.78,36.78,0,0,0,14.52-4.84Z" fill="#aed3f2"/>
          </g>
          <g id="Grupo_59431" data-name="Grupo 59431">
            <path id="Trazado_106443" data-name="Trazado 106443" d="M13,355.29a7.172,7.172,0,0,1,14,1.17,7.79,7.79,0,0,1-.25,3A7.29,7.29,0,0,1,23,363.83a7.15,7.15,0,0,1-5.62.23,7.26,7.26,0,0,1-3.92-3.64,7.13,7.13,0,0,1-.46-5.13Zm0,0a6.29,6.29,0,0,0,.63,5,6.175,6.175,0,1,0,2.66-8.82A6.31,6.31,0,0,0,13,355.29Z" fill="#fff"/>
            <path id="Trazado_106444" data-name="Trazado 106444" d="M16.26,376.23a4.59,4.59,0,0,1,1.95-2.58,4.65,4.65,0,0,1,3.37-.67,4.58,4.58,0,0,1,3.07,2.08,4.72,4.72,0,0,1-2,6.8,4.67,4.67,0,0,1-6.35-5.63Zm0,0a3.71,3.71,0,0,0,.44,3.1,3.63,3.63,0,0,0,2.48,1.6,3.69,3.69,0,0,0,2.11-7,3.64,3.64,0,0,0-2.95,0,3.73,3.73,0,0,0-2.08,2.3Z" fill="#fff"/>
          </g>
          <path id="Trazado_106445" data-name="Trazado 106445" d="M202.1,289l-5.64-5.88-.13-.13.14-.14c1.95-1.87,3.91-3.74,5.89-5.58v.46l-5.58-5.93h.61q-3,2.79-5.94,5.53l-.36.34-.34-.37-5.53-6h.75l-6,5.5V276l5.48,6,.36.4-.4.36-6,5.45v-.7q2.745,3,5.46,6h-.62l6-5.4.25-.23.22.25c1.82,2,3.62,4.06,5.4,6.1H196Zm0,0-5.85,5.62-.13.13-.14-.14q-2.82-2.94-5.61-5.91h.47l-5.91,5.55-.31.3-.31-.32c-1.86-2-3.7-4-5.55-6l-.33-.37.36-.34,6-5.5v.75l-5.53-6-.39-.42.43-.38,6-5.46.4-.36.35.39,5.48,6h-.7q3-2.745,6-5.44l.33-.29.29.32,5.42,6.08.23.25-.25.22c-2,1.8-4,3.59-6.07,5.37v-.27Z" fill="#fcfcfc"/>
        </g>
        <g id="Grupo_59460" data-name="Grupo 59460">
          <g id="Grupo_59438" data-name="Grupo 59438">
            <g id="Grupo_59436" data-name="Grupo 59436">
              <g id="Grupo_59434" data-name="Grupo 59434">
                <g id="Grupo_59433" data-name="Grupo 59433">
                  <rect id="Rectángulo_8375" data-name="Rectángulo 8375" width="447.34" height="354.73" rx="10.72" transform="translate(21.2 124.71)" fill="#cce7f0"/>
                  <path id="Trazado_106446" data-name="Trazado 106446" d="M457.82,479.44l-396.43.25H33.52a20.683,20.683,0,0,1-3.13-.12A10.83,10.83,0,0,1,24.7,477a11,11,0,0,1-3.35-5.29,11.42,11.42,0,0,1-.43-3.13V415.93l-.06-99.11-.06-99.11V137.19a26,26,0,0,1,.09-3.16,11.2,11.2,0,0,1,5-8,11.66,11.66,0,0,1,2.93-1.36,12.38,12.38,0,0,1,3.2-.47l396.43.25h27.87a20.5,20.5,0,0,1,3.12.12,11,11,0,0,1,9,7.86,11.389,11.389,0,0,1,.42,3.12V188.2l-.06,99.11-.06,99.11V467a26.587,26.587,0,0,1-.1,3.09,11.09,11.09,0,0,1-.82,3,10.84,10.84,0,0,1-4,4.65,11.509,11.509,0,0,1-2.8,1.3,12.16,12.16,0,0,1-3.2.4Zm0,0a11.73,11.73,0,0,0,3.06-.45,10.6,10.6,0,0,0,2.79-1.3,10.75,10.75,0,0,0,3.95-4.65,10.339,10.339,0,0,0,.82-3,24.534,24.534,0,0,0,.09-3.09v-80.5l-.06-99.11-.06-99.11V138.68c-.05-2.06.18-4.15-.41-6.09a10.49,10.49,0,0,0-8.63-7.53,22.058,22.058,0,0,0-3.06-.12H428.36l-396.43.25a11.511,11.511,0,0,0-2.92.42,10.63,10.63,0,0,0-2.67,1.24,10.29,10.29,0,0,0-3.77,4.44,10,10,0,0,0-.79,2.84,25.05,25.05,0,0,0-.09,3v80.55l-.06,99.11-.07,99.11v49.55c.05,2.07-.18,4.15.4,6.08a10.45,10.45,0,0,0,8.59,7.51,20.445,20.445,0,0,0,3.05.11H61.39Z" fill="#f9f9f9"/>
                </g>
                <rect id="Rectángulo_8376" data-name="Rectángulo 8376" width="428.12" height="334.6" rx="5.3" transform="translate(30.81 134.77)" fill="#eff6fc" opacity="0.22"/>
              </g>
              <g id="Grupo_59435" data-name="Grupo 59435" opacity="0.44">
                <rect id="Rectángulo_8377" data-name="Rectángulo 8377" width="54.17" height="140.28" transform="translate(219.83 303.59)" fill="#aed3f2"/>
                <rect id="Rectángulo_8378" data-name="Rectángulo 8378" width="54.17" height="179.78" transform="translate(290.6 264.08)" fill="#aed3f2"/>
                <rect id="Rectángulo_8379" data-name="Rectángulo 8379" width="54.17" height="103.33" transform="translate(144.69 340.53)" fill="#aed3f2"/>
                <rect id="Rectángulo_8380" data-name="Rectángulo 8380" width="54.17" height="218.43" transform="translate(362.24 225.43)" fill="#aed3f2"/>
                <rect id="Rectángulo_8381" data-name="Rectángulo 8381" width="54.17" height="68.33" transform="translate(71.29 375.53)" fill="#aed3f2"/>
              </g>
            </g>
            <g id="Grupo_59437" data-name="Grupo 59437">
              <path id="Trazado_106447" data-name="Trazado 106447" d="M54.3,444.45l49.93-77.24h26.52L80.92,444.75Z" fill="#6595bf"/>
              <path id="Trazado_106448" data-name="Trazado 106448" d="M179.88,443.78l-49.19-76.52H104.17l49.86,76.52Z" fill="#a3bfd9"/>
              <path id="Trazado_106449" data-name="Trazado 106449" d="M153.92,443.75l67.57-105.86h26.52L180.04,444.11Z" fill="#6595bf"/>
              <path id="Trazado_106450" data-name="Trazado 106450" d="M316.53,443.46,248.09,337.94H221.75L290,444.45Z" fill="#a3bfd9"/>
              <path id="Trazado_106451" data-name="Trazado 106451" d="M404.47,279.6c-.87.28-54.54,31.8-54.54,31.8l16.83,10.12L289.82,444.27l26.55-.17,69.58-111,18.71,10.19Z" fill="#6595bf"/>
            </g>
          </g>
          <g id="Grupo_59459" data-name="Grupo 59459">
            <g id="Grupo_59439" data-name="Grupo 59439">
              <path id="Trazado_106452" data-name="Trazado 106452" d="M362.15,96.4H440a1.67,1.67,0,0,1,1.67,1.67v34.68a18,18,0,0,1-18,18H362.15a18,18,0,0,1-18-18V114.41A18,18,0,0,1,362.15,96.4Z" transform="translate(785.82 247.16) rotate(180)" fill="#f2e9e4"/>
              <path id="Trazado_106453" data-name="Trazado 106453" d="M357.37,108.11l9.14-.17,9.15-.1,18.29-.08,18.29.08,9.14.1,9.15.17-9.15.18-9.14.1-18.29.08-18.29-.08-9.15-.1Z" fill="#aaa"/>
              <path id="Trazado_106454" data-name="Trazado 106454" d="M357.37,118.23l9.14-.17,9.15-.1,18.29-.08,18.29.08,9.14.1,9.15.17-9.15.17-9.14.1-18.29.08-18.29-.08-9.15-.1Z" fill="#aaa"/>
              <path id="Trazado_106455" data-name="Trazado 106455" d="M357.37,128.34l9.14-.17,9.15-.1,18.29-.08,18.29.08,9.14.1,9.15.17-9.15.18-9.14.1-18.29.08-18.29-.09-9.15-.09Z" fill="#aaa"/>
              <path id="Trazado_106456" data-name="Trazado 106456" d="M357.37,138.46l7.01-.18,7.02-.09,14.04-.09,14.03.09,7.02.09,7.02.18-7.02.17-7.02.1-14.03.08-14.04-.08-7.02-.1Z" fill="#aaa"/>
            </g>
            <g id="Grupo_59440" data-name="Grupo 59440">
              <path id="Trazado_106457" data-name="Trazado 106457" d="M17.3,189.75l47.88,15.59,26.53-43.6,42.97,17.43" fill="none" stroke="#6595bf" stroke-miterlimit="10" stroke-width="1.5"/>
              <circle id="Elipse_4191" data-name="Elipse 4191" cx="8.74" cy="8.74" r="8.74" transform="translate(8.56 181.01)" fill="#d9a171"/>
              <circle id="Elipse_4192" data-name="Elipse 4192" cx="8.74" cy="8.74" r="8.74" transform="matrix(1, -0.006, 0.006, 1, 56.375, 196.651)" fill="#a37955"/>
              <circle id="Elipse_4193" data-name="Elipse 4193" cx="8.74" cy="8.74" r="8.74" transform="translate(125.94 170.43)" fill="#a37955"/>
              <circle id="Elipse_4194" data-name="Elipse 4194" cx="8.74" cy="8.74" r="8.74" transform="translate(79.347 161.739) rotate(-45)" fill="#d9a171"/>
            </g>
            <g id="Grupo_59443" data-name="Grupo 59443">
              <g id="Grupo_59441" data-name="Grupo 59441">
                <circle id="Elipse_4195" data-name="Elipse 4195" cx="55.29" cy="55.29" r="55.29" transform="translate(196.6 73.53)" fill="#d9a171"/>
                <circle id="Elipse_4196" data-name="Elipse 4196" cx="42.23" cy="42.23" r="42.23" transform="translate(209.66 86.59)" fill="#e0eef0"/>
                <circle id="Elipse_4197" data-name="Elipse 4197" cx="29.17" cy="29.17" r="29.17" transform="translate(222.72 99.65)" fill="#d9a171"/>
                <circle id="Elipse_4198" data-name="Elipse 4198" cx="16.11" cy="16.11" r="16.11" transform="translate(235.78 112.71)" fill="#e0eef0"/>
              </g>
              <g id="Grupo_59442" data-name="Grupo 59442">
                <path id="Trazado_106458" data-name="Trazado 106458" d="M300.69,81.66l-1.83-12.31,16.93-16.04,1.84,12.3,12.11,3.64L313.05,84.2Z" fill="#dfaf87"/>
                <path id="Trazado_106459" data-name="Trazado 106459" d="M254.21,128.5l-3.01.44.61-2.97,65.56-62.1,2.4,2.52Z" fill="#6595bf"/>
              </g>
            </g>
            <g id="Grupo_59446" data-name="Grupo 59446">
              <path id="Trazado_106460" data-name="Trazado 106460" d="M185.57,441.88a41.6,41.6,0,0,1,31.84-50.54,43.86,43.86,0,0,1,51.66,32.55c5.48,22.95-8,46.25-31.84,50.54C214,478.61,191,464.83,185.57,441.88Z" fill="#a37955"/>
              <path id="Trazado_106461" data-name="Trazado 106461" d="M261.54,421.19a40.66,40.66,0,0,0-28.28-30.27,43,43,0,0,0-15.85.42,41.6,41.6,0,0,0-31.84,50.54,43.64,43.64,0,0,0,23.35,29c7.37,3,15.83,3.48,21.17,2.3C254.54,467.83,267.15,446.16,261.54,421.19Z" fill="#d9a171"/>
              <g id="Grupo_59445" data-name="Grupo 59445" opacity="0.91">
                <path id="Trazado_106462" data-name="Trazado 106462" d="M217.81,454.41a18.119,18.119,0,0,1-6.74-4.35l2.34-5.05a17.76,17.76,0,0,0,6,4A20.43,20.43,0,0,0,227,450.7c3.44.1,6-.48,7.77-1.72a6.1,6.1,0,0,0,2.7-5.06,5.38,5.38,0,0,0-1.29-3.87,9.13,9.13,0,0,0-3.38-2.35,55.883,55.883,0,0,0-5.74-1.93,55.788,55.788,0,0,1-7.5-2.7,12.52,12.52,0,0,1-4.82-4,10.91,10.91,0,0,1-1.86-7,12.74,12.74,0,0,1,1.94-6.56,12.36,12.36,0,0,1,5.44-4.56,19.85,19.85,0,0,1,8.9-1.52,25.811,25.811,0,0,1,7.22,1.25,18.789,18.789,0,0,1,6,3.18l-2.1,5.14a20.4,20.4,0,0,0-5.5-2.93A19.2,19.2,0,0,0,229,415q-5.06-.14-7.63,1.82a6.43,6.43,0,0,0-2.67,5.17,5.19,5.19,0,0,0,1.32,3.86,9.56,9.56,0,0,0,3.47,2.39,49.448,49.448,0,0,0,5.68,1.9,53.835,53.835,0,0,1,7.47,2.7,12.73,12.73,0,0,1,4.79,3.93,10.67,10.67,0,0,1,1.86,6.93,12.67,12.67,0,0,1-2,6.53,12.25,12.25,0,0,1-5.53,4.56,20.54,20.54,0,0,1-9,1.48,26.109,26.109,0,0,1-8.95-1.86Z" fill="#fbffff"/>
                <g id="Grupo_59444" data-name="Grupo 59444">
                  <rect id="Rectángulo_8382" data-name="Rectángulo 8382" width="2.97" height="62.15" transform="translate(229.894 400.939) rotate(1.61)" fill="#fbffff"/>
                  <rect id="Rectángulo_8383" data-name="Rectángulo 8383" width="2.97" height="62.15" transform="translate(223.613 400.732) rotate(1.6)" fill="#fbffff"/>
                </g>
              </g>
            </g>
            <g id="Grupo_59449" data-name="Grupo 59449">
              <g id="Grupo_59447" data-name="Grupo 59447">
                <circle id="Elipse_4199" data-name="Elipse 4199" cx="30.73" cy="30.73" r="30.73" transform="translate(283.396 206.058) rotate(-59.07)" fill="#e0eef0"/>
                <path id="Trazado_106463" data-name="Trazado 106463" d="M325.55,195.49l.09-30.72A30.71,30.71,0,0,0,300,212.58Z" fill="#e0eef0" opacity="0.31"/>
                <path id="Trazado_106464" data-name="Trazado 106464" d="M300,212.58A30.7,30.7,0,0,0,336.93,224l-11.38-28.54Z" fill="#e0eef0" opacity="0.77"/>
                <path id="Trazado_106465" data-name="Trazado 106465" d="M325.55,195.49,336.93,224a30.72,30.72,0,0,0,17.52-18.13Z" fill="#e0eef0" opacity="0.88"/>
              </g>
              <g id="Grupo_59448" data-name="Grupo 59448">
                <circle id="Elipse_4200" data-name="Elipse 4200" cx="30.73" cy="30.73" r="30.73" transform="translate(283.396 206.058) rotate(-59.07)" fill="#d9a171" opacity="0.46"/>
                <path id="Trazado_106466" data-name="Trazado 106466" d="M325.55,195.49l.09-30.72A30.71,30.71,0,0,0,300,212.58Z" fill="#a37955" opacity="0.31"/>
                <path id="Trazado_106467" data-name="Trazado 106467" d="M300,212.58A30.7,30.7,0,0,0,336.93,224l-11.38-28.54Z" fill="#a37955" opacity="0.67"/>
                <path id="Trazado_106468" data-name="Trazado 106468" d="M325.55,195.49,336.93,224a30.72,30.72,0,0,0,17.52-18.13Z" fill="#a37955" opacity="0.88"/>
              </g>
            </g>
            <g id="Grupo_59456" data-name="Grupo 59456">
              <g id="Grupo_59452" data-name="Grupo 59452">
                <path id="Trazado_106469" data-name="Trazado 106469" d="M405.09,412.75a29,29,0,0,1,22.17-35.2,30.54,30.54,0,0,1,36,22.67c3.81,16-5.57,32.2-22.18,35.2C424.9,438.33,408.9,428.73,405.09,412.75Z" fill="#a37955"/>
                <path id="Trazado_106470" data-name="Trazado 106470" d="M458,398.34a28.33,28.33,0,0,0-19.69-21.09,30.25,30.25,0,0,0-11,.3,29,29,0,0,0-22.17,35.2A30.37,30.37,0,0,0,421.35,433a27,27,0,0,0,14.74,1.61C453.12,430.82,461.9,415.72,458,398.34Z" fill="#d9a171"/>
                <g id="Grupo_59451" data-name="Grupo 59451" opacity="0.91">
                  <path id="Trazado_106471" data-name="Trazado 106471" d="M427.54,421.47a12.66,12.66,0,0,1-4.7-3l1.63-3.51a12.519,12.519,0,0,0,4.17,2.78,14.08,14.08,0,0,0,5.28,1.18,8.89,8.89,0,0,0,5.42-1.2,4.25,4.25,0,0,0,1.87-3.52,3.67,3.67,0,0,0-.89-2.7,6.46,6.46,0,0,0-2.36-1.64,40.252,40.252,0,0,0-4-1.34,39.276,39.276,0,0,1-5.23-1.88,8.82,8.82,0,0,1-3.36-2.76,7.71,7.71,0,0,1-1.29-4.9,8.9,8.9,0,0,1,1.35-4.57,8.62,8.62,0,0,1,3.79-3.17,13.741,13.741,0,0,1,6.2-1.06,18,18,0,0,1,5,.87,12.9,12.9,0,0,1,4.2,2.21l-1.47,3.61a14.581,14.581,0,0,0-3.83-2,13.371,13.371,0,0,0-4-.78,8.33,8.33,0,0,0-5.31,1.27,4.46,4.46,0,0,0-1.86,3.59,3.69,3.69,0,0,0,.92,2.7,6.74,6.74,0,0,0,2.41,1.66,34.82,34.82,0,0,0,4,1.32,38.156,38.156,0,0,1,5.2,1.88,9,9,0,0,1,3.34,2.74,7.4,7.4,0,0,1,1.29,4.83,8.73,8.73,0,0,1-1.36,4.54,8.59,8.59,0,0,1-3.86,3.18,14.25,14.25,0,0,1-6.24,1,18.14,18.14,0,0,1-6.31-1.33Z" fill="#fbffff"/>
                  <g id="Grupo_59450" data-name="Grupo 59450">
                    <rect id="Rectángulo_8384" data-name="Rectángulo 8384" width="2.07" height="43.28" transform="translate(435.923 384.263) rotate(1.61)" fill="#fbffff"/>
                    <rect id="Rectángulo_8385" data-name="Rectángulo 8385" width="2.07" height="43.28" transform="translate(431.528 384.14) rotate(1.61)" fill="#fbffff"/>
                  </g>
                </g>
              </g>
              <g id="Grupo_59455" data-name="Grupo 59455">
                <g id="Grupo_59453" data-name="Grupo 59453">
                  <rect id="Rectángulo_8386" data-name="Rectángulo 8386" width="108.89" height="26.68" rx="1.28" transform="translate(364.5 458.05)" fill="#a37955"/>
                  <rect id="Rectángulo_8387" data-name="Rectángulo 8387" width="3.86" height="22.53" transform="translate(466.77 460.26)" fill="#d9a171" opacity="0.7"/>
                  <rect id="Rectángulo_8388" data-name="Rectángulo 8388" width="3.86" height="22.53" transform="translate(460.98 460.26)" fill="#d9a171" opacity="0.7"/>
                  <rect id="Rectángulo_8389" data-name="Rectángulo 8389" width="3.86" height="22.53" transform="translate(455.18 460.26)" fill="#d9a171" opacity="0.7"/>
                  <rect id="Rectángulo_8390" data-name="Rectángulo 8390" width="3.86" height="22.53" transform="translate(449.38 460.26)" fill="#d9a171" opacity="0.7"/>
                  <rect id="Rectángulo_8391" data-name="Rectángulo 8391" width="3.86" height="22.53" transform="translate(443.37 460.26)" fill="#d9a171" opacity="0.7"/>
                  <rect id="Rectángulo_8392" data-name="Rectángulo 8392" width="3.86" height="22.53" transform="translate(437.58 460.26)" fill="#d9a171" opacity="0.7"/>
                  <rect id="Rectángulo_8393" data-name="Rectángulo 8393" width="3.86" height="22.53" transform="translate(431.78 460.26)" fill="#d9a171" opacity="0.7"/>
                  <rect id="Rectángulo_8394" data-name="Rectángulo 8394" width="3.86" height="22.53" transform="translate(425.98 460.26)" fill="#d9a171" opacity="0.7"/>
                  <rect id="Rectángulo_8395" data-name="Rectángulo 8395" width="3.86" height="22.53" transform="translate(420.4 460.25)" fill="#d9a171" opacity="0.7"/>
                  <rect id="Rectángulo_8396" data-name="Rectángulo 8396" width="3.86" height="22.53" transform="translate(414.6 460.25)" fill="#d9a171" opacity="0.7"/>
                  <rect id="Rectángulo_8397" data-name="Rectángulo 8397" width="3.86" height="22.53" transform="translate(408.81 460.25)" fill="#d9a171" opacity="0.7"/>
                  <rect id="Rectángulo_8398" data-name="Rectángulo 8398" width="3.86" height="22.53" transform="translate(403.01 460.25)" fill="#d9a171" opacity="0.7"/>
                  <rect id="Rectángulo_8399" data-name="Rectángulo 8399" width="3.86" height="22.53" transform="translate(397 460.25)" fill="#d9a171" opacity="0.7"/>
                  <rect id="Rectángulo_8400" data-name="Rectángulo 8400" width="3.86" height="22.53" transform="translate(391.2 460.25)" fill="#d9a171" opacity="0.7"/>
                  <rect id="Rectángulo_8401" data-name="Rectángulo 8401" width="3.86" height="22.53" transform="translate(385.41 460.25)" fill="#d9a171" opacity="0.7"/>
                  <rect id="Rectángulo_8402" data-name="Rectángulo 8402" width="3.86" height="22.53" transform="translate(379.61 460.25)" fill="#d9a171" opacity="0.7"/>
                  <rect id="Rectángulo_8403" data-name="Rectángulo 8403" width="3.86" height="22.53" transform="translate(374.03 460.25)" fill="#d9a171" opacity="0.7"/>
                  <rect id="Rectángulo_8404" data-name="Rectángulo 8404" width="3.86" height="22.53" transform="translate(368.23 460.25)" fill="#d9a171" opacity="0.7"/>
                </g>
                <g id="Grupo_59454" data-name="Grupo 59454">
                  <rect id="Rectángulo_8405" data-name="Rectángulo 8405" width="108.89" height="26.68" rx="1.28" transform="translate(372.63 431.62)" fill="#a37955"/>
                  <rect id="Rectángulo_8406" data-name="Rectángulo 8406" width="3.86" height="22.53" transform="translate(474.9 433.83)" fill="#d9a171" opacity="0.7"/>
                  <rect id="Rectángulo_8407" data-name="Rectángulo 8407" width="3.86" height="22.53" transform="translate(469.1 433.83)" fill="#d9a171" opacity="0.7"/>
                  <rect id="Rectángulo_8408" data-name="Rectángulo 8408" width="3.86" height="22.53" transform="translate(463.31 433.83)" fill="#d9a171" opacity="0.7"/>
                  <rect id="Rectángulo_8409" data-name="Rectángulo 8409" width="3.86" height="22.53" transform="translate(457.51 433.82)" fill="#d9a171" opacity="0.7"/>
                  <rect id="Rectángulo_8410" data-name="Rectángulo 8410" width="3.86" height="22.53" transform="translate(451.5 433.82)" fill="#d9a171" opacity="0.7"/>
                  <rect id="Rectángulo_8411" data-name="Rectángulo 8411" width="3.86" height="22.53" transform="translate(445.7 433.82)" fill="#d9a171" opacity="0.7"/>
                  <rect id="Rectángulo_8412" data-name="Rectángulo 8412" width="3.86" height="22.53" transform="translate(439.91 433.82)" fill="#d9a171" opacity="0.7"/>
                  <rect id="Rectángulo_8413" data-name="Rectángulo 8413" width="3.86" height="22.53" transform="translate(434.11 433.82)" fill="#d9a171" opacity="0.7"/>
                  <rect id="Rectángulo_8414" data-name="Rectángulo 8414" width="3.86" height="22.53" transform="translate(428.53 433.82)" fill="#d9a171" opacity="0.7"/>
                  <rect id="Rectángulo_8415" data-name="Rectángulo 8415" width="3.86" height="22.53" transform="translate(422.73 433.82)" fill="#d9a171" opacity="0.7"/>
                  <rect id="Rectángulo_8416" data-name="Rectángulo 8416" width="3.86" height="22.53" transform="translate(416.94 433.82)" fill="#d9a171" opacity="0.7"/>
                  <rect id="Rectángulo_8417" data-name="Rectángulo 8417" width="3.86" height="22.53" transform="translate(411.14 433.82)" fill="#d9a171" opacity="0.7"/>
                  <rect id="Rectángulo_8418" data-name="Rectángulo 8418" width="3.86" height="22.53" transform="translate(405.13 433.82)" fill="#d9a171" opacity="0.7"/>
                  <rect id="Rectángulo_8419" data-name="Rectángulo 8419" width="3.86" height="22.53" transform="translate(399.33 433.82)" fill="#d9a171" opacity="0.7"/>
                  <rect id="Rectángulo_8420" data-name="Rectángulo 8420" width="3.86" height="22.53" transform="translate(393.54 433.81)" fill="#d9a171" opacity="0.7"/>
                  <rect id="Rectángulo_8421" data-name="Rectángulo 8421" width="3.86" height="22.53" transform="translate(387.74 433.81)" fill="#d9a171" opacity="0.7"/>
                  <rect id="Rectángulo_8422" data-name="Rectángulo 8422" width="3.86" height="22.53" transform="translate(382.16 433.81)" fill="#d9a171" opacity="0.7"/>
                  <rect id="Rectángulo_8423" data-name="Rectángulo 8423" width="3.86" height="22.53" transform="translate(376.36 433.81)" fill="#d9a171" opacity="0.7"/>
                </g>
              </g>
            </g>
            <g id="Grupo_59458" data-name="Grupo 59458">
              <g id="Grupo_59457" data-name="Grupo 59457">
                <path id="Trazado_106472" data-name="Trazado 106472" d="M107.76,90.92a28.016,28.016,0,0,1-1.74-2.34.555.555,0,1,1,.92-.62.37.37,0,0,1,.07.14v.05A26.12,26.12,0,0,1,107.76,90.92Z" fill="#aed3f2"/>
                <path id="Trazado_106473" data-name="Trazado 106473" d="M103.92,84a22,22,0,0,1-1-5,1.381,1.381,0,1,1,2.75-.26.2.2,0,0,1,0,.07,45.46,45.46,0,0,0,.43,4.64h0a1.134,1.134,0,0,1-2.18.55Z" fill="#aed3f2"/>
                <path id="Trazado_106474" data-name="Trazado 106474" d="M103,74a22.49,22.49,0,0,1,1.12-5,1.12,1.12,0,0,1,2.17.55h0c-.25,1.55-.44,3.09-.55,4.63A1.38,1.38,0,1,1,103,74Z" fill="#aed3f2"/>
                <path id="Trazado_106475" data-name="Trazado 106475" d="M106.28,64.5c.55-.81,1.14-1.59,1.75-2.33a28.541,28.541,0,0,1-.74,2.77h0a.56.56,0,1,1-1.07-.33.35.35,0,0,1,.06-.11Z" fill="#aed3f2"/>
              </g>
              <path id="Trazado_106476" data-name="Trazado 106476" d="M135.23,45.13a31.48,31.48,0,0,1,41.05,44.16,1.06,1.06,0,0,1-.51.84h0l10.77,13.43a1,1,0,0,1-1.16,1.45L167.8,98.7a31.5,31.5,0,1,1-32.54-53.61Z" fill="#f2e9e4" opacity="0.36"/>
              <path id="Trazado_106477" data-name="Trazado 106477" d="M160.75,76.7a9.81,9.81,0,0,0-3.69-3c-1-.43-2.16-.87-3.54-1.32l.18-11.87a15.19,15.19,0,0,1,1.78.48,15.53,15.53,0,0,1,4.22,2.18l1.55-4a14,14,0,0,0-4.62-2.36,20.541,20.541,0,0,0-2.87-.66l.1-6.67H151.6l-.1,6.5h-.38a21.468,21.468,0,0,0-2.16.08l.09-6.6h-2.26l-.1,7a11.39,11.39,0,0,0-2.33.79,9.39,9.39,0,0,0-4.11,3.53,9.58,9.58,0,0,0-1.4,5,8.3,8.3,0,0,0,1.48,5.34,9.56,9.56,0,0,0,3.71,3c.69.31,1.48.62,2.38.93L146.24,87a16.848,16.848,0,0,1-2.15-.7,13.58,13.58,0,0,1-4.6-3l-1.73,3.87a14,14,0,0,0,5.18,3.24,18.671,18.671,0,0,0,3.24.93l-.09,5.48h2.27l.07-5.21c.46,0,.93.08,1.39.09s.78,0,1.16,0l-.08,5.19h2.26l.08-5.43a12.67,12.67,0,0,0,3.39-1A9.32,9.32,0,0,0,160.8,87a9.57,9.57,0,0,0,1.43-5A8.16,8.16,0,0,0,160.75,76.7Zm-9.69-16.45h.38l-.17,11.49c-1-.26-1.79-.51-2.53-.75l.15-10.64a14.78,14.78,0,0,1,2.17-.1Zm-6.73,8.35a4,4,0,0,1-1.05-2.93,4.92,4.92,0,0,1,2-4,5.79,5.79,0,0,1,1.36-.77l-.13,9.22A7.17,7.17,0,0,1,144.33,68.6Zm5.56,18.87a7.167,7.167,0,0,1-1.39-.09l.17-11.62,1.11.33,1.42.41L151,87.44C150.67,87.46,150.29,87.47,149.89,87.47Zm5.9-1.39a6.63,6.63,0,0,1-2.48,1.07l.14-9.92.72.27a7,7,0,0,1,2.6,1.76,4.06,4.06,0,0,1,1,2.94,4.65,4.65,0,0,1-1.98,3.88Z" fill="#fbffff" opacity="0.91"/>
            </g>
          </g>
        </g>
        <g id="Grupo_59478" data-name="Grupo 59478">
          <g id="Grupo_59467" data-name="Grupo 59467">
            <path id="Trazado_106478" data-name="Trazado 106478" d="M398.23,237.65c-1.51-2.16-3.24-4.46-6.4-5.52-2.24-.75-4.85-.73-7.3-1.07s-5.06-1.24-5.69-2.87a.89.89,0,0,1,.1-.94c.52-.6,1.82-.47,2.82-.33,4.69.63,9.52-.24,14.3-.28,1.25,0,2.83.22,3,1.06a2.31,2.31,0,0,1-.21,1,3.13,3.13,0,0,0,.32,1.83c1,2.48,1.91,5,2.86,7.43" fill="#f7b094"/>
            <path id="Trazado_106479" data-name="Trazado 106479" d="M419.49,248.82c4.78-5,8-8.11,13-12.83,2.62-2.47,7.43-6.19,11.25-7.17s7.5-.57,10.3,2.3,1.77,5.73,0,8.71-5.65,6.23-8.69,8.27a173.145,173.145,0,0,1-16.14,10.16c-4.05,2.13-7.77,4.32-12.86,3-3.06-.78-4.78-2.71-6.93-4.84a128.437,128.437,0,0,1-13.37-15.65,8.68,8.68,0,0,1-1.67-5.4c.21-2,1.13-2.29,3-3.38a4.88,4.88,0,0,1,3.54-.92,5.62,5.62,0,0,1,2.31,1.46c5.42,4.88,10.63,11.47,16.05,16.34" fill="#6595bf"/>
            <path id="Trazado_106480" data-name="Trazado 106480" d="M470.09,416.16q.9,2.55,1.82,5.11a3.56,3.56,0,0,1,.26,1c.08,1.37-1.29,2.38-1.64,3.7a.93.93,0,0,0,0,.44c.13.45.74.47,1.2.4l4-.6c.51-.07,1.1-.21,1.3-.68a1.47,1.47,0,0,0,.06-.69l-.57-10.19" fill="#f7b094"/>
            <path id="Trazado_106481" data-name="Trazado 106481" d="M457,433.37l10.61-.32a7.5,7.5,0,0,0,3.35-.63c.55-.3,1.08-.76,1.71-.69s.85.43,1.31.59a3.169,3.169,0,0,0,1.27.11l4-.17a1.94,1.94,0,0,0,1.22-.34,1.48,1.48,0,0,0,.3-1.31,18.85,18.85,0,0,0-1.42-5.29,1.37,1.37,0,0,0-.86-.91,1.71,1.71,0,0,0-1.17.36c-1.44.85-3.36,1.51-4.79.68a5.379,5.379,0,0,0-1.11-.65,2.87,2.87,0,0,0-1.45.07,51.829,51.829,0,0,0-11.81,4.31,5.18,5.18,0,0,0-2.17,1.68,1.63,1.63,0,0,0,.47,2.31" fill="#5e6178"/>
            <path id="Trazado_106482" data-name="Trazado 106482" d="M410.78,414.2c0,2,.09,3.95.13,5.92a4.4,4.4,0,0,1-.08,1.15c-.39,1.45-2.16,2-3,3.28a.8.8,0,0,0-.17.44c0,.51.6.75,1.1.84l4.38.77a1.7,1.7,0,0,0,1.58-.27,1.728,1.728,0,0,0,.31-.69L418,414.87" fill="#f7b094"/>
            <path id="Trazado_106483" data-name="Trazado 106483" d="M393,431.93l11.23.63a7.48,7.48,0,0,0,3.59-.38c.6-.27,1.21-.73,1.86-.59s.86.54,1.32.77a3.35,3.35,0,0,0,1.34.23l4.18.18a2,2,0,0,0,1.32-.25,1.67,1.67,0,0,0,.44-1.4,21.18,21.18,0,0,0-1-5.9,1.51,1.51,0,0,0-.82-1.07,1.78,1.78,0,0,0-1.27.28c-1.6.79-3.68,1.34-5.12.3a5.838,5.838,0,0,0-1.11-.81,2.93,2.93,0,0,0-1.53-.05,53.518,53.518,0,0,0-12.86,3.6,5.46,5.46,0,0,0-2.45,1.63,1.82,1.82,0,0,0,.29,2.56" fill="#5e6178"/>
            <path id="Trazado_106484" data-name="Trazado 106484" d="M429.37,293.19,409.84,419.66l7.62-.54s10.64-40.82,13.68-54.36,13.19-43.21,14.55-45.77,2-4,2-4,6.57,38.52,8.46,45.44c2.41,8.79,2.92,11,6.72,26.49a266.544,266.544,0,0,1,6,30.75l9.26-1.1L471,354.33s-.34-41.91-.34-48.86-1.35-24.16-1.35-24.16Z" fill="#344154"/>
            <g id="Grupo_59461" data-name="Grupo 59461">
              <path id="Trazado_106485" data-name="Trazado 106485" d="M408.63,203.37c.59-7.2,3.24-12.85,5.92-12.63s4.38,6.23,3.79,13.43c-.54,6.52-2.76,11.77-5.17,12.55v.15l-1.55,18.87c-.07.83-.37,1.47-.68,1.45h-.49c-.31,0-.5-.71-.44-1.54l1.55-18.87v-.2C409.4,215.29,408.1,209.8,408.63,203.37Z" fill="#6595bf"/>
              <path id="Trazado_106486" data-name="Trazado 106486" d="M410.34,203.44c-.49,6,.61,10.93,2.46,11.08S416.55,210,417,204s-.61-10.92-2.46-11.07S410.83,197.48,410.34,203.44Z" fill="#ebf0fe"/>
              <path id="Trazado_106487" data-name="Trazado 106487" d="M410.34,203.44a32.894,32.894,0,0,1,.54-3.84l5.51,8.77a13.68,13.68,0,0,1-2.13,5.3l-4-6.39a31.438,31.438,0,0,1,.08-3.84Z" fill="#aed3f2" opacity="0.31"/>
              <path id="Trazado_106488" data-name="Trazado 106488" d="M412.79,194.22l4.36,6.95a24.782,24.782,0,0,1-.11,2.82c-.05.64-.12,1.25-.2,1.85l-5.38-8.55a12.441,12.441,0,0,1,1.33-3.07Z" fill="#aed3f2" opacity="0.31"/>
            </g>
            <path id="Trazado_106489" data-name="Trazado 106489" d="M426.07,308.29c12.37.37,23.2.57,35.56.93,3.25.1,8.16.39,10.34-2,3.62-3.9.44-8,.84-13.29.24-3.19.45-8.41,1.35-11.49,1.1-3.7-.24-8.47-.24-12.32,0-8.85.08-21.11-.52-32.09-.15-2.8-.44-5.9-2.54-7.82-1.62-1.47-3.94-1.89-6.13-2.19q-7-1-14-1.32c-2.12-.1-7.32,1.35-9.24,2.22-2.9,1.31-3.09,3.75-4.26,6.65-2.81,7-3.91,13.58-4.52,21-.48,5.89,0,9.9-2,15.5a83.113,83.113,0,0,0-2,9.53c-.71,3.73-.7,6.18-1.67,9.85-1.27,4.8-4.73,11.3-1.95,15.45" fill="#d9a171"/>
            <path id="Trazado_106490" data-name="Trazado 106490" d="M419.85,235.89c-3.4-3.47-4.6-8.55-7.57-12.4-.37-.48-.9-1-1.5-.85a1.16,1.16,0,0,0-.79,1,3.46,3.46,0,0,0,.2,1.35,1.12,1.12,0,0,0-1.07,1,3.22,3.22,0,0,0,.28,1.58c-1.12-.17-1.37,1.15-.63,2.22.19.28-1.73.83.17,2.73a20.659,20.659,0,0,0,2.86,2.61,7.72,7.72,0,0,1,1.33,1.41l3,3.8" fill="#f7b094"/>
            <path id="Trazado_106491" data-name="Trazado 106491" d="M439,252.24c4.53-5.52,7.59-9,12.33-14.23,2.48-2.75,7.06-6.95,10.73-8.23s7.21-1.11,9.95,1.69,1.8,5.84.16,9.06-5.34,6.87-8.23,9.2a176.939,176.939,0,0,1-15.4,11.67c-3.87,2.5-7.42,5-12.34,4-3-.6-4.65-2.49-6.76-4.56a122.549,122.549,0,0,1-13.14-15.37,9.34,9.34,0,0,1-1.69-5.51c.17-2.1,1.05-2.46,2.83-3.72a4.61,4.61,0,0,1,3.4-1.2,5,5,0,0,1,2.25,1.36c5.3,4.71,10.42,11.21,15.73,15.92" fill="#a3bfd9"/>
            <g id="Grupo_59463" data-name="Grupo 59463">
              <path id="Trazado_106492" data-name="Trazado 106492" d="M451.52,214.92c5.33,1.59,10.84.55,14.25-1.81s5-5.81,6-9.35a16.21,16.21,0,0,0,.18-9.69,15.86,15.86,0,0,0-8.26-8.91,27.619,27.619,0,0,0-9.35-2.35,14.82,14.82,0,0,0-5.85.3,7.19,7.19,0,0,0-3.44,2.56c-2.93,3.72-6.2,4.72-4.47,8,.52,1,6.4,4.7,7.52,7.69,1,2.71-2.84,10.78.53,12.53" fill="#38303b"/>
              <path id="Trazado_106493" data-name="Trazado 106493" d="M457.61,230a3.75,3.75,0,0,0,2.06-3c.18-3.49.46-8.63.57-11,0-1,.09-1.94.1-2.91a1.15,1.15,0,0,0-.12-.64.78.78,0,0,0-.41-.26c-1.49-.5-3,.25-4.56.46-1.87.26-3.77-.29-5.65-.11a.75.75,0,0,0-.61.29,1.189,1.189,0,0,0-.11.44c-.36,2.77-1,8.68-1.4,12.18-.1.78-.48,1.83,0,2.47l.74,1.31a6.07,6.07,0,0,0,6.36,2,15.831,15.831,0,0,0,3.03-1.23Z" fill="#f7b094"/>
              <path id="Trazado_106494" data-name="Trazado 106494" d="M460.22,212.39a.78.78,0,0,0-.41-.26c-1.49-.5-3,.25-4.56.46-1.87.26-3.77-.29-5.65-.11a.75.75,0,0,0-.61.29,1.189,1.189,0,0,0-.11.44c-.2,1.55-.41,3.1-.61,4.65a10.61,10.61,0,0,0,5.1,2.29,7.45,7.45,0,0,0,6.8-2.82c0-.46.05-.93.07-1.39,0-1,.09-1.94.1-2.91A1.15,1.15,0,0,0,460.22,212.39Z" fill="#e89c82"/>
              <path id="Trazado_106495" data-name="Trazado 106495" d="M465.07,207.73c2-.44,3.71-1.71,3.85-3.24s-1.63-3.12-3.71-3" fill="#f7b094"/>
              <path id="Trazado_106496" data-name="Trazado 106496" d="M464.1,210.58c-3.29,7-8.73,6.86-14.56,7.48a10.731,10.731,0,0,1-3.71-.44c-2.5-.81-3.26-3.47-3.43-5.63a45.6,45.6,0,0,1,.46-11.15,15,15,0,0,1,2.68-7.08,9.11,9.11,0,0,1,7.47-3.41c3.87.18,7.34,2.8,9.48,5.68,3.17,4.23,4.27,9.56,2,13.69" fill="#f7b094"/>
              <path id="Trazado_106497" data-name="Trazado 106497" d="M442.88,200.72a10.34,10.34,0,0,1-.84,3.19,3,3,0,0,1-1.39,1.57,1.24,1.24,0,0,0-.53,1.84,1.89,1.89,0,0,0,.94.7,1.46,1.46,0,0,0,1.62-.22" fill="#f7b094"/>
              <path id="Trazado_106498" data-name="Trazado 106498" d="M450.89,197.47c.09.06,0,.17-.14.17a.8.8,0,0,1-.36-.09,7.54,7.54,0,0,0-4.45-.39,2.09,2.09,0,0,1-.67.1c-.24,0-.49-.14-.49-.3a.27.27,0,0,1,.1-.18,2.19,2.19,0,0,1,1-.45,6.62,6.62,0,0,1,4,.38,2.13,2.13,0,0,1,1,.8" fill="#38303b"/>
              <path id="Trazado_106499" data-name="Trazado 106499" d="M456.05,208.47a3.15,3.15,0,0,1-3.79,2.49,3.37,3.37,0,0,1-2.93-3.62,3.17,3.17,0,0,1,3.79-2.49,3.36,3.36,0,0,1,2.93,3.62Z" fill="#e66e60" opacity="0.24"/>
              <path id="Trazado_106500" data-name="Trazado 106500" d="M448.44,201.26c.07.9-.31,1.66-.86,1.7s-1.05-.67-1.12-1.57.31-1.66.85-1.7S448.36,200.36,448.44,201.26Z" fill="#38303b"/>
              <path id="Trazado_106501" data-name="Trazado 106501" d="M451,187.79c-6.25-4.77-5.68-9.8-4.2-8.44,3.77,3.46,8,4,13.07,4.89,1.2.22,2.87,3.24,4.06,3.49,3.23.67,5.48,3.83,5.78,7s-.07,3.46-1.76,6.1l-2.64.32s-.11,1.06-.35,2.16a4.91,4.91,0,0,1-.49,1.72.87.87,0,0,1-1.55-.4c-.69-4.23-2-8-5.5-10.18a16,16,0,0,0-3-1.09c-2.33-.6-1.69-.63-4-1.12a10.79,10.79,0,0,1-6.24-3.25C442.53,186.94,453,189.31,451,187.79Z" fill="#38303b"/>
              <path id="Trazado_106502" data-name="Trazado 106502" d="M445.71,200.34a3.22,3.22,0,0,1,1.79-.41,4.2,4.2,0,0,1,1,.11,2,2,0,0,1,.7.29.354.354,0,0,0,.5-.5,3.53,3.53,0,0,0-2.12-.61,3.9,3.9,0,0,0-2.22.51c-.38.24,0,.86.35.61Z" fill="#38303b"/>
              <path id="Trazado_106503" data-name="Trazado 106503" d="M449.67,183.64a5.2,5.2,0,0,1-1.58-.07,7.25,7.25,0,0,1-1.79-.65l-5.63-2.6a.89.89,0,0,0-.66-.1c-.38.15-.55.7-.6,1.14a6.27,6.27,0,0,0,1.25,4.69,6.46,6.46,0,0,1-4.4-1.7,4.74,4.74,0,0,0-.06,4.2,5.92,5.92,0,0,0,2.72,2.59,11,11,0,0,0,8.11.66,1.72,1.72,0,0,0-.47,2.29,2.58,2.58,0,0,0,2,.92,13,13,0,0,0,5.11-.53,2.08,2.08,0,0,0,.42,2.7,3.36,3.36,0,0,0,2.64.31,12.14,12.14,0,0,0,4.25-1.8" fill="#38303b"/>
              <g id="Grupo_59462" data-name="Grupo 59462" clip-path="url(#clip-path-3)">
                <path id="Trazado_106504" data-name="Trazado 106504" d="M438.27,210.31a5.33,5.33,0,0,0,5.32,1.89,5.71,5.71,0,0,0,2.67-1.68,11,11,0,0,1-8-.31" fill="#e66e60"/>
                <path id="Trazado_106505" data-name="Trazado 106505" d="M438.27,210.31a10.86,10.86,0,0,0,6.59.79,2.79,2.79,0,0,0,1.6-.63,19.81,19.81,0,0,1-8.43-.34Z" fill="#aed3f2"/>
              </g>
              <path id="Trazado_106507" data-name="Trazado 106507" d="M450.74,201.72a3.57,3.57,0,1,1-2.93-4.19,3.62,3.62,0,0,1,2.93,4.19Z" fill="none" stroke="#fff" stroke-miterlimit="10" stroke-width="1"/>
              <path id="Trazado_106508" data-name="Trazado 106508" d="M442.68,200.93a1.9,1.9,0,0,1,.34,0h.3a2.836,2.836,0,0,1,.31.06.55.55,0,0,0,.37.01.5.5,0,0,0,.18-.68.55.55,0,0,0-.29-.23h-.22l-.43-.05a2.731,2.731,0,0,0-.57,0,.48.48,0,0,0-.49.49.5.5,0,0,0,.49.5Z" fill="#fff"/>
              <path id="Trazado_106509" data-name="Trazado 106509" d="M465.31,200.65c-4.75-.11-9.5.14-14.24.09a.5.5,0,1,0,0,1c4.74.05,9.49-.2,14.24-.08a.5.5,0,0,0,0-1Z" fill="#fff"/>
            </g>
            <g id="Grupo_59466" data-name="Grupo 59466">
              <rect id="Rectángulo_8424" data-name="Rectángulo 8424" width="32.11" height="32.11" rx="4.09" transform="translate(372.16 195.43)" fill="#d9a171"/>
              <g id="Grupo_59465" data-name="Grupo 59465" opacity="0.91">
                <path id="Trazado_106510" data-name="Trazado 106510" d="M384.06,220.93a7.45,7.45,0,0,1-2.77-1.75l.94-2.07a7.25,7.25,0,0,0,2.46,1.61,8.36,8.36,0,0,0,3.1.65,5.19,5.19,0,0,0,3.17-.73,2.47,2.47,0,0,0,1.08-2.08,2.18,2.18,0,0,0-.54-1.58,3.68,3.68,0,0,0-1.39-.94,23.2,23.2,0,0,0-2.35-.77,22.668,22.668,0,0,1-3.08-1.07,5.2,5.2,0,0,1-2-1.6,4.43,4.43,0,0,1-.78-2.86,5.11,5.11,0,0,1,.76-2.69,5,5,0,0,1,2.2-1.89,8,8,0,0,1,3.63-.66,10.65,10.65,0,0,1,3,.48,7.74,7.74,0,0,1,2.48,1.27l-.84,2.13a8.87,8.87,0,0,0-2.26-1.18,8.14,8.14,0,0,0-2.38-.43,4.92,4.92,0,0,0-3.11.78,2.62,2.62,0,0,0-1.06,2.12,2.14,2.14,0,0,0,.55,1.58,4,4,0,0,0,1.43,1,22.478,22.478,0,0,0,2.33.75,22.272,22.272,0,0,1,3.06,1.07,5.21,5.21,0,0,1,2,1.59,4.37,4.37,0,0,1,.79,2.82,5.14,5.14,0,0,1-.78,2.67,5,5,0,0,1-2.24,1.89,8.441,8.441,0,0,1-3.66.65,10.85,10.85,0,0,1-3.74-.76Z" fill="#fbffff"/>
                <g id="Grupo_59464" data-name="Grupo 59464">
                  <rect id="Rectángulo_8425" data-name="Rectángulo 8425" width="1.21" height="25.4" transform="translate(388.779 198.998) rotate(1.01)" fill="#fbffff"/>
                  <rect id="Rectángulo_8426" data-name="Rectángulo 8426" width="1.21" height="25.4" transform="translate(386.18 199.003) rotate(1.01)" fill="#fbffff"/>
                </g>
              </g>
            </g>
          </g>
          <g id="Grupo_59477" data-name="Grupo 59477">
            <g id="Grupo_59469" data-name="Grupo 59469">
              <g id="Grupo_59468" data-name="Grupo 59468">
                <path id="Trazado_106511" data-name="Trazado 106511" d="M207.73,240a27.941,27.941,0,0,1,5-4.14,12.61,12.61,0,0,0,2.36-1.74.63.63,0,0,0,.2-.33.71.71,0,0,0-.11-.4,22.191,22.191,0,0,0-2.35-3.54A45.829,45.829,0,0,1,202.21,236" fill="#f7b094"/>
                <path id="Trazado_106512" data-name="Trazado 106512" d="M244.04,204.18l-4.55,12.13-8.06-10.29Z" fill="#a37955"/>
                <path id="Trazado_106513" data-name="Trazado 106513" d="M212.05,233l2.27-.75a11.758,11.758,0,0,0,2.31-1,5.89,5.89,0,0,0,2.76-4.95.44.44,0,0,0-.08-.32.42.42,0,0,0-.33-.1,2.78,2.78,0,0,0-1.46.73,28.6,28.6,0,0,0-2.78,2.38,22.068,22.068,0,0,1-2.9,2.9" fill="#f7b094"/>
                <path id="Trazado_106514" data-name="Trazado 106514" d="M207.78,231.89l2.04,2.59,29.57-24.46-2.05-2.58Z" fill="#a37955"/>
                <path id="Trazado_106515" data-name="Trazado 106515" d="M209.9,237.17a53.869,53.869,0,0,0,8.69-3.94,11.79,11.79,0,0,0,3.89-3.11c1.39-1.93,1.66-4.45,1.86-6.83a3.44,3.44,0,0,0-.1-1.5c-.19-.47-.67-.9-1.15-.75s-.45,1-.69.89c-1.1-.5-1.28,1-1.87,2-.15.24.09-.56-.84-.22-.51.19-.84.79-1,1.75A6.84,6.84,0,0,1,217,229a20.833,20.833,0,0,1-2.17,1.55c-4.38,3.39-3.81,4.13-5.73,6.85" fill="#f7b094"/>
                <path id="Trazado_106516" data-name="Trazado 106516" d="M222,228.23a32.44,32.44,0,0,0,.66-3.2,12.594,12.594,0,0,0,.18-1.61,2.57,2.57,0,0,0-.33-1.54,2.3,2.3,0,0,1,.52,1.54,9,9,0,0,1-.13,1.65,14.863,14.863,0,0,1-.34,1.61A12.483,12.483,0,0,1,222,228.23Z" fill="#e89c82"/>
                <path id="Trazado_106517" data-name="Trazado 106517" d="M219.45,230a10.08,10.08,0,0,0,1-3.16,15.07,15.07,0,0,0,.12-1.65,5.769,5.769,0,0,0,0-.83,1.08,1.08,0,0,0-.25-.76c.45.39.39,1.06.44,1.59a11.807,11.807,0,0,1-.07,1.68,7.271,7.271,0,0,1-.42,1.65A9.241,9.241,0,0,1,219.45,230Z" fill="#e89c82"/>
                <path id="Trazado_106518" data-name="Trazado 106518" d="M216.71,224.51a3.24,3.24,0,0,1-.38,1.86c-.23.42-.67.82-1.12.68-.13-.05-.24-.13-.36-.19a1.87,1.87,0,0,0-1-.09,2.75,2.75,0,0,1,2.66-2.53" fill="#f7b094"/>
              </g>
              <path id="Trazado_106519" data-name="Trazado 106519" d="M143,267c4.21-.21,3.08-2.58,7-1.2,2.87,1,10.8.31,13.39-.07,10.16-1.51,19.4-6.83,28.08-12.49,4.68-3,12.49-8.35,17-11.65a1.57,1.57,0,0,0,.64-2.31,61.328,61.328,0,0,0-3.46-5.82,1.11,1.11,0,0,0-1.52-.38c-6.28,3.55-14.06,8.77-20,12.2a39,39,0,0,1-6,2.89c-3.92,1.43-8.07,4.1-12.22,4-10.31-.23-15-6.35-22.29-6.08" fill="#6595bf"/>
            </g>
            <path id="Trazado_106520" data-name="Trazado 106520" d="M113.52,277.85c-5.35-1-10.82-.67-14.27-4.61s-5-9.5-3.18-14.27c1.86-5,7-8.77,7.86-14,.69-4.15-1.41-8.75.7-12.46,1.2-2.1,3.5-3.4,5.29-5.09,6-5.63,6.11-15.25,12.45-20.56A18.72,18.72,0,0,1,133.16,202a19.78,19.78,0,0,1,9.22,1.88c4.88,2.45,7.27,7.35,7.56,12.47.26,4.59-3.68,9-5.09,13.41-.93,2.9-5.23,5.77-6.28,8.62-2,5.44,2.78,12.11,1,17.61a115.531,115.531,0,0,1-5.64,13.25c-2.17,4.55-4.94,6.14-9.89,8" fill="#38303b"/>
            <g id="Grupo_59470" data-name="Grupo 59470">
              <path id="Trazado_106521" data-name="Trazado 106521" d="M156.41,429.67l-.56,6.42a3.9,3.9,0,0,0,.32,2.48c.81,1.29,2.71,1.42,4.3,1.4a2.6,2.6,0,0,0,1.62-.39,2.16,2.16,0,0,0,.45-1.87l-.75-8.92" fill="#f7b094"/>
              <path id="Trazado_106522" data-name="Trazado 106522" d="M137.42,348.32c4.13,30.95,8.76,39.92,10,48.18,1.94,12.74,7.63,33.51,8,36.18.19,1.35,1.07,1.22,6.24.83,1.22-.09,1.94-.25,1.83-1.48-4.14-45-3-91.07-12.79-135-.35-1.55-16.66-3.23-19.88.65C124.91,304.87,136.18,339,137.42,348.32Z" fill="#344154"/>
              <path id="Trazado_106523" data-name="Trazado 106523" d="M114.42,429.85l-.12,6.45a4,4,0,0,0,.5,2.45c.89,1.23,2.8,1.22,4.39,1.09a2.55,2.55,0,0,0,1.58-.51,2.14,2.14,0,0,0,.32-1.9c-.45-2.95-.91-5.9-1.36-8.84" fill="#f7b094"/>
              <path id="Trazado_106524" data-name="Trazado 106524" d="M114.81,332.17c2.91,31.09-2.7,63.18-1.74,94.3.08,2.47-.11,7,.71,7.11,1.54.12,3.89,0,5.36,0,1.2,0,1.58-.2,1.8-1.42,7.83-44.45,21.92-85.68,24-130.65.08-1.6-19.43-6.26-19.43-6.26S112.77,310.5,114.81,332.17Z" fill="#5d6776"/>
              <path id="Trazado_106525" data-name="Trazado 106525" d="M178.15,444.76l-10.89.42a6.8,6.8,0,0,1-3.47-.48c-.58-.31-1.15-.81-1.79-.67s-.84.55-1.3.78a3,3,0,0,1-1.3.22l-4.05.09a1.81,1.81,0,0,1-1.27-.3,1.85,1.85,0,0,1-.4-1.5,24.15,24.15,0,0,1,1.12-6.24c.14-.45.36-1,.81-1.11a1.64,1.64,0,0,1,1.22.32c1.53.88,3.54,1.5,4.95.44a5.33,5.33,0,0,1,1.09-.83,2.6,2.6,0,0,1,1.49,0,48.85,48.85,0,0,1,12.38,4.1,5.42,5.42,0,0,1,2.34,1.79,2.05,2.05,0,0,1-.34,2.71" fill="#5e6178"/>
              <path id="Trazado_106526" data-name="Trazado 106526" d="M136.31,444.76l-10.89.42a6.83,6.83,0,0,1-3.48-.48c-.57-.31-1.15-.81-1.79-.67s-.84.55-1.3.78a3,3,0,0,1-1.29.22l-4.06.09a1.81,1.81,0,0,1-1.27-.3,1.85,1.85,0,0,1-.39-1.5,24.13,24.13,0,0,1,1.11-6.24c.15-.45.36-1,.81-1.11a1.62,1.62,0,0,1,1.22.32c1.53.88,3.54,1.5,5,.44a5.071,5.071,0,0,1,1.09-.83,2.6,2.6,0,0,1,1.49,0,48.78,48.78,0,0,1,12.33,4.1,5.42,5.42,0,0,1,2.34,1.79,2.05,2.05,0,0,1-.34,2.71" fill="#5e6178"/>
            </g>
            <path id="Trazado_106527" data-name="Trazado 106527" d="M116.84,313a1.87,1.87,0,0,1-1.41-1.43c-.46-2-1.31-4.27-.32-5.9,6.57-10.74-.81-20.84-.2-44.77.14-5.63,1-11.78,3.3-13.39a24.241,24.241,0,0,1,5.24-2.14c5.71-1.31,6.12-1.71,12-1.43s11.87,2.36,15.67,6.82c4.76,5.59,5.16,13.68,4.11,21s-3.32,14.42-3,21.76c.24,6.16,2.27,12.14,2.79,18.29a3.055,3.055,0,0,1-.78,2.75,3,3,0,0,1-2,.27,218.9,218.9,0,0,0-30-.89,32.72,32.72,0,0,1-5.4-.94Z" fill="#d9a171"/>
            <g id="Grupo_59474" data-name="Grupo 59474">
              <g id="Grupo_59473" data-name="Grupo 59473">
                <path id="Trazado_106528" data-name="Trazado 106528" d="M133.35,248.92a3.87,3.87,0,0,1-2.06-3.12c-.19-3.58-.48-8.85-.6-11.27-.05-1-.1-2-.11-3a1.19,1.19,0,0,1,.12-.65.74.74,0,0,1,.41-.27c1.49-.5,3,.28,4.57.51,1.87.28,3.78-.28,5.66-.08a.76.76,0,0,1,.61.3,1.11,1.11,0,0,1,.12.45c.37,2.84,1,8.9,1.43,12.48.1.81.48,1.88,0,2.53l-.75,1.35a6,6,0,0,1-6.37,2,15.581,15.581,0,0,1-3.03-1.23Z" fill="#f7b094"/>
                <path id="Trazado_106529" data-name="Trazado 106529" d="M130.7,230.89a.74.74,0,0,1,.41-.27c1.49-.5,3,.28,4.57.51,1.87.28,3.78-.28,5.66-.08a.76.76,0,0,1,.61.3,1.11,1.11,0,0,1,.12.45c.21,1.59.41,3.18.61,4.77-.16,1.21-1.11,1.68-3,1.77-2.22.12-7.38-1.31-9-3.51,0-.47-.05-1.09-.08-1.56v-1.73A1.19,1.19,0,0,1,130.7,230.89Z" fill="#e89c82"/>
                <path id="Trazado_106530" data-name="Trazado 106530" d="M126,226.9c-2-.56-3.63-2-3.71-3.52s1.79-3.1,3.87-2.9" fill="#f7b094"/>
                <path id="Trazado_106531" data-name="Trazado 106531" d="M126.81,229c3.31,7.21,8.76,7.09,14.61,7.75a10.229,10.229,0,0,0,3.71-.42c2.51-.81,3.27-3.53,3.43-5.74a48.352,48.352,0,0,0-.48-11.42,15.74,15.74,0,0,0-2.71-7.27,9.13,9.13,0,0,0-7.49-3.54c-3.88.16-7.35,2.82-9.49,5.75-3.17,4.32-4.26,9.77-2,14" fill="#f7b094"/>
                <path id="Trazado_106532" data-name="Trazado 106532" d="M147.78,217.54a12.8,12.8,0,0,0,1,3.88,3.69,3.69,0,0,0,1.65,1.92,1.53,1.53,0,0,1,.64,2.24,2.21,2.21,0,0,1-1.12.85,1.7,1.7,0,0,1-1.93-.29" fill="#f7b094"/>
                <path id="Trazado_106533" data-name="Trazado 106533" d="M140.32,217.22c-.07.08,0,.18.16.17a.87.87,0,0,0,.33-.17,6.64,6.64,0,0,1,4.21-1.17,1.83,1.83,0,0,0,.66,0c.23-.06.45-.24.43-.41a.32.32,0,0,0-.13-.18,2,2,0,0,0-1-.33,5.83,5.83,0,0,0-3.77,1.11,2.27,2.27,0,0,0-.88,1" fill="#38303b"/>
                <g id="Grupo_59472" data-name="Grupo 59472" clip-path="url(#clip-path-4)">
                  <g id="Grupo_59471" data-name="Grupo 59471">
                    <path id="Trazado_106534" data-name="Trazado 106534" d="M144.74,229.94c1.29,1.22,1.88,2.32,3,2.37a8.46,8.46,0,0,0,3.44-1c.61-.38,1.31-2.62,1.38-3.62a7.59,7.59,0,0,1-7.92,2.07" fill="#d1574e"/>
                    <path id="Trazado_106535" data-name="Trazado 106535" d="M144.7,229.8c2.06.9,4.24.77,6.76-.79a2.57,2.57,0,0,0,1.25-1.58,12,12,0,0,1-8.33,2.13Z" fill="#aed3f2"/>
                    <path id="Trazado_106536" data-name="Trazado 106536" d="M147.76,232.31a1.72,1.72,0,0,1-.75-.21,3.55,3.55,0,0,1,1.71-1.37,5.08,5.08,0,0,1,3-.06,1.81,1.81,0,0,1-.51.68,8.46,8.46,0,0,1-3.45.96Z" fill="#e66e60"/>
                  </g>
                </g>
                <path id="Trazado_106538" data-name="Trazado 106538" d="M145.11,219.3c.16.85-.08,1.62-.54,1.71s-.95-.54-1.12-1.4.08-1.62.53-1.71S144.94,218.44,145.11,219.3Z" fill="#38303b"/>
                <path id="Trazado_106539" data-name="Trazado 106539" d="M145.43,217.85a2.68,2.68,0,0,0-.79-.24,2.41,2.41,0,0,0-1,.1,2.85,2.85,0,0,0-1.42,1,.25.25,0,1,0,.43.25,2.31,2.31,0,0,1,1.13-.81,1.88,1.88,0,0,1,1.36.09.25.25,0,0,0,.34-.09.26.26,0,0,0-.09-.34Z" fill="#38303b"/>
              </g>
              <path id="Trazado_106540" data-name="Trazado 106540" d="M125,220.39a36.67,36.67,0,0,0,16.48-8.6,4.54,4.54,0,0,0,1.69-2.57,3.11,3.11,0,0,0-1.74-3,7,7,0,0,0-3.56-.63,19.19,19.19,0,0,0-15,8.43" fill="#38303b"/>
              <path id="Trazado_106541" data-name="Trazado 106541" d="M141.54,227a3.49,3.49,0,0,1-4,2.75,3.38,3.38,0,0,1-3-3.78,3.49,3.49,0,0,1,4-2.74,3.36,3.36,0,0,1,3,3.77Z" fill="#e66e60" opacity="0.24"/>
            </g>
            <g id="Grupo_59476" data-name="Grupo 59476">
              <path id="Trazado_106542" data-name="Trazado 106542" d="M92.66,289.46c-2.44-.28-3.94-3.35-3.65-6s1.83-4.82,3.31-6.89c5.7-7.94,11.41-15.91,18-23.05,2.61-2.85,5.55-5.68,9.22-6.46s8.15,1.36,8.88,5.34c.59,3.16-1.27,6.16-3.11,8.65a117.3,117.3,0,0,1-31,29.08" fill="#6595bf"/>
              <g id="Grupo_59475" data-name="Grupo 59475">
                <rect id="Rectángulo_8427" data-name="Rectángulo 8427" width="41.7" height="27.96" rx="2.3" transform="matrix(0.782, -0.623, 0.623, 0.782, 90.68, 310.644)" fill="#fbffff"/>
                <path id="Trazado_106543" data-name="Trazado 106543" d="M116.51,306.28a2.06,2.06,0,1,1-2.86-.29,2,2,0,0,1,2.86.29Z" fill="#fbffff"/>
              </g>
              <path id="Trazado_106544" data-name="Trazado 106544" d="M101.49,282a10.14,10.14,0,0,0,1.63,3.23c6,9,13.63,19.63,18.38,26.62.82,1.2-1.79,5.8-1.79,5.8-7.51-7.89-16.84-17.6-23.37-26.33a30.179,30.179,0,0,1-3.88-6.25" fill="#f7b094"/>
              <path id="Trazado_106545" data-name="Trazado 106545" d="M115.92,312.52a112.077,112.077,0,0,0,5,10.65c1.07.27,2.54-.14,2.86-1.2a1.87,1.87,0,0,0,2-1c.08-.2.12-.48.28-.61s1.08,0,1.6-.52a1.44,1.44,0,0,0,.49-1.46c-.05-.38,1.08-.33,1.1-1.19a2.092,2.092,0,0,0-1.07-1.51l-8-6a3.53,3.53,0,0,0-2.23-1c-.83.05-1.59,1-1.12,1.72" fill="#f7b094"/>
              <path id="Trazado_106546" data-name="Trazado 106546" d="M90.32,280.18c-1.75,4.37-1.94,6.22,1.94,10.49,6.34,7,16.45,16.77,19.25,19.8,1.14,1.22,2,2,2.75,1.6.31-.18,3.95-3.3,4.29-3.57.79-.63-.2-1.87-1-3.09-6.26-9.65-12.31-18.73-18.16-28.63" fill="#6595bf"/>
            </g>
          </g>
        </g>
      </g>
    </g>
  </g>
</svg>
