<svg xmlns="http://www.w3.org/2000/svg" width="838.39" height="345.83" viewBox="0 0 838.39 345.83">
  <g id="Capa_2" data-name="Capa 2" transform="translate(-23.34 -31.47)">
    <g id="Grupo_59790" data-name="Grupo 59790">
      <g id="Grupo_59709" data-name="Grupo 59709" opacity="0.4">
        <g id="Grupo_59700" data-name="Grupo 59700">
          <rect id="Rectángulo_8611" data-name="Rectángulo 8611" width="59.82" height="49.32" transform="translate(464.21 102.03) rotate(180)" fill="#bdd9ff"/>
          <rect id="Rectángulo_8612" data-name="Rectángulo 8612" width="59.82" height="49.32" transform="translate(494.12 102.03) rotate(180)" fill="#d0e3f9"/>
          <path id="Trazado_107307" data-name="Trazado 107307" d="M404.43,89.52h9.48l-.84-2.67.84-1.91h-9.48Z" fill="#93c2f7"/>
          <path id="Trazado_107308" data-name="Trazado 107308" d="M434.3,67.97h9.48l-.83-2.67.83-1.91H434.3Z" fill="#dfefff"/>
          <path id="Trazado_107309" data-name="Trazado 107309" d="M434.3,63.39h-9.48l.84,2.67-.84,1.91h9.48Z" fill="#93c2f7"/>
          <path id="Trazado_107310" data-name="Trazado 107310" d="M494.12,90.05h-9.48l.84,2.66-.84,1.91h9.48Z" fill="#dfefff"/>
          <rect id="Rectángulo_8613" data-name="Rectángulo 8613" width="17.21" height="6.7" transform="translate(472.99 56.05)" fill="#fff"/>
        </g>
        <g id="Grupo_59701" data-name="Grupo 59701">
          <rect id="Rectángulo_8614" data-name="Rectángulo 8614" width="59.82" height="49.32" transform="translate(358.58 102.03) rotate(180)" fill="#bdd9ff"/>
          <rect id="Rectángulo_8615" data-name="Rectángulo 8615" width="59.82" height="49.32" transform="translate(388.48 102.03) rotate(180)" fill="#d0e3f9"/>
          <path id="Trazado_107311" data-name="Trazado 107311" d="M298.79,89.52h9.48l-.84-2.67.84-1.91h-9.48Z" fill="#93c2f7"/>
          <path id="Trazado_107312" data-name="Trazado 107312" d="M328.66,67.97h9.48l-.83-2.67.83-1.91h-9.48Z" fill="#dfefff"/>
          <path id="Trazado_107313" data-name="Trazado 107313" d="M328.66,63.39h-9.48l.84,2.67-.84,1.91h9.48Z" fill="#93c2f7"/>
          <path id="Trazado_107314" data-name="Trazado 107314" d="M388.48,90.05H379l.84,2.66L379,94.62h9.48Z" fill="#dfefff"/>
          <rect id="Rectángulo_8616" data-name="Rectángulo 8616" width="17.21" height="6.7" transform="translate(367.35 56.05)" fill="#fff"/>
        </g>
        <g id="Grupo_59708" data-name="Grupo 59708">
          <rect id="Rectángulo_8617" data-name="Rectángulo 8617" width="23.01" height="274.42" transform="translate(260.06 102.03)" fill="#bdd9ff"/>
          <rect id="Rectángulo_8618" data-name="Rectángulo 8618" width="19.13" height="274.42" transform="translate(512.31 102.03)" fill="#bdd9ff"/>
          <rect id="Rectángulo_8619" data-name="Rectángulo 8619" width="248.37" height="7.14" transform="translate(283.07 102.03)" fill="#bdd9ff"/>
          <rect id="Rectángulo_8620" data-name="Rectángulo 8620" width="248.37" height="7.14" transform="translate(283.07 232.1)" fill="#bdd9ff"/>
          <rect id="Rectángulo_8621" data-name="Rectángulo 8621" width="248.37" height="7.14" transform="translate(283.07 341.19)" fill="#bdd9ff"/>
          <g id="Grupo_59702" data-name="Grupo 59702">
            <rect id="Rectángulo_8622" data-name="Rectángulo 8622" width="61.84" height="51" transform="translate(470.37 232.1) rotate(180)" fill="#a1c7f0"/>
            <rect id="Rectángulo_8623" data-name="Rectángulo 8623" width="61.84" height="51" transform="translate(501.3 232.1) rotate(180)" fill="#d0e3f9"/>
            <path id="Trazado_107315" data-name="Trazado 107315" d="M408.57,219.16h9.8l-.86-2.75.86-1.97h-9.8Z" fill="#93c2f7"/>
            <path id="Trazado_107316" data-name="Trazado 107316" d="M439.46,196.88h9.8l-.87-2.75.87-1.98h-9.8Z" fill="#dfefff"/>
            <path id="Trazado_107317" data-name="Trazado 107317" d="M439.46,192.15h-9.8l.86,2.76-.86,1.97h9.8Z" fill="#93c2f7"/>
            <path id="Trazado_107318" data-name="Trazado 107318" d="M501.3,219.71h-9.8l.87,2.76-.87,1.97h9.8Z" fill="#dfefff"/>
            <rect id="Rectángulo_8624" data-name="Rectángulo 8624" width="17.8" height="6.92" transform="translate(479.46 184.56)" fill="#fff"/>
          </g>
          <g id="Grupo_59703" data-name="Grupo 59703">
            <rect id="Rectángulo_8625" data-name="Rectángulo 8625" width="61.84" height="51" transform="translate(391.01 232.1) rotate(180)" fill="#bdd9ff"/>
            <rect id="Rectángulo_8626" data-name="Rectángulo 8626" width="61.84" height="51" transform="translate(421.94 232.1) rotate(180)" fill="#d0e3f9"/>
            <path id="Trazado_107319" data-name="Trazado 107319" d="M329.2,219.16H339l-.86-2.75.86-1.97h-9.8Z" fill="#93c2f7"/>
            <path id="Trazado_107320" data-name="Trazado 107320" d="M360.09,196.88h9.8l-.86-2.75.86-1.98h-9.8Z" fill="#dfefff"/>
            <path id="Trazado_107321" data-name="Trazado 107321" d="M360.09,192.15h-9.8l.86,2.76-.86,1.97h9.8Z" fill="#93c2f7"/>
            <path id="Trazado_107322" data-name="Trazado 107322" d="M421.94,219.71h-9.8l.86,2.76-.86,1.97h9.8Z" fill="#dfefff"/>
            <path id="Trazado_107323" data-name="Trazado 107323" d="M421.94,191.48h-9.8l.86,2.76-.86,1.97h9.8Z" fill="#dfefff"/>
            <rect id="Rectángulo_8627" data-name="Rectángulo 8627" width="29.01" height="11.28" transform="translate(366.34 215.35)" fill="#fff"/>
          </g>
          <g id="Grupo_59704" data-name="Grupo 59704">
            <rect id="Rectángulo_8628" data-name="Rectángulo 8628" width="53.45" height="44.08" transform="translate(461.98 341.02) rotate(180)" fill="#bdd9ff"/>
            <rect id="Rectángulo_8629" data-name="Rectángulo 8629" width="53.45" height="44.08" transform="translate(488.72 341.02) rotate(180)" fill="#d0e3f9"/>
            <path id="Trazado_107324" data-name="Trazado 107324" d="M408.57,329.85h8.47l-.75-2.39.75-1.7h-8.47Z" fill="#93c2f7"/>
            <path id="Trazado_107325" data-name="Trazado 107325" d="M435.26,310.59h8.47l-.74-2.39.74-1.7h-8.47Z" fill="#dfefff"/>
            <path id="Trazado_107326" data-name="Trazado 107326" d="M435.26,306.5h-8.47l.75,2.38-.75,1.71h8.47Z" fill="#93c2f7"/>
            <path id="Trazado_107327" data-name="Trazado 107327" d="M488.72,330.32h-8.47l.74,2.38-.74,1.7h8.47Z" fill="#dfefff"/>
            <rect id="Rectángulo_8630" data-name="Rectángulo 8630" width="15.38" height="5.98" transform="translate(469.83 299.94)" fill="#fff"/>
          </g>
          <g id="Grupo_59705" data-name="Grupo 59705">
            <rect id="Rectángulo_8631" data-name="Rectángulo 8631" width="61.84" height="50.99" transform="translate(368.86 341.02) rotate(180)" fill="#bdd9ff"/>
            <rect id="Rectángulo_8632" data-name="Rectángulo 8632" width="61.84" height="50.99" transform="translate(399.78 341.02) rotate(180)" fill="#d0e3f9"/>
            <path id="Trazado_107328" data-name="Trazado 107328" d="M307.05,328.09h9.8l-.86-2.76.86-1.97h-9.8Z" fill="#84aacc"/>
            <path id="Trazado_107329" data-name="Trazado 107329" d="M337.94,305.81h9.8l-.87-2.76.87-1.97h-9.8Z" fill="#568cc5"/>
            <path id="Trazado_107330" data-name="Trazado 107330" d="M337.94,301.08h-9.8l.86,2.76-.86,1.97h9.8Z" fill="#84aacc"/>
            <path id="Trazado_107331" data-name="Trazado 107331" d="M399.78,328.64h-9.8l.87,2.76-.87,1.97h9.8Z" fill="#568cc5"/>
            <rect id="Rectángulo_8633" data-name="Rectángulo 8633" width="17.8" height="6.92" transform="translate(377.94 293.49)" fill="#fff"/>
          </g>
          <g id="Grupo_59706" data-name="Grupo 59706">
            <rect id="Rectángulo_8634" data-name="Rectángulo 8634" width="47.28" height="38.99" transform="translate(371.71 180.87) rotate(180)" fill="#bdd9ff"/>
            <rect id="Rectángulo_8635" data-name="Rectángulo 8635" width="47.28" height="38.99" transform="translate(395.35 180.87) rotate(180)" fill="#d0e3f9"/>
            <path id="Trazado_107332" data-name="Trazado 107332" d="M324.45,170.98h7.49l-.66-2.11.66-1.5h-7.49Z" fill="#93c2f7"/>
            <path id="Trazado_107333" data-name="Trazado 107333" d="M348.06,153.95h7.5l-.67-2.11.67-1.51h-7.5Z" fill="#dfefff"/>
            <path id="Trazado_107334" data-name="Trazado 107334" d="M348.06,150.33h-7.49l.66,2.11-.66,1.51h7.49Z" fill="#93c2f7"/>
            <path id="Trazado_107335" data-name="Trazado 107335" d="M395.34,171.4h-7.49l.66,2.11-.66,1.5h7.49Z" fill="#dfefff"/>
            <rect id="Rectángulo_8636" data-name="Rectángulo 8636" width="13.61" height="5.29" transform="translate(378.64 144.53)" fill="#fff"/>
          </g>
          <g id="Grupo_59707" data-name="Grupo 59707">
            <rect id="Rectángulo_8637" data-name="Rectángulo 8637" width="47.28" height="38.99" transform="translate(456.17 180.87) rotate(180)" fill="#bdd9ff"/>
            <rect id="Rectángulo_8638" data-name="Rectángulo 8638" width="47.28" height="38.99" transform="translate(479.81 180.87) rotate(180)" fill="#d0e3f9"/>
            <path id="Trazado_107336" data-name="Trazado 107336" d="M408.92,170.98h7.5l-.66-2.11.66-1.5h-7.5Z" fill="#93c2f7"/>
            <path id="Trazado_107337" data-name="Trazado 107337" d="M432.54,153.95h7.49l-.66-2.11.66-1.51h-7.49Z" fill="#dfefff"/>
            <path id="Trazado_107338" data-name="Trazado 107338" d="M432.54,150.33h-7.49l.65,2.11-.65,1.51h7.49Z" fill="#93c2f7"/>
            <path id="Trazado_107339" data-name="Trazado 107339" d="M479.82,171.4h-7.49l.66,2.11-.66,1.5h7.49Z" fill="#dfefff"/>
            <rect id="Rectángulo_8639" data-name="Rectángulo 8639" width="13.61" height="5.29" transform="translate(463.12 144.53)" fill="#fff"/>
          </g>
        </g>
      </g>
      <g id="Grupo_59713" data-name="Grupo 59713">
        <path id="Trazado_107340" data-name="Trazado 107340" d="M787.55,300.24l-1.17-.35c3.11-10.56-2.53-21.56-12.58-24.51l-25.29-7.45A10.11,10.11,0,0,1,742,255.22c5.21-17.7-4.24-36.13-21.07-41.08l.37-1.24c17.47,5.15,27.29,24.29,21.88,42.67a8.85,8.85,0,0,0,5.7,11.12l25.3,7.45C784.86,277.28,790.86,289,787.55,300.24Z" fill="#344154"/>
        <path id="Trazado_107341" data-name="Trazado 107341" d="M785,308.92l-1.18-.35c3.11-10.56-2.53-21.56-12.57-24.51L746,276.61a10.11,10.11,0,0,1-6.52-12.71c5.21-17.7-4.25-36.13-21.07-41.08l.36-1.24c17.48,5.15,27.29,24.29,21.88,42.67a8.87,8.87,0,0,0,5.71,11.13l25.29,7.44C782.3,286,788.31,297.67,785,308.92Z" fill="#344154"/>
        <g id="Grupo_59710" data-name="Grupo 59710">
          <rect id="Rectángulo_8640" data-name="Rectángulo 8640" width="53.26" height="43.91" transform="translate(600.34 180.67)" fill="#a37955"/>
          <rect id="Rectángulo_8641" data-name="Rectángulo 8641" width="53.26" height="43.91" transform="translate(573.71 180.67)" fill="#e1b48d"/>
          <path id="Trazado_107342" data-name="Trazado 107342" d="M653.57,213.45h-8.44l.74-2.38-.74-1.69h8.44Z" fill="#a66d58"/>
          <path id="Trazado_107343" data-name="Trazado 107343" d="M626.97,194.26h-8.44l.74-2.37-.74-1.7h8.44Z" fill="#ffae73"/>
          <path id="Trazado_107344" data-name="Trazado 107344" d="M626.97,190.19h8.44l-.74,2.38.74,1.69h-8.44Z" fill="#a66d58"/>
          <path id="Trazado_107345" data-name="Trazado 107345" d="M573.71,213.92h8.44l-.74,2.38.74,1.69h-8.44Z" fill="#ffae73"/>
          <rect id="Rectángulo_8642" data-name="Rectángulo 8642" width="15.33" height="5.96" transform="translate(592.53 189.61) rotate(180)" fill="#fff"/>
        </g>
        <path id="Trazado_107346" data-name="Trazado 107346" d="M655.51,61.26c-7.64,0-15.64-1.21-20.09-3.77-7.07-4.08-16-2.35-16.12-2.33l-.22-1.09c.38-.08,9.46-1.83,16.9,2.46s25.54,4.6,33.78,1.8,18.91-5.74,23.4-5.74v1.1c-4.36,0-15,3-23,5.68A49.328,49.328,0,0,1,655.51,61.26Z" fill="#344154"/>
        <rect id="Rectángulo_8643" data-name="Rectángulo 8643" width="3.49" height="22.78" transform="translate(608.12 140.2)" fill="#344154"/>
        <rect id="Rectángulo_8644" data-name="Rectángulo 8644" width="3.49" height="22.78" transform="translate(615.04 140.2)" fill="#344154"/>
        <path id="Trazado_107347" data-name="Trazado 107347" d="M655.51,58.81c-7.64,0-15.64-1.21-20.09-3.78-7.07-4.08-16-2.35-16.12-2.33l-.22-1.08c.38-.08,9.46-1.84,16.9,2.46s25.54,4.6,33.78,1.79,18.91-5.74,23.4-5.74v1.11c-4.36,0-15,2.94-23,5.68A49.328,49.328,0,0,1,655.51,58.81Z" fill="#344154"/>
        <path id="Trazado_107348" data-name="Trazado 107348" d="M729.06,192h-1.45v-1.1h1.45a12.2,12.2,0,0,0,12.18-12.18V52.61a12.19,12.19,0,0,0-12.18-12.18H718.31V39.32h10.75a13.3,13.3,0,0,1,13.29,13.29V178.7A13.3,13.3,0,0,1,729.06,192Z" fill="#344154"/>
        <path id="Trazado_107349" data-name="Trazado 107349" d="M727.61,181.31V180.2a8.48,8.48,0,0,0,8.47-8.47V54.52a8.22,8.22,0,0,0-8.21-8.21h-8.53V45.2h8.53a9.33,9.33,0,0,1,9.32,9.32V171.73A9.59,9.59,0,0,1,727.61,181.31Z" fill="#344154"/>
        <rect id="Rectángulo_8645" data-name="Rectángulo 8645" width="45.72" height="82.96" rx="22.86" transform="translate(589.98 62.3)" fill="#6595bf"/>
        <g id="Grupo_59711" data-name="Grupo 59711">
          <circle id="Elipse_4229" data-name="Elipse 4229" cx="3.98" cy="3.98" r="3.98" transform="translate(598.53 70.12)" fill="#dae6ff"/>
          <path id="Trazado_107350" data-name="Trazado 107350" d="M598.53,130.83a4,4,0,1,1,4,4A4,4,0,0,1,598.53,130.83Z" fill="#dae6ff"/>
          <path id="Trazado_107351" data-name="Trazado 107351" d="M619.19,74.1a4,4,0,1,1,4,4A4,4,0,0,1,619.19,74.1Z" fill="#dae6ff"/>
          <path id="Trazado_107352" data-name="Trazado 107352" d="M619.19,130.83a4,4,0,1,1,4,4A4,4,0,0,1,619.19,130.83Z" fill="#dae6ff"/>
        </g>
        <path id="Trazado_107353" data-name="Trazado 107353" d="M629.82,166.89a5.8,5.8,0,0,1-.52,2.38H598.05a5.8,5.8,0,0,1-.52-2.38c0-5.17,7.23-9.37,16.14-9.37S629.82,161.72,629.82,166.89Z" fill="#e1b48d"/>
        <path id="Trazado_107354" data-name="Trazado 107354" d="M656.88,177.58v42.47a10.37,10.37,0,0,1-4.48,8.53l-12.95,8.93a2.05,2.05,0,0,1-2.84-.52h0a2,2,0,0,1,.53-2.84l13-8.93a6.29,6.29,0,0,0,2.71-5.16V177.58a8.32,8.32,0,0,0-8.32-8.31H582.87a8.32,8.32,0,0,0-8.32,8.31v42.23a6.25,6.25,0,0,0,3,5.32l14.47,9a2,2,0,0,1,.65,2.81h0a2,2,0,0,1-2.81.65l-14.47-9a10.3,10.3,0,0,1-4.87-8.78V177.58a12.4,12.4,0,0,1,12.4-12.4h61.61A12.4,12.4,0,0,1,656.88,177.58Z" fill="#344154"/>
        <rect id="Rectángulo_8646" data-name="Rectángulo 8646" width="84.9" height="2.55" transform="translate(611.6 36.77)" fill="#344154"/>
        <rect id="Rectángulo_8647" data-name="Rectángulo 8647" width="84.9" height="2.55" transform="translate(611.6 43.92)" fill="#344154"/>
        <path id="Trazado_107355" data-name="Trazado 107355" d="M623.85,62.3H598.53V44.54A13.07,13.07,0,0,1,611.6,31.47h0a13.07,13.07,0,0,1,13.07,13.07V61.48A.82.82,0,0,1,623.85,62.3Z" fill="#e1b48d"/>
        <rect id="Rectángulo_8648" data-name="Rectángulo 8648" width="34.88" height="252.26" rx="17.44" transform="translate(689.83 31.47)" fill="#6595bf"/>
        <circle id="Elipse_4230" data-name="Elipse 4230" cx="2.03" cy="2.03" r="2.03" transform="translate(705.24 41.7)" fill="#344154"/>
        <rect id="Rectángulo_8649" data-name="Rectángulo 8649" width="41.95" height="168.27" rx="18.55" transform="translate(685.66 67.01)" fill="#4c708f"/>
        <path id="Trazado_107356" data-name="Trazado 107356" d="M699.82,268.16h16.07a14.16,14.16,0,0,1,14.16,14.16v14.16H699.82a14.16,14.16,0,0,1-14.16-14.16h0A14.16,14.16,0,0,1,699.82,268.16Z" fill="#4c708f"/>
        <g id="Grupo_59712" data-name="Grupo 59712">
          <circle id="Elipse_4231" data-name="Elipse 4231" cx="7.73" cy="7.73" r="7.73" transform="translate(602.067 51.224) rotate(-88.854)" fill="#e1b48d"/>
          <path id="Trazado_107357" data-name="Trazado 107357" d="M611.6,51.89a8,8,0,1,1,8-8A8,8,0,0,1,611.6,51.89Zm0-15.45a7.49,7.49,0,1,0,7.49,7.48,7.49,7.49,0,0,0-7.49-7.48Z" fill="#344154"/>
          <circle id="Elipse_4232" data-name="Elipse 4232" cx="4.72" cy="4.72" r="4.72" transform="translate(605.898 47.433) rotate(-76.72)" fill="#a37955"/>
        </g>
      </g>
      <g id="Grupo_59715" data-name="Grupo 59715">
        <g id="Grupo_59714" data-name="Grupo 59714">
          <rect id="Rectángulo_8650" data-name="Rectángulo 8650" width="33.2" height="27.38" transform="translate(825.228 281.44) rotate(155.56)" fill="#bdd9ff"/>
          <rect id="Rectángulo_8651" data-name="Rectángulo 8651" width="33.2" height="27.38" transform="translate(840.331 274.561) rotate(155.56)" fill="#d0e3f9"/>
          <path id="Trazado_107358" data-name="Trazado 107358" d="M802.29,271.09l4.79-2.17-1.04-1.16-.01-1.15-4.79,2.17Z" fill="#568cc5"/>
          <path id="Trazado_107359" data-name="Trazado 107359" d="M801.24,268.78l-4.79,2.18,1.03,1.16.02,1.15,4.79-2.18Z" fill="#84aacc"/>
          <path id="Trazado_107360" data-name="Trazado 107360" d="M837.59,268.51l-4.79,2.18,1.03,1.16.02,1.15,4.79-2.18Z" fill="#568cc5"/>
          <rect id="Rectángulo_8652" data-name="Rectángulo 8652" width="9.55" height="3.72" transform="translate(819.105 256.173) rotate(-24.44)" fill="#fff"/>
        </g>
        <path id="Trazado_107361" data-name="Trazado 107361" d="M850,351.24c-.11.36-.23.71-.35,1.06q-1.53,4.51-3.39,9.17c-.17.43-.34.86-.52,1.29q-2.25,5.53-5,11.28H800.09l-2.33-21.74-.11-1.06-.09-.83-5.79-53.93v-.42l3-1.36,15.16-6.77,15.16-6.77,15.15-6.77,11.26-5c.19.53.38,1.06.55,1.59s.33,1,.48,1.45C859.48,294,860.32,320.21,850,351.24Z" fill="#344154"/>
        <path id="Trazado_107362" data-name="Trazado 107362" d="M850,351.24c-.11.36-.23.71-.35,1.06H801.82l-.1-1.06-.09-.83-5.22-52.85,2.41-1.08,53.72-24.08C859.48,294,860.32,320.21,850,351.24Z" fill="#cedfff"/>
        <path id="Trazado_107363" data-name="Trazado 107363" d="M801.82,352.3H392.69a27.91,27.91,0,0,1-27.91-27.91h0a27.92,27.92,0,0,1,27.91-27.91H801.82a27.91,27.91,0,0,1,27.91,27.91h0A27.9,27.9,0,0,1,801.82,352.3Z" fill="#6595bf"/>
        <path id="Trazado_107364" data-name="Trazado 107364" d="M829.73,324.39a27.89,27.89,0,0,1-27.91,27.91H732.45a2.68,2.68,0,0,1-2.69-2.69V299.17a2.69,2.69,0,0,1,2.69-2.69h69.37A27.91,27.91,0,0,1,829.73,324.39Z" fill="#c1d6ff"/>
        <path id="Trazado_107365" data-name="Trazado 107365" d="M850,351.24c-.11.36-.23.71-.35,1.06q-1.53,4.51-3.39,9.17c-.17.43-.34.86-.52,1.29q-2.25,5.53-5,11.28H796.46l-406.55.19v-23Z" fill="#c1d6ff"/>
        <path id="Trazado_107366" data-name="Trazado 107366" d="M512.57,321.38l-3.15-1.46a.78.78,0,0,1-.44-.67,5.917,5.917,0,0,0-.07-1.11,13.123,13.123,0,0,0-.38-2,.77.77,0,0,1,.28-.81l2.88-2.2a.74.74,0,0,0,.18-1l-1.78-2.81a.74.74,0,0,0-.94-.26l-3,1.47a.74.74,0,0,1-.87-.16,13.38,13.38,0,0,0-3.38-2.54.75.75,0,0,1-.37-.85l.48-2a.75.75,0,0,0-.48-.89L498.44,303a.671.671,0,0,0-.19-.05.75.75,0,0,0-.75.43l-1.09,2.35-.27.58a13.35,13.35,0,0,0-4.32.57.75.75,0,0,1-.81-.26l-1.77-2.33a.76.76,0,0,0-1-.18l-2.14,1.35-.62.39a.78.78,0,0,0-.28,1l1.23,2.51a.74.74,0,0,1-.14.86,13,13,0,0,0-1.77,2.22l-.13.2-.05.07a.75.75,0,0,1-.79.28l-3.21-.79h-.11a.77.77,0,0,0-.78.5l-1.12,3.09a.75.75,0,0,0,.39.95l3.29,1.53a.73.73,0,0,1,.43.71,13,13,0,0,0,.07,2.06,5.732,5.732,0,0,0,.16,1.09.79.79,0,0,1-.29.77l-2.8,2.1a.76.76,0,0,0-.18,1l1.76,2.77a.79.79,0,0,0,1,.28l2.37-1.16a.75.75,0,0,1,.92.19,13.661,13.661,0,0,0,3.09,2.74.74.74,0,0,1,.33.82l-.7,2.89a.78.78,0,0,0,.49.92l3.07,1.12a.75.75,0,0,0,.94-.39l.07-.14,1.27-2.73a.76.76,0,0,1,.75-.44h0a13.22,13.22,0,0,0,2.35-.05,10.658,10.658,0,0,0,1.26-.2.75.75,0,0,1,.75.28l1.8,2.36a.77.77,0,0,0,1,.19l2.75-1.75a.7.7,0,0,0,.2-.18.77.77,0,0,0,.08-.8l-1-2a.76.76,0,0,1,.05-.76,1.071,1.071,0,0,1,.14-.16,13.25,13.25,0,0,0,3.29-4.11.78.78,0,0,1,.72-.41h.13l2.59.64a.76.76,0,0,0,.9-.48v-.07l1.09-3A.77.77,0,0,0,512.57,321.38Zm-10.2,1a7.27,7.27,0,0,1-1.94,2.69,4.8,4.8,0,0,1-.56.42,8.26,8.26,0,0,1-2.58,1.08,7.19,7.19,0,0,1-8.66-8.28,9.07,9.07,0,0,1,.43-1.6,7,7,0,0,1,2.39-3l.3-.18a7.26,7.26,0,0,1,10.62,8.86Z" fill="#4c708f"/>
        <path id="Trazado_107367" data-name="Trazado 107367" d="M533.87,334.93l-2.26-1.05a.57.57,0,0,1-.32-.49,7.318,7.318,0,0,0,0-.8,8.33,8.33,0,0,0-.27-1.44.56.56,0,0,1,.2-.59l2.07-1.58a.53.53,0,0,0,.13-.72l-1.27-2a.53.53,0,0,0-.68-.19l-2.16,1.06a.54.54,0,0,1-.63-.12,9.518,9.518,0,0,0-2.43-1.83.55.55,0,0,1-.27-.61l.35-1.42a.55.55,0,0,0-.34-.65l-2.23-.8a.35.35,0,0,0-.14,0,.53.53,0,0,0-.53.31l-.79,1.69-.19.41a10.22,10.22,0,0,0-1.35.05,10,10,0,0,0-1.76.36.53.53,0,0,1-.58-.19l-1.27-1.67a.56.56,0,0,0-.74-.13l-1.54,1-.44.29a.56.56,0,0,0-.21.71l.89,1.81a.53.53,0,0,1-.1.61,10,10,0,0,0-1.28,1.61l-.09.14v.05a.56.56,0,0,1-.57.2l-2.31-.57h-.08a.54.54,0,0,0-.56.36l-.81,2.21a.55.55,0,0,0,.29.69l2.36,1.1a.54.54,0,0,1,.31.51,9.2,9.2,0,0,0,0,1.48,6.833,6.833,0,0,0,.12.79.58.58,0,0,1-.22.55l-2,1.52a.53.53,0,0,0-.13.71l1.27,2a.56.56,0,0,0,.72.21l1.71-.84a.56.56,0,0,1,.66.14,9.23,9.23,0,0,0,2.22,2,.57.57,0,0,1,.24.6l-.51,2.08a.56.56,0,0,0,.36.66l2.21.8a.52.52,0,0,0,.67-.28v-.09l.91-2a.57.57,0,0,1,.55-.32h0a9.582,9.582,0,0,0,1.69,0l.9-.14a.53.53,0,0,1,.55.2l1.29,1.7a.56.56,0,0,0,.75.13l2-1.26a.44.44,0,0,0,.14-.13.54.54,0,0,0,.06-.57l-.71-1.44a.57.57,0,0,1,0-.55.519.519,0,0,1,.1-.11,9.71,9.71,0,0,0,2.37-3,.53.53,0,0,1,.52-.29h.09l1.86.46a.56.56,0,0,0,.65-.35v-.05l.79-2.16a.56.56,0,0,0-.23-.77Zm-7.33.71a5.141,5.141,0,0,1-1.4,1.93,2.7,2.7,0,0,1-.4.31,6,6,0,0,1-1.86.77,5.16,5.16,0,0,1-6.22-5.95,6.625,6.625,0,0,1,.3-1.16,5.14,5.14,0,0,1,1.72-2.14l.22-.13a5.22,5.22,0,0,1,7.64,6.37Z" fill="#cedfff"/>
        <path id="Trazado_107368" data-name="Trazado 107368" d="M633.31,321.38l-3.15-1.46a.78.78,0,0,1-.44-.67,5.909,5.909,0,0,0-.07-1.11,13.115,13.115,0,0,0-.38-2,.77.77,0,0,1,.28-.81l2.88-2.2a.74.74,0,0,0,.18-1l-1.77-2.81a.75.75,0,0,0-1-.26l-3,1.47a.74.74,0,0,1-.87-.16,13.379,13.379,0,0,0-3.38-2.54.75.75,0,0,1-.37-.85l.48-2a.76.76,0,0,0-.47-.89l-3.1-1.12a.772.772,0,0,0-.19-.05.75.75,0,0,0-.75.43l-1.09,2.35-.27.58a13.35,13.35,0,0,0-4.32.57.76.76,0,0,1-.81-.26l-1.7-2.32a.76.76,0,0,0-1-.18l-2.15,1.35-.61.39a.78.78,0,0,0-.28,1l1.23,2.51a.74.74,0,0,1-.14.86,13,13,0,0,0-1.77,2.22l-.13.2a.179.179,0,0,1-.05.07.75.75,0,0,1-.79.28l-3.21-.79H601a.78.78,0,0,0-.79.5l-1.12,3.09a.75.75,0,0,0,.39.95l3.29,1.53a.71.71,0,0,1,.43.71,13,13,0,0,0,.07,2.06,5.734,5.734,0,0,0,.16,1.09.81.81,0,0,1-.29.77L600.32,325a.74.74,0,0,0-.17,1l1.76,2.77a.78.78,0,0,0,1,.28l2.37-1.16a.75.75,0,0,1,.92.19,13.45,13.45,0,0,0,3.09,2.74.75.75,0,0,1,.34.82l-.71,2.89a.78.78,0,0,0,.49.92l3.07,1.12a.75.75,0,0,0,.94-.39l.07-.14,1.27-2.73a.76.76,0,0,1,.75-.44h0a13.22,13.22,0,0,0,2.35-.05,10.655,10.655,0,0,0,1.26-.2.76.76,0,0,1,.76.28l1.79,2.36a.77.77,0,0,0,1,.19l2.76-1.75a.809.809,0,0,0,.19-.18.77.77,0,0,0,.08-.8l-1-2a.76.76,0,0,1,.05-.76,1.071,1.071,0,0,1,.14-.16,13.281,13.281,0,0,0,3.3-4.11.76.76,0,0,1,.71-.41h.13l2.6.64a.75.75,0,0,0,.89-.48v-.07l1.09-3a.77.77,0,0,0-.3-.99Zm-10.2,1a7.27,7.27,0,0,1-1.94,2.69,4.8,4.8,0,0,1-.56.42,8.22,8.22,0,0,1-2.59,1.08,7.19,7.19,0,0,1-8.65-8.28,9.067,9.067,0,0,1,.43-1.6,7,7,0,0,1,2.39-3l.3-.18a7.26,7.26,0,0,1,10.62,8.86Z" fill="#4c708f"/>
        <path id="Trazado_107369" data-name="Trazado 107369" d="M654.62,334.93l-2.27-1.05a.54.54,0,0,1-.31-.49,3.645,3.645,0,0,0-.06-.8,8.324,8.324,0,0,0-.27-1.44.56.56,0,0,1,.2-.59L654,329a.53.53,0,0,0,.13-.72l-1.27-2a.53.53,0,0,0-.68-.19L650,327.12a.54.54,0,0,1-.63-.12,9.65,9.65,0,0,0-2.42-1.83.54.54,0,0,1-.28-.61l.35-1.42a.55.55,0,0,0-.34-.65l-2.23-.8a.32.32,0,0,0-.14,0,.53.53,0,0,0-.53.31l-.79,1.69-.19.41a10.226,10.226,0,0,0-1.35.05,10,10,0,0,0-1.76.36.53.53,0,0,1-.58-.19l-1.28-1.67a.55.55,0,0,0-.73-.13l-1.54,1-.44.29a.56.56,0,0,0-.21.71l.89,1.81a.53.53,0,0,1-.1.61,9.38,9.38,0,0,0-1.27,1.61.708.708,0,0,0-.1.14v.05a.56.56,0,0,1-.57.2l-2.31-.57h-.08a.54.54,0,0,0-.56.36l-.81,2.21a.55.55,0,0,0,.29.69l2.36,1.1a.54.54,0,0,1,.31.51,9.194,9.194,0,0,0,.05,1.48,4.189,4.189,0,0,0,.12.79.58.58,0,0,1-.21.55l-2,1.52a.53.53,0,0,0-.13.71l1.27,2a.56.56,0,0,0,.72.21l1.7-.84a.56.56,0,0,1,.67.14,9.231,9.231,0,0,0,2.22,2,.55.55,0,0,1,.24.6l-.51,2.08a.57.57,0,0,0,.35.66l2.22.8a.52.52,0,0,0,.67-.28l.05-.09.91-2a.56.56,0,0,1,.54-.32h0a9.582,9.582,0,0,0,1.69,0l.91-.14a.52.52,0,0,1,.54.2l1.29,1.7a.56.56,0,0,0,.75.13l2-1.26a.35.35,0,0,0,.14-.13.56.56,0,0,0,.06-.57l-.71-1.44a.57.57,0,0,1,0-.55.52.52,0,0,1,.1-.11,9.711,9.711,0,0,0,2.37-3,.52.52,0,0,1,.52-.29h.09l1.87.46a.55.55,0,0,0,.64-.35v-.05l.79-2.16a.56.56,0,0,0-.27-.76Zm-7.34.71a5.22,5.22,0,0,1-1.39,1.93,3.394,3.394,0,0,1-.41.31,6,6,0,0,1-1.86.77,5.16,5.16,0,0,1-6.22-5.95,6.62,6.62,0,0,1,.3-1.16,5.08,5.08,0,0,1,1.73-2.14l.21-.13a5.22,5.22,0,0,1,7.64,6.37Z" fill="#cedfff"/>
        <path id="Trazado_107370" data-name="Trazado 107370" d="M565.58,318.49l-3.41-.61a.76.76,0,0,1-.6-.53,10.168,10.168,0,0,0-.36-1.06,13.653,13.653,0,0,0-.87-1.85.77.77,0,0,1,0-.86l2.23-2.86a.75.75,0,0,0-.09-1l-2.43-2.25a.73.73,0,0,0-1,0l-2.52,2.19a.72.72,0,0,1-.88.07,13.41,13.41,0,0,0-3.92-1.59.76.76,0,0,1-.58-.73v-2a.77.77,0,0,0-.69-.75l-3.28-.29H547a.76.76,0,0,0-.61.61l-.45,2.55-.11.62a14.73,14.73,0,0,0-1.79.55,13.841,13.841,0,0,0-2.25,1.11.76.76,0,0,1-.85,0l-2.3-1.8a.76.76,0,0,0-1,.09l-1.73,1.86-.49.53a.78.78,0,0,0,0,1l1.83,2.11a.73.73,0,0,1,.09.86,13.41,13.41,0,0,0-1.14,2.61,1,1,0,0,0-.08.23.151.151,0,0,1,0,.07.74.74,0,0,1-.69.47l-3.3.07a.2.2,0,0,0-.11,0,.76.76,0,0,0-.64.68l-.29,3.27a.77.77,0,0,0,.63.82l3.56.63a.75.75,0,0,1,.61.58,13.012,13.012,0,0,0,.59,2c.13.35.28.69.43,1a.77.77,0,0,1-.08.81l-2.14,2.76a.74.74,0,0,0,.08,1l2.41,2.23a.78.78,0,0,0,1,0l2-1.73a.78.78,0,0,1,1-.05,13.119,13.119,0,0,0,3.68,1.85.79.79,0,0,1,.54.72l.05,3a.79.79,0,0,0,.72.76l3.25.3a.76.76,0,0,0,.81-.62v-.15l.53-3a.77.77,0,0,1,.61-.62h0a13.454,13.454,0,0,0,2.26-.65,11,11,0,0,0,1.16-.51.79.79,0,0,1,.81.07l2.34,1.83a.78.78,0,0,0,1.05-.08l2.22-2.4a.79.79,0,0,0,0-1l-1.46-1.68a.77.77,0,0,1-.15-.74,1.139,1.139,0,0,1,.1-.19,13.381,13.381,0,0,0,2.13-4.82.75.75,0,0,1,.59-.58h.13l2.67-.05a.78.78,0,0,0,.75-.69v-.08l.29-3.19a.77.77,0,0,0-.68-.9Zm-9.6,3.57a7.33,7.33,0,0,1-1.18,3.09,5.573,5.573,0,0,1-.44.55,8.32,8.32,0,0,1-2.22,1.71,7.19,7.19,0,0,1-10.49-5.79,9.2,9.2,0,0,1,0-1.66,7,7,0,0,1,1.55-3.49c.08-.08.16-.17.25-.25A7.26,7.26,0,0,1,556,322.06Z" fill="#4c708f"/>
        <path id="Trazado_107371" data-name="Trazado 107371" d="M850,351.24c-.11.36-.23.71-.35,1.06q-1.53,4.51-3.39,9.17c-.17.43-.34.86-.52,1.29q-2.25,5.53-5,11.28H796.46v-22.8Z" fill="#cedfff"/>
        <path id="Trazado_107372" data-name="Trazado 107372" d="M801.82,353.56H392.69a29.167,29.167,0,1,1,0-58.335l409.13,0a29.168,29.168,0,1,1,0,58.335ZM392.69,297.73a26.66,26.66,0,1,0,0,53.32H801.82a26.66,26.66,0,0,0,0-53.32Z" fill="#344154"/>
      </g>
      <g id="Grupo_59720" data-name="Grupo 59720">
        <rect id="Rectángulo_8653" data-name="Rectángulo 8653" width="31.62" height="30.68" rx="7.81" transform="translate(137.18 150.33)" fill="#bad7fd"/>
        <rect id="Rectángulo_8654" data-name="Rectángulo 8654" width="28.88" height="28.02" rx="7.14" transform="translate(138.55 151.66)" fill="#dceaff"/>
        <g id="Grupo_59718" data-name="Grupo 59718">
          <g id="Grupo_59716" data-name="Grupo 59716">
            <circle id="Elipse_4233" data-name="Elipse 4233" cx="0.66" cy="0.66" r="0.66" transform="translate(152.33 153.8)" fill="#b0d2f5"/>
            <path id="Trazado_107373" data-name="Trazado 107373" d="M157.62,155.39a.66.66,0,0,1,.89-.26.655.655,0,1,1-.89.26Z" fill="#b0d2f5"/>
            <path id="Trazado_107374" data-name="Trazado 107374" d="M162.15,159a.66.66,0,0,1,.71,1.11.67.67,0,0,1-.91-.2A.66.66,0,0,1,162.15,159Z" fill="#b0d2f5"/>
            <path id="Trazado_107375" data-name="Trazado 107375" d="M164.39,164.55a.67.67,0,0,1,.66.66.66.66,0,0,1-.66.65.65.65,0,0,1-.65-.65.66.66,0,0,1,.65-.66Z" fill="#b0d2f5"/>
            <path id="Trazado_107376" data-name="Trazado 107376" d="M163.25,171a.654.654,0,1,1-.93.92.64.64,0,0,1,0-.92.65.65,0,0,1,.93,0Z" fill="#b0d2f5"/>
            <path id="Trazado_107377" data-name="Trazado 107377" d="M159.13,175.14a.65.65,0,1,1-.92,0,.64.64,0,0,1,.92,0Z" fill="#b0d2f5"/>
            <path id="Trazado_107378" data-name="Trazado 107378" d="M152.33,177.27a.66.66,0,1,1,.66.66A.66.66,0,0,1,152.33,177.27Z" fill="#b0d2f5"/>
          </g>
          <g id="Grupo_59717" data-name="Grupo 59717">
            <path id="Trazado_107379" data-name="Trazado 107379" d="M148.34,155.39a.66.66,0,1,0-.26.89.66.66,0,0,0,.26-.89Z" fill="#b0d2f5"/>
            <path id="Trazado_107380" data-name="Trazado 107380" d="M143.81,159a.67.67,0,0,0-.91.2.65.65,0,1,0,.91-.2Z" fill="#b0d2f5"/>
            <circle id="Elipse_4234" data-name="Elipse 4234" cx="0.66" cy="0.66" r="0.66" transform="translate(140.91 164.55)" fill="#b0d2f5"/>
            <path id="Trazado_107381" data-name="Trazado 107381" d="M142.71,171a.65.65,0,1,0,.93,0,.66.66,0,0,0-.93,0Z" fill="#b0d2f5"/>
            <path id="Trazado_107382" data-name="Trazado 107382" d="M146.82,175.14a.66.66,0,1,0,.892.038.66.66,0,0,0-.892-.038Z" fill="#b0d2f5"/>
          </g>
        </g>
        <g id="Grupo_59719" data-name="Grupo 59719">
          <circle id="Elipse_4235" data-name="Elipse 4235" cx="0.66" cy="0.66" r="0.66" transform="translate(152.81 164.55)" fill="#b0d2f5"/>
          <rect id="Rectángulo_8655" data-name="Rectángulo 8655" width="0.18" height="8.18" transform="translate(153.38 157.02)" fill="#b0d2f5"/>
          <rect id="Rectángulo_8656" data-name="Rectángulo 8656" width="5.52" height="0.54" transform="matrix(0.787, -0.617, 0.617, 0.787, 153.22, 165.002)" fill="#b0d2f5"/>
        </g>
      </g>
      <g id="Grupo_59723" data-name="Grupo 59723">
        <g id="Grupo_59721" data-name="Grupo 59721">
          <rect id="Rectángulo_8657" data-name="Rectángulo 8657" width="40.46" height="33.36" transform="translate(470.93 251.34) rotate(180)" fill="#d9a171"/>
          <rect id="Rectángulo_8658" data-name="Rectángulo 8658" width="40.46" height="33.36" transform="translate(491.16 251.34) rotate(180)" fill="#e1b48d"/>
          <path id="Trazado_107383" data-name="Trazado 107383" d="M430.5,242.88h6.41l-.57-1.8.57-1.29H430.5Z" fill="#ce5700"/>
          <path id="Trazado_107384" data-name="Trazado 107384" d="M450.7,228.31h6.41l-.56-1.81.56-1.28H450.7Z" fill="#ffae73"/>
          <path id="Trazado_107385" data-name="Trazado 107385" d="M450.7,225.22h-6.41l.57,1.8-.57,1.29h6.41Z" fill="#ce5700"/>
          <path id="Trazado_107386" data-name="Trazado 107386" d="M491.16,243.24h-6.41l.56,1.81-.56,1.29h6.41Z" fill="#ffae73"/>
          <rect id="Rectángulo_8659" data-name="Rectángulo 8659" width="11.64" height="4.53" transform="translate(476.87 220.25)" fill="#fff"/>
        </g>
        <path id="Trazado_107387" data-name="Trazado 107387" d="M472.07,249.92c1-.63,3.21-2,3.31-1.7a1.48,1.48,0,0,1-.33,1.05c1.33-.44,2.67-.71,5.79,0a2.33,2.33,0,0,1,1.51,1.08,1,1,0,0,1-.42,1.61c-1.65.94-1.16.36-3.45,1.72s-5,1.64-6.63.55l-2.18-.45-.13-3.61S470.8,250.09,472.07,249.92Z" fill="#ffbf91"/>
        <path id="Trazado_107388" data-name="Trazado 107388" d="M427.58,214c-6,3.74-12.21-1.34-12.21-1.34a28.149,28.149,0,0,0,.89-14.13c-.06-.33,10.47,4,10.78,4.08h0v.23c.16,1.42.28,2.82.36,4.14C427.67,210.93,427.58,214,427.58,214Z" fill="#ffae73"/>
        <path id="Trazado_107389" data-name="Trazado 107389" d="M427.44,207a15.25,15.25,0,0,1-9.68-4.63c-.37-.45,9,.24,9.28.26h0v.23C427.24,204.29,427.36,205.69,427.44,207Z" fill="#f9924f"/>
        <path id="Trazado_107390" data-name="Trazado 107390" d="M429,202s-10.32,4.56-13.07-1.91-5.92-10.24.56-13.43,8.8-1.26,10.25.67S431.62,200.62,429,202Z" fill="#ffae73"/>
        <path id="Trazado_107391" data-name="Trazado 107391" d="M416.66,201.84c-.13.12-2.32,1.27-8.36-6.67a7.79,7.79,0,0,1-.87-7.07c1.12-2.93,6.44-6.07,11-7.86a9.23,9.23,0,0,1,5.76-.26,3.58,3.58,0,0,1,2.51,4.44c-.86,3-3,4.89-5.73,4.8-1.81-.05-1.7,3.66-1.67,4.55s0,1.64-2.32,1.27c-2-.31-.85,2.28-.19,3.45a3.53,3.53,0,0,1,.47,1.88,2.16,2.16,0,0,1-.6,1.47Z" fill="#84aacc"/>
        <path id="Trazado_107392" data-name="Trazado 107392" d="M400.86,374.21h-6.65c-1.39,0-2.94-1.4-3.33-3.95s-3.26-4-3.88-6.05,2.56-5,2.56-5l.53-.68.56-.71,5.26,1.24s.13,1.25.22,2.85a34.378,34.378,0,0,1,0,3.66c-.16,2.79.78,5.79,3.26,6.33S400.86,374.21,400.86,374.21Z" fill="#2a3967"/>
        <path id="Trazado_107393" data-name="Trazado 107393" d="M447.17,374.21H429.54a2,2,0,0,1-.38-.11c-1.17-.59-.81-5.1-.66-6.49v-.41s6.2-5,7.06-1.16a2.254,2.254,0,0,0,.09.35h0c1.07,3.55,5.88,5.17,8.66,5.62C446.48,372.35,447,373.59,447.17,374.21Z" fill="#2a3967"/>
        <path id="Trazado_107394" data-name="Trazado 107394" d="M443.62,272.53s-.95,11.75-2.05,25.87c-1.51,19.18-3.32,42.74-3.5,47.21-.3,7.75-1.55,20.15-1.55,20.15s-2.94,2.94-8.83,1.7A202.861,202.861,0,0,1,420.94,331c0-.31-.05-.62-.07-.93-1.39-19.06-3.56-59.21-3.56-59.21Z" fill="#e1b48d"/>
        <path id="Trazado_107395" data-name="Trazado 107395" d="M441,270.9c-2.49.15-28.71-.84-28.72-2.31,0-5.09-1.09-13.34-2.42-23.35q-.36-2.81-.57-5.55a83.537,83.537,0,0,1,0-13.51c.66-7.7,2.66-12.65,6-15.54,0,0,3.14.26,6,.69A13.06,13.06,0,0,0,428,211l4,3.45c2.39,2.23,4.31,4.56,5.08,7.78C437.12,222.22,441.22,270.88,441,270.9Z" fill="#84aacc"/>
        <path id="Trazado_107396" data-name="Trazado 107396" d="M413.61,235.67a23.45,23.45,0,0,0,12,13c9.21,4.23,3.71-8.05,3.71-8.05Z" fill="#0e407e"/>
        <path id="Trazado_107397" data-name="Trazado 107397" d="M437.12,222.22,430,223.89l-9.86,26.69a9.09,9.09,0,0,1-8.76,6.2v.64l.49,12.72L443.58,273s.15-15.92-.42-21C442.31,244.46,437.12,222.22,437.12,222.22Z" fill="#e1b48d"/>
        <path id="Trazado_107398" data-name="Trazado 107398" d="M471.47,252c.23-2.09-.84-2.48-.84-2.48s-21.11-4.67-22.9-5.31-16.62-17.32-16.62-17.32-5.66-6.91-10.57-5.62c-4.26,1.12-6,4.34-6.72,7.45-.81,3.71-3.37,4.89-.21,7,7.08,4.73,25.4,16.7,28.78,17.84,7.53,2.53,28.07,1.26,28.07,1.26a6.49,6.49,0,0,0,1.01-2.82Z" fill="#84aacc"/>
        <path id="Trazado_107399" data-name="Trazado 107399" d="M422.54,216.15c-1.67-1.54-7.28-5.51-7.28-5.51a4.261,4.261,0,0,1,.56-.71,4.428,4.428,0,0,1,.71-.56c.71-.15,6.24,4,8.08,5.65,2.22,2,8.37,8.17,8.37,8.17l-3,.7S424.5,218,422.54,216.15Z" fill="#a37955"/>
        <g id="Grupo_59722" data-name="Grupo 59722">
          <path id="Trazado_107400" data-name="Trazado 107400" d="M429.45,186.7a41.4,41.4,0,0,1-5.64,2.7l-7.17,1.81L407,194.75s-3.27-7,.76-12.55h0c.1-.14.21-.28.32-.41a13.16,13.16,0,0,1,4.94-3.64C424.39,173,429.32,186.27,429.45,186.7Z" fill="#e1b48d"/>
          <path id="Trazado_107401" data-name="Trazado 107401" d="M423.91,189.17l-1.84.59c-1.81-1.68-8.46-7.44-14.37-7.41a1.066,1.066,0,0,1,.07-.15h0c.08-.14.15-.21.26-.42h.06C415.74,182.22,422.36,187.66,423.91,189.17Z" fill="#a66d58"/>
          <path id="Trazado_107402" data-name="Trazado 107402" d="M416.64,191.21a8.291,8.291,0,0,0-1.11,3.13c-.08,1.45-6.39,3.44-7,2.8a19.784,19.784,0,0,1-1.56-2.39Z" fill="#e1b48d"/>
          <path id="Trazado_107403" data-name="Trazado 107403" d="M416.64,191.21s11.94-1.92,16.86-5.76a.52.52,0,0,0-.28-.92,22.742,22.742,0,0,0-4.6.3S425,189.13,416.64,191.21Z" fill="#a66d58"/>
        </g>
        <path id="Trazado_107404" data-name="Trazado 107404" d="M440.11,271.74s.61,7.33-2.78,21.09C434.84,302.92,420.94,331,420.94,331c0-.31-.05-.62-.07-.93-1.39-19.06-3.56-59.21-3.56-59.21Z" fill="#a37955"/>
        <path id="Trazado_107405" data-name="Trazado 107405" d="M440.11,271.74s-17.77,44.73-28.93,64.72S396.54,362,396.54,362s-6.4-2.56-7-4.3c0,0,4.27-38.6,11.74-48,4.22-5.32,9.19-21.28,9.42-26.86s.85-18.94.85-18.94Z" fill="#e1b48d"/>
      </g>
      <g id="Grupo_59724" data-name="Grupo 59724">
        <rect id="Rectángulo_8660" data-name="Rectángulo 8660" width="54.6" height="45.02" transform="translate(556.21 295.21) rotate(180)" fill="#85aeff"/>
        <rect id="Rectángulo_8661" data-name="Rectángulo 8661" width="54.6" height="45.02" transform="translate(583.51 295.21) rotate(180)" fill="#6595bf"/>
        <path id="Trazado_107406" data-name="Trazado 107406" d="M501.63,283.8h8.66l-.77-2.43.77-1.74h-8.66Z" fill="#84aacc"/>
        <path id="Trazado_107407" data-name="Trazado 107407" d="M528.9,264.13h8.65l-.76-2.44.76-1.74H528.9Z" fill="#568cc5"/>
        <path id="Trazado_107408" data-name="Trazado 107408" d="M528.9,259.95h-8.65l.76,2.44-.76,1.74h8.65Z" fill="#84aacc"/>
        <path id="Trazado_107409" data-name="Trazado 107409" d="M583.5,284.28h-8.65l.76,2.44-.76,1.74h8.65Z" fill="#568cc5"/>
        <rect id="Rectángulo_8662" data-name="Rectángulo 8662" width="15.71" height="6.11" transform="translate(564.22 253.25)" fill="#fff"/>
      </g>
      <g id="P297LW">
        <path id="Trazado_107410" data-name="Trazado 107410" d="M679.67,221.32s-2.59,14.72-5.42,30.1c-3.07,16.71-6.44,34.21-7.07,34.43-1.22.42-1.12-2.24-2-4.27-.67-1.63-2.72-15.61-2-24.33.16-2.13.71-28.36,4.34-31.46S679.67,221.32,679.67,221.32Z" fill="#ffae73"/>
        <path id="Trazado_107411" data-name="Trazado 107411" d="M664.43,277.67a8.611,8.611,0,0,1-.29,4.77c-.91,2.36-1.11,3,.58,4.36s3.53,3.18,4.8,2.63.48-11.35.48-11.35Z" fill="#ffae73"/>
        <path id="Trazado_107412" data-name="Trazado 107412" d="M667.94,374.21c1.57-1,.68-8.11.68-8.11s-7.32-5.86-8.32-1.38-7,6.5-10.34,7c-2.34.38-3.06,1.67-3.29,2.44Z" fill="#84aacc"/>
        <path id="Trazado_107413" data-name="Trazado 107413" d="M700.44,374.21c1.57-1,.68-8.11.68-8.11s-7.32-5.86-8.32-1.38-7,6.5-10.34,7c-2.34.38-3.06,1.67-3.29,2.44Z" fill="#84aacc"/>
        <path id="Trazado_107414" data-name="Trazado 107414" d="M690.27,291.19c-2.6,11-5.88,23.58-7.16,30.66-.15.83-.28,1.57-.37,2.23s-.15,1.25-.17,1.73c-.68,13.27-11.17,43.62-13.05,44.32-2.9,1.1-7.48-1.23-9.87-2a2.06,2.06,0,0,1-1.44-2.33c5.2-23.89,8.4-58.07,9.09-78.43.35-10.26.82-17.55.82-17.55s25.59-6.83,25.74,1.8C693.92,275,692.3,282.61,690.27,291.19Z" fill="#d9a171"/>
        <path id="Trazado_107415" data-name="Trazado 107415" d="M690.27,291.19c-2.6,11-5.88,23.58-7.16,30.66-.15.83-.94,7.79-1,8.45l-4.48-50.9,6.37.6Z" fill="#a66d58"/>
        <path id="Trazado_107416" data-name="Trazado 107416" d="M680.2,274.6l9,94.32s6.68,2.17,12.72.5c0,0,3.51-51.57,3.18-64.18s2.84-33.73-.72-36.06S680.2,274.6,680.2,274.6Z" fill="#d9a171"/>
        <path id="Trazado_107417" data-name="Trazado 107417" d="M704.23,249.38c.1,1.07.51,21.18.53,21.94s-2.24,2.49-10.27,3.68a74.416,74.416,0,0,1-10.18.76c-10,.11-13.84-4.09-13.84-4.09-.68,0,.76-4.89,1-36.67a1.51,1.51,0,0,1-.52,0,27.292,27.292,0,0,1-6.85-4.26s4-11.18,7.82-16.87c.93-1.38,3.43-2.47,6.75-3.19.88-.18,1.81-.34,2.78-.48a56.172,56.172,0,0,1,15.09.1q1.34.18,2.61.45a24.84,24.84,0,0,1,9.54,3.73c3.54,2.57,6.17,15.72,6.17,15.72s-3.34,3.8-10.86,5.59a69.552,69.552,0,0,0,.23,13.59Z" fill="#84aacc"/>
        <path id="Trazado_107418" data-name="Trazado 107418" d="M668.12,269.82l3.06-38.07a4.09,4.09,0,0,1,4.25-3.76l20.83.82a3.32,3.32,0,0,1,3.18,3.14c.26,5,1.21,14.72,4.79,17.43l1.89,27.56L682.84,298s-2.64-15.44-6.27-19.73C674.53,275.88,668.12,269.82,668.12,269.82Z" fill="#d9a171"/>
        <path id="Trazado_107419" data-name="Trazado 107419" d="M699.14,210.72l-2.51,19.45-2.62-.41,2.52-19.49Q697.87,210.45,699.14,210.72Z" fill="#d9a171"/>
        <path id="Trazado_107420" data-name="Trazado 107420" d="M681.44,210.17l-3.22,17.46-.27,1.46-.29-.06-2.3-.52,3.3-17.86C679.54,210.47,680.47,210.31,681.44,210.17Z" fill="#d9a171"/>
        <path id="Trazado_107421" data-name="Trazado 107421" d="M714.85,250.92s-1.56,4.75-21.66,11.32c0,0-.23-5.36,1-6.08,3.78-2.22,12.78-8.84,13.09-10,.2-.78-1.85-6.62-4.44-12.5,4.77-.53,7.84-.95,11.35-2.84C715.48,240.06,717.28,246.53,714.85,250.92Z" fill="#ffae73"/>
        <path id="Trazado_107422" data-name="Trazado 107422" d="M690.9,256.42a8.45,8.45,0,0,0-3-1.48c-1.29-.19-3.46-1-3.11-.24s2.73,2,2.73,2Z" fill="#ffae73"/>
        <g id="Grupo_59725" data-name="Grupo 59725">
          <path id="Trazado_107423" data-name="Trazado 107423" d="M687.69,264.89l-6.55.79a1.49,1.49,0,0,1-1.62-1.05L675,249.77a1.5,1.5,0,0,1,1.25-1.92l6.55-.8a1.5,1.5,0,0,1,1.62,1.06L688.94,263a1.51,1.51,0,0,1-1.25,1.89Z" fill="#1e3865"/>
          <path id="Trazado_107424" data-name="Trazado 107424" d="M685.37,265.17l-6.55.8a1.5,1.5,0,0,1-1.62-1.06l-4.48-14.86a1.5,1.5,0,0,1,1.25-1.92l6.55-.8a1.51,1.51,0,0,1,1.62,1.06l4.48,14.86a1.5,1.5,0,0,1-1.25,1.92Z" fill="#132e52"/>
          <path id="Trazado_107425" data-name="Trazado 107425" d="M680.74,250.19h0a.45.45,0,0,1-.46-.29l-4.39-13a.28.28,0,0,1,.23-.38h0a.45.45,0,0,1,.46.3l4.39,13a.27.27,0,0,1-.23.37Z" fill="#132e52"/>
        </g>
        <path id="Trazado_107426" data-name="Trazado 107426" d="M694.18,256.16a3.21,3.21,0,0,1-2,.5,5.47,5.47,0,0,1-2.08-.78c-.83-.57-2.68.18-3.23.54-1.52,1-6.68,1-6.68,2s2.24,3.88,5,4.73,8-.91,8-.91Z" fill="#ffae73"/>
        <path id="Trazado_107427" data-name="Trazado 107427" d="M694.25,209.8c.11,3-2.57,4.5-6.59,3.92s-4.1-3.69-4.1-3.69l.1-3,.11-3.57.11-3.19,9.72,1.32a11.744,11.744,0,0,0,0,1.54h0C693.71,205,694,208.11,694.25,209.8Z" fill="#ffae73"/>
        <path id="Trazado_107428" data-name="Trazado 107428" d="M693.62,203.11h0c-.09.13-2.32,3.16-10,3.89l.11-3.57,9.85-.33Z" fill="#f9924f"/>
        <path id="Trazado_107429" data-name="Trazado 107429" d="M681.9,205.13s12,2.42,13.36-5.06,3.87-12.2-3.71-14.06-9.6.72-10.67,3.1S678.82,204.31,681.9,205.13Z" fill="#ffae73"/>
        <path id="Trazado_107430" data-name="Trazado 107430" d="M694.71,201.73s4.16.94,4.56-6.64c.15-2.91.87-13.15-7.46-12.8a17,17,0,0,0-12.89,6.07c-5.69,6.42,8.15,1.65,10,3.14s.08,3.94,2.19,4.82,3.77.88,3.42,2.81S694.71,201.73,694.71,201.73Z" fill="#1e3865"/>
        <path id="Trazado_107431" data-name="Trazado 107431" d="M677.81,188.51a41.756,41.756,0,0,0,6,1.67l7.38.51,10.11,1.78s2-7.5-3-12.21h0l-.38-.35a13.16,13.16,0,0,0-5.51-2.7C680.37,174.16,677.86,188.08,677.81,188.51Z" fill="#e1b48d"/>
        <path id="Trazado_107432" data-name="Trazado 107432" d="M683.69,190l1.91.25c1.5-2,7-8.82,12.84-9.83a.478.478,0,0,0-.09-.13h0c-.1-.12-.18-.18-.32-.36H698C690.51,181.69,685,188.21,683.69,190Z" fill="#a66d58"/>
        <path id="Trazado_107433" data-name="Trazado 107433" d="M691.21,190.69a8.29,8.29,0,0,1,1.64,2.88c.34,1.42,6.9,2.26,7.36,1.53a20.372,20.372,0,0,0,1.11-2.63Z" fill="#e1b48d"/>
        <path id="Trazado_107434" data-name="Trazado 107434" d="M691.21,190.69s-12.09.22-17.61-2.69a.52.52,0,0,1,.11-1,23.329,23.329,0,0,1,4.58-.51S682.61,190.12,691.21,190.69Z" fill="#a66d58"/>
      </g>
      <rect id="Rectángulo_8663" data-name="Rectángulo 8663" width="129.19" height="93.97" transform="translate(68.25 282.63)" fill="#6595bf"/>
      <g id="Grupo_59745" data-name="Grupo 59745">
        <path id="Trazado_107435" data-name="Trazado 107435" d="M213.81,176.18H196.19V374.21h29.87V276.54l-12.25-50.18Z" fill="#6595bf"/>
        <g id="Grupo_59744" data-name="Grupo 59744">
          <rect id="Rectángulo_8664" data-name="Rectángulo 8664" width="97.66" height="50.18" transform="translate(213.81 176.18)" fill="#cedfff"/>
          <rect id="Rectángulo_8665" data-name="Rectángulo 8665" width="97.66" height="97.67" transform="translate(226.06 276.54)" fill="#cedfff"/>
          <path id="Trazado_107436" data-name="Trazado 107436" d="M323.72,276.54H226.06l-12.25-50.18h97.66Z" fill="#bcd3f9"/>
          <g id="Grupo_59732" data-name="Grupo 59732">
            <g id="Grupo_59728" data-name="Grupo 59728">
              <g id="Grupo_59726" data-name="Grupo 59726">
                <path id="Trazado_107437" data-name="Trazado 107437" d="M227.68,236.33h-2.56l-.97-3.64h2.55Z" fill="#6595bf"/>
                <path id="Trazado_107438" data-name="Trazado 107438" d="M233.48,236.33h-2.55l-.98-3.64h2.56Z" fill="#6595bf"/>
                <path id="Trazado_107439" data-name="Trazado 107439" d="M239.29,236.33h-2.55l-.98-3.64h2.56Z" fill="#6595bf"/>
                <path id="Trazado_107440" data-name="Trazado 107440" d="M245.1,236.33h-2.55l-.98-3.64h2.56Z" fill="#6595bf"/>
                <path id="Trazado_107441" data-name="Trazado 107441" d="M250.91,236.33h-2.55l-.98-3.64h2.55Z" fill="#6595bf"/>
                <path id="Trazado_107442" data-name="Trazado 107442" d="M256.72,236.33h-2.56l-.97-3.64h2.55Z" fill="#6595bf"/>
              </g>
              <g id="Grupo_59727" data-name="Grupo 59727">
                <path id="Trazado_107443" data-name="Trazado 107443" d="M229.5,243.11h-2.56l-.97-3.63h2.55Z" fill="#6595bf"/>
                <path id="Trazado_107444" data-name="Trazado 107444" d="M235.31,243.11h-2.56l-.97-3.63h2.55Z" fill="#6595bf"/>
                <path id="Trazado_107445" data-name="Trazado 107445" d="M241.12,243.11h-2.56l-.97-3.63h2.55Z" fill="#6595bf"/>
                <path id="Trazado_107446" data-name="Trazado 107446" d="M246.92,243.11h-2.55l-.98-3.63h2.56Z" fill="#6595bf"/>
                <path id="Trazado_107447" data-name="Trazado 107447" d="M252.73,243.11h-2.55l-.98-3.63h2.56Z" fill="#6595bf"/>
                <path id="Trazado_107448" data-name="Trazado 107448" d="M258.54,243.11h-2.55l-.98-3.63h2.55Z" fill="#6595bf"/>
              </g>
            </g>
            <g id="Grupo_59731" data-name="Grupo 59731">
              <g id="Grupo_59729" data-name="Grupo 59729">
                <path id="Trazado_107449" data-name="Trazado 107449" d="M231.39,250.14h-2.56l-.97-3.63h2.55Z" fill="#6595bf"/>
                <path id="Trazado_107450" data-name="Trazado 107450" d="M237.19,250.14h-2.55l-.98-3.63h2.56Z" fill="#6595bf"/>
                <path id="Trazado_107451" data-name="Trazado 107451" d="M243,250.14h-2.55l-.98-3.63h2.56Z" fill="#6595bf"/>
                <path id="Trazado_107452" data-name="Trazado 107452" d="M248.81,250.14h-2.55l-.98-3.63h2.56Z" fill="#6595bf"/>
                <path id="Trazado_107453" data-name="Trazado 107453" d="M254.62,250.14h-2.55l-.98-3.63h2.55Z" fill="#6595bf"/>
                <path id="Trazado_107454" data-name="Trazado 107454" d="M260.43,250.14h-2.55l-.98-3.63h2.55Z" fill="#6595bf"/>
              </g>
              <g id="Grupo_59730" data-name="Grupo 59730">
                <path id="Trazado_107455" data-name="Trazado 107455" d="M233.21,256.93h-2.55l-.98-3.64h2.55Z" fill="#6595bf"/>
                <path id="Trazado_107456" data-name="Trazado 107456" d="M239.02,256.93h-2.55l-.98-3.64h2.55Z" fill="#6595bf"/>
                <path id="Trazado_107457" data-name="Trazado 107457" d="M244.83,256.93h-2.56l-.97-3.64h2.55Z" fill="#6595bf"/>
                <path id="Trazado_107458" data-name="Trazado 107458" d="M250.63,256.93h-2.55l-.97-3.64h2.55Z" fill="#6595bf"/>
                <path id="Trazado_107459" data-name="Trazado 107459" d="M256.44,256.93h-2.55l-.98-3.64h2.56Z" fill="#6595bf"/>
                <path id="Trazado_107460" data-name="Trazado 107460" d="M262.25,256.93H259.7l-.98-3.64h2.56Z" fill="#6595bf"/>
              </g>
            </g>
          </g>
          <g id="Grupo_59739" data-name="Grupo 59739">
            <g id="Grupo_59735" data-name="Grupo 59735">
              <g id="Grupo_59733" data-name="Grupo 59733">
                <path id="Trazado_107461" data-name="Trazado 107461" d="M268.1,236.33h-2.55l-.98-3.64h2.55Z" fill="#6595bf"/>
                <path id="Trazado_107462" data-name="Trazado 107462" d="M273.91,236.33h-2.55l-.98-3.64h2.55Z" fill="#6595bf"/>
                <path id="Trazado_107463" data-name="Trazado 107463" d="M279.72,236.33h-2.56l-.97-3.64h2.55Z" fill="#6595bf"/>
                <path id="Trazado_107464" data-name="Trazado 107464" d="M285.53,236.33h-2.56l-.97-3.64h2.55Z" fill="#6595bf"/>
                <path id="Trazado_107465" data-name="Trazado 107465" d="M291.33,236.33h-2.55l-.97-3.64h2.55Z" fill="#6595bf"/>
                <path id="Trazado_107466" data-name="Trazado 107466" d="M297.14,236.33h-2.55l-.98-3.64h2.56Z" fill="#6595bf"/>
              </g>
              <g id="Grupo_59734" data-name="Grupo 59734">
                <path id="Trazado_107467" data-name="Trazado 107467" d="M269.92,243.11h-2.55l-.98-3.63h2.56Z" fill="#6595bf"/>
                <path id="Trazado_107468" data-name="Trazado 107468" d="M275.73,243.11h-2.55l-.98-3.63h2.55Z" fill="#6595bf"/>
                <path id="Trazado_107469" data-name="Trazado 107469" d="M281.54,243.11h-2.55l-.98-3.63h2.55Z" fill="#6595bf"/>
                <path id="Trazado_107470" data-name="Trazado 107470" d="M287.35,243.11H284.8l-.98-3.63h2.55Z" fill="#6595bf"/>
                <path id="Trazado_107471" data-name="Trazado 107471" d="M293.16,243.11h-2.55l-.98-3.63h2.55Z" fill="#6595bf"/>
                <path id="Trazado_107472" data-name="Trazado 107472" d="M298.97,243.11h-2.56l-.97-3.63h2.55Z" fill="#6595bf"/>
              </g>
            </g>
            <g id="Grupo_59738" data-name="Grupo 59738">
              <g id="Grupo_59736" data-name="Grupo 59736">
                <path id="Trazado_107473" data-name="Trazado 107473" d="M271.81,250.14h-2.55l-.98-3.63h2.55Z" fill="#6595bf"/>
                <path id="Trazado_107474" data-name="Trazado 107474" d="M277.62,250.14h-2.55l-.98-3.63h2.55Z" fill="#6595bf"/>
                <path id="Trazado_107475" data-name="Trazado 107475" d="M283.43,250.14h-2.55l-.98-3.63h2.55Z" fill="#6595bf"/>
                <path id="Trazado_107476" data-name="Trazado 107476" d="M289.24,250.14h-2.56l-.97-3.63h2.55Z" fill="#6595bf"/>
                <path id="Trazado_107477" data-name="Trazado 107477" d="M295.05,250.14h-2.56l-.97-3.63h2.55Z" fill="#6595bf"/>
                <path id="Trazado_107478" data-name="Trazado 107478" d="M300.86,250.14H298.3l-.98-3.63h2.56Z" fill="#6595bf"/>
              </g>
              <g id="Grupo_59737" data-name="Grupo 59737">
                <path id="Trazado_107479" data-name="Trazado 107479" d="M273.63,256.93h-2.55l-.97-3.64h2.55Z" fill="#6595bf"/>
                <path id="Trazado_107480" data-name="Trazado 107480" d="M279.44,256.93h-2.55l-.98-3.64h2.56Z" fill="#6595bf"/>
                <path id="Trazado_107481" data-name="Trazado 107481" d="M285.25,256.93H282.7l-.98-3.64h2.55Z" fill="#6595bf"/>
                <path id="Trazado_107482" data-name="Trazado 107482" d="M291.06,256.93h-2.55l-.98-3.64h2.55Z" fill="#6595bf"/>
                <path id="Trazado_107483" data-name="Trazado 107483" d="M296.87,256.93h-2.55l-.98-3.64h2.55Z" fill="#6595bf"/>
                <path id="Trazado_107484" data-name="Trazado 107484" d="M302.68,256.93h-2.55l-.98-3.64h2.55Z" fill="#6595bf"/>
              </g>
            </g>
          </g>
          <rect id="Rectángulo_8666" data-name="Rectángulo 8666" width="36.26" height="29.21" transform="translate(221.3 192.2)" fill="#344154"/>
          <rect id="Rectángulo_8667" data-name="Rectángulo 8667" width="2.59" height="29.21" transform="translate(255.01 192.2)" fill="#5c9cf4"/>
          <path id="Trazado_107485" data-name="Trazado 107485" d="M320.27,364.23H232.92V328.32h87.35Zm-86.78-.57h86.2V328.89h-86.2Z" fill="#6595bf"/>
          <path id="Trazado_107486" data-name="Trazado 107486" d="M279.83,184.57c0,1.09-.62,2-1.38,2s-1.39-.88-1.39-2,.62-2,1.39-2S279.83,183.48,279.83,184.57Z" fill="#fff"/>
          <path id="Trazado_107487" data-name="Trazado 107487" d="M286.3,184.57c0,1.09-.62,2-1.38,2s-1.38-.88-1.38-2,.61-2,1.38-2S286.3,183.48,286.3,184.57Z" fill="#e1b48d"/>
          <path id="Trazado_107488" data-name="Trazado 107488" d="M292.78,184.57c0,1.09-.62,2-1.39,2s-1.38-.88-1.38-2,.62-2,1.38-2S292.78,183.48,292.78,184.57Z" fill="#5c9cf4"/>
          <path id="Trazado_107489" data-name="Trazado 107489" d="M299.25,184.57c0,1.09-.62,2-1.38,2s-1.39-.88-1.39-2,.62-2,1.39-2S299.25,183.48,299.25,184.57Z" fill="#fff"/>
          <path id="Trazado_107490" data-name="Trazado 107490" d="M305.72,184.57c0,1.09-.62,2-1.38,2s-1.38-.88-1.38-2,.62-2,1.38-2S305.72,183.48,305.72,184.57Z" fill="#e1b48d"/>
          <path id="Trazado_107491" data-name="Trazado 107491" d="M306,216.07H277.33V191.92H306Zm-28.1-.57h27.53v-23H277.91Z" fill="#6595bf"/>
          <rect id="Rectángulo_8668" data-name="Rectángulo 8668" width="4.43" height="0.82" transform="translate(231.24 195.33)" fill="#e6f2ff"/>
          <g id="Grupo_59740" data-name="Grupo 59740">
            <rect id="Rectángulo_8669" data-name="Rectángulo 8669" width="6.98" height="0.82" transform="translate(222.65 195.33)" fill="#e6f2ff"/>
            <rect id="Rectángulo_8670" data-name="Rectángulo 8670" width="10.55" height="0.82" transform="translate(222.65 197.51)" fill="#e6f2ff"/>
            <rect id="Rectángulo_8671" data-name="Rectángulo 8671" width="7" height="0.82" transform="translate(234.62 197.51)" fill="#e6f2ff"/>
            <rect id="Rectángulo_8672" data-name="Rectángulo 8672" width="7.64" height="0.82" transform="translate(236.62 195.33)" fill="#e6f2ff"/>
          </g>
          <g id="Grupo_59741" data-name="Grupo 59741">
            <rect id="Rectángulo_8673" data-name="Rectángulo 8673" width="6.98" height="0.82" transform="translate(222.65 201.27)" fill="#e6f2ff"/>
            <rect id="Rectángulo_8674" data-name="Rectángulo 8674" width="10.55" height="0.82" transform="translate(222.65 203.45)" fill="#e6f2ff"/>
            <rect id="Rectángulo_8675" data-name="Rectángulo 8675" width="7" height="0.82" transform="translate(234.62 203.45)" fill="#e6f2ff"/>
            <rect id="Rectángulo_8676" data-name="Rectángulo 8676" width="4.43" height="0.82" transform="translate(231.24 201.27)" fill="#e6f2ff"/>
            <rect id="Rectángulo_8677" data-name="Rectángulo 8677" width="7.64" height="0.82" transform="translate(236.62 201.27)" fill="#e6f2ff"/>
          </g>
          <g id="Grupo_59742" data-name="Grupo 59742">
            <rect id="Rectángulo_8678" data-name="Rectángulo 8678" width="6.98" height="0.82" transform="translate(222.65 207.81)" fill="#e6f2ff"/>
            <rect id="Rectángulo_8679" data-name="Rectángulo 8679" width="10.55" height="0.82" transform="translate(222.65 210)" fill="#e6f2ff"/>
            <rect id="Rectángulo_8680" data-name="Rectángulo 8680" width="7" height="0.82" transform="translate(234.62 210)" fill="#e6f2ff"/>
            <rect id="Rectángulo_8681" data-name="Rectángulo 8681" width="4.43" height="0.82" transform="translate(231.24 207.81)" fill="#e6f2ff"/>
            <rect id="Rectángulo_8682" data-name="Rectángulo 8682" width="7.64" height="0.82" transform="translate(236.62 207.81)" fill="#e6f2ff"/>
          </g>
          <g id="Grupo_59743" data-name="Grupo 59743">
            <rect id="Rectángulo_8683" data-name="Rectángulo 8683" width="6.98" height="0.82" transform="translate(222.65 214.12)" fill="#e6f2ff"/>
            <rect id="Rectángulo_8684" data-name="Rectángulo 8684" width="10.55" height="0.82" transform="translate(222.65 216.3)" fill="#e6f2ff"/>
            <rect id="Rectángulo_8685" data-name="Rectángulo 8685" width="7" height="0.82" transform="translate(234.62 216.3)" fill="#e6f2ff"/>
            <rect id="Rectángulo_8686" data-name="Rectángulo 8686" width="4.43" height="0.82" transform="translate(231.24 214.12)" fill="#e6f2ff"/>
            <rect id="Rectángulo_8687" data-name="Rectángulo 8687" width="7.64" height="0.82" transform="translate(236.62 214.12)" fill="#e6f2ff"/>
          </g>
        </g>
      </g>
      <rect id="Rectángulo_8688" data-name="Rectángulo 8688" width="161.23" height="5.74" transform="translate(64.84 282.63)" fill="#cedfff"/>
      <g id="Grupo_59780" data-name="Grupo 59780">
        <g id="Grupo_59776" data-name="Grupo 59776">
          <g id="Grupo_59746" data-name="Grupo 59746">
            <path id="Trazado_107492" data-name="Trazado 107492" d="M101.87,243.21,98.77,280s-.32,2.23,1.34,2.23h13.58s-2.06-.46-2-1.51c0-1.23,3.62-37.87,3.62-37.87Z" fill="#6d5139"/>
            <path id="Trazado_107493" data-name="Trazado 107493" d="M114.57,281.59H101.01c-1.16,0-1.36-1-1.37-1.69a3,3,0,0,1,0-.55l.08-1L100,276l.18-2.16.23-2.77.2-2.33,2.2-26.15,13.41-.35s-1.51,15.33-2.58,26.5c-.12,1.24-.24,2.43-.34,3.55a9.662,9.662,0,0,1-.1,1l-.27,2.88c0,.45-.08.87-.11,1.26-.14,1.5-.22,2.46-.22,2.65a1.36,1.36,0,0,0,0,.29C112.81,281.55,114.37,281.59,114.57,281.59Z" fill="#e1b48d"/>
            <path id="Trazado_107494" data-name="Trazado 107494" d="M69.3,223.19l7.54,30.28,1.03,4.15,3.51,14.11h65.24l-12.94-48.54Z" fill="#d9a171"/>
            <path id="Trazado_107495" data-name="Trazado 107495" d="M69.3,223.19l-1.05.34,11.74,49.25,1.39-1.05Z" fill="#e1b48d"/>
            <path id="Trazado_107496" data-name="Trazado 107496" d="M79.99,272.78h64.84l1.79-1.05H81.38Z" fill="#a37955"/>
            <rect id="Rectángulo_8689" data-name="Rectángulo 8689" width="14.04" height="0.67" transform="translate(116.8 282.27) rotate(180)" fill="#fc9f38"/>
            <path id="Trazado_107497" data-name="Trazado 107497" d="M143.46,262.78l-10.58-38.95H69.19v-.64h64.49l10.55,39.5Z" fill="#fc9f38"/>
            <path id="Trazado_107498" data-name="Trazado 107498" d="M113.23,272.78l-.07.51-13.2,2.67.18-2.16.08-1.02Z" fill="#6d5139"/>
            <path id="Trazado_107499" data-name="Trazado 107499" d="M114.57,281.59H101.01c-1.16,0-1.36-1-1.37-1.69l13.14-2.47c-.14,1.5-.22,2.46-.22,2.65a1.36,1.36,0,0,0,0,.29C112.81,281.55,114.37,281.59,114.57,281.59Z" fill="#e65f00" opacity="0.4"/>
            <path id="Trazado_107500" data-name="Trazado 107500" d="M110.04,261.9l-28.66,9.83-3.51-14.11Z" fill="#e8c7aa" opacity="0.4"/>
            <path id="Trazado_107501" data-name="Trazado 107501" d="M69.3,223.19h64.38l10.45,39.01H78.68Z" fill="#6595bf"/>
          </g>
          <path id="Trazado_107502" data-name="Trazado 107502" d="M141.09,260.51H80.81l-6.83-27.2-.52-2.08-.45-1.78-1.04-4.17h59.41l1.15,4.17.49,1.78.57,2.08Z" fill="#83a7f2"/>
          <g id="Grupo_59747" data-name="Grupo 59747">
            <path id="Trazado_107503" data-name="Trazado 107503" d="M125.58,227.18l-2.71.04-.06-.24,2.71-.04Z" fill="#fddbba"/>
            <path id="Trazado_107504" data-name="Trazado 107504" d="M124.98,227.83l-1.95.02-.06-.23,1.95-.03Z" fill="#fddbba"/>
            <path id="Trazado_107505" data-name="Trazado 107505" d="M127.22,227.79l-1.95.03-.06-.23,1.95-.03Z" fill="#fddbba"/>
            <path id="Trazado_107506" data-name="Trazado 107506" d="M128.84,227.77l-1.21.02-.06-.24,1.21-.01Z" fill="#fddbba"/>
            <path id="Trazado_107507" data-name="Trazado 107507" d="M127.75,227.15l-1.67.02-.06-.23,1.67-.03Z" fill="#fddbba"/>
            <path id="Trazado_107508" data-name="Trazado 107508" d="M130.04,227.12l-1.67.02-.06-.24,1.67-.02Z" fill="#fddbba"/>
          </g>
          <g id="Grupo_59748" data-name="Grupo 59748">
            <path id="Trazado_107509" data-name="Trazado 107509" d="M132.81,258.09l-2.71.04-.06-.24,2.71-.04Z" fill="#fddbba"/>
            <path id="Trazado_107510" data-name="Trazado 107510" d="M132.21,258.74l-1.95.02-.06-.23,1.95-.03Z" fill="#fddbba"/>
            <path id="Trazado_107511" data-name="Trazado 107511" d="M134.45,258.7l-1.95.03-.06-.23,1.95-.03Z" fill="#fddbba"/>
            <path id="Trazado_107512" data-name="Trazado 107512" d="M136.07,258.68l-1.21.02-.06-.24,1.21-.01Z" fill="#fddbba"/>
            <path id="Trazado_107513" data-name="Trazado 107513" d="M134.98,258.06l-1.67.02-.06-.24,1.67-.02Z" fill="#fddbba"/>
            <path id="Trazado_107514" data-name="Trazado 107514" d="M137.27,258.02l-1.68.03-.06-.24,1.68-.02Z" fill="#fddbba"/>
          </g>
          <g id="Grupo_59775" data-name="Grupo 59775">
            <g id="Grupo_59749" data-name="Grupo 59749">
              <path id="Trazado_107515" data-name="Trazado 107515" d="M83.23,228.97l-6.35-.01-.13-.53,6.35.01Z" fill="#fddbba"/>
              <path id="Trazado_107516" data-name="Trazado 107516" d="M81.78,230.42l-4.56-.01-.13-.54,4.57.01Z" fill="#fddbba"/>
              <path id="Trazado_107517" data-name="Trazado 107517" d="M87.03,230.43l-4.56-.01-.13-.54,4.57.02Z" fill="#fddbba"/>
              <path id="Trazado_107518" data-name="Trazado 107518" d="M90.83,230.44,88,230.43l-.13-.53H90.7Z" fill="#fddbba"/>
              <path id="Trazado_107519" data-name="Trazado 107519" d="M88.33,228.99l-3.92-.01-.13-.54,3.92.01Z" fill="#fddbba"/>
              <path id="Trazado_107520" data-name="Trazado 107520" d="M93.68,229l-3.92-.01-.12-.53,3.92.01Z" fill="#fddbba"/>
            </g>
            <g id="Grupo_59752" data-name="Grupo 59752">
              <g id="Grupo_59750" data-name="Grupo 59750">
                <path id="Trazado_107521" data-name="Trazado 107521" d="M83.35,233.67l-5.37-.01-.12-.53,5.36.01Z" fill="#fddbba"/>
                <path id="Trazado_107522" data-name="Trazado 107522" d="M87.32,233.68l-3-.01-.12-.53,3,.01Z" fill="#fddbba"/>
                <path id="Trazado_107523" data-name="Trazado 107523" d="M93.28,233.7l-4.6-.01-.12-.54,4.59.01Z" fill="#fddbba"/>
              </g>
              <g id="Grupo_59751" data-name="Grupo 59751">
                <path id="Trazado_107524" data-name="Trazado 107524" d="M84.67,235.08l-6.36-.02-.12-.53,6.35.01Z" fill="#fddbba"/>
                <path id="Trazado_107525" data-name="Trazado 107525" d="M83.22,236.52l-4.57-.01-.12-.54,4.56.02Z" fill="#fddbba"/>
                <path id="Trazado_107526" data-name="Trazado 107526" d="M88.47,236.53l-4.57-.01-.12-.53,4.56.01Z" fill="#fddbba"/>
                <path id="Trazado_107527" data-name="Trazado 107527" d="M92.27,236.54l-2.83-.01-.13-.53,2.83.01Z" fill="#fddbba"/>
                <path id="Trazado_107528" data-name="Trazado 107528" d="M89.77,235.09l-3.93-.01-.12-.53,3.92.01Z" fill="#fddbba"/>
                <path id="Trazado_107529" data-name="Trazado 107529" d="M95.12,235.1l-3.92-.01-.13-.53,3.92.01Z" fill="#fddbba"/>
              </g>
            </g>
            <g id="Grupo_59755" data-name="Grupo 59755">
              <g id="Grupo_59753" data-name="Grupo 59753">
                <path id="Trazado_107530" data-name="Trazado 107530" d="M84.92,240.35l-5.36-.01-.13-.53,5.37.01Z" fill="#0b3563"/>
                <path id="Trazado_107531" data-name="Trazado 107531" d="M88.89,240.36l-2.99-.01-.13-.53,3,.01Z" fill="#0b3563"/>
                <path id="Trazado_107532" data-name="Trazado 107532" d="M94.85,240.38l-4.6-.01-.12-.54,4.59.01Z" fill="#0b3563"/>
              </g>
              <g id="Grupo_59754" data-name="Grupo 59754">
                <path id="Trazado_107533" data-name="Trazado 107533" d="M86.24,241.76l-6.35-.02-.13-.53,6.35.01Z" fill="#0b3563"/>
                <path id="Trazado_107534" data-name="Trazado 107534" d="M84.79,243.2l-4.57-.01-.12-.53,4.57.01Z" fill="#0b3563"/>
                <path id="Trazado_107535" data-name="Trazado 107535" d="M90.04,243.21l-4.57-.01-.12-.53,4.57.01Z" fill="#0b3563"/>
                <path id="Trazado_107536" data-name="Trazado 107536" d="M93.84,243.22H91.01l-.13-.54,2.83.01Z" fill="#0b3563"/>
                <path id="Trazado_107537" data-name="Trazado 107537" d="M91.34,241.77l-3.92-.01-.13-.53,3.92.01Z" fill="#0b3563"/>
                <path id="Trazado_107538" data-name="Trazado 107538" d="M96.69,241.78l-3.92-.01-.12-.53,3.92.01Z" fill="#0b3563"/>
              </g>
            </g>
            <g id="Grupo_59758" data-name="Grupo 59758">
              <g id="Grupo_59756" data-name="Grupo 59756">
                <path id="Trazado_107539" data-name="Trazado 107539" d="M86.43,246.74l-5.37-.01-.13-.53,5.37.01Z" fill="#fddbba"/>
                <path id="Trazado_107540" data-name="Trazado 107540" d="M90.4,246.75h-3l-.12-.54,2.99.01Z" fill="#fddbba"/>
                <path id="Trazado_107541" data-name="Trazado 107541" d="M96.36,246.77l-4.6-.01-.13-.54,4.6.01Z" fill="#fddbba"/>
              </g>
              <g id="Grupo_59757" data-name="Grupo 59757">
                <path id="Trazado_107542" data-name="Trazado 107542" d="M87.74,248.15l-6.35-.02-.13-.53,6.36.02Z" fill="#fddbba"/>
                <path id="Trazado_107543" data-name="Trazado 107543" d="M86.3,249.59l-4.57-.01-.13-.53,4.57.01Z" fill="#fddbba"/>
                <path id="Trazado_107544" data-name="Trazado 107544" d="M91.55,249.6l-4.57-.01-.13-.53,4.57.01Z" fill="#fddbba"/>
                <path id="Trazado_107545" data-name="Trazado 107545" d="M95.34,249.61H92.51l-.12-.54,2.83.01Z" fill="#fddbba"/>
                <path id="Trazado_107546" data-name="Trazado 107546" d="M92.84,248.16l-3.92-.01-.12-.53,3.92.01Z" fill="#fddbba"/>
                <path id="Trazado_107547" data-name="Trazado 107547" d="M98.2,248.17l-3.92-.01-.13-.53,3.92.01Z" fill="#fddbba"/>
              </g>
            </g>
            <g id="Grupo_59761" data-name="Grupo 59761">
              <g id="Grupo_59759" data-name="Grupo 59759">
                <path id="Trazado_107548" data-name="Trazado 107548" d="M87.97,253.31l-5.37-.02-.12-.53,5.37.01Z" fill="#0b3563"/>
                <path id="Trazado_107549" data-name="Trazado 107549" d="M91.94,253.32l-2.99-.01-.13-.53h3Z" fill="#0b3563"/>
                <path id="Trazado_107550" data-name="Trazado 107550" d="M97.9,253.33l-4.6-.01-.12-.53,4.59.01Z" fill="#0b3563"/>
              </g>
              <g id="Grupo_59760" data-name="Grupo 59760">
                <path id="Trazado_107551" data-name="Trazado 107551" d="M89.29,254.71l-6.36-.01-.12-.54,6.35.02Z" fill="#0b3563"/>
                <path id="Trazado_107552" data-name="Trazado 107552" d="M87.84,256.15l-4.56-.01-.13-.53,4.57.01Z" fill="#0b3563"/>
                <path id="Trazado_107553" data-name="Trazado 107553" d="M93.09,256.17l-4.57-.01-.12-.54,4.57.01Z" fill="#0b3563"/>
                <path id="Trazado_107554" data-name="Trazado 107554" d="M96.89,256.18l-2.83-.01-.13-.53h2.83Z" fill="#0b3563"/>
                <path id="Trazado_107555" data-name="Trazado 107555" d="M94.39,254.72H90.47l-.13-.54,3.92.01Z" fill="#0b3563"/>
                <path id="Trazado_107556" data-name="Trazado 107556" d="M99.74,254.74l-3.92-.01-.12-.54,3.92.01Z" fill="#0b3563"/>
              </g>
            </g>
            <g id="Grupo_59762" data-name="Grupo 59762">
              <path id="Trazado_107557" data-name="Trazado 107557" d="M111.1,229.42l-6.35-.02-.13-.53,6.36.02Z" fill="#fc9f38"/>
              <path id="Trazado_107558" data-name="Trazado 107558" d="M109.66,230.86l-4.57-.01-.13-.53,4.57.01Z" fill="#fc9f38"/>
              <path id="Trazado_107559" data-name="Trazado 107559" d="M114.91,230.87l-4.57-.01-.13-.53,4.57.01Z" fill="#fc9f38"/>
              <path id="Trazado_107560" data-name="Trazado 107560" d="M118.7,230.88h-2.83l-.12-.54,2.83.01Z" fill="#fc9f38"/>
              <path id="Trazado_107561" data-name="Trazado 107561" d="M116.2,229.43l-3.92-.01-.12-.53,3.92.01Z" fill="#fc9f38"/>
              <path id="Trazado_107562" data-name="Trazado 107562" d="M121.56,229.44h-3.92l-.13-.54,3.92.01Z" fill="#fc9f38"/>
            </g>
            <g id="Grupo_59765" data-name="Grupo 59765">
              <g id="Grupo_59763" data-name="Grupo 59763">
                <path id="Trazado_107563" data-name="Trazado 107563" d="M111.22,234.12l-5.36-.02-.13-.53,5.37.01Z" fill="#fc9f38"/>
                <path id="Trazado_107564" data-name="Trazado 107564" d="M115.19,234.13l-2.99-.01-.13-.53h3Z" fill="#fc9f38"/>
                <path id="Trazado_107565" data-name="Trazado 107565" d="M121.15,234.14l-4.6-.01-.12-.53,4.6.01Z" fill="#fc9f38"/>
              </g>
              <g id="Grupo_59764" data-name="Grupo 59764">
                <path id="Trazado_107566" data-name="Trazado 107566" d="M112.54,235.52l-6.35-.01-.13-.54,6.35.02Z" fill="#fc9f38"/>
                <path id="Trazado_107567" data-name="Trazado 107567" d="M111.09,236.96l-4.56-.01-.13-.53,4.57.01Z" fill="#fc9f38"/>
                <path id="Trazado_107568" data-name="Trazado 107568" d="M116.34,236.98l-4.57-.01-.12-.54,4.57.01Z" fill="#fc9f38"/>
                <path id="Trazado_107569" data-name="Trazado 107569" d="M120.14,236.99l-2.83-.01-.13-.53h2.83Z" fill="#fc9f38"/>
                <path id="Trazado_107570" data-name="Trazado 107570" d="M117.64,235.53h-3.92l-.13-.54,3.92.01Z" fill="#fc9f38"/>
                <path id="Trazado_107571" data-name="Trazado 107571" d="M122.99,235.55l-3.92-.01-.12-.54,3.92.01Z" fill="#fc9f38"/>
              </g>
            </g>
            <g id="Grupo_59768" data-name="Grupo 59768">
              <g id="Grupo_59766" data-name="Grupo 59766">
                <path id="Trazado_107572" data-name="Trazado 107572" d="M112.79,240.8l-5.36-.02-.13-.53,5.37.01Z" fill="#fddbba"/>
                <path id="Trazado_107573" data-name="Trazado 107573" d="M116.77,240.81l-3-.01-.13-.53h3Z" fill="#fddbba"/>
                <path id="Trazado_107574" data-name="Trazado 107574" d="M122.72,240.82l-4.59-.01-.13-.53,4.6.01Z" fill="#fddbba"/>
              </g>
              <g id="Grupo_59767" data-name="Grupo 59767">
                <path id="Trazado_107575" data-name="Trazado 107575" d="M114.11,242.2l-6.35-.01-.13-.54,6.36.02Z" fill="#fddbba"/>
                <path id="Trazado_107576" data-name="Trazado 107576" d="M112.67,243.65l-4.57-.02-.13-.53,4.57.01Z" fill="#fddbba"/>
                <path id="Trazado_107577" data-name="Trazado 107577" d="M117.92,243.66l-4.57-.01-.13-.54,4.57.02Z" fill="#fddbba"/>
                <path id="Trazado_107578" data-name="Trazado 107578" d="M121.71,243.67l-2.83-.01-.13-.53h2.84Z" fill="#fddbba"/>
                <path id="Trazado_107579" data-name="Trazado 107579" d="M119.21,242.22l-3.92-.01-.12-.54,3.91.01Z" fill="#fddbba"/>
                <path id="Trazado_107580" data-name="Trazado 107580" d="M124.56,242.23l-3.92-.01-.12-.53h3.92Z" fill="#fddbba"/>
              </g>
            </g>
            <g id="Grupo_59771" data-name="Grupo 59771">
              <g id="Grupo_59769" data-name="Grupo 59769">
                <path id="Trazado_107581" data-name="Trazado 107581" d="M114.3,247.19l-5.37-.01-.12-.54,5.36.02Z" fill="#fddbba"/>
                <path id="Trazado_107582" data-name="Trazado 107582" d="M118.27,247.2l-3-.01-.12-.53,3,.01Z" fill="#fddbba"/>
                <path id="Trazado_107583" data-name="Trazado 107583" d="M124.23,247.21l-4.6-.01-.12-.53,4.59.01Z" fill="#fddbba"/>
              </g>
              <g id="Grupo_59770" data-name="Grupo 59770">
                <path id="Trazado_107584" data-name="Trazado 107584" d="M115.62,248.59l-6.36-.01-.12-.54,6.35.02Z" fill="#fddbba"/>
                <path id="Trazado_107585" data-name="Trazado 107585" d="M114.17,250.04l-4.57-.01-.12-.54,4.57.01Z" fill="#fddbba"/>
                <path id="Trazado_107586" data-name="Trazado 107586" d="M119.42,250.05l-4.57-.01-.13-.54,4.57.02Z" fill="#fddbba"/>
                <path id="Trazado_107587" data-name="Trazado 107587" d="M123.22,250.06l-2.83-.01-.13-.53,2.83.01Z" fill="#fddbba"/>
                <path id="Trazado_107588" data-name="Trazado 107588" d="M120.71,248.61l-3.92-.01-.12-.54,3.92.01Z" fill="#fddbba"/>
                <path id="Trazado_107589" data-name="Trazado 107589" d="M126.07,248.62l-3.92-.01-.13-.53,3.92.01Z" fill="#fddbba"/>
              </g>
            </g>
            <g id="Grupo_59774" data-name="Grupo 59774">
              <g id="Grupo_59772" data-name="Grupo 59772">
                <path id="Trazado_107590" data-name="Trazado 107590" d="M115.84,253.75l-5.36-.01-.13-.53,5.37.01Z" fill="#fddbba"/>
                <path id="Trazado_107591" data-name="Trazado 107591" d="M119.82,253.76h-3l-.13-.54,3,.01Z" fill="#fddbba"/>
                <path id="Trazado_107592" data-name="Trazado 107592" d="M125.77,253.78l-4.59-.01-.13-.54,4.6.01Z" fill="#fddbba"/>
              </g>
              <g id="Grupo_59773" data-name="Grupo 59773">
                <path id="Trazado_107593" data-name="Trazado 107593" d="M117.16,255.16l-6.35-.02-.13-.53,6.35.02Z" fill="#fddbba"/>
                <path id="Trazado_107594" data-name="Trazado 107594" d="M115.72,256.6l-4.57-.01-.13-.53,4.57.01Z" fill="#fddbba"/>
                <path id="Trazado_107595" data-name="Trazado 107595" d="M120.96,256.61l-4.56-.01-.13-.53,4.57.01Z" fill="#fddbba"/>
                <path id="Trazado_107596" data-name="Trazado 107596" d="M124.76,256.62h-2.83l-.13-.54,2.84.01Z" fill="#fddbba"/>
                <path id="Trazado_107597" data-name="Trazado 107597" d="M122.26,255.17l-3.92-.01-.13-.53,3.92.01Z" fill="#fddbba"/>
                <path id="Trazado_107598" data-name="Trazado 107598" d="M127.61,255.18l-3.92-.01-.12-.53,3.92.01Z" fill="#fddbba"/>
              </g>
            </g>
          </g>
        </g>
        <g id="Grupo_59777" data-name="Grupo 59777">
          <path id="Trazado_107599" data-name="Trazado 107599" d="M145.19,365.49s-.58,9.05-2.33,9.18h-8.89l-11-.09a3.59,3.59,0,0,1,3.31-3.22c3.23-.55,8.63-2.81,10.6-7.07C138.9,359.8,145.19,365.49,145.19,365.49Z" fill="#032c52"/>
          <path id="Trazado_107600" data-name="Trazado 107600" d="M176.8,291c.42.35,11.67,12.54,10.75,21.9a5.4,5.4,0,0,1-5.4,4.82h-13.7s-14,2.5-14.31,5.52-3.2,19.3-8.87,42.45c0,0-4.17,1.43-6.71.41-3.35-1.36-3.84-2.8-3.84-2.8s3.38-51.82,6.05-55.47,30.15-14.49,39-15.57S176.8,291,176.8,291Z" fill="#0b3563"/>
          <path id="Trazado_107601" data-name="Trazado 107601" d="M97.34,278.1s-8-1.84-10,0a10.06,10.06,0,0,0-2.68,4.53H97.34Z" fill="#ffae73"/>
          <path id="Trazado_107602" data-name="Trazado 107602" d="M125.83,365.49s-.58,9.05-2.33,9.18h-8.88l-11.05-.09a3.59,3.59,0,0,1,3.31-3.22c3.23-.55,8.64-2.81,10.6-7.07C119.55,359.8,125.83,365.49,125.83,365.49Z" fill="#0b3563"/>
          <path id="Trazado_107603" data-name="Trazado 107603" d="M187.19,291c.32.27,2.75,6.82,4.38,14.26a10.26,10.26,0,0,1-10,12.46h-31.9s-14,2.5-14.31,5.52-3.19,19.3-8.86,42.45c0,0-4.19,1.1-7.47-.3a9.29,9.29,0,0,1-3.11-2.53s3.41-51.38,6.08-55,30.15-14.49,39.05-15.57S187.19,291,187.19,291Z" fill="#344154"/>
          <path id="Trazado_107604" data-name="Trazado 107604" d="M169.52,244.7l-4.92,4.73h-8.4c0-.68,0-3.5.05-6.05v-4.42l2.16-1.48,4.8-3.28,2.59-1.77s.22,2.36.25,2.7a19.64,19.64,0,0,0,3.47,9.57Z" fill="#ffae73"/>
          <path id="Trazado_107605" data-name="Trazado 107605" d="M157.31,243.85c.16-.07,9.25-4.14,10.31-3.79s2.39,3.59,2.39,3.59l-16,3.62A8,8,0,0,1,157.31,243.85Z" fill="#0b3563"/>
          <path id="Trazado_107606" data-name="Trazado 107606" d="M196.62,271.08c-1.73-10.68-9-18.67-12.17-21.66-2.1-3.16-14.44-5.77-14.44-5.77l-16,3.62a20.38,20.38,0,0,0-14.1,9.39c-3.15,5.2-12.16,17.1-18.07,17.47s-24.5,4-24.5,4v4.57l28.33.78a5.053,5.053,0,0,0,1-.08c2.44-.46,12.88-2.54,18.08-5.24.83,13.38,1.81,33.81,6.48,37.05,5,3.44,39.7,3.9,43.38-1.34,1.89-2.67-.42-18.52-3.31-33.8C194.92,278.33,197.34,275.56,196.62,271.08Z" fill="#84aacc"/>
          <path id="Trazado_107607" data-name="Trazado 107607" d="M164.51,237l-.43.26a34.07,34.07,0,0,1-7.81,4.12c0-1.4,0-2.42,0-2.42l2.16-1.48Z" fill="#f59d64"/>
          <path id="Trazado_107608" data-name="Trazado 107608" d="M153.36,239s12.92,1.53,13.75-6.53,3-13.29-5.16-14.61-10.14,1.59-11.07,4.22S150,238.38,153.36,239Z" fill="#ffae73"/>
          <path id="Trazado_107609" data-name="Trazado 107609" d="M151.22,221.23s2.44,8.75,4.21,8,3.38-1.33,3.61,1.4-1.74,6.3,4,5.72,11.17-16.72,9.09-19.2C166.17,210,142.91,212.7,151.22,221.23Z" fill="#0b3563"/>
        </g>
        <g id="Grupo_59779" data-name="Grupo 59779">
          <path id="Trazado_107610" data-name="Trazado 107610" d="M149.32,312.23h61.06v7.25H142.07A7.25,7.25,0,0,1,149.32,312.23Z" transform="translate(352.46 631.71) rotate(180)" fill="#6ca3ea"/>
          <rect id="Rectángulo_8690" data-name="Rectángulo 8690" width="54.86" height="7.25" rx="3.625" transform="translate(186.02 319.48) rotate(180)" fill="#a37955"/>
          <g id="Grupo_59778" data-name="Grupo 59778">
            <path id="Trazado_107611" data-name="Trazado 107611" d="M174.67,371.95h4.12l1.16-52.47h-6.3Z" fill="#344154"/>
            <path id="Trazado_107612" data-name="Trazado 107612" d="M156.75,371.95h40.1v-3.63l-20.44-1.84-19.66,1.84Z" fill="#344154"/>
            <circle id="Elipse_4236" data-name="Elipse 4236" cx="3.3" cy="3.3" r="3.3" transform="translate(194.15 368.08)" fill="#344154"/>
            <path id="Trazado_107613" data-name="Trazado 107613" d="M160.65,371.38a3.3,3.3,0,1,0-3.3,3.3A3.3,3.3,0,0,0,160.65,371.38Z" fill="#344154"/>
            <path id="Trazado_107614" data-name="Trazado 107614" d="M158.19,322.92h37.22a3.44,3.44,0,0,0,3.44-3.44h-44.1A3.44,3.44,0,0,0,158.19,322.92Z" fill="#344154"/>
          </g>
          <path id="Trazado_107615" data-name="Trazado 107615" d="M204.07,319.48a3.14,3.14,0,0,0,3.14-3.14V268c0-9-5.92-16.39-13.22-16.39h-29.9c-7.3,0-13.22,7.34-13.22,16.39v51.45Z" fill="#a37955"/>
          <path id="Trazado_107616" data-name="Trazado 107616" d="M204.66,319.48a5.72,5.72,0,0,0,5.72-5.72V268c0-9-5.91-16.39-13.22-16.39H167.27c-7.3,0-13.22,7.34-13.22,16.39v51.45Z" fill="#d9a171"/>
        </g>
      </g>
      <g id="Grupo_59781" data-name="Grupo 59781">
        <rect id="Rectángulo_8691" data-name="Rectángulo 8691" width="42.19" height="34.79" transform="translate(814.8 374.17) rotate(180)" fill="#7a9cfa"/>
        <rect id="Rectángulo_8692" data-name="Rectángulo 8692" width="42.19" height="34.79" transform="translate(835.9 374.17) rotate(180)" fill="#6595bf"/>
        <path id="Trazado_107617" data-name="Trazado 107617" d="M772.63,365.35h6.69l-.59-1.88.59-1.34h-6.69Z" fill="#5584e8"/>
        <path id="Trazado_107618" data-name="Trazado 107618" d="M793.7,350.15h6.69l-.59-1.88.59-1.34H793.7Z" fill="#7a9cfa"/>
        <path id="Trazado_107619" data-name="Trazado 107619" d="M793.7,346.93h-6.68l.59,1.88-.59,1.34h6.68Z" fill="#5584e8"/>
        <path id="Trazado_107620" data-name="Trazado 107620" d="M835.9,365.73h-6.69l.59,1.88-.59,1.34h6.69Z" fill="#7a9cfa"/>
        <rect id="Rectángulo_8693" data-name="Rectángulo 8693" width="12.14" height="4.72" transform="translate(820.99 341.75)" fill="#fff"/>
      </g>
      <g id="Grupo_59782" data-name="Grupo 59782">
        <rect id="Rectángulo_8694" data-name="Rectángulo 8694" width="42.28" height="34.86" transform="translate(757.71 374.21) rotate(180)" fill="#7a9cfa"/>
        <rect id="Rectángulo_8695" data-name="Rectángulo 8695" width="42.28" height="34.86" transform="translate(778.85 374.21) rotate(180)" fill="#d0e3f9"/>
        <path id="Trazado_107621" data-name="Trazado 107621" d="M715.46,365.37h6.7l-.59-1.88.59-1.35h-6.7Z" fill="#84aacc"/>
        <path id="Trazado_107622" data-name="Trazado 107622" d="M736.57,350.14h6.7l-.59-1.89.59-1.34h-6.7Z" fill="#568cc5"/>
        <path id="Trazado_107623" data-name="Trazado 107623" d="M736.57,346.91h-6.7l.6,1.88-.6,1.35h6.7Z" fill="#84aacc"/>
        <path id="Trazado_107624" data-name="Trazado 107624" d="M778.85,365.75h-6.7l.59,1.88-.59,1.35h6.7Z" fill="#568cc5"/>
        <rect id="Rectángulo_8696" data-name="Rectángulo 8696" width="12.17" height="4.73" transform="translate(763.92 341.72)" fill="#fff"/>
      </g>
      <g id="Grupo_59783" data-name="Grupo 59783">
        <rect id="Rectángulo_8697" data-name="Rectángulo 8697" width="39.64" height="32.68" transform="translate(776.98 339.39) rotate(180)" fill="#a37955"/>
        <rect id="Rectángulo_8698" data-name="Rectángulo 8698" width="39.64" height="32.68" transform="translate(796.8 339.39) rotate(180)" fill="#e1b48d"/>
        <path id="Trazado_107625" data-name="Trazado 107625" d="M737.36,331.1h6.28l-.55-1.77.55-1.26h-6.28Z" fill="#a66d58"/>
        <path id="Trazado_107626" data-name="Trazado 107626" d="M757.16,316.82h6.28l-.55-1.77.55-1.26h-6.28Z" fill="#ffae73"/>
        <path id="Trazado_107627" data-name="Trazado 107627" d="M757.16,313.79h-6.28l.55,1.76-.55,1.27h6.28Z" fill="#a66d58"/>
        <path id="Trazado_107628" data-name="Trazado 107628" d="M796.8,331.45h-6.28l.55,1.76-.55,1.27h6.28Z" fill="#ffae73"/>
        <rect id="Rectángulo_8699" data-name="Rectángulo 8699" width="11.41" height="4.44" transform="translate(782.8 308.92)" fill="#fff"/>
      </g>
      <g id="Grupo_59787" data-name="Grupo 59787">
        <g id="Grupo_59784" data-name="Grupo 59784">
          <rect id="Rectángulo_8700" data-name="Rectángulo 8700" width="1.76" height="1.76" transform="translate(260.43 201.37)" fill="#6595bf"/>
          <rect id="Rectángulo_8701" data-name="Rectángulo 8701" width="1.76" height="1.76" transform="translate(265 201.37)" fill="#6595bf"/>
          <rect id="Rectángulo_8702" data-name="Rectángulo 8702" width="1.76" height="1.76" transform="translate(269.58 201.37)" fill="#6595bf"/>
        </g>
        <g id="Grupo_59785" data-name="Grupo 59785">
          <rect id="Rectángulo_8703" data-name="Rectángulo 8703" width="1.76" height="1.76" transform="translate(260.43 205.3)" fill="#6595bf"/>
          <rect id="Rectángulo_8704" data-name="Rectángulo 8704" width="1.76" height="1.76" transform="translate(265 205.3)" fill="#6595bf"/>
          <rect id="Rectángulo_8705" data-name="Rectángulo 8705" width="1.76" height="1.76" transform="translate(269.58 205.3)" fill="#6595bf"/>
        </g>
        <g id="Grupo_59786" data-name="Grupo 59786">
          <rect id="Rectángulo_8706" data-name="Rectángulo 8706" width="1.76" height="1.76" transform="translate(260.43 209.65)" fill="#6595bf"/>
          <rect id="Rectángulo_8707" data-name="Rectángulo 8707" width="1.76" height="1.76" transform="translate(265 209.65)" fill="#6595bf"/>
          <rect id="Rectángulo_8708" data-name="Rectángulo 8708" width="1.76" height="1.76" transform="translate(269.58 209.65)" fill="#6595bf"/>
        </g>
      </g>
      <g id="Grupo_59789" data-name="Grupo 59789">
        <g id="Grupo_59788" data-name="Grupo 59788">
          <path id="Trazado_107629" data-name="Trazado 107629" d="M278.78,249.64l2.85-.43c.32,0,.46-.37.32-.76L279.18,240a1.19,1.19,0,0,0-1.09-.85l-2.85.42c-.32,0-.46.37-.32.77l2.77,8.45a1.19,1.19,0,0,0,1.09.85Z" fill="#1e3865"/>
          <path id="Trazado_107630" data-name="Trazado 107630" d="M279.79,249.49l2.86-.42c.31,0,.45-.38.31-.77l-2.77-8.46a1.19,1.19,0,0,0-1.09-.85l-2.85.42c-.32.05-.45.37-.32.77l2.77,8.45A1.19,1.19,0,0,0,279.79,249.49Z" fill="#132e52"/>
          <path id="Trazado_107631" data-name="Trazado 107631" d="M277,241h0c.08,0,.12-.11.09-.21l-2.25-7.48a.23.23,0,0,0-.21-.17h0c-.09,0-.13.11-.1.21l2.26,7.48a.22.22,0,0,0,.21.17Z" fill="#132e52"/>
        </g>
        <path id="Trazado_107632" data-name="Trazado 107632" d="M276.29,212.57a22.782,22.782,0,0,0-3.7-4.81c-1.63-1.29-5.95-1.66-6.12-1.32-.52,1,1.71,2.51,2.18,3.45s.26,2.3,2.46,3.42,3.58,1.9,3.58,1.9Z" fill="#ffae73"/>
        <path id="Trazado_107633" data-name="Trazado 107633" d="M274.54,212.09c1.06-1.65,1.38-1.73,1.38-1.73s17.52,7,19.19,7.57,26.66,2,26.66,2l7.54,16.58S296,229,291.8,227.4c-6.95-2.58-18.1-12.69-18.1-12.69a5.43,5.43,0,0,1,.84-2.62Z" fill="#1e3865"/>
        <path id="Trazado_107634" data-name="Trazado 107634" d="M318.06,367.09s-.38,6.14-1.52,7.59H299a3.11,3.11,0,0,1,2.8-2.51c2.78-.48,7.42-2.43,9.1-6.1C312.64,362.21,318.06,367.09,318.06,367.09Z" fill="#0b3563"/>
        <path id="Trazado_107635" data-name="Trazado 107635" d="M349.24,366.23s1.09,8-.41,8.12H331.4a.82.82,0,0,1-.74-1.24A3.29,3.29,0,0,1,333,371.6c2.77-.53,7.38-2.57,9-6.26C343.74,361.45,349.24,366.23,349.24,366.23Z" fill="#0b3563"/>
        <path id="Trazado_107636" data-name="Trazado 107636" d="M309.8,285.26s4.42,15.46,17.08,42.3,13.64,39.08,13.64,39.08l8.72-.41s-.82-32-6.8-45.5-7.2-50.62-7.2-50.62Z" fill="#a37955"/>
        <path id="Trazado_107637" data-name="Trazado 107637" d="M302.71,272a383.885,383.885,0,0,0,3.79,53.32c4.14,29.39,2.73,41.87,2.73,41.87l9.92.33s5.93-29.4,4.23-44.11,8.12-50.48,8.12-50.48Z" fill="#e1b48d"/>
        <path id="Trazado_107638" data-name="Trazado 107638" d="M322.28,215.94l-4.68,3.47L310.84,218c.09-.61.54-3.17.94-5.48a1.861,1.861,0,0,1,.08-.41c.34-2,.65-3.66.65-3.66l6.31-3.15,2.35-1.17s-.18,2.18-.2,2.5a20.25,20.25,0,0,0,1.31,9.31Z" fill="#ffae73"/>
        <path id="Trazado_107639" data-name="Trazado 107639" d="M311.31,214.19c.15-.06,9.2-2.73,10.18-2.41s1.57,2.23,1.57,2.23l-14,4S309.42,215,311.31,214.19Z" fill="#0b3563"/>
        <path id="Trazado_107640" data-name="Trazado 107640" d="M335.68,274.91c-1.53,7-33.51-15-33.09-19.23.05-.47.1-.94.14-1.41.59-5.94,1.16-11.76,1.2-15.56A53.07,53.07,0,0,1,305,229c.55-2.82,1.24-5.39,1.83-7.38a8.1,8.1,0,0,1,2.24-3.62,7.81,7.81,0,0,1,2.55-1.62,6.7,6.7,0,0,1,.79-.28c3.85-1.12,9.18-2.5,10.63-2.08,3.91,1.15,6.82,8,8.88,16.82C335.79,247.27,336.68,270.35,335.68,274.91Z" fill="#84aacc"/>
        <path id="Trazado_107641" data-name="Trazado 107641" d="M320.49,206.7c-1.38,2.66-6.55,5-8.71,5.8a1.861,1.861,0,0,1,.08-.41c.34-2,.65-3.66.65-3.66l6.31-3.15C320.22,205.26,321.07,205.61,320.49,206.7Z" fill="#ffa05e"/>
        <path id="Trazado_107642" data-name="Trazado 107642" d="M309.44,208.06s11.39,3.55,13.49-3.58,5-11.47-2.19-14-9.41-.27-10.69,1.94S306.53,207,309.44,208.06Z" fill="#ffae73"/>
        <path id="Trazado_107643" data-name="Trazado 107643" d="M310.5,191.69s.73,8.3,2.44,7.94,3.27-.63,3,1.87-2.63,5.39,2.66,5.83,12.89-13.19,11.43-15.77C325.86,184.11,304.44,182.61,310.5,191.69Z" fill="#0b3563"/>
        <path id="Trazado_107644" data-name="Trazado 107644" d="M303.56,272c3.17,1.14-.06-3.15,0-4,.24-3.93-1.3-8.9-.83-13.64l19.35-11.56S326.67,271.77,303.56,272Z" fill="#1e3865"/>
        <path id="Trazado_107645" data-name="Trazado 107645" d="M335.68,274.91c-8.26,15.31-9.57,21.15-9.57,21.15-7.19-.82-19.51-14.95-23.41-18.72,0,0-.53-17.39-.11-21.66l6-.17s10.79,2.74,13.59-1,1.59-21.92,1.59-21.92l8.2-1.78C335.79,247.27,337.9,270.8,335.68,274.91Z" fill="#e1b48d"/>
        <path id="Trazado_107646" data-name="Trazado 107646" d="M288.57,245.64a10.87,10.87,0,0,1-3-1c-.9-.74-1.62-2-2.06-2.13-.75-.23-2.58-2.53-2.73-2.7s-.55.18-.43.56.39,1.2.49,1.5c.43,1.31.41,1.71-1.15,1.2-.2-.06-3.82-1.21-4.19-.39s1.13,4.77,3,5.62,6.54.08,6.88.18C288.25,249.33,288.57,245.64,288.57,245.64Z" fill="#ffae73"/>
        <path id="Trazado_107647" data-name="Trazado 107647" d="M286.65,244.87s19.18,3.26,20.88,2.43c2.71-1.32-1-20.79-1-20.79s-.16-4.41,5-5.45c4.48-.9,8.8,2.45,8.8,2.45s3.93,3.52,3.42,7.42c-1.11,8.64-2.84,26.22-8.62,28.92-7.46,3.47-29-9.64-29-9.64a3.82,3.82,0,0,1-.61-2.52A5.81,5.81,0,0,1,286.65,244.87Z" fill="#84aacc"/>
        <path id="Trazado_107648" data-name="Trazado 107648" d="M325.33,232.26l-1.59.35s-3.36-14.55-14.65-14.62a7.81,7.81,0,0,1,2.55-1.62C315.77,217.48,323,221,325.33,232.26Z" fill="#e1b48d"/>
        <path id="Trazado_107649" data-name="Trazado 107649" d="M270,210.68s-3.11-1.91-3.25-1.09c-.08.4,1.31,1.52,1.86,2s2,1.41,2,1.41Z" fill="#ffae73"/>
      </g>
      <rect id="Rectángulo_8709" data-name="Rectángulo 8709" width="838.39" height="3.09" rx="1.545" transform="translate(23.34 374.21)" fill="#2d3554"/>
    </g>
  </g>
</svg>
