<svg xmlns="http://www.w3.org/2000/svg" xmlns:xlink="http://www.w3.org/1999/xlink" width="250" height="250" viewBox="0 0 250 250">
  <defs>
    <clipPath id="clip-path">
      <path id="SVGID" d="M665.774,6090.071s3.429,2.976,4.456,4.942,14.5,29.444,14.449,31.322-2.048,5.461-5.565,5.461-16.846-21.417-16.846-21.417Z" fill="none"/>
    </clipPath>
    <clipPath id="clip-path-2">
      <path id="SVGID-2" data-name="SVGID" d="M646.405,6058.111c-6.809,1.6-8.633,6.006-8.578,9.992a26.815,26.815,0,0,0,1.638,6.941l-.12-.251s-2.048-3.572-2.348-1.426,1.725,4.369,2.4,5.084a1.093,1.093,0,0,0,1.387.077c1.354,3.276,2.867,6.208,3.855,7.006,2.141,1.731,5.149,2.621,7.541.546s4.756-13.908,4.756-13.908C657.5,6060.2,653.215,6056.516,646.405,6058.111Z" fill="none"/>
    </clipPath>
    <clipPath id="clip-path-3">
      <path id="SVGID-3" data-name="SVGID" d="M627.037,6095.5s-10.2,27.794-9.726,30.9,5.821,1.868,7.509,1.447,8.191-10.741,8.234-12.963a3.5,3.5,0,0,0,1.595-2.392c.4-1.791.671-8.191-1.917-12.991" fill="none"/>
    </clipPath>
    <clipPath id="clip-path-4">
      <path id="SVGID-4" data-name="SVGID" d="M634.742,6123.856s-13.106-.8-14.788-.934-3.7,2.184-2.113,5.4,4.1,3.4,7.192,2.812,9.916-4.75,9.916-4.75Z" fill="none"/>
    </clipPath>
    <clipPath id="clip-path-5">
      <path id="SVGID-5" data-name="SVGID" d="M636.833,6120.661s1.693-1.8,2.141-1.758,3.735-.142,4.013.628-.164.431-.617.688a15.387,15.387,0,0,1-2.7.546,9.575,9.575,0,0,1,2.523.5c.584.344,3.058,2.626,3.047,3.074s-.311.546-.912.546-.158.431-.322.863-1.349.338-1.349.338.1,1.5-.792,1.42a7.532,7.532,0,0,1-2.5-1.245s-3.314,1.212-4.505,1.119a4.366,4.366,0,0,0-2.249.508A25.526,25.526,0,0,1,636.833,6120.661Z" fill="none"/>
    </clipPath>
    <clipPath id="clip-path-6">
      <path id="SVGID-6" data-name="SVGID" d="M609.568,6132.418a1.847,1.847,0,0,0-3.112.191c-1.616,2.07-.333,9.256.464,12.128s14.263,14.787,15.53,15.672,17.774,4.614,19.216,3.932,1.856-4.14,1.037-6.007-16.245-5.832-16.245-5.832Z" fill="none"/>
    </clipPath>
    <clipPath id="clip-path-7">
      <path id="SVGID-7" data-name="SVGID" d="M641.7,6158.318a2.413,2.413,0,0,0-1.895,1.96c-.322,1.709,1.36,3.167,1.36,3.167s3.544,1.218,4.6-1.638S643.418,6158.208,641.7,6158.318Z" fill="none"/>
    </clipPath>
    <clipPath id="clip-path-8">
      <path id="SVGID-8" data-name="SVGID" d="M593.3,6127.323s-9.982,5.8-10.762,6.187-1.557,6.389-1.557,6.957,9.982,23.125,9.982,23.125,2.457,2.081,9.649,2.081,7.749-1.092,7.749-1.092l.573-9.518s2.457-6.433,2.648-7.568-2.015-15.077-2.015-15.077l-10.211-6.809S595.2,6123.162,593.3,6127.323Z" fill="none"/>
    </clipPath>
    <clipPath id="clip-path-9">
      <path id="SVGID-9" data-name="SVGID" d="M583.756,6133.942s-.857-.645-2.763.791-3.68,7.967-2.49,10.736,4.369,17.162,5.848,17.949,17.392.721,19.271.278,3.189-2.9,2.872-5.024a3.3,3.3,0,0,0-3.031-2.692c-.617-.016-13.291-.737-13.291-.737l-3.937-16.633" fill="none"/>
    </clipPath>
    <clipPath id="clip-path-10">
      <path id="SVGID-10" data-name="SVGID" d="M605.806,6156.668a3.206,3.206,0,0,0-1.944,2.927,2.8,2.8,0,0,0,1.786,2.911c.366.256,2.572,1.441,3.462.715a3.811,3.811,0,0,0,1.092-4.319C609.355,6157.264,606.674,6156.69,605.806,6156.668Z" fill="none"/>
    </clipPath>
  </defs>
  <g id="Grupo_57555" data-name="Grupo 57555" transform="translate(-531.929 -6038.134)">
    <rect id="Rectángulo_5882" data-name="Rectángulo 5882" width="250" height="250" transform="translate(531.929 6038.134)" fill="#344154" opacity="0"/>
    <g id="Grupo_57554" data-name="Grupo 57554">
      <g id="freepik--background-simple--inject-1--inject-76">
        <rect id="Rectángulo_5883" data-name="Rectángulo 5883" width="225.156" height="8.742" transform="translate(543.299 6243.459)" fill="#d9a171" stroke="#fff" stroke-miterlimit="10" stroke-width="1"/>
        <path id="Trazado_105733" data-name="Trazado 105733" d="M625.486,6065.149V6245.79H745.913V6065.149Zm116.157,3.823v22.656h-20.5v-22.634Zm-66.586,75.607V6121.1h19.587v23.481Zm19.587,2.992v23.481H675.057v-23.481Zm-23.044-2.992H652V6121.1h19.593Zm0,2.992v23.481H652v-23.481Zm0,26.473v23.48H652v-23.48Zm3.457,0h19.587v23.48H675.057Zm23.044,0h19.592v23.48h-19.6Zm0-2.987v-23.48h19.592v23.48Zm0-26.478V6121.1h19.592v23.481Zm0-26.473v-23.481h19.592v23.481Zm-3.457,0H675.057v-23.481h19.587Zm-23.044,0H652v-11.249a8.9,8.9,0,0,0,0-1.8v-10.44h19.593Zm-23.049,0H629.734v-23.481h18.79Zm-10.56,2.987,2.987,2.293a5.241,5.241,0,0,0-2.108-2.293h9.681v23.48H629.734v-23.48Zm10.56,26.478v23.481H629.734v-23.481Zm0,26.473v23.48H629.734v-23.48Zm0,26.478V6224H629.734v-23.481Zm3.457,0H671.6V6224H652Zm23.049,0h19.587V6224H675.057Zm23.044,0h19.592V6224h-19.6Zm23.049,0h20.5V6224H721.144Zm0-2.987v-23.48h20.5v23.48Zm0-26.478v-23.48h20.5v23.48Zm0-26.478V6121.1h20.5v23.481Zm0-26.473v-23.481h20.5v23.481Zm-3.457-49.112v22.634h-19.6v-22.634Zm-23.049,0v22.634H675.057v-22.634Zm-23.044,0v22.634H652v-22.634Zm-23.049,0v22.634H629.734v-22.634Zm-18.817,172.952V6227h18.79v14.945Zm22.247,0V6227h19.592v14.945Zm23.049,0V6227h19.587v14.945Zm23.043,0V6227h19.593v14.945Zm23.049,0V6227h20.5v14.945Z" fill="#d9a171" stroke="#fff" stroke-miterlimit="10" stroke-width="1"/>
        <g id="Grupo_57523" data-name="Grupo 57523" opacity="0.8">
          <rect id="Rectángulo_5884" data-name="Rectángulo 5884" width="225.156" height="8.742" transform="translate(543.299 6243.459)" fill="#aed3f2"/>
          <path id="Trazado_105734" data-name="Trazado 105734" d="M625.486,6065.149V6245.79H745.913V6065.149Zm116.157,3.823v22.656h-20.5v-22.634Zm-66.586,75.607V6121.1h19.587v23.481Zm19.587,2.992v23.481H675.057v-23.481Zm-23.044-2.992H652V6121.1h19.593Zm0,2.992v23.481H652v-23.481Zm0,26.473v23.48H652v-23.48Zm3.457,0h19.587v23.48H675.057Zm23.044,0h19.592v23.48h-19.6Zm0-2.987v-23.48h19.592v23.48Zm0-26.478V6121.1h19.592v23.481Zm0-26.473v-23.481h19.592v23.481Zm-3.457,0H675.057v-23.481h19.587Zm-23.044,0H652v-11.249a8.9,8.9,0,0,0,0-1.8v-10.44h19.593Zm-23.049,0H629.734v-23.481h18.79Zm-10.56,2.987,2.987,2.293a5.241,5.241,0,0,0-2.108-2.293h9.681v23.48H629.734v-23.48Zm10.56,26.478v23.481H629.734v-23.481Zm0,26.473v23.48H629.734v-23.48Zm0,26.478V6224H629.734v-23.481Zm3.457,0H671.6V6224H652Zm23.049,0h19.587V6224H675.057Zm23.044,0h19.592V6224h-19.6Zm23.049,0h20.5V6224H721.144Zm0-2.987v-23.48h20.5v23.48Zm0-26.478v-23.48h20.5v23.48Zm0-26.478V6121.1h20.5v23.481Zm0-26.473v-23.481h20.5v23.481Zm-3.457-49.112v22.634h-19.6v-22.634Zm-23.049,0v22.634H675.057v-22.634Zm-23.044,0v22.634H652v-22.634Zm-23.049,0v22.634H629.734v-22.634Zm-18.817,172.952V6227h18.79v14.945Zm22.247,0V6227h19.592v14.945Zm23.049,0V6227h19.587v14.945Zm23.043,0V6227h19.593v14.945Zm23.049,0V6227h20.5v14.945Z" fill="#dfedfa"/>
        </g>
      </g>
      <g id="freepik--Plants--inject-1--inject-76">
        <path id="Trazado_105735" data-name="Trazado 105735" d="M757.321,6218.914c-.05,0,.72-3.359.791-3.566.841-2.387,3.877-6.509,6.711-6.433a3.351,3.351,0,0,1,3.129,3.9c-.256,1.982-2.086,3.637-3.729,4.576C762.29,6218.493,757.326,6218.914,757.321,6218.914Z" fill="#344154"/>
        <path id="Trazado_105736" data-name="Trazado 105736" d="M757.637,6205.251c-.049,0,1.218-3.211,1.322-3.4,1.2-2.239,4.816-5.854,7.606-5.346a3.359,3.359,0,0,1,2.6,3.975,3.537,3.537,0,0,1-.093.35c-.546,1.928-2.616,3.276-4.369,3.959C762.612,6205.59,757.643,6205.251,757.637,6205.251Z" fill="#344154"/>
        <path id="Trazado_105737" data-name="Trazado 105737" d="M761.2,6190.065c-.055,0,1.212-3.21,1.316-3.4,1.2-2.233,4.821-5.848,7.612-5.346a3.359,3.359,0,0,1,2.6,3.978,3.579,3.579,0,0,1-.094.353c-.547,1.922-2.616,3.276-4.369,3.959C766.172,6190.4,761.2,6190.065,761.2,6190.065Z" fill="#344154"/>
        <path id="Trazado_105738" data-name="Trazado 105738" d="M763.857,6175.584c-.055,0,1.212-3.211,1.316-3.408,1.2-2.233,4.822-5.848,7.612-5.34a3.358,3.358,0,0,1,2.6,3.975,3.07,3.07,0,0,1-.093.35c-.546,1.927-2.621,3.276-4.368,3.959C768.831,6175.917,763.857,6175.584,763.857,6175.584Z" fill="#344154"/>
        <path id="Trazado_105739" data-name="Trazado 105739" d="M762.726,6163c-.054,0,.323-3.418.372-3.631.546-2.474,3.1-6.919,5.93-7.164a3.358,3.358,0,0,1,3.553,3.152,3.571,3.571,0,0,1,0,.359c0,2-1.638,3.855-3.178,4.974C767.614,6161.987,762.726,6163,762.726,6163Z" fill="#344154"/>
        <path id="Trazado_105740" data-name="Trazado 105740" d="M755.944,6218.542c.05,0-.5-3.4-.546-3.6-.682-2.441-3.44-6.755-6.274-6.864a3.359,3.359,0,0,0-3.4,3.32,3.4,3.4,0,0,0,.016.366c.126,2,1.846,3.768,3.424,4.811C751.014,6217.8,755.939,6218.542,755.944,6218.542Z" fill="#344154"/>
        <path id="Trazado_105741" data-name="Trazado 105741" d="M757.441,6203.351c.054,0-1.005-3.276-1.092-3.484-1.049-2.31-4.429-6.154-7.247-5.832a3.357,3.357,0,0,0-2.779,4.156c.426,1.955,2.4,3.445,4.112,4.237C752.455,6203.362,757.435,6203.351,757.441,6203.351Z" fill="#344154"/>
        <path id="Trazado_105742" data-name="Trazado 105742" d="M760.826,6189.033c.049,0-1.005-3.276-1.092-3.478-1.043-2.31-4.423-6.154-7.241-5.832a3.358,3.358,0,0,0-2.854,3.8,3.581,3.581,0,0,0,.069.354c.432,1.96,2.4,3.446,4.118,4.243C755.841,6189.044,760.821,6189.033,760.826,6189.033Z" fill="#344154"/>
        <path id="Trazado_105743" data-name="Trazado 105743" d="M763.3,6175.709c.054,0-1.005-3.276-1.092-3.483-1.049-2.305-4.423-6.149-7.246-5.827a3.356,3.356,0,0,0-2.78,4.15c.426,1.961,2.4,3.446,4.117,4.238C758.314,6175.72,763.3,6175.709,763.3,6175.709Z" fill="#344154"/>
        <path id="Trazado_105744" data-name="Trazado 105744" d="M762.623,6163.407c.054,0-1.354-3.151-1.469-3.342-1.294-2.184-5.073-5.63-7.842-5a3.354,3.354,0,0,0-2.3,4.434c.639,1.894,2.758,3.161,4.554,3.756C757.67,6163.964,762.623,6163.407,762.623,6163.407Z" fill="#344154"/>
        <path id="Trazado_105745" data-name="Trazado 105745" d="M759.641,6152.518c.044,0,.246-3.423.235-3.642-.147-2.533-1.911-7.339-4.658-8.054a3.359,3.359,0,0,0-4.028,2.516c-.027.118-.047.237-.062.356-.306,1.982.994,4.079,2.31,5.461C754.983,6150.727,759.636,6152.513,759.641,6152.518Z" fill="#344154"/>
        <path id="Trazado_105746" data-name="Trazado 105746" d="M756.873,6237.261s-.18-1.447-.4-3.959-.469-6.1-.584-10.424c-.06-2.184-.082-4.5-.038-6.979,0-1.245.065-2.49.114-3.822.044-.644.093-1.294.137-1.955s.153-1.338.224-2.015a76.974,76.974,0,0,1,1.567-8.191c.672-2.757,1.436-5.526,2.184-8.289s1.485-5.526,2.064-8.273a57.479,57.479,0,0,0,1.185-8.141,43.262,43.262,0,0,0-.262-7.683,58.619,58.619,0,0,0-1.185-6.864c-.48-2.092-1.043-3.981-1.556-5.647s-1.043-3.1-1.48-4.27c-.89-2.348-1.5-3.647-1.5-3.647s.633,1.288,1.572,3.614c.47,1.164,1.011,2.589,1.579,4.243s1.157,3.539,1.681,5.63a59.418,59.418,0,0,1,1.371,6.826,43.873,43.873,0,0,1,.437,7.776,59.236,59.236,0,0,1-1.021,8.267c-.546,2.785-1.2,5.581-1.895,8.366s-1.42,5.575-2.026,8.3a75.065,75.065,0,0,0-1.365,8.093c-.055.66-.153,1.288-.175,1.955s-.065,1.316-.1,1.96c0,1.245-.038,2.534-.027,3.751,0,2.452.082,4.767.191,6.9.2,4.275.546,7.83.8,10.309s.475,3.877.475,3.877a1,1,0,0,1-1.971.29h0v-.006Z" fill="#344154"/>
        <path id="Trazado_105747" data-name="Trazado 105747" d="M750.8,6231.62h13.613v2.818h-1.185l-2.457,15.377h-6.323l-2.463-15.377H750.8Z" fill="#344154" stroke="#263238" stroke-linecap="round" stroke-linejoin="round" stroke-width="1"/>
      </g>
      <g id="freepik--Character--inject-1--inject-76">
        <path id="Trazado_105748" data-name="Trazado 105748" d="M661.1,6241.9s-.47,2.768-.126,3.391.9,1.441.9,1.441h4.335l.235-1.338a6.221,6.221,0,0,0,2.152,1.546c1.152.409,2.266,0,3.615.1,1.141.088,3.822,0,3.822,0l-.076-1.447-7.825-3.5-2.8-2.185S662.869,6242.126,661.1,6241.9Z" fill="#344154" stroke="#263238" stroke-linecap="round" stroke-linejoin="round" stroke-width="1"/>
        <path id="Trazado_105749" data-name="Trazado 105749" d="M628.806,6241.9s.743,2.255.47,2.872-.721,1.96-.721,1.96h-4.33l-.383-1.338a5.294,5.294,0,0,1-1.982,1.546c-1.092.409-2.271,0-3.6.1-1.13.088-3.822,0-3.822,0l-.077-1.447,7.443-3.5,2.954-1.639S627.059,6242.126,628.806,6241.9Z" fill="#344154" stroke="#263238" stroke-linecap="round" stroke-linejoin="round" stroke-width="1"/>
        <path id="Trazado_105750" data-name="Trazado 105750" d="M663.437,6135.443s1.791,23.186,2.413,34.271.912,16.114.983,23.917.415,23.224.415,29.018a134.26,134.26,0,0,1-1.152,17.686l-5.236,2.791s-1.693-14.875-2.376-20.2c-.617-4.822-2.872-24.442-3.893-30.509s-5.674-27.161-5.674-27.161-6.208,22.132-7.814,30.973-7.645,28.777-8.939,33.626-3.358,12.041-3.358,12.041a5.455,5.455,0,0,1-2.244.174,2.067,2.067,0,0,1-1.639-1.043s1.524-14.514,2.152-21.569c.781-8.737,1.027-20.335,1.977-25.19s.917-14.153,2.02-20.4c.628-3.544,3.822-37.448,3.822-37.448S652.609,6143.59,663.437,6135.443Z" fill="#344154" stroke="#263238" stroke-linecap="round" stroke-linejoin="round" stroke-width="1"/>
        <line id="Línea_395" data-name="Línea 395" x1="4.079" y2="3.309" transform="translate(662.017 6240.335)" fill="none" stroke="#fff" stroke-linecap="round" stroke-linejoin="round" stroke-width="0.5"/>
        <line id="Línea_396" data-name="Línea 396" x2="3.238" y2="2.485" transform="translate(624.76 6240.444)" fill="none" stroke="#fff" stroke-linecap="round" stroke-linejoin="round" stroke-width="0.5"/>
        <path id="Trazado_105751" data-name="Trazado 105751" d="M651.593,6143.247l-.328,13.52,2.293-2.288" fill="none" stroke="#fff" stroke-linecap="round" stroke-linejoin="round" stroke-width="0.5"/>
        <line id="Línea_397" data-name="Línea 397" y1="8.103" x2="6.514" transform="translate(650.162 6156.756)" fill="none" stroke="#fff" stroke-linecap="round" stroke-linejoin="round" stroke-width="0.5"/>
        <line id="Línea_398" data-name="Línea 398" x1="5.433" y2="5.33" transform="translate(653.051 6157.346)" fill="none" stroke="#fff" stroke-linecap="round" stroke-linejoin="round" stroke-width="0.5"/>
        <path id="Trazado_105752" data-name="Trazado 105752" d="M646.285,6157.941a18.373,18.373,0,0,0-8.163-8.683" fill="none" stroke="#fff" stroke-linecap="round" stroke-linejoin="round" stroke-width="0.5"/>
        <path id="Trazado_105753" data-name="Trazado 105753" d="M654.569,6139.588l-.311,1.583-2.534.59.289-1.971" fill="none" stroke="#fff" stroke-linecap="round" stroke-linejoin="round" stroke-width="0.5"/>
        <path id="Trazado_105754" data-name="Trazado 105754" d="M651.724,6141.761a35.737,35.737,0,0,1-7.153-.988l.507-1.578" fill="none" stroke="#fff" stroke-linecap="round" stroke-linejoin="round" stroke-width="0.5"/>
        <path id="Trazado_105755" data-name="Trazado 105755" d="M642.883,6138.8l-.48,1.972s-3.763-.2-4.369-.787" fill="none" stroke="#fff" stroke-linecap="round" stroke-linejoin="round" stroke-width="0.5"/>
        <path id="Trazado_105756" data-name="Trazado 105756" d="M654.258,6141.155a8.371,8.371,0,0,0,3.7-.983l1.721-.988-.667-1.382" fill="none" stroke="#fff" stroke-linecap="round" stroke-linejoin="round" stroke-width="0.5"/>
        <path id="Trazado_105757" data-name="Trazado 105757" d="M665.774,6090.071s3.429,2.976,4.456,4.942,14.5,29.444,14.449,31.322-2.048,5.461-5.565,5.461-16.846-21.417-16.846-21.417Z" fill="#aed3f2"/>
        <g id="Grupo_57526" data-name="Grupo 57526">
          <g id="Grupo_57525" data-name="Grupo 57525" clip-path="url(#clip-path)">
            <g id="Grupo_57524" data-name="Grupo 57524">
              <path id="Trazado_105758" data-name="Trazado 105758" d="M666.194,6093.37l.23.125c.4.235,1.31.765,2.3,1.425a19.147,19.147,0,0,1,3.053,2.933,14.383,14.383,0,0,0-3.042-4.844,25.015,25.015,0,0,1-2.8-2.818Z" fill="#6595bf" opacity="0.5" style="isolation: isolate"/>
            </g>
          </g>
        </g>
        <path id="Trazado_105759" data-name="Trazado 105759" d="M665.774,6090.071s3.429,2.976,4.456,4.942,14.5,29.444,14.449,31.322-2.048,5.461-5.565,5.461-16.846-21.417-16.846-21.417Z" fill="none" stroke="#263238" stroke-linecap="round" stroke-linejoin="round" stroke-width="1"/>
        <path id="Trazado_105760" data-name="Trazado 105760" d="M674.364,6118.805c-.454-.546-3.823-5.969-4.167-7.994s.546-4.62.546-5.974-2.14,2.364-2.255,1.916-1.463-5.3-1.463-5.3l-4.134,5.346-.617,3.587s5.22,8.382,9.993,14.656c3.4-1.092,8.524-2.757,9.627-3.423C683.6,6120.612,674.817,6119.373,674.364,6118.805Z" fill="#6595bf" opacity="0.5" style="isolation: isolate"/>
        <path id="Trazado_105761" data-name="Trazado 105761" d="M649.31,6086.358l16.486,3.713a109.026,109.026,0,0,1,1.016,13.013c-.132,4.565-3.528,32.8-3.528,32.8s-8.737,8.912-28.351.546c0,0-.683-1.316-.94-11.156-.245-9.7-7.541-27.723-6.956-29.776,1.2-4.21,15.628-8.257,17.523-8.371A37.185,37.185,0,0,0,649.31,6086.358Z" fill="#aed3f2" stroke="#263238" stroke-linecap="round" stroke-linejoin="round" stroke-width="1"/>
        <path id="Trazado_105762" data-name="Trazado 105762" d="M650.8,6135.831l-15.1-5.919,2.61-28.679,17.174,8.038,10.293-4.63-7.361,29.929Z" fill="#6595bf" opacity="0.5" style="isolation: isolate"/>
        <path id="Trazado_105763" data-name="Trazado 105763" d="M655.268,6091.311c.7,0,7.219,1.305,10.921,2.059-.213-1.934-.4-3.277-.4-3.277L649.3,6086.38a37.184,37.184,0,0,1-4.751.77c-1.9.115-16.321,4.161-17.523,8.371-.191.683.475,3.107,1.464,6.4,1.441-3.719,2.73-6.782,3.172-7.214.994-.993,10.921-3.571,10.921-3.571Z" fill="#6595bf" opacity="0.5" style="isolation: isolate"/>
        <path id="Trazado_105764" data-name="Trazado 105764" d="M653.788,6094.789l-2.266,5.067,4.969,35.112-3.642,4.915-3.457-4.008.966-35.57-4.576-5.34,2.927-5.537Z" fill="#344154"/>
        <path id="Trazado_105765" data-name="Trazado 105765" d="M671.344,6106.136l-13.209,7.328-16.988-8.89-2.692,25.091,16.824,8.109,12.74-7.667Z" fill="#d9a171" stroke="#263238" stroke-linecap="round" stroke-linejoin="round" stroke-width="1"/>
        <line id="Línea_399" data-name="Línea 399" y1="4.03" x2="0.502" transform="translate(657.632 6115.07)" fill="none" stroke="#263238" stroke-linecap="round" stroke-linejoin="round" stroke-width="0.5"/>
        <line id="Línea_400" data-name="Línea 400" y1="16.464" x2="2.075" transform="translate(655.279 6121.311)" fill="none" stroke="#263238" stroke-linecap="round" stroke-linejoin="round" stroke-width="0.5"/>
        <path id="Trazado_105766" data-name="Trazado 105766" d="M650.845,6084.949s2.976,0,4.27,1.966,3.779,9.736,3.779,9.736l-8.956-2.517-5.427,5.608s-4.975-7.372-2.949-12.051S650.845,6084.949,650.845,6084.949Z" fill="#c1d5e5" stroke="#263238" stroke-linecap="round" stroke-linejoin="round" stroke-width="1"/>
        <path id="Trazado_105767" data-name="Trazado 105767" d="M656.021,6088.733a13.628,13.628,0,0,0-.906-1.818c-1.294-1.993-4.27-1.966-4.27-1.966s-7.246-1.938-9.283,2.731a8.363,8.363,0,0,0-.169,5.045,12.182,12.182,0,0,1,2.184-3.822c1.387-1.387,1.551-.18,1.551-.18l7.765-.617A25.058,25.058,0,0,0,656.021,6088.733Z" fill="#6595bf" opacity="0.5" style="isolation: isolate"/>
        <path id="Trazado_105768" data-name="Trazado 105768" d="M652.123,6080.428s.5,10.331-.8,12.368-2.79,1.256-3.877,0a21.114,21.114,0,0,1-2.315-4.063l-1.327-7.644S651.533,6082.514,652.123,6080.428Z" fill="#ffbf9d" stroke="#263238" stroke-linecap="round" stroke-linejoin="round" stroke-width="1"/>
        <path id="Trazado_105769" data-name="Trazado 105769" d="M649.321,6088.733a5.713,5.713,0,0,0,2.862-1.889v-1.725c-1.273-1.458-4.194-4.211-7.449-3.326-.278.077-.546.164-.791.251l1.179,6.689a20.792,20.792,0,0,0,2.315,4.063l-1.092-4.876A3.085,3.085,0,0,0,649.321,6088.733Z" fill="#d9a171" opacity="0.5" style="isolation: isolate"/>
        <path id="Trazado_105770" data-name="Trazado 105770" d="M656.677,6071.03s1.5-.109,1.529,2.387-1.436,4.592-2.447,3.724S656.4,6069.9,656.677,6071.03Z" fill="#aed3f2" stroke="#263238" stroke-linecap="round" stroke-linejoin="round" stroke-width="1"/>
        <path id="Trazado_105771" data-name="Trazado 105771" d="M646.405,6058.111c-6.809,1.6-8.633,6.006-8.578,9.992a26.815,26.815,0,0,0,1.638,6.941l-.12-.251s-2.048-3.572-2.348-1.426,1.725,4.369,2.4,5.084a1.093,1.093,0,0,0,1.387.077c1.354,3.276,2.867,6.208,3.855,7.006,2.141,1.731,5.149,2.621,7.541.546s4.756-13.908,4.756-13.908C657.5,6060.2,653.215,6056.516,646.405,6058.111Z" fill="#ffbf9d"/>
        <g id="Grupo_57529" data-name="Grupo 57529">
          <g id="Grupo_57528" data-name="Grupo 57528" clip-path="url(#clip-path-2)">
            <g id="Grupo_57527" data-name="Grupo 57527">
              <path id="Trazado_105772" data-name="Trazado 105772" d="M642.78,6070.714s2.375-1.983,4.756-1.983,7.339,2.185,7.928,3.965c.361,1.092-.065,4.614-.464,7.29,1.147-3.768,1.955-7.8,1.955-7.8.546-11.964-3.746-15.661-10.55-14.056s-8.633,6.007-8.578,9.993a26.815,26.815,0,0,0,1.638,6.941l-.12-.252s-2.048-3.571-2.348-1.425,1.725,4.369,2.4,5.084a1.093,1.093,0,0,0,1.387.077c1.354,3.276,2.867,6.208,3.855,7.005,0,0-2.277-5.127-3.069-7.306S640.994,6072.281,642.78,6070.714Z" fill="#d9a171" opacity="0.5" style="isolation: isolate"/>
            </g>
          </g>
        </g>
        <path id="Trazado_105773" data-name="Trazado 105773" d="M646.405,6058.111c-6.809,1.6-8.633,6.006-8.578,9.992a26.815,26.815,0,0,0,1.638,6.941l-.12-.251s-2.048-3.572-2.348-1.426,1.725,4.369,2.4,5.084a1.093,1.093,0,0,0,1.387.077c1.354,3.276,2.867,6.208,3.855,7.006,2.141,1.731,5.149,2.621,7.541.546s4.756-13.908,4.756-13.908C657.5,6060.2,653.215,6056.516,646.405,6058.111Z" fill="none" stroke="#263238" stroke-linecap="round" stroke-linejoin="round" stroke-width="1"/>
        <path id="Trazado_105774" data-name="Trazado 105774" d="M654.411,6075.655a2.348,2.348,0,0,1-3.222.678" fill="none" stroke="#263238" stroke-linecap="round" stroke-linejoin="round" stroke-width="1"/>
        <path id="Trazado_105775" data-name="Trazado 105775" d="M647.143,6076.376a2.348,2.348,0,0,1-3.222.677" fill="none" stroke="#263238" stroke-linecap="round" stroke-linejoin="round" stroke-width="1"/>
        <path id="Trazado_105776" data-name="Trazado 105776" d="M647.492,6074.727a8.174,8.174,0,0,0-2.812-.824,4.491,4.491,0,0,0-2.578,1" fill="none" stroke="#263238" stroke-linecap="round" stroke-linejoin="round" stroke-width="1"/>
        <path id="Trazado_105777" data-name="Trazado 105777" d="M650.626,6080.242a1.276,1.276,0,0,1-1.419,1.092,1.884,1.884,0,0,1-1.71-.977" fill="none" stroke="#263238" stroke-linecap="round" stroke-linejoin="round" stroke-width="1"/>
        <path id="Trazado_105778" data-name="Trazado 105778" d="M651.773,6082.88s-3.189.95-5.237.125a3.923,3.923,0,0,0,2.556,1.917C650.3,6085.244,651.773,6082.88,651.773,6082.88Z" fill="#344154"/>
        <path id="Trazado_105779" data-name="Trazado 105779" d="M654.809,6073.291s-1.2-.1-2.326-.093c-1.038,0-2.07,1.349-2.07,1.349l-.365,1.638" fill="none" stroke="#263238" stroke-linecap="round" stroke-linejoin="round" stroke-width="1"/>
        <path id="Trazado_105780" data-name="Trazado 105780" d="M644.969,6067.4a42.185,42.185,0,0,0,8.066,5.313c4.7,2.348,8.3-2.184,6.1-4.412s2.867,2.446,3.664-.349-6.5-12.39-13.826-12.527-9.1,4.456-9.1,4.456-.863-2.365-1.513-1.06a5.476,5.476,0,0,0-.633,2.3,26.278,26.278,0,0,0-2.14,1.742c-.656.65.185,1.338.185,1.338s-1.31,3.276-.611,5.8l3.762,5.46a2.96,2.96,0,0,0,2.31-1.234c.983-1.288.262-5.307.262-5.307s.06,4.324,1.212,3.374-.546-5.176-.546-5.176Z" fill="#344154"/>
        <path id="Trazado_105781" data-name="Trazado 105781" d="M641.7,6062.932s3.353,2.523,5.778,4.827,6.121,3.189,7.219,2.682" fill="none" stroke="#fff" stroke-linecap="round" stroke-miterlimit="10" stroke-width="0.5"/>
        <path id="Trazado_105782" data-name="Trazado 105782" d="M652.057,6066.1s-4.8-1.092-5.936-3.178-4.63-1.84-4.63-1.84a6.938,6.938,0,0,1,6.607-1.573" fill="none" stroke="#fff" stroke-linecap="round" stroke-miterlimit="10" stroke-width="0.5"/>
        <path id="Trazado_105783" data-name="Trazado 105783" d="M639.875,6063.964s3.756,5.663,1.387,7.405" fill="none" stroke="#fff" stroke-linecap="round" stroke-miterlimit="10" stroke-width="0.5"/>
        <path id="Trazado_105784" data-name="Trazado 105784" d="M627.037,6095.5s-10.2,27.794-9.726,30.9,5.821,1.868,7.509,1.447,8.191-10.741,8.234-12.963a3.5,3.5,0,0,0,1.595-2.392c.4-1.791.671-8.191-1.917-12.991" fill="#aed3f2"/>
        <g id="Grupo_57532" data-name="Grupo 57532">
          <g id="Grupo_57531" data-name="Grupo 57531" clip-path="url(#clip-path-3)">
            <g id="Grupo_57530" data-name="Grupo 57530">
              <path id="Trazado_105785" data-name="Trazado 105785" d="M627.037,6095.5s-10.2,27.794-9.726,30.9c.263,1.7,1.988,2.091,3.768,2.037,1.245-3.511,1.731-9.927,2.665-13.106,1.032-3.554,4.4-12.755,6.443-17.593Z" fill="#6595bf" opacity="0.5" style="isolation: isolate"/>
            </g>
          </g>
        </g>
        <path id="Trazado_105786" data-name="Trazado 105786" d="M627.037,6095.5s-10.2,27.794-9.726,30.9,5.821,1.868,7.509,1.447,8.191-10.741,8.234-12.963a3.5,3.5,0,0,0,1.595-2.392c.4-1.791.671-8.191-1.917-12.991" fill="none" stroke="#263238" stroke-linecap="round" stroke-linejoin="round" stroke-width="1"/>
        <path id="Trazado_105787" data-name="Trazado 105787" d="M634.742,6123.856s-13.106-.8-14.788-.934-3.7,2.184-2.113,5.4,4.1,3.4,7.192,2.812,9.916-4.75,9.916-4.75Z" fill="#aed3f2"/>
        <g id="Grupo_57535" data-name="Grupo 57535">
          <g id="Grupo_57534" data-name="Grupo 57534" clip-path="url(#clip-path-4)">
            <g id="Grupo_57533" data-name="Grupo 57533">
              <path id="Trazado_105788" data-name="Trazado 105788" d="M634.742,6123.856s-13.106-.8-14.788-.934-3.7,2.184-2.113,5.4,4.1,3.4,7.192,2.812,9.916-4.75,9.916-4.75Z" fill="#6595bf" stroke="#263238" stroke-linecap="round" stroke-linejoin="round" stroke-width="1" opacity="0.5" style="isolation: isolate"/>
            </g>
          </g>
        </g>
        <path id="Trazado_105789" data-name="Trazado 105789" d="M634.742,6123.856s-13.106-.8-14.788-.934-3.7,2.184-2.113,5.4,4.1,3.4,7.192,2.812,9.916-4.75,9.916-4.75Z" fill="none" stroke="#263238" stroke-linecap="round" stroke-linejoin="round" stroke-width="1"/>
        <path id="Trazado_105790" data-name="Trazado 105790" d="M636.833,6120.661s1.693-1.8,2.141-1.758,3.735-.142,4.013.628-.164.431-.617.688a15.387,15.387,0,0,1-2.7.546,9.575,9.575,0,0,1,2.523.5c.584.344,3.058,2.626,3.047,3.074s-.311.546-.912.546-.158.431-.322.863-1.349.338-1.349.338.1,1.5-.792,1.42a7.532,7.532,0,0,1-2.5-1.245s-3.314,1.212-4.505,1.119a4.366,4.366,0,0,0-2.249.508A25.526,25.526,0,0,1,636.833,6120.661Z" fill="#ffbf9d"/>
        <g id="Grupo_57538" data-name="Grupo 57538">
          <g id="Grupo_57537" data-name="Grupo 57537" clip-path="url(#clip-path-5)">
            <g id="Grupo_57536" data-name="Grupo 57536">
              <path id="Trazado_105791" data-name="Trazado 105791" d="M636.833,6120.661a25.491,25.491,0,0,0-4.226,7.181,4.366,4.366,0,0,1,2.249-.508,4.705,4.705,0,0,0,1.163-.125,17.459,17.459,0,0,0,.421-3.178c0-1.589,2.534-5.128,2.534-5.128C638.52,6118.865,636.833,6120.661,636.833,6120.661Z" fill="#d9a171" opacity="0.5" style="isolation: isolate"/>
            </g>
          </g>
        </g>
        <path id="Trazado_105792" data-name="Trazado 105792" d="M636.833,6120.661s1.693-1.8,2.141-1.758,3.735-.142,4.013.628-.164.431-.617.688a15.387,15.387,0,0,1-2.7.546,9.575,9.575,0,0,1,2.523.5c.584.344,3.058,2.626,3.047,3.074s-.311.546-.912.546-.158.431-.322.863-1.349.338-1.349.338.1,1.5-.792,1.42a7.532,7.532,0,0,1-2.5-1.245s-3.314,1.212-4.505,1.119a4.366,4.366,0,0,0-2.249.508A25.526,25.526,0,0,1,636.833,6120.661Z" fill="none" stroke="#263238" stroke-linecap="round" stroke-linejoin="round" stroke-width="1"/>
        <path id="Trazado_105793" data-name="Trazado 105793" d="M644.325,6124.839l-2.921-2.321-2.381-.344" fill="none" stroke="#263238" stroke-linecap="round" stroke-linejoin="round" stroke-width="1"/>
        <path id="Trazado_105794" data-name="Trazado 105794" d="M642.648,6126.04l-3.238-1.753-1.485-.268" fill="none" stroke="#263238" stroke-linecap="round" stroke-linejoin="round" stroke-width="1"/>
        <path id="Trazado_105795" data-name="Trazado 105795" d="M672.72,6118.45s-1.693-1.791-2.141-1.758-3.735-.137-4.013.628.164.431.617.693a15.1,15.1,0,0,0,2.7.519,9.392,9.392,0,0,0-2.523.508c-.584.349-3.058,2.626-3.047,3.068s.311.547.912.547.158.431.322.862,1.349.333,1.349.333-.1,1.5.792,1.426a7.437,7.437,0,0,0,2.5-1.245s3.314,1.212,4.505,1.092a4.306,4.306,0,0,1,2.249.513A25.5,25.5,0,0,0,672.72,6118.45Z" fill="#ffbf9d" stroke="#263238" stroke-linecap="round" stroke-linejoin="round" stroke-width="1"/>
        <path id="Trazado_105796" data-name="Trazado 105796" d="M665.228,6122.627l2.916-2.315,2.381-.344" fill="none" stroke="#263238" stroke-linecap="round" stroke-linejoin="round" stroke-width="1"/>
        <path id="Trazado_105797" data-name="Trazado 105797" d="M666.9,6123.829l3.238-1.748,1.485-.273" fill="none" stroke="#263238" stroke-linecap="round" stroke-linejoin="round" stroke-width="1"/>
        <path id="Trazado_105798" data-name="Trazado 105798" d="M674.669,6121.169s5.619-.644,7.547.8,1.6,5.133,1.6,5.133" fill="none" stroke="#263238" stroke-linecap="round" stroke-linejoin="round" stroke-width="1"/>
      </g>
      <g id="freepik--character--inject-1--inject-76-2" data-name="freepik--character--inject-1--inject-76">
        <path id="Trazado_105799" data-name="Trazado 105799" d="M630.28,6239.991a2.326,2.326,0,0,1,2.518-.955c1.916.24,3.118,2.517,1.8,3.232S630.28,6239.991,630.28,6239.991Z" fill="#d9a171" stroke="#263238" stroke-linecap="round" stroke-linejoin="round" stroke-width="1"/>
        <path id="Trazado_105800" data-name="Trazado 105800" d="M633.114,6184.381s4.511.906,6.679,2.348,2.522,1.8,3.063,4.691-1.442,10.642-1.442,14.612-2.888,28.144-2.888,30.137,1.987,6.132,1.807,7.574a8.163,8.163,0,0,0,.361,3.069s1.261.9-.361,1.092-1.807.36-3.249-.361-2.184-4.33-3.429-5.411a5.036,5.036,0,0,1-1.982-3.249c0-.907,2.883-4.325,2.883-4.325s-.36-5.051-.546-9.381-2.184-13.892-2.184-18.02,2.73-13.892,2.73-13.892-7.006.858-9.736-.944S625.18,6182.579,633.114,6184.381Z" fill="#aed3f2" stroke="#263238" stroke-linecap="round" stroke-linejoin="round" stroke-width="1"/>
        <path id="Trazado_105801" data-name="Trazado 105801" d="M633.655,6242.11s-3.276-2.812-3.375-2.1a47.419,47.419,0,0,0,.12,6.951c.241.6,6.711,1.2,10.07,1.8s2.037-1.561,1.316-2.042S633.655,6242.11,633.655,6242.11Z" fill="#d9a171" stroke="#263238" stroke-linecap="round" stroke-linejoin="round" stroke-width="1"/>
        <path id="Trazado_105802" data-name="Trazado 105802" d="M633.655,6242.11s-3.276-2.812-3.375-2.1a47.419,47.419,0,0,0,.12,6.951c.241.6,6.711,1.2,10.07,1.8s2.037-1.561,1.316-2.042S633.655,6242.11,633.655,6242.11Z" opacity="0.2" style="isolation: isolate"/>
        <path id="Trazado_105803" data-name="Trazado 105803" d="M634.594,6245.288a10.538,10.538,0,0,1,2.277-2.037,10.147,10.147,0,0,1,3.358-1.556l1.557,2.992a15.69,15.69,0,0,0-3.113,1.093,9.186,9.186,0,0,0-2.037,1.676S634.834,6246.249,634.594,6245.288Z" fill="#344154" stroke="#263238" stroke-linecap="round" stroke-linejoin="round" stroke-width="1"/>
        <path id="Trazado_105804" data-name="Trazado 105804" d="M637.832,6241.935a1.12,1.12,0,0,0-.971,1.25c0,.022.006.044.01.066.12,1.2.24,5.035.721,5.155s6.471,1.092,8.628,1.2,4.554.12,4.554-.956-.361-1.556-.836-1.556a7.705,7.705,0,0,1-3-1.2c-1.437-.835-4.915-4.073-6.007-4.194S638.433,6240.854,637.832,6241.935Z" fill="#d9a171" stroke="#263238" stroke-linecap="round" stroke-linejoin="round" stroke-width="1"/>
        <path id="Trazado_105805" data-name="Trazado 105805" d="M637.832,6241.935a1.12,1.12,0,0,0-.971,1.25c0,.022.006.044.01.066.12,1.2.24,5.035.721,5.155s6.471,1.092,8.628,1.2,4.554.12,4.554-.956-.361-1.556-.836-1.556a7.705,7.705,0,0,1-3-1.2c-1.437-.835-4.915-4.073-6.007-4.194S638.433,6240.854,637.832,6241.935Z" opacity="0.2" style="isolation: isolate"/>
        <path id="Trazado_105806" data-name="Trazado 105806" d="M587.584,6247.09a2.73,2.73,0,1,0-2.73,2.73A2.73,2.73,0,0,0,587.584,6247.09Z" fill="#344154" stroke="#263238" stroke-linecap="round" stroke-linejoin="round" stroke-width="1"/>
        <circle id="Elipse_4183" data-name="Elipse 4183" cx="1.365" cy="1.365" r="1.365" transform="translate(583.489 6245.719)" fill="#aed3f2" stroke="#263238" stroke-linecap="round" stroke-linejoin="round" stroke-width="1"/>
        <path id="Trazado_105807" data-name="Trazado 105807" d="M616.842,6247.09a2.73,2.73,0,1,0-2.73,2.73A2.73,2.73,0,0,0,616.842,6247.09Z" fill="#344154" stroke="#263238" stroke-linecap="round" stroke-linejoin="round" stroke-width="1"/>
        <path id="Trazado_105808" data-name="Trazado 105808" d="M615.477,6247.09a1.366,1.366,0,1,0-1.365,1.365A1.365,1.365,0,0,0,615.477,6247.09Z" fill="#aed3f2" stroke="#263238" stroke-linecap="round" stroke-linejoin="round" stroke-width="1"/>
        <path id="Trazado_105809" data-name="Trazado 105809" d="M626.4,6247.09a2.73,2.73,0,1,0-2.73,2.73A2.73,2.73,0,0,0,626.4,6247.09Z" fill="#344154" stroke="#263238" stroke-linecap="round" stroke-linejoin="round" stroke-width="1"/>
        <path id="Trazado_105810" data-name="Trazado 105810" d="M625.038,6247.09a1.371,1.371,0,1,0-1.376,1.365h.011A1.365,1.365,0,0,0,625.038,6247.09Z" fill="#aed3f2" stroke="#263238" stroke-linecap="round" stroke-linejoin="round" stroke-width="1"/>
        <rect id="Rectángulo_5885" data-name="Rectángulo 5885" width="5.777" height="43.745" transform="translate(604.097 6200.216)" fill="#344154" stroke="#263238" stroke-linecap="round" stroke-linejoin="round" stroke-width="1"/>
        <rect id="Rectángulo_5886" data-name="Rectángulo 5886" width="8.857" height="20.887" transform="translate(602.562 6223.075)" fill="#344154" stroke="#263238" stroke-linecap="round" stroke-linejoin="round" stroke-width="1"/>
        <path id="Trazado_105811" data-name="Trazado 105811" d="M584.291,6243.137H625.1a2.184,2.184,0,0,1,2.184,2.184v.289H582.107v-.289A2.184,2.184,0,0,1,584.291,6243.137Z" fill="#344154" stroke="#263238" stroke-linecap="round" stroke-linejoin="round" stroke-width="1"/>
        <rect id="Rectángulo_5887" data-name="Rectángulo 5887" width="7.426" height="11.97" transform="translate(593.662 6183.3)" fill="#344154" stroke="#263238" stroke-linecap="round" stroke-linejoin="round" stroke-width="1"/>
        <rect id="Rectángulo_5888" data-name="Rectángulo 5888" width="56.124" height="9.081" rx="4.003" transform="translate(578.924 6193.615)" fill="#d9a171" stroke="#263238" stroke-linecap="round" stroke-linejoin="round" stroke-width="1"/>
        <rect id="Rectángulo_5889" data-name="Rectángulo 5889" width="56.124" height="9.081" rx="4.003" transform="translate(578.924 6193.615)" opacity="0.1" style="isolation: isolate"/>
        <path id="Trazado_105812" data-name="Trazado 105812" d="M635.047,6198.152a4.536,4.536,0,0,0-4.537-4.537H605.751a4.543,4.543,0,0,0-.314,9.081c.1,0,.209,0,.314,0H630.51A4.543,4.543,0,0,0,635.047,6198.152Z" fill="#d9a171" stroke="#263238" stroke-miterlimit="10" stroke-width="1"/>
        <path id="Trazado_105813" data-name="Trazado 105813" d="M635.047,6198.294a4.537,4.537,0,0,0-4.537-4.537H605.751a4.543,4.543,0,0,0-.314,9.081c.1,0,.209,0,.314,0H630.51a4.537,4.537,0,0,0,4.537-4.538Z" opacity="0.1" style="isolation: isolate"/>
        <path id="Trazado_105814" data-name="Trazado 105814" d="M612,6183.305H583.063a5.067,5.067,0,0,1-5.069-5.066c0-.044,0-.088,0-.132l.716-28.215a5.061,5.061,0,0,1,5.067-4.942h23.879a5.061,5.061,0,0,1,5.013,4.3l4.341,28.236a5.066,5.066,0,0,1-5.007,5.821Z" fill="#d9a171" stroke="#263238" stroke-linecap="round" stroke-linejoin="round" stroke-width="1"/>
        <path id="Trazado_105815" data-name="Trazado 105815" d="M612,6183.305H583.063a5.067,5.067,0,0,1-5.069-5.066c0-.044,0-.088,0-.132l.716-28.215a5.061,5.061,0,0,1,5.067-4.942h23.879a5.061,5.061,0,0,1,5.013,4.3l4.341,28.236a5.066,5.066,0,0,1-5.007,5.821Z" opacity="0.1" style="isolation: isolate"/>
        <line id="Línea_401" data-name="Línea 401" x1="12.69" y2="8.355" transform="translate(589.861 6201.249)" fill="none" stroke="#263238" stroke-linecap="round" stroke-linejoin="round" stroke-width="1"/>
        <path id="Trazado_105816" data-name="Trazado 105816" d="M589.381,6208.32l-2.185,1.469a1.4,1.4,0,0,0-.368,1.95,1.347,1.347,0,0,0,.172.207l.185.175a1.393,1.393,0,0,0,1.863.081l2-1.638a1.4,1.4,0,0,0,.186-1.968c-.023-.027-.047-.054-.071-.079h0A1.393,1.393,0,0,0,589.381,6208.32Z" fill="#344154" stroke="#263238" stroke-linecap="round" stroke-linejoin="round" stroke-width="1"/>
        <path id="Trazado_105817" data-name="Trazado 105817" d="M604.534,6243.137h12.521a2.184,2.184,0,0,1,2.184,2.184v.289H604.534v-2.473Z" fill="#344154" stroke="#263238" stroke-linecap="round" stroke-linejoin="round" stroke-width="1"/>
        <ellipse id="Elipse_4184" data-name="Elipse 4184" cx="4.472" cy="2.545" rx="4.472" ry="2.545" transform="translate(610.087 6163.674)" fill="#aed3f2" stroke="#263238" stroke-linecap="round" stroke-linejoin="round" stroke-width="1"/>
        <path id="Trazado_105818" data-name="Trazado 105818" d="M627,6187.089s7.213.361,8.841,4.15a17.339,17.339,0,0,1,.546,3.97c0,1.982,6.673,40.228,6.853,40.954s4.15,6.313,4.69,7.574,1.092,2.348,1.092,2.348,1.639.721,1.448,1.262-3.97.721-5.592.721-3.429-3.965-4.511-4.331-2.348-1.638-2.348-2.342.546-5.952.546-5.952a53.442,53.442,0,0,0-3.6-12.45c-2.413-5.5-5.416-13.532-5.777-17.316s-.36-7.4-.36-7.4l-4.554-.726S623.728,6188.171,627,6187.089Z" fill="#aed3f2" stroke="#263238" stroke-linecap="round" stroke-linejoin="round" stroke-width="1"/>
        <path id="Trazado_105819" data-name="Trazado 105819" d="M641.666,6245.528s1.441-5.87,5.154-3.593l1.557,2.632a4.937,4.937,0,0,0-4.554,3.359A3.436,3.436,0,0,1,641.666,6245.528Z" fill="#344154" stroke="#263238" stroke-linecap="round" stroke-linejoin="round" stroke-width="1"/>
        <path id="Trazado_105820" data-name="Trazado 105820" d="M612.075,6176.135l-.175.028c-1.638-6.673-3.85-13.493-3.85-13.493s-10.85,2.866-17.108.922c0,0-3.183,15.678-3.183,19.773,0,3.277-.677,6.607,1.8,8.53a3.187,3.187,0,0,0,2.086,1.348c6.765,1.273,18.424.83,20.368,1.218s12.259,3.091,12.259,3.091a35.765,35.765,0,0,1,2.364-9.381c1.747-3.692,9.725-3.064,9.725-3.064Z" fill="#6595bf" stroke="#263238" stroke-linecap="round" stroke-linejoin="round" stroke-width="1"/>
        <path id="Trazado_105821" data-name="Trazado 105821" d="M609.568,6132.418a1.847,1.847,0,0,0-3.112.191c-1.616,2.07-.333,9.256.464,12.128s14.263,14.787,15.53,15.672,17.774,4.614,19.216,3.932,1.856-4.14,1.037-6.007-16.245-5.832-16.245-5.832Z" fill="#aed3f2"/>
        <g id="Grupo_57541" data-name="Grupo 57541">
          <g id="Grupo_57540" data-name="Grupo 57540" clip-path="url(#clip-path-6)">
            <g id="Grupo_57539" data-name="Grupo 57539">
              <path id="Trazado_105822" data-name="Trazado 105822" d="M622.45,6160.42c1.267.879,17.774,4.614,19.216,3.931.83-.393,1.316-1.714,1.425-3.117a20.683,20.683,0,0,0-6.979-1.639c-2.037.115-.671,2.015-3.937,1.48a33.276,33.276,0,0,1-10.375-4.117c-3.386-1.933-9.463-7.645-9.463-7.645l4.767.546-5.433-1.676,4.723-1.775-4.057-.24a4.912,4.912,0,0,0,.355-2.026c0-1.4-2.676-6.613-2.676-6.613l-2.839,7.8C609.159,6148.893,621.254,6159.584,622.45,6160.42Z" fill="#d9a171" opacity="0.5" style="isolation: isolate"/>
            </g>
          </g>
        </g>
        <path id="Trazado_105823" data-name="Trazado 105823" d="M609.568,6132.418a1.847,1.847,0,0,0-3.112.191c-1.616,2.07-.333,9.256.464,12.128s14.263,14.787,15.53,15.672,17.774,4.614,19.216,3.932,1.856-4.14,1.037-6.007-16.245-5.832-16.245-5.832Z" fill="none" stroke="#263238" stroke-linecap="round" stroke-linejoin="round" stroke-width="1"/>
        <path id="Trazado_105824" data-name="Trazado 105824" d="M614.871,6147.506l-3.708,1.436,6.236,2.075" fill="none" stroke="#263238" stroke-linecap="round" stroke-linejoin="round" stroke-width="0.5"/>
        <path id="Trazado_105825" data-name="Trazado 105825" d="M641.7,6158.318a2.413,2.413,0,0,0-1.895,1.96c-.322,1.709,1.36,3.167,1.36,3.167s3.544,1.218,4.6-1.638S643.418,6158.208,641.7,6158.318Z" fill="#aed3f2"/>
        <g id="Grupo_57544" data-name="Grupo 57544">
          <g id="Grupo_57543" data-name="Grupo 57543" clip-path="url(#clip-path-7)">
            <g id="Grupo_57542" data-name="Grupo 57542">
              <path id="Trazado_105826" data-name="Trazado 105826" d="M641.169,6163.445s3.025,1.032,4.319-1.048a23.141,23.141,0,0,0-5.652-2.234,1.118,1.118,0,0,0-.027.115C639.487,6161.987,641.169,6163.445,641.169,6163.445Z" fill="#d9a171" opacity="0.5" style="isolation: isolate"/>
            </g>
          </g>
        </g>
        <path id="Trazado_105827" data-name="Trazado 105827" d="M641.7,6158.318a2.413,2.413,0,0,0-1.895,1.96c-.322,1.709,1.36,3.167,1.36,3.167s3.544,1.218,4.6-1.638S643.418,6158.208,641.7,6158.318Z" fill="none" stroke="#263238" stroke-linecap="round" stroke-linejoin="round" stroke-width="1"/>
        <path id="Trazado_105828" data-name="Trazado 105828" d="M652.172,6162.266a4.627,4.627,0,0,1,2.6,1.354c1.032,1.163.191,1.638-.47,1.469S651.467,6161.709,652.172,6162.266Z" fill="#aed3f2" stroke="#263238" stroke-linecap="round" stroke-linejoin="round" stroke-width="1"/>
        <path id="Trazado_105829" data-name="Trazado 105829" d="M651.484,6162.053a4.627,4.627,0,0,1,2.386,1.7c.863,1.289-.038,1.638-.666,1.387S650.861,6161.4,651.484,6162.053Z" fill="#aed3f2" stroke="#263238" stroke-linecap="round" stroke-linejoin="round" stroke-width="1"/>
        <path id="Trazado_105830" data-name="Trazado 105830" d="M645.3,6159.508s-1.638.6-1.818,1.638a2.342,2.342,0,0,0,.6,1.791,10.6,10.6,0,0,0,2.26,1.447c.623.137,2.021.934,2.185.175s-1.5-1.431-1.5-1.431,3.173.191,3.277.83,1.25,1.3,2.266,1.316-.213-2.036-.459-2.55S647.334,6159.546,645.3,6159.508Z" fill="#ffbf9d" stroke="#263238" stroke-linecap="round" stroke-linejoin="round" stroke-width="1"/>
        <path id="Trazado_105831" data-name="Trazado 105831" d="M593.3,6127.323s-9.982,5.8-10.762,6.187-1.557,6.389-1.557,6.957,9.982,23.125,9.982,23.125,2.457,2.081,9.649,2.081,7.749-1.092,7.749-1.092l.573-9.518s2.457-6.433,2.648-7.568-2.015-15.077-2.015-15.077l-10.211-6.809S595.2,6123.162,593.3,6127.323Z" fill="#aed3f2"/>
        <g id="Grupo_57547" data-name="Grupo 57547">
          <g id="Grupo_57546" data-name="Grupo 57546" clip-path="url(#clip-path-8)">
            <g id="Grupo_57545" data-name="Grupo 57545">
              <path id="Trazado_105832" data-name="Trazado 105832" d="M583.554,6137.638c.781-1.25,7.967-5.935,7.967-5.935l2.654-1.562,3.4-5.16a3.637,3.637,0,0,0-4.276,2.342s-10,5.8-10.762,6.182-1.557,6.389-1.557,6.956c0,.126.47,1.284,1.2,3.026A18.034,18.034,0,0,1,583.554,6137.638Z" fill="#d9a171" opacity="0.5" style="isolation: isolate"/>
            </g>
          </g>
        </g>
        <path id="Trazado_105833" data-name="Trazado 105833" d="M593.3,6127.323s-9.982,5.8-10.762,6.187-1.557,6.389-1.557,6.957,9.982,23.125,9.982,23.125,2.457,2.081,9.649,2.081,7.749-1.092,7.749-1.092l.573-9.518s2.457-6.433,2.648-7.568-2.015-15.077-2.015-15.077l-10.211-6.809S595.2,6123.162,593.3,6127.323Z" fill="none" stroke="#263238" stroke-linecap="round" stroke-linejoin="round" stroke-width="1"/>
        <path id="Trazado_105834" data-name="Trazado 105834" d="M596.649,6136.328l2.91,3.14-.606,13.351,4.259,1.125.448-5.832,1.567,6.056,3.14-3.14-6.788-11.784.9-3.587-3.811-4.259-2.463,5.832" fill="#344154" stroke="#263238" stroke-linecap="round" stroke-linejoin="round" stroke-width="1"/>
        <path id="Trazado_105835" data-name="Trazado 105835" d="M591.352,6127.356a32.3,32.3,0,0,0,1.452,6.007c.83,1.851,2.7,4.991,2.7,4.991l3.948-3.954,3.954,2.731s-.415-6.859-1.873-9.977S593.012,6120.913,591.352,6127.356Z" fill="#aed3f2" stroke="#263238" stroke-linecap="round" stroke-linejoin="round" stroke-width="1"/>
        <path id="Trazado_105836" data-name="Trazado 105836" d="M594.175,6130.141l3.948-6.007a6.66,6.66,0,0,0-2.277-.546c-.677.137-1.442.306-2.25.486a4.885,4.885,0,0,0-2.244,3.277s.311,2.1.792,3.98Z" fill="#d9a171" opacity="0.5" style="isolation: isolate"/>
        <path id="Trazado_105837" data-name="Trazado 105837" d="M601.121,6126.106a9.279,9.279,0,0,0-.83,3.746c0,2.075.415,4.368.415,5.406v3.118s-2.5-3.118-4.369-5.406-3.325-4.369-3.118-6.236,2.081-9.152,2.081-9.152a5.3,5.3,0,0,1,4.783,2.91A8.495,8.495,0,0,1,601.121,6126.106Z" fill="#ffbf9d" stroke="#263238" stroke-linecap="round" stroke-linejoin="round" stroke-width="1"/>
        <path id="Trazado_105838" data-name="Trazado 105838" d="M594.645,6122.491l-.623.3c-.382,1.638-.721,3.205-.8,3.943-.2,1.8,1.147,3.822,2.922,6.006l.224-4.3,4.756-2.321-3.823-3.773Z" fill="#d9a171" opacity="0.5" style="isolation: isolate"/>
        <path id="Trazado_105839" data-name="Trazado 105839" d="M605.162,6123.872s-1.376,2.55.109,2.654,1.163-1.168,1.376-1.589,1.169.546.639,2.545-3.184,3.4-4.778,1.8a3.789,3.789,0,0,1-.634-4.56C602.4,6123.441,604.539,6122.813,605.162,6123.872Z" fill="#344154" stroke="#263238" stroke-linecap="round" stroke-linejoin="round" stroke-width="1"/>
        <path id="Trazado_105840" data-name="Trazado 105840" d="M602.18,6101.331c-.464-.065-.95-.115-1.452-.142-1.83-.093-3.823.027-5.248,1.169-2.96,2.37-2.463,7.131-2.25,10.446.241,3.762.191,9.25,3.015,11.975,4.767,4.6,12.22-.322,12.22-5.772,0-2.3.088-5.816.241-6.6a23.3,23.3,0,0,0,.409-2.943C609.443,6104.444,606.6,6101.959,602.18,6101.331Z" fill="#ffbf9d" stroke="#263238" stroke-linecap="round" stroke-linejoin="round" stroke-width="1"/>
        <path id="Trazado_105841" data-name="Trazado 105841" d="M603.939,6125.762a32.038,32.038,0,0,1-3.987-.306c-2.026-.311-4.838-3.593-3.434-8.12a26.412,26.412,0,0,0,1.408-6.875l-4.778-2.987a34.241,34.241,0,0,0,.088,5.33c.24,3.762.191,9.25,3.014,11.975A6.434,6.434,0,0,0,603.939,6125.762Z" fill="#d9a171" opacity="0.5" style="isolation: isolate"/>
        <ellipse id="Elipse_4185" data-name="Elipse 4185" cx="0.541" cy="0.928" rx="0.541" ry="0.928" transform="translate(600.689 6114)" fill="#344154"/>
        <path id="Trazado_105842" data-name="Trazado 105842" d="M606.565,6115.157c-.033.513-.306.912-.6.89s-.513-.448-.48-.961.3-.912.6-.89S606.6,6114.644,606.565,6115.157Z" fill="#344154"/>
        <path id="Trazado_105843" data-name="Trazado 105843" d="M599.554,6112.705s1.092-2.3,2.845-1.217" fill="#aed3f2" stroke="#263238" stroke-linecap="round" stroke-linejoin="round" stroke-width="1"/>
        <path id="Trazado_105844" data-name="Trazado 105844" d="M605.244,6111.892s1.294-1.486,2.031.95" fill="#aed3f2" stroke="#263238" stroke-linecap="round" stroke-linejoin="round" stroke-width="1"/>
        <path id="Trazado_105845" data-name="Trazado 105845" d="M604.4,6116.774v.267c.136.95.813,1.638.546,2.031s-1.638.546-1.638.546" fill="#aed3f2" stroke="#263238" stroke-linecap="round" stroke-linejoin="round" stroke-width="1"/>
        <path id="Trazado_105846" data-name="Trazado 105846" d="M602.8,6121.786s-2.387.738-3.277-1.19" fill="#aed3f2" stroke="#263238" stroke-linecap="round" stroke-linejoin="round" stroke-width="1"/>
        <circle id="Elipse_4186" data-name="Elipse 4186" cx="2.807" cy="2.807" r="2.807" transform="translate(597.959 6111.586)" fill="none" stroke="#263238" stroke-linecap="round" stroke-linejoin="round" stroke-width="0.5"/>
        <ellipse id="Elipse_4187" data-name="Elipse 4187" cx="2.517" cy="2.807" rx="2.517" ry="2.807" transform="translate(604.599 6111.586)" fill="none" stroke="#263238" stroke-linecap="round" stroke-linejoin="round" stroke-width="0.5"/>
        <line id="Línea_402" data-name="Línea 402" x1="4.008" y2="0.169" transform="translate(593.951 6114.393)" fill="none" stroke="#263238" stroke-linecap="round" stroke-linejoin="round" stroke-width="0.5"/>
        <line id="Línea_403" data-name="Línea 403" x1="1.027" transform="translate(608.607 6114.393)" fill="none" stroke="#263238" stroke-linecap="round" stroke-linejoin="round" stroke-width="0.5"/>
        <line id="Línea_404" data-name="Línea 404" x2="1.163" transform="translate(603.567 6113.535)" fill="none" stroke="#263238" stroke-linecap="round" stroke-linejoin="round" stroke-width="0.5"/>
        <path id="Trazado_105847" data-name="Trazado 105847" d="M607.133,6098.016a45.87,45.87,0,0,0-6.34-.655,11.689,11.689,0,0,0-8.737.219c-7.18,2.806-7.022,12.4-5.242,18.5.546,1.846,1.829,4.647.65,6.5a1.41,1.41,0,0,1-2.545-1.06c.323-1.6.847-1.059,1.273-1.272s-.213-.426-1.169-.743-1.791.546-1.911,2.649c-.317,5.733,8.131,9.528,11.352,4.516,1.311-2.185.148-5.98-.42-8.737a24.022,24.022,0,0,1-.366-2.889,4.073,4.073,0,0,0,2.648-1.338,12.177,12.177,0,0,0,1.289-2.222,12.2,12.2,0,0,1,1.218.071c4.368.437,5.69-7,5.69-7s2.184,4.156,2.839,5.69l.656,1.529s1.752.219,3.5-3.5S611.288,6098.688,607.133,6098.016Z" fill="#344154" stroke="#263238" stroke-linecap="round" stroke-linejoin="round" stroke-width="1"/>
        <path id="Trazado_105848" data-name="Trazado 105848" d="M604.272,6102.811s5.373,1.846,5.537,5.034-.672,3.353-.672,3.353" fill="none" stroke="#fff" stroke-linecap="round" stroke-miterlimit="10" stroke-width="0.5"/>
        <path id="Trazado_105849" data-name="Trazado 105849" d="M603.6,6101.637s5.03-1.174,6.711,2.184" fill="none" stroke="#fff" stroke-linecap="round" stroke-miterlimit="10" stroke-width="0.5"/>
        <path id="Trazado_105850" data-name="Trazado 105850" d="M597.4,6098.279s5.029,2.517,5.87,4.87-3.522,6.875-6.378,7.716-5.029-.169-7.044,1.343-1.174,5.7-1.174,5.7" fill="none" stroke="#fff" stroke-linecap="round" stroke-miterlimit="10" stroke-width="0.5"/>
        <path id="Trazado_105851" data-name="Trazado 105851" d="M587.142,6113.213s-1.344-3.189,1.512-4.865,5.368,0,8.557-2.015a7.829,7.829,0,0,0,3.691-4.527" fill="none" stroke="#fff" stroke-linecap="round" stroke-miterlimit="10" stroke-width="0.5"/>
        <path id="Trazado_105852" data-name="Trazado 105852" d="M594.53,6116.107s-1.764-4.286-3.533-2.774,1.261,5.548,3.276,5.046" fill="#aed3f2" stroke="#263238" stroke-linecap="round" stroke-linejoin="round" stroke-width="1"/>
        <path id="Trazado_105853" data-name="Trazado 105853" d="M594.53,6116.107s-1.764-4.286-3.533-2.774,1.261,5.548,3.276,5.046" fill="#d9a171" stroke="#263238" stroke-linecap="round" stroke-linejoin="round" stroke-width="1" opacity="0.37" style="isolation: isolate"/>
        <path id="Trazado_105854" data-name="Trazado 105854" d="M583.756,6133.942s-.857-.645-2.763.791-3.68,7.967-2.49,10.736,4.369,17.162,5.848,17.949,17.392.721,19.271.278,3.189-2.9,2.872-5.024a3.3,3.3,0,0,0-3.031-2.692c-.617-.016-13.291-.737-13.291-.737l-3.937-16.633" fill="#aed3f2"/>
        <g id="Grupo_57550" data-name="Grupo 57550">
          <g id="Grupo_57549" data-name="Grupo 57549" clip-path="url(#clip-path-9)">
            <g id="Grupo_57548" data-name="Grupo 57548">
              <path id="Trazado_105855" data-name="Trazado 105855" d="M604.124,6160.13c-.906-1.119-15.333.83-16.873,0s-2.283-2.408-1.158-3.472-2.151-1.306-2.124-2.245,1.906-1.2,1.786-2.452-4.178-1.518-4.079-5.111,1-7.939,1.813-9.168a7.668,7.668,0,0,1,1.54-1.354l-1.273-2.392s-.857-.644-2.763.792-3.68,7.972-2.49,10.741,4.369,17.162,5.848,17.949,17.392.721,19.271.278a3.99,3.99,0,0,0,2.588-2.594A4.9,4.9,0,0,1,604.124,6160.13Z" fill="#d9a171" opacity="0.5" style="isolation: isolate"/>
            </g>
          </g>
        </g>
        <path id="Trazado_105856" data-name="Trazado 105856" d="M583.756,6133.942s-.857-.645-2.763.791-3.68,7.967-2.49,10.736,4.369,17.162,5.848,17.949,17.392.721,19.271.278,3.189-2.9,2.872-5.024a3.3,3.3,0,0,0-3.031-2.692c-.617-.016-13.291-.737-13.291-.737l-3.937-16.633" fill="none" stroke="#263238" stroke-linecap="round" stroke-linejoin="round" stroke-width="1"/>
        <path id="Trazado_105857" data-name="Trazado 105857" d="M585.351,6158.312c.939-2.763,4.816-2.818,4.816-2.818a10.836,10.836,0,0,0-4.734-.169" fill="none" stroke="#263238" stroke-linecap="round" stroke-linejoin="round" stroke-width="0.5"/>
        <path id="Trazado_105858" data-name="Trazado 105858" d="M605.806,6156.668a3.206,3.206,0,0,0-1.944,2.927,2.8,2.8,0,0,0,1.786,2.911c.366.256,2.572,1.441,3.462.715a3.811,3.811,0,0,0,1.092-4.319C609.355,6157.264,606.674,6156.69,605.806,6156.668Z" fill="#aed3f2"/>
        <g id="Grupo_57553" data-name="Grupo 57553">
          <g id="Grupo_57552" data-name="Grupo 57552" clip-path="url(#clip-path-10)">
            <g id="Grupo_57551" data-name="Grupo 57551">
              <path id="Trazado_105859" data-name="Trazado 105859" d="M609.11,6163.221a3.564,3.564,0,0,0,.6-.655l-1.856-.988c-1.7-.47-3.326-.951-3.73-1.448a.594.594,0,0,0-.256-.158,2.763,2.763,0,0,0,1.78,2.534C606,6162.746,608.22,6163.947,609.11,6163.221Z" fill="#d9a171" opacity="0.5" style="isolation: isolate"/>
            </g>
          </g>
        </g>
        <path id="Trazado_105860" data-name="Trazado 105860" d="M605.806,6156.668a3.206,3.206,0,0,0-1.944,2.927,2.8,2.8,0,0,0,1.786,2.911c.366.256,2.572,1.441,3.462.715a3.811,3.811,0,0,0,1.092-4.319C609.355,6157.264,606.674,6156.69,605.806,6156.668Z" fill="none" stroke="#263238" stroke-linecap="round" stroke-linejoin="round" stroke-width="1"/>
        <path id="Trazado_105861" data-name="Trazado 105861" d="M608.88,6158.672s-1.354.519-1.54,1.54-.12,1.573.115,1.639,1.016.42,1.016.42l2.408,1.25s1.911,2.185,2.539,2.359.087-.234,0-.709a9.183,9.183,0,0,0-1.054-1.923l2.851,2.523s.939.339.72-.377a9.337,9.337,0,0,0-1.676-2.184l2.692,2.441s.546.251.546-.065a.932.932,0,0,0-.295-.874c-.306-.246-2.14-2.348-2.14-2.348l2.555,1.567s.546.726.929.737.163-.235-.126-1.092-2.233-2.113-2.927-2.6S611.01,6158.733,608.88,6158.672Z" fill="#ffbf9d" stroke="#263238" stroke-linecap="round" stroke-linejoin="round" stroke-width="1"/>
      </g>
      <g id="freepik--Desk--inject-1--inject-76">
        <path id="Trazado_105862" data-name="Trazado 105862" d="M731.055,6158.017H709.726l3.839-12.45h21.329Z" fill="#344154" stroke="#263238" stroke-linecap="round" stroke-linejoin="round" stroke-width="1"/>
        <path id="Trazado_105863" data-name="Trazado 105863" d="M729.379,6159.191H708.055l3.839-12.456h21.324Z" fill="#aed3f2" stroke="#263238" stroke-linecap="round" stroke-linejoin="round" stroke-width="1"/>
        <path id="Trazado_105864" data-name="Trazado 105864" d="M698.734,6154.26h35.144a3.277,3.277,0,0,1,3.277,3.277v9.163H698.734v-12.44Z" fill="#344154" stroke="#263238" stroke-linecap="round" stroke-linejoin="round" stroke-width="1"/>
        <rect id="Rectángulo_5890" data-name="Rectángulo 5890" width="38.437" height="12.456" transform="translate(692.427 6154.26)" fill="#aed3f2" stroke="#263238" stroke-linecap="round" stroke-linejoin="round" stroke-width="1"/>
        <rect id="Rectángulo_5891" data-name="Rectángulo 5891" width="30.705" height="1.644" transform="translate(691.51 6163.374)" fill="#aed3f2" stroke="#263238" stroke-linecap="round" stroke-linejoin="round" stroke-width="1"/>
        <rect id="Rectángulo_5892" data-name="Rectángulo 5892" width="24.152" height="1.644" transform="translate(698.062 6161.73)" fill="#344154" stroke="#263238" stroke-linecap="round" stroke-linejoin="round" stroke-width="1"/>
        <rect id="Rectángulo_5893" data-name="Rectángulo 5893" width="24.229" height="1.13" transform="translate(667.407 6165.504)" fill="#aed3f2" stroke="#263238" stroke-linecap="round" stroke-linejoin="round" stroke-width="1"/>
        <rect id="Rectángulo_5894" data-name="Rectángulo 5894" width="52.225" height="33.681" transform="translate(658.042 6125.494)" fill="#aed3f2" stroke="#263238" stroke-linecap="round" stroke-linejoin="round" stroke-width="1"/>
        <rect id="Rectángulo_5895" data-name="Rectángulo 5895" width="49.374" height="33.681" transform="translate(660.892 6125.494)" fill="#344154" stroke="#263238" stroke-linecap="round" stroke-linejoin="round" stroke-width="1"/>
        <rect id="Rectángulo_5896" data-name="Rectángulo 5896" width="11.429" height="26.003" transform="translate(680.769 6141.144)" fill="#aed3f2" stroke="#263238" stroke-linecap="round" stroke-linejoin="round" stroke-width="1"/>
        <rect id="Rectángulo_5897" data-name="Rectángulo 5897" width="11.429" height="26.003" transform="translate(681.823 6141.144)" fill="#344154" stroke="#263238" stroke-linecap="round" stroke-linejoin="round" stroke-width="1"/>
        <path id="Trazado_105865" data-name="Trazado 105865" d="M681.064,6141.45h12.456v17.807" fill="none" stroke="#fff" stroke-linejoin="round" stroke-width="1"/>
        <rect id="Rectángulo_5898" data-name="Rectángulo 5898" width="34.986" height="1.829" transform="translate(622.696 6164.897)" fill="#aed3f2" stroke="#263238" stroke-linecap="round" stroke-linejoin="round" stroke-width="1"/>
        <rect id="Rectángulo_5899" data-name="Rectángulo 5899" width="34.986" height="1.829" transform="translate(631.738 6164.897)" fill="#aed3f2" stroke="#263238" stroke-linecap="round" stroke-linejoin="round" stroke-width="1"/>
        <path id="Trazado_105866" data-name="Trazado 105866" d="M621.347,6169.741H567.74l-2.544,78.337a1.638,1.638,0,0,0,1.529,1.741h.027a1.6,1.6,0,0,0,1.556-1.512l5.117-64.015a4.575,4.575,0,0,1,4.423-4.313h33.391a4.571,4.571,0,0,1,4.418,4.313l5.122,64a1.6,1.6,0,0,0,1.551,1.512h0a1.638,1.638,0,0,0,1.563-1.709l0-.027Z" fill="#d9a171" stroke="#263238" stroke-linecap="round" stroke-linejoin="round" stroke-width="1"/>
        <path id="Trazado_105867" data-name="Trazado 105867" d="M621.467,6173.345l-.12-3.6H567.74l-.12,3.6Z" fill="#344154" stroke="#263238" stroke-linecap="round" stroke-linejoin="round" stroke-width="1"/>
        <path id="Trazado_105868" data-name="Trazado 105868" d="M743.423,6169.741H689.8l-2.54,78.337a1.64,1.64,0,0,0,1.535,1.736h.022a1.6,1.6,0,0,0,1.55-1.513l5.133-64.009a4.576,4.576,0,0,1,4.423-4.313h33.392a4.569,4.569,0,0,1,4.417,4.313l5.122,64a1.606,1.606,0,0,0,1.551,1.523h0a1.638,1.638,0,0,0,1.558-1.715v-.021Z" fill="#d9a171" stroke="#263238" stroke-linecap="round" stroke-linejoin="round" stroke-width="1"/>
        <path id="Trazado_105869" data-name="Trazado 105869" d="M743.778,6173.345l-.115-3.6H690.052l-.115,3.6Z" fill="#344154" stroke="#263238" stroke-linecap="round" stroke-linejoin="round" stroke-width="1"/>
        <rect id="Rectángulo_5900" data-name="Rectángulo 5900" width="183.563" height="4.128" transform="translate(563.394 6166.716)" fill="#aed3f2" stroke="#263238" stroke-linecap="round" stroke-linejoin="round" stroke-width="1"/>
        <rect id="Rectángulo_5901" data-name="Rectángulo 5901" width="131.567" height="4.128" transform="translate(615.395 6166.716)" fill="#aed3f2" stroke="#263238" stroke-linecap="round" stroke-linejoin="round" stroke-width="1"/>
      </g>
    </g>
  </g>
</svg>
