<svg xmlns="http://www.w3.org/2000/svg" xmlns:xlink="http://www.w3.org/1999/xlink" width="799.66" height="361.996" viewBox="0 0 799.66 361.996">
  <defs>
    <clipPath id="clip-path">
      <rect id="Rectángulo_8430" data-name="Rectángulo 8430" width="71.98" height="31.73" transform="translate(207.43 46.63)" fill="none"/>
    </clipPath>
    <clipPath id="clip-path-2">
      <rect id="Rectángulo_8432" data-name="Rectángulo 8432" width="75.83" height="12.72" transform="translate(406.7 312.39)" fill="none"/>
    </clipPath>
    <clipPath id="clip-path-3">
      <rect id="Rectángulo_8434" data-name="Rectángulo 8434" width="59.17" height="27.22" transform="translate(437.26 243.28)" fill="none"/>
    </clipPath>
  </defs>
  <g id="Capa_2" data-name="Capa 2" transform="translate(-100.17 -19)">
    <g id="Grupo_59480" data-name="Grupo 59480">
      <rect id="Rectángulo_8428" data-name="Rectángulo 8428" width="285.76" height="184.17" rx="12.51" transform="translate(447.59 19.02)" fill="#f2e9e4"/>
      <rect id="Rectángulo_8429" data-name="Rectángulo 8429" width="227.93" height="146.89" rx="12.51" transform="translate(132.45 172.15)" fill="#fff7db"/>
    </g>
    <g id="Grupo_59488" data-name="Grupo 59488">
      <g id="Grupo_59483" data-name="Grupo 59483">
        <g id="Grupo_59482" data-name="Grupo 59482" opacity="0.5">
          <g id="Grupo_59481" data-name="Grupo 59481" clip-path="url(#clip-path)">
            <line id="Línea_405" data-name="Línea 405" y1="35.92" x2="173.89" transform="translate(189.81 17.47)" fill="none" stroke="#d9a171" stroke-miterlimit="10" stroke-width="0.75"/>
            <line id="Línea_406" data-name="Línea 406" y1="35.92" x2="173.89" transform="translate(189.81 22.04)" fill="none" stroke="#d9a171" stroke-miterlimit="10" stroke-width="0.75"/>
            <line id="Línea_407" data-name="Línea 407" y1="35.92" x2="173.89" transform="translate(189.81 26.6)" fill="none" stroke="#d9a171" stroke-miterlimit="10" stroke-width="0.75"/>
            <line id="Línea_408" data-name="Línea 408" y1="35.92" x2="173.89" transform="translate(189.81 31.16)" fill="none" stroke="#d9a171" stroke-miterlimit="10" stroke-width="0.75"/>
            <line id="Línea_409" data-name="Línea 409" y1="35.92" x2="173.89" transform="translate(189.81 35.73)" fill="none" stroke="#d9a171" stroke-miterlimit="10" stroke-width="0.75"/>
            <line id="Línea_410" data-name="Línea 410" y1="35.92" x2="173.89" transform="translate(189.81 40.29)" fill="none" stroke="#d9a171" stroke-miterlimit="10" stroke-width="0.75"/>
            <line id="Línea_411" data-name="Línea 411" y1="35.92" x2="173.89" transform="translate(189.81 44.86)" fill="none" stroke="#d9a171" stroke-miterlimit="10" stroke-width="0.75"/>
            <line id="Línea_412" data-name="Línea 412" y1="35.92" x2="173.89" transform="translate(189.81 49.42)" fill="none" stroke="#d9a171" stroke-miterlimit="10" stroke-width="0.75"/>
            <line id="Línea_413" data-name="Línea 413" y1="35.92" x2="173.89" transform="translate(189.81 53.99)" fill="none" stroke="#d9a171" stroke-miterlimit="10" stroke-width="0.75"/>
            <line id="Línea_414" data-name="Línea 414" y1="35.92" x2="173.89" transform="translate(189.81 58.55)" fill="none" stroke="#d9a171" stroke-miterlimit="10" stroke-width="0.75"/>
            <line id="Línea_415" data-name="Línea 415" y1="35.92" x2="173.89" transform="translate(189.81 63.11)" fill="none" stroke="#d9a171" stroke-miterlimit="10" stroke-width="0.75"/>
            <line id="Línea_416" data-name="Línea 416" y1="35.92" x2="173.89" transform="translate(189.81 67.68)" fill="none" stroke="#d9a171" stroke-miterlimit="10" stroke-width="0.75"/>
            <line id="Línea_417" data-name="Línea 417" y1="35.92" x2="173.89" transform="translate(189.81 72.24)" fill="none" stroke="#d9a171" stroke-miterlimit="10" stroke-width="0.75"/>
            <line id="Línea_418" data-name="Línea 418" y1="35.92" x2="173.89" transform="translate(189.81 76.81)" fill="none" stroke="#d9a171" stroke-miterlimit="10" stroke-width="0.75"/>
            <line id="Línea_419" data-name="Línea 419" y1="35.92" x2="173.89" transform="translate(189.81 81.37)" fill="none" stroke="#d9a171" stroke-miterlimit="10" stroke-width="0.75"/>
            <line id="Línea_420" data-name="Línea 420" y1="35.93" x2="173.89" transform="translate(189.81 85.93)" fill="none" stroke="#d9a171" stroke-miterlimit="10" stroke-width="0.75"/>
            <line id="Línea_421" data-name="Línea 421" y1="35.92" x2="173.89" transform="translate(189.81 90.5)" fill="none" stroke="#d9a171" stroke-miterlimit="10" stroke-width="0.75"/>
          </g>
        </g>
        <rect id="Rectángulo_8431" data-name="Rectángulo 8431" width="33.59" height="7.33" transform="translate(241.03 36.41) rotate(180)" fill="#e5f1fb"/>
      </g>
      <g id="Grupo_59485" data-name="Grupo 59485">
        <g id="Grupo_59484" data-name="Grupo 59484" clip-path="url(#clip-path-2)">
          <line id="Línea_422" data-name="Línea 422" y1="35.92" x2="173.9" transform="translate(362.92 283.24)" fill="none" stroke="#ffc0ad" stroke-miterlimit="10" stroke-width="0.75"/>
          <line id="Línea_423" data-name="Línea 423" y1="35.92" x2="173.9" transform="translate(362.92 287.8)" fill="none" stroke="#ffc0ad" stroke-miterlimit="10" stroke-width="0.75"/>
          <line id="Línea_424" data-name="Línea 424" y1="35.92" x2="173.9" transform="translate(362.92 292.37)" fill="none" stroke="#ffc0ad" stroke-miterlimit="10" stroke-width="0.75"/>
          <line id="Línea_425" data-name="Línea 425" y1="35.92" x2="173.9" transform="translate(362.92 296.93)" fill="none" stroke="#ffc0ad" stroke-miterlimit="10" stroke-width="0.75"/>
          <line id="Línea_426" data-name="Línea 426" y1="35.93" x2="173.9" transform="translate(362.92 301.49)" fill="none" stroke="#ffc0ad" stroke-miterlimit="10" stroke-width="0.75"/>
          <line id="Línea_427" data-name="Línea 427" y1="35.92" x2="173.9" transform="translate(362.92 306.06)" fill="none" stroke="#ffc0ad" stroke-miterlimit="10" stroke-width="0.75"/>
          <line id="Línea_428" data-name="Línea 428" y1="35.92" x2="173.9" transform="translate(362.92 310.62)" fill="none" stroke="#ffc0ad" stroke-miterlimit="10" stroke-width="0.75"/>
          <line id="Línea_429" data-name="Línea 429" y1="35.92" x2="173.9" transform="translate(362.92 315.19)" fill="none" stroke="#ffc0ad" stroke-miterlimit="10" stroke-width="0.75"/>
          <line id="Línea_430" data-name="Línea 430" y1="35.92" x2="173.9" transform="translate(362.92 319.75)" fill="none" stroke="#ffc0ad" stroke-miterlimit="10" stroke-width="0.75"/>
          <line id="Línea_431" data-name="Línea 431" y1="35.92" x2="173.9" transform="translate(362.92 324.32)" fill="none" stroke="#ffc0ad" stroke-miterlimit="10" stroke-width="0.75"/>
          <line id="Línea_432" data-name="Línea 432" y1="35.92" x2="173.9" transform="translate(362.92 328.88)" fill="none" stroke="#ffc0ad" stroke-miterlimit="10" stroke-width="0.75"/>
          <line id="Línea_433" data-name="Línea 433" y1="35.93" x2="173.9" transform="translate(362.92 333.44)" fill="none" stroke="#ffc0ad" stroke-miterlimit="10" stroke-width="0.75"/>
          <line id="Línea_434" data-name="Línea 434" y1="35.92" x2="173.9" transform="translate(362.92 338.01)" fill="none" stroke="#ffc0ad" stroke-miterlimit="10" stroke-width="0.75"/>
          <line id="Línea_435" data-name="Línea 435" y1="35.92" x2="173.9" transform="translate(362.92 342.57)" fill="none" stroke="#ffc0ad" stroke-miterlimit="10" stroke-width="0.75"/>
          <line id="Línea_436" data-name="Línea 436" y1="35.92" x2="173.9" transform="translate(362.92 347.14)" fill="none" stroke="#ffc0ad" stroke-miterlimit="10" stroke-width="0.75"/>
          <line id="Línea_437" data-name="Línea 437" y1="35.92" x2="173.9" transform="translate(362.92 351.7)" fill="none" stroke="#ffc0ad" stroke-miterlimit="10" stroke-width="0.75"/>
          <line id="Línea_438" data-name="Línea 438" y1="35.92" x2="173.9" transform="translate(362.92 356.27)" fill="none" stroke="#ffc0ad" stroke-miterlimit="10" stroke-width="0.75"/>
        </g>
        <rect id="Rectángulo_8433" data-name="Rectángulo 8433" width="33.28" height="7.33" transform="translate(439.97 302.18) rotate(180)" fill="#b2b3be"/>
      </g>
      <g id="Grupo_59487" data-name="Grupo 59487">
        <g id="Grupo_59486" data-name="Grupo 59486" clip-path="url(#clip-path-3)">
          <line id="Línea_439" data-name="Línea 439" y1="35.92" x2="173.89" transform="translate(419.63 214.12)" fill="#aed3f2" stroke="#cee5f7" stroke-miterlimit="10" stroke-width="0.75"/>
          <line id="Línea_440" data-name="Línea 440" y1="35.92" x2="173.89" transform="translate(419.63 218.68)" fill="#aed3f2" stroke="#cee5f7" stroke-miterlimit="10" stroke-width="0.75"/>
          <line id="Línea_441" data-name="Línea 441" y1="35.92" x2="173.89" transform="translate(419.63 223.25)" fill="#aed3f2" stroke="#cee5f7" stroke-miterlimit="10" stroke-width="0.75"/>
          <line id="Línea_442" data-name="Línea 442" y1="35.92" x2="173.89" transform="translate(419.63 227.81)" fill="#aed3f2" stroke="#cee5f7" stroke-miterlimit="10" stroke-width="0.75"/>
          <line id="Línea_443" data-name="Línea 443" y1="35.92" x2="173.89" transform="translate(419.63 232.38)" fill="#aed3f2" stroke="#cee5f7" stroke-miterlimit="10" stroke-width="0.75"/>
          <line id="Línea_444" data-name="Línea 444" y1="35.92" x2="173.89" transform="translate(419.63 236.94)" fill="#aed3f2" stroke="#cee5f7" stroke-miterlimit="10" stroke-width="0.75"/>
          <line id="Línea_445" data-name="Línea 445" y1="35.93" x2="173.89" transform="translate(419.63 241.5)" fill="#aed3f2" stroke="#cee5f7" stroke-miterlimit="10" stroke-width="0.75"/>
          <line id="Línea_446" data-name="Línea 446" y1="35.92" x2="173.89" transform="translate(419.63 246.07)" fill="#aed3f2" stroke="#cee5f7" stroke-miterlimit="10" stroke-width="0.75"/>
          <line id="Línea_447" data-name="Línea 447" y1="35.92" x2="173.89" transform="translate(419.63 250.63)" fill="#aed3f2" stroke="#cee5f7" stroke-miterlimit="10" stroke-width="0.75"/>
          <line id="Línea_448" data-name="Línea 448" y1="35.92" x2="173.89" transform="translate(419.63 255.2)" fill="#aed3f2" stroke="#cee5f7" stroke-miterlimit="10" stroke-width="0.75"/>
          <line id="Línea_449" data-name="Línea 449" y1="35.92" x2="173.89" transform="translate(419.63 259.76)" fill="#aed3f2" stroke="#cee5f7" stroke-miterlimit="10" stroke-width="0.75"/>
          <line id="Línea_450" data-name="Línea 450" y1="35.92" x2="173.89" transform="translate(419.63 264.33)" fill="#aed3f2" stroke="#cee5f7" stroke-miterlimit="10" stroke-width="0.75"/>
          <line id="Línea_451" data-name="Línea 451" y1="35.92" x2="173.89" transform="translate(419.63 268.89)" fill="#aed3f2" stroke="#cee5f7" stroke-miterlimit="10" stroke-width="0.75"/>
          <line id="Línea_452" data-name="Línea 452" y1="35.93" x2="173.89" transform="translate(419.63 273.45)" fill="#aed3f2" stroke="#cee5f7" stroke-miterlimit="10" stroke-width="0.75"/>
          <line id="Línea_453" data-name="Línea 453" y1="35.92" x2="173.89" transform="translate(419.63 278.02)" fill="#aed3f2" stroke="#cee5f7" stroke-miterlimit="10" stroke-width="0.75"/>
          <line id="Línea_454" data-name="Línea 454" y1="35.92" x2="173.89" transform="translate(419.63 282.58)" fill="#aed3f2" stroke="#cee5f7" stroke-miterlimit="10" stroke-width="0.75"/>
          <line id="Línea_455" data-name="Línea 455" y1="35.92" x2="173.89" transform="translate(419.63 287.15)" fill="#aed3f2" stroke="#cee5f7" stroke-miterlimit="10" stroke-width="0.75"/>
        </g>
        <rect id="Rectángulo_8435" data-name="Rectángulo 8435" width="37.59" height="7.33" transform="translate(474.85 233.06) rotate(180)" fill="#d3e3f8"/>
      </g>
    </g>
    <g id="Grupo_59489" data-name="Grupo 59489">
      <path id="Trazado_106547" data-name="Trazado 106547" d="M727.92,316.4a17.15,17.15,0,0,0-5.67-6.57A11,11,0,0,0,717,308a8.29,8.29,0,0,0-4.13.59,8.409,8.409,0,0,0-2.24.9c-.2-.27-.39-.55-.62-.82l-2.28-2a11.39,11.39,0,0,0-5.5-1.88,8.5,8.5,0,0,0-4.3.62,8.83,8.83,0,0,0-2.15.81,6.116,6.116,0,0,0,.09-.86,9.16,9.16,0,0,0-2.2-6.62l-1.83-1.62a9.15,9.15,0,0,0-4.4-1.5,6.74,6.74,0,0,0-3.45.49,6.91,6.91,0,0,0-3.17,1.7,6.83,6.83,0,0,0-2.14,2.89,6.75,6.75,0,0,0-1,3.35v.26c-.28,0-.56-.1-.86-.12a8.23,8.23,0,0,0-4.11.59,9.83,9.83,0,0,0-6.32,5.47,7.814,7.814,0,0,0-.88,2.09c-.26-.13-.51-.26-.78-.37a7.8,7.8,0,0,0-3.81-1.12,9.87,9.87,0,0,0-4.46.5c-3.94,1.83-5.28,4-5.67,5Z" fill="#d3e3f8"/>
      <path id="Trazado_106548" data-name="Trazado 106548" d="M650.77,361.64H598.82a8.212,8.212,0,0,1,.5-1.14,7.521,7.521,0,0,1,2.53-3.07,7.341,7.341,0,0,1,3.36-2,10,10,0,0,1,5-.26l.81.14a9.81,9.81,0,0,1,3.82,1.72c0-.33.05-.67.07-1a8.371,8.371,0,0,1,2-3.93l1.72-1.46a8.38,8.38,0,0,1,4.09-1.31,6.26,6.26,0,0,1,3.18.52h.12c0-.45.07-.89.1-1.33a8.55,8.55,0,0,1,2-4l1.77-1.5a8.57,8.57,0,0,1,4.19-1.34,6.34,6.34,0,0,1,3.26.53,8.87,8.87,0,0,1,5.82,7.64c-.06.73-.11,1.46-.17,2.2a8.162,8.162,0,0,1-.78,2.19h.44a7.93,7.93,0,0,1,8.12,7.4Z" fill="#d3e3f8"/>
      <path id="Trazado_106549" data-name="Trazado 106549" d="M451.35,41,450,39.87a8.62,8.62,0,0,0-3.62-1.26c.44-3.83-1.69-7.84-6.64-7.84a7.07,7.07,0,0,0-5.63,2.54c0-.23.05-.46.05-.69-.06-.76-.11-1.52-.17-2.27a8.82,8.82,0,0,0-2.1-4.15l-1.82-1.55a8.79,8.79,0,0,0-4.33-1.38,6.64,6.64,0,0,0-3.36.54,6.7,6.7,0,0,0-3.06,1.73,6.64,6.64,0,0,0-2,2.86,6.71,6.71,0,0,0-.9,3.29c.06.75.11,1.51.17,2.26a9.379,9.379,0,0,0,.3,1.07,5.52,5.52,0,0,0-1.87.46,6.84,6.84,0,0,0-4.34,3.91A5.379,5.379,0,0,0,410,41Z" fill="#d3e3f8"/>
    </g>
    <g id="Grupo_59490" data-name="Grupo 59490">
      <path id="Trazado_106550" data-name="Trazado 106550" d="M448.25,378.45l53.47-82.44H468.38l-53.46,82.44Z" fill="#6595bf"/>
      <path id="Trazado_106551" data-name="Trazado 106551" d="M529.57,336.95l-27.74-40.94H468.5l27.95,42.44Z" fill="#344154"/>
      <path id="Trazado_106552" data-name="Trazado 106552" d="M661.94,182.45l-3.33-70.61-92.67,70.61h31.87l-101.36,156h33.34l101.35-156Z" fill="#6595bf"/>
    </g>
    <g id="Grupo_59494" data-name="Grupo 59494">
      <path id="Trazado_106553" data-name="Trazado 106553" d="M636.86,19,656,123.9a16.82,16.82,0,0,0,16.56,13.82h0A16.83,16.83,0,0,0,689,124.24l5.92-29.11a10.55,10.55,0,0,1,10.34-8.45h0a10.55,10.55,0,0,1,10.29,8.16l22.72,97.68a17.71,17.71,0,0,0,17.24,13.69h0a17.69,17.69,0,0,0,17.53-15.27L789.61,71.28a13.9,13.9,0,0,1,13.77-12h0A13.91,13.91,0,0,1,817,70.15l22.4,100.23a17.17,17.17,0,0,0,16.76,13.41h0a17.16,17.16,0,0,0,16.9-14.16L899.83,19Z" fill="#c1d5e5"/>
      <g id="Grupo_59491" data-name="Grupo 59491">
        <line id="Línea_456" data-name="Línea 456" y1="3.5" transform="translate(672.51 131.22)" fill="none" stroke="#d9a171" stroke-linecap="round" stroke-miterlimit="10" stroke-width="1"/>
        <line id="Línea_457" data-name="Línea 457" y1="95.22" transform="translate(672.51 30.35)" fill="none" stroke="#d9a171" stroke-linecap="round" stroke-miterlimit="10" stroke-width="1" stroke-dasharray="6.6 5.66"/>
        <line id="Línea_458" data-name="Línea 458" y1="3.5" transform="translate(672.51 24.03)" fill="none" stroke="#d9a171" stroke-linecap="round" stroke-miterlimit="10" stroke-width="1"/>
      </g>
      <g id="Grupo_59492" data-name="Grupo 59492">
        <line id="Línea_459" data-name="Línea 459" y1="3.5" transform="translate(753.16 196.15)" fill="none" stroke="#d9a171" stroke-linecap="round" stroke-miterlimit="10" stroke-width="1"/>
        <line id="Línea_460" data-name="Línea 460" y1="159.95" transform="translate(753.16 30.42)" fill="none" stroke="#d9a171" stroke-linecap="round" stroke-miterlimit="10" stroke-width="1" stroke-dasharray="6.75 5.78"/>
        <line id="Línea_461" data-name="Línea 461" y1="3.5" transform="translate(753.16 24.03)" fill="none" stroke="#d9a171" stroke-linecap="round" stroke-miterlimit="10" stroke-width="1"/>
      </g>
      <g id="Grupo_59493" data-name="Grupo 59493">
        <line id="Línea_462" data-name="Línea 462" y1="3.5" transform="translate(856.12 175.86)" fill="none" stroke="#d9a171" stroke-linecap="round" stroke-miterlimit="10" stroke-width="1"/>
        <line id="Línea_463" data-name="Línea 463" y1="139.37" transform="translate(856.12 30.51)" fill="none" stroke="#d9a171" stroke-linecap="round" stroke-miterlimit="10" stroke-width="1" stroke-dasharray="6.97 5.97"/>
        <line id="Línea_464" data-name="Línea 464" y1="3.5" transform="translate(856.12 24.03)" fill="none" stroke="#d9a171" stroke-linecap="round" stroke-miterlimit="10" stroke-width="1"/>
      </g>
    </g>
    <g id="Grupo_59498" data-name="Grupo 59498">
      <path id="Trazado_106554" data-name="Trazado 106554" d="M425,378.45l-41.56-75.76a27.64,27.64,0,0,0-24.23-14.34h0A27.621,27.621,0,0,0,334.7,303.233L314.33,342.41a21.25,21.25,0,0,1-39.68-5.54L251,221.5a18.23,18.23,0,0,0-17.86-14.57h0a18.24,18.24,0,0,0-17.79,14.25l-20.58,91.75a17.31,17.31,0,0,1-16.9,13.53h0a17.32,17.32,0,0,1-17-13.87L156.51,291a19.5,19.5,0,0,0-38.21,0l-18.13,87.49Z" fill="#c1d5e5"/>
      <g id="Grupo_59495" data-name="Grupo 59495">
        <line id="Línea_465" data-name="Línea 465" y2="3.5" transform="translate(135.57 281.1)" fill="none" stroke="#d9a171" stroke-linecap="round" stroke-miterlimit="10" stroke-width="1"/>
        <line id="Línea_466" data-name="Línea 466" y2="76.21" transform="translate(135.57 290.69)" fill="none" stroke="#d9a171" stroke-linecap="round" stroke-miterlimit="10" stroke-width="1" stroke-dasharray="7.11 6.1"/>
        <line id="Línea_467" data-name="Línea 467" y2="3.5" transform="translate(135.57 369.95)" fill="none" stroke="#d9a171" stroke-linecap="round" stroke-miterlimit="10" stroke-width="1"/>
      </g>
      <g id="Grupo_59496" data-name="Grupo 59496">
        <line id="Línea_468" data-name="Línea 468" y2="3.5" transform="translate(232.41 211.02)" fill="none" stroke="#d9a171" stroke-linecap="round" stroke-miterlimit="10" stroke-width="1"/>
        <line id="Línea_469" data-name="Línea 469" y2="146.79" transform="translate(232.41 220.28)" fill="none" stroke="#d9a171" stroke-linecap="round" stroke-miterlimit="10" stroke-width="1" stroke-dasharray="6.72 5.76"/>
        <line id="Línea_470" data-name="Línea 470" y2="3.5" transform="translate(232.41 369.95)" fill="none" stroke="#d9a171" stroke-linecap="round" stroke-miterlimit="10" stroke-width="1"/>
      </g>
      <g id="Grupo_59497" data-name="Grupo 59497">
        <line id="Línea_471" data-name="Línea 471" y2="3.5" transform="translate(359.61 293.73)" fill="none" stroke="#d9a171" stroke-linecap="round" stroke-miterlimit="10" stroke-width="1"/>
        <line id="Línea_472" data-name="Línea 472" y2="63.49" transform="translate(359.61 303.38)" fill="none" stroke="#d9a171" stroke-linecap="round" stroke-miterlimit="10" stroke-width="1" stroke-dasharray="7.17 6.14"/>
        <line id="Línea_473" data-name="Línea 473" y2="3.5" transform="translate(359.61 369.95)" fill="none" stroke="#d9a171" stroke-linecap="round" stroke-miterlimit="10" stroke-width="1"/>
      </g>
    </g>
    <g id="Grupo_59505" data-name="Grupo 59505">
      <g id="Grupo_59500" data-name="Grupo 59500">
        <circle id="Elipse_4201" data-name="Elipse 4201" cx="34.48" cy="34.48" r="34.48" transform="translate(725.838 310.636) rotate(-28.06)" fill="#b2b3be"/>
        <circle id="Elipse_4202" data-name="Elipse 4202" cx="27.88" cy="27.88" r="27.88" transform="translate(733.237 328.671) rotate(-50.67)" fill="#5e6178"/>
        <g id="Grupo_59499" data-name="Grupo 59499">
          <path id="Trazado_106555" data-name="Trazado 106555" d="M784.58,333.32l3.11,3.24-3.51,3.36-3-3.13a21.62,21.62,0,0,1-9.53,4.86l-2.18-6.09a17.9,17.9,0,0,0,8.69-4.45c2.4-2.29,2.69-3.86,1.74-4.86-3.11-3.24-12.49,10.26-19.76,2.66-3.08-3.22-3.37-8.15.81-13.27l-3.08-3.22,3.51-3.36,3,3.16a19.8,19.8,0,0,1,7.59-4l2.33,6a16.84,16.84,0,0,0-7.18,3.85c-2.43,2.33-2.53,4-1.55,5,3,3.13,12.37-10.32,19.59-2.77C788.15,323.46,788.5,328.28,784.58,333.32Z" fill="#fff"/>
          <path id="Trazado_106556" data-name="Trazado 106556" d="M784.58,333.32l3.11,3.24-3.51,3.36-3-3.13a21.62,21.62,0,0,1-9.53,4.86l-2.18-6.09a17.9,17.9,0,0,0,8.69-4.45c2.4-2.29,2.69-3.86,1.74-4.86-3.11-3.24-12.49,10.26-19.76,2.66-3.08-3.22-3.37-8.15.81-13.27l-3.08-3.22,3.51-3.36,3,3.16a19.8,19.8,0,0,1,7.59-4l2.33,6a16.84,16.84,0,0,0-7.18,3.85c-2.43,2.33-2.53,4-1.55,5,3,3.13,12.37-10.32,19.59-2.77C788.15,323.46,788.5,328.28,784.58,333.32Z" fill="#fff"/>
        </g>
      </g>
      <g id="Grupo_59502" data-name="Grupo 59502">
        <circle id="Elipse_4203" data-name="Elipse 4203" cx="15.88" cy="15.88" r="15.88" transform="translate(689.193 190.958) rotate(-48.71)" fill="#b2b3be"/>
        <path id="Trazado_106557" data-name="Trazado 106557" d="M720.62,181a12.42,12.42,0,1,1-8.7-3.852,12.43,12.43,0,0,1,8.7,3.852Z" fill="#7e8193"/>
        <g id="Grupo_59501" data-name="Grupo 59501">
          <path id="Trazado_106558" data-name="Trazado 106558" d="M717.2,193.47l1.42,1.5L717,196.51l-1.38-1.44a10.05,10.05,0,0,1-4.39,2.23l-1-2.81a8.2,8.2,0,0,0,4-2c1.1-1,1.24-1.78.8-2.23-1.43-1.5-5.75,4.71-9.1,1.21-1.41-1.49-1.54-3.76.38-6.11l-1.41-1.49,1.62-1.54,1.39,1.46a8.83,8.83,0,0,1,3.49-1.82l1.07,2.77a7.7,7.7,0,0,0-3.31,1.76c-1.12,1.07-1.16,1.84-.71,2.31,1.37,1.44,5.7-4.75,9-1.27C718.84,188.93,719,191.15,717.2,193.47Z" fill="#fff"/>
          <path id="Trazado_106559" data-name="Trazado 106559" d="M717.2,193.47l1.42,1.5L717,196.51l-1.38-1.44a10.05,10.05,0,0,1-4.39,2.23l-1-2.81a8.2,8.2,0,0,0,4-2c1.1-1,1.24-1.78.8-2.23-1.43-1.5-5.75,4.71-9.1,1.21-1.41-1.49-1.54-3.76.38-6.11l-1.41-1.49,1.62-1.54,1.39,1.46a8.83,8.83,0,0,1,3.49-1.82l1.07,2.77a7.7,7.7,0,0,0-3.31,1.76c-1.12,1.07-1.16,1.84-.71,2.31,1.37,1.44,5.7-4.75,9-1.27C718.84,188.93,719,191.15,717.2,193.47Z" fill="#fff"/>
        </g>
      </g>
      <g id="Grupo_59504" data-name="Grupo 59504">
        <circle id="Elipse_4204" data-name="Elipse 4204" cx="21.31" cy="21.31" r="21.31" transform="matrix(0.772, -0.635, 0.635, 0.772, 789.623, 247.222)" fill="#b2b3be"/>
        <path id="Trazado_106560" data-name="Trazado 106560" d="M835.32,257.22a17.19,17.19,0,1,1-8.66-22.72,17.19,17.19,0,0,1,8.66,22.72Z" fill="#7e8193"/>
        <g id="Grupo_59503" data-name="Grupo 59503">
          <path id="Trazado_106561" data-name="Trazado 106561" d="M817.57,259.11l-1.13,2.53-2.74-1.23,1.09-2.44a13.51,13.51,0,0,1-5-4.32l3-2.67a11,11,0,0,0,4.57,3.94c1.87.83,2.83.64,3.18-.14,1.14-2.53-8.78-4.75-6.12-10.69,1.13-2.51,3.88-3.83,7.78-2.63l1.13-2.51,2.74,1.23-1.11,2.46a12.181,12.181,0,0,1,4,3.43l-2.89,2.73a10.41,10.41,0,0,0-3.88-3.22c-1.89-.85-2.86-.51-3.22.29-1.1,2.44,8.78,4.67,6.15,10.56C824,258.85,821.37,260.18,817.57,259.11Z" fill="#fff"/>
          <path id="Trazado_106562" data-name="Trazado 106562" d="M817.57,259.11l-1.13,2.53-2.74-1.23,1.09-2.44a13.51,13.51,0,0,1-5-4.32l3-2.67a11,11,0,0,0,4.57,3.94c1.87.83,2.83.64,3.18-.14,1.14-2.53-8.78-4.75-6.12-10.69,1.13-2.51,3.88-3.83,7.78-2.63l1.13-2.51,2.74,1.23-1.11,2.46a12.181,12.181,0,0,1,4,3.43l-2.89,2.73a10.41,10.41,0,0,0-3.88-3.22c-1.89-.85-2.86-.51-3.22.29-1.1,2.44,8.78,4.67,6.15,10.56C824,258.85,821.37,260.18,817.57,259.11Z" fill="#fff"/>
        </g>
      </g>
    </g>
    <g id="Grupo_59509" data-name="Grupo 59509">
      <g id="Grupo_59506" data-name="Grupo 59506">
        <path id="Trazado_106563" data-name="Trazado 106563" d="M335,354.23s.33,7.45-.74,10.13c0,0,6.85,7.3,9.32,16,0,0,7,2.84,11.67-3.48,0,0-6.53-9.48-8.35-13s-1.5-9.62-1.5-9.62Z" fill="#a5b7c6"/>
        <path id="Trazado_106564" data-name="Trazado 106564" d="M346,361.37c-1.82-3.53-3.08-3.81-5-2.85-1.24.61-1.58,2.39-2.05,3.09a1.62,1.62,0,0,1-2.2.44,12.17,12.17,0,0,1-1.9-1.61,10.149,10.149,0,0,1-.62,3.74s6.85,7.39,9.32,16.07c0,0,7,2.89,11.67-3.43C355.2,376.82,348,366.11,346,361.37Z" fill="#d9a171"/>
        <path id="Trazado_106565" data-name="Trazado 106565" d="M340.64,367s3.29,9.06,7.28,7.28-2-9.75-2-9.75S343.42,363.54,340.64,367Z" fill="#116caa"/>
      </g>
      <g id="Grupo_59507" data-name="Grupo 59507">
        <path id="Trazado_106566" data-name="Trazado 106566" d="M373.5,354.23s.34,7.45-.74,10.13c0,0,6.86,7.3,9.32,16,0,0,7,2.84,11.67-3.48,0,0-6.53-9.48-8.35-13s-1.5-9.62-1.5-9.62Z" fill="#a5b7c6"/>
        <path id="Trazado_106567" data-name="Trazado 106567" d="M384.59,361.37c-1.82-3.53-3.08-3.81-5-2.85-1.25.61-1.59,2.39-2.05,3.09a1.62,1.62,0,0,1-2.2.44,12.248,12.248,0,0,1-1.91-1.61,10,10,0,0,1-.62,3.74s6.86,7.39,9.32,16.07c0,0,7,2.89,11.67-3.43C393.75,376.82,386.57,366.11,384.59,361.37Z" fill="#d9a171"/>
        <path id="Trazado_106568" data-name="Trazado 106568" d="M379.19,367s3.29,9.06,7.28,7.28-2-9.75-2-9.75S382,363.54,379.19,367Z" fill="#116caa"/>
      </g>
      <g id="Grupo_59508" data-name="Grupo 59508">
        <rect id="Rectángulo_8436" data-name="Rectángulo 8436" width="17.5" height="23.85" transform="translate(347.58 72.6)" fill="#ffc0ad"/>
        <path id="Trazado_106569" data-name="Trazado 106569" d="M365.07,80.06V72.6H347.58v6a19.57,19.57,0,0,0,17.49,1.46Z" fill="#ffa77e"/>
      </g>
      <path id="Trazado_106570" data-name="Trazado 106570" d="M344.52,87.49s11.61,7.86,24.62-2.93l5.8.86V205.23h-31.3Z" fill="#a5b7c6"/>
      <path id="Trazado_106571" data-name="Trazado 106571" d="M310.8,225.85a12.209,12.209,0,0,0-.58,7.57s5.19,3,8.6,2.89a5,5,0,0,0,4.49-2.78s1.34-5-1.26-6.43S310.8,225.85,310.8,225.85Z" fill="#ffc0ad"/>
      <path id="Trazado_106572" data-name="Trazado 106572" d="M464.94,71.23s17-4.22,23.91-8.4l1.45,2.61-9.62,4.41-3.06,11.44s-3.06,3.12-16.72,3.25Z" fill="#ffc0ad"/>
      <path id="Trazado_106573" data-name="Trazado 106573" d="M326.94,219.29c0,2.08,5.6,136.5,5.6,136.5a23.45,23.45,0,0,0,15.87-.29l5.77-131.15a26.69,26.69,0,0,0,11.55-1.4l4.72,131.35s8.64,4.4,16.77.07c0,0,3.57-144.46,2.19-163.84,0,0-23.47,9.58-62.47,2.32Z" fill="#344154"/>
      <path id="Trazado_106574" data-name="Trazado 106574" d="M367.77,84.52s3.81,3.49,5,17.11-1.13,116.87-1.13,116.87,16,2,21.14-6.79l1.45-106.18s53.68-9,67.95-18.4l4.15-17.28S414.94,86.17,367.77,84.52Z" fill="#d9a171"/>
      <path id="Trazado_106575" data-name="Trazado 106575" d="M367.77,84.52a49.79,49.79,0,0,1,18.39-.17s.16,27.86-2.69,40.16l5.11.86c-.49,2.32-9.44,62.34-16.91,76.68C371.67,202.05,373.05,94.49,367.77,84.52Z" fill="#344154"/>
      <path id="Trazado_106576" data-name="Trazado 106576" d="M345,86.17c-.5-.72-25.82,7.48-25.82,7.48s-13.74,26.7-10.92,132.2c0,0,12.22,6.14,17.25,0l.84-8.09a145.257,145.257,0,0,0,25.93,2.09S354,99.09,345,86.17Z" fill="#d9a171"/>
      <path id="Trazado_106577" data-name="Trazado 106577" d="M345,86.17s-11.26,1.75-19.8,5.56c0,0,8.71,23.81,15.27,35.1L334.1,129s10.93,45.46,18.27,77.07C352.37,206.09,354.43,102.84,345,86.17Z" fill="#344154"/>
      <path id="Trazado_106578" data-name="Trazado 106578" d="M347.06,34.24c-.32.09-8.13,11.81-8.48,12.46-.23.4,0,4.58.14,7.7a4.07,4.07,0,0,0-.61-.06,4.35,4.35,0,1,0,1.53,8.4l1.71,11.75s20.06,11.65,30.77-1.35c0,0,0-20.22,2.36-31.23C374.48,41.91,347.38,34.15,347.06,34.24Z" fill="#ffc0ad"/>
      <path id="Trazado_106579" data-name="Trazado 106579" d="M336.1,54.88s4.11-1.6,4.86,2.64.39,3.22.39,3.22l1.06-.16s-.47-7.5,0-9.86,2-3.95,1.65-6.9c0,0,7.47.57,11.32-2.84,0,0,30,8.26,39.23-10.22,0,0-14.13,5.82-23.15,4-10.58-2.16-11.65-6.84-11.65-6.84s-17-7.32-19.51,3.85C340.3,31.76,326,30.55,336.1,54.88Z" fill="#dd9a6a"/>
      <ellipse id="Elipse_4205" data-name="Elipse 4205" cx="1.1" cy="1.87" rx="1.1" ry="1.87" transform="translate(351.93 52.81)" fill="#344154"/>
      <path id="Trazado_106580" data-name="Trazado 106580" d="M367.77,53.66c0,1-.46,1.72-1,1.72s-1-.77-1-1.72.45-1.72,1-1.72S367.77,52.71,367.77,53.66Z" fill="#344154"/>
      <path id="Trazado_106581" data-name="Trazado 106581" d="M355.38,68.26h1.92c.54,0,1.14.06,1.75.07h.93a5.616,5.616,0,0,0,.92-.05,5.273,5.273,0,0,0,.89-.1l.44-.06.42-.1a5.3,5.3,0,0,0,.83-.21,4.229,4.229,0,0,0,.76-.25c.24-.09.5-.14.7-.24l.54-.23q.258-.058.52-.09a4.405,4.405,0,0,1-.16.54,4.3,4.3,0,0,1-.71,1.31c-.1.12-.21.25-.31.39a2.627,2.627,0,0,1-.39.35,4.682,4.682,0,0,1-.95.65,4.55,4.55,0,0,1-1.16.47,5.839,5.839,0,0,1-1.26.23,7.581,7.581,0,0,1-1.26,0,7.06,7.06,0,0,1-3-1.16,6.06,6.06,0,0,1-1.08-1A3.131,3.131,0,0,1,355.38,68.26Z" fill="#fff"/>
      <path id="Trazado_106582" data-name="Trazado 106582" d="M326.83,217.63s.11-39.87,3.11-50.75V218Z" fill="#e7e7e7" opacity="0.3"/>
      <path id="Trazado_106583" data-name="Trazado 106583" d="M360.7,56.7a28.308,28.308,0,0,1,1.61,4.81c.2.82.4,1.63.55,2.46s.29,1.65.41,2.49l.08.59h-.52c-.63,0-1.25.07-1.88.06a8.07,8.07,0,0,1-1.89-.22c.31-.06.61-.14.91-.22l.9-.23c.6-.15,1.21-.29,1.8-.42l-.43.62c-.23-.81-.44-1.62-.62-2.44s-.34-1.65-.48-2.47a28.337,28.337,0,0,1-.44-5.03Z" fill="#ffa77e"/>
      <path id="Trazado_106584" data-name="Trazado 106584" d="M356.12,63.12a2.55,2.55,0,1,1-2.56-1.82,2.27,2.27,0,0,1,2.56,1.82Z" fill="#ffa77e"/>
      <path id="Trazado_106585" data-name="Trazado 106585" d="M369.47,62.08a2.38,2.38,0,1,1-2.4-1.71,2.11,2.11,0,0,1,2.4,1.71Z" fill="#ffa77e"/>
    </g>
    <g id="Grupo_59510" data-name="Grupo 59510">
      <path id="Trazado_106586" data-name="Trazado 106586" d="M251.13,182.33l-5.95-11.41-9.64,1.94a31.85,31.85,0,0,0-5.35-4.59l.29-10-12.26-3.86-5.47,8.3a33.841,33.841,0,0,0-7.25.23l-7.07-7.64-11.41,6,2.21,10.17a33.321,33.321,0,0,0-4.45,5.62l-9.89-.16-3.83,12.33,8.32,5.5a33,33,0,0,0,.47,7.15l-7.39,7,5.95,11.41,9.94-2.1a32.84,32.84,0,0,0,5.5,4.51l-.22,9.93,12.3,3.85,5.49-8.32a31.161,31.161,0,0,0,6.86-1L225,234l11.41-5.95-1.81-9.41a31.9,31.9,0,0,0,4.65-5.23l10,.35,3.89-12.23-8.3-5.46a32.48,32.48,0,0,0-.76-7Zm-31.63,27.3a16,16,0,1,1,7.887-9.4A16,16,0,0,1,219.5,209.63Z" fill="#d9a171"/>
      <path id="Trazado_106587" data-name="Trazado 106587" d="M188.6,136l-.09-8.31L182.4,126a21.081,21.081,0,0,0-1.74-4.21l3.09-5.65-5.93-5.81-5.58,3.18a21.64,21.64,0,0,0-4.24-2l-1.83-6.46-8.31.08-1.7,6.51a20.871,20.871,0,0,0-4.1,2l-5.55-2.88-5.81,6,3.07,5.5a21.17,21.17,0,0,0-1.87,4.21l-6.33,1.81.08,8.3,6.32,1.7a21.609,21.609,0,0,0,1.85,4.2l-3,5.65,6,5.81,5.59-3.18a19.68,19.68,0,0,0,4.25,1.43l1.83,5.91,8.31-.09,1.71-5.94a20.731,20.731,0,0,0,4.2-1.65l5.66,3.13,5.81-5.91L181,142.07a19.94,19.94,0,0,0,1.6-4.23Zm-26.2,6.46a4.308,4.308,0,1,1,0,.02Z" fill="#6595bf"/>
      <path id="Trazado_106588" data-name="Trazado 106588" d="M196.19,75.8l-2.92-3.6L190,73.57a11.79,11.79,0,0,0-2.22-1.23l-.61-3.54-4.6-.49-1.34,3.33a12.35,12.35,0,0,0-2.54.6l-3-2.19L172.06,73l1.51,3.43a11.879,11.879,0,0,0-1.09,2.31l-3.42.66-.47,4.6,3.25,1.34a12.151,12.151,0,0,0,.64,2.49l-2.13,3,2.91,3.6L176.61,93a11.37,11.37,0,0,0,2.26,1.19l.63,3.52,4.62.48,1.34-3.33a10.86,10.86,0,0,0,2.35-.85l2.85,2,3.6-2.92-1.32-3.19a11.677,11.677,0,0,0,1.27-2.18l3.55-.59.49-4.6-3.32-1.33a11.541,11.541,0,0,0-.76-2.4ZM187,87.7a5.76,5.76,0,1,1,2.107-3.879A5.77,5.77,0,0,1,187,87.7Z" fill="#5e6178"/>
    </g>
  </g>
</svg>
