<svg xmlns="http://www.w3.org/2000/svg" width="150" height="150" viewBox="0 0 150 150">
  <g id="Capa_2" data-name="Capa 2" transform="translate(-1.47)">
    <circle id="Elipse_4257" data-name="Elipse 4257" cx="65" cy="65" r="65" transform="translate(11.47 10)" fill="#344154"/>
    <g id="Grupo_59874" data-name="Grupo 59874">
      <g id="Grupo_59873" data-name="Grupo 59873">
        <g id="Grupo_59870" data-name="Grupo 59870">
          <g id="Grupo_59868" data-name="Grupo 59868">
            <path id="Trazado_108237" data-name="Trazado 108237" d="M68.19,32.49a2,2,0,0,1-1.63-.83,11,11,0,0,0-10.3-4.83,20.38,20.38,0,0,1-13.33-3,2.031,2.031,0,0,1,2.19-3.42,16.32,16.32,0,0,0,10.71,2.41,15.1,15.1,0,0,1,14,6.47,2.038,2.038,0,0,1-1.64,3.23Z" fill="#aed3f2"/>
            <path id="Trazado_108238" data-name="Trazado 108238" d="M46.94,43.27a2.05,2.05,0,0,1-1.06-.3,2,2,0,0,1-.67-2.79C47.81,35.94,52.58,33,59,31.75a36.69,36.69,0,0,1,8.77-.66,2.029,2.029,0,0,1-.27,4.05c-.14,0-13.93-.83-18.83,7.16a2,2,0,0,1-1.73,1Z" fill="#aed3f2"/>
          </g>
          <g id="Grupo_59869" data-name="Grupo 59869">
            <path id="Trazado_108239" data-name="Trazado 108239" d="M77.54,121.05c33.34,0,51.77-48.9-.88-86.66a5,5,0,0,1-2.06-4.07,6.51,6.51,0,0,1,1.2-3.71,95.81,95.81,0,0,0,8.13-14.39,1.67,1.67,0,0,0-1.58-2.41c-3.16,0-3.16-2.07-6.32-2.07S72.87,9.81,69.7,9.81c-2.69,0-3.8-2.32-5.11-.64-3.82,4.92,9.27,22.21,9.27,22.21-57.8,38-39.16,89.67-5,89.67Z" fill="#d9a171"/>
            <path id="Trazado_108240" data-name="Trazado 108240" d="M90.64,31.38s13.29-17.23,9.47-22.18c-1.31-1.68-2.42.61-5.11.61-3.16,0-3.16-2.07-6.32-2.07s-3.17,2.07-6.33,2.07h-.44c-1.27,5.44-7,13.93-10.27,18.47,1.29,1.9,2.22,3.12,2.22,3.12-.77.51-1.53,1-2.27,1.53,55.22,38,36.74,88.14,3,88.14h21.3c34.22,0,52.74-51.54-5.25-89.67Z" fill="#a37955"/>
            <path id="Trazado_108241" data-name="Trazado 108241" d="M93.11,37.52a46.41,46.41,0,0,1-23.06,0,4.93,4.93,0,0,1-3.24-6.45v-.09a4.55,4.55,0,0,1,5.37-3A37.45,37.45,0,0,0,91,28a4.54,4.54,0,0,1,5.36,3v.09a4.93,4.93,0,0,1-3.25,6.45Z" fill="#aed3f2"/>
          </g>
        </g>
        <g id="Grupo_59872" data-name="Grupo 59872">
          <g id="Grupo_59871" data-name="Grupo 59871">
            <path id="Trazado_108242" data-name="Trazado 108242" d="M20.55,129.92l29.39,10.94a22.36,22.36,0,0,0,7.8,1.4H88a22.34,22.34,0,0,0,12-3.47l37.93-24A6.66,6.66,0,0,0,139,106c-2.06-3-5.47-3.56-9.21-1.78L92.87,120.51v-6A10.73,10.73,0,0,0,83.75,105l-22.49-2.59c-5.18-.73-7.78-2.47-12.3-5.12a40.28,40.28,0,0,0-20.35-5.51H20.55Z" fill="#ffddce"/>
            <path id="Trazado_108243" data-name="Trazado 108243" d="M48.16,135a23.41,23.41,0,0,0,8.2,1.48H88.2a23.55,23.55,0,0,0,9.8-2.11l22.26-14.11a6.87,6.87,0,0,0,2.11-9.78L121,108.14,92.87,120.51v-6A10.73,10.73,0,0,0,83.75,105l-22.49-2.59c-5.18-.73-7.78-2.47-12.3-5.12a40.28,40.28,0,0,0-20.35-5.51H20.55v33Z" fill="#ffddce"/>
            <path id="Trazado_108244" data-name="Trazado 108244" d="M139,106c-2.06-3-5.47-3.56-9.22-1.78l-10.15,4.47.88,1.4a6.66,6.66,0,0,1-1.08,8.72l-22.1,14a22.23,22.23,0,0,1-9.31,2H57.74a22.36,22.36,0,0,1-7.8-1.4L20.55,122.54v7.38l29.39,10.94a22.36,22.36,0,0,0,7.8,1.4H88a22.34,22.34,0,0,0,12-3.47l37.93-24A6.66,6.66,0,0,0,139,106Z" fill="#ffcbbe"/>
            <path id="Trazado_108245" data-name="Trazado 108245" d="M90.16,108.35v.15h.09l-.09-.11Z" fill="#f5dbcc"/>
            <path id="Trazado_108246" data-name="Trazado 108246" d="M92.87,120.51h-23a2.03,2.03,0,1,1,0-4.06h23Z" fill="#ffcbbe"/>
          </g>
          <path id="Trazado_108247" data-name="Trazado 108247" d="M26.88,135.77A3.86,3.86,0,0,1,23,139.63H13.7a3.85,3.85,0,0,1-3.86-3.86V88.5a3.86,3.86,0,0,1,3.86-3.87H23a3.86,3.86,0,0,1,3.86,3.87Z" fill="#6595bf"/>
        </g>
      </g>
      <path id="Trazado_108248" data-name="Trazado 108248" d="M86.72,70.65c-.93-.33-1.78-.65-2.57-1V56.76a8.36,8.36,0,0,1,3.95,1.73,2.031,2.031,0,0,0,2.74-3,12.43,12.43,0,0,0-6.69-2.84V49.77a2.03,2.03,0,0,0-4.06,0v3a13.25,13.25,0,0,0-1.51.37,9.83,9.83,0,0,0-6.72,7.7,8.62,8.62,0,0,0,2.79,8.47,24.89,24.89,0,0,0,5.44,3.07v16a10.81,10.81,0,0,1-6.32-2.19,2.03,2.03,0,1,0-2.22,3.4,14.89,14.89,0,0,0,8.54,2.85v3.22a2.03,2.03,0,0,0,4.06,0V92.4a11.89,11.89,0,0,0,9.74-9.84,10.4,10.4,0,0,0-7.17-11.91Zm-9.56-4.49a4.58,4.58,0,0,1-1.31-4.51,5.81,5.81,0,0,1,3.9-4.57l.34-.1V68a16.91,16.91,0,0,1-2.93-1.79ZM89.89,81.88a7.91,7.91,0,0,1-5.74,6.37V74l1.22.44a6.39,6.39,0,0,1,4.52,7.41Z" fill="#fff"/>
    </g>
    <rect id="Rectángulo_8800" data-name="Rectángulo 8800" width="150" height="150" transform="translate(1.47)" fill="none"/>
  </g>
</svg>
