<svg xmlns="http://www.w3.org/2000/svg" width="540.538" height="326.808" viewBox="0 0 540.538 326.808">
  <g id="Capa_2" data-name="Capa 2" transform="translate(-39.973 -7.383)">
    <path id="Trazado_106589" data-name="Trazado 106589" d="M313.4,29.059s-36.64-33.072-99.309-17.515S154.31,76.726,130.2,112.718s-53.039,31.13-63.649,90.471c-8.77,49.1,40.5,121.6,133.062,93.374S348.083,286.524,378,300.454c37.6,17.515,100.28,17.515,134.024-8.753s51.089-73.935,20.248-114.789c-39.168-51.856,19.286-59.349,7.714-105.065s-75.212-42.8-98.347-27.248S339.44,52.407,313.4,29.059Z" transform="translate(-3.799 0)" fill="#fdfcfb"/>
    <g id="Grupo_59512" data-name="Grupo 59512" transform="translate(49.318 91.967)">
      <path id="Trazado_106590" data-name="Trazado 106590" d="M167.884,254.572s9.366-66.918-22.718-104.563c-34.707-40.718-89.134-43.29-89.134-43.29s-14.126,47.13,4.709,84C90.748,249.429,169.6,255.858,169.6,255.858" transform="translate(-50.948 -106.72)" fill="#aeb0bb"/>
      <g id="Grupo_59511" data-name="Grupo 59511" transform="translate(0.257 1.54)">
        <path id="Trazado_106591" data-name="Trazado 106591" d="M111.585,232.9a152.112,152.112,0,0,0,15.242-1.218,123.467,123.467,0,0,0,14.058-3.082c2.1-.536,4.257-.9,6.31-1.584a10.644,10.644,0,0,0,3.849-1.958q3.661,5.552,7.161,11.206c1.78,2.878,3.508,5.79,5.109,8.762s3.023,6.02,4.768,8.9a.69.69,0,0,0,.7.332c.06-.468.145-1.2.247-2.188a44.652,44.652,0,0,0-3.014-6.94c-1.388-2.682-2.87-5.322-4.411-7.927q-4.624-7.842-9.664-15.429c-6.914-10.371-14.4-20.342-22.139-30.117l-1.567-1.941c3.755-9.23,3.687-19.772,3.04-29.564a197.888,197.888,0,0,0-3.227-26.677l-1.975-1.448q1.465,6.625,2.4,13.36a147.487,147.487,0,0,1,1.252,26.217,76.822,76.822,0,0,1-2.674,16.638q-4.368-5.415-8.779-10.78c-3.764-4.59-7.314-9.366-10.95-14.05-1.865-2.418-3.755-4.828-5.7-7.187-1.516-13.522-2.3-27.248-6.1-40.378l-1.865-.69a102,102,0,0,1,2.554,10.167c1.49,7.127,2.376,14.348,3.219,21.577.307,2.657.656,5.313,1.022,7.97-1.439-1.7-2.9-3.406-4.419-5-3.976-4.257-7.961-8.421-11.776-12.772-7.587-8.694-14.944-17.643-23.382-25.545q-1.558-1.456-3.159-2.852c-.639-.553-1.558.358-.928.92,8.557,7.663,15.889,16.561,23.237,25.374,3.678,4.411,7.374,8.813,11.248,13.053s7.774,8.711,11.376,13.334,7.1,9.417,10.712,14.084,7.553,9.366,11.325,14.015c7.8,9.681,15.327,19.584,22.411,29.8,1,1.465,2,2.929,2.989,4.411a24.291,24.291,0,0,1-3.755,1.413c-1.754.494-3.542.851-5.322,1.286-2.061.5-4.087,1.175-6.156,1.7-2.376.588-4.785,1.081-7.212,1.49a134.117,134.117,0,0,1-28.951,1.66q1.277.843,2.554,1.635Q106.425,233.068,111.585,232.9Z" transform="translate(-52.04 -108.528)" fill="#d8e4ef"/>
        <path id="Trazado_106592" data-name="Trazado 106592" d="M88.315,172.933c2.674.5,5.364.911,8.072,1.184,2.478.255,5.39.681,7.783-.2a.366.366,0,0,0,0-.69c-2.129-.63-4.521-.5-6.718-.69-2.376-.213-4.734-.545-7.084-.945-4.607-.783-9.171-1.822-13.726-2.835-8.4-1.882-16.859-3.653-24.838-6.982l-.553-.238c0,.443.051.851.085,1.328a91.786,91.786,0,0,0,10.158,3.644c4.326,1.294,8.719,2.359,13.113,3.406C79.136,170.992,83.717,172.064,88.315,172.933Z" transform="translate(-51.25 -116.401)" fill="#d8e4ef"/>
        <path id="Trazado_106593" data-name="Trazado 106593" d="M119.194,215.521a54.651,54.651,0,0,0,5.96-1.26,12.985,12.985,0,0,0,3.976-1.7c.315-.221.255-.894-.23-.851-2.887.358-5.731,1.013-8.617,1.43-4.445.639-8.9,1.073-13.377,1.362a137.438,137.438,0,0,1-35.013-2.061q-3.2-.588-6.344-1.439c.349.6.707,1.192,1.064,1.771a117.687,117.687,0,0,0,20.751,3.508,134.023,134.023,0,0,0,31.829-.758Z" transform="translate(-53.374 -123.746)" fill="#d8e4ef"/>
        <path id="Trazado_106594" data-name="Trazado 106594" d="M164.927,224.27c4.828-15.25,9.009-31.318,8.072-47.453-.6-1.2-1.218-2.4-1.865-3.576,0,.247.06.5.077.758a85.347,85.347,0,0,1,0,12.168,157.23,157.23,0,0,1-3.891,24.855c-1,4.36-2,8.719-3.142,13.045a.388.388,0,0,0,.749.2Z" transform="translate(-68.019 -118.139)" fill="#d8e4ef"/>
      </g>
    </g>
    <g id="Grupo_59514" data-name="Grupo 59514" transform="translate(39.973 203.771)">
      <g id="Grupo_59513" data-name="Grupo 59513">
        <path id="Trazado_106595" data-name="Trazado 106595" d="M129.145,284.359s6.642-18,.426-32.782c-5.96-14.237-14.3-17.651-14.782-8.362A58.531,58.531,0,0,0,129.145,284.359Z" transform="translate(-51.075 -238.024)" fill="#c1d5e5"/>
        <path id="Trazado_106596" data-name="Trazado 106596" d="M104.087,276.339s2.554-13.93-9.213-27.248-17.719-12.21-17.575-4.93C77.512,254.907,104.087,276.339,104.087,276.339Z" transform="translate(-45.516 -238.144)" fill="#c1d5e5"/>
        <path id="Trazado_106597" data-name="Trazado 106597" d="M86.325,278.841s-21.423-1.286-36.852,8.787S39.4,305.841,51.4,301.959,81.4,279.488,86.325,278.841Z" transform="translate(-39.973 -244.078)" fill="#c1d5e5"/>
        <path id="Trazado_106598" data-name="Trazado 106598" d="M74.481,303.613c-2.376,11.206,11.069,7.05,17.362-1.507a74.718,74.718,0,0,1,17.14-16.706S77.487,289.47,74.481,303.613Z" transform="translate(-45.057 -245.06)" fill="#c1d5e5"/>
        <path id="Trazado_106599" data-name="Trazado 106599" d="M129.937,295.21s-15.429.639-24.216,12.432-2.972,19.039,4.692,14.569c5.109-3.006,6.642-10.073,12.21-17.575,4.615-6.2,8.574-8.14,8.574-8.14Z" transform="translate(-49.083 -246.517)" fill="#c1d5e5"/>
        <path id="Trazado_106600" data-name="Trazado 106600" d="M60.026,273.963c5.96,1.43,12.125,2.2,18.2,3.185a154.418,154.418,0,0,1,17.4,4.053,191.162,191.162,0,0,1,29.078,11.069,46.4,46.4,0,0,1,6.948,3.908c1.975,1.379,3.772,2.989,5.654,4.479.332.264,1.056,0,.851-.494a8.464,8.464,0,0,0-1.482-2.5,18.978,18.978,0,0,0-2.35-2.256,55.344,55.344,0,0,0-5.909-4,88.342,88.342,0,0,0-12.772-6.19,147.154,147.154,0,0,0-34.289-9.7c-6.982-1.039-14.058-1.328-20.981-2.776-.851-.17-1.175,1.064-.349,1.26Z" transform="translate(-42.88 -243.177)" fill="#aac5dc"/>
      </g>
      <path id="Trazado_106601" data-name="Trazado 106601" d="M83.639,272.418s-12.21-17.745-27.426-23.356-17.575,1.7-9.86,8.353S83.639,272.418,83.639,272.418Z" transform="translate(-40.284 -239.367)" fill="#c1d5e5"/>
    </g>
    <g id="Grupo_59515" data-name="Grupo 59515" transform="translate(452.171 131.148)">
      <path id="Trazado_106602" data-name="Trazado 106602" d="M613.466,213.5s-.613-8.072,4.2-30.058,14.6-32.51,17.4-30.458,3.074,18.154,1.022,28.363-6.5,16.442-10.942,22.36S613.466,213.5,613.466,213.5Z" transform="translate(-537.338 -152.734)" fill="#c1d5e5"/>
      <path id="Trazado_106603" data-name="Trazado 106603" d="M581.414,241a123.17,123.17,0,0,0,14.109-36.061c4.436-20.725,4.1-42.617-4.07-47.147s-13.564,23.535-12.6,38.377.213,46.985.213,46.985Z" transform="translate(-532.184 -153.413)" fill="#c1d5e5"/>
      <path id="Trazado_106604" data-name="Trazado 106604" d="M561.1,264.358s7.774-8.668,7.127-23.5-6.412-22.794-9.886-16.834.63,22.547-.315,29.581-1.558,13.769-1.558,13.769Z" transform="translate(-528.877 -163.026)" fill="#c1d5e5"/>
      <path id="Trazado_106605" data-name="Trazado 106605" d="M599.346,236.4s22.232-14.475,34.911-19.295c16.468-6.258,17.728,2.384,11.776,10.38-8.626,11.631-50.033,12.3-50.033,12.3Z" transform="translate(-534.747 -161.976)" fill="#c1d5e5"/>
      <path id="Trazado_106606" data-name="Trazado 106606" d="M568.623,264.234s21.866-7.093,33.574-10.124,17.541-3.747,20.146,2.8-10.218,13.07-27.6,13.283a132.661,132.661,0,0,1-30.117-2.887Z" transform="translate(-530.089 -167.458)" fill="#c1d5e5"/>
      <path id="Trazado_106607" data-name="Trazado 106607" d="M546.972,280.415s1.771,3.619,14.348,2.878,24.812-8.259,33.438.485-8.711,15.386-24.1,14.075-27-15.327-27-15.327Z" transform="translate(-526.974 -171.573)" fill="#c1d5e5"/>
      <path id="Trazado_106608" data-name="Trazado 106608" d="M524.955,278.48A196.77,196.77,0,0,0,547.9,265.793a245.948,245.948,0,0,0,22.232-15.735c14.05-11.231,26.762-24.191,36.818-39.168a56.6,56.6,0,0,0,5.96-11.137,61.009,61.009,0,0,0,2.154-6.454,17.488,17.488,0,0,0,.852-5.73.3.3,0,0,0-.588,0,34.973,34.973,0,0,1-3.585,10.7,104.363,104.363,0,0,1-5.432,9.545,136.8,136.8,0,0,1-16.323,20.325,253.36,253.36,0,0,1-40.94,33.8c-8.064,5.45-16.417,10.448-24.693,15.574a.554.554,0,1,0,.519.979Z" transform="translate(-524.064 -157.871)" fill="#aac5dc"/>
    </g>
    <g id="Grupo_59516" data-name="Grupo 59516" transform="translate(501.541 49.155)">
      <circle id="Elipse_4206" data-name="Elipse 4206" cx="27.92" cy="27.92" r="27.92" transform="translate(0 39.485) rotate(-45)" fill="#b2d1e7"/>
      <circle id="Elipse_4207" data-name="Elipse 4207" cx="22.437" cy="22.437" r="22.437" transform="translate(7.755 39.485) rotate(-45)" fill="none" stroke="#d9e8f3" stroke-miterlimit="10" stroke-width="0.91"/>
    </g>
    <g id="Grupo_59517" data-name="Grupo 59517" transform="translate(469.325 33.554)">
      <circle id="Elipse_4208" data-name="Elipse 4208" cx="14.637" cy="14.637" r="14.637" transform="translate(0 20.7) rotate(-45)" fill="#b2d1e7"/>
      <circle id="Elipse_4209" data-name="Elipse 4209" cx="11.759" cy="11.759" r="11.759" transform="translate(5.317 14.397) rotate(-22.7)" fill="none" stroke="#d9e8f3" stroke-miterlimit="10" stroke-width="0.48"/>
    </g>
    <g id="Grupo_59518" data-name="Grupo 59518" transform="translate(512.35 7.695)">
      <circle id="Elipse_4210" data-name="Elipse 4210" cx="19.244" cy="19.244" r="19.244" transform="translate(0)" fill="#b2d1e7"/>
      <circle id="Elipse_4211" data-name="Elipse 4211" cx="15.463" cy="15.463" r="15.463" transform="matrix(0.243, -0.97, 0.97, 0.243, 0.511, 30.494)" fill="none" stroke="#d9e8f3" stroke-miterlimit="10" stroke-width="0.63"/>
    </g>
    <g id="Grupo_59519" data-name="Grupo 59519" transform="translate(169.652 132.268)">
      <rect id="Rectángulo_8437" data-name="Rectángulo 8437" width="1.652" height="64.977" transform="translate(2.674)" fill="#6595bf"/>
      <rect id="Rectángulo_8438" data-name="Rectángulo 8438" width="6.991" height="31.846" transform="translate(0 13.002)" fill="#6595bf"/>
    </g>
    <g id="Grupo_59520" data-name="Grupo 59520" transform="translate(181.122 164.02)">
      <rect id="Rectángulo_8439" data-name="Rectángulo 8439" width="1.652" height="62.465" transform="translate(4.317 62.465) rotate(180)" fill="#d9a171"/>
      <rect id="Rectángulo_8440" data-name="Rectángulo 8440" width="6.991" height="25.681" transform="translate(6.991 53.916) rotate(180)" fill="#d9a171"/>
    </g>
    <g id="Grupo_59548" data-name="Grupo 59548" transform="translate(127.052 40.597)">
      <g id="Grupo_59521" data-name="Grupo 59521">
        <rect id="Rectángulo_8441" data-name="Rectángulo 8441" width="357.412" height="233.35" rx="13.68" fill="#485465"/>
        <rect id="Rectángulo_8442" data-name="Rectángulo 8442" width="210.045" height="334.115" transform="translate(345.772 11.648) rotate(90)" fill="#f3f7fa"/>
      </g>
      <path id="Trazado_106609" data-name="Trazado 106609" d="M164.023,67.55V165.2h-.153v1.158h.153V214.04h-.153v1.2h.153v48.918H482.752V67.55Zm317.6,48.79h-51.7V68.717h51.66ZM376.989,165.2V117.515h51.8V165.2Zm51.77,1.158V214.04h-51.77V166.357ZM324.026,165.2V117.515H375.8V165.2Zm51.77,1.158V214.04H324.06V166.357ZM324.06,116.34V68.717h51.77V116.34ZM271.123,165.2V117.515h51.77V165.2Zm51.77,1.158V214.04h-51.77V166.357Zm-51.77-50.016V68.717h51.77V116.34ZM218.186,165.2V117.515h51.77V165.2Zm51.77,1.158V214.04h-51.77V166.357Zm-51.77-50.016V68.717h51.77V116.34Zm51.762,98.9v47.751h-51.77V215.241Zm1.167,0h51.77v47.751h-51.77Zm52.946,0h51.77v47.751H324.06Zm52.937,0h51.8v47.751h-51.77Zm0-98.875V68.717h51.8V116.34ZM217.011,68.717V116.34H165.19V68.717Zm-51.822,48.79h51.822V165.19H165.19Zm0,48.85h51.822V214.04H165.19Zm0,48.858h51.822v47.751H165.19Zm264.736,47.751V215.241H481.4v-1.192H429.926V166.365H481.4v-1.158H429.926V117.524h51.66V262.966Z" transform="translate(-145.452 -49.533)" fill="#fff"/>
      <g id="Grupo_59522" data-name="Grupo 59522" transform="translate(19.661 55.968)">
        <rect id="Rectángulo_8443" data-name="Rectángulo 8443" width="1.652" height="77.979" transform="translate(2.674)" fill="#6595bf"/>
        <rect id="Rectángulo_8444" data-name="Rectángulo 8444" width="6.991" height="58.557" transform="translate(0 25.996)" fill="#6595bf"/>
      </g>
      <g id="Grupo_59523" data-name="Grupo 59523" transform="translate(65.539 49.395)">
        <rect id="Rectángulo_8445" data-name="Rectángulo 8445" width="1.652" height="77.979" transform="translate(2.674)" fill="#6595bf"/>
        <rect id="Rectángulo_8446" data-name="Rectángulo 8446" width="6.991" height="49.889" transform="translate(0 4.334)" fill="#6595bf"/>
      </g>
      <g id="Grupo_59524" data-name="Grupo 59524" transform="translate(88.478 54.717)">
        <rect id="Rectángulo_8447" data-name="Rectángulo 8447" width="1.652" height="69.149" transform="translate(2.674)" fill="#6595bf"/>
        <rect id="Rectángulo_8448" data-name="Rectángulo 8448" width="6.991" height="30.798" transform="translate(0 30.194)" fill="#6595bf"/>
      </g>
      <g id="Grupo_59525" data-name="Grupo 59525" transform="translate(111.417 110.813)">
        <rect id="Rectángulo_8449" data-name="Rectángulo 8449" width="1.652" height="70.954" transform="translate(2.665)" fill="#6595bf"/>
        <rect id="Rectángulo_8450" data-name="Rectángulo 8450" width="6.991" height="50.561" transform="translate(0 15.335)" fill="#6595bf"/>
      </g>
      <g id="Grupo_59526" data-name="Grupo 59526" transform="translate(134.356 100.663)">
        <rect id="Rectángulo_8451" data-name="Rectángulo 8451" width="1.652" height="77.979" transform="translate(2.665)" fill="#6595bf"/>
        <rect id="Rectángulo_8452" data-name="Rectángulo 8452" width="6.991" height="37.619" transform="translate(0 25.996)" fill="#6595bf"/>
      </g>
      <g id="Grupo_59527" data-name="Grupo 59527" transform="translate(157.295 44.695)">
        <rect id="Rectángulo_8453" data-name="Rectángulo 8453" width="1.652" height="101.804" transform="translate(2.665)" fill="#6595bf"/>
        <rect id="Rectángulo_8454" data-name="Rectángulo 8454" width="6.991" height="58.557" transform="translate(0 15.88)" fill="#6595bf"/>
      </g>
      <g id="Grupo_59528" data-name="Grupo 59528" transform="translate(180.234 109.305)">
        <rect id="Rectángulo_8455" data-name="Rectángulo 8455" width="1.652" height="37.542" transform="translate(2.665)" fill="#6595bf"/>
        <rect id="Rectángulo_8456" data-name="Rectángulo 8456" width="6.991" height="12.347" transform="translate(0 5.773)" fill="#6595bf"/>
      </g>
      <g id="Grupo_59529" data-name="Grupo 59529" transform="translate(203.174 65.275)">
        <rect id="Rectángulo_8457" data-name="Rectángulo 8457" width="1.652" height="80.142" transform="translate(2.665)" fill="#6595bf"/>
        <rect id="Rectángulo_8458" data-name="Rectángulo 8458" width="6.991" height="54.223" transform="translate(0 10.107)" fill="#6595bf"/>
      </g>
      <g id="Grupo_59530" data-name="Grupo 59530" transform="translate(226.113 103.175)">
        <rect id="Rectángulo_8459" data-name="Rectángulo 8459" width="1.78" height="77.979" transform="translate(2.606)" fill="#6595bf"/>
        <rect id="Rectángulo_8460" data-name="Rectángulo 8460" width="6.991" height="58.557" transform="translate(0 11.555)" fill="#6595bf"/>
      </g>
      <g id="Grupo_59531" data-name="Grupo 59531" transform="translate(249.052 129.767)">
        <rect id="Rectángulo_8461" data-name="Rectángulo 8461" width="1.652" height="77.979" transform="translate(2.665 0)" fill="#6595bf"/>
        <rect id="Rectángulo_8462" data-name="Rectángulo 8462" width="6.991" height="47.726" transform="translate(0 25.987)" fill="#6595bf"/>
      </g>
      <g id="Grupo_59532" data-name="Grupo 59532" transform="translate(271.991 42.081)">
        <rect id="Rectángulo_8463" data-name="Rectángulo 8463" width="1.652" height="99.641" transform="translate(2.665)" fill="#6595bf"/>
        <rect id="Rectángulo_8464" data-name="Rectángulo 8464" width="6.991" height="46.278" transform="translate(0 22.377)" fill="#6595bf"/>
      </g>
      <g id="Grupo_59533" data-name="Grupo 59533" transform="translate(294.93 22.283)">
        <rect id="Rectángulo_8465" data-name="Rectángulo 8465" width="1.652" height="84.476" transform="translate(2.665)" fill="#6595bf"/>
        <rect id="Rectángulo_8466" data-name="Rectángulo 8466" width="6.991" height="34.732" transform="translate(0 11.555)" fill="#6595bf"/>
      </g>
      <g id="Grupo_59534" data-name="Grupo 59534" transform="translate(317.869 79.572)">
        <rect id="Rectángulo_8467" data-name="Rectángulo 8467" width="1.78" height="77.979" transform="translate(2.606)" fill="#6595bf"/>
        <rect id="Rectángulo_8468" data-name="Rectángulo 8468" width="6.991" height="46.278" transform="translate(0 13.717)" fill="#6595bf"/>
      </g>
      <g id="Grupo_59535" data-name="Grupo 59535" transform="translate(329.338 74.224)">
        <rect id="Rectángulo_8469" data-name="Rectángulo 8469" width="1.652" height="77.979" transform="translate(4.326 77.979) rotate(180)" fill="#d9a171"/>
        <rect id="Rectángulo_8470" data-name="Rectángulo 8470" width="6.991" height="15.829" transform="translate(6.991 51.983) rotate(180)" fill="#d9a171"/>
      </g>
      <g id="Grupo_59536" data-name="Grupo 59536" transform="translate(306.399 59.655)">
        <rect id="Rectángulo_8471" data-name="Rectángulo 8471" width="1.652" height="64.977" transform="translate(4.326 64.977) rotate(180)" fill="#d9a171"/>
        <rect id="Rectángulo_8472" data-name="Rectángulo 8472" width="6.991" height="31.837" transform="translate(6.991 51.992) rotate(180)" fill="#d9a171"/>
      </g>
      <g id="Grupo_59537" data-name="Grupo 59537" transform="translate(283.46 80.789)">
        <rect id="Rectángulo_8473" data-name="Rectángulo 8473" width="1.652" height="77.979" transform="translate(4.326 77.979) rotate(180)" fill="#d9a171"/>
        <rect id="Rectángulo_8474" data-name="Rectángulo 8474" width="6.991" height="49.889" transform="translate(6.991 73.654) rotate(180)" fill="#d9a171"/>
      </g>
      <g id="Grupo_59538" data-name="Grupo 59538" transform="translate(260.521 82.892)">
        <rect id="Rectángulo_8475" data-name="Rectángulo 8475" width="1.652" height="77.979" transform="translate(4.326 84.544) rotate(180)" fill="#d9a171"/>
        <rect id="Rectángulo_8476" data-name="Rectángulo 8476" width="6.991" height="34.732" transform="translate(6.991 34.732) rotate(180)" fill="#d9a171"/>
      </g>
      <g id="Grupo_59539" data-name="Grupo 59539" transform="translate(237.582 52.954)">
        <rect id="Rectángulo_8477" data-name="Rectángulo 8477" width="1.652" height="80.142" transform="translate(2.665)" fill="#d9a171"/>
        <rect id="Rectángulo_8478" data-name="Rectángulo 8478" width="6.991" height="57.109" transform="translate(6.991 62.814) rotate(180)" fill="#d9a171"/>
      </g>
      <g id="Grupo_59540" data-name="Grupo 59540" transform="translate(214.643 52.843)">
        <rect id="Rectángulo_8479" data-name="Rectángulo 8479" width="1.652" height="61.384" transform="translate(4.326 61.384) rotate(180)" fill="#d9a171"/>
        <rect id="Rectángulo_8480" data-name="Rectángulo 8480" width="6.991" height="29.615" transform="translate(6.991 40.923) rotate(180)" fill="#d9a171"/>
      </g>
      <g id="Grupo_59541" data-name="Grupo 59541" transform="translate(191.704 92.753)">
        <rect id="Rectángulo_8481" data-name="Rectángulo 8481" width="1.652" height="101.804" transform="translate(4.326 101.804) rotate(180)" fill="#d9a171"/>
        <rect id="Rectángulo_8482" data-name="Rectángulo 8482" width="6.991" height="58.557" transform="translate(6.991 85.915) rotate(180)" fill="#d9a171"/>
      </g>
      <g id="Grupo_59542" data-name="Grupo 59542" transform="translate(168.765 72.973)">
        <rect id="Rectángulo_8483" data-name="Rectángulo 8483" width="1.652" height="37.542" transform="translate(4.326 37.542) rotate(180)" fill="#d9a171"/>
        <rect id="Rectángulo_8484" data-name="Rectángulo 8484" width="6.991" height="12.347" transform="translate(6.991 31.778) rotate(180)" fill="#d9a171"/>
      </g>
      <g id="Grupo_59543" data-name="Grupo 59543" transform="translate(145.826 69.737)">
        <rect id="Rectángulo_8485" data-name="Rectángulo 8485" width="1.652" height="80.142" transform="translate(4.326 80.142) rotate(180)" fill="#d9a171"/>
        <rect id="Rectángulo_8486" data-name="Rectángulo 8486" width="6.991" height="41.8" transform="translate(6.991 57.612) rotate(180)" fill="#d9a171"/>
      </g>
      <g id="Grupo_59544" data-name="Grupo 59544" transform="translate(122.887 34.298)">
        <rect id="Rectángulo_8487" data-name="Rectángulo 8487" width="1.78" height="77.979" transform="translate(4.385 77.979) rotate(180)" fill="#d9a171"/>
        <rect id="Rectángulo_8488" data-name="Rectángulo 8488" width="6.991" height="58.557" transform="translate(6.991 66.433) rotate(180)" fill="#d9a171"/>
      </g>
      <g id="Grupo_59545" data-name="Grupo 59545" transform="translate(99.948 20.572)">
        <rect id="Rectángulo_8489" data-name="Rectángulo 8489" width="1.652" height="72.853" transform="translate(4.326 72.853) rotate(180)" fill="#d9a171"/>
        <rect id="Rectángulo_8490" data-name="Rectángulo 8490" width="6.991" height="44.592" transform="translate(6.991 48.569) rotate(180)" fill="#d9a171"/>
      </g>
      <g id="Grupo_59546" data-name="Grupo 59546" transform="translate(77.009 66.45)">
        <rect id="Rectángulo_8491" data-name="Rectángulo 8491" width="1.652" height="41.544" transform="translate(4.317 41.544) rotate(180)" fill="#d9a171"/>
        <rect id="Rectángulo_8492" data-name="Rectángulo 8492" width="6.991" height="19.295" transform="translate(6.991 32.22) rotate(180)" fill="#d9a171"/>
      </g>
      <g id="Grupo_59547" data-name="Grupo 59547" transform="translate(31.13 50.621)">
        <rect id="Rectángulo_8493" data-name="Rectángulo 8493" width="1.78" height="77.979" transform="translate(2.606)" fill="#d9a171"/>
        <rect id="Rectángulo_8494" data-name="Rectángulo 8494" width="6.991" height="46.278" transform="translate(6.991 64.262) rotate(180)" fill="#d9a171"/>
      </g>
    </g>
    <g id="Grupo_59550" data-name="Grupo 59550" transform="translate(373.384 112.609)">
      <path id="Trazado_106610" data-name="Trazado 106610" d="M443.945,150.608a18.5,18.5,0,0,1-4.641-6.31c-1.7-3.925-5.714-8.983-7.2-8.387s2.852,7.016,2.852,7.016-4.257,2.98-3.27,6.667,4.76,3.406,5.654,4.462a9.256,9.256,0,0,1,1.4,2.359,20.266,20.266,0,0,0,3.806-2.623,4.734,4.734,0,0,0,1.4-3.185Z" transform="translate(-431.535 -131.69)" fill="#ecd0b8"/>
      <path id="Trazado_106611" data-name="Trazado 106611" d="M542.479,243.247s-2.929,7.289-6.5,10.065c-1.831,1.422-6.122-.851-6.122-.851s.9-6.991,2.027-9.026,6.088-4.5,6.088-4.5Z" transform="translate(-446.138 -146.997)" fill="#ecd0b8"/>
      <path id="Trazado_106612" data-name="Trazado 106612" d="M497.664,382.017s-5.424.9-10.218,2.027c-3.065.715-6.275,1.184-6.216,2.708.094,2.086,10.15,2.554,13.871,2.554s8.966.673,10.15,0-1.184-8.8-1.184-8.8Z" transform="translate(-438.916 -168.023)" fill="#344154"/>
      <path id="Trazado_106613" data-name="Trazado 106613" d="M534.386,380.014s-4.743,1.013-7.11,1.184-7.6.341-8.285,2.2,5.245,2.554,9.979,3.219,12.687,2.027,13.871,1.184.673-7.612-1.022-8.966S534.386,380.014,534.386,380.014Z" transform="translate(-444.516 -167.714)" fill="#344154"/>
      <path id="Trazado_106614" data-name="Trazado 106614" d="M489.192,248.665s-6.25,32.1-5.347,54.878,12.33,59,12.33,59a27.4,27.4,0,0,0,6.318.673,10.047,10.047,0,0,0,3.159-.673s-2.708-42.847-2.256-58.634a256.821,256.821,0,0,1,3.678-33.353s.758,30.143,6.395,49.982,14.952,40.42,14.952,40.42a24.769,24.769,0,0,0,6.088.681,6.6,6.6,0,0,0,3.534-1.379s-7.578-40.735-10.073-60.634c-2.231-17.822.136-50.953.136-50.953a89.408,89.408,0,0,0-17.5-1.584C502.041,247.311,489.192,248.665,489.192,248.665Z" transform="translate(-439.291 -148.208)" fill="#6595bf"/>
      <g id="Grupo_59549" data-name="Grupo 59549" transform="translate(47.924 3.201)">
        <path id="Trazado_106615" data-name="Trazado 106615" d="M507.072,155.675s-7.944,7.272-14.033,7.1-5.415-5.245-4.9-10.993,4.564-18.605,10.141-16.911,9.136,8.285,9.979,13.019a11.214,11.214,0,0,1-1.184,7.783Z" transform="translate(-487.818 -134.721)" fill="#ecd0b8"/>
        <path id="Trazado_106616" data-name="Trazado 106616" d="M497.29,163.175a43.269,43.269,0,0,1,1.916,6.991,11.844,11.844,0,0,0,1.967,5.228s7.374.094,9.077-2.972a68.069,68.069,0,0,0-4.317-13.675C504.579,155.937,497.29,163.175,497.29,163.175Z" transform="translate(-489.225 -138.193)" fill="#ecd0b8"/>
      </g>
      <path id="Trazado_106617" data-name="Trazado 106617" d="M503.864,159.374s-1.635-3.891-1.184-5.96a17.03,17.03,0,0,1,1.132-3.491,3.159,3.159,0,0,1-1.635-2.256,6.505,6.505,0,0,1,.17-2.316s.051-2.648-3.551-4.453a13.377,13.377,0,0,0-6.769-1.465s-.852-4.513-.111-7.331,13.36-.051,17.03,4.4.9,8,.9,8,3.755-.9,3.951,4.257c.221,6.088-5.415,10.26-6.088,10.49A24,24,0,0,1,503.864,159.374Z" transform="translate(-440.458 -130.962)" fill="#344154"/>
      <path id="Trazado_106618" data-name="Trazado 106618" d="M501,154.367s3.568-4.538,6.165-2.657-.213,5.543-3.151,5.552a2.938,2.938,0,0,1-3.014-2.9Z" transform="translate(-441.852 -133.976)" fill="#ecd0b8"/>
      <path id="Trazado_106619" data-name="Trazado 106619" d="M497.55,174.438l.17-2.878a15.591,15.591,0,0,1,6.931-2.027c4.4-.341,5.415,0,5.415,0l1.7,3.21a21.177,21.177,0,0,0-7.442.511A36.277,36.277,0,0,1,497.55,174.438Z" transform="translate(-441.339 -136.668)" fill="#344154"/>
      <path id="Trazado_106620" data-name="Trazado 106620" d="M487.012,171.322c2.554-.341,4.573-1.184,7.612-1.856s10.541-1.013,16.068,1.354c4.939,2.112,7.612,17.924,10.15,33.651s1.524,32.808,1.524,32.808-6.6,1.524-20.64,1.7-21.475-1.184-21.475-1.184,1.7-17.251-.851-29.427-2.367-16.911-10.661-21.815-17.081-9.307-22.658-15.727A47.563,47.563,0,0,1,438,157.29a12.671,12.671,0,0,1,3.721-4.257c2.205-1.354,3.048-1.184,3.048-1.184s9.809,8.966,16.238,13.53S484.474,171.663,487.012,171.322Z" transform="translate(-432.495 -134.063)" fill="#344154"/>
      <path id="Trazado_106621" data-name="Trazado 106621" d="M517.264,172.74a35.838,35.838,0,0,1,13.811,5.109c6.6,4.062,18.665,21.423,20.01,30.551s-11.665,28.755-11.665,28.755a35.118,35.118,0,0,0-3.832-3.406,15.324,15.324,0,0,0-3.61-2.256s9.46-15.957,8.609-21.551-16.911-17.583-16.911-17.583-7.612-7.272-8.285-11.333S517.264,172.74,517.264,172.74Z" transform="translate(-443.972 -137.167)" fill="#344154"/>
    </g>
    <g id="Grupo_59555" data-name="Grupo 59555" transform="translate(134.429 122.867)">
      <g id="Grupo_59554" data-name="Grupo 59554">
        <path id="Trazado_106622" data-name="Trazado 106622" d="M151.44,221.21a26.011,26.011,0,0,0,6.267,14.143c5.943,7.076,8.685,9.477,9.324,11.069s0,7.714.647,9.8a14.706,14.706,0,0,0,1.763,3.7s4.819-13.343,4.5-14.952-6.591-6.591-10.124-13.624-1.933-11.069-1.933-11.069a7.8,7.8,0,0,0-5.96-1.286C152.411,219.6,151.44,221.21,151.44,221.21Z" transform="translate(-150.984 -154.274)" fill="#ff9a6c"/>
        <path id="Trazado_106623" data-name="Trazado 106623" d="M198.2,165.528s7.553,6.914,13.334,6.752,5.109-4.981,4.666-10.448-4.343-17.677-9.647-16.068-8.677,7.876-9.477,12.372A10.652,10.652,0,0,0,198.2,165.528Z" transform="translate(-157.728 -143.397)" fill="#ffbf9d"/>
        <path id="Trazado_106624" data-name="Trazado 106624" d="M207.411,172.549a10.431,10.431,0,0,0-.851,5.364,38.989,38.989,0,0,0,1.064,6.642s-4.819.426-7.067-2.035-1.609-9.434-.962-12.321S207.411,172.549,207.411,172.549Z" transform="translate(-158.045 -146.918)" fill="#ff9a6c"/>
        <path id="Trazado_106625" data-name="Trazado 106625" d="M218.267,175.1s-.051-4.257-.162-5.96.851-4.819,1.609-4.257,2.035,5.782,2.554,8.677.613,5.22,3,6.965C231.108,184.778,241.555,193,241.555,193a12.721,12.721,0,0,1-4.658,2.9c-1.652.6-5.109.315-5.109.315s-9.6-14.084-10.558-14.833a71.263,71.263,0,0,1-5.782-5.731c-1.609-1.822-1.7-2.682-.851-2.631C215.713,173.027,218.267,175.1,218.267,175.1Z" transform="translate(-160.284 -146.247)" fill="#ff9a6c"/>
        <g id="Grupo_59551" data-name="Grupo 59551" transform="translate(40.834 117.739)">
          <path id="Trazado_106626" data-name="Trazado 106626" d="M211.738,381.9s-1.584,5.2-.162,7.144,19.329-.272,20.853-2.393-3.031-3.687-8.992-3.466A45.291,45.291,0,0,1,211.738,381.9Z" transform="translate(-200.661 -296.227)" fill="#344154"/>
          <path id="Trazado_106627" data-name="Trazado 106627" d="M198.86,289.361s4.922,19.346,6.352,25.792-.57,12.849.57,25.5,3.559,26.83,4.828,28.772,15.131,1.081,14.314-.332-8.1.187-8.515-3.678,2.648-44.754,2.759-55.04-1.626-27.248-1.626-27.248a51.089,51.089,0,0,0-11.12-1.839C200.452,281.042,198.86,289.361,198.86,289.361Z" transform="translate(-198.86 -281.284)" fill="#ecd0b8"/>
        </g>
        <g id="Grupo_59552" data-name="Grupo 59552" transform="translate(17.825 115.377)">
          <path id="Trazado_106628" data-name="Trazado 106628" d="M173.381,378.69s-2.359,4.9-1.243,7.05,19.516,0,20.878-2.265-3.312-3.406-9.239-2.75a17.745,17.745,0,0,1-10.4-2.035Z" transform="translate(-171.838 -293.388)" fill="#344154"/>
          <path id="Trazado_106629" data-name="Trazado 106629" d="M174.385,285.441s1.933,19.865,2.367,26.456-2.554,12.611-3.312,25.3-.553,27.052.4,29.163,14.373,1.422,13.454.077-7.289.724-7.084-3.151,9.409-43.835,11.069-53.984,2.554-27.162,2.554-27.162a51.275,51.275,0,0,0-10.712-3.508C177.254,277.446,174.385,285.441,174.385,285.441Z" transform="translate(-172.007 -278.51)" fill="#ecd0b8"/>
        </g>
        <path id="Trazado_106630" data-name="Trazado 106630" d="M175.6,247.268a65.9,65.9,0,0,0-4.99,20.1,172.334,172.334,0,0,0-.315,19.763,91.016,91.016,0,0,0,25.068,2.733,110.139,110.139,0,0,0,23.782-3.406s-1.763-17.524-4.819-29.1-5.96-12.534-5.96-12.534S179.456,241.648,175.6,247.268Z" transform="translate(-153.762 -157.997)" fill="#344154"/>
        <path id="Trazado_106631" data-name="Trazado 106631" d="M192.985,184.155a80.834,80.834,0,0,1,10.7,1.175c3.747.851,9.75,17.251,9.366,22.718s-4.394,18.426-4.394,18.426,3,8.677,4.07,11.921A22.138,22.138,0,0,1,213.906,243a115.444,115.444,0,0,1-21.96,1.822c-11.682-.213-17.788-2.784-17.788-2.784s4.394-11.137,4.717-13.394-.851-5.109-3.108-12.1-3.108-13.717-2.146-18.971S181.3,182.435,192.985,184.155Z" transform="translate(-154.22 -149.09)" fill="#d9a171"/>
        <path id="Trazado_106632" data-name="Trazado 106632" d="M165.563,193.559s-10.822,9.111-13.181,14.79a16.936,16.936,0,0,0-1.184,10.065,9.817,9.817,0,0,1,4.828-2.035,11.4,11.4,0,0,1,5.892.647s2.887-8.14,7.178-11.461,6.318-3.542,6.318-3.542,1.7-10.822,1.286-11.785S170.17,188.739,165.563,193.559Z" transform="translate(-150.904 -149.928)" fill="#d9a171"/>
        <g id="Grupo_59553" data-name="Grupo 59553" transform="translate(46.691 35.916)">
          <path id="Trazado_106633" data-name="Trazado 106633" d="M206.489,185.19s6.216.647,15.855,5.79,13.624,8.677,15.429,10.388,2.674,5.79,1.286,6.642-14.569.434-21.968-2.35-10.814-10.5-11.248-12.968S206.489,185.19,206.489,185.19Z" transform="translate(-205.739 -185.19)" fill="#d9a171"/>
          <path id="Trazado_106634" data-name="Trazado 106634" d="M235.888,200.432a16.813,16.813,0,0,1,5.254-3.006,9.056,9.056,0,0,1,3-.528s4.181,4.172,3.747,8.14-3,5.356-5.96,5.458a67.486,67.486,0,0,1-8.149-.528s-2.035-6.216-2.461-8.038S235.888,200.432,235.888,200.432Z" transform="translate(-209.534 -186.928)" fill="#d9a171"/>
        </g>
        <path id="Trazado_106635" data-name="Trazado 106635" d="M207.766,152.172s-.23-8.7-6.659-9.136-7.927,4.666-11.146,5.194-10.6-.051-16.6,7.987-2.716,18.281-3.857,21.747c-1.422,4.334-6.812,6.718-9.911,10.286-3.8,4.377-9.264,15.429-.588,21.108s15.216,1.7,17.464,3.959,10.5,7.825,18.324,3.644,8.03-12.423,5.569-19.073-2.9-6.957-2.146-12.772-2.554-11.137-2.137-16.068,1.158-6.982,3-9.366c.809-1.022.639-5.467,2.461-6.965C204.071,150.665,207.766,152.172,207.766,152.172Z" transform="translate(-151.418 -143.009)" fill="#344154"/>
      </g>
      <path id="Trazado_106636" data-name="Trazado 106636" d="M207.612,164.821s-2.41-4.93-5.2-3.7-.911,5.194,1.822,5.79a2.793,2.793,0,0,0,3.38-2.095Z" transform="translate(-158.349 -145.67)" fill="#ffbf9d"/>
    </g>
    <path id="Trazado_106637" data-name="Trazado 106637" d="M305.163,334.465H237.41v-40.08l33.881-28.806,33.872,28.806v40.08Z" transform="translate(-29.322 -38.345)" fill="#6595bf"/>
    <g id="Grupo_59559" data-name="Grupo 59559" transform="translate(63.828 15.853)">
      <path id="Trazado_106638" data-name="Trazado 106638" d="M385.58,21.92h67.753V62L419.452,90.805,385.58,62V21.92Z" transform="translate(-115.155 -18.012)" fill="#d9a171"/>
      <g id="Grupo_59558" data-name="Grupo 59558">
        <path id="Trazado_106639" data-name="Trazado 106639" d="M629.516,104.205a2.827,2.827,0,0,0-.6-1.933,5.7,5.7,0,0,0-2.137-1.328c-1.022-.417-1.958-.851-2.827-1.26a10.581,10.581,0,0,1-2.231-1.482,5.842,5.842,0,0,1-1.43-1.958,6.471,6.471,0,0,1-.5-2.682,5.773,5.773,0,0,1,1.78-4.343,7.663,7.663,0,0,1,4.743-1.992V83.94h2.478v3.355a6.965,6.965,0,0,1,4.487,2.35,7.272,7.272,0,0,1,1.635,4.888h-5.279A4.257,4.257,0,0,0,629,92.038a2.273,2.273,0,0,0-3.406-.23,2.648,2.648,0,0,0-.571,1.788,2.555,2.555,0,0,0,.656,1.831,6.5,6.5,0,0,0,2.137,1.337c.962.417,1.882.851,2.733,1.286a10.346,10.346,0,0,1,2.222,1.5,6.157,6.157,0,0,1,1.473,1.967,6.36,6.36,0,0,1,.528,2.7,5.841,5.841,0,0,1-1.7,4.351,7.271,7.271,0,0,1-4.607,1.967v3.142h-2.486v-3.2a7.927,7.927,0,0,1-5.211-2.325,7.374,7.374,0,0,1-1.822-5.2h5.262a4.036,4.036,0,0,0,.783,2.7,2.767,2.767,0,0,0,2.239.928,2.2,2.2,0,0,0,1.7-.63,2.376,2.376,0,0,0,.579-1.737Z" transform="translate(-149.812 -27.222)" fill="#a66d58"/>
        <path id="Trazado_106640" data-name="Trazado 106640" d="M569.1,63.151a1.49,1.49,0,0,0-.323-1.013,2.955,2.955,0,0,0-1.115-.7,15.174,15.174,0,0,1-1.482-.664A4.88,4.88,0,0,1,565.017,60a2.963,2.963,0,0,1-.758-1.022,3.448,3.448,0,0,1-.255-1.4,3.04,3.04,0,0,1,.928-2.282,3.985,3.985,0,0,1,2.486-1.039v-1.7h1.3V54.3a3.644,3.644,0,0,1,2.35,1.192,3.831,3.831,0,0,1,.852,2.554h-2.759a2.2,2.2,0,0,0-.332-1.3,1.2,1.2,0,0,0-1.78-.119,1.37,1.37,0,0,0-.3.937,1.337,1.337,0,0,0,.349.962,3.261,3.261,0,0,0,1.1.673c.511.221.988.443,1.439.673a5.39,5.39,0,0,1,1.167.792,3.479,3.479,0,0,1,.2,4.777,3.832,3.832,0,0,1-2.41,1.03v1.643h-1.345v-1.66a4.147,4.147,0,0,1-2.733-1.226,3.84,3.84,0,0,1-.954-2.725h2.75a2.162,2.162,0,0,0,.417,1.422,1.447,1.447,0,0,0,1.175.485,1.15,1.15,0,0,0,.851-.332,1.269,1.269,0,0,0,.341-.92Z" transform="translate(-141.588 -22.561)" fill="#f2e9e6"/>
        <path id="Trazado_106641" data-name="Trazado 106641" d="M618.111,31.294a1.959,1.959,0,0,0-.426-1.328,3.748,3.748,0,0,0-1.473-.911c-.7-.29-1.345-.579-1.941-.852a6.555,6.555,0,0,1-1.541-1.022,4.017,4.017,0,0,1-.988-1.345,4.444,4.444,0,0,1-.341-1.848A3.96,3.96,0,0,1,612.627,21a5.228,5.228,0,0,1,3.27-1.4V17.33h1.7v2.316a4.777,4.777,0,0,1,3.091,1.618,5.041,5.041,0,0,1,1.124,3.406h-3.627a2.945,2.945,0,0,0-.434-1.7,1.422,1.422,0,0,0-1.226-.6,1.38,1.38,0,0,0-1.1.443,1.788,1.788,0,0,0-.392,1.235,1.7,1.7,0,0,0,.451,1.26,4.325,4.325,0,0,0,1.448.894c.664.281,1.294.579,1.89.851a7.663,7.663,0,0,1,1.533,1.039,4.07,4.07,0,0,1,1.371,3.219,4.019,4.019,0,0,1-1.167,3,5.007,5.007,0,0,1-3.176,1.354v2.163h-1.7V35.62a5.432,5.432,0,0,1-3.593-1.609,5.109,5.109,0,0,1-1.252-3.585h3.619A2.835,2.835,0,0,0,615,32.291a1.916,1.916,0,0,0,1.541.639,1.5,1.5,0,0,0,1.149-.434,1.652,1.652,0,0,0,.417-1.2Z" transform="translate(-148.608 -17.33)" fill="#344154"/>
        <path id="Trazado_106642" data-name="Trazado 106642" d="M68,33.584a13.5,13.5,0,0,1,4.164-10.269q4.164-3.925,11.154-3.925t11.206,3.9q4.13,3.874,4.13,10.533v3.406a13.333,13.333,0,0,1-4.113,10.218Q90.427,51.3,83.41,51.363q-6.948,0-11.18-3.857T68,36.939Zm10.218,3.627A5.739,5.739,0,0,0,79.63,41.2a4.853,4.853,0,0,0,3.781,1.524q4.973,0,4.964-6.292V33.6a5.96,5.96,0,0,0-1.32-4.019,4.624,4.624,0,0,0-3.73-1.575,4.734,4.734,0,0,0-3.687,1.524,6.029,6.029,0,0,0-1.371,4.164ZM86.4,84.043l-7.425-3.73,33.617-53.806,7.416,3.738ZM100.67,72.318a13.362,13.362,0,0,1,4.189-10.3q4.189-3.874,11.129-3.874,7.05,0,11.206,3.823t4.164,10.686v3.312a13.488,13.488,0,0,1-4.113,10.3q-4.113,3.874-11.163,3.874-6.948,0-11.18-3.849t-4.257-10.567Zm10.218,3.627a5.62,5.62,0,0,0,1.507,3.883,4.811,4.811,0,0,0,3.687,1.7c3.057,0,4.717-1.439,4.964-4.317l.051-4.836a5.807,5.807,0,0,0-1.371-4.019,5.339,5.339,0,0,0-7.374-.094,5.662,5.662,0,0,0-1.465,3.874Z" transform="translate(-67.989 -17.636)" fill="#bfd9eb"/>
        <path id="Trazado_106643" data-name="Trazado 106643" d="M398.908,323.8a9.477,9.477,0,0,1,2.921-7.229,10.931,10.931,0,0,1,7.825-2.75,11.1,11.1,0,0,1,7.859,2.733,9.733,9.733,0,0,1,2.887,7.416v2.384a9.434,9.434,0,0,1-2.887,7.2,10.908,10.908,0,0,1-7.791,2.716,11.248,11.248,0,0,1-7.851-2.7,9.545,9.545,0,0,1-2.963-7.416Zm7.2,2.554a4.036,4.036,0,0,0,.962,2.793,3.406,3.406,0,0,0,2.657,1.064c2.316,0,3.483-1.473,3.483-4.411v-1.984a4.257,4.257,0,0,0-.928-2.818,3.253,3.253,0,0,0-2.623-1.1,3.3,3.3,0,0,0-2.554,1.073,4.2,4.2,0,0,0-.962,2.912Zm5.739,32.85-5.194-2.657,23.586-37.755,5.211,2.623Zm10.022-8.225a9.366,9.366,0,0,1,2.929-7.229,12.7,12.7,0,0,1,15.676-.034,9.72,9.72,0,0,1,2.921,7.493v2.325a9.468,9.468,0,0,1-2.887,7.229,10.987,10.987,0,0,1-7.825,2.725,11.206,11.206,0,0,1-7.851-2.708,9.52,9.52,0,0,1-2.963-7.408Zm7.161,2.554a3.951,3.951,0,0,0,1.064,2.725,3.406,3.406,0,0,0,2.554,1.167q3.219,0,3.483-3.031v-3.406a4.07,4.07,0,0,0-.962-2.818,3.747,3.747,0,0,0-5.177-.068,4.036,4.036,0,0,0-1.03,2.725Z" transform="translate(-117.132 -61.362)" fill="#b2d1e7"/>
        <g id="Grupo_59556" data-name="Grupo 59556" transform="translate(148.33 252.112)">
          <path id="Trazado_106644" data-name="Trazado 106644" d="M251.573,321.9a4.428,4.428,0,0,1-1.422,2.98,4.649,4.649,0,0,1-3.193,1.056,4.257,4.257,0,0,1-3.457-1.55,6.208,6.208,0,0,1-1.3-4.138v-1.175a6.974,6.974,0,0,1,.6-2.98,4.573,4.573,0,0,1,1.7-1.984,4.794,4.794,0,0,1,2.554-.69,4.377,4.377,0,0,1,3.108,1.09,4.5,4.5,0,0,1,1.362,3h-1.609a3.534,3.534,0,0,0-.911-2.12,2.742,2.742,0,0,0-1.873-.622,2.878,2.878,0,0,0-2.418,1.132,5.254,5.254,0,0,0-.851,3.244v1.175a5.364,5.364,0,0,0,.851,3.159,2.682,2.682,0,0,0,2.316,1.175,3.057,3.057,0,0,0,2.052-.613,3.406,3.406,0,0,0,.954-2.112Z" transform="translate(-242.19 -313.414)" fill="#fff"/>
          <path id="Trazado_106645" data-name="Trazado 106645" d="M257,321.706a5.339,5.339,0,0,1,.528-2.393,3.951,3.951,0,0,1,1.448-1.643,4,4,0,0,1,2.129-.571,3.84,3.84,0,0,1,3,1.277,4.93,4.93,0,0,1,1.141,3.406v.111a5.339,5.339,0,0,1-.511,2.367,3.806,3.806,0,0,1-1.448,1.635,3.977,3.977,0,0,1-2.163.588,3.8,3.8,0,0,1-2.98-1.286A4.9,4.9,0,0,1,257,321.791Zm1.558.187a3.84,3.84,0,0,0,.7,2.41,2.367,2.367,0,0,0,3.738,0,4.2,4.2,0,0,0,.7-2.554,3.857,3.857,0,0,0-.707-2.41,2.35,2.35,0,0,0-3.73,0,4.207,4.207,0,0,0-.673,2.555Z" transform="translate(-244.388 -313.961)" fill="#fff"/>
          <path id="Trazado_106646" data-name="Trazado 106646" d="M276.188,323.911a1.132,1.132,0,0,0-.477-.971,4.453,4.453,0,0,0-1.643-.6,8.2,8.2,0,0,1-1.873-.6,2.673,2.673,0,0,1-1.013-.851,2.01,2.01,0,0,1-.332-1.158,2.358,2.358,0,0,1,.937-1.865,3.7,3.7,0,0,1,2.41-.766,3.789,3.789,0,0,1,2.495.792,2.554,2.554,0,0,1,.954,2.035h-1.55a1.388,1.388,0,0,0-.545-1.1,2.009,2.009,0,0,0-1.354-.46,2.1,2.1,0,0,0-1.32.366,1.15,1.15,0,0,0-.477.962.928.928,0,0,0,.443.852,5.107,5.107,0,0,0,1.6.545,8.739,8.739,0,0,1,1.873.622,2.648,2.648,0,0,1,1.064.851,2.044,2.044,0,0,1,.366,1.26,2.325,2.325,0,0,1-.971,1.95,4.07,4.07,0,0,1-2.512.732,4.564,4.564,0,0,1-1.924-.383,3.176,3.176,0,0,1-1.311-1.081,2.555,2.555,0,0,1-.468-1.49H272.1a1.635,1.635,0,0,0,.622,1.235,2.418,2.418,0,0,0,1.541.451,2.47,2.47,0,0,0,1.4-.349,1.09,1.09,0,0,0,.519-.979Z" transform="translate(-246.403 -313.961)" fill="#fff"/>
          <path id="Trazado_106647" data-name="Trazado 106647" d="M285.273,314.72v2.188h1.7v1.2h-1.7v5.62a1.32,1.32,0,0,0,.221.852.971.971,0,0,0,.775.273,3.683,3.683,0,0,0,.732-.1v1.243a4.511,4.511,0,0,1-1.184.17,1.924,1.924,0,0,1-1.567-.63,2.708,2.708,0,0,1-.528-1.78v-5.645H282.08v-1.2h1.635V314.72Z" transform="translate(-248.114 -313.608)" fill="#fff"/>
          <path id="Trazado_106648" data-name="Trazado 106648" d="M291.259,321.706a5.339,5.339,0,0,1,.528-2.393,3.891,3.891,0,0,1,1.448-1.643,3.985,3.985,0,0,1,2.129-.571,3.84,3.84,0,0,1,3,1.277,4.93,4.93,0,0,1,1.141,3.406v.111a5.339,5.339,0,0,1-.511,2.367,3.806,3.806,0,0,1-1.448,1.635,3.976,3.976,0,0,1-2.163.588,3.8,3.8,0,0,1-2.98-1.286,4.9,4.9,0,0,1-1.141-3.406Zm1.558.187a3.84,3.84,0,0,0,.7,2.41,2.367,2.367,0,0,0,3.738,0,4.2,4.2,0,0,0,.7-2.554,3.857,3.857,0,0,0-.707-2.41,2.35,2.35,0,0,0-3.73,0A4.206,4.206,0,0,0,292.817,321.893Z" transform="translate(-249.476 -313.961)" fill="#fff"/>
          <path id="Trazado_106649" data-name="Trazado 106649" d="M310.417,323.908a1.132,1.132,0,0,0-.477-.971,4.454,4.454,0,0,0-1.643-.6,8.115,8.115,0,0,1-1.865-.6,2.7,2.7,0,0,1-1.022-.851,2.009,2.009,0,0,1-.332-1.158,2.359,2.359,0,0,1,.937-1.882,3.7,3.7,0,0,1,2.41-.766,3.789,3.789,0,0,1,2.5.783,2.554,2.554,0,0,1,.954,2.035h-1.55a1.388,1.388,0,0,0-.545-1.1,2.009,2.009,0,0,0-1.354-.46,2.1,2.1,0,0,0-1.32.366,1.15,1.15,0,0,0-.477.962.928.928,0,0,0,.443.852,5.108,5.108,0,0,0,1.6.545,8.737,8.737,0,0,1,1.873.622,2.734,2.734,0,0,1,1.073.852,2.1,2.1,0,0,1,.341,1.226,2.325,2.325,0,0,1-.971,1.95,4.07,4.07,0,0,1-2.512.732,4.565,4.565,0,0,1-1.924-.383,3.176,3.176,0,0,1-1.311-1.081,2.554,2.554,0,0,1-.468-1.49h1.541a1.635,1.635,0,0,0,.622,1.235,2.418,2.418,0,0,0,1.541.451,2.469,2.469,0,0,0,1.4-.349,1.09,1.09,0,0,0,.528-.92Z" transform="translate(-251.486 -313.958)" fill="#fff"/>
        </g>
        <g id="Grupo_59557" data-name="Grupo 59557" transform="translate(274.38 19.091)">
          <path id="Trazado_106650" data-name="Trazado 106650" d="M399.638,50.5a3.678,3.678,0,0,1-1.7,1.328,7.059,7.059,0,0,1-2.555.443,5.049,5.049,0,0,1-2.64-.7,4.623,4.623,0,0,1-1.856-1.992,6.735,6.735,0,0,1-.647-2.98V45.54a6.369,6.369,0,0,1,1.286-4.257,4.445,4.445,0,0,1,3.619-1.524,4.589,4.589,0,0,1,3.074.979,4.258,4.258,0,0,1,1.422,2.759h-1.609a2.657,2.657,0,0,0-2.887-2.427,2.844,2.844,0,0,0-2.444,1.141,5.535,5.535,0,0,0-.851,3.278v1a5.194,5.194,0,0,0,.937,3.261,3.04,3.04,0,0,0,2.554,1.209,5.518,5.518,0,0,0,1.584-.2,2.376,2.376,0,0,0,1.115-.681V47.354h-2.818V46.043h4.419Z" transform="translate(-390.225 -39.751)" fill="#fff"/>
          <path id="Trazado_106651" data-name="Trazado 106651" d="M411.694,52.653a3.484,3.484,0,0,1-.221-.954,3.406,3.406,0,0,1-2.555,1.124,3.2,3.2,0,0,1-2.2-.758,2.478,2.478,0,0,1-.852-1.924,2.554,2.554,0,0,1,1.081-2.2,5.109,5.109,0,0,1,3.023-.775h1.507v-.7A1.754,1.754,0,0,0,411,45.177a1.975,1.975,0,0,0-1.431-.477,2.222,2.222,0,0,0-1.388.417,1.235,1.235,0,0,0-.562,1.013h-1.558a2.137,2.137,0,0,1,.485-1.311,3.252,3.252,0,0,1,1.3-1,4.334,4.334,0,0,1,1.805-.375,3.576,3.576,0,0,1,2.452.783,2.8,2.8,0,0,1,.92,2.154V50.55a5.04,5.04,0,0,0,.324,1.984v.136Zm-2.554-1.184a2.7,2.7,0,0,0,1.388-.375,2.273,2.273,0,0,0,.945-.979V48.26h-1.235c-1.9,0-2.844.553-2.844,1.7a1.4,1.4,0,0,0,.485,1.132,1.865,1.865,0,0,0,1.243.375Z" transform="translate(-392.548 -40.299)" fill="#fff"/>
          <path id="Trazado_106652" data-name="Trazado 106652" d="M424.287,50.248a1.133,1.133,0,0,0-.468-.971,4.487,4.487,0,0,0-1.652-.6,7.757,7.757,0,0,1-1.865-.6,2.716,2.716,0,0,1-1.022-.851,1.984,1.984,0,0,1-.332-1.15,2.342,2.342,0,0,1,.945-1.882,3.7,3.7,0,0,1,2.4-.775,3.781,3.781,0,0,1,2.495.8,2.554,2.554,0,0,1,.971,2.035H424.2a1.4,1.4,0,0,0-.536-1.09,2.027,2.027,0,0,0-1.362-.46,2.1,2.1,0,0,0-1.32.366,1.167,1.167,0,0,0-.477.962.928.928,0,0,0,.443.851,5.526,5.526,0,0,0,1.6.545,8.37,8.37,0,0,1,1.882.622,2.767,2.767,0,0,1,1.064.851,2.154,2.154,0,0,1,.349,1.235,2.333,2.333,0,0,1-.937,1.95,4.1,4.1,0,0,1-2.554.732,4.6,4.6,0,0,1-1.924-.392,3.125,3.125,0,0,1-1.3-1.073,2.554,2.554,0,0,1-.477-1.49h1.55a1.584,1.584,0,0,0,.622,1.235,2.444,2.444,0,0,0,1.533.477,2.5,2.5,0,0,0,1.413-.358,1.09,1.09,0,0,0,.519-.971Z" transform="translate(-394.446 -40.295)" fill="#fff"/>
          <path id="Trazado_106653" data-name="Trazado 106653" d="M433.373,41.06v2.188h1.7v1.167h-1.7v5.611a1.235,1.235,0,0,0,.23.851.92.92,0,0,0,.766.272,4.334,4.334,0,0,0,.741-.094V52.3a4.581,4.581,0,0,1-1.192.17,1.95,1.95,0,0,1-1.567-.63,2.708,2.708,0,0,1-.528-1.78V44.415H430.18V43.248h1.643V41.06Z" transform="translate(-396.159 -39.945)" fill="#fff"/>
          <path id="Trazado_106654" data-name="Trazado 106654" d="M439.37,48.039a5.339,5.339,0,0,1,.536-2.427,3.917,3.917,0,0,1,1.456-1.643,3.968,3.968,0,0,1,2.129-.579,3.815,3.815,0,0,1,2.989,1.286,4.887,4.887,0,0,1,1.141,3.406v.1a5.466,5.466,0,0,1-.5,2.376,3.917,3.917,0,0,1-1.448,1.635,3.993,3.993,0,0,1-2.163.588,3.806,3.806,0,0,1-2.98-1.286,4.879,4.879,0,0,1-1.141-3.406Zm1.55.179a3.9,3.9,0,0,0,.69,2.418,2.376,2.376,0,0,0,3.747,0,4.257,4.257,0,0,0,.69-2.554,3.849,3.849,0,0,0-.707-2.418,2.239,2.239,0,0,0-1.873-.92,2.205,2.205,0,0,0-1.856.869,4.181,4.181,0,0,0-.69,2.606Z" transform="translate(-397.523 -40.291)" fill="#fff"/>
          <path id="Trazado_106655" data-name="Trazado 106655" d="M458.521,50.248a1.132,1.132,0,0,0-.477-.971,4.368,4.368,0,0,0-1.643-.6,7.757,7.757,0,0,1-1.865-.6,2.716,2.716,0,0,1-1.022-.851,1.984,1.984,0,0,1-.332-1.15,2.342,2.342,0,0,1,.945-1.882,3.7,3.7,0,0,1,2.4-.775,3.781,3.781,0,0,1,2.495.8,2.554,2.554,0,0,1,.962,2.027h-1.558a1.4,1.4,0,0,0-.536-1.09,2.027,2.027,0,0,0-1.362-.46,2.1,2.1,0,0,0-1.32.366,1.167,1.167,0,0,0-.477.962.928.928,0,0,0,.443.851,5.526,5.526,0,0,0,1.6.545,8.371,8.371,0,0,1,1.882.622,2.767,2.767,0,0,1,1.064.851,2.155,2.155,0,0,1,.349,1.235,2.333,2.333,0,0,1-.971,1.95,4.1,4.1,0,0,1-2.554.732,4.6,4.6,0,0,1-1.856-.383,3.125,3.125,0,0,1-1.3-1.073,2.555,2.555,0,0,1-.477-1.49h1.55a1.584,1.584,0,0,0,.622,1.235,2.427,2.427,0,0,0,1.533.451,2.5,2.5,0,0,0,1.414-.358A1.09,1.09,0,0,0,458.521,50.248Z" transform="translate(-399.534 -40.295)" fill="#fff"/>
        </g>
      </g>
    </g>
  </g>
</svg>
