<svg xmlns="http://www.w3.org/2000/svg" width="495.7" height="317.266" viewBox="0 0 495.7 317.266">
  <g id="Capa_2" data-name="Capa 2" transform="translate(-28.3 -71.084)">
    <g id="Grupo_59953" data-name="Grupo 59953" transform="translate(28.3 71.084)">
      <g id="freepik--background-complete--inject-14" transform="translate(0.356)">
        <path id="Trazado_109976" data-name="Trazado 109976" d="M32.45,312.91,38,349.318H70.181l7.474-35.874Z" transform="translate(-27.99 -32.249)" fill="#aed3f2"/>
        <path id="Trazado_109977" data-name="Trazado 109977" d="M72.652,333.026c0,.1-8.252.186-18.43.186s-18.442,0-18.442-.186,8.24-.186,18.419-.186S72.652,332.944,72.652,333.026Z" transform="translate(-27.455 -29.049)" fill="#fafafa"/>
        <path id="Trazado_109978" data-name="Trazado 109978" d="M72.769,331.5c0,.1-8.31.2-18.569.2s-18.569-.093-18.569-.2,8.3-.186,18.569-.186S72.769,331.391,72.769,331.5Z" transform="translate(-27.479 -29.295)" fill="#fafafa"/>
        <path id="Trazado_109979" data-name="Trazado 109979" d="M72.689,329.756c0,.1-8.3.186-18.569.186s-18.569-.081-18.569-.186,8.3-.186,18.569-.186S72.689,329.651,72.689,329.756Z" transform="translate(-27.492 -29.574)" fill="#fafafa"/>
        <path id="Trazado_109980" data-name="Trazado 109980" d="M40.632,343.765a30.86,30.86,0,0,1-.987-4.573,32.963,32.963,0,0,1-.615-4.642,28.039,28.039,0,0,1,.986,4.584A28.587,28.587,0,0,1,40.632,343.765Z" transform="translate(-26.933 -28.774)" fill="#fafafa"/>
        <path id="Trazado_109981" data-name="Trazado 109981" d="M42.384,343.4q-.486-4.454-.6-8.937A36.223,36.223,0,0,1,42.384,343.4Z" transform="translate(-26.491 -28.789)" fill="#fafafa"/>
        <path id="Trazado_109982" data-name="Trazado 109982" d="M45.885,343.445a22.132,22.132,0,0,1-.836-4.642,21.634,21.634,0,0,1-.255-4.642,39.066,39.066,0,0,1,.627,4.642,41.168,41.168,0,0,1,.464,4.642Z" transform="translate(-26.012 -28.837)" fill="#fafafa"/>
        <path id="Trazado_109983" data-name="Trazado 109983" d="M48.219,343.615a23.363,23.363,0,0,1-.441-4.642,22.481,22.481,0,0,1,.139-4.642q.314,4.665.3,9.343Z" transform="translate(-25.538 -28.81)" fill="#fafafa"/>
        <path id="Trazado_109984" data-name="Trazado 109984" d="M52.49,343.39a25.615,25.615,0,0,1-.337-4.422,26.114,26.114,0,0,1,0-4.468,53.77,53.77,0,0,1,.3,8.855Z" transform="translate(-24.841 -28.782)" fill="#fafafa"/>
        <path id="Trazado_109985" data-name="Trazado 109985" d="M55.56,343.6a58.377,58.377,0,0,1,.081-9.157,27.482,27.482,0,0,1,.151,4.584,26.265,26.265,0,0,1-.232,4.573Z" transform="translate(-24.301 -28.792)" fill="#fafafa"/>
        <path id="Trazado_109986" data-name="Trazado 109986" d="M58.47,343.228A61.051,61.051,0,0,1,59.4,333.7a31.334,31.334,0,0,1-.267,4.782,32.67,32.67,0,0,1-.662,4.747Z" transform="translate(-23.811 -28.911)" fill="#fafafa"/>
        <path id="Trazado_109987" data-name="Trazado 109987" d="M62.24,342.606a25.266,25.266,0,0,1,1.753-8,35.977,35.977,0,0,1-.812,4,33.787,33.787,0,0,1-.94,3.992Z" transform="translate(-23.206 -28.765)" fill="#fafafa"/>
        <path id="Trazado_109988" data-name="Trazado 109988" d="M60.737,251a.5.5,0,0,1,0,.186,2.448,2.448,0,0,1-.139.511l-.615,1.961c-.255.836-.615,1.892-.94,3.122s-.754,2.6-1.161,4.143-.847,3.238-1.253,5.072-.836,3.807-1.2,5.9c-.743,4.155-1.486,8.751-1.973,13.591s-.685,9.494-.743,13.707v5.965c0,1.845.139,3.621.232,5.211s.221,3.041.313,4.306.209,2.321.313,3.238.162,1.544.209,2.043a2.321,2.321,0,0,0,0,.534v.151a.963.963,0,0,1,0-.174,4.014,4.014,0,0,0-.081-.534c-.07-.5-.162-1.161-.279-2.043s-.267-1.973-.371-3.238-.3-2.7-.383-4.294-.221-3.342-.267-5.211-.081-3.888-.1-6.012a136.17,136.17,0,0,1,.754-13.741c.5-4.863,1.161-9.459,2-13.614.429-2.077.824-4.039,1.288-5.873s.87-3.482,1.288-5.072.847-2.925,1.161-4.132.754-2.24,1.01-3.1.511-1.5.685-1.95c.07-.2.128-.371.186-.511a.569.569,0,0,1,.07-.139Z" transform="translate(-24.802 -42.192)" fill="#aed3f2"/>
        <path id="Trazado_109989" data-name="Trazado 109989" d="M54.65,271.4a11.954,11.954,0,0,1,5-6.314A2.82,2.82,0,0,1,62.3,264.6c1.161.545,1.219,2.124.882,3.319a8.8,8.8,0,0,1-3.644,4.967,7.428,7.428,0,0,1-5.466,1.4" transform="translate(-24.518 -40.03)" fill="#aed3f2"/>
        <path id="Trazado_109990" data-name="Trazado 109990" d="M52.933,285.013c.824-3.145,3.331-7.613,5.954-9.552a3.784,3.784,0,0,1,1.358-.743,1.544,1.544,0,0,1,1.439.313,2.193,2.193,0,0,1,.325,2.077,12.662,12.662,0,0,1-9.389,9.459" transform="translate(-24.751 -38.393)" fill="#aed3f2"/>
        <path id="Trazado_109991" data-name="Trazado 109991" d="M52.42,296.276a18.372,18.372,0,0,1,5.954-7.532,2.843,2.843,0,0,1,2.1-.743c1.161.209,1.648,1.6,1.544,2.751-.2,2.321-2.008,4.259-3.876,5.745a24.372,24.372,0,0,1-5.548,2.843" transform="translate(-24.783 -36.251)" fill="#aed3f2"/>
        <path id="Trazado_109992" data-name="Trazado 109992" d="M52.68,304.3a17.641,17.641,0,0,1,5.107-5.8,3.482,3.482,0,0,1,1.486-.685,1.544,1.544,0,0,1,1.5.569c.5.743,0,1.764-.534,2.484a14.449,14.449,0,0,1-7.277,5.339" transform="translate(-24.741 -34.678)" fill="#aed3f2"/>
        <path id="Trazado_109993" data-name="Trazado 109993" d="M53.762,301.115a55.973,55.973,0,0,0-7.289-7.451c-.418-.348-.94-.743-1.451-.557a1.16,1.16,0,0,0-.673.987,2.8,2.8,0,0,0,.279,1.161,14.183,14.183,0,0,0,9.389,7.9" transform="translate(-26.079 -35.437)" fill="#aed3f2"/>
        <path id="Trazado_109994" data-name="Trazado 109994" d="M54.165,290.476c-1.9-2.321-3.818-4.642-5.722-6.964a6.894,6.894,0,0,0-1.857-1.764,2.1,2.1,0,0,0-3.238,2.321,6.163,6.163,0,0,0,1.161,2.321,17.015,17.015,0,0,0,4.178,4.422,6.964,6.964,0,0,0,5.211,1.625" transform="translate(-26.249 -37.31)" fill="#aed3f2"/>
        <path id="Trazado_109995" data-name="Trazado 109995" d="M54.748,278.391a19.939,19.939,0,0,0-5.8-8.658,3.342,3.342,0,0,0-1.486-.882,2.553,2.553,0,0,0-2.635,1.857,4.758,4.758,0,0,0,.522,3.784,9.877,9.877,0,0,0,2.7,2.843,22.7,22.7,0,0,0,6.36,3.482" transform="translate(-26.031 -39.326)" fill="#aed3f2"/>
        <path id="Trazado_109996" data-name="Trazado 109996" d="M56.54,267.911c-.557-4.05-2.669-7.451-5.107-10.7-.511-.685-1.23-1.416-2.089-1.288a1.66,1.66,0,0,0-1.161,1.033,3.644,3.644,0,0,0-.232,1.613,12.523,12.523,0,0,0,8.124,11.177" transform="translate(-25.502 -41.404)" fill="#aed3f2"/>
        <path id="Trazado_109997" data-name="Trazado 109997" d="M56.747,262.616a33.273,33.273,0,0,1-.209-6.267,11.107,11.107,0,0,1,2.077-5.8,4.77,4.77,0,0,1,2.077-1.66,2.646,2.646,0,0,1,2.553.337,2.809,2.809,0,0,1,.87,2.24,6.963,6.963,0,0,1-.65,2.391c-1.486,3.679-4.062,7.741-6.7,8.774" transform="translate(-24.131 -42.561)" fill="#aed3f2"/>
        <path id="Trazado_109998" data-name="Trazado 109998" d="M35.211,264.84a1.973,1.973,0,0,1,0,.522v3.807a29.376,29.376,0,0,0,.116,3.076c.1,2.321.313,4.991.662,7.973s.882,6.267,1.578,9.679S39.146,296.513,40,299.4s1.776,5.443,2.6,7.567c.395,1.079.8,2.019,1.161,2.867s.638,1.555.894,2.135.429,1.01.58,1.358a2.322,2.322,0,0,1,.186.441,2.806,2.806,0,0,1-.244-.453c-.162-.337-.383-.743-.638-1.323s-.615-1.277-.963-2.112-.778-1.787-1.161-2.843c-.847-2.124-1.764-4.642-2.669-7.567s-1.752-6.116-2.472-9.528-1.161-6.7-1.567-9.679a72.1,72.1,0,0,1-.58-8.008v-6.906a2.24,2.24,0,0,1,.081-.511Z" transform="translate(-27.559 -39.969)" fill="#aed3f2"/>
        <path id="Trazado_109999" data-name="Trazado 109999" d="M36,280.019a8.519,8.519,0,0,1,2.043-5.385,2.031,2.031,0,0,1,1.694-.894c.882.128,1.288,1.161,1.311,2.066a6.151,6.151,0,0,1-1.416,4.132,5.258,5.258,0,0,1-3.482,2.124" transform="translate(-27.42 -38.54)" fill="#aed3f2"/>
        <path id="Trazado_110000" data-name="Trazado 110000" d="M37.651,289.651a14.461,14.461,0,0,1,2-7.788,2.635,2.635,0,0,1,.743-.778,1.08,1.08,0,0,1,1.045-.093,1.555,1.555,0,0,1,.673,1.346,9.041,9.041,0,0,1-4.352,8.461" transform="translate(-27.156 -37.39)" fill="#aed3f2"/>
        <path id="Trazado_110001" data-name="Trazado 110001" d="M39.82,297.431a13.022,13.022,0,0,1,2.46-6.418,2,2,0,0,1,1.253-.952c.824-.1,1.5.743,1.66,1.532a6.349,6.349,0,0,1-1.416,4.747,17.537,17.537,0,0,1-3.157,3.134" transform="translate(-26.806 -35.92)" fill="#aed3f2"/>
        <path id="Trazado_110002" data-name="Trazado 110002" d="M41.78,302.828a12.673,12.673,0,0,1,2.24-5.06,2.542,2.542,0,0,1,.894-.789,1.079,1.079,0,0,1,1.161.07c.5.395.395,1.161.174,1.811a10.445,10.445,0,0,1-3.807,5.211" transform="translate(-26.491 -34.83)" fill="#aed3f2"/>
        <path id="Trazado_110003" data-name="Trazado 110003" d="M42.018,300.258a40.007,40.007,0,0,0-6.569-3.482,1.161,1.161,0,0,0-1.161-.058.743.743,0,0,0-.244.812,2.007,2.007,0,0,0,.441.743,10.1,10.1,0,0,0,8.124,3.354" transform="translate(-27.74 -34.87)" fill="#aed3f2"/>
        <path id="Trazado_110004" data-name="Trazado 110004" d="M39.961,292.949l-5.408-3.482a4.758,4.758,0,0,0-1.636-.789,1.671,1.671,0,0,0-1.671.5,1.625,1.625,0,0,0,0,1.741,4.224,4.224,0,0,0,1.242,1.323,11.966,11.966,0,0,0,3.8,2.112,5.025,5.025,0,0,0,3.911,0" transform="translate(-28.224 -36.15)" fill="#aed3f2"/>
        <path id="Trazado_110005" data-name="Trazado 110005" d="M37.734,284.6a14.136,14.136,0,0,0-5.8-4.642,2.322,2.322,0,0,0-1.219-.279A1.8,1.8,0,0,0,29.32,281.5a3.412,3.412,0,0,0,1.161,2.472,7.358,7.358,0,0,0,2.449,1.358,16.584,16.584,0,0,0,5.083.975" transform="translate(-28.493 -37.586)" fill="#aed3f2"/>
        <path id="Trazado_110006" data-name="Trazado 110006" d="M36.7,277.045a16.864,16.864,0,0,0-5.8-6.186,1.718,1.718,0,0,0-1.694-.429,1.161,1.161,0,0,0-.592.952,2.832,2.832,0,0,0,.186,1.161,8.96,8.96,0,0,0,7.938,5.8" transform="translate(-28.607 -39.083)" fill="#aed3f2"/>
        <path id="Trazado_110007" data-name="Trazado 110007" d="M35.576,273.468a24.232,24.232,0,0,1-1.544-4.19,7.927,7.927,0,0,1,.174-4.41,3.261,3.261,0,0,1,1.056-1.578,1.857,1.857,0,0,1,1.811-.325,2.043,2.043,0,0,1,1.079,1.346,5,5,0,0,1,.07,1.764c-.244,2.832-1.1,6.151-2.693,7.451" transform="translate(-27.773 -40.287)" fill="#aed3f2"/>
        <path id="Trazado_110008" data-name="Trazado 110008" d="M71.7,264.54v2.008a17.236,17.236,0,0,1,0,2.321c0,.905,0,1.938,0,3.076-.07,2.321-.267,5-.592,8.008s-.847,6.29-1.555,9.679-1.59,6.627-2.472,9.517-1.822,5.443-2.681,7.567c-.406,1.068-.824,2.008-1.161,2.843s-.685,1.544-.963,2.124l-.638,1.323a3.274,3.274,0,0,1-.244.441,1.81,1.81,0,0,1,.174-.476c.139-.348.337-.789.58-1.346s.557-1.311.894-2.147.743-1.787,1.161-2.867c.824-2.124,1.706-4.642,2.588-7.567s1.718-6.093,2.437-9.494,1.219-6.708,1.59-9.679.557-5.7.662-7.985c.07-1.161.081-2.17.1-3.076s0-1.683,0-2.321v-1.416A2.217,2.217,0,0,1,71.7,264.54Z" transform="translate(-23.342 -40.017)" fill="#aed3f2"/>
        <path id="Trazado_110009" data-name="Trazado 110009" d="M70.171,279.72a8.472,8.472,0,0,0-2.043-5.385,2.054,2.054,0,0,0-1.706-.905c-.87.128-1.277,1.161-1.311,2.077a6.325,6.325,0,0,0,1.416,4.167,5.35,5.35,0,0,0,3.482,2.112" transform="translate(-22.745 -38.59)" fill="#aed3f2"/>
        <path id="Trazado_110010" data-name="Trazado 110010" d="M68.44,289.335a14.391,14.391,0,0,0-2-7.776,2.658,2.658,0,0,0-.743-.743,1.091,1.091,0,0,0-1.045-.1,1.555,1.555,0,0,0-.673,1.346,9.053,9.053,0,0,0,4.364,8.461" transform="translate(-22.93 -37.434)" fill="#aed3f2"/>
        <path id="Trazado_110011" data-name="Trazado 110011" d="M66.369,297.123a13.022,13.022,0,0,0-2.46-6.418,1.961,1.961,0,0,0-1.265-.963c-.812-.1-1.486.743-1.648,1.532a6.3,6.3,0,0,0,1.416,4.747,16.817,16.817,0,0,0,3.157,3.134" transform="translate(-23.412 -35.972)" fill="#aed3f2"/>
        <path id="Trazado_110012" data-name="Trazado 110012" d="M64.346,302.521a12.859,12.859,0,0,0-2.24-5.049,2.577,2.577,0,0,0-.905-.789,1.091,1.091,0,0,0-1.161,0c-.511.395-.395,1.161-.174,1.811a10.26,10.26,0,0,0,3.807,5.211" transform="translate(-23.617 -34.882)" fill="#aed3f2"/>
        <path id="Trazado_110013" data-name="Trazado 110013" d="M64.645,299.948a41.236,41.236,0,0,1,6.557-3.482,1.16,1.16,0,0,1,1.161-.058.766.766,0,0,1,.244.812,2.031,2.031,0,0,1-.453.743,10.109,10.109,0,0,1-8.124,3.354" transform="translate(-22.918 -34.92)" fill="#aed3f2"/>
        <path id="Trazado_110014" data-name="Trazado 110014" d="M66.772,292.649l5.408-3.482a5.234,5.234,0,0,1,1.636-.8,1.729,1.729,0,0,1,1.683.511,1.671,1.671,0,0,1,0,1.741,4.5,4.5,0,0,1-1.253,1.311,11.711,11.711,0,0,1-3.807,2.124,5.049,5.049,0,0,1-3.9,0" transform="translate(-22.515 -36.199)" fill="#aed3f2"/>
        <path id="Trazado_110015" data-name="Trazado 110015" d="M68.927,284.3a14.263,14.263,0,0,1,5.8-4.642,2.449,2.449,0,0,1,1.219-.279,1.822,1.822,0,0,1,1.393,1.834,3.482,3.482,0,0,1-1.161,2.472,7.08,7.08,0,0,1-2.437,1.346,16.584,16.584,0,0,1-5.083.975" transform="translate(-22.175 -37.634)" fill="#aed3f2"/>
        <path id="Trazado_110016" data-name="Trazado 110016" d="M69.886,276.734a16.864,16.864,0,0,1,5.8-6.186,1.8,1.8,0,0,1,1.706-.429,1.219,1.219,0,0,1,.592.963,2.8,2.8,0,0,1-.2,1.161,8.937,8.937,0,0,1-7.95,5.873" transform="translate(-21.985 -39.131)" fill="#aed3f2"/>
        <path id="Trazado_110017" data-name="Trazado 110017" d="M70.489,273.223a24.7,24.7,0,0,0,1.5-4.225,8.124,8.124,0,0,0-.162-4.422,3.331,3.331,0,0,0-1.068-1.567,1.88,1.88,0,0,0-1.811-.325,2.008,2.008,0,0,0-1.079,1.346,5.072,5.072,0,0,0-.07,1.776c.244,2.832,1.1,6.14,2.693,7.439" transform="translate(-22.321 -40.332)" fill="#aed3f2"/>
        <path id="Trazado_110018" data-name="Trazado 110018" d="M29.27,306.68v6.813a2.669,2.669,0,0,0,2.681,2.681H78.56a2.669,2.669,0,0,0,2.681-2.681h0V306.68Z" transform="translate(-28.5 -33.25)" fill="#aed3f2"/>
        <path id="Trazado_110019" data-name="Trazado 110019" d="M32.76,314.88l.383,2.17,43,3.064,1.091-5.234Z" transform="translate(-27.94 -31.933)" fill="#aed3f2"/>
        <path id="Trazado_110020" data-name="Trazado 110020" d="M124.741,253.73a8.124,8.124,0,0,0-6.813-9.285h0a.638.638,0,0,0-.8.859,9.819,9.819,0,0,0,7.648,8.67" transform="translate(-14.4 -43.25)" fill="#aed3f2"/>
        <path id="Trazado_110021" data-name="Trazado 110021" d="M114.087,267.6c2.054,4.225,5.014,7.08,8.67,7.219.743,0,1.277-.453,1.985-.5a4.525,4.525,0,0,1,1.161.441,1.891,1.891,0,0,0,.615.139c3.772-.2,6.964-2.855,9.169-7.3,3.029-6.232,2.089-12.917-2.077-14.96a9.912,9.912,0,0,0-1.718-.661,6.964,6.964,0,0,0-2.066-.244,15.087,15.087,0,0,0-4.735,1.079.741.741,0,0,0-.209.07c-3.389-1.486-6.093-1.486-8.716-.244C111.952,254.678,111.07,261.329,114.087,267.6Z" transform="translate(-15.166 -42.075)" fill="#aed3f2"/>
        <path id="Trazado_110022" data-name="Trazado 110022" d="M113.953,261.07a3.145,3.145,0,0,1-.337-1.253,6.72,6.72,0,0,1,2.112-5.722,3.481,3.481,0,0,1,1.068-.754s-.383.313-.928.87a7.614,7.614,0,0,0-1.613,2.565,7.463,7.463,0,0,0-.441,2.983C113.86,260.536,114.069,261.07,113.953,261.07Z" transform="translate(-14.963 -41.816)" fill="#fafafa"/>
        <path id="Trazado_110023" data-name="Trazado 110023" d="M114.61,262.7c-.07,0-.209-.279-.29-.662s-.1-.7,0-.743.209.279.29.662S114.691,262.682,114.61,262.7Z" transform="translate(-14.853 -40.538)" fill="#fafafa"/>
        <path id="Trazado_110024" data-name="Trazado 110024" d="M132.362,243.66c0,.058-.778.36-1.961,1.068a14.206,14.206,0,0,0-1.95,1.393,15.726,15.726,0,0,0-3.726,4.515,16.828,16.828,0,0,0-.975,2.194c-.453,1.288-.592,2.135-.65,2.124a2.6,2.6,0,0,1,.07-.6,6.5,6.5,0,0,1,.139-.685,7.334,7.334,0,0,1,.255-.905,12.95,12.95,0,0,1,.94-2.228,14.451,14.451,0,0,1,1.636-2.5,14.573,14.573,0,0,1,4.143-3.482,8.9,8.9,0,0,1,.824-.406,3.642,3.642,0,0,1,.662-.279A2.76,2.76,0,0,1,132.362,243.66Z" transform="translate(-13.432 -43.37)" fill="#aed3f2"/>
        <path id="Trazado_110025" data-name="Trazado 110025" d="M161.766,253.728a8.124,8.124,0,0,0-6.824-9.285h0a.812.812,0,0,0-.592.07c-.232.162-.232.5-.209.789a9.8,9.8,0,0,0,7.648,8.67" transform="translate(-8.449 -43.249)" fill="#aed3f2"/>
        <path id="Trazado_110026" data-name="Trazado 110026" d="M151.116,267.6c2.066,4.225,5.014,7.08,8.67,7.219.743,0,1.288-.453,1.985-.5a4.526,4.526,0,0,1,1.161.441,1.892,1.892,0,0,0,.615.139c3.784-.2,6.964-2.855,9.169-7.3,3.029-6.232,2.089-12.917-2.077-14.96a10.817,10.817,0,0,0-1.706-.662,6.963,6.963,0,0,0-2.077-.244,15.087,15.087,0,0,0-4.735,1.079l-.209.07c-3.389-1.486-6.093-1.486-8.716-.244C149,254.678,148.1,261.329,151.116,267.6Z" transform="translate(-9.219 -42.075)" fill="#aed3f2"/>
        <path id="Trazado_110027" data-name="Trazado 110027" d="M150.995,261.07a3.169,3.169,0,0,1-.348-1.253,6.72,6.72,0,0,1,2.112-5.722,3.18,3.18,0,0,1,1.079-.754s-.383.313-.94.87a7.4,7.4,0,0,0-1.6,2.565,7.684,7.684,0,0,0-.453,2.983A12.256,12.256,0,0,1,150.995,261.07Z" transform="translate(-9.016 -41.816)" fill="#fafafa"/>
        <path id="Trazado_110028" data-name="Trazado 110028" d="M151.671,262.7c-.081,0-.221-.279-.3-.662s-.1-.7,0-.743.209.279.29.662A1.161,1.161,0,0,1,151.671,262.7Z" transform="translate(-8.904 -40.538)" fill="#fafafa"/>
        <path id="Trazado_110029" data-name="Trazado 110029" d="M169.41,243.66c0,.058-.778.36-1.961,1.068a16.141,16.141,0,0,0-1.95,1.393,15.726,15.726,0,0,0-3.725,4.515,18.569,18.569,0,0,0-.975,2.194c-.453,1.288-.58,2.135-.638,2.124a3.485,3.485,0,0,1,.058-.6,6.5,6.5,0,0,1,.139-.685,8.054,8.054,0,0,1,.255-.905,12.951,12.951,0,0,1,.94-2.228,14.452,14.452,0,0,1,1.636-2.5,15.226,15.226,0,0,1,2.124-2.112,14.486,14.486,0,0,1,2.066-1.369,5.614,5.614,0,0,1,.836-.418,3.48,3.48,0,0,1,.65-.279,3.065,3.065,0,0,1,.545-.2Z" transform="translate(-7.481 -43.37)" fill="#aed3f2"/>
        <path id="Trazado_110030" data-name="Trazado 110030" d="M105.839,253.73a8.124,8.124,0,0,0-6.813-9.285h-.058a.638.638,0,0,0-.8.859,9.807,9.807,0,0,0,7.671,8.67" transform="translate(-17.445 -43.25)" fill="#aed3f2"/>
        <path id="Trazado_110031" data-name="Trazado 110031" d="M95.165,267.6c2.066,4.225,5.014,7.08,8.67,7.219.754,0,1.288-.453,1.985-.5a4.768,4.768,0,0,1,1.161.441,1.835,1.835,0,0,0,.615.139c3.772-.2,6.964-2.855,9.169-7.3,3.018-6.232,2.077-12.917-2.077-14.96a10.286,10.286,0,0,0-1.718-.662,6.963,6.963,0,0,0-2.066-.244,15.179,15.179,0,0,0-4.747,1.079.674.674,0,0,0-.2.07c-3.389-1.486-6.1-1.486-8.728-.244C93.076,254.678,92.148,261.329,95.165,267.6Z" transform="translate(-18.203 -42.075)" fill="#e0eaf2"/>
        <path id="Trazado_110032" data-name="Trazado 110032" d="M95.054,261.068a3.366,3.366,0,0,1-.348-1.253,6.755,6.755,0,0,1,2.112-5.71,3.308,3.308,0,0,1,1.068-.754s-.383.313-.928.87a7.346,7.346,0,0,0-2.054,5.548A10.932,10.932,0,0,0,95.054,261.068Z" transform="translate(-17.999 -41.814)" fill="#fafafa"/>
        <path id="Trazado_110033" data-name="Trazado 110033" d="M95.7,262.7c-.07,0-.209-.279-.3-.662s-.093-.7,0-.743.221.279.313.662S95.783,262.682,95.7,262.7Z" transform="translate(-17.892 -40.538)" fill="#fafafa"/>
        <path id="Trazado_110034" data-name="Trazado 110034" d="M113.464,243.66c0,.058-.789.36-1.961,1.068a14.208,14.208,0,0,0-1.95,1.393,15.262,15.262,0,0,0-4.642,6.708c-.453,1.288-.592,2.135-.65,2.124a2.6,2.6,0,0,1,.07-.6,4.459,4.459,0,0,1,.128-.685c.081-.267.139-.58.255-.905a12.951,12.951,0,0,1,.94-2.228,14.506,14.506,0,0,1,1.648-2.5,14.345,14.345,0,0,1,4.132-3.482c.3-.174.592-.29.836-.406a3.485,3.485,0,0,1,.65-.279,2.865,2.865,0,0,1,.545-.209Z" transform="translate(-16.458 -43.37)" fill="#aed3f2"/>
        <path id="Trazado_110035" data-name="Trazado 110035" d="M142.706,253.728a8.124,8.124,0,0,0-6.8-9.285h0a.812.812,0,0,0-.592.07.836.836,0,0,0-.209.789,9.807,9.807,0,0,0,7.648,8.67" transform="translate(-11.509 -43.249)" fill="#aed3f2"/>
        <path id="Trazado_110036" data-name="Trazado 110036" d="M132.056,267.6c2.066,4.225,5.014,7.08,8.67,7.219.754,0,1.288-.453,1.985-.5a4.768,4.768,0,0,1,1.161.441,1.544,1.544,0,0,0,.615.139c3.772-.2,6.964-2.855,9.169-7.3,3.018-6.232,2.077-12.917-2.089-14.96a9.8,9.8,0,0,0-1.706-.662,6.963,6.963,0,0,0-2.077-.244,15.182,15.182,0,0,0-4.735,1.079l-.209.07c-3.389-1.486-6.093-1.486-8.716-.244C129.955,254.678,129.038,261.329,132.056,267.6Z" transform="translate(-12.279 -42.075)" fill="#e0eaf2"/>
        <path id="Trazado_110037" data-name="Trazado 110037" d="M131.934,261.07a3.366,3.366,0,0,1-.348-1.253,6.755,6.755,0,0,1,2.124-5.722,3.308,3.308,0,0,1,1.068-.754s-.383.313-.928.87a7.289,7.289,0,0,0-2.054,5.559C131.841,260.536,131.981,261.07,131.934,261.07Z" transform="translate(-12.076 -41.816)" fill="#fafafa"/>
        <path id="Trazado_110038" data-name="Trazado 110038" d="M132.591,262.7c-.07,0-.209-.279-.3-.662s-.093-.7,0-.743.221.279.3.662S132.661,262.682,132.591,262.7Z" transform="translate(-11.968 -40.538)" fill="#fafafa"/>
        <path id="Trazado_110039" data-name="Trazado 110039" d="M150.332,243.66c0,.058-.778.36-1.95,1.068a14.319,14.319,0,0,0-1.961,1.393,15.726,15.726,0,0,0-3.725,4.515,16.828,16.828,0,0,0-.975,2.194c-.453,1.288-.592,2.135-.65,2.124a2.1,2.1,0,0,1,.07-.6,3.11,3.11,0,0,1,.139-.685,8.052,8.052,0,0,1,.255-.905,13.926,13.926,0,0,1,.928-2.228,14.774,14.774,0,0,1,3.772-4.642,14.342,14.342,0,0,1,2.019-1.37,8.906,8.906,0,0,1,.824-.406,3.483,3.483,0,0,1,.65-.279,2.866,2.866,0,0,1,.6-.174Z" transform="translate(-10.546 -43.37)" fill="#aed3f2"/>
        <path id="Trazado_110040" data-name="Trazado 110040" d="M200.94,253.729a8.124,8.124,0,0,0-6.789-9.285h-.035a.778.778,0,0,0-.58.07.824.824,0,0,0-.232.789,9.842,9.842,0,0,0,7.66,8.67" transform="translate(-2.162 -43.249)" fill="#aed3f2"/>
        <path id="Trazado_110041" data-name="Trazado 110041" d="M190.3,267.6c2.054,4.225,5,7.08,8.658,7.219.754,0,1.288-.453,2-.5a4.525,4.525,0,0,1,1.161.441,1.636,1.636,0,0,0,.615.139c3.772-.2,6.964-2.855,9.169-7.3,3.018-6.232,2.089-12.917-2.089-14.96a10.814,10.814,0,0,0-1.706-.662,6.963,6.963,0,0,0-2.066-.244,15.089,15.089,0,0,0-4.735,1.079l-.209.07c-3.389-1.486-6.093-1.486-8.728-.244C188.207,254.678,187.267,261.329,190.3,267.6Z" transform="translate(-2.927 -42.075)" fill="#aed3f2"/>
        <path id="Trazado_110042" data-name="Trazado 110042" d="M190.185,261.07a3.366,3.366,0,0,1-.348-1.253,6.592,6.592,0,0,1,.371-3.11,6.754,6.754,0,0,1,1.741-2.611,3.18,3.18,0,0,1,1.079-.754,10.4,10.4,0,0,0-.928.87,7.346,7.346,0,0,0-2.066,5.559A8.6,8.6,0,0,0,190.185,261.07Z" transform="translate(-2.723 -41.816)" fill="#fafafa"/>
        <path id="Trazado_110043" data-name="Trazado 110043" d="M190.821,262.7c-.081,0-.221-.279-.3-.662s-.093-.7,0-.743.22.279.3.662S190.9,262.682,190.821,262.7Z" transform="translate(-2.616 -40.538)" fill="#fafafa"/>
        <path id="Trazado_110044" data-name="Trazado 110044" d="M208.59,243.66c0,.058-.743.36-1.95,1.068a13.636,13.636,0,0,0-1.961,1.393,17.411,17.411,0,0,0-2.066,2.077,17.187,17.187,0,0,0-1.636,2.437,15.4,15.4,0,0,0-.975,2.194c-.453,1.288-.592,2.135-.638,2.124a2.091,2.091,0,0,1,0-.6,4.477,4.477,0,0,1,.139-.685,8.24,8.24,0,0,1,.255-.917,13.067,13.067,0,0,1,.94-2.24,15.472,15.472,0,0,1,1.648-2.5,15.7,15.7,0,0,1,2.112-2.1,14.52,14.52,0,0,1,2.008-1.358,7.978,7.978,0,0,1,.836-.418,5.473,5.473,0,0,1,.65-.279,3.1,3.1,0,0,1,.638-.2Z" transform="translate(-1.189 -43.37)" fill="#aed3f2"/>
        <path id="Trazado_110045" data-name="Trazado 110045" d="M181.9,253.73a8.124,8.124,0,0,0-6.813-9.285h-.058a.638.638,0,0,0-.8.859,9.807,9.807,0,0,0,7.66,8.67" transform="translate(-5.23 -43.25)" fill="#aed3f2"/>
        <path id="Trazado_110046" data-name="Trazado 110046" d="M171.246,267.6c2.066,4.225,5.014,7.08,8.67,7.219.743,0,1.277-.453,1.985-.5a4.526,4.526,0,0,1,1.161.441,1.892,1.892,0,0,0,.615.139c3.772-.2,6.964-2.855,9.169-7.3,3.029-6.232,2.089-12.917-2.077-14.96a10.818,10.818,0,0,0-1.706-.662,6.963,6.963,0,0,0-2.077-.244,15.087,15.087,0,0,0-4.735,1.079.742.742,0,0,0-.209.07c-3.389-1.486-6.093-1.486-8.716-.244C169.146,254.678,168.217,261.329,171.246,267.6Z" transform="translate(-5.986 -42.075)" fill="#e0eaf2"/>
        <path id="Trazado_110047" data-name="Trazado 110047" d="M171.1,261.07a3.145,3.145,0,0,1-.337-1.253,6.72,6.72,0,0,1,2.112-5.722,3.18,3.18,0,0,1,1.079-.754s-.383.313-.94.87a7.614,7.614,0,0,0-1.613,2.565,7.463,7.463,0,0,0-.441,2.983A8.235,8.235,0,0,1,171.1,261.07Z" transform="translate(-5.785 -41.816)" fill="#fafafa"/>
        <path id="Trazado_110048" data-name="Trazado 110048" d="M171.76,262.7c-.07,0-.209-.279-.29-.662s-.1-.7,0-.743.209.279.29.662S171.841,262.682,171.76,262.7Z" transform="translate(-5.676 -40.538)" fill="#fafafa"/>
        <path id="Trazado_110049" data-name="Trazado 110049" d="M189.53,243.66c0,.058-.778.36-1.961,1.068a14.206,14.206,0,0,0-1.95,1.393,15.727,15.727,0,0,0-3.726,4.515,16.828,16.828,0,0,0-.975,2.194c-.453,1.288-.58,2.135-.638,2.124a2.088,2.088,0,0,1,.058-.6,6.5,6.5,0,0,1,.139-.685,8.053,8.053,0,0,1,.255-.905,12.952,12.952,0,0,1,.94-2.228,14.451,14.451,0,0,1,1.636-2.5,14.574,14.574,0,0,1,4.143-3.482,8.907,8.907,0,0,1,.824-.406,3.643,3.643,0,0,1,.662-.279,2.762,2.762,0,0,1,.592-.209Z" transform="translate(-4.25 -43.37)" fill="#aed3f2"/>
        <rect id="Rectángulo_8856" data-name="Rectángulo 8856" width="176.34" height="8.6" transform="translate(43.05 231.219)" fill="#aed3f2"/>
        <rect id="Rectángulo_8857" data-name="Rectángulo 8857" width="114.225" height="180.507" transform="translate(345.187 16.243)" fill="#aed3f2"/>
        <rect id="Rectángulo_8858" data-name="Rectángulo 8858" width="107.68" height="174.147" transform="translate(348.262 19.644)" fill="#e0eaf2"/>
        <rect id="Rectángulo_8859" data-name="Rectángulo 8859" width="42.93" height="66.63" transform="translate(402.102 29.787)" fill="#6595bf"/>
        <path id="Trazado_110050" data-name="Trazado 110050" d="M395.983,102.042a1.6,1.6,0,1,1-1.6-1.6A1.6,1.6,0,0,1,395.983,102.042Z" transform="translate(29.876 -66.37)" fill="#aed3f2"/>
        <rect id="Rectángulo_8860" data-name="Rectángulo 8860" width="42.93" height="66.63" transform="translate(358.835 114.951)" fill="#6595bf"/>
        <path id="Trazado_110051" data-name="Trazado 110051" d="M358.713,175.422a1.6,1.6,0,1,1-1.6-1.6A1.6,1.6,0,0,1,358.713,175.422Z" transform="translate(23.891 -54.586)" fill="#aed3f2"/>
        <rect id="Rectángulo_8861" data-name="Rectángulo 8861" width="36.663" height="52.029" transform="translate(358.255 29.787)" fill="#6595bf"/>
        <path id="Trazado_110052" data-name="Trazado 110052" d="M354.6,101a1.335,1.335,0,1,1-1.335-1.335h0A1.323,1.323,0,0,1,354.6,101Z" transform="translate(23.316 -66.494)" fill="#aed3f2"/>
        <rect id="Rectángulo_8862" data-name="Rectángulo 8862" width="39.46" height="21.866" transform="translate(407.247 120.254) rotate(-6.44)" fill="#6595bf"/>
        <path id="Trazado_110053" data-name="Trazado 110053" d="M398.378,176.607a1.37,1.37,0,1,1-.643-1.29,1.37,1.37,0,0,1,.643,1.29Z" transform="translate(30.336 -54.379)" fill="#aed3f2"/>
        <path id="Trazado_110054" data-name="Trazado 110054" d="M374.005,183.263c0,.174-6.708.325-15.088.325s-15.088-.151-15.088-.325,6.7-.313,15.088-.313S374.005,183.089,374.005,183.263Z" transform="translate(22.015 -53.12)" fill="#6595bf"/>
        <path id="Trazado_110055" data-name="Trazado 110055" d="M374.005,187.355c0,.174-6.708.325-15.088.325s-15.088-.151-15.088-.325,6.7-.325,15.088-.325S374.005,187.192,374.005,187.355Z" transform="translate(22.015 -52.465)" fill="#aed3f2"/>
        <path id="Trazado_110056" data-name="Trazado 110056" d="M374.005,191.485c0,.162-6.708.313-15.088.313s-15.088-.151-15.088-.313,6.7-.325,15.088-.325S374.005,191.3,374.005,191.485Z" transform="translate(22.015 -51.801)" fill="#aed3f2"/>
        <path id="Trazado_110057" data-name="Trazado 110057" d="M374.005,195.583c0,.174-6.708.325-15.088.325s-15.088-.151-15.088-.325,6.7-.313,15.088-.313S374.005,195.409,374.005,195.583Z" transform="translate(22.015 -51.141)" fill="#aed3f2"/>
        <path id="Trazado_110058" data-name="Trazado 110058" d="M374.005,199.695c0,.174-6.708.325-15.088.325s-15.088-.151-15.088-.325,6.7-.325,15.088-.325S374.005,199.521,374.005,199.695Z" transform="translate(22.015 -50.483)" fill="#aed3f2"/>
        <path id="Trazado_110059" data-name="Trazado 110059" d="M374.005,203.8c0,.174-6.708.313-15.088.313s-15.088-.139-15.088-.313,6.7-.325,15.088-.325S374.005,203.619,374.005,203.8Z" transform="translate(22.015 -49.823)" fill="#aed3f2"/>
        <path id="Trazado_110060" data-name="Trazado 110060" d="M374.005,207.895c0,.162-6.708.313-15.088.313s-15.088-.151-15.088-.313,6.7-.325,15.088-.325S374.005,207.732,374.005,207.895Z" transform="translate(22.015 -49.166)" fill="#aed3f2"/>
        <path id="Trazado_110061" data-name="Trazado 110061" d="M414.252,178.823c0,.174-6.639,1.253-14.9,2.414s-14.89,1.973-14.96,1.787,6.639-1.253,14.9-2.414S414.229,178.649,414.252,178.823Z" transform="translate(28.529 -53.786)" fill="#aed3f2"/>
        <path id="Trazado_110062" data-name="Trazado 110062" d="M414.761,181.393c0,.174-6.627,1.253-14.9,2.414s-14.844,1.973-14.948,1.776,6.627-1.253,14.89-2.414S414.737,181.219,414.761,181.393Z" transform="translate(28.612 -53.374)" fill="#aed3f2"/>
        <path id="Trazado_110063" data-name="Trazado 110063" d="M415.242,183.763c0,.174-6.639,1.253-14.9,2.426s-14.937,1.961-14.96,1.787,6.627-1.265,14.9-2.426S415.207,183.589,415.242,183.763Z" transform="translate(28.688 -52.993)" fill="#aed3f2"/>
        <path id="Trazado_110064" data-name="Trazado 110064" d="M413.517,108.8c0,.162-7.613.313-17,.313s-17.014-.151-17.014-.313,7.613-.325,17.014-.325S413.517,108.619,413.517,108.8Z" transform="translate(27.743 -65.079)" fill="#aed3f2"/>
        <path id="Trazado_110065" data-name="Trazado 110065" d="M413.517,111.23c0,.186-7.613.325-17,.325s-17.014-.139-17.014-.325,7.613-.29,17.014-.29S413.517,111.068,413.517,111.23Z" transform="translate(27.743 -64.684)" fill="#aed3f2"/>
        <path id="Trazado_110066" data-name="Trazado 110066" d="M413.517,113.685c0,.174-7.613.325-17,.325s-17.014-.151-17.014-.325,7.613-.325,17.014-.325S413.517,113.522,413.517,113.685Z" transform="translate(27.743 -64.295)" fill="#aed3f2"/>
        <path id="Trazado_110067" data-name="Trazado 110067" d="M413.517,116.113c0,.186-7.613.325-17,.325s-17.014-.139-17.014-.325,7.613-.313,17.014-.313S413.517,115.951,413.517,116.113Z" transform="translate(27.743 -63.904)" fill="#aed3f2"/>
        <path id="Trazado_110068" data-name="Trazado 110068" d="M413.517,118.563c0,.186-7.613.325-17,.325s-17.014-.139-17.014-.325,7.613-.313,17.014-.313S413.517,118.389,413.517,118.563Z" transform="translate(27.743 -63.51)" fill="#aed3f2"/>
        <path id="Trazado_110069" data-name="Trazado 110069" d="M413.517,121.043c0,.186-7.613.325-17,.325s-17.014-.139-17.014-.325,7.613-.313,17.014-.313S413.517,120.823,413.517,121.043Z" transform="translate(27.743 -63.112)" fill="#aed3f2"/>
        <path id="Trazado_110070" data-name="Trazado 110070" d="M413.517,123.455c0,.174-7.613.313-17,.313s-17.014-.139-17.014-.313,7.613-.325,17.014-.325S413.517,123.269,413.517,123.455Z" transform="translate(27.743 -62.726)" fill="#aed3f2"/>
        <path id="Trazado_110071" data-name="Trazado 110071" d="M413.517,130.693c0,.186-7.613.325-17,.325s-17.014-.139-17.014-.325,7.613-.313,17.014-.313S413.517,130.519,413.517,130.693Z" transform="translate(27.743 -61.562)" fill="#aed3f2"/>
        <path id="Trazado_110072" data-name="Trazado 110072" d="M413.709,133.273c0,.186-7.625.325-17.014.325s-17.014-.139-17.014-.325,7.625-.313,17.014-.313S413.709,133.1,413.709,133.273Z" transform="translate(27.772 -61.148)" fill="#aed3f2"/>
        <path id="Trazado_110073" data-name="Trazado 110073" d="M413.927,135.853c0,.186-7.6.325-17,.325s-17.014-.139-17.014-.325,7.613-.313,17.014-.313S413.927,135.679,413.927,135.853Z" transform="translate(27.809 -60.733)" fill="#aed3f2"/>
        <path id="Trazado_110074" data-name="Trazado 110074" d="M414.142,138.433c0,.186-7.613.325-17,.325s-17.049-.162-17.049-.325,7.613-.313,17.014-.313S414.142,138.259,414.142,138.433Z" transform="translate(27.838 -60.319)" fill="#aed3f2"/>
        <path id="Trazado_110075" data-name="Trazado 110075" d="M414.329,141.043c0,.174-7.625.325-17.014.325s-17.014-.151-17.014-.325,7.613-.313,17.014-.313S414.329,140.834,414.329,141.043Z" transform="translate(27.872 -59.9)" fill="#aed3f2"/>
        <path id="Trazado_110076" data-name="Trazado 110076" d="M414.559,143.593c0,.174-7.625.325-17.014.325s-17.014-.151-17.014-.325,7.613-.313,17.014-.313S414.559,143.419,414.559,143.593Z" transform="translate(27.909 -59.49)" fill="#aed3f2"/>
        <circle id="Elipse_4279" data-name="Elipse 4279" cx="32.508" cy="32.508" r="32.508" transform="matrix(0.159, -0.987, 0.987, 0.159, 244.456, 64.189)" fill="#5e6178"/>
        <path id="Trazado_110077" data-name="Trazado 110077" d="M246,105.243v2.925c0,.371.081.789.1,1.242s.093.94.139,1.5a12.492,12.492,0,0,0,.279,1.625,28.712,28.712,0,0,0,2.751,8.066,29.676,29.676,0,0,0,6.964,8.832l1.161,1.033c.429.325.882.615,1.335.94a14.156,14.156,0,0,0,1.37.928l1.5.824.743.418.8.36,1.613.743c.545.221,1.161.371,1.706.569a14.554,14.554,0,0,0,1.752.522,26.3,26.3,0,0,0,3.679.673c.638.07,1.265.174,1.915.2h2.936l.987-.081c.673-.07,1.335-.1,2-.2a28.813,28.813,0,0,0,3.992-.894l1-.29.511-.139.487-.209,1.961-.789c.638-.3,1.253-.65,1.892-.975.313-.174.65-.313.952-.511l.905-.592a33.655,33.655,0,0,0,3.482-2.611l1.6-1.544.406-.395.36-.429.743-.847.743-.859.662-.928.65-.94.337-.464c.1-.162.186-.325.279-.487l1.161-2.019q.453-1.045.94-2.124a28.933,28.933,0,0,0,1.161-18.569l-.65-2.228c-.29-.743-.58-1.428-.859-2.135l-.22-.534-.163-.511-.522-1.01-.522-1-.627-.952-.6-.94-.313-.476-.348-.441-1.393-1.741a32.425,32.425,0,0,0-3.145-3.041l-.824-.754c-.267-.232-.58-.418-.859-.627-.6-.406-1.161-.836-1.764-1.219L289.3,81.091l-.453-.244a4.515,4.515,0,0,0-.487-.221l-.952-.429a31.627,31.627,0,0,0-3.842-1.4c-.65-.174-1.311-.3-1.961-.441l-.963-.221c-.325-.07-.662-.081-.975-.128l-1.938-.232H275.8a26.45,26.45,0,0,0-3.714.186,13.368,13.368,0,0,0-1.811.29c-.592.116-1.161.2-1.764.348l-1.706.522-.836.244-.789.325-1.578.615c-.522.209-1,.5-1.5.754s-.963.487-1.439.743l-1.335.859a29.363,29.363,0,0,0-8.02,7.857,28.029,28.029,0,0,0-3.784,7.625,14.814,14.814,0,0,0-.487,1.59c-.116.5-.221.975-.325,1.416s-.209.847-.267,1.161-.093.754-.128,1.033l-.174,1.4a1.149,1.149,0,0,1-.081.476,3.889,3.889,0,0,1,0-.487c0-.325.081-.789.139-1.4a9.683,9.683,0,0,1,.116-1.033,7.174,7.174,0,0,1,.255-1.219c.093-.476.2-.928.3-1.439a12.336,12.336,0,0,1,.476-1.59,28.434,28.434,0,0,1,3.725-7.695,29.455,29.455,0,0,1,8.054-7.938l1.335-.882c.476-.267.963-.511,1.451-.743s.975-.545,1.486-.743L265,79.4l.8-.325.847-.244,1.706-.511c.58-.151,1.161-.232,1.776-.36a17.57,17.57,0,0,1,1.822-.29,31.659,31.659,0,0,1,3.784-.2h1.938l1.961.221a5.742,5.742,0,0,1,.987.128l.975.209c.65.162,1.323.279,1.985.464a32.867,32.867,0,0,1,3.876,1.4l.963.429.487.221.453.255,1.869,1.056c.6.371,1.161.812,1.776,1.161.29.209.6.406.87.638l.836.743a34.814,34.814,0,0,1,3.192,3.087l1.393,1.752.36.453.313.476.615.952.627.952.534,1.021.534,1.021.267.511.22.545.87,2.159.662,2.228a29.5,29.5,0,0,1-1.23,18.744l-.952,2.147-1.091,2c-.093.174-.186.348-.29.511l-.337.476-.662.94-.662.94-.743.859-.743.87-.371.429-.406.395-1.625,1.555a31.236,31.236,0,0,1-3.551,2.635l-.928.6c-.3.2-.638.348-.952.522-.65.325-1.265.685-1.915.975l-1.985.8-.487.2-.511.151-1.01.29a30.069,30.069,0,0,1-4.027.894c-.685.1-1.358.128-2.019.2l-1,.081h-2.948a17.769,17.769,0,0,1-1.927-.209,25.672,25.672,0,0,1-3.725-.7,13.368,13.368,0,0,1-1.764-.522c-.58-.2-1.161-.36-1.718-.58l-1.625-.743-.8-.36-.754-.429-1.486-.847c-.487-.267-.928-.627-1.381-.928s-.905-.627-1.335-.952l-1.161-1.045a29.63,29.63,0,0,1-6.964-8.937,27.854,27.854,0,0,1-2.7-8.124,16.022,16.022,0,0,1-.267-1.636c0-.522-.081-1.01-.128-1.5s-.07-.87-.081-1.242,0-.743,0-1.045v-1.4a1.37,1.37,0,0,0-.035-.325Z" transform="translate(6.304 -70.059)" fill="#aed3f2"/>
        <path id="Trazado_110078" data-name="Trazado 110078" d="M285.088,106.008a5.1,5.1,0,0,1-1.033.07H271.3v-1.938c0-4.283,0-8.194.058-10.979V89.841a6.154,6.154,0,0,1,.081-1.161,7.16,7.16,0,0,1,.07,1.161c0,.847,0,1.973.058,3.319,0,2.82.058,6.708.058,10.979v1.927l-.186-.2c3.83,0,7.23,0,9.679.07H284a5.1,5.1,0,0,1,1.091.07Z" transform="translate(10.367 -68.259)" fill="#aed3f2"/>
        <path id="Trazado_110079" data-name="Trazado 110079" d="M271.59,81.52a8.124,8.124,0,0,1,.186,2.472,8.193,8.193,0,0,1-.186,2.5,8.194,8.194,0,0,1-.2-2.5A8.124,8.124,0,0,1,271.59,81.52Z" transform="translate(10.379 -69.409)" fill="#aed3f2"/>
        <path id="Trazado_110080" data-name="Trazado 110080" d="M283.662,85a16.248,16.248,0,0,1-3.482,3.482,8.183,8.183,0,0,1,1.6-1.869A7.8,7.8,0,0,1,283.662,85Z" transform="translate(11.793 -68.85)" fill="#aed3f2"/>
        <path id="Trazado_110081" data-name="Trazado 110081" d="M290.575,92.38a10.342,10.342,0,0,1-2.031,1.358A10.029,10.029,0,0,1,286.42,94.9a6.638,6.638,0,0,1,1.961-1.486,6.511,6.511,0,0,1,2.193-1.033Z" transform="translate(12.796 -67.665)" fill="#aed3f2"/>
        <path id="Trazado_110082" data-name="Trazado 110082" d="M294.938,103.415a30.082,30.082,0,0,1-6.778,0,31.51,31.51,0,0,1,6.778,0Z" transform="translate(13.075 -65.922)" fill="#aed3f2"/>
        <path id="Trazado_110083" data-name="Trazado 110083" d="M254.325,103.027a26.786,26.786,0,0,1-6.395,0A26.787,26.787,0,0,1,254.325,103.027Z" transform="translate(6.614 -65.986)" fill="#aed3f2"/>
        <path id="Trazado_110084" data-name="Trazado 110084" d="M257.012,111.2a13.823,13.823,0,0,1-2.414,2.24,14.74,14.74,0,0,1-2.658,1.892,13.335,13.335,0,0,1,2.414-2.228,14.8,14.8,0,0,1,2.658-1.9Z" transform="translate(7.258 -64.642)" fill="#aed3f2"/>
        <path id="Trazado_110085" data-name="Trazado 110085" d="M263.844,117.54a21.312,21.312,0,0,1-1.6,2.855,22.435,22.435,0,0,1-1.753,2.785,10.806,10.806,0,0,1,1.428-2.971A10.677,10.677,0,0,1,263.844,117.54Z" transform="translate(8.631 -63.624)" fill="#aed3f2"/>
        <path id="Trazado_110086" data-name="Trazado 110086" d="M271.591,126.638a15.088,15.088,0,0,1-.2-3.389,14.39,14.39,0,0,1,.2-3.389,15.088,15.088,0,0,1,.186,3.389A15.088,15.088,0,0,1,271.591,126.638Z" transform="translate(10.378 -63.252)" fill="#aed3f2"/>
        <path id="Trazado_110087" data-name="Trazado 110087" d="M284.858,122.462a9.9,9.9,0,0,1-2.8-1.915,9.761,9.761,0,0,1-2.321-2.507,30.874,30.874,0,0,1,2.623,2.275A30.034,30.034,0,0,1,284.858,122.462Z" transform="translate(11.723 -63.544)" fill="#aed3f2"/>
        <path id="Trazado_110088" data-name="Trazado 110088" d="M290.643,116.053a12.524,12.524,0,0,1-2.24-1.973,12.082,12.082,0,0,1-1.973-2.24,12.453,12.453,0,0,1,2.228,1.973,12.14,12.14,0,0,1,1.985,2.24Z" transform="translate(12.797 -64.539)" fill="#aed3f2"/>
        <path id="Trazado_110089" data-name="Trazado 110089" d="M256.5,95.656A18.953,18.953,0,0,1,252.86,92a17.408,17.408,0,0,1,3.644,3.656Z" transform="translate(7.406 -67.726)" fill="#aed3f2"/>
        <path id="Trazado_110090" data-name="Trazado 110090" d="M263.831,87.976a8.889,8.889,0,0,1-1.938-1.706,8.739,8.739,0,0,1-1.683-1.95,8.959,8.959,0,0,1,1.95,1.671,8.646,8.646,0,0,1,1.671,1.985Z" transform="translate(8.586 -68.959)" fill="#aed3f2"/>
        <path id="Trazado_110091" data-name="Trazado 110091" d="M249.485,107.243a29.411,29.411,0,0,1,27.674-29.363c-.574,0-1.166-.069-1.746-.069a29.43,29.43,0,1,0,0,58.859,14.46,14.46,0,0,0,1.741-.075A29.421,29.421,0,0,1,249.485,107.243Z" transform="translate(6.301 -70.004)" fill="#aed3f2"/>
      </g>
      <g id="freepik--character-1--inject-14" transform="translate(32.092 62.137)">
        <path id="Trazado_110092" data-name="Trazado 110092" d="M121.331,158.273a9.389,9.389,0,0,0-.685-16.341L109.4,139.75q.441,21.169.6,42.35a15.877,15.877,0,0,0,7.973-3.389c2.159-1.973,3.319-5.281,2.054-7.927a7.463,7.463,0,0,0,3.354-9.993A7.59,7.59,0,0,0,121.331,158.273Z" transform="translate(-47.368 -122.195)" fill="#344154"/>
        <path id="Trazado_110093" data-name="Trazado 110093" d="M73.255,156.39l-.255-5,29.908-6.662c9.285-1.265,19.556,7.718,20.438,17.014.963,10.318,1.753,22.956.743,30.709-1.985,15.6-13.811,17.943-13.811,17.943l.952,15.308c.383,8.937-7.091,11.176-16.051,11.606h0a16.248,16.248,0,0,1-16.9-14.983Z" transform="translate(-53.213 -121.415)" fill="#966960"/>
        <path id="Trazado_110094" data-name="Trazado 110094" d="M113.368,168.374a2.008,2.008,0,0,1-1.869,2.066,1.892,1.892,0,0,1-2.089-1.671h0a2.008,2.008,0,0,1,1.857-2.077,1.915,1.915,0,0,1,2.1,1.706Z" transform="translate(-47.366 -117.87)" fill="#344154"/>
        <path id="Trazado_110095" data-name="Trazado 110095" d="M114.845,165.411c-.232.267-1.776-.8-3.923-.743s-3.667,1.161-3.911.94.116-.592.789-1.161a5.42,5.42,0,0,1,3.122-1.068,5.292,5.292,0,0,1,3.134.905C114.705,164.831,114.937,165.261,114.845,165.411Z" transform="translate(-47.764 -118.4)" fill="#344154"/>
        <path id="Trazado_110096" data-name="Trazado 110096" d="M96.188,169.507a1.985,1.985,0,0,1-1.845,2.019,1.9,1.9,0,0,1-2.112-1.671V169.8a1.985,1.985,0,0,1,1.857-2.066,1.915,1.915,0,0,1,2.1,1.706Z" transform="translate(-50.125 -117.703)" fill="#344154"/>
        <path id="Trazado_110097" data-name="Trazado 110097" d="M96.694,166.282c-.244.267-1.787-.8-3.923-.743s-3.679,1.161-3.911.94.116-.592.789-1.161a5.42,5.42,0,0,1,3.122-1.068,5.281,5.281,0,0,1,3.134.894C96.578,165.748,96.81,166.212,96.694,166.282Z" transform="translate(-50.678 -118.261)" fill="#344154"/>
        <path id="Trazado_110098" data-name="Trazado 110098" d="M102.929,181.977a15.609,15.609,0,0,1,3.482-.743c.545-.07,1.068-.2,1.161-.569a2.7,2.7,0,0,0-.406-1.613l-1.752-4.12c-2.426-5.8-4.213-10.677-3.969-10.782s2.4,4.573,4.828,10.445l1.683,4.143a3.18,3.18,0,0,1,.348,2.135,1.381,1.381,0,0,1-.882.824,3.482,3.482,0,0,1-.917.162A11.7,11.7,0,0,1,102.929,181.977Z" transform="translate(-48.649 -118.276)" fill="#344154"/>
        <path id="Trazado_110099" data-name="Trazado 110099" d="M108.1,202A40.992,40.992,0,0,1,86.62,197.08s5.582,10.712,21.6,8.8Z" transform="translate(-51.026 -112.988)" fill="#77544d"/>
        <path id="Trazado_110100" data-name="Trazado 110100" d="M102.958,184.188a3.888,3.888,0,0,0-3.482-1.323,3.482,3.482,0,0,0-2.414,1.323,2.24,2.24,0,0,0-.093,2.565,2.623,2.623,0,0,0,2.832.615,8.333,8.333,0,0,0,2.693-1.718,2.321,2.321,0,0,0,.6-.638.743.743,0,0,0,0-.789" transform="translate(-49.421 -115.277)" fill="#77544d"/>
        <path id="Trazado_110101" data-name="Trazado 110101" d="M97.372,181c.348,0,.429,2.321,2.472,3.888s4.5,1.242,4.526,1.578c0,.139-.534.464-1.578.522a5.8,5.8,0,0,1-3.784-1.161,5.06,5.06,0,0,1-1.915-3.261C96.989,181.534,97.221,181,97.372,181Z" transform="translate(-49.348 -115.57)" fill="#344154"/>
        <path id="Trazado_110102" data-name="Trazado 110102" d="M97.2,161.027c-.186.58-2.321.371-4.84.743s-4.515,1.161-4.863.615c-.151-.244.186-.8.987-1.393a8.519,8.519,0,0,1,7.393-1.044C96.8,160.3,97.29,160.737,97.2,161.027Z" transform="translate(-50.891 -119.018)" fill="#344154"/>
        <path id="Trazado_110103" data-name="Trazado 110103" d="M114.48,159.1c-.36.5-1.845,0-3.621.07s-3.261.429-3.633-.07c-.151-.244.07-.743.743-1.219a5.257,5.257,0,0,1,5.8,0C114.422,158.357,114.642,158.856,114.48,159.1Z" transform="translate(-47.724 -119.423)" fill="#344154"/>
        <path id="Trazado_110104" data-name="Trazado 110104" d="M79.289,208.229s-16.248,17.757-16.248,38.659,13.254,47.1,12,62.068-12.767,34.922-16.248,44.9-2.785,13.1-2.785,13.1h85.454l-1.718-57.206-.151-30.175.5-27.251-24.2-32.775v-6.662L80.38,203.54Z" transform="translate(-55.951 -111.951)" fill="#d9a171"/>
        <path id="Trazado_110105" data-name="Trazado 110105" d="M128.85,306.68s29.572,31.336,30.175,31.847,23.351,0,23.351,0l13.927,7.8s-.824,2.658-5.478,1.335a1.915,1.915,0,0,1-.708,2.8h-7.962l-7.091-.081H151.69l-22.225-15.389Z" transform="translate(-44.244 -95.387)" fill="#966960"/>
        <g id="Grupo_59948" data-name="Grupo 59948" transform="translate(14.663 120.337)" opacity="0.3">
          <path id="Trazado_110106" data-name="Trazado 110106" d="M68.6,228.31A48.513,48.513,0,0,0,77.632,257.8,39.657,39.657,0,0,0,103.7,273.7c3.482.476,7.056.441,10.445,1.381,3.041.847,5.8,2.46,8.774,3.482a23.583,23.583,0,0,0,10.77,1.056c1.416-.186,2.983-.673,3.482-1.985.754-1.961-1.416-3.725-3.261-4.724-22.643-12.3-46.273-27.123-65.26-44.6" transform="translate(-68.585 -228.31)" fill="#344154"/>
        </g>
        <path id="Trazado_110107" data-name="Trazado 110107" d="M99.75,260.943s53.979,23.839,61.511,23.839,49.905-38.474,49.905-38.474l-10.086-12.117-40.806,23.885L113.526,232.45Z" transform="translate(-48.917 -107.308)" fill="#966960"/>
        <path id="Trazado_110108" data-name="Trazado 110108" d="M181.05,240.948l9.923-6.186s4.352-8.542,6.639-9.54,15.308-5.8,15.308-5.8L226.1,218.2s1.161,1.683-2.472,4.167c-2.727,1.845-8.031,2.832-8.031,2.832l-3.25,1.486s2.449,2.762,4.4,2.681c1.741-.058,7.846-3.633,9.761-2.867s-.569,5.745-.569,5.745h0a120.475,120.475,0,0,1-8.658,13.579c-1.161,1.346-9.145,1.346-9.145,1.346l-8.577,1.068-9.6,7.439Z" transform="translate(-35.861 -109.596)" fill="#966960"/>
        <path id="Trazado_110109" data-name="Trazado 110109" d="M85.066,209.92A19.254,19.254,0,0,0,71.394,219.2c-4.12,6.627-2.983,13.01-.244,21.529a28.492,28.492,0,0,0,7.3,10.794c7.3,7.045,22.968,16.771,22.968,16.771l24.372-27.668S98.947,213.68,85.066,209.92Z" transform="translate(-53.905 -110.926)" fill="#d9a171"/>
        <path id="Trazado_110110" data-name="Trazado 110110" d="M95.024,214.108l.151.116.441.36,1.66,1.393,6.314,5.339,22.318,19.069.128.1-.116.139-23.8,27.042-.58.638-.1.128-.139-.081c-4.468-2.7-8.8-5.478-12.836-8.321a54.548,54.548,0,0,1-10.817-9.285,36.884,36.884,0,0,1-6.964-10.805,25.7,25.7,0,0,1-1.161-15.889A26.044,26.044,0,0,1,71,219.934a21.2,21.2,0,0,1,3.865-5.8,19.254,19.254,0,0,1,3.459-2.8l.987-.58.348-.174-.325.221-.975.6a20.425,20.425,0,0,0-3.3,2.867,21.193,21.193,0,0,0-3.772,5.8,24.675,24.675,0,0,0-1.416,4.085,25.939,25.939,0,0,0-.7,4.8,26.322,26.322,0,0,0,1.88,10.9,36.814,36.814,0,0,0,6.964,10.7,56.659,56.659,0,0,0,10.747,9.169c4.016,2.843,8.333,5.582,12.767,8.275h-.255l.58-.65L125.7,240.349v.244l-22.225-19.08L97.229,216.1l-1.636-1.451-.418-.371Z" transform="translate(-53.893 -110.82)" fill="#344154"/>
        <path id="Trazado_110111" data-name="Trazado 110111" d="M112.7,212.166a3.388,3.388,0,0,1,0,.592,9.358,9.358,0,0,1-.313,1.66,22.457,22.457,0,0,1-2.24,5.8l-.081.139-.139-.093a64.911,64.911,0,0,0-12.453-6.383,129.154,129.154,0,0,0-15.088-4.77c-1.95-.522-3.551-.87-4.642-1.161l-1.277-.313a1.835,1.835,0,0,1-.429-.128,1.834,1.834,0,0,1,.441,0l1.288.232c1.161.221,2.727.522,4.642,1.01A113.144,113.144,0,0,1,97.5,213.4a60.583,60.583,0,0,1,12.511,6.395h-.221a23.641,23.641,0,0,0,2.321-5.64c.186-.7.3-1.253.383-1.636a3.393,3.393,0,0,1,.209-.348Z" transform="translate(-52.725 -111.315)" fill="#344154"/>
        <path id="Trazado_110112" data-name="Trazado 110112" d="M129.881,150.884a9.621,9.621,0,0,0,3.482-10.074,10.991,10.991,0,0,0-7.718-7.555,12.038,12.038,0,0,0-2.228-.348,10.19,10.19,0,0,0-4.863-1.23,5.223,5.223,0,0,0-4.1-3.946,12.384,12.384,0,0,0-5.965.418,10.12,10.12,0,0,0-16.248,1.219,8.3,8.3,0,0,0-11.269,3.261,8.391,8.391,0,0,0-.836,2.217,8.263,8.263,0,0,0-5.8,2.983A7.822,7.822,0,0,0,73.07,140a7.73,7.73,0,0,0-1.381,3.122,9.285,9.285,0,0,0-3.725,17.13,8.53,8.53,0,0,0,.255,12.059,8.937,8.937,0,0,0,1.985,1.416,10.875,10.875,0,0,0,1.161,8.507,5.246,5.246,0,0,0,2.809,2.449,2.008,2.008,0,0,0,.255.58c.975,1.428,3.238.754,4.55-.395,3.2-2.7,4.84-6.847,5.64-10.968s.905-8.333,1.671-12.453a.662.662,0,0,1,0-.29A11.606,11.606,0,0,1,88.3,156.4a28.678,28.678,0,0,0,3.807,2.321,12.349,12.349,0,0,0,14.275-3.3,18.082,18.082,0,0,0,11.606,3.842c4.178-.116,8.287-1.021,11.409-3.807a5.7,5.7,0,0,0,1.741-2.658,1.776,1.776,0,0,0-1.253-1.915Z" transform="translate(-54.734 -124.624)" fill="#344154"/>
        <path id="Trazado_110113" data-name="Trazado 110113" d="M77.1,172.444c-.209-.1-8.426-2.936-8.554,5.582s8.437,6.894,8.461,6.65S77.1,172.444,77.1,172.444Z" transform="translate(-53.928 -117.03)" fill="#966960"/>
        <path id="Trazado_110114" data-name="Trazado 110114" d="M74.164,181.035a2.463,2.463,0,0,1-.395.209,1.532,1.532,0,0,1-1.161,0,3.633,3.633,0,0,1-1.648-3.308,4.759,4.759,0,0,1,.453-2.124,1.683,1.683,0,0,1,1.161-1.161.754.754,0,0,1,.847.464c.116.244,0,.418.1.429s.186-.139.116-.487a.917.917,0,0,0-.325-.545,1.161,1.161,0,0,0-.812-.232,2.1,2.1,0,0,0-1.578,1.3,5.072,5.072,0,0,0-.545,2.321c0,1.718.882,3.343,2.1,3.714a1.59,1.59,0,0,0,1.369-.2C74.152,181.209,74.2,181.047,74.164,181.035Z" transform="translate(-53.634 -116.65)" fill="#77544d"/>
        <path id="Trazado_110115" data-name="Trazado 110115" d="M129.443,137.38a.534.534,0,0,0,.07.2,3.564,3.564,0,0,1,.163.6,6.523,6.523,0,0,1-1.753,5.8,6.685,6.685,0,0,1-4.515,1.961l.162-.128a14.7,14.7,0,0,1-3.412,7.451,11.606,11.606,0,0,1-3.725,2.878,9.435,9.435,0,0,1-4.886.8,16.666,16.666,0,0,1-4.747-1.161,12.628,12.628,0,0,1-3.969-2.321h.255a15.482,15.482,0,0,1-7.068,4.085,12.186,12.186,0,0,1-6.418-.441,12.882,12.882,0,0,1-3.725-2.019c-.29-.232-.58-.487-.847-.743a2.076,2.076,0,0,1-.267-.29s.406.348,1.161.928a13.056,13.056,0,0,0,3.714,1.892,12.023,12.023,0,0,0,6.279.36A15.157,15.157,0,0,0,102.8,153.2l.128-.116.128.116a12.615,12.615,0,0,0,3.842,2.228,16.41,16.41,0,0,0,4.642,1.091,9.088,9.088,0,0,0,4.642-.743,10.84,10.84,0,0,0,3.575-2.785,14.287,14.287,0,0,0,3.389-7.254v-.128h.2a6.534,6.534,0,0,0,4.341-1.822,6.337,6.337,0,0,0,1.752-3.2,6.708,6.708,0,0,0,.081-2.321A7.916,7.916,0,0,0,129.443,137.38Z" transform="translate(-51.325 -122.575)" fill="#5e6178"/>
        <path id="Trazado_110116" data-name="Trazado 110116" d="M71.8,140.13a18,18,0,0,0-.743,2.925,12.186,12.186,0,0,0,1.416,7.567l.07.128-.1.081a7.857,7.857,0,0,0-2.24,3.482,7.532,7.532,0,0,0,0,4.526,7.811,7.811,0,0,0,3.656,4.468l.162.081-.081.174a9.749,9.749,0,0,0-.963,5.316A10.654,10.654,0,0,0,74.241,173a11.838,11.838,0,0,0,2.437,2.983,1,1,0,0,1-.232-.151c-.209-.151-.406-.313-.6-.476a9.6,9.6,0,0,1-1.8-2.24,10.562,10.562,0,0,1-1.381-4.2,10.19,10.19,0,0,1,.94-5.524l.081.255a8.263,8.263,0,0,1-3.853-4.712,7.869,7.869,0,0,1,0-4.77,8.124,8.124,0,0,1,2.321-3.621v.22A12.047,12.047,0,0,1,70.829,143a10.3,10.3,0,0,1,.592-2.182,5.616,5.616,0,0,1,.244-.545C71.769,140.177,71.793,140.119,71.8,140.13Z" transform="translate(-53.781 -122.134)" fill="#5e6178"/>
        <path id="Trazado_110117" data-name="Trazado 110117" d="M72,182.782a6.871,6.871,0,0,0-.162,1.555,2.194,2.194,0,0,0,.615,1.439,1.915,1.915,0,0,0,1.752.5,1.567,1.567,0,0,0,1.056-1.416,3.11,3.11,0,0,0-.29-1.578c-.418-.847-.789-1.346-.754-1.381a3.888,3.888,0,0,1,.986,1.277,3.122,3.122,0,0,1,.406,1.741,2.321,2.321,0,0,1-.348,1.033,1.787,1.787,0,0,1-.963.708,2.205,2.205,0,0,1-2.112-.615,2.484,2.484,0,0,1-.638-1.671,2.4,2.4,0,0,1,.453-1.59Z" transform="translate(-53.447 -115.426)" fill="#344154"/>
        <path id="Trazado_110118" data-name="Trazado 110118" d="M117.2,232.74a2.463,2.463,0,0,1-.255.29l-.743.789-2.867,2.8c-2.391,2.414-5.652,5.8-9.134,9.586s-6.511,7.4-8.7,10.051l-2.565,3.1-.743.836a1.834,1.834,0,0,1-.255.267,2.738,2.738,0,0,1,.2-.313l.65-.882c.569-.743,1.4-1.845,2.46-3.18,2.124-2.658,5.13-6.244,8.612-10.086s6.789-7.161,9.285-9.517c1.23-1.161,2.24-2.112,2.936-2.762l.812-.743A1.253,1.253,0,0,1,117.2,232.74Z" transform="translate(-50.173 -107.261)" fill="#344154"/>
      </g>
      <g id="freepik--character-2--inject-14" transform="translate(211.332 40.523)">
        <path id="Trazado_110119" data-name="Trazado 110119" d="M224.583,226.854l6.8-6.708,8.124-1.416,28.516,11.118s4.468,7.869,1.01,13.649-6.7,5.571-6.7,5.571l-6.07-3.842-21.6,2.4s-9.111-6.267-9.285-7.486-.2-8.484-.2-8.484l-.859-1.161a2.786,2.786,0,0,1,.255-3.644Z" transform="translate(-208.242 -87.897)" fill="#ffbe9d"/>
        <path id="Trazado_110120" data-name="Trazado 110120" d="M225.34,235.83A85.211,85.211,0,0,0,239,242.352a7.835,7.835,0,0,0,3.284.685,3.737,3.737,0,0,0,2.82-1.52,3.1,3.1,0,0,0,.279-3.134,5.664,5.664,0,0,0-2.437-2.112L234.3,231.35" transform="translate(-207.989 -85.87)" fill="#ffbe9d"/>
        <path id="Trazado_110121" data-name="Trazado 110121" d="M225.315,235.923c2.46,1.462,5,2.8,7.59,4.016a43.49,43.49,0,0,0,7.695,3.041,4.074,4.074,0,0,0,4.921-2.031c.812-1.961-.522-3.551-2.182-4.538-2.971-1.753-6-3.424-9.006-5.13a.093.093,0,0,0-.081.163h0l8.345,4.747c1.3.743,2.855,1.567,2.971,3.25a3.377,3.377,0,0,1-3.029,3.482,9.621,9.621,0,0,1-4.642-1.091c-1.462-.557-2.983-1.161-4.434-1.857a89.211,89.211,0,0,1-8.124-4.225c-.1-.07-.186.093-.081.162Z" transform="translate(-208.01 -85.882)" fill="#eb996e"/>
        <path id="Trazado_110122" data-name="Trazado 110122" d="M225.19,237.37c3.725,4.143,8.809,7.973,13.091,12.337a6.209,6.209,0,0,0,1.033-7.312" transform="translate(-208.013 -84.903)" fill="#ffbe9d"/>
        <path id="Trazado_110123" data-name="Trazado 110123" d="M225.134,237.437c4.039,4.468,8.89,8.124,13.091,12.337a.1.1,0,0,0,.139,0,6.348,6.348,0,0,0,1.045-7.451c-.058-.1-.209,0-.151.1a6.163,6.163,0,0,1,.1,5.606,3.912,3.912,0,0,1-.859,1.3c-.267.186-.232.139-.511-.081a5.938,5.938,0,0,1-.545-.557c-.836-.812-1.694-1.613-2.553-2.4-3.261-2.971-6.673-5.8-9.633-9.018-.081-.081-.209,0-.128.139Z" transform="translate(-208.027 -84.924)" fill="#eb996e"/>
        <path id="Trazado_110124" data-name="Trazado 110124" d="M240.774,224.269c-4.991-2.9-12.941-4.085-21.761-5.559l-8.623,15.749s15.552,2.321,22.167,5.211c9.459,4.108,14.577,16.48,14.577,16.48l12.476-15.471S256.361,231.813,240.774,224.269Z" transform="translate(-210.39 -87.9)" fill="#5e6178"/>
        <path id="Trazado_110125" data-name="Trazado 110125" d="M236.415,227.432l-1.567,2.936c1,.662,2.031,1.381,1.636,2.658-.464,1.532-2.031,2-3.888,1.5l-.673,1.242-.569-.174.673-1.253a4.259,4.259,0,0,1-2.228-1.822l.615-.545a3.818,3.818,0,0,0,2.008,1.683l1.555-2.9c-.963-.65-1.915-1.37-1.5-2.658.453-1.5,2-2,3.784-1.532l.673-1.242.569.174-.685,1.253a4.445,4.445,0,0,1,1.973,1.369l-.569.58a3.714,3.714,0,0,0-1.811-1.265Zm-1.961,3.621-1.486,2.751c1.3.325,2.321,0,2.623-.94C235.835,232.1,235.22,231.576,234.454,231.053Zm-.093-1.033,1.474-2.751c-1.253-.279-2.228.081-2.53,1S233.665,229.51,234.361,230.02Z" transform="translate(-207.273 -86.838)" fill="#ffbf9d"/>
        <path id="Trazado_110126" data-name="Trazado 110126" d="M239.735,225.193l.383.174,1.161.546c.5.244,1.1.545,1.787.94s1.5.824,2.379,1.393a45.9,45.9,0,0,1,6.023,4.422,32.8,32.8,0,0,1,6.43,7.381l.058.093-.07.081L247.442,253.4l-.186.232-.128-.279a36.27,36.27,0,0,0-4.468-7.5,26.067,26.067,0,0,0-6.813-6.244,23.721,23.721,0,0,0-5.8-2.414c-1.973-.6-3.958-1.161-5.884-1.625-3.888-.975-7.637-1.834-11.177-2.588h-.244l.128-.209,7.277-12.569.058-.093h.093a124.568,124.568,0,0,1,14.473,2.983,25.87,25.87,0,0,1,3.76,1.439,10.671,10.671,0,0,1,1.23.685,1.658,1.658,0,0,1-.325-.151c-.209-.1-.522-.279-.952-.453a27.1,27.1,0,0,0-3.772-1.37,130.513,130.513,0,0,0-14.461-2.855l.151-.07-7.23,12.592-.116-.267c3.563.754,7.312,1.6,11.165,2.577,1.95.487,3.934,1.01,5.919,1.625a23.133,23.133,0,0,1,5.8,2.449,26.137,26.137,0,0,1,6.964,6.348,36.282,36.282,0,0,1,4.526,7.579h-.313L257.562,240.1v.162a32.858,32.858,0,0,0-6.314-7.335,46.339,46.339,0,0,0-5.954-4.468c-.859-.58-1.66-1.021-2.321-1.428a18.278,18.278,0,0,0-1.776-.975l-1.1-.58a2.009,2.009,0,0,1-.36-.279Z" transform="translate(-210.013 -87.675)" fill="#ffbf9d"/>
        <path id="Trazado_110127" data-name="Trazado 110127" d="M245.362,222.23c-.162.128-16.573,5.281-16.573,5.281l-5.408,2.321s2.321,3.656,5.884,2.913a13.659,13.659,0,0,0,4.642-1.486l5.8.267s2.4,10.155,20.531,5.292" transform="translate(-208.304 -87.334)" fill="#ffbe9d"/>
        <path id="Trazado_110128" data-name="Trazado 110128" d="M260.192,236.8a2.657,2.657,0,0,1-.429.139l-1.265.313a30.751,30.751,0,0,1-4.793.859,22.507,22.507,0,0,1-3.482.093h-.952l-.987-.139-1-.151-1.021-.279a13.924,13.924,0,0,1-2.054-.743,11.453,11.453,0,0,1-1.95-1.265,8.229,8.229,0,0,1-2.832-4.016l.174.139-5.8-.255h.116a11.431,11.431,0,0,1-2.843,1.091,18.806,18.806,0,0,1-2.24.487,4.642,4.642,0,0,1-2.321-.279,7.289,7.289,0,0,1-3.366-2.774l-.116-.186.209-.081,5.408-2.321h0l12.024-3.714,3.389-1.045.905-.267a.894.894,0,0,1,.313-.081,1.382,1.382,0,0,1-.3.128l-.882.325-3.366,1.161-11.838,3.807h0l-5.408,2.321.093-.267a6.963,6.963,0,0,0,3.18,2.611,4.515,4.515,0,0,0,2.112.267,18.088,18.088,0,0,0,2.193-.487,11.363,11.363,0,0,0,2.727-1.021h.07l5.8.279h.128v.139a7.777,7.777,0,0,0,1.079,2.147,9.284,9.284,0,0,0,1.613,1.683,10.954,10.954,0,0,0,1.95,1.161,12.292,12.292,0,0,0,2.008.754l.975.29.975.162.963.151h.94a25.4,25.4,0,0,0,3.389,0,37.137,37.137,0,0,0,4.793-.754l1.265-.267a2.967,2.967,0,0,1,.453-.116Z" transform="translate(-208.36 -87.318)" fill="#eb996e"/>
        <path id="Trazado_110129" data-name="Trazado 110129" d="M222.443,222.481c0,.65-.754,1.161-1.6,1.161s-1.6-.522-1.6-1.161.754-1.161,1.6-1.161S222.443,221.819,222.443,222.481Z" transform="translate(-208.969 -87.481)" fill="#ffbf9d"/>
        <path id="Trazado_110130" data-name="Trazado 110130" d="M242,245.322c0,.859.5,1.544,1.161,1.544s1.161-.685,1.161-1.544-.511-1.532-1.161-1.532S242,244.486,242,245.322Z" transform="translate(-205.314 -83.872)" fill="#ffbf9d"/>
        <path id="Trazado_110131" data-name="Trazado 110131" d="M426.141,308.85l-2.449.638-100.507,2.82L319.9,349.97l108.295.163,2.054-2.658Z" transform="translate(-192.804 -73.424)" fill="#344154"/>
        <path id="Trazado_110132" data-name="Trazado 110132" d="M351.768,188.416l12.418-5.7,5.8-7.381,38.3-5.107,5.374,6.964,29.955,19.463s-9.285,107.32-10.445,116.779-7.555,17.641-7.555,17.641-65.063,17.328-88,8.519c0,0-15.564-9.691-13.985-25.475s9.981-59.353,9.981-59.353Z" transform="translate(-192.222 -95.685)" fill="#d9a171"/>
        <path id="Trazado_110133" data-name="Trazado 110133" d="M261.268,232.156l52.691,14.681s-.313-5.8,4.642-6.964c0,0,30.965-43.859,34.365-47.584s9.877-6.43,9.877-6.43l-22.225,87.892S321.328,284,313.46,282.444s-28.307-8.67-40.4-17.026L254.49,253.813Z" transform="translate(-203.308 -93.175)" fill="#d9a171"/>
        <path id="Trazado_110134" data-name="Trazado 110134" d="M313.216,257.785a3.774,3.774,0,0,1-.2-.812c-.116-.6-.267-1.335-.429-2.228a56.726,56.726,0,0,0-1.938-7.161q-.7-1.915-1.567-3.76a30.759,30.759,0,0,0-1.613-2.9c-1.021-1.6-1.787-2.484-1.741-2.542a3.168,3.168,0,0,1,.58.6,7.857,7.857,0,0,1,.627.743,9.449,9.449,0,0,1,.743,1.045,23.315,23.315,0,0,1,1.706,2.89,34.147,34.147,0,0,1,1.613,3.8,44.3,44.3,0,0,1,1.834,7.23c.162.94.267,1.706.325,2.24A3.032,3.032,0,0,1,313.216,257.785Z" transform="translate(-195.08 -84.741)" fill="#344154"/>
        <path id="Trazado_110135" data-name="Trazado 110135" d="M439.587,192.242s-22.748-2.321-31.545,17.409-9.436,74.963-9.436,74.963c-1.045-2.043-19.73,13.451-23.467,17.072l-38.3,10.608,6.708,24.57s47.1-4.816,59.411-10.933c13.927-6.964,24.013-9.076,28.028-16.736s13.927-53.7,14.983-68.6S451.181,196,439.587,192.242Z" transform="translate(-190.083 -92.164)" fill="#d9a171"/>
        <path id="Trazado_110136" data-name="Trazado 110136" d="M377.915,185.445a1.091,1.091,0,0,1-.162.3c-.116.186-.29.464-.522.812-.476.754-1.161,1.718-2.089,2.983-1.787,2.472-4.468,5.8-7.149,9.691l-.186.267-.151-.29c-.244-.476-.5-.987-.743-1.5-2.321-4.642-4.468-8.762-5.965-11.78-.743-1.486-1.311-2.693-1.764-3.586l-.464-1a1.553,1.553,0,0,1-.139-.348,1.773,1.773,0,0,1,.209.325c.116.209.325.557.534.952l1.869,3.482c1.578,2.983,3.725,7.138,6.07,11.734l.743,1.486h-.325c2.716-3.934,5.408-7.219,7.265-9.679l2.17-2.867a9.832,9.832,0,0,1,.8-.987Z" transform="translate(-186.592 -93.956)" fill="#344154"/>
        <path id="Trazado_110137" data-name="Trazado 110137" d="M403.614,177.49a4.648,4.648,0,0,1-.337.337l-1.01.894c-.859.789-2.135,1.915-3.644,3.366a130.734,130.734,0,0,0-11.072,11.966c-1.741,2.135-3.343,4.236-4.747,6.186l-.186.255-.128-.29-4.468-10.086-1.265-2.913c-.139-.313-.244-.58-.325-.778a1.312,1.312,0,0,1-.093-.279,1.344,1.344,0,0,1,.151.255l.371.743c.337.743.789,1.683,1.358,2.867l4.642,10.051h-.325c1.4-1.961,2.983-4.074,4.747-6.209a116.055,116.055,0,0,1,11.246-11.919c1.532-1.428,2.832-2.518,3.714-3.273l1.068-.847a1.347,1.347,0,0,1,.3-.325Z" transform="translate(-183.74 -94.519)" fill="#344154"/>
        <path id="Trazado_110138" data-name="Trazado 110138" d="M431.912,303.681s-.058.151-.186.441l-.58,1.265a29.113,29.113,0,0,1-2.855,4.642,29.9,29.9,0,0,1-6.151,6.07,41.225,41.225,0,0,1-10.225,5.443,80.332,80.332,0,0,1-13.741,3.6c-2.53.487-5.165.882-7.857,1.462s-5.478,1.161-8.368,1.683c-11.606,1.938-24.5,3.644-38.369,5.408h-.151v-.163c-2.147-7.892-4.4-16.121-6.708-24.581v-.2h.2c2.426-.464,5.025-1.021,7.625-1.636,5.408-1.288,10.689-2.774,15.877-4.19s10.364-2.565,14.96-4.863a30.254,30.254,0,0,0,6.221-4.248c1.892-1.636,3.633-3.377,5.385-5.049a50.778,50.778,0,0,1,5.466-4.642,20.021,20.021,0,0,1,6.221-3.041l-.128.151c2.89-20.415,5.3-37.5,6.964-49.488.859-5.965,1.532-10.7,2.008-13.927.232-1.59.406-2.82.534-3.667.07-.406.1-.743.151-.94a.561.561,0,0,0,0-.313,1.414,1.414,0,0,1,0,.313c0,.221-.07.534-.116.952-.116.847-.279,2.077-.487,3.679-.441,3.226-1.091,7.95-1.9,13.927-1.66,12-4.027,29.1-6.859,49.5v.116h-.116a19.59,19.59,0,0,0-6.093,2.983,48.743,48.743,0,0,0-5.42,4.642c-1.753,1.671-3.482,3.424-5.4,5.06a30.732,30.732,0,0,1-6.3,4.306c-4.642,2.321-9.853,3.482-15.018,4.9s-10.445,2.913-15.9,4.19c-2.6.627-5.211,1.161-7.637,1.648l.151-.244c2.321,8.449,4.538,16.678,6.708,24.581l-.209-.139c13.857-1.741,26.81-3.482,38.358-5.339,11.409-2.542,21.866-3.482,29.932-6.662a40.737,40.737,0,0,0,10.19-5.362,29.966,29.966,0,0,0,9.018-10.515c.255-.545.464-.963.6-1.253a4.49,4.49,0,0,1,.209-.5Z" transform="translate(-190.103 -88.833)" fill="#344154"/>
        <g id="Grupo_59949" data-name="Grupo 59949" transform="translate(208.419 191.433)" opacity="0.3">
          <path id="Trazado_110139" data-name="Trazado 110139" d="M415.8,280.642a5.9,5.9,0,0,0-1.161-2.716c-2.774-3.9-7.509-6.035-12.244-6.662s-7.416-.267-12.14.511l-.29.221c7.985-.615,13.8,2.507,19.057,8.623a11.6,11.6,0,0,0,2.437,2.449,3.087,3.087,0,0,0,3.284.221,2.8,2.8,0,0,0,1.056-2.646Z" transform="translate(-389.97 -270.944)" fill="#344154"/>
        </g>
        <path id="Trazado_110140" data-name="Trazado 110140" d="M412.442,277.591a24.917,24.917,0,0,0-2.518-2.553,17.5,17.5,0,0,0-7.776-3.551,26.543,26.543,0,0,0-8.623-.1c-1.1.139-2,.279-2.611.371a4.455,4.455,0,0,1-.963.1,4.385,4.385,0,0,1,.928-.244c.615-.151,1.5-.325,2.6-.511a25.115,25.115,0,0,1,8.739,0,16.712,16.712,0,0,1,7.88,3.726,12.438,12.438,0,0,1,1.811,1.938A4.757,4.757,0,0,1,412.442,277.591Z" transform="translate(-181.554 -79.547)" fill="#344154"/>
        <path id="Trazado_110141" data-name="Trazado 110141" d="M425.518,193.125a31.661,31.661,0,0,0-5.014-.743,18.765,18.765,0,0,0-2.553.07,10.63,10.63,0,0,0-1.4.221,9.436,9.436,0,0,0-1.486.325,18.8,18.8,0,0,0-6.047,2.809,24.1,24.1,0,0,0-4.874,4.642c-.337.383-.592.824-.894,1.161a8.832,8.832,0,0,0-.8,1.161c-.453.789-.928,1.486-1.277,2.228l-.928,1.9c-.279.569-.441,1.079-.615,1.486s-.279.685-.383.94-.151.325-.162.313a.858.858,0,0,1,.093-.337c.081-.267.186-.58.313-.963s.313-.928.557-1.5l.882-1.938c.337-.743.8-1.451,1.242-2.24.221-.406.534-.743.8-1.161a10.528,10.528,0,0,1,.894-1.242,23.617,23.617,0,0,1,4.933-4.642,18.78,18.78,0,0,1,6.174-2.832,9.285,9.285,0,0,1,1.5-.325c.487-.07.963-.151,1.428-.2a19.266,19.266,0,0,1,2.588,0l1.161.081a4.5,4.5,0,0,1,.987.174,9.366,9.366,0,0,1,1.578.348l.975.29Z" transform="translate(-180.088 -92.153)" fill="#344154"/>
        <path id="Trazado_110142" data-name="Trazado 110142" d="M337.064,212.06v.824c0,.557-.1,1.335-.186,2.321-.151,2.031-.418,4.967-.743,8.588-.743,7.254-1.88,17.246-3.482,28.249s-3.4,20.891-4.8,28.051c-.708,3.575-1.288,6.464-1.729,8.449-.221.975-.383,1.741-.511,2.321a2.321,2.321,0,0,1-.139.6.978.978,0,0,1-.058.2.628.628,0,0,1,0-.209,4.118,4.118,0,0,1,.1-.6c.1-.545.255-1.323.429-2.321.383-2.031.94-4.921,1.613-8.484,1.335-7.149,3.052-17.061,4.642-28.051s2.82-20.972,3.609-28.214c.383-3.6.7-6.523.917-8.577.1-.987.186-1.776.244-2.321a3.476,3.476,0,0,1,.081-.6.43.43,0,0,1,.012-.221Z" transform="translate(-191.92 -88.968)" fill="#344154"/>
        <g id="Grupo_59950" data-name="Grupo 59950" transform="translate(128.884 151.179)" opacity="0.3">
          <path id="Trazado_110143" data-name="Trazado 110143" d="M329.878,265.669c2.507-9.285,3.482-19.591,4.758-29.409-1.578,11.118-6.964,24.036-13.2,33.413C324.527,268.316,327.405,266.981,329.878,265.669Z" transform="translate(-321.44 -236.26)" fill="#344154"/>
        </g>
        <g id="Grupo_59951" data-name="Grupo 59951" transform="translate(192.855 84.062)" opacity="0.3">
          <path id="Trazado_110144" data-name="Trazado 110144" d="M376.56,186.775a141.688,141.688,0,0,0,4.48,16.771A3.481,3.481,0,0,0,382,205.17a2.205,2.205,0,0,0,2.077.221,4.933,4.933,0,0,0,1.753-1.242c2.716-2.693,4.178-6.337,5.884-9.761a102.915,102.915,0,0,1,10.6-15.958c-8,6.7-13.927,14.345-19.73,21.773Z" transform="translate(-376.56 -178.43)" fill="#344154"/>
        </g>
        <g id="Grupo_59952" data-name="Grupo 59952" transform="translate(172.742 88.356)" opacity="0.3">
          <path id="Trazado_110145" data-name="Trazado 110145" d="M359.23,182.13a147.649,147.649,0,0,0,7.347,21.9c.151.337.36.754.708.754a1.161,1.161,0,0,0,.836-.557,73,73,0,0,0,9.076-18.117l-9.47,12.767Z" transform="translate(-359.23 -182.13)" fill="#344154"/>
        </g>
        <path id="Trazado_110146" data-name="Trazado 110146" d="M386.019,252.77a1.648,1.648,0,0,1-.406.2l-1.161.487c-1.021.429-2.518,1.01-4.387,1.694-3.725,1.393-8.937,3.18-14.74,4.9s-11.177,3.018-15.088,3.865c-1.95.429-3.482.743-4.642.952l-1.265.232a2.869,2.869,0,0,1-.441.058,1.333,1.333,0,0,1,.429-.139l1.242-.29,4.573-1.079c3.865-.917,9.18-2.321,15.006-3.981s11.026-3.482,14.751-4.793l4.468-1.578,1.161-.418a2.193,2.193,0,0,1,.5-.1Z" transform="translate(-188.951 -82.43)" fill="#344154"/>
        <path id="Trazado_110147" data-name="Trazado 110147" d="M377.485,212.843a1.161,1.161,0,0,1-.174.128l-.511.325c-.464.279-1.161.743-1.985,1.288-1.706,1.161-4.062,2.925-7.126,4.967a35.272,35.272,0,0,1-5.257,2.925,20.567,20.567,0,0,1-6.708,1.66,13.475,13.475,0,0,1-7.439-1.5,9.342,9.342,0,0,1-3.064-2.693,6.523,6.523,0,0,1-1.265-3.992,4.34,4.34,0,0,1,.627-2.066,4.247,4.247,0,0,1,1.544-1.5,5.861,5.861,0,0,1,4.027-.6,5.083,5.083,0,0,1,3.261,2.194,6.383,6.383,0,0,1,1.021,3.633,7.6,7.6,0,0,1-.847,3.482,7.986,7.986,0,0,1-2.24,2.565,10.967,10.967,0,0,1-5.629,2.089,14.5,14.5,0,0,1-4.944-.441,23.213,23.213,0,0,1-3.54-1.219,21.915,21.915,0,0,1-2.147-1.021l-.534-.29c-.116-.07-.186-.1-.174-.116l.2.081.557.255c.487.221,1.161.557,2.159.952a23.633,23.633,0,0,0,3.482,1.161,14.658,14.658,0,0,0,4.875.383,10.724,10.724,0,0,0,5.455-2.077,7.508,7.508,0,0,0,2.077-2.484,7.428,7.428,0,0,0,.812-3.331,6.023,6.023,0,0,0-.986-3.482,4.642,4.642,0,0,0-3.029-2.008,5.408,5.408,0,0,0-3.725.557,3.865,3.865,0,0,0-1.4,1.335,4.132,4.132,0,0,0-.569,1.892,6.035,6.035,0,0,0,1.161,3.714,8.739,8.739,0,0,0,2.925,2.6,13.172,13.172,0,0,0,7.242,1.486,20.032,20.032,0,0,0,6.6-1.6,34.4,34.4,0,0,0,5.211-2.855c3.076-2,5.466-3.76,7.2-4.863.87-.545,1.555-.963,2.019-1.23l.545-.29A.406.406,0,0,1,377.485,212.843Z" transform="translate(-190.479 -89.031)" fill="#ffbf9d"/>
        <path id="Trazado_110148" data-name="Trazado 110148" d="M400.129,230.286s-.058,0-.163-.093l-.453-.313a15.4,15.4,0,0,0-9.285-2.53,14.542,14.542,0,0,0-9.923,4.967,11.768,11.768,0,0,0-2.925,5.907,6.4,6.4,0,0,0,.418,3.424,4.851,4.851,0,0,0,2.321,2.553,4.561,4.561,0,0,0,3.482,0,5.675,5.675,0,0,0,2.727-2.066,4.259,4.259,0,0,0,.743-1.486,4.955,4.955,0,0,0,.209-1.648,6.72,6.72,0,0,0-.8-3.1,8.123,8.123,0,0,0-1.938-2.4A8.635,8.635,0,0,0,382,232.1a11.5,11.5,0,0,0-5.211-.546,19.951,19.951,0,0,0-7.219,2.542c-.8.441-1.416.812-1.822,1.056l-.476.279-.163.093a.591.591,0,0,1,.139-.116l.453-.313c.406-.279,1-.662,1.787-1.161a28.627,28.627,0,0,1,2.983-1.5,16.631,16.631,0,0,1,4.283-1.161,11.78,11.78,0,0,1,5.35.511,8.878,8.878,0,0,1,2.646,1.486,8.125,8.125,0,0,1,2.031,2.484,7.172,7.172,0,0,1,.871,3.273,5.953,5.953,0,0,1-.22,1.752,4.642,4.642,0,0,1-.743,1.625,6.059,6.059,0,0,1-2.913,2.24,4.99,4.99,0,0,1-3.725-.093,5.234,5.234,0,0,1-2.542-2.762,6.8,6.8,0,0,1-.453-3.621,12.094,12.094,0,0,1,3.029-6.093,14.565,14.565,0,0,1,17.722-3.366,10.515,10.515,0,0,1,2.321,1.578Z" transform="translate(-185.222 -86.559)" fill="#ffbf9d"/>
        <path id="Trazado_110149" data-name="Trazado 110149" d="M437.725,215.938l-.174.07-.511.162a16.688,16.688,0,0,1-2.008.429,19.544,19.544,0,0,1-7.521-.36,18.884,18.884,0,0,1-4.851-1.95,11.608,11.608,0,0,1-2.321-1.729,6.963,6.963,0,0,1-1.752-2.588,4.979,4.979,0,0,1,0-3.284,3.714,3.714,0,0,1,2.321-2.46,3.83,3.83,0,0,1,3.482.789,4.886,4.886,0,0,1,1.811,3.168,6.963,6.963,0,0,1-.511,3.609,11.988,11.988,0,0,1-1.752,3.064,17.792,17.792,0,0,1-10.515,6.65,17.084,17.084,0,0,1-5.211.255,17.78,17.78,0,0,1-7.161-2.321,13.451,13.451,0,0,1-2.24-1.625l.163.093.429.3a17.687,17.687,0,0,0,8.832,3.285,16.91,16.91,0,0,0,5.13-.29,17.536,17.536,0,0,0,10.271-6.569,11.824,11.824,0,0,0,1.706-2.971,6.963,6.963,0,0,0,.487-3.482,4.515,4.515,0,0,0-1.683-2.913,3.4,3.4,0,0,0-3.087-.743,3.354,3.354,0,0,0-2.124,2.24,4.561,4.561,0,0,0,0,3.041,8.6,8.6,0,0,0,3.934,4.178,19.184,19.184,0,0,0,4.77,1.95,19.892,19.892,0,0,0,7.451.476c.882-.116,1.555-.255,2.008-.36l.511-.116Z" transform="translate(-180.131 -90.246)" fill="#ffbf9d"/>
        <path id="Trazado_110150" data-name="Trazado 110150" d="M334.338,232.685a15.454,15.454,0,0,0-1.056-1.416,8.634,8.634,0,0,0-3.946-2.6,8.426,8.426,0,0,0-6.8.882,5.455,5.455,0,0,0-2.611,3.052,2.217,2.217,0,0,0,.383,1.95,3.052,3.052,0,0,0,1.892.987,3.284,3.284,0,0,0,2.112-.383,4.143,4.143,0,0,0,1.486-1.486,7.846,7.846,0,0,0,.963-3.992,13.149,13.149,0,0,0-1.9-6.766,13.927,13.927,0,0,0-3.134-3.609c-.905-.7-1.5-1-1.451-1.033a1.73,1.73,0,0,1,.418.2c.383.232.754.476,1.161.743a13.416,13.416,0,0,1,5.316,10.445,8.194,8.194,0,0,1-.987,4.178,4.642,4.642,0,0,1-1.625,1.66,3.633,3.633,0,0,1-2.321.429,3.342,3.342,0,0,1-2.135-1.161,2.565,2.565,0,0,1-.453-2.321,5.8,5.8,0,0,1,2.785-3.261,8.635,8.635,0,0,1,7.068-.836,8.507,8.507,0,0,1,3.992,2.762,7.846,7.846,0,0,1,.743,1.091A1.509,1.509,0,0,1,334.338,232.685Z" transform="translate(-192.862 -87.97)" fill="#ffbf9d"/>
        <path id="Trazado_110151" data-name="Trazado 110151" d="M369.263,182.251a18.57,18.57,0,0,0-4.2,1.393,17.9,17.9,0,0,0-3.482,2.669,7.811,7.811,0,0,1,3.331-2.983A7.938,7.938,0,0,1,369.263,182.251Z" transform="translate(-186.11 -93.756)" fill="#ffbf9d"/>
        <path id="Trazado_110152" data-name="Trazado 110152" d="M390.006,188.5a4.085,4.085,0,0,1-1.6-.534,8.867,8.867,0,0,1-4.642-6.406,4.167,4.167,0,0,1,0-1.694c.07,0,.07.638.29,1.636a9.7,9.7,0,0,0,4.526,6.256A14.525,14.525,0,0,0,390.006,188.5Z" transform="translate(-182.562 -94.137)" fill="#ffbf9d"/>
        <path id="Trazado_110153" data-name="Trazado 110153" d="M351.507,278.443a5.365,5.365,0,0,1-1,.348,8.665,8.665,0,0,1-1.161.325c-.476.1-1.01.255-1.613.337a27.527,27.527,0,0,1-4.259.371,27.935,27.935,0,0,1-10.26-1.869,27.32,27.32,0,0,1-3.853-1.845,16.105,16.105,0,0,1-1.381-.882,10.25,10.25,0,0,1-1.01-.743,5.084,5.084,0,0,1-.812-.685c0-.058,1.23.882,3.331,2.043a31.191,31.191,0,0,0,3.853,1.764,31.71,31.71,0,0,0,4.991,1.369,33.092,33.092,0,0,0,5.141.476,29.989,29.989,0,0,0,4.213-.29C350.022,278.849,351.507,278.4,351.507,278.443Z" transform="translate(-191.798 -79.053)" fill="#ffbf9d"/>
        <path id="Trazado_110154" data-name="Trazado 110154" d="M394.876,264.227l-.186-.058-.522-.209-.836-.348c-.337-.128-.743-.244-1.161-.395a24,24,0,0,0-7.753-1.161,24.826,24.826,0,0,0-11.165,2.878,21.751,21.751,0,0,0-5.466,4.1,8.878,8.878,0,0,0-1.938,2.983,4.933,4.933,0,0,0,0,3.551,3.377,3.377,0,0,0,2.577,2.24,3.679,3.679,0,0,0,3.11-1.253,4.282,4.282,0,0,0,1.219-3.076,5.942,5.942,0,0,0-1-3.1,9.842,9.842,0,0,0-4.747-3.76,12.673,12.673,0,0,0-5.292-.824,13.034,13.034,0,0,0-7.242,2.681,18.757,18.757,0,0,0-2.066,2.008.441.441,0,0,1,.1-.151l.337-.453a5.664,5.664,0,0,1,.6-.685,8.888,8.888,0,0,1,.917-.836,13.138,13.138,0,0,1,12.767-2.043,10.074,10.074,0,0,1,4.944,3.876,6.442,6.442,0,0,1,1.056,3.273,4.642,4.642,0,0,1-1.311,3.342,4.074,4.074,0,0,1-3.482,1.381,3.726,3.726,0,0,1-2.89-2.46,5.164,5.164,0,0,1,0-3.818,9.284,9.284,0,0,1,2.008-3.122,22.538,22.538,0,0,1,5.582-4.167A24.789,24.789,0,0,1,384.4,261.79a23.489,23.489,0,0,1,7.811,1.265l1.161.429.836.383.5.244Z" transform="translate(-187.583 -80.982)" fill="#ffbf9d"/>
        <path id="Trazado_110155" data-name="Trazado 110155" d="M425.942,256.42a2.088,2.088,0,0,1-.29.2l-.894.511c-.395.221-.882.476-1.451.743a20.493,20.493,0,0,1-1.961.894c-.8.29-1.544.638-2.437.94s-1.845.592-2.867.894a42.942,42.942,0,0,1-13.579,1.52c-1.056-.07-2.054-.1-2.983-.232s-1.8-.244-2.588-.383-1.486-.3-2.112-.429a12.77,12.77,0,0,1-1.567-.418l-.987-.29a1.161,1.161,0,0,1-.337-.128,1.229,1.229,0,0,1,.36,0l1,.232c.429.1.963.232,1.578.348s1.323.279,2.112.371,1.648.244,2.577.325,1.915.151,2.983.2a51.256,51.256,0,0,0,6.8-.244,52.555,52.555,0,0,0,6.708-1.265c1-.279,1.973-.534,2.843-.859s1.706-.592,2.437-.882,1.393-.58,1.973-.836,1.068-.487,1.5-.685l.917-.441Z" transform="translate(-181.243 -81.844)" fill="#ffbf9d"/>
        <path id="Trazado_110156" data-name="Trazado 110156" d="M289.6,268.008a1.622,1.622,0,0,1,.1-.337l.383-.928c.174-.383.371-.87.58-1.451s.476-1.219.743-1.95c.534-1.439,1.056-3.215,1.578-5.165a62.46,62.46,0,0,0,1.288-6.5,50.075,50.075,0,0,0,.476-6.592,36.163,36.163,0,0,0-.395-5.374c-.058-.383-.093-.743-.162-1.091s-.139-.65-.209-.952a13.407,13.407,0,0,0-.371-1.532l-.267-.952a.836.836,0,0,1-.07-.337s.058.1.151.313l.325.94a9.876,9.876,0,0,1,.441,1.486c.081.313.163.627.244.963s.128.708.2,1.091a33.963,33.963,0,0,1,.476,5.42,50.923,50.923,0,0,1-.441,6.65,59.6,59.6,0,0,1-1.335,6.523c-.545,1.973-1.1,3.725-1.66,5.188-.267.743-.545,1.369-.789,1.927s-.453,1.056-.65,1.439l-.429.894A1.942,1.942,0,0,1,289.6,268.008Z" transform="translate(-197.67 -85.308)" fill="#ffbf9d"/>
        <path id="Trazado_110157" data-name="Trazado 110157" d="M378.586,185a.708.708,0,0,1,0,.221,2.5,2.5,0,0,1-.07.662l-.313,2.53c-.267,2.24-.743,5.385-1.3,9.285-1.161,7.846-2.971,18.662-5.408,30.535s-4.9,22.55-6.743,30.268c-.928,3.83-1.694,6.964-2.24,9.122l-.627,2.484-.174.638a.7.7,0,0,1-.07.221.744.744,0,0,1,0-.232,5.681,5.681,0,0,1,.128-.65l.569-2.5c.5-2.182,1.219-5.3,2.112-9.157,1.776-7.73,4.2-18.419,6.627-30.28s4.283-22.655,5.524-30.535c.615-3.911,1.091-7.091,1.416-9.285l.383-2.53a3.807,3.807,0,0,1,.1-.65A.874.874,0,0,1,378.586,185Z" transform="translate(-186.102 -93.313)" fill="#344154"/>
        <path id="Trazado_110158" data-name="Trazado 110158" d="M361.986,259.47a2.806,2.806,0,0,1-.3.3l-.894.836a18.751,18.751,0,0,0-1.393,1.323l-.824.87a10.677,10.677,0,0,0-.894,1.01,29.624,29.624,0,0,0-1.869,2.449c-.313.464-.638.917-.963,1.416l-.905,1.578a37.251,37.251,0,0,0-3.087,7.486,47.77,47.77,0,0,0-1.486,7.973c-.081,1.242-.209,2.426-.221,3.482v3.1c0,.952.058,1.811.1,2.553s.081,1.393.139,1.915l.1,1.23a2.507,2.507,0,0,1,0,.418,1.161,1.161,0,0,1-.081-.418c-.058-.313-.1-.743-.186-1.161a17.537,17.537,0,0,1-.2-1.927c-.046-.766-.151-1.6-.163-2.553a13.122,13.122,0,0,0-.058-1.486,15.176,15.176,0,0,1,0-1.625c0-1.161.1-2.321.186-3.551a46.213,46.213,0,0,1,1.486-8.055,36.288,36.288,0,0,1,3.122-7.544l.94-1.59c.325-.487.662-.963.987-1.428a27.753,27.753,0,0,1,1.927-2.437,12.447,12.447,0,0,1,.917-1l.859-.847a13.927,13.927,0,0,1,1.451-1.3l.94-.743a1.347,1.347,0,0,1,.36-.279Z" transform="translate(-188.165 -81.354)" fill="#344154"/>
        <path id="Trazado_110159" data-name="Trazado 110159" d="M403.062,134.678C403.526,119.115,392.756,106,377.18,106l-1.439.081a27.854,27.854,0,0,0-26.287,27.135c-.325,13.509-.511,28.423,0,35.63,1.033,14.89,16.086,16.388,16.086,16.388l.093,2.321,14.589,9.436,23.931-16.248Z" transform="translate(-188.109 -106)" fill="#ffbe9d"/>
        <path id="Trazado_110160" data-name="Trazado 110160" d="M352.59,138.483a2.112,2.112,0,0,0,2.17,2.031,2.031,2.031,0,0,0,2.089-1.973v-.07a2.147,2.147,0,0,0-2.182-2.031,2.019,2.019,0,0,0-2.077,1.985Z" transform="translate(-187.554 -101.112)" fill="#344154"/>
        <path id="Trazado_110161" data-name="Trazado 110161" d="M352.306,135.276c.279.267,1.834-1.021,4.12-1.161s4.039.928,4.283.627c.1-.116-.186-.615-.952-1.1a5.8,5.8,0,0,0-3.482-.847,5.594,5.594,0,0,0-3.261,1.253C352.375,134.638,352.166,135.148,352.306,135.276Z" transform="translate(-187.606 -101.7)" fill="#344154"/>
        <path id="Trazado_110162" data-name="Trazado 110162" d="M371.85,137.793a2.147,2.147,0,0,0,2.17,2.043,2.043,2.043,0,0,0,2.089-1.985v-.07a2.147,2.147,0,0,0-2.182-2.031,2.031,2.031,0,0,0-2.077,1.985Z" transform="translate(-184.461 -101.223)" fill="#344154"/>
        <path id="Trazado_110163" data-name="Trazado 110163" d="M372.006,133.528c.255.3,1.938-.824,4.225-.7s3.923,1.369,4.178,1.091-.1-.627-.812-1.161a5.8,5.8,0,0,0-3.331-1.161,5.594,5.594,0,0,0-3.377.894C372.111,132.948,371.844,133.4,372.006,133.528Z" transform="translate(-184.443 -101.89)" fill="#344154"/>
        <path id="Trazado_110164" data-name="Trazado 110164" d="M366.447,152.583a15.088,15.088,0,0,0-3.76-.464c-.58,0-1.161-.116-1.265-.511a2.855,2.855,0,0,1,.29-1.752c.487-1.451.986-2.971,1.486-4.561,2.054-6.488,3.482-11.8,3.238-11.884s-2.147,5.118-4.178,11.606l-1.416,4.584a3.482,3.482,0,0,0-.174,2.321,1.474,1.474,0,0,0,1.01.8,3.725,3.725,0,0,0,1.01.093,16.051,16.051,0,0,0,3.76-.232Z" transform="translate(-186.277 -101.598)" fill="#344154"/>
        <path id="Trazado_110165" data-name="Trazado 110165" d="M372.482,151c-.371,0-.244,2.484-2.24,4.375s-4.642,1.752-4.642,2.112c0,.151.615.453,1.741.406a6.162,6.162,0,0,0,3.923-1.613A5.408,5.408,0,0,0,373,152.613C372.958,151.534,372.645,151,372.482,151Z" transform="translate(-185.465 -98.773)" fill="#344154"/>
        <path id="Trazado_110166" data-name="Trazado 110166" d="M371.842,126.967c.209.627,2.507.395,5.211.789s4.84,1.161,5.223.65c.162-.267-.209-.859-1.068-1.486a9.134,9.134,0,0,0-7.927-1.161C372.26,126.189,371.737,126.665,371.842,126.967Z" transform="translate(-184.464 -102.896)" fill="#aed3f2"/>
        <path id="Trazado_110167" data-name="Trazado 110167" d="M352.939,130.192c.441.5,2-.128,3.888-.255s3.482.139,3.865-.418c.151-.279-.128-.743-.859-1.242a5.536,5.536,0,0,0-3.215-.673,5.316,5.316,0,0,0-3.029,1.23C352.939,129.4,352.754,129.948,352.939,130.192Z" transform="translate(-187.509 -102.535)" fill="#aed3f2"/>
        <path id="Trazado_110168" data-name="Trazado 110168" d="M387.389,111.095c.743-.406,3.9,2.867,4.515,3.412,3.586,3.18,5.072,9.157,5.536,13.927a51.065,51.065,0,0,1-.1,13.695c-.093.58-.429,3.052-.429,3.052-.627.569-1.277,5.9-2.124,5.954-1.161.1-2.321-8.043-2.588-8.658a35.132,35.132,0,0,0-1-5.49,49.905,49.905,0,0,1-1.706-8.832c-.209-4.155-1.787-10.306-2-14.449C387.447,112.917,386.716,111.478,387.389,111.095Z" transform="translate(-182.011 -105.187)" fill="#aed3f2"/>
        <path id="Trazado_110169" data-name="Trazado 110169" d="M387.69,115.83l8.67,6.244a35.992,35.992,0,0,1,.917,4.84l-8.612-5.211Z" transform="translate(-181.917 -104.421)" fill="#fafafa"/>
        <path id="Trazado_110170" data-name="Trazado 110170" d="M393.64,140.372c.244-.116,10.086-3.609,10.329,6.615s-10.062,8.368-10.086,8.124S393.64,140.372,393.64,140.372Z" transform="translate(-180.962 -100.587)" fill="#ffbe9d"/>
        <path id="Trazado_110171" data-name="Trazado 110171" d="M396.451,150.649a4.825,4.825,0,0,0,.487.255,1.776,1.776,0,0,0,1.335,0c1.068-.429,1.938-2.17,1.938-4a6.012,6.012,0,0,0-.557-2.542,2.066,2.066,0,0,0-1.4-1.288.905.905,0,0,0-1.044.511c-.128.3-.058.5-.1.522s-.232-.174-.163-.6a1.161,1.161,0,0,1,.395-.638,1.335,1.335,0,0,1,.975-.29,2.484,2.484,0,0,1,1.892,1.544,6.012,6.012,0,0,1,.7,2.832c0,2.066-1.033,4.016-2.5,4.468a1.9,1.9,0,0,1-1.636-.232C396.474,150.892,396.416,150.672,396.451,150.649Z" transform="translate(-180.512 -100.128)" fill="#eb996e"/>
        <path id="Trazado_110172" data-name="Trazado 110172" d="M363.1,175.209a35.886,35.886,0,0,0,19.73-6.859s-4.108,10.921-16.364,11.2c-.209,0-3.122-2.019-3.122-2.019Z" transform="translate(-185.866 -95.987)" fill="#eb996e"/>
        <path id="Trazado_110173" data-name="Trazado 110173" d="M360.783,140.514a5.176,5.176,0,0,1-3.726,1.451c-2.321.128-3.981-.836-3.876-.987a31.608,31.608,0,0,0,3.83.279C359.111,141.083,360.678,140.328,360.783,140.514Z" transform="translate(-187.46 -100.462)" fill="#eb996e"/>
        <path id="Trazado_110174" data-name="Trazado 110174" d="M360.915,134.033c-.081.058-.383-.267-.975-.615a5.8,5.8,0,0,0-2.484-.743,15.2,15.2,0,0,0-2.716.116c-.743.07-1.161.081-1.161,0s.383-.279,1.091-.487a8.681,8.681,0,0,1,2.878-.3,4.828,4.828,0,0,1,2.739,1.056C360.822,133.511,361.031,133.987,360.915,134.033Z" transform="translate(-187.395 -101.827)" fill="#eb996e"/>
        <path id="Trazado_110175" data-name="Trazado 110175" d="M385.433,133c.128.128-.743,1.161-2.24,1.567a3.77,3.77,0,0,1-2.693,0,24.633,24.633,0,0,1,2.484-.627A22.249,22.249,0,0,1,385.433,133Z" transform="translate(-183.072 -101.666)" fill="#eb996e"/>
        <path id="Trazado_110176" data-name="Trazado 110176" d="M386,135.767c.1.162-.894.847-2.321.743s-2.321-.917-2.17-1.056,1.021.279,2.228.348S385.923,135.582,386,135.767Z" transform="translate(-182.912 -101.274)" fill="#eb996e"/>
        <path id="Trazado_110177" data-name="Trazado 110177" d="M380.751,132.747c-.116.186-1.741-1.253-4.2-1.358s-4.213,1.161-4.317.928.3-.487,1.068-.905a6.325,6.325,0,0,1,6.5.337C380.507,132.213,380.821,132.689,380.751,132.747Z" transform="translate(-184.402 -102.038)" fill="#eb996e"/>
        <path id="Trazado_110178" data-name="Trazado 110178" d="M378.73,139.313c.139.139-.905,1.161-2.635,1.59a3.842,3.842,0,0,1-3.076-.255c.058-.174,1.369-.058,2.913-.429S378.614,139.162,378.73,139.313Z" transform="translate(-184.273 -100.654)" fill="#eb996e"/>
        <path id="Trazado_110179" data-name="Trazado 110179" d="M373.623,151.258c-.174.116-.708-.406-1.544-.545s-1.486.093-1.636-.07.627-.859,1.776-.627S373.808,151.165,373.623,151.258Z" transform="translate(-184.69 -98.939)" fill="#eb996e"/>
        <path id="Trazado_110180" data-name="Trazado 110180" d="M375.074,150.718c-.186.093-.592-.371-1.23-.743s-1.242-.487-1.253-.685.743-.406,1.6.07S375.248,150.648,375.074,150.718Z" transform="translate(-184.342 -99.083)" fill="#eb996e"/>
        <path id="Trazado_110181" data-name="Trazado 110181" d="M387.5,163.16a.685.685,0,0,1,.279.534,4.283,4.283,0,0,1-.348,1.532,1.161,1.161,0,0,0,.464,1.509h.116a3.819,3.819,0,0,1,1.161.87,1.869,1.869,0,0,1,.209,1.694,14.649,14.649,0,0,1-1.5,2.391,2.019,2.019,0,0,0,.162,1.9c.638,1.033,1.3,1.567,1.219,1.648s-.8-.29-1.648-1.381a2.46,2.46,0,0,1-.325-2.426c.371-.894,1.161-1.5,1.381-2.321a1.161,1.161,0,0,0-.093-1.068,3.749,3.749,0,0,0-.963-.743,1.822,1.822,0,0,1-.894-1.091,2.032,2.032,0,0,1,.186-1.161,6.362,6.362,0,0,0,.545-1.37C387.547,163.381,387.454,163.183,387.5,163.16Z" transform="translate(-182.076 -96.821)" fill="#eb996e"/>
        <path id="Trazado_110182" data-name="Trazado 110182" d="M393.266,173.284a3.588,3.588,0,0,1-1.161-1.4,3.133,3.133,0,0,1-.383-2.066c.139-.882,1-1.5.882-2.043s-.859-.952-1.5-1.451a2.124,2.124,0,0,1-.743-2,2.078,2.078,0,0,1,.662-1.253c.267-.209.453-.244.476-.209a2.9,2.9,0,0,0-.638,1.486,1.671,1.671,0,0,0,.662,1.451c.255.2.592.371.952.627a2,2,0,0,1,.812,1.161,1.927,1.927,0,0,1-.464,1.381,2.425,2.425,0,0,0-.476.905,2.913,2.913,0,0,0,.186,1.718,9.67,9.67,0,0,1,.731,1.694Z" transform="translate(-181.493 -96.87)" fill="#eb996e"/>
        <path id="Trazado_110183" data-name="Trazado 110183" d="M375.868,119.78a3.261,3.261,0,0,1-2.321.847c-1.567.1-3.633-.337-5.722.151a30.565,30.565,0,0,0-2.983,1.161,5.8,5.8,0,0,1-2.693.418,3.075,3.075,0,0,1-1.706-.685c-.325-.313-.418-.545-.383-.569a4.062,4.062,0,0,0,2.135.754,6.035,6.035,0,0,0,2.414-.534,22.814,22.814,0,0,1,2.971-1.161,9.9,9.9,0,0,1,3.308-.139c.975.081,1.845.186,2.577.186a13.925,13.925,0,0,0,2.4-.429Z" transform="translate(-186.355 -103.787)" fill="#eb996e"/>
        <path id="Trazado_110184" data-name="Trazado 110184" d="M372.366,117.974c0,.2-2.6.325-5.8.476s-5.8.267-5.8.07,2.565-.627,5.8-.743S372.366,117.776,372.366,117.974Z" transform="translate(-186.242 -104.116)" fill="#eb996e"/>
        <path id="Trazado_110185" data-name="Trazado 110185" d="M369.548,115.951c-.058.2-1.033.058-2.228,0s-2.24-.128-2.24-.325,1-.487,2.321-.383S369.63,115.777,369.548,115.951Z" transform="translate(-185.548 -104.519)" fill="#eb996e"/>
        <path id="Trazado_110186" data-name="Trazado 110186" d="M352.473,136.667c.1.174-.673.627-1.625.29s-1.277-1.161-1.091-1.265.627.348,1.323.592S352.368,136.481,352.473,136.667Z" transform="translate(-188.017 -101.234)" fill="#eb996e"/>
        <path id="Trazado_110187" data-name="Trazado 110187" d="M351.533,137.541c.07.186-.29.511-.6.952s-.511.894-.743.882-.325-.662.128-1.288S351.475,137.367,351.533,137.541Z" transform="translate(-187.971 -100.947)" fill="#eb996e"/>
        <path id="Trazado_110188" data-name="Trazado 110188" d="M309.909,296.956l-18.244-4.642a3.041,3.041,0,0,0-3.714,2.159h0l-5.176,20.171a3.041,3.041,0,0,0,2.147,3.714h0l38.439,9.853a3.041,3.041,0,0,0,3.714-2.159h0l5.211-20.159a3.029,3.029,0,0,0-2.159-3.714h0Z" transform="translate(-198.782 -76.096)" fill="#344154"/>
        <path id="Trazado_110189" data-name="Trazado 110189" d="M308.861,322.895c-.1,0,1.323-5.269,3.18-11.7s3.482-11.606,3.575-11.606-1.335,5.281-3.2,11.7S308.954,322.93,308.861,322.895Z" transform="translate(-194.577 -74.911)" fill="#5e6178"/>
        <path id="Trazado_110190" data-name="Trazado 110190" d="M343.809,299.073s-5.687.511-7.277.093-11.664-3.865-13.66-4.178a9.284,9.284,0,0,0-1.5-.128,10.1,10.1,0,0,0-4.468.963l-4.306,2.008,9.285,2.379s0,.836-1.578,2.321-19.521,8.809-20.728,9.447-2.46,1.486-1.567,2.82a7.137,7.137,0,0,0,4.259,2.24,15.448,15.448,0,0,0,3.4-.743s-5.223,2.82-5.316,3.876.6,2.89,1.636,2.739c.859-.116,5.35-1.045,5.35-1.045s11.606-2.449,12.024-2.077-5.4,3.9-6.232,4.12-4.468.163-5.327.58a1.88,1.88,0,0,0-.058,3.342,19.472,19.472,0,0,0,4.944,2.066,2.135,2.135,0,0,0-.511,2.449,2.7,2.7,0,0,0,2.24,1.636,8.124,8.124,0,0,0,4.642-1.1c1.021-.673,18.256-7.161,19.37-7.9s4.7-4.735,6.209-5.9a43.966,43.966,0,0,1,4.074-2.6Z" transform="translate(-196.367 -75.671)" fill="#ffbe9d"/>
        <path id="Trazado_110191" data-name="Trazado 110191" d="M301.53,316.475a4.259,4.259,0,0,1,.754-.615,7.558,7.558,0,0,1,.952-.638l.6-.371.743-.36a52.024,52.024,0,0,1,8.194-3.076,82.677,82.677,0,0,0,8.275-2.82l.743-.313.638-.325a9.546,9.546,0,0,0,1-.522,5.133,5.133,0,0,1,.859-.464,5.439,5.439,0,0,1-.789.569,8.437,8.437,0,0,1-.987.58l-.627.348-.743.337a65.936,65.936,0,0,1-8.263,2.925,60.655,60.655,0,0,0-8.194,2.983l-.743.337-.627.348a10.26,10.26,0,0,0-.975.58A5.263,5.263,0,0,1,301.53,316.475Z" transform="translate(-195.754 -73.726)" fill="#eb996e"/>
        <path id="Trazado_110192" data-name="Trazado 110192" d="M319.32,314.882a9.691,9.691,0,0,0,7.172-3.122,2.867,2.867,0,0,1-.743.963,7.869,7.869,0,0,1-2.414,1.66,7.532,7.532,0,0,1-2.855.638,2.809,2.809,0,0,1-1.161-.139Z" transform="translate(-192.897 -72.957)" fill="#eb996e"/>
        <path id="Trazado_110193" data-name="Trazado 110193" d="M310.21,326.057a2.935,2.935,0,0,1,.743-.244l2.077-.557a60.722,60.722,0,0,0,13.01-5.4c.789-.441,1.416-.812,1.857-1.068a3.168,3.168,0,0,1,.708-.371,3.147,3.147,0,0,1-.638.476c-.418.29-1.033.685-1.811,1.161a49.79,49.79,0,0,1-13.045,5.42c-.882.221-1.6.371-2.1.464A3.806,3.806,0,0,1,310.21,326.057Z" transform="translate(-194.36 -71.887)" fill="#eb996e"/>
        <path id="Trazado_110194" data-name="Trazado 110194" d="M293.362,289.08,291.11,294.2l29.955,7.265Z" transform="translate(-197.427 -76.599)" fill="#5e6178"/>
        <path id="Trazado_110195" data-name="Trazado 110195" d="M319.662,300.757h-.313a4.972,4.972,0,0,1-.917-.07c-.789-.07-1.938-.209-3.342-.453a98.745,98.745,0,0,1-10.805-2.565c-4.178-1.161-8.02-1.915-10.759-2.716-1.369-.383-2.46-.743-3.215-1.01a6.961,6.961,0,0,1-1.161-.464,8.677,8.677,0,0,1,1.161.325c.743.221,1.869.534,3.238.894,2.739.743,6.592,1.486,10.793,2.6s7.973,2.124,10.759,2.669c1.381.267,2.507.453,3.3.569a8.359,8.359,0,0,1,1.265.221Z" transform="translate(-197.742 -75.892)" fill="#5e6178"/>
      </g>
      <g id="freepik--Counter--inject-14" transform="translate(0 316.883)">
        <path id="Trazado_110196" data-name="Trazado 110196" d="M521.795,344.306c0,.116-110.477.2-246.73.2s-246.765-.081-246.765-.2,110.453-.186,246.765-.186S521.795,344.2,521.795,344.306Z" transform="translate(-28.3 -344.12)" fill="#344154"/>
      </g>
      <g id="freepik--speech-bubble--inject-14" transform="translate(139.758 49.135)">
        <path id="Trazado_110197" data-name="Trazado 110197" d="M148.74,183.522l7.811-13.73a36.942,36.942,0,1,1,8.844,9.842h0Z" transform="translate(-148.717 -113.411)" fill="#6595bf"/>
        <path id="Trazado_110198" data-name="Trazado 110198" d="M148.743,183.531l16.678-4.016-.058.139h0l-.441-.58.58.453A38.171,38.171,0,0,0,173.069,184a36.952,36.952,0,0,0,10.051,2.832,34.666,34.666,0,0,0,5.8.279c.987-.07,2.008-.093,3.029-.186l3.087-.476a36.849,36.849,0,0,0,22.806-14.7,36.211,36.211,0,0,0,6.151-14.1,37.046,37.046,0,0,0-.441-16.248,35.874,35.874,0,0,0-7.822-15.006l-1.486-1.636a19.128,19.128,0,0,0-1.6-1.486,18.1,18.1,0,0,0-1.66-1.451l-1.752-1.3a13.64,13.64,0,0,0-1.811-1.161l-1.845-1.161-1.938-.94a15.527,15.527,0,0,0-1.961-.87,37.278,37.278,0,0,0-16.388-2.53,35.978,35.978,0,0,0-15.018,4.433,37.139,37.139,0,0,0-17.409,21.308,40.156,40.156,0,0,0-1.625,11.919,36.814,36.814,0,0,0,1.752,10.283,37.347,37.347,0,0,0,3.644,7.915v.093c-5.072,8.82-7.555,13.173-7.915,13.73l7.753-13.834v.1a37.813,37.813,0,0,1-3.726-7.938,36.512,36.512,0,0,1-1.8-10.352,39.97,39.97,0,0,1,1.578-12.012,37.452,37.452,0,0,1,17.537-21.517,36.512,36.512,0,0,1,15.169-4.468,37.893,37.893,0,0,1,16.527,2.542,20.233,20.233,0,0,1,1.985.882l1.95.952,1.869,1.161a16.025,16.025,0,0,1,1.834,1.161l1.764,1.323a20.276,20.276,0,0,1,1.671,1.5c.534.5,1.161.963,1.625,1.486l1.486,1.648a36.431,36.431,0,0,1,7.9,15.169,37.719,37.719,0,0,1,.441,16.388,36.547,36.547,0,0,1-6.232,14.24,37.139,37.139,0,0,1-23.038,14.8l-3.029.453c-1.021.081-2.054.1-3.052.174a33.831,33.831,0,0,1-5.8-.3,36.849,36.849,0,0,1-10.109-2.843,37.384,37.384,0,0,1-7.59-4.573l.139-.128h0l.093.128h-.139Z" transform="translate(-148.72 -113.42)" fill="#344154"/>
        <path id="Trazado_110199" data-name="Trazado 110199" d="M171.96,147.281l3.725-3.725,7.2,6.395,14.136-13.591,3.459,3.725-18.117,17.061Z" transform="translate(-144.988 -109.736)" fill="#ffbf9d"/>
      </g>
      <rect id="Rectángulo_8863" data-name="Rectángulo 8863" width="295.324" height="18.395" transform="translate(200.376 298.87)" fill="#a66d58"/>
    </g>
  </g>
</svg>
