<svg xmlns="http://www.w3.org/2000/svg" xmlns:xlink="http://www.w3.org/1999/xlink" width="270" height="270" viewBox="0 0 270 270">
  <defs>
    <clipPath id="clip-path">
      <path id="Trazado_107231" data-name="Trazado 107231" d="M163.21,226.636l-10.766,6.233-6.623,3.791c-.211.108-.417.233-.623.363a8.8,8.8,0,0,0-4.2,7.555v30.939a8.752,8.752,0,0,1-3.569,7.084,8.962,8.962,0,0,1-5.34,1.809,8.828,8.828,0,0,1-4.43-1.2,26.667,26.667,0,0,1-13.328-23.092V228.033a26.674,26.674,0,0,0-13.338-23.106L149.9,176.72h0a26.7,26.7,0,0,1,13.339,23.1V213.8C163.216,217.8,163.21,226.636,163.21,226.636Z" transform="translate(-100.99 -176.72)" fill="none" opacity="0"/>
    </clipPath>
  </defs>
  <g id="Capa_2" data-name="Capa 2" transform="translate(8.989 -4.781)">
    <g id="Grupo_59699" data-name="Grupo 59699" transform="translate(-9.38 4.39)">
      <rect id="Rectángulo_8610" data-name="Rectángulo 8610" width="270" height="270" transform="translate(0.391 0.391)" fill="#344154" opacity="0"/>
      <g id="freepik--Floor--inject-46" transform="translate(12.673 112.136)">
        <ellipse id="freepik--floor--inject-46-2" data-name="freepik--floor--inject-46" cx="124.581" cy="71.925" rx="124.581" ry="71.925" transform="translate(0)" fill="#f2e9e4"/>
      </g>
      <g id="freepik--Shadows--inject-46" transform="translate(27.672 147.394)">
        <ellipse id="freepik--Shadow--inject-46" cx="22.648" cy="13.079" rx="22.648" ry="13.079" transform="translate(161.366 22.364)" fill="#e0e0e0"/>
        <path id="freepik--shadow--inject-46-2" data-name="freepik--shadow--inject-46" d="M114.53,336.414,215.845,394.9l46.434-26.807-101.337-58.5Z" transform="translate(-75.097 -291.7)" fill="#e0e0e0"/>
        <path id="freepik--shadow--inject-46-3" data-name="freepik--shadow--inject-46" d="M63.137,332.8,42.178,320.7a.688.688,0,0,1,0-1.3l73.734-42.572a2.491,2.491,0,0,1,2.247,0l20.969,12.109a.682.682,0,0,1,.428.867.693.693,0,0,1-.428.433L65.39,332.8A2.5,2.5,0,0,1,63.137,332.8Z" transform="translate(-41.716 -276.555)" fill="#e0e0e0"/>
      </g>
      <g id="freepik--Device--inject-46" transform="translate(43.747 14.349)">
        <g id="freepik--device--inject-46-2" data-name="freepik--device--inject-46">
          <g id="freepik--device--inject-46-3" data-name="freepik--device--inject-46">
            <path id="Trazado_107137" data-name="Trazado 107137" d="M149.07,39.207,86.834,75.134a5.031,5.031,0,0,0-2.264,3.921V219.406c0,1.441,1.04,2.025,2.264,1.305l62.236-35.927a5.02,5.02,0,0,0,2.264-3.921V40.518C151.334,39.072,150.332,38.481,149.07,39.207Zm-.991,128.724a3.129,3.129,0,0,1-1.944,2.637L89.547,203.235c-1.04.623-1.939.119-1.939-1.121V92.177a4.332,4.332,0,0,1,1.939-3.369l56.582-32.662c1.083-.623,1.944-.114,1.944,1.116Z" transform="translate(-77.438 -34.558)" fill="#344154"/>
            <path id="Trazado_107138" data-name="Trazado 107138" d="M80.514,249.483a5.042,5.042,0,0,1-4.246-.141l-2.6-1.495a4.993,4.993,0,0,1-2.269-3.921V103.587a4.333,4.333,0,0,1,.39-1.7c.081-.179.173-.352.271-.542h0l7.122,4.143h0a7.826,7.826,0,0,0-.4.834,4.214,4.214,0,0,0-.271,1.4V248.037C78.532,249.359,79.4,249.971,80.514,249.483Z" transform="translate(-71.4 -63.189)" fill="#344154"/>
            <path id="Trazado_107139" data-name="Trazado 107139" d="M144.179,318.259c1.971-1.137,3.574-.211,3.574,2.08a7.885,7.885,0,0,1-3.574,6.19c-1.971,1.143-3.569.217-3.569-2.08A7.912,7.912,0,0,1,144.179,318.259Z" transform="translate(-103.129 -162.406)" fill="#d9a171"/>
            <path id="Trazado_107140" data-name="Trazado 107140" d="M144.906,78.055c.839-.482,1.516-.092,1.516.872a3.347,3.347,0,0,1-1.516,2.632c-.834.482-1.516.092-1.516-.872A3.363,3.363,0,0,1,144.906,78.055Z" transform="translate(-104.403 -52.415)" fill="#344154"/>
            <path id="Trazado_107141" data-name="Trazado 107141" d="M134.327,89.4l11.7-6.753c.7-.4,1.267-.114,1.267.644a2.708,2.708,0,0,1-1.267,2.08l-11.7,6.753c-.7.4-1.267.114-1.267-.644A2.708,2.708,0,0,1,134.327,89.4Z" transform="translate(-99.667 -54.532)" fill="#344154"/>
            <path id="Trazado_107142" data-name="Trazado 107142" d="M150.651,182.106a3.129,3.129,0,0,1-1.944,2.637l-56.588,32.64c-1.04.617-1.939.119-1.939-1.121V106.326a4.332,4.332,0,0,1,1.939-3.369L148.7,70.274c1.083-.623,1.944-.119,1.944,1.116Z" transform="translate(-80.009 -48.82)" fill="#d9a171"/>
            <path id="Trazado_107143" data-name="Trazado 107143" d="M91.037,217.682a1.267,1.267,0,0,1-.628-.168,1.625,1.625,0,0,1-.693-1.457V106.12a4.522,4.522,0,0,1,2.08-3.591l56.561-32.689a1.441,1.441,0,0,1,2.02.184,1.419,1.419,0,0,1,.314,1.159v110.7a3.427,3.427,0,0,1-2.08,2.859l-56.577,32.64a1.971,1.971,0,0,1-1,.3ZM149.353,70.047a1.543,1.543,0,0,0-.737.227L92.034,102.957a4.024,4.024,0,0,0-1.809,3.1v110a.931.931,0,0,0,.65,1.143.942.942,0,0,0,.91-.244l56.572-32.694c1.256-.72,1.814-1.462,1.814-2.41V71.173a1.083,1.083,0,0,0-.439-1.04A.763.763,0,0,0,149.353,70.047Z" transform="translate(-79.795 -48.593)" fill="#6595bf" stroke="#5e6178" stroke-miterlimit="10" stroke-width="0"/>
            <path id="Trazado_107144" data-name="Trazado 107144" d="M145.819,36.477c-.162-1.17-1.083-1.625-2.237-.942L81.346,71.462a4.555,4.555,0,0,0-1.625,1.69L72.6,69.041a4.538,4.538,0,0,1,1.625-1.679L136.45,31.429a4.993,4.993,0,0,1,4.533,0l2.594,1.489A5.058,5.058,0,0,1,145.819,36.477Z" transform="translate(-71.95 -30.885)" fill="#5e6178"/>
          </g>
          <g id="Grupo_59692" data-name="Grupo 59692" transform="translate(16.383 38.435)">
            <path id="Trazado_107145" data-name="Trazado 107145" d="M110.44,156.143a8.665,8.665,0,0,1-1.625,2.583,9.933,9.933,0,0,1-2.415,1.939,3.444,3.444,0,0,1-2.47.542,2.48,2.48,0,0,1-1.668-1.516,8.167,8.167,0,0,1-.607-3.369v-1.327a14.081,14.081,0,0,1,1.2-6.006,8.286,8.286,0,0,1,3.374-3.834c1.186-.688,2.166-.834,2.865-.444a3.312,3.312,0,0,1,1.332,2.681l-1.5.867q-.422-2.778-2.708-1.473a5.448,5.448,0,0,0-2.285,2.735,11.871,11.871,0,0,0-.785,4.549v1.24a5.463,5.463,0,0,0,.877,3.558q.877,1,2.367.141a7.412,7.412,0,0,0,1.478-1.083,5.236,5.236,0,0,0,1.045-1.446v-3.4l-2.632,1.522v-1.625l4.127-2.383Z" transform="translate(-101.652 -121.405)" fill="#344154"/>
            <path id="Trazado_107146" data-name="Trazado 107146" d="M127.838,144.278l-4.766,2.751-1.083,4.592-1.549.894,4.332-17.687,1.311-.758,4.333,12.662-1.538.894Zm-4.332.856,3.867-2.237-1.939-5.957Z" transform="translate(-110.265 -116.624)" fill="#344154"/>
            <path id="Trazado_107147" data-name="Trazado 107147" d="M144.592,131.846a3.9,3.9,0,0,1-2.811-.195,2.373,2.373,0,0,1-.883-2.166,6.889,6.889,0,0,1,1.083-3.585,7.75,7.75,0,0,1,2.794-2.789,3.693,3.693,0,0,1,2.09-.6,1.787,1.787,0,0,1,1.424.845,3.683,3.683,0,0,1,.5,2.036l-1.511.872c0-.921-.217-1.516-.655-1.793s-1.056-.179-1.852.282a4.8,4.8,0,0,0-1.733,1.625,4.094,4.094,0,0,0-.623,2.166,1.251,1.251,0,0,0,.59,1.229,3.352,3.352,0,0,0,2.009,0,5.551,5.551,0,0,1,2.22-.108,1.776,1.776,0,0,1,1.191.807,3.477,3.477,0,0,1,.385,1.787,6.677,6.677,0,0,1-1.083,3.58,8.123,8.123,0,0,1-2.887,2.773,4.251,4.251,0,0,1-2.166.666,1.868,1.868,0,0,1-1.565-.737,3.314,3.314,0,0,1-.542-2.047l1.506-.872c0,.921.255,1.495.764,1.733a2.246,2.246,0,0,0,2.036-.379,5.123,5.123,0,0,0,1.825-1.7,3.954,3.954,0,0,0,.628-2.128c0-.742-.195-1.208-.585-1.386a3.959,3.959,0,0,0-2.155.081Z" transform="translate(-119.492 -111.324)" fill="#344154"/>
            <path id="Trazado_107148" data-name="Trazado 107148" d="M166.39,110.935l-3.656,2.112v13.539l-1.495.861V113.908l-3.65,2.107V114.39l8.8-5.08Z" transform="translate(-127.296 -105.273)" fill="#344154"/>
            <path id="Trazado_107149" data-name="Trazado 107149" d="M184.974,108.054a15.477,15.477,0,0,1-.542,4.219,11.443,11.443,0,0,1-1.6,3.461,7.581,7.581,0,0,1-2.41,2.264,3.141,3.141,0,0,1-2.383.5,2.551,2.551,0,0,1-1.625-1.581,8.762,8.762,0,0,1-.59-3.439v-1.083a15.337,15.337,0,0,1,.569-4.2,11.633,11.633,0,0,1,1.625-3.5,7.522,7.522,0,0,1,2.388-2.275,3.2,3.2,0,0,1,2.41-.509,2.518,2.518,0,0,1,1.625,1.625,9.461,9.461,0,0,1,.542,3.569Zm-1.489-.119q0-2.708-.812-3.672t-2.275-.13a5.508,5.508,0,0,0-2.242,2.708,11.654,11.654,0,0,0-.839,4.495v1.116a5.955,5.955,0,0,0,.823,3.634c.542.682,1.305.742,2.269.184a5.454,5.454,0,0,0,2.253-2.708,11.838,11.838,0,0,0,.823-4.527Z" transform="translate(-135.654 -101.857)" fill="#344154"/>
          </g>
        </g>
      </g>
      <g id="freepik--Character--inject-46" transform="translate(185.463 47.675)">
        <g id="freepik--character--inject-46-2" data-name="freepik--character--inject-46">
          <path id="Trazado_107150" data-name="Trazado 107150" d="M362.351,138.09c-3.3.157-4.43.785-6.158,2.822s-9.824,17.07-9.824,17.07,1.527,4.284,4.874,3.915l6.233-10.073Z" transform="translate(-339.173 -113.358)" fill="#ffa8a7"/>
          <path id="Trazado_107151" data-name="Trazado 107151" d="M366.687,138.036a10.417,10.417,0,0,0-4.062.309c-1.69.612-2.535,1.83-3.7,3.612-.9,1.376-4.056,7.084-4.056,7.084s1.554,4.278,5.908,4.278Z" transform="translate(-343.069 -113.299)" fill="#e0e0e0"/>
          <g id="freepik--character--inject-46-3" data-name="freepik--character--inject-46" transform="translate(9.376)">
            <path id="Trazado_107152" data-name="Trazado 107152" d="M390.875,335.552v-.715c-.287.839-1.587,4.452-3.574,6.26-1.56,1.441-3.731,3.119-4.278,4.7s2.995,2.231,4.473,1.971a9.133,9.133,0,0,0,5.134-2.751c.845-1.04,1.386-2.28,1.988-3.119s2-1.738,2.329-2.681a6.046,6.046,0,0,0-.287-2.632c-.227-.883-.482-1.852-.785-1.771v.542a3.964,3.964,0,0,1-2.5.845C392.64,336.257,390.875,336.121,390.875,335.552Z" transform="translate(-365.325 -203.542)" fill="#344154"/>
            <path id="Trazado_107153" data-name="Trazado 107153" d="M387.867,338.9c.487-.439.986-.867,1.43-1.273a14.434,14.434,0,0,0,3.049-4.874,6.846,6.846,0,0,0,.542-2.627V327.27h5v4.641h0v.125h0c-.244,1.04-2.54,3.791-3.845,5.6a7.231,7.231,0,0,1-4.511,3.016C387.607,340.928,386.638,340.332,387.867,338.9Z" transform="translate(-367.322 -200.085)" fill="#ffa8a7"/>
            <path id="Trazado_107154" data-name="Trazado 107154" d="M358.3,326.411v-.737c-.282.839-1.592,4.452-3.574,6.233-1.56,1.441-3.726,3.119-4.278,4.706s3,2.231,4.468,1.966a9.058,9.058,0,0,0,5.134-2.757c.85-1.034,1.392-2.275,2-3.114s2-1.738,2.329-2.681a6.1,6.1,0,0,0-.287-2.627c-.249-.964-.482-1.858-.785-1.776v.542a3.9,3.9,0,0,1-2.5.845C360.058,327.11,358.3,326.969,358.3,326.411Z" transform="translate(-350.393 -199.329)" fill="#344154"/>
            <path id="Trazado_107155" data-name="Trazado 107155" d="M355.27,329.813l1.424-1.273a14.454,14.454,0,0,0,3.049-4.874,6.753,6.753,0,0,0,.542-2.632V318.18h5v4.641h0v.135h0c-.238,1.04-2.534,3.791-3.84,5.611a7.272,7.272,0,0,1-4.522,3.006C355,331.827,354.025,331.237,355.27,329.813Z" transform="translate(-352.375 -195.918)" fill="#ffa8a7"/>
            <path id="Trazado_107156" data-name="Trazado 107156" d="M384.89,191.62c3.878,8.47-.141,38.294-.141,38.294.114,1.376,1.69,4.078,2.269,10.127.693,7.149-1.083,25.091-1.083,25.091a5.415,5.415,0,0,1-5.053.206s-4.771-27.024-5.665-34.118c-.78-6.2-2.285-19.832-2.285-19.832l-2.41,19.8a37.032,37.032,0,0,1,1.354,6.114c.4,4.159-3.639,23.645-3.639,23.645a11.125,11.125,0,0,1-5,.152s-1.43-25.827-1.809-30.869c-.634-8.459-.244-34.817,1.311-39.848Z" transform="translate(-355.317 -137.33)" fill="#5e6178"/>
            <path id="Trazado_107157" data-name="Trazado 107157" d="M375.271,219.623l-1.256-7.869s-5.324-1.083-7.744-3.374a13.657,13.657,0,0,0,6.3,4.159l1.419,6.055-.964,19.5Z" transform="translate(-357.672 -145.582)" fill="#344154"/>
            <path id="Trazado_107158" data-name="Trazado 107158" d="M378.864,138.207h0c1.478.1,1.971.07,3.044.179,2.134.217,2.648,3.347,3.526,5.194a8.5,8.5,0,0,1,.233,6.407L382.222,160s1.625,3.926,3.509,7.631c-8.692,4.874-19.55,2.3-22.161-1.246-.114-.747.542-6.618.969-10.452-1.527-3.84-1.933-6.277-1.289-8.833,1.2-4.712,5.5-9.055,6.726-9.049Z" transform="translate(-356.153 -113.34)" fill="#f0f0f0"/>
            <path id="Trazado_107159" data-name="Trazado 107159" d="M386.162,98.264l-1.8-.152a1.37,1.37,0,0,0,.542-.542,1.554,1.554,0,0,0-.574-2.047l-1.159,2.107a10.474,10.474,0,0,0-9.618-5.194l-.931.043a10.49,10.49,0,0,0-9.938,11.086h0c.314,5.957.666,12.667.666,12.667l10.8-.579a11.1,11.1,0,0,0,10.539-11.638v-.06l-.081-1.56a10.43,10.43,0,0,0-.574-2.876,1.473,1.473,0,0,0,.542.152A1.527,1.527,0,0,0,386.162,98.264Z" transform="translate(-356.02 -92.422)" fill="#5e6178"/>
            <path id="Trazado_107160" data-name="Trazado 107160" d="M366.274,110.079a21.365,21.365,0,0,0,.092,3.434c.406,5.383,2.226,6.623,3.114,6.959s2.6,0,4.208-.347V123.3s-1.96,2.811-1.738,4.284,3.379,1.657,5.416.1a9.445,9.445,0,0,0,2.876-4.213v-7.441a2.066,2.066,0,0,0,2.941.119c1.749-1.305,1.657-4.289.542-5.3s-3.406-.585-3.748.915c0,0-3.791-.32-4.273-6.558C372.2,109.787,366.5,106.489,366.274,110.079Z" transform="translate(-357.659 -98.28)" fill="#ffa8a7"/>
            <path id="Trazado_107161" data-name="Trazado 107161" d="M389.963,114.835l.141,2.664h0a1.814,1.814,0,0,1-1.912-1.717l-.152-2.973Z" transform="translate(-367.652 -101.769)" fill="#5e6178"/>
            <path id="Trazado_107162" data-name="Trazado 107162" d="M378.75,116.559a.68.68,0,1,0,.672-.709A.693.693,0,0,0,378.75,116.559Z" transform="translate(-363.393 -103.162)" fill="#344154"/>
            <path id="Trazado_107163" data-name="Trazado 107163" d="M377.124,126l-1.814.688a.953.953,0,0,0,1.2.612h.043a1.04,1.04,0,0,0,.574-1.3Z" transform="translate(-361.816 -107.815)" fill="#f28f8f"/>
            <path id="Trazado_107164" data-name="Trazado 107164" d="M380.12,111.094l1.587.542a.807.807,0,0,0-.493-1.029h-.027a.883.883,0,0,0-1.067.487Z" transform="translate(-364.021 -100.741)" fill="#5e6178"/>
            <path id="Trazado_107165" data-name="Trazado 107165" d="M368,117.063a.693.693,0,0,0,.672.7h0a.7.7,0,0,0,.682-.715.682.682,0,1,0-1.359-.119v.13Z" transform="translate(-358.46 -103.373)" fill="#344154"/>
            <path id="Trazado_107166" data-name="Trazado 107166" d="M373.549,116.64l.108,4.083-2.177-.552Z" transform="translate(-360.06 -103.524)" fill="#f28f8f"/>
            <path id="Trazado_107167" data-name="Trazado 107167" d="M380,130.243c1.722-.325,5.237-1.56,5.719-2.973a3.623,3.623,0,0,1-1.154,1.863c-1.013.969-4.56,2.166-4.56,2.166Z" transform="translate(-363.966 -108.398)" fill="#f28f8f"/>
            <path id="Trazado_107168" data-name="Trazado 107168" d="M380.2,173.724c2.849-.672,3.4-1.749,2.637-4.587a1.793,1.793,0,0,0-.087-.276c-.542-1.338-2.789-.542-2.789-.542s.91-1.137,1.933-2.594a12.254,12.254,0,0,0,1.625-5.529c.135-1.684.412-5.058.412-5.058a3.187,3.187,0,0,0,1.354-3.758l3.428-2.08.644.444a8.693,8.693,0,0,1-.141,5.416l-3.444,10a57.16,57.16,0,0,1,3.5,7.625,22.534,22.534,0,0,1-18.576,1.229,25.34,25.34,0,0,0,9.5-.292Z" transform="translate(-359.703 -118.497)" fill="#aed3f2"/>
            <path id="Trazado_107169" data-name="Trazado 107169" d="M379.8,114.39l-3.932.211a2.166,2.166,0,0,0-2.231-1.625h-.341a2.166,2.166,0,0,0-1.944,1.468,1.825,1.825,0,0,0-1.305-.487,1.582,1.582,0,0,0-1.126.433,2.2,2.2,0,0,0-1.971-1.04h-.336a2.194,2.194,0,0,0,.233,4.381h.336a2.166,2.166,0,0,0,2.08-2.3h0a2.193,2.193,0,0,0-.162-.693,1.218,1.218,0,0,1,.937-.374,1.462,1.462,0,0,1,1.186.542h0a2.08,2.08,0,0,0,0,.45,2.166,2.166,0,0,0,2.3,2.08h.336a2.166,2.166,0,0,0,2.08-2.291v-.1l3.509-.184a1.9,1.9,0,0,1,.352-.471Zm-12.624,2.93h-.336a1.822,1.822,0,1,1-.39-3.623,1.176,1.176,0,0,1,.195,0h.341a1.82,1.82,0,1,1,.19,3.634Zm6.677-.347h-.341a1.825,1.825,0,0,1-.195-3.639h.341a1.825,1.825,0,0,1,.195,3.639Z" transform="translate(-356.876 -101.843)" fill="#344154"/>
          </g>
          <path id="Trazado_107170" data-name="Trazado 107170" d="M333.08,168.94l17.552,4.625,4.831,19.859-16.691-4.847Z" transform="translate(-333.08 -127.501)" fill="#d9a171"/>
          <path id="Trazado_107171" data-name="Trazado 107171" d="M333.08,168.94l17.552,4.625,4.831,19.859-16.691-4.847Z" transform="translate(-333.08 -127.501)" fill="#344154" opacity="0.25"/>
          <path id="Trazado_107172" data-name="Trazado 107172" d="M354.91,199.23c.119,1.083.872,2.318,3.065,3.368s6.461.46,6.461.46l-.59-2.448Z" transform="translate(-343.088 -141.387)" fill="#344154" opacity="0.2"/>
          <g id="Grupo_59693" data-name="Grupo 59693" transform="translate(4.484 55.504)" opacity="0.2">
            <path id="Trazado_107173" data-name="Trazado 107173" d="M344.783,194.91a3.57,3.57,0,0,1-3.249,2.134l-.173-.612Z" transform="translate(-341.36 -194.91)" fill="#344154"/>
          </g>
          <g id="Grupo_59694" data-name="Grupo 59694" transform="translate(5.162 43.633)" opacity="0.1">
            <path id="Trazado_107174" data-name="Trazado 107174" d="M342.757,173.949l-.141-.672c-.081-.368.953-.385,2.3-.032l2.6.672c1.354.352,2.513.931,2.6,1.3l.146.672Z" transform="translate(-342.612 -172.991)" fill="#344154"/>
          </g>
          <path id="Trazado_107175" data-name="Trazado 107175" d="M340.346,169.349c-.054-.227.368-.292.931-.135l1.04.287s-.309-1.451,1.96-.942a3.587,3.587,0,0,1,2.773,2.166l1.083.314a2.22,2.22,0,0,1,1.224.726l.13.417-9.044-2.377S340.4,169.582,340.346,169.349Z" transform="translate(-336.409 -127.276)" fill="#344154"/>
          <path id="Trazado_107176" data-name="Trazado 107176" d="M342.425,171.155c.829.2,1.17.314,1.294.877.141.655.206,1.132.206,1.132l4,1.04s-.19-.829-.255-1.148.076-.514.715-.347l.049-.255-6.271-1.625Z" transform="translate(-337.243 -128.367)" fill="#344154"/>
          <path id="Trazado_107177" data-name="Trazado 107177" d="M342.262,174.068s-.06-.3-.146-.672.953-.385,2.307-.038l2.594.672c1.354.352,2.513.937,2.6,1.305l.141.672Z" transform="translate(-337.22 -129.412)" fill="#344154"/>
          <path id="Trazado_107178" data-name="Trazado 107178" d="M335.377,180.382s.655,2.247.807,2.778,2.112,1.5,3.406,1.852,2.708.78,2.08,2.6c-.542,1.663-2.708,2.042-3.764,1.993a4.045,4.045,0,0,1-3.146-2.74c-.742-2.128-.341-4.4-.639-5.638S334.727,179.64,335.377,180.382Z" transform="translate(-333.53 -132.569)" fill="#ffa8a7"/>
          <path id="Trazado_107179" data-name="Trazado 107179" d="M377.52,138.62c2.275.141,4.63,1.376,4.988,4.11s2.572,17.146,1.706,18.749c-2.015,3.742-15.261,10.869-16.556,11.465a14.78,14.78,0,0,1-6.109,1.625c-2.08,0-4.82-.043-6.212-1.912-1.229-1.657-1.928-4.717.856-4.192a30.393,30.393,0,0,0,6.39.282l-.325-1.338a6.558,6.558,0,0,1,2.123.347c1.4.417,2.659-.774,5.118-2.3a84.843,84.843,0,0,0,7.977-6.093l-1.96-12.012S375.424,142.173,377.52,138.62Z" transform="translate(-342.79 -113.601)" fill="#ffa8a7"/>
          <path id="Trazado_107180" data-name="Trazado 107180" d="M394.476,138.554a4.841,4.841,0,0,1,2.556.227c1.338.542,2.524,1.186,3.082,3.883s1.652,12.515,1.652,12.515a10.072,10.072,0,0,1-7.658,1.11l-1.711-8.9S391.075,141.11,394.476,138.554Z" transform="translate(-360.157 -113.535)" fill="#e0e0e0"/>
        </g>
      </g>
      <g id="freepik--Analysis--inject-46" transform="translate(55.331 86.915)">
        <g id="freepik--analysis--inject-46-2" data-name="freepik--analysis--inject-46">
          <path id="Trazado_107181" data-name="Trazado 107181" d="M96.89,199.321l55.548-32.071v7.7L96.89,207.017Z" transform="translate(-94.67 -165.966)" fill="#5e6178"/>
          <path id="Trazado_107182" data-name="Trazado 107182" d="M100.99,203.86v2.562l51.107-29.5V174.35Z" transform="translate(-96.549 -169.221)" fill="#344154"/>
          <path id="Trazado_107183" data-name="Trazado 107183" d="M95.01,198.235l-2.22-1.284,55.548-32.071,2.22,1.284Z" transform="translate(-92.79 -164.88)" fill="#344154"/>
          <path id="Trazado_107184" data-name="Trazado 107184" d="M92.79,224.1l2.22,1.284v7.7L92.79,231.8Z" transform="translate(-92.79 -192.029)" fill="#344154"/>
          <path id="Trazado_107185" data-name="Trazado 107185" d="M350.922,410.2l-48.892,28.2v-1.251l48.887-28.2Z" transform="translate(-188.714 -276.771)" fill="#344154"/>
          <path id="Trazado_107186" data-name="Trazado 107186" d="M163.21,226.636l-10.766,6.233-6.623,3.791c-.211.108-.417.233-.623.363a8.8,8.8,0,0,0-4.2,7.555v30.939a8.752,8.752,0,0,1-3.569,7.084,8.962,8.962,0,0,1-5.34,1.809,8.828,8.828,0,0,1-4.43-1.2,26.667,26.667,0,0,1-13.328-23.092V228.033a26.674,26.674,0,0,0-13.338-23.106L149.9,176.72h0a26.7,26.7,0,0,1,13.339,23.1V213.8C163.216,217.8,163.21,226.636,163.21,226.636Z" transform="translate(-96.549 -170.308)" fill="#aed3f2"/>
          <path id="Trazado_107187" data-name="Trazado 107187" d="M180.989,337.894a26.65,26.65,0,0,1-13.333-23.081V283.852a26.574,26.574,0,0,0-13.317-23.087h0a8.882,8.882,0,0,0-13.322,7.685v30.918a8.9,8.9,0,0,1-13.333,7.712,26.666,26.666,0,0,1-13.328-23.092V251.916a26.669,26.669,0,0,0-13.349-23.1L101,230.091a25.632,25.632,0,0,1,12.239,21.825v32.093a27.842,27.842,0,0,0,13.875,24.04,9.894,9.894,0,0,0,9.986,0,4.869,4.869,0,0,0,.542-.347h0a9.867,9.867,0,0,0,4.441-8.3V268.45a7.8,7.8,0,0,1,11.692-6.759,25.632,25.632,0,0,1,12.786,22.139v30.977a27.831,27.831,0,0,0,13.891,24.045l29.428,16.978v-1.273Z" transform="translate(-96.554 -194.191)" fill="#5e6178"/>
          <path id="Trazado_107188" data-name="Trazado 107188" d="M296.72,328.563l-48.9,28.161-28.865-16.68a26.645,26.645,0,0,1-13.333-23.081V286.018a26.59,26.59,0,0,0-2.08-10.36,27.619,27.619,0,0,0-1.478-2.973,26.672,26.672,0,0,0-9.748-9.748,8.806,8.806,0,0,0-8.5-.217l6.623-3.791,13.317-7.69,28.5-16.458.07-.038a8.8,8.8,0,0,1,8.876,0,26.65,26.65,0,0,1,13.328,23.087v30.929a26.667,26.667,0,0,0,13.329,23.093Z" transform="translate(-134.517 -196.357)" fill="#fafafa"/>
          <path id="Trazado_107189" data-name="Trazado 107189" d="M197.153,310.813a25.621,25.621,0,0,0-12.786-22.139,7.788,7.788,0,0,0-11.687,6.737v30.939a9.889,9.889,0,0,1-4.408,8.28h0c-.19.125-.374.238-.542.347L197.2,317.962Z" transform="translate(-127.145 -221.152)" fill="#e0e0e0"/>
          <path id="Trazado_107190" data-name="Trazado 107190" d="M197.153,310.813a25.621,25.621,0,0,0-12.786-22.139,7.788,7.788,0,0,0-11.687,6.737v30.939a9.889,9.889,0,0,1-4.408,8.28h0c-.19.125-.374.238-.542.347L197.2,317.962Z" transform="translate(-127.145 -221.152)" fill="#344154" opacity="0.15"/>
          <g id="Grupo_59698" data-name="Grupo 59698" transform="translate(4.441 6.412)" clip-path="url(#clip-path)">
            <g id="Grupo_59697" data-name="Grupo 59697" transform="translate(8.006 4.81)">
              <path id="Trazado_107191" data-name="Trazado 107191" d="M116.438,209.169a3.791,3.791,0,0,0,4.159.309l34.882-20.135c1.311-.758,1.625-2.166.59-3.054a4.028,4.028,0,0,0-4.289-.141l-34.9,20.151C115.577,207.052,115.42,208.292,116.438,209.169Z" transform="translate(-115.774 -185.602)" fill="#d9a171"/>
              <path id="Trazado_107192" data-name="Trazado 107192" d="M168.674,206.425a.385.385,0,0,1-.385-.4.379.379,0,0,1,.184-.325l16.312-9.418a.381.381,0,1,1,.379.661l-16.323,9.45A.336.336,0,0,1,168.674,206.425Z" transform="translate(-139.849 -190.477)" fill="#344154" opacity="0.4"/>
              <path id="Trazado_107193" data-name="Trazado 107193" d="M170.948,210.319a.4.4,0,0,1-.336-.195.39.39,0,0,1,.141-.542l16.29-9.391a.39.39,0,0,1,.542.195.384.384,0,0,1-.13.471l-16.306,9.407A.352.352,0,0,1,170.948,210.319Z" transform="translate(-140.888 -192.27)" fill="#344154" opacity="0.4"/>
              <path id="Trazado_107194" data-name="Trazado 107194" d="M172.909,214.353a.39.39,0,0,1-.379-.4.406.406,0,0,1,.184-.325l16.317-9.429a.379.379,0,0,1,.542.141.39.39,0,0,1-.146.542l-16.306,9.412a.379.379,0,0,1-.211.06Z" transform="translate(-141.793 -194.099)" fill="#344154" opacity="0.4"/>
              <path id="Trazado_107195" data-name="Trazado 107195" d="M174.476,218.547a.385.385,0,0,1-.195-.715l16.312-9.412a.384.384,0,0,1,.542.141.39.39,0,0,1-.141.542l-16.312,9.412A.363.363,0,0,1,174.476,218.547Z" transform="translate(-142.51 -196.035)" fill="#344154" opacity="0.4"/>
              <path id="Trazado_107196" data-name="Trazado 107196" d="M175.61,222.655a.385.385,0,0,1-.19-.715l16.3-9.423a.379.379,0,0,1,.542.135h0a.384.384,0,0,1-.141.542l-16.306,9.418a.379.379,0,0,1-.206.043Z" transform="translate(-143.032 -197.912)" fill="#344154" opacity="0.4"/>
              <path id="Trazado_107197" data-name="Trazado 107197" d="M176.384,227.1a.385.385,0,0,1-.19-.726l16.3-9.407a.4.4,0,0,1,.542.195.39.39,0,0,1-.13.477L176.6,227.048A.352.352,0,0,1,176.384,227.1Z" transform="translate(-143.378 -199.96)" fill="#344154" opacity="0.4"/>
              <path id="Trazado_107198" data-name="Trazado 107198" d="M176.81,231.819a.385.385,0,0,1-.39-.379.374.374,0,0,1,.2-.341l16.306-9.418a.39.39,0,0,1,.514.195.4.4,0,0,1-.125.477L177,231.76A.358.358,0,0,1,176.81,231.819Z" transform="translate(-143.576 -202.126)" fill="#344154" opacity="0.4"/>
              <path id="Trazado_107199" data-name="Trazado 107199" d="M133.979,254.288a.287.287,0,0,1-.238-.141.276.276,0,0,1,.1-.374L173.4,230.909a.276.276,0,0,1,.282.471h0l-39.566,22.854A.309.309,0,0,1,133.979,254.288Z" transform="translate(-123.994 -206.361)" fill="#344154" opacity="0.4"/>
              <path id="Trazado_107200" data-name="Trazado 107200" d="M133.977,258.79a.287.287,0,0,1-.238-.141.271.271,0,0,1,.1-.374L173.4,235.41a.276.276,0,0,1,.374.1.265.265,0,0,1-.087.363h0l-39.572,22.865A.4.4,0,0,1,133.977,258.79Z" transform="translate(-123.992 -208.42)" fill="#344154" opacity="0.4"/>
              <path id="Trazado_107201" data-name="Trazado 107201" d="M133.977,263.311a.3.3,0,0,1-.238-.141.271.271,0,0,1,.1-.374L173.4,239.959a.276.276,0,1,1,.276.477h0L134.1,263.3A.423.423,0,0,1,133.977,263.311Z" transform="translate(-123.992 -210.499)" fill="#344154" opacity="0.4"/>
              <path id="Trazado_107202" data-name="Trazado 107202" d="M133.977,267.824a.3.3,0,0,1-.238-.141.265.265,0,0,1,.092-.363h0L173.4,244.45a.276.276,0,0,1,.363.141.271.271,0,0,1-.087.33L134.1,267.786A.3.3,0,0,1,133.977,267.824Z" transform="translate(-123.992 -212.569)" fill="#344154" opacity="0.4"/>
              <path id="Trazado_107203" data-name="Trazado 107203" d="M133.947,256.806a.271.271,0,0,1-.309-.227.276.276,0,0,1,.173-.292l20.942-12.093a.282.282,0,0,1,.39.054.276.276,0,0,1-.06.385.114.114,0,0,1-.054.033l-20.948,12.1a.249.249,0,0,1-.135.043Z" transform="translate(-123.962 -212.437)" fill="#344154" opacity="0.4"/>
              <path id="Trazado_107204" data-name="Trazado 107204" d="M133.048,240.207A25.9,25.9,0,0,1,135.9,250.6a.4.4,0,0,0,.363.422.384.384,0,0,0,.282-.087l1.164-.672a1.2,1.2,0,0,0,.542-1.04,28.162,28.162,0,0,0-.975-5.573,30.527,30.527,0,0,0-1.874-4.793.661.661,0,0,0-.894-.265h-.027l-1.148.661a.742.742,0,0,0-.282.953Z" transform="translate(-123.66 -209.858)" fill="#d9a171"/>
              <path id="Trazado_107205" data-name="Trazado 107205" d="M139.4,231.321a27.62,27.62,0,0,1,2.805,5.957,26.129,26.129,0,0,1,1.267,6.558.39.39,0,0,0,.347.428.4.4,0,0,0,.287-.087l1.164-.677a1.191,1.191,0,0,0,.542-1.034,27.771,27.771,0,0,0-1.267-6.5,26.5,26.5,0,0,0-2.784-5.957.747.747,0,0,0-.969-.244l-1.159.644a.623.623,0,0,0-.255.845.222.222,0,0,0,.022.065Z" transform="translate(-126.56 -205.809)" fill="#d9a171"/>
              <path id="Trazado_107206" data-name="Trazado 107206" d="M155.158,236.858l-1.143.661a.877.877,0,0,0-.385.991,26.537,26.537,0,0,1,1.034,5.892.4.4,0,0,0,.357.422.39.39,0,0,0,.282-.087l1.159-.672a1.181,1.181,0,0,0,.542-1.034,28.161,28.161,0,0,0-1.083-5.881.542.542,0,0,0-.639-.363.487.487,0,0,0-.125.07Z" transform="translate(-133.113 -209.061)" fill="#d9a171"/>
              <path id="Trazado_107207" data-name="Trazado 107207" d="M163.031,228.033a.585.585,0,0,0-.753-.336.643.643,0,0,0-.119.065l-1.154.655a.8.8,0,0,0-.33.969c.206.542.406,1.04.6,1.625a25.562,25.562,0,0,1,1.246,6.537.4.4,0,0,0,.363.422.363.363,0,0,0,.276-.081l1.164-.672a1.2,1.2,0,0,0,.542-1.04,27.956,27.956,0,0,0-1.273-6.5A15.646,15.646,0,0,0,163.031,228.033Z" transform="translate(-136.334 -204.883)" fill="#d9a171"/>
              <path id="Trazado_107208" data-name="Trazado 107208" d="M129.955,248.039a.19.19,0,0,0-.26-.07l-.493.276c-.108-.666-.233-1.332-.385-1.988l.661-.379a.2.2,0,0,0-.195-.341l-.542.33c-.168-.661-.347-1.316-.542-1.955l.634-.357a.195.195,0,0,0-.195-.336l-.542.325c-.222-.623-.45-1.24-.715-1.847v-.043l.623-.357a.195.195,0,0,0,.076-.265h0a.2.2,0,0,0-.265-.076l-.59.341c-.271-.612-.569-1.213-.9-1.814l.617-.357a.19.19,0,0,0,.076-.265h0a.2.2,0,0,0-.265-.076l-.612.357c-.336-.579-.688-1.159-1.083-1.728l.7-.4a.19.19,0,0,0,.027-.276h0a.2.2,0,0,0-.26-.076h0l-.715.417c-.417-.6-.85-1.186-1.316-1.776a.2.2,0,0,0-.282,0,.206.206,0,0,0,0,.238,19.811,19.811,0,0,1,1.283,1.728l-.661.385a.19.19,0,0,0-.07.26.184.184,0,0,0,.162.1.152.152,0,0,0,.1,0l.693-.4c.379.574.737,1.143,1.083,1.728l-.774.444a.2.2,0,0,0-.065.265.179.179,0,0,0,.168.092.135.135,0,0,0,.092,0L126,239.7c.325.6.628,1.208.9,1.82l-.8.46a.2.2,0,0,0-.07.265.2.2,0,0,0,.168.092.146.146,0,0,0,.1,0l.764-.439h0a19.294,19.294,0,0,1,.72,1.885l-.818.471a.2.2,0,0,0-.065.265.184.184,0,0,0,.162.1.151.151,0,0,0,.1,0l.753-.439a20.164,20.164,0,0,1,.542,1.96l-.812.466a.2.2,0,0,0-.076.26h0a.173.173,0,0,0,.162.092.168.168,0,0,0,.1,0l.715-.406c.152.65.271,1.321.374,1.993l-.877.542a.19.19,0,0,0-.07.26.179.179,0,0,0,.168.1.141.141,0,0,0,.092-.027l.753-.428c.114.812.19,1.625.238,2.486a.19.19,0,0,0,.19.184h0a.2.2,0,0,0,.184-.2h0c-.049-.9-.135-1.8-.26-2.675l.612-.352a.19.19,0,0,0,.065-.368Z" transform="translate(-119.169 -208.359)" fill="#344154" opacity="0.4"/>
              <g id="Grupo_59695" data-name="Grupo 59695" transform="translate(12.302 47.695)" opacity="0.15">
                <path id="Trazado_107209" data-name="Trazado 107209" d="M139.2,303.882a30.723,30.723,0,0,1-.179-4.408c.157-.542,2.518-8.665,6.862-11.189a2.9,2.9,0,0,1,.856-.357,1.566,1.566,0,0,1,.352-.043c1.154,0,1.668,1.625,2.166,3.152a14.943,14.943,0,0,0,.682,1.858c.3.628.8,1.451,1.755,1.451a2.437,2.437,0,0,0,1.191-.363c2.08-1.191,2.708-4.414,3.325-7.82a39.067,39.067,0,0,1,1.04-4.522c.634-1.987,1.457-3.222,2.6-3.878a2.031,2.031,0,0,1,.964-.314c1.213,0,1.668,2.166,2.112,4.24a17.251,17.251,0,0,0,.883,3.2c.444,1,1.04,1.489,1.771,1.489a2.556,2.556,0,0,0,1.219-.379c2.562-1.473,3.336-3.986,4.083-6.407.639-2.08,1.235-4,2.924-4.982a2.545,2.545,0,0,1,1.256-.4,1.771,1.771,0,0,1,.542.092c.043.39.07.78.076,1.164l.033,4.907c.043.942.108,1.679.195,2.312Z" transform="translate(-138.725 -273.918)" fill="#d9a171"/>
                <path id="Trazado_107210" data-name="Trazado 107210" d="M175.988,282.568c-.108-.731-.168-1.56-.217-2.459l-.027-4.907a11.3,11.3,0,0,0-.1-1.348,1.874,1.874,0,0,0-.807-.184h0a2.768,2.768,0,0,0-1.392.433c-3.791,2.166-2.334,8.665-7.013,11.373a2.274,2.274,0,0,1-1.116.352c-.7,0-1.164-.542-1.522-1.327-1.083-2.486-1.083-7.582-3.249-7.582a2.275,2.275,0,0,0-1.083.352,6.661,6.661,0,0,0-2.708,4.035c-1.4,4.376-1.311,10.523-4.224,12.18a2.22,2.22,0,0,1-1.04.33c-.688,0-1.148-.542-1.511-1.294-.921-1.885-1.224-5.134-3.13-5.134a2.067,2.067,0,0,0-.406.043,3.25,3.25,0,0,0-.937.39c-4.63,2.708-7,11.373-7,11.373a31.375,31.375,0,0,0,.222,4.874l.542-.3a5.358,5.358,0,0,1-.092-.59,33.651,33.651,0,0,1-.13-3.91c.222-.769,2.545-8.557,6.732-10.994a2.545,2.545,0,0,1,.78-.33,1.311,1.311,0,0,1,.292-.038c.948,0,1.435,1.511,1.906,2.962a15.218,15.218,0,0,0,.693,1.9c.195.4.764,1.625,2.009,1.625a2.664,2.664,0,0,0,1.321-.406c2.2-1.246,2.811-4.533,3.455-8a39.575,39.575,0,0,1,1.04-4.484c.612-1.917,1.392-3.119,2.464-3.721a1.684,1.684,0,0,1,.829-.282c.986,0,1.441,2.134,1.841,4.018a17.71,17.71,0,0,0,.894,3.249c.482,1.083,1.164,1.657,2.025,1.657a2.817,2.817,0,0,0,1.392-.428c2.654-1.538,3.477-4.213,4.208-6.569.623-2.009,1.2-3.9,2.805-4.831a2.28,2.28,0,0,1,1.116-.357h0a1.138,1.138,0,0,1,.3.038c.054.542.06.948.06.948v4.934c.043.845.1,1.56.173,2.139a4.123,4.123,0,0,0,.108.574l.482-.282" transform="translate(-138.49 -273.67)" fill="#344154"/>
              </g>
              <g id="Grupo_59696" data-name="Grupo 59696" transform="translate(12.302 43.981)" opacity="0.4">
                <path id="Trazado_107211" data-name="Trazado 107211" d="M138.506,293.565v2.475a31.375,31.375,0,0,0,.222,4.874l37.254-21.505c-.108-.731-.173-1.56-.217-2.464v-4.9s0-7.327-4.674-4.636c-4.874,2.827-3.515,11.8-6.986,13.8s-2.329-5.984-6.981-3.293-2.329,8.665-6.986,11.373-2.329-10.869-6.986-8.183S138.506,290.472,138.506,293.565Z" transform="translate(-138.49 -266.813)" fill="#d9a171"/>
              </g>
              <path id="Trazado_107212" data-name="Trazado 107212" d="M135.216,317.269a.189.189,0,0,1-.168-.1.2.2,0,0,1,.07-.265h0l39.621-22.691a.195.195,0,0,1,.195.336h0l-39.626,22.691A.222.222,0,0,1,135.216,317.269Z" transform="translate(-124.598 -235.386)" fill="#344154" opacity="0.4"/>
              <path id="Trazado_107213" data-name="Trazado 107213" d="M146.985,294.964a.2.2,0,0,1-.195-.195v-.39a.179.179,0,0,1,.179-.19h0a.2.2,0,0,1,.195.19v.39a.206.206,0,0,1-.179.195Z" transform="translate(-129.992 -235.383)" fill="#6595bf" stroke="#5e6178" stroke-miterlimit="10" stroke-width="0"/>
              <path id="Trazado_107214" data-name="Trazado 107214" d="M147.062,310.826a.2.2,0,0,1-.19-.179c0-.249-.043-.542-.06-.747a.195.195,0,0,1,.184-.206h0a.179.179,0,0,1,.2.152v.027c0,.249.038.493.06.737a.19.19,0,0,1-.168.211h0Zm-.087-1.489a.2.2,0,0,1-.195-.19v-.753a.19.19,0,0,1,.19-.19.2.2,0,0,1,.2.19v.731a.2.2,0,0,1-.19.195Zm0-1.489a.2.2,0,0,1-.19-.195v-.747a.19.19,0,0,1,.19-.19h0a.2.2,0,0,1,.195.19v.747a.2.2,0,0,1-.2.195Zm0-1.495a.19.19,0,0,1-.19-.19v-.747a.2.2,0,0,1,.195-.195h0a.206.206,0,0,1,.195.195v.747a.2.2,0,0,1-.195.19Zm0-1.489a.2.2,0,0,1-.19-.19v-.769a.2.2,0,0,1,.222-.162.206.206,0,0,1,.168.162v.753a.195.195,0,0,1-.19.206h0Zm0-1.489a.2.2,0,0,1-.19-.195v-.742a.195.195,0,1,1,.385,0h0v.731a.2.2,0,0,1-.179.211h-.043Zm0-1.495a.179.179,0,0,1-.19-.179v-.753a.195.195,0,1,1,.385,0v.742a.19.19,0,0,1-.179.195h0Zm0-1.489h0a.19.19,0,0,1-.19-.184v-.753a.19.19,0,0,1,.19-.195.2.2,0,0,1,.195.19h0v.742a.19.19,0,0,1-.179.195h0Zm0-1.489h0a.189.189,0,0,1-.19-.195v-.742a.19.19,0,0,1,.222-.162.2.2,0,0,1,.168.162v.747a.206.206,0,0,1-.217.195h0Zm0-1.489a.19.19,0,0,1-.19-.19v-.747a.2.2,0,0,1,.195-.195h0a.2.2,0,0,1,.195.19v.742a.195.195,0,0,1-.206.19h0Z" transform="translate(-129.988 -236.341)" fill="#6595bf" stroke="#5e6178" stroke-miterlimit="10" stroke-width="0"/>
              <path id="Trazado_107215" data-name="Trazado 107215" d="M147.328,324.575a.2.2,0,0,1-.19-.168l-.049-.39a.195.195,0,0,1,.385-.043l.049.379a.2.2,0,0,1-.162.222h-.032Z" transform="translate(-130.13 -248.968)" fill="#6595bf" stroke="#5e6178" stroke-miterlimit="10" stroke-width="0"/>
              <path id="Trazado_107216" data-name="Trazado 107216" d="M198.525,268.34a.2.2,0,0,1-.195-.195h0v-.385a.2.2,0,0,1,.195-.2h0a.2.2,0,0,1,.195.2v.385a.2.2,0,0,1-.195.195Z" transform="translate(-153.621 -223.174)" fill="#6595bf" stroke="#5e6178" stroke-miterlimit="10" stroke-width="0"/>
              <path id="Trazado_107217" data-name="Trazado 107217" d="M198.654,284.235a.2.2,0,0,1-.195-.179c0-.249-.043-.542-.06-.747a.195.195,0,0,1,.184-.206.179.179,0,0,1,.2.168h0c0,.249.038.493.06.742a.2.2,0,0,1-.168.211h0Zm-.092-1.489a.19.19,0,0,1-.195-.19v-.747a.2.2,0,0,1,.19-.195h0a.2.2,0,0,1,.195.195v.742a.19.19,0,0,1-.19.195h0Zm0-1.489a.19.19,0,0,1-.19-.19V280.3a.2.2,0,0,1,.19-.195h0a.2.2,0,0,1,.2.195v.742a.2.2,0,0,1-.19.195h0Zm0-1.489a.2.2,0,0,1-.195-.195v-.747a.19.19,0,0,1,.19-.19h0a.2.2,0,0,1,.2.19v.747A.2.2,0,0,1,198.562,279.767Zm0-1.495a.19.19,0,0,1-.19-.19v-.747a.195.195,0,1,1,.385,0v.747a.2.2,0,0,1-.19.195h0Zm0-1.489a.2.2,0,0,1-.195-.19v-.769a.2.2,0,0,1,.227-.162.211.211,0,0,1,.162.162v.753a.195.195,0,0,1-.206.19h0Zm0-1.489a.2.2,0,0,1-.195-.19h0v-.742a.2.2,0,0,1,.162-.227.2.2,0,0,1,.227.162v.807a.2.2,0,0,1-.19.195h0Zm0-1.495h0a.19.19,0,0,1-.195-.184h0v-.742a.2.2,0,0,1,.184-.2h0a.2.2,0,0,1,.195.2v.742a.2.2,0,0,1-.195.19h0Zm0-1.484h0a.2.2,0,0,1-.19-.195h0v-.742a.195.195,0,0,1,.385,0v.742a.2.2,0,0,1-.2.2h0Zm0-1.489h0a.2.2,0,0,1-.19-.2v-.72a.195.195,0,0,1,.39,0v.747a.206.206,0,0,1-.222.173h0Z" transform="translate(-153.636 -224.16)" fill="#6595bf" stroke="#5e6178" stroke-miterlimit="10" stroke-width="0"/>
              <path id="Trazado_107218" data-name="Trazado 107218" d="M198.923,297.947a.2.2,0,0,1-.195-.168l-.049-.39a.2.2,0,0,1,.162-.211h0a.19.19,0,0,1,.217.162h0l.049.384a.2.2,0,0,1-.162.217h-.027Z" transform="translate(-153.78 -236.751)" fill="#6595bf" stroke="#5e6178" stroke-miterlimit="10" stroke-width="0"/>
              <path id="Trazado_107219" data-name="Trazado 107219" d="M172.725,289.015a.2.2,0,0,1-.195-.195v-.39a.2.2,0,0,1,.227-.162.211.211,0,0,1,.162.162v.374a.2.2,0,0,1-.184.211Z" transform="translate(-141.793 -232.667)" fill="#6595bf" stroke="#5e6178" stroke-miterlimit="10" stroke-width="0"/>
              <path id="Trazado_107220" data-name="Trazado 107220" d="M172.817,300.095a.2.2,0,0,1-.195-.179c0-.238-.043-.482-.054-.726a.195.195,0,0,1,.179-.211.189.189,0,0,1,.206.168h0c0,.238.027.477.049.715a.2.2,0,0,1-.168.217h0Zm-.092-1.451a.2.2,0,0,1-.195-.195v-.726a.184.184,0,0,1,.184-.195h0a.2.2,0,0,1,.195.19v.726a.2.2,0,0,1-.195.2Zm0-1.457a.179.179,0,0,1-.19-.179v-.742a.2.2,0,0,1,.19-.195h0a.2.2,0,0,1,.195.19h0v.709a.2.2,0,0,1-.195.19Zm0-1.451a.2.2,0,0,1-.195-.195v-.726a.2.2,0,0,1,.19-.195h0a.2.2,0,0,1,.2.19h0v.709a.206.206,0,0,1-.195.217Zm0-1.457a.2.2,0,0,1-.19-.195v-.731a.195.195,0,0,1,.227-.162.211.211,0,0,1,.162.162v.731a.2.2,0,0,1-.179.206h0Zm0-1.451h0a.2.2,0,0,1-.19-.195V291.9a.2.2,0,0,1,.227-.162.211.211,0,0,1,.162.162v.731a.2.2,0,0,1-.206.184Zm0-1.451h0a.2.2,0,0,1-.19-.2v-.72a.2.2,0,1,1,.39-.065v.8A.2.2,0,0,1,172.725,291.376Z" transform="translate(-141.793 -233.565)" fill="#6595bf" stroke="#5e6178" stroke-miterlimit="10" stroke-width="0"/>
              <path id="Trazado_107221" data-name="Trazado 107221" d="M173.123,309.828a.2.2,0,0,1-.195-.168l-.049-.39a.2.2,0,0,1,.162-.211h0a.19.19,0,0,1,.211.168l.049.385a.2.2,0,0,1-.162.217h0Z" transform="translate(-141.953 -242.198)" fill="#6595bf" stroke="#5e6178" stroke-miterlimit="10" stroke-width="0"/>
              <path id="Trazado_107222" data-name="Trazado 107222" d="M146.526,291.706c.368-.211.672-.076.672.314a1.43,1.43,0,0,1-.672,1.083c-.368.211-.666.065-.666-.32A1.4,1.4,0,0,1,146.526,291.706Z" transform="translate(-129.566 -234.198)" fill="#344154" opacity="0.4"/>
              <path id="Trazado_107223" data-name="Trazado 107223" d="M172.326,285.737c.368-.211.672-.07.672.32a1.408,1.408,0,0,1-.672,1.083c-.368.217-.666.076-.666-.309A1.408,1.408,0,0,1,172.326,285.737Z" transform="translate(-141.394 -231.463)" fill="#344154" opacity="0.4"/>
              <path id="Trazado_107224" data-name="Trazado 107224" d="M198.116,266.548c.374-.211.672-.065.672.32a1.413,1.413,0,0,1-.672,1.083c-.374.217-.666.076-.666-.314A1.408,1.408,0,0,1,198.116,266.548Z" transform="translate(-153.217 -222.666)" fill="#344154" opacity="0.4"/>
              <path id="Trazado_107225" data-name="Trazado 107225" d="M134.22,296.067a.2.2,0,0,0,.076-.265h0a.19.19,0,0,0-.26-.07h0l-.542.292v-2l.7-.406a.2.2,0,0,0,.076-.26h0a.2.2,0,0,0-.265-.076l-.542.3v-2.107a.192.192,0,1,0-.385,0v2.361l-.7.406a.2.2,0,0,0-.07.265h0a.19.19,0,0,0,.168.092.124.124,0,0,0,.1-.027l.542-.287v2l-.7.406a.2.2,0,0,0-.07.265.184.184,0,0,0,.168.092.157.157,0,0,0,.1,0l.542-.287v1.95l-.7.406a.19.19,0,0,0-.076.255h0a.19.19,0,0,0,.168.1.184.184,0,0,0,.092-.027l.542-.292v2l-.7.406a.19.19,0,0,0-.076.26h0a.206.206,0,0,0,.173.1.185.185,0,0,0,.092-.027l.542-.292v2l-.7.406a.19.19,0,0,0-.076.26h0a.206.206,0,0,0,.173.1h.092l.542-.3v2l-.7.4a.2.2,0,0,0-.076.265.211.211,0,0,0,.173.1.26.26,0,0,0,.092-.027l.542-.3v2l-.7.4a.2.2,0,0,0-.076.265.217.217,0,0,0,.168.1.286.286,0,0,0,.1-.027l.542-.3v1.993l-.72.412a.191.191,0,0,0,.092.363.2.2,0,0,0,.1,0l.542-.325c.043.726.1,1.457.19,2.166a.2.2,0,0,0,.195.168h0a.2.2,0,0,0,.168-.217h0c-.1-.764-.162-1.56-.206-2.329l.666-.385a.2.2,0,0,0,.07-.265.2.2,0,0,0-.265-.076l-.487.282c0-.661-.027-1.321,0-1.988l.7-.406a.19.19,0,0,0,.07-.26.2.2,0,0,0-.26-.076h0l-.542.287v-2l.7-.406a.195.195,0,0,0-.179-.341h0l-.542.287v-2l.7-.406a.19.19,0,0,0,.07-.26h0a.2.2,0,0,0-.265-.065l-.542.287v-1.971l.7-.406a.192.192,0,0,0-.195-.33l-.542.292v-2l.7-.406a.19.19,0,0,0,.076-.255h0a.19.19,0,0,0-.249-.076h0l-.542.292v-2.047Z" transform="translate(-123.342 -234.049)" fill="#344154" opacity="0.4"/>
              <path id="Trazado_107226" data-name="Trazado 107226" d="M190.02,318.971l-37.232,21.511a3.665,3.665,0,0,1-4.159-.3c-.953-.959-.542-2.437.753-3.19l37.205-21.484a3.4,3.4,0,0,1,3.991.449A1.8,1.8,0,0,1,190.02,318.971Z" transform="translate(-130.596 -244.951)" fill="#d9a171"/>
              <path id="Trazado_107227" data-name="Trazado 107227" d="M136.391,320.666a.276.276,0,0,1-.3-.233.271.271,0,0,1,.168-.287l41.922-24.164a.282.282,0,0,1,.363.141.287.287,0,0,1-.092.336l-41.922,24.186A.277.277,0,0,1,136.391,320.666Z" transform="translate(-125.085 -236.194)" fill="#344154" opacity="0.4"/>
              <path id="Trazado_107228" data-name="Trazado 107228" d="M138.007,324.814a.271.271,0,0,1-.238-.141.276.276,0,0,1,.1-.374l41.928-24.2a.265.265,0,0,1,.368.092h0a.276.276,0,0,1-.1.374l-41.911,24.2A.259.259,0,0,1,138.007,324.814Z" transform="translate(-125.84 -238.072)" fill="#344154" opacity="0.4"/>
              <path id="Trazado_107229" data-name="Trazado 107229" d="M139.947,328.824a.275.275,0,0,1-.135-.52l41.928-24.213a.276.276,0,0,1,.363.141.271.271,0,0,1-.087.33L140.077,328.78A.369.369,0,0,1,139.947,328.824Z" transform="translate(-126.724 -239.911)" fill="#344154" opacity="0.4"/>
              <path id="Trazado_107230" data-name="Trazado 107230" d="M142.266,332.674a.271.271,0,0,1-.238-.141.265.265,0,0,1,.087-.363h0l41.949-24.192a.271.271,0,0,1,.363.141.276.276,0,0,1-.087.33L142.4,332.669A.308.308,0,0,1,142.266,332.674Z" transform="translate(-127.792 -241.693)" fill="#344154" opacity="0.4"/>
            </g>
          </g>
          <path id="Trazado_107232" data-name="Trazado 107232" d="M209.142,261.928l34.514-19.919c1.311-.753,3.4-1.2,4.56-.726s.953,1.7-.357,2.448l-34.909,20.146a4.8,4.8,0,0,1-4.213.276C207.7,263.591,207.831,262.7,209.142,261.928Z" transform="translate(-145.628 -199.817)" fill="#d9a171"/>
          <path id="Trazado_107233" data-name="Trazado 107233" d="M217.23,269.785a.276.276,0,0,1-.135-.515l39.761-22.951a.276.276,0,0,1,.374.1.265.265,0,0,1-.1.368h0l-39.767,22.957A.238.238,0,0,1,217.23,269.785Z" transform="translate(-149.713 -202.198)" fill="#344154" opacity="0.4"/>
          <path id="Trazado_107234" data-name="Trazado 107234" d="M220.27,273.077a.276.276,0,0,1-.135-.514l39.826-22.984a.265.265,0,0,1,.363.092h0a.282.282,0,0,1-.1.379L220.4,273.034A.3.3,0,0,1,220.27,273.077Z" transform="translate(-151.107 -203.692)" fill="#344154" opacity="0.4"/>
          <path id="Trazado_107235" data-name="Trazado 107235" d="M228.206,314.493h0a.2.2,0,0,1-.195-.19h0v-2.112c0-1.581,0-1.581-.038-2.659v-.19a25.691,25.691,0,0,0-1.4-7.2,20.07,20.07,0,0,0-3.612-6.26.19.19,0,0,1,.032-.271.2.2,0,0,1,.271.027,20.5,20.5,0,0,1,3.639,6.385,26.033,26.033,0,0,1,1.473,7.273v.179c.043,1.083.043,1.083.038,2.708v2.107a.195.195,0,0,1-.168.222Z" transform="translate(-152.447 -224.794)" fill="#344154" opacity="0.4"/>
          <path id="Trazado_107236" data-name="Trazado 107236" d="M231.355,290.768c-.179-.314-.368-.612-.574-.915a.612.612,0,0,1,.135-.856l.065-.043,15.191-8.768a.72.72,0,0,1,.969.227c.179.3.357.612.542.937a.737.737,0,0,1-.287.959l-15.11,8.719a.661.661,0,0,1-.9-.244Z" transform="translate(-155.996 -217.695)" fill="#d9a171"/>
          <path id="Trazado_107237" data-name="Trazado 107237" d="M234.64,287.787c.114.347.222.688.314,1.034a.542.542,0,0,0,.634.379.662.662,0,0,0,.13-.054l36.046-20.812a.948.948,0,0,0,.422-1q-.152-.542-.309-1.04a.519.519,0,0,0-.812-.3L235.009,286.8a.888.888,0,0,0-.368.991Z" transform="translate(-157.804 -211.188)" fill="#d9a171"/>
          <path id="Trazado_107238" data-name="Trazado 107238" d="M234.64,287.787c.114.347.222.688.314,1.034a.542.542,0,0,0,.634.379.662.662,0,0,0,.13-.054l36.046-20.812a.948.948,0,0,0,.422-1q-.152-.542-.309-1.04a.519.519,0,0,0-.812-.3L235.009,286.8a.888.888,0,0,0-.368.991Z" transform="translate(-157.804 -211.188)" fill="#6595bf" stroke="#5e6178" stroke-miterlimit="10" stroke-width="0" opacity="0.7"/>
          <path id="Trazado_107239" data-name="Trazado 107239" d="M236.606,302.3c.049.384.087.758.114,1.116a.39.39,0,0,0,.634.347l24.424-14.081a1.2,1.2,0,0,0,.542-1.04c-.032-.374-.076-.742-.119-1.116a.428.428,0,0,0-.682-.336L237.094,301.27A1.121,1.121,0,0,0,236.606,302.3Z" transform="translate(-158.719 -220.913)" fill="#d9a171"/>
          <path id="Trazado_107240" data-name="Trazado 107240" d="M236.606,302.3c.049.384.087.758.114,1.116a.39.39,0,0,0,.634.347l24.424-14.081a1.2,1.2,0,0,0,.542-1.04c-.032-.374-.076-.742-.119-1.116a.428.428,0,0,0-.682-.336L237.094,301.27A1.121,1.121,0,0,0,236.606,302.3Z" transform="translate(-158.719 -220.913)" fill="#344154" opacity="0.15"/>
          <path id="Trazado_107241" data-name="Trazado 107241" d="M237,318.3v1.083c0,.374.265.542.59.336l10.452-6.033a1.305,1.305,0,0,0,.6-1.04v-1.083c0-.379-.265-.542-.6-.341L237.59,317.25A1.31,1.31,0,0,0,237,318.3Z" transform="translate(-158.901 -231.927)" fill="#d9a171"/>
          <path id="Trazado_107242" data-name="Trazado 107242" d="M237,318.3v1.083c0,.374.265.542.59.336l10.452-6.033a1.305,1.305,0,0,0,.6-1.04v-1.083c0-.379-.265-.542-.6-.341L237.59,317.25A1.31,1.31,0,0,0,237,318.3Z" transform="translate(-158.901 -231.927)" fill="#6595bf" stroke="#5e6178" stroke-miterlimit="10" stroke-width="0" opacity="0.5"/>
          <path id="Trazado_107243" data-name="Trazado 107243" d="M273.9,292.31a.2.2,0,0,0-.195.195h0v.942l-2.789,1.625v-.7a.19.19,0,0,0-.222-.162.2.2,0,0,0-.168.162v.926l-2.784,1.625v-.693a.2.2,0,1,0-.39-.06v.975l-2.784,1.625v-.677a.2.2,0,0,0-.195-.195.19.19,0,0,0-.19.19h0v.9l-2.789,1.625v-.726a.195.195,0,1,0-.384,0v.888l-2.794,1.625v-.672a.179.179,0,0,0-.179-.19h0a.2.2,0,0,0-.195.19v.877l-2.794,1.625v-.639a.195.195,0,0,0-.39,0v.861l-2.784,1.625v-.634a.2.2,0,0,0-.227-.162.211.211,0,0,0-.162.162v.856l-2.784,1.625v-.617a.195.195,0,0,0-.227-.162.184.184,0,0,0-.162.162v.834l-2.784,1.625v-.6A.206.206,0,0,0,245.3,309a.2.2,0,0,0-.162.168v.823l-2.789,1.625v-.6a.195.195,0,0,0-.227-.162.211.211,0,0,0-.162.162v.818l-2.784,1.625v-.574a.195.195,0,1,0-.39,0v.8l-2.415,1.4a.2.2,0,0,0-.076.26h0a.19.19,0,0,0,.168.1.146.146,0,0,0,.092-.032l2.226-1.284v.791a.2.2,0,0,0,.227.162.2.2,0,0,0,.162-.162V313.9l2.784-1.625v.764a.2.2,0,0,0,.227.162.184.184,0,0,0,.162-.162v-1l2.789-1.625v.764a.2.2,0,0,0,.222.162.206.206,0,0,0,.168-.162v-.991l2.784-1.625v.747a.195.195,0,0,0,.39,0v-.986l2.784-1.625v.742a.2.2,0,0,0,.227.162.211.211,0,0,0,.162-.162v-.953l2.784-1.625v.726a.2.2,0,0,0,.227.163.19.19,0,0,0,.162-.163v-.926l2.789-1.625v.709a.192.192,0,1,0,.384,0v-.937L261,301.192v.7a.195.195,0,0,0,.384,0v-.953l2.789-1.625v.688a.2.2,0,0,0,.19.195.2.2,0,0,0,.195-.195v-.823l2.784-1.625v.677a.206.206,0,0,0,.227.162.2.2,0,0,0,.162-.162v-.9l2.784-1.625v.65a.206.206,0,0,0,.227.162.19.19,0,0,0,.162-.162v-.888l2.789-1.625v.65a.2.2,0,0,0,.227.168.206.206,0,0,0,.162-.168v-2.036A.2.2,0,0,0,273.9,292.31Z" transform="translate(-158.566 -223.299)" fill="#344154" opacity="0.4"/>
          <path id="Trazado_107244" data-name="Trazado 107244" d="M241.7,339.5a7.082,7.082,0,0,0-2.025.823c-3.856,2.264-6.975,7.934-6.975,12.656v.368l6.965-3.19Z" transform="translate(-156.93 -244.933)" fill="#d9a171"/>
          <path id="Trazado_107245" data-name="Trazado 107245" d="M247.6,339.414l-2.031,10.658,6.9-4.008a10.291,10.291,0,0,0,.081-1.289C252.545,340.887,250.466,338.819,247.6,339.414Z" transform="translate(-162.83 -244.847)" fill="#d9a171"/>
          <path id="Trazado_107246" data-name="Trazado 107246" d="M251.6,355.371a14.623,14.623,0,0,0,.872-3.591l-6.9,4.008Z" transform="translate(-162.83 -250.562)" fill="#d9a171"/>
          <path id="Trazado_107247" data-name="Trazado 107247" d="M232.71,361.974c.152,4.473,3.222,6.336,6.97,4.159a15.038,15.038,0,0,0,6.028-7.793l-6.033.417Z" transform="translate(-156.935 -253.569)" fill="#d9a171"/>
          <path id="Trazado_107248" data-name="Trazado 107248" d="M247.6,339.414l-2.031,10.658,6.9-4.008a10.291,10.291,0,0,0,.081-1.289C252.545,340.887,250.466,338.819,247.6,339.414Z" transform="translate(-162.83 -244.847)" fill="#6595bf" stroke="#5e6178" stroke-miterlimit="10" stroke-width="0" opacity="0.7"/>
          <path id="Trazado_107249" data-name="Trazado 107249" d="M251.6,355.371a14.623,14.623,0,0,0,.872-3.591l-6.9,4.008Z" transform="translate(-162.83 -250.562)" fill="#344154" opacity="0.15"/>
          <path id="Trazado_107250" data-name="Trazado 107250" d="M232.71,361.974c.152,4.473,3.222,6.336,6.97,4.159a15.038,15.038,0,0,0,6.028-7.793l-6.033.417Z" transform="translate(-156.935 -253.569)" fill="#6595bf" stroke="#5e6178" stroke-miterlimit="10" stroke-width="0" opacity="0.5"/>
          <path id="Trazado_107251" data-name="Trazado 107251" d="M232.476,353.4a.325.325,0,0,1-.146-.038.265.265,0,0,1-.13-.227v-.379c0-4.8,3.19-10.588,7.111-12.889a7.244,7.244,0,0,1,2.112-.856.282.282,0,0,1,.249.076.271.271,0,0,1,.076.244l-2.042,10.669a.265.265,0,0,1-.152.195l-6.965,3.19a.211.211,0,0,1-.114.016Zm8.665-13.75a7.151,7.151,0,0,0-1.56.688c-3.758,2.21-6.818,7.744-6.845,12.364l6.455-2.952Z" transform="translate(-156.701 -244.704)" fill="#6595bf" stroke="#5e6178" stroke-miterlimit="10" stroke-width="0"/>
          <path id="Trazado_107252" data-name="Trazado 107252" d="M245.338,350.108a.244.244,0,0,1-.157-.054.276.276,0,0,1-.114-.271l2.042-10.652a.265.265,0,0,1,.211-.222,3.981,3.981,0,0,1,3.428.731,6.116,6.116,0,0,1,1.852,4.874,10.819,10.819,0,0,1-.081,1.319.276.276,0,0,1-.136.208l-6.91,4.008a.233.233,0,0,1-.135.06Zm2.3-10.663-1.89,9.867,6.271-3.634a9.739,9.739,0,0,0,.065-1.121,5.7,5.7,0,0,0-1.625-4.473A3.379,3.379,0,0,0,247.634,339.445Z" transform="translate(-162.598 -244.607)" fill="#6595bf" stroke="#5e6178" stroke-miterlimit="10" stroke-width="0"/>
          <path id="Trazado_107253" data-name="Trazado 107253" d="M245.343,355.831a.276.276,0,0,1-.141-.509l6.916-4.013a.287.287,0,0,1,.282,0,.282.282,0,0,1,.125.26,15.034,15.034,0,0,1-.894,3.639.287.287,0,0,1-.233.179l-6.038.412Zm6.569-3.791-5.416,3.119,4.679-.32a14.705,14.705,0,0,0,.737-2.778Zm-.542,3.076" transform="translate(-162.603 -250.329)" fill="#6595bf" stroke="#5e6178" stroke-miterlimit="10" stroke-width="0"/>
          <path id="Trazado_107254" data-name="Trazado 107254" d="M236.473,367.2a3.981,3.981,0,0,1-1.89-.477c-1.451-.807-2.3-2.535-2.383-4.874a.276.276,0,0,1,.162-.26l6.964-3.19a.258.258,0,0,1,.092,0l6.033-.417a.265.265,0,0,1,.244.114.254.254,0,0,1,.032.255,15.645,15.645,0,0,1-6.147,7.918A6.358,6.358,0,0,1,236.473,367.2Zm-3.721-5.2c.114,2.036.856,3.536,2.08,4.219s2.794.542,4.462-.46a14.813,14.813,0,0,0,5.757-7.235l-5.556.384Z" transform="translate(-156.701 -253.403)" fill="#6595bf" stroke="#5e6178" stroke-miterlimit="10" stroke-width="0"/>
          <path id="Trazado_107255" data-name="Trazado 107255" d="M283.76,318.69a16.5,16.5,0,0,0-3.823,9.911,7.171,7.171,0,0,0,.883,3.7l6.1-7.728Z" transform="translate(-178.583 -235.392)" fill="#d9a171"/>
          <path id="Trazado_107256" data-name="Trazado 107256" d="M293.329,311.94a5.773,5.773,0,0,0-3.146.894,11.963,11.963,0,0,0-3.163,2.762l3.163,5.871Z" transform="translate(-181.832 -232.298)" fill="#d9a171"/>
          <path id="Trazado_107257" data-name="Trazado 107257" d="M299.191,314.166a3.634,3.634,0,0,0-3.184-2.226l-3.146,9.537Z" transform="translate(-184.51 -232.298)" fill="#d9a171"/>
          <path id="Trazado_107258" data-name="Trazado 107258" d="M294.024,316.05l-6.331,7.311-6.1,7.739c1.2,1.95,3.477,2.415,6.1.9,3.856-2.231,6.981-7.9,6.981-12.673a7.538,7.538,0,0,0-.65-3.282Z" transform="translate(-179.343 -234.182)" fill="#d9a171"/>
          <path id="Trazado_107259" data-name="Trazado 107259" d="M293.329,311.94a5.773,5.773,0,0,0-3.146.894,11.963,11.963,0,0,0-3.163,2.762l3.163,5.871Z" transform="translate(-181.832 -232.298)" fill="#6595bf" stroke="#5e6178" stroke-miterlimit="10" stroke-width="0" opacity="0.7"/>
          <path id="Trazado_107260" data-name="Trazado 107260" d="M299.191,314.166a3.634,3.634,0,0,0-3.184-2.226l-3.146,9.537Z" transform="translate(-184.51 -232.298)" fill="#344154" opacity="0.15"/>
          <path id="Trazado_107261" data-name="Trazado 107261" d="M294.024,316.05l-6.331,7.311-6.1,7.739c1.2,1.95,3.477,2.415,6.1.9,3.856-2.231,6.981-7.9,6.981-12.673a7.538,7.538,0,0,0-.65-3.282Z" transform="translate(-179.343 -234.182)" fill="#6595bf" stroke="#5e6178" stroke-miterlimit="10" stroke-width="0" opacity="0.5"/>
          <path id="Trazado_107262" data-name="Trazado 107262" d="M280.624,332.342h0a.3.3,0,0,1-.217-.135,7.431,7.431,0,0,1-.921-3.84,16.636,16.636,0,0,1,3.888-10.084.292.292,0,0,1,.233-.1.282.282,0,0,1,.217.146l3.157,5.876a.282.282,0,0,1-.027.3l-6.109,7.739A.287.287,0,0,1,280.624,332.342Zm2.9-13.393a16.073,16.073,0,0,0-3.5,9.418,7.2,7.2,0,0,0,.65,3.206l5.713-7.273Z" transform="translate(-178.377 -235.158)" fill="#6595bf" stroke="#5e6178" stroke-miterlimit="10" stroke-width="0"/>
          <path id="Trazado_107263" data-name="Trazado 107263" d="M289.954,321.468a.271.271,0,0,1-.249-.146l-3.152-5.871a.271.271,0,0,1,.032-.3,11.844,11.844,0,0,1,3.249-2.822,6.06,6.06,0,0,1,3.3-.937.276.276,0,0,1,.249.357l-3.146,9.537a.282.282,0,0,1-.244.184Zm-2.832-6.114,2.767,5.156,2.849-8.551a5.915,5.915,0,0,0-2.632.861,11.373,11.373,0,0,0-2.968,2.556Z" transform="translate(-181.604 -232.046)" fill="#6595bf" stroke="#5e6178" stroke-miterlimit="10" stroke-width="0"/>
          <path id="Trazado_107264" data-name="Trazado 107264" d="M292.627,321.468a.228.228,0,0,1-.135-.033.271.271,0,0,1-.125-.325l3.146-9.537a.271.271,0,0,1,.271-.184,3.9,3.9,0,0,1,3.417,2.383.281.281,0,0,1-.038.3l-6.336,7.3a.26.26,0,0,1-.2.092Zm3.325-9.494-2.659,8.031,5.367-6.12a3.379,3.379,0,0,0-2.664-1.9Z" transform="translate(-184.277 -232.045)" fill="#6595bf" stroke="#5e6178" stroke-miterlimit="10" stroke-width="0"/>
          <path id="Trazado_107265" data-name="Trazado 107265" d="M284.493,332.936a3.834,3.834,0,0,1-3.374-1.928.287.287,0,0,1,0-.32l6.093-7.728,6.347-7.311a.26.26,0,0,1,.244-.092.254.254,0,0,1,.206.146,7.712,7.712,0,0,1,.682,3.39c0,4.874-3.2,10.642-7.122,12.905a6.255,6.255,0,0,1-3.076.937Zm-2.8-2.08c1.186,1.76,3.249,2.009,5.621.65,3.791-2.166,6.845-7.755,6.845-12.456a7.706,7.706,0,0,0-.449-2.757l-6.055,6.97Z" transform="translate(-179.105 -233.955)" fill="#6595bf" stroke="#5e6178" stroke-miterlimit="10" stroke-width="0"/>
          <path id="Trazado_107266" data-name="Trazado 107266" d="M263.36,329.734l1.143-.661c.33-.184.6-.032.6.341V330.5a1.327,1.327,0,0,1-.6,1.04l-1.143.709c-.325.184-.59.033-.59-.347v-1.083A1.316,1.316,0,0,1,263.36,329.734Z" transform="translate(-170.715 -240.117)" fill="#d9a171"/>
          <path id="Trazado_107267" data-name="Trazado 107267" d="M263.36,338.84l1.143-.661c.33-.195.6-.038.6.341V339.6a1.305,1.305,0,0,1-.6,1.04l-1.143.65c-.325.195-.59.038-.59-.341v-1.11A1.284,1.284,0,0,1,263.36,338.84Z" transform="translate(-170.715 -244.288)" fill="#d9a171"/>
          <path id="Trazado_107268" data-name="Trazado 107268" d="M263.36,338.84l1.143-.661c.33-.195.6-.038.6.341V339.6a1.305,1.305,0,0,1-.6,1.04l-1.143.65c-.325.195-.59.038-.59-.341v-1.11A1.284,1.284,0,0,1,263.36,338.84Z" transform="translate(-170.715 -244.288)" fill="#6595bf" stroke="#5e6178" stroke-miterlimit="10" stroke-width="0" opacity="0.7"/>
          <path id="Trazado_107269" data-name="Trazado 107269" d="M263.36,347.935l1.143-.661c.33-.184.6-.033.6.347V348.7a1.327,1.327,0,0,1-.6,1.04l-1.143.661c-.325.184-.59.032-.59-.347v-1.083A1.305,1.305,0,0,1,263.36,347.935Z" transform="translate(-170.715 -248.461)" fill="#d9a171"/>
          <path id="Trazado_107270" data-name="Trazado 107270" d="M263.36,347.935l1.143-.661c.33-.184.6-.033.6.347V348.7a1.327,1.327,0,0,1-.6,1.04l-1.143.661c-.325.184-.59.032-.59-.347v-1.083A1.305,1.305,0,0,1,263.36,347.935Z" transform="translate(-170.715 -248.461)" fill="#344154" opacity="0.15"/>
          <path id="Trazado_107271" data-name="Trazado 107271" d="M263.374,357.032l1.143-.661c.33-.19.6-.033.6.341V357.8a1.316,1.316,0,0,1-.579,1.045l-1.143.661c-.325.19-.59.038-.59-.341v-1.083a1.311,1.311,0,0,1,.574-1.045Z" transform="translate(-170.729 -252.63)" fill="#d9a171"/>
          <path id="Trazado_107272" data-name="Trazado 107272" d="M263.374,357.032l1.143-.661c.33-.19.6-.033.6.341V357.8a1.316,1.316,0,0,1-.579,1.045l-1.143.661c-.325.19-.59.038-.59-.341v-1.083a1.311,1.311,0,0,1,.574-1.045Z" transform="translate(-170.729 -252.63)" fill="#6595bf" stroke="#5e6178" stroke-miterlimit="10" stroke-width="0" opacity="0.5"/>
          <path id="Trazado_107273" data-name="Trazado 107273" d="M268.9,327.807a.374.374,0,0,1-.33-.2.39.39,0,0,1,.141-.542l3.477-2a.39.39,0,0,1,.514.195.4.4,0,0,1-.125.477l-3.482,2.009A.4.4,0,0,1,268.9,327.807Z" transform="translate(-173.349 -238.298)" fill="#344154" opacity="0.4"/>
          <path id="Trazado_107274" data-name="Trazado 107274" d="M268.808,336.966a.384.384,0,0,1-.195-.72l3.477-2.009a.392.392,0,0,1,.46.634l-.07.038-3.482,2A.335.335,0,0,1,268.808,336.966Z" transform="translate(-173.304 -242.485)" fill="#344154" opacity="0.4"/>
          <path id="Trazado_107275" data-name="Trazado 107275" d="M268.674,346.173a.39.39,0,0,1-.385-.4.406.406,0,0,1,.19-.325l3.482-2a.384.384,0,0,1,.542.135.4.4,0,0,1-.141.542l-3.482,2.009A.434.434,0,0,1,268.674,346.173Z" transform="translate(-173.246 -246.715)" fill="#344154" opacity="0.4"/>
          <path id="Trazado_107276" data-name="Trazado 107276" d="M268.606,355.36a.374.374,0,0,1-.336-.19.384.384,0,0,1,.141-.542l3.477-1.988a.385.385,0,0,1,.542.1.39.39,0,0,1-.108.542l-.049.027-3.482,2.009a.331.331,0,0,1-.184.038Z" transform="translate(-173.21 -250.925)" fill="#344154" opacity="0.4"/>
          <path id="Trazado_107277" data-name="Trazado 107277" d="M233.172,381.419a.374.374,0,0,1-.33-.2.39.39,0,0,1,.141-.542l16.3-9.407a.385.385,0,0,1,.542.141.4.4,0,0,1-.146.542l-16.317,9.434a.379.379,0,0,1-.19.033Z" transform="translate(-156.969 -259.47)" fill="#344154" opacity="0.4"/>
          <path id="Trazado_107278" data-name="Trazado 107278" d="M234.13,385.887a.379.379,0,0,1-.39-.374.368.368,0,0,1,.2-.347l16.3-9.407a.384.384,0,0,1,.542.141.39.39,0,0,1-.141.542l-16.3,9.4A.373.373,0,0,1,234.13,385.887Z" transform="translate(-157.406 -261.529)" fill="#344154" opacity="0.4"/>
          <path id="Trazado_107279" data-name="Trazado 107279" d="M235.525,390.184a.4.4,0,0,1-.385-.4.406.406,0,0,1,.19-.33l16.3-9.4a.385.385,0,0,1,.542.087.379.379,0,0,1-.087.542l-.065.043-16.3,9.4a.405.405,0,0,1-.195.054Z" transform="translate(-158.049 -263.491)" fill="#344154" opacity="0.4"/>
          <path id="Trazado_107280" data-name="Trazado 107280" d="M280.4,354.195a.379.379,0,0,1-.336-.195.384.384,0,0,1,.141-.514l16.3-9.407a.38.38,0,0,1,.374.661l-16.29,9.4a.363.363,0,0,1-.184.054Z" transform="translate(-178.62 -247.009)" fill="#344154" opacity="0.4"/>
          <path id="Trazado_107281" data-name="Trazado 107281" d="M281.361,358.645a.379.379,0,0,1-.195-.709l16.3-9.407a.38.38,0,0,1,.374.661L281.529,358.6A.363.363,0,0,1,281.361,358.645Z" transform="translate(-179.06 -249.049)" fill="#344154" opacity="0.4"/>
          <path id="Trazado_107282" data-name="Trazado 107282" d="M282.756,362.952a.379.379,0,0,1-.336-.195.39.39,0,0,1,.135-.514l16.3-9.407a.391.391,0,0,1,.39.677L282.93,362.9a.406.406,0,0,1-.173.054Z" transform="translate(-179.703 -251.022)" fill="#344154" opacity="0.4"/>
          <path id="Trazado_107283" data-name="Trazado 107283" d="M242.926,385.194l37.151-21.451a2.865,2.865,0,0,1,3.721.672,2.162,2.162,0,0,1-.839,3.249L245.8,389.147a3.1,3.1,0,0,1-3.9-.514A2.446,2.446,0,0,1,242.926,385.194Z" transform="translate(-160.976 -255.858)" fill="#d9a171"/>
          <path id="Trazado_107284" data-name="Trazado 107284" d="M255.094,414.458a.4.4,0,0,1-.341-.19.39.39,0,0,1,.146-.542l16.29-9.423a.4.4,0,0,1,.542.141.39.39,0,0,1-.141.542L255.273,414.4a.357.357,0,0,1-.179.054Z" transform="translate(-167.015 -274.616)" fill="#344154" opacity="0.4"/>
          <path id="Trazado_107285" data-name="Trazado 107285" d="M251.346,411.837a.39.39,0,0,1-.2-.72l16.3-9.407a.385.385,0,0,1,.379.666l-16.3,9.412A.4.4,0,0,1,251.346,411.837Z" transform="translate(-165.302 -273.435)" fill="#344154" opacity="0.4"/>
          <path id="Trazado_107286" data-name="Trazado 107286" d="M259.086,416.821a.384.384,0,0,1-.195-.715l16.3-9.412a.4.4,0,0,1,.542.141.385.385,0,0,1-.146.542l-16.29,9.407A.46.46,0,0,1,259.086,416.821Z" transform="translate(-168.851 -275.712)" fill="#344154" opacity="0.4"/>
          <path id="Trazado_107287" data-name="Trazado 107287" d="M298.05,389.7a.379.379,0,0,1-.39-.374.368.368,0,0,1,.184-.336l16.29-9.407a.39.39,0,0,1,.542.141.4.4,0,0,1-.141.542l-16.29,9.4a.373.373,0,0,1-.195.038Z" transform="translate(-186.71 -263.282)" fill="#344154" opacity="0.4"/>
          <path id="Trazado_107288" data-name="Trazado 107288" d="M294.294,387.052a.39.39,0,0,1-.385-.4.4.4,0,0,1,.19-.325l16.3-9.38a.39.39,0,0,1,.542.141.4.4,0,0,1-.146.542L294.5,387A.449.449,0,0,1,294.294,387.052Z" transform="translate(-184.991 -262.076)" fill="#344154" opacity="0.4"/>
          <path id="Trazado_107289" data-name="Trazado 107289" d="M302.011,392.044a.379.379,0,0,1-.195-.709l16.3-9.391a.39.39,0,0,1,.542.108.385.385,0,0,1-.108.542l-.049.032-16.29,9.364A.368.368,0,0,1,302.011,392.044Z" transform="translate(-188.527 -264.36)" fill="#344154" opacity="0.4"/>
          <path id="Trazado_107290" data-name="Trazado 107290" d="M288.859,421.081c-3.536-2.042-9.531-1.9-13.387.33s-4.116,5.686-.574,7.728,9.526,1.9,13.382-.33S292.384,423.128,288.859,421.081Zm-2.41,6.672c-2.751,1.587-7.04,1.7-9.559.238s-2.345-3.937.412-5.524,7.04-1.7,9.564-.233S289.205,426.161,286.449,427.753Z" transform="translate(-175.131 -281.672)" fill="#d9a171"/>
          <path id="Trazado_107291" data-name="Trazado 107291" d="M283.731,426.168a6.291,6.291,0,0,1,5.741-.146c1.516.894,1.4,2.356-.249,3.314a6.23,6.23,0,0,1-5.719.141C282.009,428.578,282.074,427.116,283.731,426.168Z" transform="translate(-179.73 -284.311)" fill="#d9a171"/>
          <path id="Trazado_107292" data-name="Trazado 107292" d="M283.731,426.168a6.291,6.291,0,0,1,5.741-.146c1.516.894,1.4,2.356-.249,3.314a6.23,6.23,0,0,1-5.719.141C282.009,428.578,282.074,427.116,283.731,426.168Z" transform="translate(-179.73 -284.311)" fill="#344154" opacity="0.5"/>
          <path id="Trazado_107293" data-name="Trazado 107293" d="M288.859,421.081c-3.536-2.042-9.531-1.9-13.387.33s-4.116,5.686-.574,7.728,9.526,1.9,13.382-.33S292.384,423.128,288.859,421.081Zm-2.41,6.672c-2.751,1.587-7.04,1.7-9.559.238s-2.345-3.937.412-5.524,7.04-1.7,9.564-.233S289.205,426.161,286.449,427.753Z" transform="translate(-175.131 -281.672)" fill="#344154" opacity="0.15"/>
          <path id="Trazado_107294" data-name="Trazado 107294" d="M284.66,420.061l.807,1.441a11.574,11.574,0,0,1,4.744-.087l1.083-1.478A16.047,16.047,0,0,0,284.66,420.061Z" transform="translate(-180.751 -281.676)" fill="#d9a171"/>
          <path id="Trazado_107295" data-name="Trazado 107295" d="M284.66,420.061l.807,1.441a11.574,11.574,0,0,1,4.744-.087l1.083-1.478A16.047,16.047,0,0,0,284.66,420.061Z" transform="translate(-180.751 -281.676)" fill="#6595bf" stroke="#5e6178" stroke-miterlimit="10" stroke-width="0" opacity="0.7"/>
          <path id="Trazado_107296" data-name="Trazado 107296" d="M290.482,413.665h0a.39.39,0,0,1-.363-.412l.108-1.776,7.159-4.154a.4.4,0,0,1,.542.141.385.385,0,0,1-.146.542l-6.824,3.953-.087,1.359a.379.379,0,0,1-.39.347Z" transform="translate(-183.253 -276)" fill="#344154" opacity="0.4"/>
          <path id="Trazado_107297" data-name="Trazado 107297" d="M327.526,398.783c-3.536-2.042-9.526-1.89-13.387.33s-4.116,5.686-.579,7.728,9.537,1.9,13.393-.325S331.068,400.819,327.526,398.783Zm-2.415,6.667c-2.751,1.587-7.04,1.7-9.564.238s-2.34-3.932.412-5.524,7.04-1.7,9.564-.233S327.867,403.857,325.111,405.449Z" transform="translate(-192.856 -271.451)" fill="#d9a171"/>
          <path id="Trazado_107298" data-name="Trazado 107298" d="M322.393,403.858a6.247,6.247,0,0,1,5.719-.146c1.5.894,1.408,2.361-.249,3.314a6.247,6.247,0,0,1-5.719.141C320.649,406.268,320.741,404.833,322.393,403.858Z" transform="translate(-197.449 -274.084)" fill="#d9a171"/>
          <path id="Trazado_107299" data-name="Trazado 107299" d="M322.393,403.858a6.247,6.247,0,0,1,5.719-.146c1.5.894,1.408,2.361-.249,3.314a6.247,6.247,0,0,1-5.719.141C320.649,406.268,320.741,404.833,322.393,403.858Z" transform="translate(-197.449 -274.084)" fill="#344154" opacity="0.5"/>
          <path id="Trazado_107300" data-name="Trazado 107300" d="M327.526,398.783c-3.536-2.042-9.526-1.89-13.387.33s-4.116,5.686-.579,7.728,9.537,1.9,13.393-.325S331.068,400.819,327.526,398.783Zm-2.415,6.667c-2.751,1.587-7.04,1.7-9.564.238s-2.34-3.932.412-5.524,7.04-1.7,9.564-.233S327.867,403.857,325.111,405.449Z" transform="translate(-192.856 -271.451)" fill="#344154" opacity="0.15"/>
          <path id="Trazado_107301" data-name="Trazado 107301" d="M331.782,398.785c-2.984-1.728-7.723-1.879-11.432-.542l1.278,1.305a10.521,10.521,0,0,1,8.183.4,4.609,4.609,0,0,1,.969.742l2.383-.85A6.187,6.187,0,0,0,331.782,398.785Z" transform="translate(-197.112 -271.453)" fill="#d9a171"/>
          <path id="Trazado_107302" data-name="Trazado 107302" d="M331.782,398.785c-2.984-1.728-7.723-1.879-11.432-.542l1.278,1.305a10.521,10.521,0,0,1,8.183.4,4.609,4.609,0,0,1,.969.742l2.383-.85A6.187,6.187,0,0,0,331.782,398.785Z" transform="translate(-197.112 -271.453)" fill="#6595bf" stroke="#5e6178" stroke-miterlimit="10" stroke-width="0" opacity="0.7"/>
          <path id="Trazado_107303" data-name="Trazado 107303" d="M329.262,391.309h0a.39.39,0,0,1-.363-.412l.108-1.782,7.138-4.154a.39.39,0,0,1,.542.195.4.4,0,0,1-.125.477l-6.818,3.916-.081,1.37a.39.39,0,0,1-.4.39Z" transform="translate(-201.031 -265.753)" fill="#344154" opacity="0.4"/>
          <path id="Trazado_107304" data-name="Trazado 107304" d="M294.57,425.965a.39.39,0,0,1-.2-.731L333.9,402.423a.39.39,0,0,1,.542.146.379.379,0,0,1-.141.542l-39.567,22.816A.5.5,0,0,1,294.57,425.965Z" transform="translate(-185.109 -273.754)" fill="#344154" opacity="0.4"/>
          <path id="Trazado_107305" data-name="Trazado 107305" d="M298.494,428.2a.39.39,0,0,1-.19-.72l39.566-22.832a.4.4,0,0,1,.542.087.39.39,0,0,1-.087.542.308.308,0,0,1-.07.043l-39.566,22.832A.422.422,0,0,1,298.494,428.2Z" transform="translate(-186.922 -274.767)" fill="#344154" opacity="0.4"/>
          <path id="Trazado_107306" data-name="Trazado 107306" d="M302.428,430.486a.406.406,0,0,1-.336-.2.39.39,0,0,1,.141-.542l39.588-22.789a.4.4,0,0,1,.542.146.385.385,0,0,1-.146.542L302.65,430.48a.466.466,0,0,1-.222.005Z" transform="translate(-188.716 -275.832)" fill="#344154" opacity="0.4"/>
        </g>
      </g>
    </g>
  </g>
</svg>
