<svg xmlns="http://www.w3.org/2000/svg" xmlns:xlink="http://www.w3.org/1999/xlink" width="459.14" height="459.14" viewBox="0 0 459.14 459.14">
  <defs>
    <clipPath id="clip-path">
      <path id="Trazado_110596" data-name="Trazado 110596" d="M333.67,278.18a2,2,0,0,1-.46.76c-3.27,3.1-17.25,6.55-29.27,9-9.94,2.07-18.5,3.47-18.5,3.47s-6.59-54.76-6.59-60.52S268.22,132,268.22,132l25.47-1.1,33.79-1.47s.2,2.49.54,6.84C330.25,164,337.92,267.25,333.67,278.18Z" fill="none"/>
    </clipPath>
    <clipPath id="clip-path-2">
      <path id="Trazado_110597" data-name="Trazado 110597" d="M317.93,117.69l67.85,17.89S361.93,208,357.09,216.94L349,280s-43.34-1.91-63.28-7.93c0,0,12.61-65.71,13.28-74.47S317.93,117.69,317.93,117.69Z" fill="none"/>
    </clipPath>
  </defs>
  <g id="Capa_2" data-name="Capa 2" transform="translate(-26.16 -21.28)">
    <g id="Grupo_56547" data-name="Grupo 56547">
      <rect id="Rectángulo_5524" data-name="Rectángulo 5524" width="459.14" height="459.14" transform="translate(26.16 21.28)" fill="rgba(174,211,242,0)"/>
      <g id="Grupo_56546" data-name="Grupo 56546">
        <g id="freepik--background-simple--inject-80">
          <path id="Trazado_103718" data-name="Trazado 103718" d="M450.08,342c8.67-76.45-33.3-178.05-76.83-220C294.7,46.23,229.43,60.87,178.68,88s-58,117.71-93.07,158.68-55,96.1-1.81,151,96.08,27,151.68,23.5,129.35,23.92,169.2.1C432.54,404.63,446.25,375.8,450.08,342Z" fill="#aed3f2"/>
        </g>
        <g id="Grupo_56545" data-name="Grupo 56545">
          <circle id="Elipse_4151" data-name="Elipse 4151" cx="170.43" cy="170.43" r="170.43" transform="translate(94.56 78.78)" fill="#aed3f2" stroke="#aed3f2" stroke-miterlimit="10" stroke-width="5"/>
          <g id="freepik--hand-1--inject-2">
            <path id="Trazado_103719" data-name="Trazado 103719" d="M215.12,214.86s-21.23-23.38-22.7-24.81-2.56-26.37-6.59-37.35-6-75.42-6-75.42-3.84-4.75-14.67-2.19-21.44-2.2-33.52,4.76S143,186.34,143,186.34l23.77,75.76Z" opacity="0.2"/>
            <path id="Trazado_103720" data-name="Trazado 103720" d="M229.7,215s-9.51,60.77-19.44,68.82c-5.73,4.63-14.66,6.76-22.58,6.48-5.73-.2-11-1.65-14-4.26-7.32-6.23-17.58-9.53-22.69-13.55s-5.12-18.31-8.41-30.39-8.06-12.45-9.16-24.52-5.49-49.05-13.45-59.31S111.8,140,108.5,129.55,81.11,81.34,81.11,81.34l58.74-12s5.78,23.91,12,43.41c2.93,9.25,6,17.52,8.49,21.76a181.688,181.688,0,0,1,12.61,25.62c6.65,7,10.29,22.38,11.39,35.88h0L200,204.76C212.13,208.06,229.7,215,229.7,215Z" fill="#ffbf9d"/>
            <path id="Trazado_103721" data-name="Trazado 103721" d="M229.7,215s-9.51,60.77-19.44,68.82c-5.73,4.63-14.66,6.76-22.58,6.48-18.78-4.63-23.83-15.1-26.38-17.64-3.39-3.37-7.84-23.95-5.39-35.93s.68-16.41-1.34-22.25c-4.47-13,9.16-19.94,10.56-24.84s.93-32.34-5.2-41.26c-3.26-4.74-11.65-29.21-8.11-35.67,2.93,9.25,6,17.53,8.49,21.76a182.41,182.41,0,0,1,12.62,25.63c6.64,7,10.28,22.38,11.38,35.88h0l15.69,8.8C212.13,208.06,229.7,215,229.7,215Z" fill="#d9a171" opacity="0.4"/>
            <path id="Trazado_103722" data-name="Trazado 103722" d="M158,210.76s-3.31,3.89-6.23,3.89" fill="none" stroke="#263238" stroke-linecap="round" stroke-linejoin="round" stroke-width="1"/>
            <path id="Trazado_103723" data-name="Trazado 103723" d="M165.17,223.93s-3.56,7.57-9.25,9.25" fill="none" stroke="#263238" stroke-linecap="round" stroke-linejoin="round" stroke-width="1"/>
            <path id="Trazado_103724" data-name="Trazado 103724" d="M158.84,268.29s8.06-3.48,9.34-9.34" fill="none" stroke="#263238" stroke-linecap="round" stroke-linejoin="round" stroke-width="1"/>
            <path id="Trazado_103725" data-name="Trazado 103725" d="M200.05,204.77a9.67,9.67,0,0,0-2,4.63" fill="none" stroke="#263238" stroke-linecap="round" stroke-linejoin="round" stroke-width="1"/>
            <path id="Trazado_103726" data-name="Trazado 103726" d="M139.89,69.32s12.57,52,20.45,65.2A181.162,181.162,0,0,1,173,160.14c6.65,7,10.28,22.39,11.39,35.89h0l15.73,8.77c12.07,3.3,29.61,10.26,29.61,10.26s-9.51,60.77-19.44,68.82-29.19,8.38-36.6,2.16S156.06,276.52,151,272.5s-5.12-18.31-8.41-30.4-8.06-12.44-9.16-24.52-5.49-49-13.45-59.31-8.14-18.3-11.44-28.74S81.11,81.35,81.11,81.35" fill="none" stroke="#263238" stroke-linecap="round" stroke-linejoin="round" stroke-width="1"/>
            <path id="Trazado_103727" data-name="Trazado 103727" d="M252,211.08l-9,152.46-88.18-2.89,7-116.83,2.16-36.27,38.42,1.55Z" fill="none" stroke="#263238" stroke-linecap="round" stroke-linejoin="round" stroke-width="1"/>
            <g id="Grupo_56538" data-name="Grupo 56538">
              <g id="Grupo_56516" data-name="Grupo 56516">
                <g id="Grupo_56513" data-name="Grupo 56513">
                  <path id="Trazado_103728" data-name="Trazado 103728" d="M140.48,212.92l22,228.92,170.45-16L308.39,197Z" fill="#fff"/>
                </g>
                <g id="Grupo_56515" data-name="Grupo 56515">
                  <g id="Grupo_56514" data-name="Grupo 56514">
                    <path id="Trazado_103729" data-name="Trazado 103729" d="M140.48,212.92l167.89-16.06h.16v.16c6.91,64.22,15.43,143.32,24.62,228.75v.22h-.21l-1.21.11L162.53,442h-.18v-.19c-12.94-135.55-21.69-227.27-21.85-228.95.17,1.67,9.07,93.38,22.23,228.91l-.21-.17,169.23-16,1.21-.11-.19.23c-9.16-85.44-17.65-164.54-24.54-228.76l.19.15Z" fill="#344154"/>
                  </g>
                </g>
              </g>
              <g id="Grupo_56525" data-name="Grupo 56525">
                <g id="Grupo_56518" data-name="Grupo 56518">
                  <g id="Grupo_56517" data-name="Grupo 56517">
                    <path id="Trazado_103730" data-name="Trazado 103730" d="M271.2,386.54a25.13,25.13,0,1,1,25.07,25.18,25.13,25.13,0,0,1-25.07-25.18Zm49.79.12a24.67,24.67,0,1,0-24.72,24.6h0A24.69,24.69,0,0,0,321,386.66Z" fill="#839eb6"/>
                  </g>
                </g>
                <g id="Grupo_56520" data-name="Grupo 56520">
                  <g id="Grupo_56519" data-name="Grupo 56519">
                    <path id="Trazado_103731" data-name="Trazado 103731" d="M274.07,386.55a21.91,21.91,0,1,1,21.86,22h0a21.93,21.93,0,0,1-21.86-22Zm40.59.09a18.68,18.68,0,1,0-18.73,18.64A18.68,18.68,0,0,0,314.66,386.64Z" fill="#839eb6"/>
                  </g>
                </g>
                <g id="Grupo_56522" data-name="Grupo 56522">
                  <g id="Grupo_56521" data-name="Grupo 56521">
                    <path id="Trazado_103732" data-name="Trazado 103732" d="M279.46,386.87a16.08,16.08,0,0,1,1.73-7.27l2.89,1.46A13,13,0,0,0,302.43,398l1.69,2.76a16.21,16.21,0,0,1-24.66-13.88Z" fill="#839eb6"/>
                  </g>
                </g>
                <g id="Grupo_56524" data-name="Grupo 56524">
                  <g id="Grupo_56523" data-name="Grupo 56523">
                    <path id="Trazado_103733" data-name="Trazado 103733" d="M288.19,372.52a16.21,16.21,0,0,1,21.2,23l-2.74-1.72a13,13,0,0,0-17-18.43Z" fill="#839eb6"/>
                  </g>
                </g>
              </g>
              <g id="Grupo_56527" data-name="Grupo 56527">
                <g id="Grupo_56526" data-name="Grupo 56526">
                  <path id="Trazado_103734" data-name="Trazado 103734" d="M226.36,254.13c0,.12-14.83,1.61-33.15,3.34s-33.18,3-33.19,2.92,14.83-1.6,33.16-3.34S226.35,254,226.36,254.13Z" fill="#344154"/>
                </g>
              </g>
              <g id="Grupo_56529" data-name="Grupo 56529">
                <g id="Grupo_56528" data-name="Grupo 56528">
                  <path id="Trazado_103735" data-name="Trazado 103735" d="M229.46,406.93c0,.11-11.65,1.2-26.05,2.42s-26.07,2.12-26.08,2,11.65-1.19,26-2.42S229.45,406.81,229.46,406.93Z" fill="#d9a171"/>
                </g>
              </g>
              <g id="Grupo_56531" data-name="Grupo 56531">
                <g id="Grupo_56530" data-name="Grupo 56530">
                  <path id="Trazado_103736" data-name="Trazado 103736" d="M207.06,415.83c0,.12-6.53.77-14.61,1.46s-14.64,1.14-14.65,1,6.53-.77,14.61-1.45S207.05,415.72,207.06,415.83Z" fill="#d9a171"/>
                </g>
              </g>
              <g id="Grupo_56533" data-name="Grupo 56533">
                <g id="Grupo_56532" data-name="Grupo 56532">
                  <path id="Trazado_103737" data-name="Trazado 103737" d="M205.27,350.19c0,.11-7.69,1-17.19,1.9s-17.23,1.6-17.24,1.49,7.69-1,17.19-1.91S205.25,350.07,205.27,350.19Z" fill="#d9a171"/>
                </g>
              </g>
              <g id="Grupo_56534" data-name="Grupo 56534" opacity="0.3">
                <path id="Trazado_103738" data-name="Trazado 103738" d="M159,403.11l15.65-3,8.75-13.19-24.93,8.19Z" fill="#d9a171"/>
              </g>
              <g id="Grupo_56536" data-name="Grupo 56536">
                <g id="Grupo_56535" data-name="Grupo 56535">
                  <path id="Trazado_103739" data-name="Trazado 103739" d="M248.86,387.67l.14.05a2.172,2.172,0,0,1,.41.19,5.83,5.83,0,0,1,1.34,1.14,19.359,19.359,0,0,1,3.39,5.83,24.4,24.4,0,0,1,1.75,10.51,15.889,15.889,0,0,1-.57,3.21,21.32,21.32,0,0,1-5.74,9.24,22.519,22.519,0,0,1-6.91,4.52,19,19,0,0,1-8.81,1.38,19.33,19.33,0,0,1-15.48-11.05,15.79,15.79,0,0,1-1.4-5.12,12.08,12.08,0,0,1,.56-5.4,8.65,8.65,0,0,1,3.22-4.5,6.3,6.3,0,0,1,2.68-1,6.45,6.45,0,0,1,2.86.34,8.48,8.48,0,0,1,4.42,3.66,13.65,13.65,0,0,1,1.75,5.59A24.35,24.35,0,0,1,230.75,418a23.07,23.07,0,0,1-7.08,9.49A21.21,21.21,0,0,1,213,431.74,20,20,0,0,1,202.07,430a18.71,18.71,0,0,1-7.78-7.23,18.07,18.07,0,0,1-2.63-9.76,13.2,13.2,0,0,1,.94-4.81,9.39,9.39,0,0,1,2.75-3.86,5.73,5.73,0,0,1,4.37-1.3,6.57,6.57,0,0,1,3.85,2.15,8.23,8.23,0,0,1,1.93,3.78,10.66,10.66,0,0,1,0,4.06,21.08,21.08,0,0,1-2.87,6.93,33.111,33.111,0,0,1-4,5.35,37.146,37.146,0,0,1-4.28,3.94,35.645,35.645,0,0,1-4.08,2.71,31.242,31.242,0,0,1-6.18,2.73c-1.48.47-2.28.63-2.28.63l.57-.18a16.271,16.271,0,0,0,1.68-.53,32.25,32.25,0,0,0,6.13-2.79,34.13,34.13,0,0,0,8.27-6.67,33.34,33.34,0,0,0,4-5.33,20.55,20.55,0,0,0,2.8-6.84,10.1,10.1,0,0,0,0-3.95,7.8,7.8,0,0,0-1.86-3.62,6.19,6.19,0,0,0-3.66-2,5.3,5.3,0,0,0-4.1,1.22,9.14,9.14,0,0,0-2.64,3.73,12.73,12.73,0,0,0-1,4.64,17.65,17.65,0,0,0,2.6,9.55,18.24,18.24,0,0,0,7.62,7.07,19.5,19.5,0,0,0,10.78,1.7,20.79,20.79,0,0,0,10.44-4.2,22.57,22.57,0,0,0,7-9.32,24,24,0,0,0,1.7-11.52,13.29,13.29,0,0,0-1.7-5.41,8,8,0,0,0-4.19-3.49,6.2,6.2,0,0,0-2.7-.31,6,6,0,0,0-2.5.94,8.26,8.26,0,0,0-3.06,4.3,11.6,11.6,0,0,0-.55,5.23,15.19,15.19,0,0,0,1.37,5,19,19,0,0,0,15.15,10.87,18.6,18.6,0,0,0,8.66-1.34,22,22,0,0,0,6.82-4.44,21.17,21.17,0,0,0,5.71-9.1,15.9,15.9,0,0,0,.58-3.15A24.44,24.44,0,0,0,254,394.94a19.59,19.59,0,0,0-3.29-5.84,6,6,0,0,0-1.31-1.16C249.05,387.74,248.85,387.69,248.86,387.67Z" fill="#d9a171"/>
                </g>
              </g>
              <g id="Grupo_56537" data-name="Grupo 56537">
                <rect id="Rectángulo_5525" data-name="Rectángulo 5525" width="121.42" height="9.34" transform="translate(171.914 296.314) rotate(-5.51)" fill="#ffbf9d"/>
                <rect id="Rectángulo_5526" data-name="Rectángulo 5526" width="121.42" height="9.34" transform="translate(171.015 287.013) rotate(-5.51)" fill="#d9a171"/>
                <rect id="Rectángulo_5527" data-name="Rectángulo 5527" width="121.42" height="9.34" transform="translate(172.811 305.585) rotate(-5.51)" fill="#dbdbdb"/>
                <rect id="Rectángulo_5528" data-name="Rectángulo 5528" width="121.42" height="9.34" transform="translate(173.7 314.886) rotate(-5.51)" fill="#ffbf9d"/>
                <rect id="Rectángulo_5529" data-name="Rectángulo 5529" width="121.42" height="9.34" transform="translate(174.598 324.177) rotate(-5.51)" fill="#dbdbdb"/>
                <rect id="Rectángulo_5530" data-name="Rectángulo 5530" width="121.42" height="9.34" transform="translate(175.505 333.468) rotate(-5.51)" fill="#ffbf9d"/>
                <rect id="Rectángulo_5531" data-name="Rectángulo 5531" width="121.42" height="9.34" transform="translate(176.394 342.769) rotate(-5.51)" fill="#dbdbdb"/>
                <rect id="Rectángulo_5532" data-name="Rectángulo 5532" width="85.02" height="9.34" transform="translate(213.527 348.57) rotate(-5.51)" fill="#d9a171"/>
                <rect id="Rectángulo_5533" data-name="Rectángulo 5533" width="36.4" height="65.35" transform="translate(171.011 287.008) rotate(-5.51)" fill="#c7c7c7"/>
                <path id="Trazado_103740" data-name="Trazado 103740" d="M172.82,305.59l60.42-5.95,60.44-5.72-60.42,6Z" fill="#344154"/>
                <path id="Trazado_103741" data-name="Trazado 103741" d="M173.72,314.88l60.41-5.94,60.44-5.72-60.42,5.95Z" fill="#344154"/>
                <path id="Trazado_103742" data-name="Trazado 103742" d="M174.61,324.18l60.42-6,60.44-5.7-60.42,5.94Z" fill="#344154"/>
                <path id="Trazado_103743" data-name="Trazado 103743" d="M175.51,333.46l60.41-5.94,60.44-5.72L236,327.75Z" fill="#344154"/>
                <path id="Trazado_103744" data-name="Trazado 103744" d="M176.41,342.76l60.41-5.94,60.44-5.72-60.42,5.95Z" fill="#344154"/>
                <path id="Trazado_103745" data-name="Trazado 103745" d="M177.3,352.05l60.42-5.95,60.44-5.71-60.42,5.95Z" fill="#344154"/>
                <path id="Trazado_103746" data-name="Trazado 103746" d="M178,291c3.83-.56,7.69-.95,11.54-1.35s7.72-.74,11.61-.88c-3.85.57-7.7,1-11.56,1.35S181.82,290.85,178,291Z" fill="#344154"/>
                <path id="Trazado_103747" data-name="Trazado 103747" d="M178.85,300.32c2.89-.48,5.81-.77,8.72-1.08s5.84-.57,8.78-.61c-2.91.48-5.81.76-8.74,1.08S181.78,300.23,178.85,300.32Z" fill="#344154"/>
                <path id="Trazado_103748" data-name="Trazado 103748" d="M179.74,309.61c3.84-.57,7.7-.95,11.55-1.35s7.72-.74,11.6-.88c-3.84.57-7.69.95-11.55,1.35S183.61,309.43,179.74,309.61Z" fill="#344154"/>
                <path id="Trazado_103749" data-name="Trazado 103749" d="M180.64,318.9c3.15-.49,6.32-.82,9.5-1.15s6.35-.62,9.55-.69c-3.16.5-6.33.82-9.51,1.16S183.83,318.79,180.64,318.9Z" fill="#344154"/>
                <path id="Trazado_103750" data-name="Trazado 103750" d="M181.54,328.2c3.83-.57,7.69-1,11.54-1.36s7.72-.74,11.61-.88c-3.85.57-7.7,1-11.56,1.35S185.41,328,181.54,328.2Z" fill="#344154"/>
                <path id="Trazado_103751" data-name="Trazado 103751" d="M182.43,337.49c3.84-.57,7.7-.95,11.55-1.35s7.72-.75,11.6-.88c-3.84.57-7.69.95-11.55,1.35S186.3,337.31,182.43,337.49Z" fill="#344154"/>
                <path id="Trazado_103752" data-name="Trazado 103752" d="M183.33,346.78c2.32-.41,4.68-.68,7-.92s4.7-.4,7-.44c-2.32.41-4.68.68-7,.91S185.69,346.74,183.33,346.78Z" fill="#344154"/>
                <path id="Trazado_103753" data-name="Trazado 103753" d="M216.17,287.31c2.88-.46,5.78-.76,8.67-1.07s5.82-.56,8.73-.61c-2.88.48-5.78.77-8.68,1.07S219.11,287.25,216.17,287.31Z" fill="#344154"/>
                <path id="Trazado_103754" data-name="Trazado 103754" d="M217.07,296.63c2.88-.48,5.78-.77,8.67-1.07s5.81-.56,8.73-.62c-2.88.48-5.78.77-8.68,1.08S220,296.54,217.07,296.63Z" fill="#344154"/>
                <path id="Trazado_103755" data-name="Trazado 103755" d="M218,305.92c2.88-.47,5.78-.76,8.67-1.07s5.81-.56,8.73-.61c-2.88.48-5.78.77-8.68,1.07S220.9,305.83,218,305.92Z" fill="#344154"/>
                <path id="Trazado_103756" data-name="Trazado 103756" d="M218.87,315.21c2.87-.47,5.78-.76,8.67-1.07s5.81-.56,8.72-.61c-2.88.47-5.78.76-8.68,1.07S221.8,315.13,218.87,315.21Z" fill="#344154"/>
                <path id="Trazado_103757" data-name="Trazado 103757" d="M219.76,324.51c2.88-.48,5.78-.77,8.68-1.08s5.81-.56,8.72-.61c-2.88.48-5.78.77-8.68,1.07S222.7,324.42,219.76,324.51Z" fill="#344154"/>
                <path id="Trazado_103758" data-name="Trazado 103758" d="M220.66,333.8c2.88-.47,5.78-.76,8.67-1.07s5.82-.56,8.73-.61c-2.88.48-5.78.76-8.69,1.07S223.59,333.71,220.66,333.8Z" fill="#344154"/>
                <path id="Trazado_103759" data-name="Trazado 103759" d="M221.56,343.09c2.87-.47,5.78-.77,8.67-1.07s5.81-.57,8.72-.62c-2.87.48-5.78.77-8.68,1.08S224.49,343,221.56,343.09Z" fill="#344154"/>
                <path id="Trazado_103760" data-name="Trazado 103760" d="M241.32,284.89c2.88-.47,5.78-.76,8.68-1.07s5.8-.56,8.72-.6c-2.87.47-5.78.76-8.67,1.07S244.24,284.82,241.32,284.89Z" fill="#344154"/>
                <path id="Trazado_103761" data-name="Trazado 103761" d="M252.67,340.09a16.5,16.5,0,0,1,5.55-.54,16.759,16.759,0,0,1-5.55.54Z" fill="#344154"/>
                <path id="Trazado_103762" data-name="Trazado 103762" d="M251.77,330.81a16.559,16.559,0,0,1,5.56-.54A16.82,16.82,0,0,1,251.77,330.81Z" fill="#344154"/>
                <path id="Trazado_103763" data-name="Trazado 103763" d="M250.88,321.5a17.3,17.3,0,0,1,5.59-.54,16.561,16.561,0,0,1-5.56.54Z" fill="#344154"/>
                <path id="Trazado_103764" data-name="Trazado 103764" d="M250,312.21a16.761,16.761,0,0,1,5.55-.54,16.5,16.5,0,0,1-5.55.54Z" fill="#344154"/>
                <path id="Trazado_103765" data-name="Trazado 103765" d="M249.08,302.92a16.551,16.551,0,0,1,5.56-.53,16.55,16.55,0,0,1-5.56.53Z" fill="#344154"/>
                <path id="Trazado_103766" data-name="Trazado 103766" d="M248.18,293.63a15,15,0,0,1,2.8-.51,14.548,14.548,0,0,1,2.8,0,15.221,15.221,0,0,1-2.76.5,15.843,15.843,0,0,1-2.84.01Z" fill="#344154"/>
                <path id="Trazado_103767" data-name="Trazado 103767" d="M255.17,349.23a47.593,47.593,0,0,1,4.89-.71,45.19,45.19,0,0,1,4.93-.24,51.309,51.309,0,0,1-9.82.95Z" fill="#344154"/>
                <path id="Trazado_103768" data-name="Trazado 103768" d="M266.46,282.46c2.89-.47,5.78-.76,8.68-1.07s5.8-.56,8.72-.61c-2.87.47-5.78.76-8.67,1.07S269.39,282.4,266.46,282.46Z" fill="#344154"/>
                <path id="Trazado_103769" data-name="Trazado 103769" d="M267.36,291.78c2.88-.48,5.78-.77,8.68-1.07s5.8-.56,8.72-.61c-2.88.47-5.78.76-8.68,1.07S270.28,291.69,267.36,291.78Z" fill="#344154"/>
                <path id="Trazado_103770" data-name="Trazado 103770" d="M268.26,301.07c2.88-.48,5.78-.76,8.68-1.07s5.8-.56,8.72-.61c-2.88.47-5.78.76-8.67,1.07S271.18,301,268.26,301.07Z" fill="#344154"/>
                <path id="Trazado_103771" data-name="Trazado 103771" d="M269.15,310.36c2.89-.47,5.78-.77,8.68-1.07s5.8-.56,8.73-.62c-2.88.48-5.78.77-8.68,1.08S272.07,310.28,269.15,310.36Z" fill="#344154"/>
                <path id="Trazado_103772" data-name="Trazado 103772" d="M270.05,319.65c2.88-.47,5.78-.76,8.68-1.07s5.8-.56,8.72-.61c-2.87.48-5.77.77-8.67,1.07S273,319.57,270.05,319.65Z" fill="#344154"/>
                <path id="Trazado_103773" data-name="Trazado 103773" d="M271,329c2.88-.48,5.78-.77,8.68-1.07s5.8-.56,8.72-.61c-2.87.47-5.78.76-8.67,1.07S273.87,328.86,271,329Z" fill="#344154"/>
                <path id="Trazado_103774" data-name="Trazado 103774" d="M271.84,338.24c2.89-.47,5.78-.77,8.68-1.08s5.8-.55,8.73-.6c-2.88.48-5.78.77-8.67,1.07S274.77,338.15,271.84,338.24Z" fill="#344154"/>
                <path id="Trazado_103775" data-name="Trazado 103775" d="M272.74,347.53c2.89-.48,5.78-.76,8.68-1.07s5.8-.56,8.72-.6c-2.87.47-5.78.76-8.67,1.07S275.67,347.45,272.74,347.53Z" fill="#344154"/>
                <path id="Trazado_103776" data-name="Trazado 103776" d="M169.44,270.61c3.32-.47,6.65-.86,10-1.24s6.67-.64,10-1,6.66-.64,10-.89,6.67-.52,10-.69c-3.33.47-6.65.86-10,1.24s-6.67.64-10,1-6.68.64-10,.89S172.79,270.43,169.44,270.61Z" fill="#344154"/>
                <path id="Trazado_103777" data-name="Trazado 103777" d="M169.82,274.57c2.08-.34,4.17-.61,6.25-.88s4.18-.4,6.27-.68,4.19-.4,6.28-.53,4.19-.27,6.3-.33c-2.08.35-4.16.61-6.25.87s-4.18.46-6.26.69-4.18.41-6.29.53S171.92,274.51,169.82,274.57Z" fill="#344154"/>
                <path id="Trazado_103778" data-name="Trazado 103778" d="M170.21,278.52c2.9-.42,5.79-.76,8.7-1.1s5.82-.61,8.73-.93,5.82-.56,8.74-.76,5.84-.44,8.75-.58c-2.89.43-5.79.78-8.7,1.12s-5.82.61-8.72.93-5.82.56-8.75.76S173.13,278.39,170.21,278.52Z" fill="#344154"/>
                <path id="Trazado_103779" data-name="Trazado 103779" d="M178.89,368.52c2.13-.35,4.26-.63,6.4-.89s4.28-.47,6.41-.7,4.28-.42,6.43-.54,4.29-.29,6.45-.35c-2.13.35-4.27.63-6.39.9s-4.29.45-6.43.69-4.28.41-6.43.54S181.05,368.5,178.89,368.52Z" fill="#344154"/>
                <path id="Trazado_103780" data-name="Trazado 103780" d="M179.27,372.46c2.46-.39,4.93-.69,7.4-1s4.94-.48,7.42-.8,4.94-.48,7.43-.63,5-.36,7.45-.44c-2.46.38-4.93.69-7.4,1s-4.95.53-7.41.8-5,.47-7.44.64S181.79,372.38,179.27,372.46Z" fill="#344154"/>
              </g>
            </g>
            <path id="Trazado_103781" data-name="Trazado 103781" d="M197.49,265.35a8.72,8.72,0,0,1-7.91.12,11.36,11.36,0,0,1-4.91-5.05c-3.66-6.59-13.55-21.6-15.37-25.91s-5.86-16.51-9.89-21.63a43.66,43.66,0,0,1-6.22-12.82l-1.46-74.68A113.157,113.157,0,0,0,160,148.44a34.59,34.59,0,0,1,13,11.71,21.569,21.569,0,0,1,2.52,3.27c6,9.25,8.88,25.91,9.19,38.87.37,14.65,5.12,21.29,12.81,34.05S202.48,262.51,197.49,265.35Z" fill="#ffbf9d"/>
            <path id="Trazado_103782" data-name="Trazado 103782" d="M197.49,265.35a8.91,8.91,0,0,1-7.91.12c4.2-1.15,9.72-3.31,8.45-6.48-2-5.07-7.8,2.45-10.73,0s-13.55-16.52-6.8-22.71,4.62-16.57,0-19.5-1.62-9.89-.16-20.86c.92-6.63-2.25-21.66-4.86-32.51,6,9.26,8.88,25.92,9.19,38.88.37,14.65,5.12,21.28,12.81,34S202.48,262.68,197.49,265.35Z" fill="#d9a171" opacity="0.4"/>
            <path id="Trazado_103783" data-name="Trazado 103783" d="M151.73,125.33A113,113,0,0,0,160,148.39a34.7,34.7,0,0,1,13,11.72c7.69,8,11.35,27.46,11.71,42.1s5.13,21.28,12.82,34,5.55,26.07,0,29.1c-3.87,2.12-9.15,1.65-12.82-4.94s-13.55-21.6-15.37-25.91-5.86-16.51-9.88-21.62a43.93,43.93,0,0,1-6.23-12.82" fill="none" stroke="#263238" stroke-linecap="round" stroke-linejoin="round" stroke-width="1"/>
            <path id="Trazado_103784" data-name="Trazado 103784" d="M175.5,233.14s6-.53,8.72-2.77" fill="none" stroke="#263238" stroke-linecap="round" stroke-linejoin="round" stroke-width="1"/>
            <path id="Trazado_103785" data-name="Trazado 103785" d="M151,201.53s-1.16,2.78,4.95,5.55" fill="none" stroke="#263238" stroke-linecap="round" stroke-linejoin="round" stroke-width="1"/>
          </g>
          <g id="freepik--hand-2--inject-2">
            <path id="Trazado_103786" data-name="Trazado 103786" d="M313.22,259s-3.3,39.87,1.47,49.54,7.15,75.75,5,84.06c0,0,15.34,3.86,21.41-1.63s15.41-.21,30.79-5.56,4.28-124.06,4.28-124.06l.47-43.19L351.3,195.57Z" opacity="0.2"/>
            <path id="Trazado_103787" data-name="Trazado 103787" d="M333.67,278.18a2,2,0,0,1-.46.76c-3.27,3.1-17.25,6.55-29.27,9-9.94,2.07-18.5,3.47-18.5,3.47s-6.59-54.76-6.59-60.52S268.22,132,268.22,132l25.47-1.1,33.79-1.47s.2,2.49.54,6.84C330.25,164,337.92,267.25,333.67,278.18Z" fill="#d9a171"/>
            <g id="Grupo_56541" data-name="Grupo 56541">
              <g id="Grupo_60097" data-name="Grupo 60097" clip-path="url(#clip-path)">
                <g id="Grupo_56540" data-name="Grupo 56540">
                  <g id="Grupo_56539" data-name="Grupo 56539">
                    <path id="Trazado_103788" data-name="Trazado 103788" d="M333.67,278.18,304,284.26l-11.23,2.29c-3-3-5.36-3-5.36-3l-.92-8.37L285,261.43,272.2,140.85a13.67,13.67,0,0,0,4.14-6.11l17.12-.62L323.12,133l4.9,3.17C330.25,164,337.92,267.25,333.67,278.18Z" opacity="0.2"/>
                    <path id="Trazado_103789" data-name="Trazado 103789" d="M333.67,278.18,304,284.26l-11.23,2.29c-3-3-5.36-3-5.36-3l-.92-8.37L285,261.43,272.2,140.85a13.67,13.67,0,0,0,4.14-6.11l17.12-.62L323.12,133l4.9,3.17C330.25,164,337.92,267.25,333.67,278.18Z" fill="none" stroke="#263238" stroke-linecap="round" stroke-linejoin="round" stroke-width="1"/>
                    <path id="Trazado_103790" data-name="Trazado 103790" d="M288.93,242.68h9.92v3.1l-2.76,1-6.36.7Z" fill="#d9a171" stroke="#263238" stroke-linecap="round" stroke-linejoin="round" stroke-width="1"/>
                    <path id="Trazado_103791" data-name="Trazado 103791" d="M289.54,249.06l7.29-.25,1.87.89-.09,4.12-8.52.09Z" fill="#d9a171" stroke="#263238" stroke-linecap="round" stroke-linejoin="round" stroke-width="1"/>
                    <path id="Trazado_103792" data-name="Trazado 103792" d="M290.7,255.65,299,255l-.09,3.12-4,1.43-4.25-.24Z" fill="#d9a171" stroke="#263238" stroke-linecap="round" stroke-linejoin="round" stroke-width="1"/>
                    <path id="Trazado_103793" data-name="Trazado 103793" d="M291.2,260.9l6.74.34.61,1.73-1,1.89-6,.39-1-2.93Z" fill="#d9a171" stroke="#263238" stroke-linecap="round" stroke-linejoin="round" stroke-width="1"/>
                    <path id="Trazado_103794" data-name="Trazado 103794" d="M299,266.92l.92,2.7a2,2,0,0,1,0,1.85,1.54,1.54,0,0,1-1.41.5c-.52-.05-1-.22-1.55-.25-1.56-.07-3,1.22-4.53.92-.6-1.67-2.12-4.11-.06-4.86C292.71,267.67,299.18,267.54,299,266.92Z" fill="#d9a171" stroke="#263238" stroke-linecap="round" stroke-linejoin="round" stroke-width="1"/>
                    <path id="Trazado_103795" data-name="Trazado 103795" d="M298.93,274.51a15.4,15.4,0,0,1,.32,1.94,2.47,2.47,0,0,1-.69,2.32,2.61,2.61,0,0,1-1.28.34l-5.35.48a23.573,23.573,0,0,1-.05-3c.32-1.2.09-1.1,1.23-1.59C294.91,274.2,297.08,275.42,298.93,274.51Z" fill="#d9a171" stroke="#263238" stroke-linecap="round" stroke-linejoin="round" stroke-width="1"/>
                    <path id="Trazado_103796" data-name="Trazado 103796" d="M279.48,143.6s2,19.5,2.11,23.35" fill="none" stroke="#263238" stroke-linecap="round" stroke-linejoin="round" stroke-width="1"/>
                    <line id="Línea_279" data-name="Línea 279" x2="0.94" y2="10.74" transform="translate(283.83 143.81)" fill="none" stroke="#263238" stroke-linecap="round" stroke-linejoin="round" stroke-width="1"/>
                    <path id="Trazado_103797" data-name="Trazado 103797" d="M298.9,139.75l1.23,12.59,1.71.17-.56-12.64Z" fill="#d9a171" stroke="#263238" stroke-linecap="round" stroke-linejoin="round" stroke-width="1"/>
                    <path id="Trazado_103798" data-name="Trazado 103798" d="M333.67,278.18a2,2,0,0,1-.46.76c-3.27,3.1-17.25,6.55-29.27,9v-8.33l-17.48-4.47-2.63-.68,1.18-13,4.53-49.79,3.95-77.5.16-3.29,33.83-1.46s.2,2.49.54,6.84C330.25,164,337.92,267.25,333.67,278.18Z" opacity="0.2"/>
                  </g>
                </g>
              </g>
            </g>
            <path id="Trazado_103799" data-name="Trazado 103799" d="M333.67,278.18a2,2,0,0,1-.46.76c-3.27,3.1-17.25,6.55-29.27,9-9.94,2.07-18.5,3.47-18.5,3.47s-6.59-54.76-6.59-60.52S268.22,132,268.22,132l25.47-1.1,33.79-1.47s.2,2.49.54,6.84C330.25,164,337.92,267.25,333.67,278.18Z" fill="none" stroke="#263238" stroke-linecap="round" stroke-linejoin="round" stroke-width="1"/>
            <path id="Trazado_103800" data-name="Trazado 103800" d="M351.6,402.43c.21-1.95-2.87-30-2.91-33a121.47,121.47,0,0,0-2.51-19.26c-3.29-8.41-5.86-27.82-14.65-40.27s-8.78-27.09-10.24-39.51S320.18,259,320.55,248a161.933,161.933,0,0,0-1.1-24.81c-.73-7.33-2.19-20.22,0-26.23s7.94-7.4,14.22-1.38,8.85,30.67,8.85,33.72,0,12.56,2.2,16.22c0,0,12.44-6.37,12.44-8.12s-.37-17.3,1.47-18.13l-7.32-23.69,13.88-4.94a36.26,36.26,0,0,1,6.7,8.06,43.537,43.537,0,0,1,3.91,7.85c5.86,15.54,15.27,26.37,17.21,30.85s0,40,0,46.56-4.25,37-4.14,42.13c.08,3.71,2.58,17.48,5.07,28,.92,4.08,6.54,33.58,7.4,35.92Z" fill="#ffbf9d"/>
            <path id="Trazado_103801" data-name="Trazado 103801" d="M362.55,217.69c-.09,2,2.29,17.86,2.29,17.86,1.64,3.95-7.35,17.42-7.35,17.42-1.94,1.09-2.78,7.87-2.78,7.87-6.08-1.35-20-15.38-20-15.38a155.521,155.521,0,0,0-3.5,20c-1.85,14.22,9.89,48,14.88,71.33s2.62,32.62,2.62,32.62a121.2,121.2,0,0,0-2.51-19.25c-3.29-8.42-5.85-27.83-14.65-40.28s-8.78-27.06-10.24-39.48-1.1-11.36-.73-22.39a162,162,0,0,0-1.1-24.81c-.73-7.33-2.2-20.22,0-26.22s7.93-7.41,14.21-1.39,8.85,30.68,8.85,33.72,0,12.56,2.2,16.22c0,0,12.45-6.36,12.45-8.12s-.37-17.3,1.46-18.13l-7.32-23.69,13.88-4.93a36,36,0,0,1,6.7,8.05C367.39,207.66,362.64,216.45,362.55,217.69Z" fill="#d9a171" opacity="0.4"/>
            <path id="Trazado_103802" data-name="Trazado 103802" d="M385.89,328.54c.61-5.55,2.43-18.75,3.59-27a28.871,28.871,0,0,1-3.7,9.68s3.94-47.19,4.33-50.07,4.37-15.82,2.91-23.83c1.94,4.46,0,40,0,46.57s-4.26,37-4.15,42.13c.09,3.7,4.06,27.29,6.54,37.85C390.06,356.12,385.28,334.12,385.89,328.54Z" fill="#d9a171" opacity="0.4"/>
            <path id="Trazado_103803" data-name="Trazado 103803" d="M401.32,390c-2.92-8.43-12.32-58.87-12.43-64S393,290.5,393,283.91s1.94-42.11,0-46.57S381.68,222,375.83,206.5a40.48,40.48,0,0,0-10.62-15.91l-13.88,4.93,7.32,23.69c-1.85.83-1.46,16.38-1.46,18.13s-12.45,8.13-12.45,8.13c-2.2-3.7-2.2-13.18-2.2-16.23s-2.57-27.71-8.85-33.72-12-4.63-14.21,1.39-.73,18.9,0,26.23a162.19,162.19,0,0,1,1.1,24.83c-.37,11-.74,9.94.73,22.39s1.46,27.09,10.24,39.53,11.36,31.85,14.65,40.27c0,0,6.22,44.95,5.43,52.27" fill="none" stroke="#263238" stroke-linecap="round" stroke-linejoin="round" stroke-width="1"/>
            <path id="Trazado_103804" data-name="Trazado 103804" d="M344.71,245.46s2.19,10.25,7.13,15.38" fill="none" stroke="#263238" stroke-linecap="round" stroke-linejoin="round" stroke-width="1"/>
            <path id="Trazado_103805" data-name="Trazado 103805" d="M346,250.14s9.26,2.83,13.12,3" fill="none" stroke="#263238" stroke-linecap="round" stroke-linejoin="round" stroke-width="1"/>
            <path id="Trazado_103806" data-name="Trazado 103806" d="M357.16,237.34s6.58-3,10.8-1.21" fill="none" stroke="#263238" stroke-linecap="round" stroke-linejoin="round" stroke-width="1"/>
            <path id="Trazado_103807" data-name="Trazado 103807" d="M358.62,219.21s5.13-.47,6.22-3" fill="none" stroke="#263238" stroke-linecap="round" stroke-linejoin="round" stroke-width="1"/>
            <path id="Trazado_103808" data-name="Trazado 103808" d="M333.21,312.5S343.06,324.73,346,331" fill="none" stroke="#263238" stroke-linecap="round" stroke-linejoin="round" stroke-width="1"/>
            <path id="Trazado_103809" data-name="Trazado 103809" d="M390.47,259c-1.65,9.71-3.85,36.25-4.58,41" fill="none" stroke="#263238" stroke-linecap="round" stroke-linejoin="round" stroke-width="1"/>
            <path id="Trazado_103810" data-name="Trazado 103810" d="M393.62,240.7c.27,8.79-1.85,13.36-1.85,13.36" fill="none" stroke="#263238" stroke-linecap="round" stroke-linejoin="round" stroke-width="1"/>
            <path id="Trazado_103811" data-name="Trazado 103811" d="M317.93,117.69l67.85,17.89S361.93,208,357.09,216.94L349,280s-43.34-1.91-63.28-7.93c0,0,12.61-65.71,13.28-74.47S317.93,117.69,317.93,117.69Z" fill="#d9a171"/>
            <g id="Grupo_56544" data-name="Grupo 56544">
              <g id="Grupo_60098" data-name="Grupo 60098" clip-path="url(#clip-path-2)">
                <g id="Grupo_56543" data-name="Grupo 56543">
                  <g id="Grupo_56542" data-name="Grupo 56542">
                    <path id="Trazado_103812" data-name="Trazado 103812" d="M303.34,193.74l15-63.93s6.43-3.19,8.92-6.11l48.61,13.83a13.78,13.78,0,0,0,2.93,7.82L354.22,216l-6,52.11s-7.91.63-8.67,6.47c0,0-25.65,1.39-42.85-3.14a39.809,39.809,0,0,0-5.13-10.32Z" opacity="0.2"/>
                    <path id="Trazado_103813" data-name="Trazado 103813" d="M303.34,193.74l15-63.93s6.43-3.19,8.92-6.11l48.61,13.83a13.78,13.78,0,0,0,2.93,7.82L354.22,216l-6,52.11s-7.91.63-8.67,6.47c0,0-25.65,1.39-42.85-3.14a39.809,39.809,0,0,0-5.13-10.32Z" fill="none" stroke="#263238" stroke-linecap="round" stroke-linejoin="round" stroke-width="1"/>
                    <path id="Trazado_103814" data-name="Trazado 103814" d="M315.78,197.07s4.41-16.66,20-13.67,6.77,23.51,6.77,23.51.09,16.57-12.52,14.28C319.05,219.21,313.22,213.21,315.78,197.07Z" fill="#d9a171" stroke="#263238" stroke-linecap="round" stroke-linejoin="round" stroke-width="1"/>
                    <path id="Trazado_103815" data-name="Trazado 103815" d="M324.2,135.89s-4.7,19-5.91,22.7" fill="none" stroke="#263238" stroke-linecap="round" stroke-linejoin="round" stroke-width="1"/>
                    <line id="Línea_280" data-name="Línea 280" x1="2.74" y2="10.43" transform="translate(325.49 137.54)" fill="none" stroke="#263238" stroke-linecap="round" stroke-linejoin="round" stroke-width="1"/>
                    <path id="Trazado_103816" data-name="Trazado 103816" d="M362.55,144.86l9.36,3.29-1,2.93H368l-6.23-1.46Z" fill="#d9a171" stroke="#263238" stroke-linecap="round" stroke-linejoin="round" stroke-width="1"/>
                    <path id="Trazado_103817" data-name="Trazado 103817" d="M361,151.08l7,2.2,1.46,1.46L368,158.59l-8.07-2.76Z" fill="#d9a171" stroke="#263238" stroke-linecap="round" stroke-linejoin="round" stroke-width="1"/>
                    <path id="Trazado_103818" data-name="Trazado 103818" d="M359.89,157.67l8.07,2.22-1.14,2.91h-4.27l-3.93-1.64Z" fill="#d9a171" stroke="#263238" stroke-linecap="round" stroke-linejoin="round" stroke-width="1"/>
                    <path id="Trazado_103819" data-name="Trazado 103819" d="M358.62,162.8l6.22,2.56v1.83l-1.56,1.47L357.49,167v-3.12Z" fill="#d9a171" stroke="#263238" stroke-linecap="round" stroke-linejoin="round" stroke-width="1"/>
                    <path id="Trazado_103820" data-name="Trazado 103820" d="M363.92,171.06v2.85a2,2,0,0,1-.56,1.74,1.54,1.54,0,0,1-1.5,0c-.47-.22-.92-.55-1.38-.75-1.45-.58-3.24.16-4.63-.63,0-1.76-.61-4.57,1.57-4.62C357.79,169.68,363.92,171.71,363.92,171.06Z" fill="#d9a171" stroke="#263238" stroke-linecap="round" stroke-linejoin="round" stroke-width="1"/>
                    <path id="Trazado_103821" data-name="Trazado 103821" d="M361.36,178.2a13.936,13.936,0,0,1-.35,1.93,1.942,1.942,0,0,1-2.75,1.89l-5.21-1.37a25.907,25.907,0,0,1,.92-2.87c.7-1,.46-1,1.69-1.09C357.67,176.57,359.3,178.45,361.36,178.2Z" fill="#d9a171" stroke="#263238" stroke-linecap="round" stroke-linejoin="round" stroke-width="1"/>
                    <path id="Trazado_103822" data-name="Trazado 103822" d="M343.79,138.82l-3.12,12.27,1.56.73L346,139.73Z" fill="#d9a171" stroke="#263238" stroke-linecap="round" stroke-linejoin="round" stroke-width="1"/>
                    <path id="Trazado_103823" data-name="Trazado 103823" d="M304.71,221.16l9.61,2.49-.78,3-2.91.26L304.3,226Z" fill="#d9a171" stroke="#263238" stroke-linecap="round" stroke-linejoin="round" stroke-width="1"/>
                    <path id="Trazado_103824" data-name="Trazado 103824" d="M303.7,227.5l7.11,1.59,1.59,1.34-1.13,4-8.27-2.1Z" fill="#d9a171" stroke="#263238" stroke-linecap="round" stroke-linejoin="round" stroke-width="1"/>
                    <path id="Trazado_103825" data-name="Trazado 103825" d="M303.17,234.17l8.22,1.52-.89,3-4.25.38-4.06-1.31Z" fill="#d9a171" stroke="#263238" stroke-linecap="round" stroke-linejoin="round" stroke-width="1"/>
                    <path id="Trazado_103826" data-name="Trazado 103826" d="M302.33,239.38l6.42,2,.16,1.83-1.43,1.59-5.91-1.15-.27-3.1Z" fill="#d9a171" stroke="#263238" stroke-linecap="round" stroke-linejoin="round" stroke-width="1"/>
                    <path id="Trazado_103827" data-name="Trazado 103827" d="M308.31,247.16l.25,2.84a2,2,0,0,1-.41,1.79,1.55,1.55,0,0,1-1.49.12c-.49-.18-.92-.48-1.44-.62-1.49-.45-3.21.42-4.62-.24-.17-1.75-1-4.49,1.15-4.71C302.09,246.32,308.37,247.81,308.31,247.16Z" fill="#d9a171" stroke="#263238" stroke-linecap="round" stroke-linejoin="round" stroke-width="1"/>
                    <path id="Trazado_103828" data-name="Trazado 103828" d="M306.38,254.49a13.661,13.661,0,0,1-.19,2,2.46,2.46,0,0,1-1.24,2.07,2.76,2.76,0,0,1-1.34,0l-5.29-.92a26.778,26.778,0,0,1,.71-2.94c.61-1.09.37-1.05,1.59-1.23C302.57,253.18,304.34,254.91,306.38,254.49Z" fill="#d9a171" stroke="#263238" stroke-linecap="round" stroke-linejoin="round" stroke-width="1"/>
                    <path id="Trazado_103829" data-name="Trazado 103829" d="M344.71,263.47s2.2-24.56,2.2-27" fill="none" stroke="#263238" stroke-linecap="round" stroke-linejoin="round" stroke-width="1"/>
                    <path id="Trazado_103830" data-name="Trazado 103830" d="M340.31,262.37s.92-12.77,1.1-15" fill="none" stroke="#263238" stroke-linecap="round" stroke-linejoin="round" stroke-width="1"/>
                    <path id="Trazado_103831" data-name="Trazado 103831" d="M323.15,253.15l-3,14.54h3l2.15-14.54Z" fill="#d9a171" stroke="#263238" stroke-linecap="round" stroke-linejoin="round" stroke-width="1"/>
                    <path id="Trazado_103832" data-name="Trazado 103832" d="M357.24,216.57a47.33,47.33,0,0,1-16.39-6.15s3.08,8.83,14,23.88L349,280s-28.29-1.24-49.67-4.9c6.57-18.51,18.51-53.58,17.1-60.53-1.92-9.54,4.85-20.8,4.85-20.8,21.38-3.85,42.12-20,56.35-33.69C370.35,181.54,360.46,210.23,357.24,216.57Z" opacity="0.2"/>
                  </g>
                </g>
              </g>
            </g>
            <path id="Trazado_103833" data-name="Trazado 103833" d="M317.93,117.69l67.85,17.89S361.93,208,357.09,216.94L349,280s-43.34-1.91-63.28-7.93c0,0,12.61-65.71,13.28-74.47S317.93,117.69,317.93,117.69Z" fill="none" stroke="#263238" stroke-linecap="round" stroke-linejoin="round" stroke-width="1"/>
            <path id="Trazado_103834" data-name="Trazado 103834" d="M355.55,261.76,346,331c-2.13-4.53-7.93-12.25-10.93-16.11-1.11-1.44-1.85-2.34-1.85-2.34l-1.7-2.61c-8.78-12.44-8.78-27.09-10.24-39.53s-1.1-11.36-.73-22.39a163,163,0,0,0-1.09-24.79c-.73-7.33-2.2-20.22,0-26.23a7.2,7.2,0,0,1,5.43-5.16c2.42-.39,5.55.72,8.78,3.78,6.28,6,8.85,30.67,8.85,33.72s0,12.55,2.2,16.22C344.71,245.46,350.61,256.64,355.55,261.76Z" fill="#ffbf9d"/>
            <path id="Trazado_103835" data-name="Trazado 103835" d="M330.79,305a27.2,27.2,0,0,1,4.27,9.88c-1.11-1.44-1.85-2.34-1.85-2.34l-1.7-2.61c-8.78-12.44-8.78-27.09-10.24-39.53s-1.1-11.36-.73-22.39a162.994,162.994,0,0,0-1.09-24.79c-.73-7.33-2.2-20.22,0-26.23a7.2,7.2,0,0,1,5.43-5.16c4.62,1.31,9.25,6,10.86,14.08,2.78,13.53-9.74,2.6-12.64,14.07s1.32,14.55,3,17.44-.48,9.26-3,17.81S325.3,297.94,330.79,305Z" fill="#d9a171" opacity="0.4"/>
            <path id="Trazado_103836" data-name="Trazado 103836" d="M355.55,261.76c-4.94-5.12-10.84-16.3-10.84-16.3-2.2-3.7-2.2-13.17-2.2-16.22s-2.57-27.71-8.85-33.72-12-4.63-14.21,1.39-.73,18.89,0,26.22a162.378,162.378,0,0,1,1.1,24.84c-.37,11-.74,9.94.73,22.39s1.46,27.09,10.24,39.53l1.7,2.61s9.84,12.22,12.77,18.44" fill="none" stroke="#263238" stroke-linecap="round" stroke-linejoin="round" stroke-width="1"/>
            <path id="Trazado_103837" data-name="Trazado 103837" d="M323.15,232.48s8.39-4.34,12.59-4" fill="none" stroke="#263238" stroke-linecap="round" stroke-linejoin="round" stroke-width="1"/>
          </g>
        </g>
      </g>
    </g>
  </g>
</svg>
