<svg xmlns="http://www.w3.org/2000/svg" width="293.87" height="262.37" viewBox="0 0 293.87 262.37">
  <g id="Grupo_60125" data-name="Grupo 60125" transform="translate(5199 13122.996)">
    <path id="Trazado_111001" data-name="Trazado 111001" d="M12,0H281.87a12,12,0,0,1,12,12V51.16a12,12,0,0,1-12,12H12a12,12,0,0,1-12-12V12A12,12,0,0,1,12,0Z" transform="translate(-5199 -13122.996)" fill="#d9a171"/>
    <path id="Trazado_111003" data-name="Trazado 111003" d="M3.946,0H1.31V-12.8H3.946ZM16.8,0H14.159L9.026-8.42V0H6.39V-12.8H9.026l5.142,8.438V-12.8H16.8Zm7.031-3.173,2.9-9.624h2.936L25.207,0H22.456L18.018-12.8h2.927ZM38.566-5.546H33.5v3.428h5.941V0H30.867V-12.8h8.561v2.136H33.5v3.05h5.063ZM51.4,0H48.762L43.629-8.42V0H40.992V-12.8h2.637l5.142,8.438V-12.8H51.4ZM63.154-10.661h-3.92V0H56.6V-10.661H52.73V-12.8H63.154Zm6.593,8.024H65.124L64.245,0h-2.8L66.2-12.8h2.443L73.438,0h-2.8ZM65.836-4.772h3.2l-1.608-4.79Zm13.535.088h-2.1V0H74.634V-12.8h4.755a5.375,5.375,0,0,1,3.5,1.011,3.488,3.488,0,0,1,1.23,2.856,3.937,3.937,0,0,1-.567,2.184,3.866,3.866,0,0,1-1.718,1.393L84.6-.123V0H81.77ZM77.27-6.82H79.4a2.178,2.178,0,0,0,1.538-.505,1.806,1.806,0,0,0,.545-1.393,1.933,1.933,0,0,0-.514-1.424,2.137,2.137,0,0,0-1.578-.519H77.27ZM88.925,0H86.288V-12.8h2.637ZM101.88-6.108a7.725,7.725,0,0,1-.668,3.313A5.03,5.03,0,0,1,99.3-.6a5.288,5.288,0,0,1-2.852.773,5.324,5.324,0,0,1-2.839-.765,5.08,5.08,0,0,1-1.934-2.184,7.5,7.5,0,0,1-.694-3.265v-.633A7.685,7.685,0,0,1,91.662-10,5.072,5.072,0,0,1,93.587-12.2a5.3,5.3,0,0,1,2.843-.769,5.3,5.3,0,0,1,2.843.769A5.072,5.072,0,0,1,101.2-10a7.663,7.663,0,0,1,.681,3.318Zm-2.672-.58a5.385,5.385,0,0,0-.721-3.059,2.349,2.349,0,0,0-2.057-1.046A2.349,2.349,0,0,0,94.383-9.76a5.324,5.324,0,0,0-.729,3.028v.624a5.453,5.453,0,0,0,.721,3.041,2.342,2.342,0,0,0,2.074,1.081,2.321,2.321,0,0,0,2.039-1.042,5.421,5.421,0,0,0,.721-3.037Zm11.224,3.331A1.353,1.353,0,0,0,109.9-4.5a6.917,6.917,0,0,0-1.9-.844,13.458,13.458,0,0,1-2.171-.875,3.547,3.547,0,0,1-2.18-3.173,3.09,3.09,0,0,1,.584-1.85,3.812,3.812,0,0,1,1.679-1.27,6.318,6.318,0,0,1,2.457-.457,5.751,5.751,0,0,1,2.443.5,3.891,3.891,0,0,1,1.666,1.4,3.668,3.668,0,0,1,.593,2.057H110.44a1.726,1.726,0,0,0-.554-1.367,2.276,2.276,0,0,0-1.556-.488,2.432,2.432,0,0,0-1.5.409,1.289,1.289,0,0,0-.536,1.077,1.235,1.235,0,0,0,.628,1.046,7.1,7.1,0,0,0,1.85.791,7.994,7.994,0,0,1,3.278,1.679,3.343,3.343,0,0,1,1.028,2.5A3.08,3.08,0,0,1,111.82-.769a5.5,5.5,0,0,1-3.384.945,6.534,6.534,0,0,1-2.689-.541,4.256,4.256,0,0,1-1.85-1.481,3.793,3.793,0,0,1-.637-2.18h2.646q0,2.118,2.531,2.118A2.462,2.462,0,0,0,109.9-2.29,1.244,1.244,0,0,0,110.431-3.357Z" transform="translate(-5109.43 -13095.396)" fill="#fff"/>
    <path id="Trazado_108032" data-name="Trazado 108032" d="M366.13,118.72H121.7v76.64H366.13l24.78-38.31Z" transform="translate(-5302.07 -13157.116)" fill="#f2e9e4"/>
    <path id="Trazado_111002" data-name="Trazado 111002" d="M3.359-4.008V0H1.016V-11.375H5.453a5.134,5.134,0,0,1,2.254.469A3.454,3.454,0,0,1,9.2-9.574a3.714,3.714,0,0,1,.523,1.965A3.266,3.266,0,0,1,8.582-4.973a4.767,4.767,0,0,1-3.168.965Zm0-1.9H5.453a2.059,2.059,0,0,0,1.418-.437,1.591,1.591,0,0,0,.488-1.25,1.876,1.876,0,0,0-.492-1.352,1.839,1.839,0,0,0-1.359-.531H3.359Zm14.82.977h-4.5v3.047h5.281V0H11.336V-11.375h7.609v1.9H13.68v2.711h4.5Zm4.5.922V0H20.336V-11.375h4.438a5.134,5.134,0,0,1,2.254.469,3.454,3.454,0,0,1,1.5,1.332,3.714,3.714,0,0,1,.523,1.965A3.266,3.266,0,0,1,27.9-4.973a4.767,4.767,0,0,1-3.168.965Zm0-1.9h2.094a2.059,2.059,0,0,0,1.418-.437,1.591,1.591,0,0,0,.488-1.25,1.876,1.876,0,0,0-.492-1.352,1.839,1.839,0,0,0-1.359-.531H22.68ZM36.555-2.984A1.2,1.2,0,0,0,36.086-4a6.148,6.148,0,0,0-1.687-.75,11.962,11.962,0,0,1-1.93-.777,3.153,3.153,0,0,1-1.937-2.82A2.747,2.747,0,0,1,31.051-10a3.389,3.389,0,0,1,1.492-1.129,5.616,5.616,0,0,1,2.184-.406,5.112,5.112,0,0,1,2.172.441,3.458,3.458,0,0,1,1.48,1.246,3.261,3.261,0,0,1,.527,1.828H36.563A1.534,1.534,0,0,0,36.07-9.23a2.023,2.023,0,0,0-1.383-.434,2.162,2.162,0,0,0-1.336.363,1.146,1.146,0,0,0-.477.957,1.1,1.1,0,0,0,.559.93,6.311,6.311,0,0,0,1.645.7,7.106,7.106,0,0,1,2.914,1.492A2.972,2.972,0,0,1,38.906-3,2.737,2.737,0,0,1,37.789-.684a4.891,4.891,0,0,1-3.008.84,5.808,5.808,0,0,1-2.391-.48,3.783,3.783,0,0,1-1.645-1.316,3.371,3.371,0,0,1-.566-1.937h2.352q0,1.883,2.25,1.883a2.189,2.189,0,0,0,1.3-.34A1.106,1.106,0,0,0,36.555-2.984Zm3.906,1.875a1.137,1.137,0,0,1,.363-.875,1.289,1.289,0,0,1,.91-.336,1.3,1.3,0,0,1,.918.336,1.137,1.137,0,0,1,.363.875,1.121,1.121,0,0,1-.359.863,1.305,1.305,0,0,1-.922.332,1.294,1.294,0,0,1-.914-.332A1.121,1.121,0,0,1,40.461-1.109ZM50.93-4.453V0h-1.5V-11.375h4.2a4.215,4.215,0,0,1,2.926.953A3.231,3.231,0,0,1,57.609-7.9a3.189,3.189,0,0,1-1.035,2.551,4.4,4.4,0,0,1-2.965.895Zm0-1.227h2.7a2.7,2.7,0,0,0,1.844-.567,2.075,2.075,0,0,0,.641-1.64,2.143,2.143,0,0,0-.641-1.628,2.525,2.525,0,0,0-1.758-.634H50.93ZM63.383-7.156a4.331,4.331,0,0,0-.711-.055A1.9,1.9,0,0,0,60.742-6V0H59.3V-8.453H60.7l.023.977a2.251,2.251,0,0,1,2.016-1.133,1.477,1.477,0,0,1,.641.109ZM66.281,0H64.836V-8.453h1.445ZM64.719-10.7a.863.863,0,0,1,.215-.594.807.807,0,0,1,.637-.242.819.819,0,0,1,.641.242.854.854,0,0,1,.219.594.826.826,0,0,1-.219.586.834.834,0,0,1-.641.234.821.821,0,0,1-.637-.234A.834.834,0,0,1,64.719-10.7Zm5.234,2.242.039.938A3.122,3.122,0,0,1,72.5-8.609,2.417,2.417,0,0,1,74.914-7.25a3.2,3.2,0,0,1,1.1-.984,3.242,3.242,0,0,1,1.6-.375q2.781,0,2.828,2.945V0H78.992V-5.578a1.941,1.941,0,0,0-.414-1.355,1.823,1.823,0,0,0-1.391-.449,1.916,1.916,0,0,0-1.336.48,1.949,1.949,0,0,0-.617,1.293V0H73.781V-5.539a1.613,1.613,0,0,0-1.8-1.844,1.934,1.934,0,0,0-1.945,1.211V0H68.586V-8.453ZM86.125.156a3.693,3.693,0,0,1-2.8-1.129,4.19,4.19,0,0,1-1.078-3.02v-.266A5.073,5.073,0,0,1,82.73-6.5a3.748,3.748,0,0,1,1.344-1.547,3.378,3.378,0,0,1,1.871-.559,3.166,3.166,0,0,1,2.563,1.086,4.7,4.7,0,0,1,.914,3.109v.6H83.7a3,3,0,0,0,.73,2.02,2.3,2.3,0,0,0,1.777.77,2.517,2.517,0,0,0,1.3-.312,3.259,3.259,0,0,0,.93-.828l.883.688A3.55,3.55,0,0,1,86.125.156Zm-.18-7.578a1.928,1.928,0,0,0-1.469.637A3.1,3.1,0,0,0,83.742-5h4.234v-.109a2.753,2.753,0,0,0-.594-1.707A1.815,1.815,0,0,0,85.945-7.422Zm9.234.266a4.331,4.331,0,0,0-.711-.055A1.9,1.9,0,0,0,92.539-6V0H91.094V-8.453H92.5l.023.977a2.251,2.251,0,0,1,2.016-1.133,1.477,1.477,0,0,1,.641.109ZM95.809-4.3A4.993,4.993,0,0,1,96.3-6.539,3.643,3.643,0,0,1,97.656-8.07a3.7,3.7,0,0,1,1.988-.539,3.565,3.565,0,0,1,2.793,1.2,4.6,4.6,0,0,1,1.066,3.18v.1a5.036,5.036,0,0,1-.473,2.215A3.589,3.589,0,0,1,101.68-.391a3.743,3.743,0,0,1-2.02.547,3.556,3.556,0,0,1-2.785-1.2A4.575,4.575,0,0,1,95.809-4.2Zm1.453.172a3.616,3.616,0,0,0,.652,2.258,2.088,2.088,0,0,0,1.746.852,2.075,2.075,0,0,0,1.75-.863,3.955,3.955,0,0,0,.648-2.418,3.61,3.61,0,0,0-.66-2.254,2.1,2.1,0,0,0-1.754-.863,2.075,2.075,0,0,0-1.727.852A3.925,3.925,0,0,0,97.262-4.133Zm12.977,1.891a1.064,1.064,0,0,0-.441-.91,4.249,4.249,0,0,0-1.539-.559,7.277,7.277,0,0,1-1.742-.562,2.479,2.479,0,0,1-.953-.781,1.869,1.869,0,0,1-.309-1.078,2.193,2.193,0,0,1,.879-1.758,3.432,3.432,0,0,1,2.246-.719,3.532,3.532,0,0,1,2.332.742,2.357,2.357,0,0,1,.895,1.9h-1.453a1.3,1.3,0,0,0-.5-1.023,1.888,1.888,0,0,0-1.27-.43,1.976,1.976,0,0,0-1.234.344,1.082,1.082,0,0,0-.445.9.877.877,0,0,0,.414.789,5.1,5.1,0,0,0,1.5.508,7.8,7.8,0,0,1,1.754.578,2.558,2.558,0,0,1,1,.809,1.988,1.988,0,0,1,.324,1.152,2.163,2.163,0,0,1-.906,1.816,3.8,3.8,0,0,1-2.352.684,4.257,4.257,0,0,1-1.8-.359,2.922,2.922,0,0,1-1.223-1,2.42,2.42,0,0,1-.441-1.395h1.445a1.5,1.5,0,0,0,.582,1.152,2.258,2.258,0,0,0,1.434.426,2.331,2.331,0,0,0,1.316-.332A1.02,1.02,0,0,0,110.238-2.242Zm10.8,2.4a3.693,3.693,0,0,1-2.8-1.129,4.19,4.19,0,0,1-1.078-3.02v-.266a5.073,5.073,0,0,1,.48-2.246,3.748,3.748,0,0,1,1.344-1.547,3.378,3.378,0,0,1,1.871-.559,3.166,3.166,0,0,1,2.563,1.086,4.7,4.7,0,0,1,.914,3.109v.6h-5.727a3,3,0,0,0,.73,2.02,2.3,2.3,0,0,0,1.777.77,2.517,2.517,0,0,0,1.3-.312,3.259,3.259,0,0,0,.93-.828l.883.688A3.55,3.55,0,0,1,121.035.156Zm-.18-7.578a1.928,1.928,0,0,0-1.469.637A3.1,3.1,0,0,0,118.652-5h4.234v-.109a2.753,2.753,0,0,0-.594-1.707A1.815,1.815,0,0,0,120.856-7.422Zm6.516-1.031.047,1.063a3.08,3.08,0,0,1,2.531-1.219q2.68,0,2.7,3.023V0h-1.445V-5.594a1.946,1.946,0,0,0-.418-1.352,1.675,1.675,0,0,0-1.277-.437,2.086,2.086,0,0,0-1.234.375,2.546,2.546,0,0,0-.828.984V0H126V-8.453ZM142.3.156a3.693,3.693,0,0,1-2.8-1.129,4.19,4.19,0,0,1-1.078-3.02v-.266a5.073,5.073,0,0,1,.48-2.246,3.748,3.748,0,0,1,1.344-1.547,3.378,3.378,0,0,1,1.871-.559,3.166,3.166,0,0,1,2.563,1.086,4.7,4.7,0,0,1,.914,3.109v.6h-5.727a3,3,0,0,0,.73,2.02,2.3,2.3,0,0,0,1.777.77,2.517,2.517,0,0,0,1.3-.312,3.258,3.258,0,0,0,.93-.828l.883.688A3.55,3.55,0,0,1,142.3.156Zm-.18-7.578a1.928,1.928,0,0,0-1.469.637A3.1,3.1,0,0,0,139.918-5h4.234v-.109a2.753,2.753,0,0,0-.594-1.707A1.815,1.815,0,0,0,142.121-7.422Zm6.516-1.031.047,1.063a3.08,3.08,0,0,1,2.531-1.219q2.68,0,2.7,3.023V0h-1.445V-5.594a1.946,1.946,0,0,0-.418-1.352,1.675,1.675,0,0,0-1.277-.437,2.086,2.086,0,0,0-1.234.375,2.546,2.546,0,0,0-.828.984V0H147.27V-8.453Zm9.422-2.047v2.047h1.578v1.117h-1.578v5.249a1.173,1.173,0,0,0,.211.763.888.888,0,0,0,.719.254,3.5,3.5,0,0,0,.688-.094V0a4.215,4.215,0,0,1-1.109.155,1.8,1.8,0,0,1-1.461-.586,2.517,2.517,0,0,1-.492-1.664V-7.336h-1.539V-8.453h1.539V-10.5Zm7.352,3.344a4.331,4.331,0,0,0-.711-.055A1.9,1.9,0,0,0,162.77-6V0h-1.445V-8.453h1.406l.023.977a2.251,2.251,0,0,1,2.016-1.133,1.477,1.477,0,0,1,.641.109ZM171.325,0a3.036,3.036,0,0,1-.2-.891A3.225,3.225,0,0,1,168.715.156a2.984,2.984,0,0,1-2.051-.707,2.287,2.287,0,0,1-.8-1.793,2.39,2.39,0,0,1,1-2.051,4.733,4.733,0,0,1,2.824-.73H171.1v-.664A1.623,1.623,0,0,0,170.645-7a1.821,1.821,0,0,0-1.336-.449,2.107,2.107,0,0,0-1.3.391,1.151,1.151,0,0,0-.523.945h-1.453a2,2,0,0,1,.449-1.223,3.066,3.066,0,0,1,1.219-.934,4.1,4.1,0,0,1,1.691-.344,3.342,3.342,0,0,1,2.289.73,2.635,2.635,0,0,1,.859,2.012v3.891a4.757,4.757,0,0,0,.3,1.852V0Zm-2.4-1.1a2.54,2.54,0,0,0,1.289-.352,2.127,2.127,0,0,0,.883-.914V-4.1h-1.133q-2.656,0-2.656,1.555a1.316,1.316,0,0,0,.453,1.063A1.742,1.742,0,0,0,168.926-1.1Zm9.969-6.055a4.331,4.331,0,0,0-.711-.055A1.9,1.9,0,0,0,176.254-6V0h-1.445V-8.453h1.406l.023.977a2.251,2.251,0,0,1,2.016-1.133,1.477,1.477,0,0,1,.641.109Zm-.64,9.422-.82-.562A3.77,3.77,0,0,0,178.2-.406v-1.3h1.414V-.578A3.559,3.559,0,0,1,179.228,1,3.7,3.7,0,0,1,178.255,2.266ZM8.234,15.067a5.062,5.062,0,0,1-.883,3.109,2.829,2.829,0,0,1-2.391,1.18,3.1,3.1,0,0,1-2.422-.977v4.07H1.094v-11.7h1.32l.07.938a2.977,2.977,0,0,1,2.453-1.094,2.882,2.882,0,0,1,2.41,1.148,5.117,5.117,0,0,1,.887,3.2ZM6.789,14.9a3.735,3.735,0,0,0-.609-2.258,1.963,1.963,0,0,0-1.672-.828,2.125,2.125,0,0,0-1.969,1.164V17.02a2.129,2.129,0,0,0,1.984,1.156,1.954,1.954,0,0,0,1.652-.824A4.077,4.077,0,0,0,6.789,14.9Zm7.367-2.859a4.331,4.331,0,0,0-.711-.055,1.9,1.9,0,0,0-1.93,1.211v6H10.07V10.747h1.406l.023.977a2.251,2.251,0,0,1,2.016-1.133,1.477,1.477,0,0,1,.641.109Zm2.9,7.156H15.609V10.747h1.445ZM15.492,8.5a.863.863,0,0,1,.215-.594.807.807,0,0,1,.637-.242.819.819,0,0,1,.641.242A.854.854,0,0,1,17.2,8.5a.826.826,0,0,1-.219.586.834.834,0,0,1-.641.234.821.821,0,0,1-.637-.234A.834.834,0,0,1,15.492,8.5Zm5.234,2.242.039.938a3.122,3.122,0,0,1,2.508-1.094,2.417,2.417,0,0,1,2.414,1.359,3.2,3.2,0,0,1,1.1-.984,3.242,3.242,0,0,1,1.6-.375q2.781,0,2.828,2.945V19.2H29.766V13.622a1.941,1.941,0,0,0-.414-1.355,1.823,1.823,0,0,0-1.391-.449,1.916,1.916,0,0,0-1.336.48,1.949,1.949,0,0,0-.617,1.293V19.2H24.555V13.661a1.613,1.613,0,0,0-1.8-1.844A1.934,1.934,0,0,0,20.8,13.028V19.2H19.359V10.747ZM36.9,19.356a3.693,3.693,0,0,1-2.8-1.129,4.19,4.19,0,0,1-1.078-3.02v-.266A5.073,5.073,0,0,1,33.5,12.7a3.748,3.748,0,0,1,1.344-1.547,3.378,3.378,0,0,1,1.871-.559,3.166,3.166,0,0,1,2.563,1.086,4.7,4.7,0,0,1,.914,3.109v.6H34.469a3,3,0,0,0,.73,2.02,2.3,2.3,0,0,0,1.777.77,2.517,2.517,0,0,0,1.3-.312,3.259,3.259,0,0,0,.93-.828l.883.688A3.55,3.55,0,0,1,36.9,19.356Zm-.18-7.578a1.928,1.928,0,0,0-1.469.637,3.1,3.1,0,0,0-.734,1.785H38.75v-.109a2.753,2.753,0,0,0-.594-1.707A1.815,1.815,0,0,0,36.719,11.778Zm9.234.266a4.331,4.331,0,0,0-.711-.055,1.9,1.9,0,0,0-1.93,1.211v6H41.867V10.747h1.406l.023.977a2.251,2.251,0,0,1,2.016-1.133,1.477,1.477,0,0,1,.641.109Zm.629,2.852a4.993,4.993,0,0,1,.488-2.234A3.643,3.643,0,0,1,48.43,11.13a3.7,3.7,0,0,1,1.988-.539,3.565,3.565,0,0,1,2.793,1.2,4.6,4.6,0,0,1,1.066,3.18v.1a5.036,5.036,0,0,1-.473,2.215,3.589,3.589,0,0,1-1.352,1.527,3.743,3.743,0,0,1-2.02.547,3.556,3.556,0,0,1-2.785-1.2A4.575,4.575,0,0,1,46.582,15Zm1.453.172a3.616,3.616,0,0,0,.652,2.258,2.211,2.211,0,0,0,3.5-.012,3.955,3.955,0,0,0,.648-2.418,3.61,3.61,0,0,0-.66-2.254,2.1,2.1,0,0,0-1.754-.863,2.075,2.075,0,0,0-1.727.852A3.925,3.925,0,0,0,48.035,15.067Zm12.977,1.891a1.064,1.064,0,0,0-.441-.91,4.249,4.249,0,0,0-1.539-.559,7.277,7.277,0,0,1-1.742-.562,2.479,2.479,0,0,1-.953-.781,1.869,1.869,0,0,1-.309-1.078,2.193,2.193,0,0,1,.879-1.758,3.432,3.432,0,0,1,2.246-.719,3.532,3.532,0,0,1,2.332.742,2.357,2.357,0,0,1,.895,1.9H60.926a1.3,1.3,0,0,0-.5-1.023,1.888,1.888,0,0,0-1.27-.43,1.976,1.976,0,0,0-1.234.344,1.082,1.082,0,0,0-.445.9.877.877,0,0,0,.414.789,5.1,5.1,0,0,0,1.5.508,7.8,7.8,0,0,1,1.754.578,2.558,2.558,0,0,1,1,.809,1.988,1.988,0,0,1,.324,1.152,2.163,2.163,0,0,1-.906,1.816,3.8,3.8,0,0,1-2.352.684A4.257,4.257,0,0,1,57.4,19a2.922,2.922,0,0,1-1.223-1,2.42,2.42,0,0,1-.441-1.395h1.445a1.5,1.5,0,0,0,.582,1.152,2.258,2.258,0,0,0,1.434.426,2.331,2.331,0,0,0,1.316-.332A1.02,1.02,0,0,0,61.012,16.958Zm10.8,2.4a3.693,3.693,0,0,1-2.8-1.129,4.19,4.19,0,0,1-1.078-3.02v-.266a5.073,5.073,0,0,1,.48-2.246,3.748,3.748,0,0,1,1.344-1.547,3.378,3.378,0,0,1,1.871-.559,3.166,3.166,0,0,1,2.563,1.086,4.7,4.7,0,0,1,.914,3.109v.6H69.379a3,3,0,0,0,.73,2.02,2.3,2.3,0,0,0,1.777.77,2.517,2.517,0,0,0,1.3-.312,3.259,3.259,0,0,0,.93-.828l.883.688A3.55,3.55,0,0,1,71.809,19.356Zm-.18-7.578a1.928,1.928,0,0,0-1.469.637,3.1,3.1,0,0,0-.734,1.785H73.66v-.109a2.753,2.753,0,0,0-.594-1.707A1.815,1.815,0,0,0,71.629,11.778Zm6.516-1.031.047,1.063a3.08,3.08,0,0,1,2.531-1.219q2.68,0,2.7,3.023V19.2H81.981V13.606a1.946,1.946,0,0,0-.418-1.352,1.675,1.675,0,0,0-1.277-.437,2.086,2.086,0,0,0-1.234.375,2.546,2.546,0,0,0-.828.984V19.2H76.777V10.747Zm16.344,6.211a1.064,1.064,0,0,0-.441-.91,4.249,4.249,0,0,0-1.539-.559,7.277,7.277,0,0,1-1.742-.562,2.479,2.479,0,0,1-.953-.781,1.869,1.869,0,0,1-.309-1.078,2.193,2.193,0,0,1,.879-1.758,3.432,3.432,0,0,1,2.246-.719,3.532,3.532,0,0,1,2.332.742,2.357,2.357,0,0,1,.895,1.9H94.4a1.3,1.3,0,0,0-.5-1.023,1.888,1.888,0,0,0-1.27-.43,1.976,1.976,0,0,0-1.234.344,1.082,1.082,0,0,0-.445.9.877.877,0,0,0,.414.789,5.1,5.1,0,0,0,1.5.508,7.8,7.8,0,0,1,1.754.578,2.558,2.558,0,0,1,1,.809,1.988,1.988,0,0,1,.324,1.152,2.163,2.163,0,0,1-.906,1.816,3.8,3.8,0,0,1-2.352.684,4.257,4.257,0,0,1-1.8-.359,2.922,2.922,0,0,1-1.223-1,2.42,2.42,0,0,1-.441-1.395H90.66a1.5,1.5,0,0,0,.582,1.152,2.258,2.258,0,0,0,1.434.426,2.331,2.331,0,0,0,1.316-.332A1.02,1.02,0,0,0,94.488,16.958Zm8.547,2.242a3.036,3.036,0,0,1-.2-.891,3.225,3.225,0,0,1-2.406,1.047,2.984,2.984,0,0,1-2.051-.707,2.288,2.288,0,0,1-.8-1.793,2.39,2.39,0,0,1,1-2.051,4.733,4.733,0,0,1,2.824-.73h1.406v-.664a1.623,1.623,0,0,0-.453-1.207,1.821,1.821,0,0,0-1.336-.449,2.108,2.108,0,0,0-1.3.391,1.151,1.151,0,0,0-.523.945H97.746a2,2,0,0,1,.449-1.223,3.066,3.066,0,0,1,1.219-.934,4.1,4.1,0,0,1,1.691-.344,3.342,3.342,0,0,1,2.289.73,2.635,2.635,0,0,1,.859,2.012v3.891a4.757,4.757,0,0,0,.3,1.852V19.2Zm-2.4-1.1a2.54,2.54,0,0,0,1.289-.352,2.127,2.127,0,0,0,.883-.914V15.1h-1.133q-2.656,0-2.656,1.555a1.316,1.316,0,0,0,.453,1.063A1.742,1.742,0,0,0,100.637,18.1Zm7.453,1.1h-1.445V7.2h1.445Zm3.883,0h-1.445V10.747h1.445ZM110.41,8.5a.863.863,0,0,1,.215-.594.807.807,0,0,1,.637-.242.819.819,0,0,1,.641.242.854.854,0,0,1,.219.594.826.826,0,0,1-.219.586.834.834,0,0,1-.641.234.821.821,0,0,1-.637-.234A.834.834,0,0,1,110.41,8.5Zm7.961,3.539a4.331,4.331,0,0,0-.711-.055,1.9,1.9,0,0,0-1.93,1.211v6h-1.445V10.747h1.406l.023.977a2.251,2.251,0,0,1,2.016-1.133,1.477,1.477,0,0,1,.641.109Zm-.562,6.4a.905.905,0,0,1,.223-.625.848.848,0,0,1,.668-.25.874.874,0,0,1,.676.25.887.887,0,0,1,.23.625.839.839,0,0,1-.23.6.89.89,0,0,1-.676.242.8.8,0,0,1-.891-.844Zm9.867-3.7V19.2h-1.5V7.825h4.2a4.215,4.215,0,0,1,2.926.953,3.231,3.231,0,0,1,1.059,2.523,3.188,3.188,0,0,1-1.035,2.551,4.4,4.4,0,0,1-2.965.895Zm0-1.227h2.7a2.7,2.7,0,0,0,1.844-.567,2.075,2.075,0,0,0,.641-1.64,2.143,2.143,0,0,0-.641-1.628,2.525,2.525,0,0,0-1.758-.634h-2.781Zm12.453-1.477a4.331,4.331,0,0,0-.711-.055,1.9,1.9,0,0,0-1.93,1.211v6h-1.445V10.747h1.406l.023.977a2.251,2.251,0,0,1,2.016-1.133,1.477,1.477,0,0,1,.641.109Zm4.676,7.313a3.693,3.693,0,0,1-2.8-1.129,4.19,4.19,0,0,1-1.078-3.02v-.266a5.073,5.073,0,0,1,.48-2.246,3.748,3.748,0,0,1,1.344-1.547,3.378,3.378,0,0,1,1.871-.559,3.166,3.166,0,0,1,2.563,1.086,4.7,4.7,0,0,1,.914,3.109v.6h-5.727a3,3,0,0,0,.73,2.02,2.3,2.3,0,0,0,1.777.77,2.517,2.517,0,0,0,1.3-.312,3.258,3.258,0,0,0,.93-.828l.883.688A3.55,3.55,0,0,1,144.806,19.356Zm-.18-7.578a1.928,1.928,0,0,0-1.469.637,3.1,3.1,0,0,0-.734,1.785h4.234v-.109a2.753,2.753,0,0,0-.594-1.707A1.815,1.815,0,0,0,144.626,11.778Zm10.07,5.18a1.064,1.064,0,0,0-.441-.91,4.249,4.249,0,0,0-1.539-.559,7.277,7.277,0,0,1-1.742-.562,2.479,2.479,0,0,1-.953-.781,1.869,1.869,0,0,1-.309-1.078,2.193,2.193,0,0,1,.879-1.758,3.432,3.432,0,0,1,2.246-.719,3.532,3.532,0,0,1,2.332.742,2.357,2.357,0,0,1,.895,1.9h-1.453a1.3,1.3,0,0,0-.5-1.023,1.888,1.888,0,0,0-1.27-.43,1.976,1.976,0,0,0-1.234.344,1.082,1.082,0,0,0-.445.9.877.877,0,0,0,.414.789,5.1,5.1,0,0,0,1.5.508,7.8,7.8,0,0,1,1.754.578,2.558,2.558,0,0,1,1,.809,1.988,1.988,0,0,1,.324,1.152,2.163,2.163,0,0,1-.906,1.816,3.8,3.8,0,0,1-2.352.684,4.257,4.257,0,0,1-1.8-.359,2.922,2.922,0,0,1-1.223-1,2.42,2.42,0,0,1-.441-1.395h1.445a1.5,1.5,0,0,0,.582,1.152,2.258,2.258,0,0,0,1.434.426,2.331,2.331,0,0,0,1.316-.332A1.02,1.02,0,0,0,154.7,16.958Zm6.836,2.4a3.693,3.693,0,0,1-2.8-1.129,4.19,4.19,0,0,1-1.078-3.02v-.266a5.073,5.073,0,0,1,.48-2.246,3.748,3.748,0,0,1,1.344-1.547,3.378,3.378,0,0,1,1.871-.559,3.166,3.166,0,0,1,2.563,1.086,4.7,4.7,0,0,1,.914,3.109v.6H159.1a3,3,0,0,0,.73,2.02,2.3,2.3,0,0,0,1.777.77,2.517,2.517,0,0,0,1.3-.312,3.258,3.258,0,0,0,.93-.828l.883.688A3.55,3.55,0,0,1,161.533,19.356Zm-.18-7.578a1.928,1.928,0,0,0-1.469.637,3.1,3.1,0,0,0-.734,1.785h4.234v-.109a2.753,2.753,0,0,0-.594-1.707A1.815,1.815,0,0,0,161.353,11.778Zm6.516-1.031.047,1.063a3.08,3.08,0,0,1,2.531-1.219q2.68,0,2.7,3.023V19.2H171.7V13.606a1.946,1.946,0,0,0-.418-1.352,1.675,1.675,0,0,0-1.277-.437,2.086,2.086,0,0,0-1.234.375,2.546,2.546,0,0,0-.828.984V19.2H166.5V10.747ZM177.29,8.7v2.047h1.578v1.117H177.29v5.249a1.173,1.173,0,0,0,.211.763.888.888,0,0,0,.719.254,3.5,3.5,0,0,0,.688-.094V19.2a4.215,4.215,0,0,1-1.109.155,1.8,1.8,0,0,1-1.461-.586,2.517,2.517,0,0,1-.492-1.664V11.864h-1.539V10.747h1.539V8.7Zm8.484,10.5a3.036,3.036,0,0,1-.2-.891,3.225,3.225,0,0,1-2.406,1.047,2.984,2.984,0,0,1-2.051-.707,2.287,2.287,0,0,1-.8-1.793,2.39,2.39,0,0,1,1-2.051,4.733,4.733,0,0,1,2.824-.73h1.406v-.664A1.623,1.623,0,0,0,185.1,12.2a1.821,1.821,0,0,0-1.336-.449,2.107,2.107,0,0,0-1.3.391,1.151,1.151,0,0,0-.523.945h-1.453a2,2,0,0,1,.449-1.223,3.066,3.066,0,0,1,1.219-.934,4.1,4.1,0,0,1,1.691-.344,3.342,3.342,0,0,1,2.289.73,2.635,2.635,0,0,1,.859,2.012v3.891a4.757,4.757,0,0,0,.3,1.852V19.2Zm-2.4-1.1a2.54,2.54,0,0,0,1.289-.352,2.127,2.127,0,0,0,.883-.914V15.1h-1.133q-2.656,0-2.656,1.555a1.316,1.316,0,0,0,.453,1.063A1.742,1.742,0,0,0,183.376,18.1Zm13.352,1.258a3.693,3.693,0,0,1-2.8-1.129,4.19,4.19,0,0,1-1.078-3.02v-.266a5.073,5.073,0,0,1,.48-2.246,3.748,3.748,0,0,1,1.344-1.547,3.378,3.378,0,0,1,1.871-.559,3.166,3.166,0,0,1,2.563,1.086,4.7,4.7,0,0,1,.914,3.109v.6H194.3a3,3,0,0,0,.73,2.02,2.3,2.3,0,0,0,1.777.77,2.517,2.517,0,0,0,1.3-.312,3.258,3.258,0,0,0,.93-.828l.883.688A3.55,3.55,0,0,1,196.728,19.356Zm-.18-7.578a1.928,1.928,0,0,0-1.469.637,3.1,3.1,0,0,0-.734,1.785h4.234v-.109a2.753,2.753,0,0,0-.594-1.707A1.815,1.815,0,0,0,196.548,11.778Zm6.719,7.422h-1.445V7.2h1.445ZM2.664,38.4H1.219V29.947H2.664ZM1.1,27.7a.863.863,0,0,1,.215-.594.807.807,0,0,1,.637-.242.819.819,0,0,1,.641.242.854.854,0,0,1,.219.594.826.826,0,0,1-.219.586.834.834,0,0,1-.641.234.821.821,0,0,1-.637-.234A.834.834,0,0,1,1.1,27.7Zm5.242,2.242.047,1.063a3.08,3.08,0,0,1,2.531-1.219q2.68,0,2.7,3.023V38.4H10.18V32.806a1.946,1.946,0,0,0-.418-1.352,1.675,1.675,0,0,0-1.277-.437,2.086,2.086,0,0,0-1.234.375,2.546,2.546,0,0,0-.828.984V38.4H4.977V29.947Zm10.25,6.492,2.094-6.492h1.477L17.133,38.4h-1.1l-3.062-8.453h1.477ZM24.9,38.556a3.693,3.693,0,0,1-2.8-1.129,4.19,4.19,0,0,1-1.078-3.02v-.266a5.073,5.073,0,0,1,.48-2.246,3.748,3.748,0,0,1,1.344-1.547,3.378,3.378,0,0,1,1.871-.559,3.166,3.166,0,0,1,2.563,1.086,4.7,4.7,0,0,1,.914,3.109v.6H22.473a3,3,0,0,0,.73,2.02,2.3,2.3,0,0,0,1.777.77,2.517,2.517,0,0,0,1.3-.312,3.259,3.259,0,0,0,.93-.828l.883.688A3.55,3.55,0,0,1,24.9,38.556Zm-.18-7.578a1.928,1.928,0,0,0-1.469.637A3.1,3.1,0,0,0,22.52,33.4h4.234v-.109a2.753,2.753,0,0,0-.594-1.707A1.815,1.815,0,0,0,24.723,30.978Zm6.516-1.031.047,1.063a3.08,3.08,0,0,1,2.531-1.219q2.68,0,2.7,3.023V38.4H35.074V32.806a1.946,1.946,0,0,0-.418-1.352,1.675,1.675,0,0,0-1.277-.437,2.086,2.086,0,0,0-1.234.375,2.546,2.546,0,0,0-.828.984V38.4H29.871V29.947ZM40.66,27.9v2.047h1.578v1.117H40.66v5.249a1.173,1.173,0,0,0,.211.763.888.888,0,0,0,.719.254,3.5,3.5,0,0,0,.688-.094V38.4a4.215,4.215,0,0,1-1.109.155,1.8,1.8,0,0,1-1.461-.586,2.517,2.517,0,0,1-.492-1.664V31.064H37.676V29.947h1.539V27.9Zm8.484,10.5a3.036,3.036,0,0,1-.2-.891,3.225,3.225,0,0,1-2.406,1.047,2.984,2.984,0,0,1-2.051-.707,2.287,2.287,0,0,1-.8-1.793,2.39,2.39,0,0,1,1-2.051,4.733,4.733,0,0,1,2.824-.73h1.406v-.664a1.623,1.623,0,0,0-.453-1.207,1.821,1.821,0,0,0-1.336-.449,2.107,2.107,0,0,0-1.3.391,1.151,1.151,0,0,0-.523.945H43.856a2,2,0,0,1,.449-1.223,3.066,3.066,0,0,1,1.219-.934,4.1,4.1,0,0,1,1.691-.344,3.342,3.342,0,0,1,2.289.73,2.635,2.635,0,0,1,.859,2.012v3.891a4.757,4.757,0,0,0,.3,1.852V38.4Zm-2.4-1.1a2.54,2.54,0,0,0,1.289-.352,2.127,2.127,0,0,0,.883-.914V34.3H47.785q-2.656,0-2.656,1.555a1.316,1.316,0,0,0,.453,1.063A1.742,1.742,0,0,0,46.746,37.3Zm9.969-6.055A4.331,4.331,0,0,0,56,31.189a1.9,1.9,0,0,0-1.93,1.211v6H52.629V29.947h1.406l.023.977a2.251,2.251,0,0,1,2.016-1.133,1.477,1.477,0,0,1,.641.109Zm2.9,7.156H58.168V29.947h1.445ZM58.051,27.7a.863.863,0,0,1,.215-.594.807.807,0,0,1,.637-.242.819.819,0,0,1,.641.242.854.854,0,0,1,.219.594.826.826,0,0,1-.219.586.834.834,0,0,1-.641.234.821.821,0,0,1-.637-.234A.834.834,0,0,1,58.051,27.7ZM61.543,34.1a4.993,4.993,0,0,1,.488-2.234,3.643,3.643,0,0,1,1.359-1.531,3.7,3.7,0,0,1,1.988-.539,3.565,3.565,0,0,1,2.793,1.2,4.6,4.6,0,0,1,1.066,3.18v.1a5.036,5.036,0,0,1-.473,2.215,3.589,3.589,0,0,1-1.352,1.527,3.743,3.743,0,0,1-2.02.547,3.556,3.556,0,0,1-2.785-1.2A4.575,4.575,0,0,1,61.543,34.2ZM63,34.267a3.616,3.616,0,0,0,.652,2.258,2.211,2.211,0,0,0,3.5-.012,3.955,3.955,0,0,0,.648-2.418,3.61,3.61,0,0,0-.66-2.254,2.1,2.1,0,0,0-1.754-.863,2.075,2.075,0,0,0-1.727.852A3.925,3.925,0,0,0,63,34.267ZM75.5,38.4V31.064H74.16V29.947H75.5v-.719a2.937,2.937,0,0,1,.809-2.2,3.136,3.136,0,0,1,2.285-.789,6.881,6.881,0,0,1,2.211.477l-.242,1.219a5.008,5.008,0,0,0-1.859-.391,1.819,1.819,0,0,0-1.34.418,1.723,1.723,0,0,0-.41,1.254v.734h1.727v1.117H76.949V38.4Zm6.023,0H80.067V29.947H81.52Zm3.719-8.453.047,1.063a3.08,3.08,0,0,1,2.531-1.219q2.68,0,2.7,3.023V38.4H89.074V32.806a1.946,1.946,0,0,0-.418-1.352,1.675,1.675,0,0,0-1.277-.437,2.086,2.086,0,0,0-1.234.375,2.546,2.546,0,0,0-.828.984V38.4H83.871V29.947ZM97.918,38.4a3.036,3.036,0,0,1-.2-.891,3.225,3.225,0,0,1-2.406,1.047,2.984,2.984,0,0,1-2.051-.707,2.288,2.288,0,0,1-.8-1.793,2.39,2.39,0,0,1,1-2.051,4.733,4.733,0,0,1,2.824-.73h1.406v-.664a1.623,1.623,0,0,0-.453-1.207,1.821,1.821,0,0,0-1.336-.449,2.108,2.108,0,0,0-1.3.391,1.151,1.151,0,0,0-.523.945H92.629a2,2,0,0,1,.449-1.223,3.066,3.066,0,0,1,1.219-.934,4.1,4.1,0,0,1,1.691-.344,3.342,3.342,0,0,1,2.289.73,2.635,2.635,0,0,1,.859,2.012v3.891a4.757,4.757,0,0,0,.3,1.852V38.4Zm-2.4-1.1a2.54,2.54,0,0,0,1.289-.352,2.127,2.127,0,0,0,.883-.914V34.3H96.559q-2.656,0-2.656,1.555a1.316,1.316,0,0,0,.453,1.063A1.742,1.742,0,0,0,95.52,37.3Zm7.453,1.1h-1.445v-12h1.445Zm11.492,0a3.036,3.036,0,0,1-.2-.891,3.225,3.225,0,0,1-2.406,1.047,2.984,2.984,0,0,1-2.051-.707,2.288,2.288,0,0,1-.8-1.793,2.39,2.39,0,0,1,1-2.051,4.733,4.733,0,0,1,2.824-.73h1.406v-.664a1.623,1.623,0,0,0-.453-1.207,1.821,1.821,0,0,0-1.336-.449,2.108,2.108,0,0,0-1.3.391,1.151,1.151,0,0,0-.523.945h-1.453a2,2,0,0,1,.449-1.223,3.066,3.066,0,0,1,1.219-.934,4.1,4.1,0,0,1,1.691-.344,3.342,3.342,0,0,1,2.289.73,2.635,2.635,0,0,1,.859,2.012v3.891a4.757,4.757,0,0,0,.3,1.852V38.4Zm-2.4-1.1a2.54,2.54,0,0,0,1.289-.352,2.127,2.127,0,0,0,.883-.914V34.3h-1.133q-2.656,0-2.656,1.555a1.316,1.316,0,0,0,.453,1.063A1.742,1.742,0,0,0,112.067,37.3Zm7.453,1.1h-1.445v-12h1.445Zm9.664-1.023a2.082,2.082,0,0,0,1.352-.469,1.649,1.649,0,0,0,.641-1.172h1.367a2.621,2.621,0,0,1-.5,1.383,3.293,3.293,0,0,1-1.23,1.047,3.55,3.55,0,0,1-1.629.391,3.482,3.482,0,0,1-2.746-1.152,4.59,4.59,0,0,1-1.02-3.152v-.242a5.089,5.089,0,0,1,.453-2.2,3.451,3.451,0,0,1,1.3-1.492,3.7,3.7,0,0,1,2-.531,3.39,3.39,0,0,1,2.363.852,3.043,3.043,0,0,1,1,2.211h-1.367a1.992,1.992,0,0,0-.621-1.348,1.932,1.932,0,0,0-1.379-.527,2.023,2.023,0,0,0-1.707.793,3.724,3.724,0,0,0-.605,2.293v.273a3.65,3.65,0,0,0,.6,2.25A2.033,2.033,0,0,0,129.184,37.377Zm4.6-3.281a4.993,4.993,0,0,1,.488-2.234,3.642,3.642,0,0,1,1.359-1.531,3.7,3.7,0,0,1,1.988-.539,3.565,3.565,0,0,1,2.793,1.2,4.6,4.6,0,0,1,1.066,3.18v.1a5.036,5.036,0,0,1-.473,2.215,3.589,3.589,0,0,1-1.352,1.527,3.743,3.743,0,0,1-2.02.547,3.556,3.556,0,0,1-2.785-1.2,4.575,4.575,0,0,1-1.066-3.164Zm1.453.172a3.616,3.616,0,0,0,.652,2.258,2.211,2.211,0,0,0,3.5-.012,3.954,3.954,0,0,0,.648-2.418,3.61,3.61,0,0,0-.66-2.254,2.1,2.1,0,0,0-1.754-.863,2.075,2.075,0,0,0-1.727.852A3.925,3.925,0,0,0,135.238,34.267Zm12.977,1.891a1.064,1.064,0,0,0-.441-.91,4.249,4.249,0,0,0-1.539-.559,7.277,7.277,0,0,1-1.742-.562,2.479,2.479,0,0,1-.953-.781,1.869,1.869,0,0,1-.309-1.078,2.193,2.193,0,0,1,.879-1.758,3.432,3.432,0,0,1,2.246-.719,3.532,3.532,0,0,1,2.332.742,2.357,2.357,0,0,1,.895,1.9h-1.453a1.3,1.3,0,0,0-.5-1.023,1.888,1.888,0,0,0-1.27-.43,1.976,1.976,0,0,0-1.234.344,1.082,1.082,0,0,0-.445.9.877.877,0,0,0,.414.789,5.1,5.1,0,0,0,1.5.508,7.8,7.8,0,0,1,1.754.578,2.558,2.558,0,0,1,1,.809,1.988,1.988,0,0,1,.324,1.152,2.163,2.163,0,0,1-.906,1.816,3.8,3.8,0,0,1-2.352.684,4.257,4.257,0,0,1-1.8-.359,2.922,2.922,0,0,1-1.223-1,2.42,2.42,0,0,1-.441-1.395h1.445a1.5,1.5,0,0,0,.582,1.152,2.258,2.258,0,0,0,1.434.426,2.331,2.331,0,0,0,1.316-.332A1.02,1.02,0,0,0,148.215,36.158ZM153.5,27.9v2.047h1.578v1.117H153.5v5.249a1.173,1.173,0,0,0,.211.763.888.888,0,0,0,.719.254,3.5,3.5,0,0,0,.688-.094V38.4a4.215,4.215,0,0,1-1.109.155,1.8,1.8,0,0,1-1.461-.586,2.517,2.517,0,0,1-.492-1.664V31.064H150.52V29.947h1.539V27.9Zm2.567,6.2a4.993,4.993,0,0,1,.488-2.234,3.642,3.642,0,0,1,1.359-1.531,3.7,3.7,0,0,1,1.988-.539,3.565,3.565,0,0,1,2.793,1.2,4.6,4.6,0,0,1,1.066,3.18v.1a5.036,5.036,0,0,1-.473,2.215,3.589,3.589,0,0,1-1.352,1.527,3.743,3.743,0,0,1-2.02.547,3.556,3.556,0,0,1-2.785-1.2,4.575,4.575,0,0,1-1.066-3.164Zm1.453.172a3.616,3.616,0,0,0,.652,2.258,2.211,2.211,0,0,0,3.5-.012,3.954,3.954,0,0,0,.648-2.418,3.61,3.61,0,0,0-.66-2.254,2.1,2.1,0,0,0-1.754-.863,2.075,2.075,0,0,0-1.727.852A3.925,3.925,0,0,0,157.524,34.267ZM174.758,38.4a3.036,3.036,0,0,1-.2-.891,3.225,3.225,0,0,1-2.406,1.047,2.984,2.984,0,0,1-2.051-.707,2.287,2.287,0,0,1-.8-1.793,2.39,2.39,0,0,1,1-2.051,4.733,4.733,0,0,1,2.824-.73h1.406v-.664a1.623,1.623,0,0,0-.453-1.207,1.821,1.821,0,0,0-1.336-.449,2.107,2.107,0,0,0-1.3.391,1.151,1.151,0,0,0-.523.945h-1.453a2,2,0,0,1,.449-1.223,3.066,3.066,0,0,1,1.219-.934,4.1,4.1,0,0,1,1.691-.344,3.342,3.342,0,0,1,2.289.73,2.635,2.635,0,0,1,.859,2.012v3.891a4.757,4.757,0,0,0,.3,1.852V38.4Zm-2.4-1.1a2.54,2.54,0,0,0,1.289-.352,2.127,2.127,0,0,0,.883-.914V34.3H173.4q-2.656,0-2.656,1.555a1.316,1.316,0,0,0,.453,1.063A1.742,1.742,0,0,0,172.36,37.3Zm9.273.078a2.082,2.082,0,0,0,1.352-.469,1.649,1.649,0,0,0,.641-1.172h1.367a2.621,2.621,0,0,1-.5,1.383,3.293,3.293,0,0,1-1.23,1.047,3.55,3.55,0,0,1-1.629.391,3.482,3.482,0,0,1-2.746-1.152,4.59,4.59,0,0,1-1.02-3.152v-.242a5.089,5.089,0,0,1,.453-2.2,3.451,3.451,0,0,1,1.3-1.492,3.7,3.7,0,0,1,2-.531,3.39,3.39,0,0,1,2.363.852,3.043,3.043,0,0,1,1,2.211h-1.367A1.992,1.992,0,0,0,183,31.505a1.932,1.932,0,0,0-1.379-.527,2.023,2.023,0,0,0-1.707.793,3.724,3.724,0,0,0-.605,2.293v.273a3.65,3.65,0,0,0,.6,2.25A2.033,2.033,0,0,0,181.633,37.377Zm6.945-9.477v2.047h1.578v1.117h-1.578v5.249a1.173,1.173,0,0,0,.211.763.888.888,0,0,0,.719.254,3.5,3.5,0,0,0,.688-.094V38.4a4.215,4.215,0,0,1-1.109.155,1.8,1.8,0,0,1-1.461-.586,2.517,2.517,0,0,1-.492-1.664V31.064h-1.539V29.947h1.539V27.9Zm8.484,9.664a3.07,3.07,0,0,1-2.477.992,2.628,2.628,0,0,1-2.059-.785,3.4,3.4,0,0,1-.715-2.324v-5.5h1.445v5.461q0,1.922,1.563,1.922a2.163,2.163,0,0,0,2.2-1.234V29.947h1.445V38.4h-1.375Zm8.82.836a3.036,3.036,0,0,1-.2-.891,3.225,3.225,0,0,1-2.406,1.047,2.984,2.984,0,0,1-2.051-.707,2.287,2.287,0,0,1-.8-1.793,2.39,2.39,0,0,1,1-2.051,4.733,4.733,0,0,1,2.824-.73h1.406v-.664A1.623,1.623,0,0,0,205.2,31.4a1.821,1.821,0,0,0-1.336-.449,2.107,2.107,0,0,0-1.3.391,1.151,1.151,0,0,0-.523.945h-1.453a2,2,0,0,1,.449-1.223,3.066,3.066,0,0,1,1.219-.934,4.1,4.1,0,0,1,1.691-.344,3.342,3.342,0,0,1,2.289.73,2.635,2.635,0,0,1,.859,2.012v3.891a4.757,4.757,0,0,0,.3,1.852V38.4Zm-2.4-1.1a2.54,2.54,0,0,0,1.289-.352,2.127,2.127,0,0,0,.883-.914V34.3h-1.133q-2.656,0-2.656,1.555a1.316,1.316,0,0,0,.453,1.063A1.742,1.742,0,0,0,203.485,37.3Zm7.453,1.1h-1.445v-12h1.445Zm2.344-.758a.905.905,0,0,1,.223-.625.848.848,0,0,1,.668-.25.874.874,0,0,1,.676.25.887.887,0,0,1,.23.625.839.839,0,0,1-.23.6.89.89,0,0,1-.676.242.8.8,0,0,1-.891-.844Z" transform="translate(-5173.04 -13014.977)" fill="#344154"/>
    <path id="Trazado_108033" data-name="Trazado 108033" d="M366.13,219.86H121.7v76.63H366.13l24.78-38.31Z" transform="translate(-5302.07 -13157.116)" fill="#aed3f2"/>
    <path id="Trazado_108034" data-name="Trazado 108034" d="M139,239.49a4,4,0,0,1-1.36,2.89,4.76,4.76,0,0,1-3.22,1.05A4.28,4.28,0,0,1,131,242a6,6,0,0,1-1.25-4v-.7a6.9,6.9,0,0,1,.57-2.89,4.4,4.4,0,0,1,1.66-1.92,5.13,5.13,0,0,1,5.66.39,4.26,4.26,0,0,1,1.39,3h-2.34a2.39,2.39,0,0,0-.61-1.6,2.28,2.28,0,0,0-1.61-.49,2,2,0,0,0-1.75.84,4.66,4.66,0,0,0-.6,2.6V238a5.08,5.08,0,0,0,.56,2.7,2,2,0,0,0,1.76.85A2.33,2.33,0,0,0,136,241a2.21,2.21,0,0,0,.61-1.53Z" transform="translate(-5302.07 -13157.116)" fill="#344154"/>
    <path id="Trazado_108035" data-name="Trazado 108035" d="M149.86,237.84a7,7,0,0,1-.59,2.95,4.5,4.5,0,0,1-1.7,2,4.69,4.69,0,0,1-2.54.69,4.76,4.76,0,0,1-2.52-.68,4.52,4.52,0,0,1-1.72-1.94,6.68,6.68,0,0,1-.62-2.9v-.57a6.88,6.88,0,0,1,.61-3,4.44,4.44,0,0,1,1.71-2,5,5,0,0,1,5.06,0,4.57,4.57,0,0,1,1.71,2,6.85,6.85,0,0,1,.6,3Zm-2.37-.51a4.86,4.86,0,0,0-.64-2.72,2.26,2.26,0,0,0-3.65,0,4.66,4.66,0,0,0-.65,2.69v.55a4.83,4.83,0,0,0,.64,2.71,2.24,2.24,0,0,0,3.66,0,4.84,4.84,0,0,0,.64-2.7Z" transform="translate(-5302.07 -13157.116)" fill="#344154"/>
    <path id="Trazado_108036" data-name="Trazado 108036" d="M157.46,240.29a1.19,1.19,0,0,0-.47-1,5.9,5.9,0,0,0-1.68-.75,10.888,10.888,0,0,1-1.93-.78,3.14,3.14,0,0,1-1.94-2.82,2.72,2.72,0,0,1,.52-1.64,3.4,3.4,0,0,1,1.49-1.13,5.65,5.65,0,0,1,2.18-.41,5.21,5.21,0,0,1,2.18.44,3.5,3.5,0,0,1,1.48,1.25,3.29,3.29,0,0,1,.52,1.83h-2.34A1.54,1.54,0,0,0,157,234a2.07,2.07,0,0,0-1.38-.43,2.18,2.18,0,0,0-1.34.36,1.15,1.15,0,0,0-.48,1,1.1,1.1,0,0,0,.56.93,6.28,6.28,0,0,0,1.65.7,7,7,0,0,1,2.91,1.5,3,3,0,0,1,.91,2.21,2.74,2.74,0,0,1-1.11,2.32,4.91,4.91,0,0,1-3,.84,5.8,5.8,0,0,1-2.39-.48,3.79,3.79,0,0,1-1.65-1.32,3.39,3.39,0,0,1-.56-1.93h2.35c0,1.25.75,1.88,2.25,1.88a2.14,2.14,0,0,0,1.3-.34,1.09,1.09,0,0,0,.44-.95Z" transform="translate(-5302.07 -13157.116)" fill="#344154"/>
    <path id="Trazado_108037" data-name="Trazado 108037" d="M170,233.8h-3.48v9.47h-2.35V233.8H160.7v-1.9H170Z" transform="translate(-5302.07 -13157.116)" fill="#344154"/>
    <path id="Trazado_108038" data-name="Trazado 108038" d="M180.42,237.84a6.82,6.82,0,0,1-.59,2.95,4.5,4.5,0,0,1-1.7,2,4.68,4.68,0,0,1-2.53.69,4.77,4.77,0,0,1-2.53-.68,4.52,4.52,0,0,1-1.72-1.94,6.68,6.68,0,0,1-.61-2.9v-.57a6.88,6.88,0,0,1,.6-3,4.57,4.57,0,0,1,1.71-2,5,5,0,0,1,5.06,0,4.57,4.57,0,0,1,1.71,2,6.85,6.85,0,0,1,.6,3Zm-2.37-.51a4.77,4.77,0,0,0-.64-2.72,2.26,2.26,0,0,0-3.65,0,4.74,4.74,0,0,0-.65,2.69v.55a4.83,4.83,0,0,0,.64,2.71,2.09,2.09,0,0,0,1.85,1,2.06,2.06,0,0,0,1.81-.93,4.84,4.84,0,0,0,.64-2.7Z" transform="translate(-5302.07 -13157.116)" fill="#344154"/>
    <path id="Trazado_108039" data-name="Trazado 108039" d="M188.46,239.27v4h-2.35V231.9h4.44a5.17,5.17,0,0,1,2.25.47,3.41,3.41,0,0,1,1.5,1.33,3.72,3.72,0,0,1,.52,2,3.26,3.26,0,0,1-1.14,2.63,4.8,4.8,0,0,1-3.17,1Zm0-1.9h2.09a2.08,2.08,0,0,0,1.42-.44,1.61,1.61,0,0,0,.49-1.25,1.77,1.77,0,0,0-1.86-1.88h-2.14Z" transform="translate(-5302.07 -13157.116)" fill="#344154"/>
    <path id="Trazado_108040" data-name="Trazado 108040" d="M200.64,239.11h-1.86v4.16h-2.35V231.9h4.23a4.78,4.78,0,0,1,3.11.9,3.09,3.09,0,0,1,1.09,2.54,3.56,3.56,0,0,1-.5,1.94,3.49,3.49,0,0,1-1.53,1.24l2.46,4.65v.1h-2.51Zm-1.86-1.9h1.89a1.92,1.92,0,0,0,1.36-.45,1.58,1.58,0,0,0,.49-1.24,1.7,1.7,0,0,0-.46-1.26,1.88,1.88,0,0,0-1.4-.46h-1.88Z" transform="translate(-5302.07 -13157.116)" fill="#344154"/>
    <path id="Trazado_108041" data-name="Trazado 108041" d="M216,237.84a6.81,6.81,0,0,1-.6,2.95,4.44,4.44,0,0,1-1.7,2,4.66,4.66,0,0,1-2.53.69,4.79,4.79,0,0,1-2.53-.68,4.5,4.5,0,0,1-1.71-1.94,6.54,6.54,0,0,1-.62-2.9v-.57a6.88,6.88,0,0,1,.6-3,4.52,4.52,0,0,1,1.72-2,4.63,4.63,0,0,1,2.52-.69,4.68,4.68,0,0,1,2.53.69,4.44,4.44,0,0,1,1.71,2,6.85,6.85,0,0,1,.61,3Zm-2.38-.51a4.77,4.77,0,0,0-.64-2.72,2.26,2.26,0,0,0-3.65,0,4.82,4.82,0,0,0-.65,2.69v.55a4.91,4.91,0,0,0,.64,2.71,2.1,2.1,0,0,0,1.85,1,2.06,2.06,0,0,0,1.81-.93,4.76,4.76,0,0,0,.64-2.7Z" transform="translate(-5302.07 -13157.116)" fill="#344154"/>
    <path id="Trazado_108042" data-name="Trazado 108042" d="M220.75,231.9l2.92,8.25,2.91-8.25h3.08v11.37h-2.35v-3.1l.23-5.37-3.07,8.47h-1.61l-3.06-8.46.23,5.36v3.1h-2.34V231.9Z" transform="translate(-5302.07 -13157.116)" fill="#344154"/>
    <path id="Trazado_108043" data-name="Trazado 108043" d="M238.55,238.34h-4.5v3h5.28v1.88h-7.62V231.9h7.6v1.9h-5.26v2.71h4.5Z" transform="translate(-5302.07 -13157.116)" fill="#344154"/>
    <path id="Trazado_108044" data-name="Trazado 108044" d="M240.71,243.27V231.9h3.5a5.21,5.21,0,0,1,2.68.68,4.75,4.75,0,0,1,1.85,1.92,5.94,5.94,0,0,1,.66,2.83v.52a6,6,0,0,1-.65,2.82,4.73,4.73,0,0,1-1.84,1.92,5.34,5.34,0,0,1-2.68.68Zm2.34-9.47v7.59h1.13a2.53,2.53,0,0,0,2.1-.9,4,4,0,0,0,.75-2.57v-.6a4.14,4.14,0,0,0-.72-2.63,2.55,2.55,0,0,0-2.1-.89Z" transform="translate(-5302.07 -13157.116)" fill="#344154"/>
    <path id="Trazado_108045" data-name="Trazado 108045" d="M253.6,243.27h-2.35V231.9h2.35Z" transform="translate(-5302.07 -13157.116)" fill="#344154"/>
    <path id="Trazado_108046" data-name="Trazado 108046" d="M265.11,237.84a7,7,0,0,1-.59,2.95,4.5,4.5,0,0,1-1.7,2,4.69,4.69,0,0,1-2.54.69,4.76,4.76,0,0,1-2.52-.68,4.52,4.52,0,0,1-1.72-1.94,6.679,6.679,0,0,1-.62-2.9v-.57a6.88,6.88,0,0,1,.61-3,4.44,4.44,0,0,1,1.71-2,5,5,0,0,1,5.06,0,4.57,4.57,0,0,1,1.71,2,6.85,6.85,0,0,1,.6,3Zm-2.37-.51a4.86,4.86,0,0,0-.64-2.72,2.26,2.26,0,0,0-3.65,0,4.66,4.66,0,0,0-.65,2.69v.55a4.83,4.83,0,0,0,.64,2.71,2.24,2.24,0,0,0,3.66,0,4.84,4.84,0,0,0,.64-2.7Z" transform="translate(-5302.07 -13157.116)" fill="#344154"/>
    <path id="Trazado_108047" data-name="Trazado 108047" d="M273.14,239.27v4H270.8V231.9h4.44a5.17,5.17,0,0,1,2.25.47,3.41,3.41,0,0,1,1.5,1.33,3.72,3.72,0,0,1,.52,2,3.26,3.26,0,0,1-1.14,2.63,4.8,4.8,0,0,1-3.17,1Zm0-1.9h2.1a2,2,0,0,0,1.41-.44,1.58,1.58,0,0,0,.49-1.25,1.75,1.75,0,0,0-1.85-1.88h-2.15Z" transform="translate(-5302.07 -13157.116)" fill="#344154"/>
    <path id="Trazado_108048" data-name="Trazado 108048" d="M290.46,237.84a6.82,6.82,0,0,1-.59,2.95,4.5,4.5,0,0,1-1.7,2,4.69,4.69,0,0,1-2.54.69,4.76,4.76,0,0,1-2.52-.68,4.52,4.52,0,0,1-1.72-1.94,6.68,6.68,0,0,1-.61-2.9v-.57a6.88,6.88,0,0,1,.6-3,4.44,4.44,0,0,1,1.71-2,5,5,0,0,1,5.06,0,4.57,4.57,0,0,1,1.71,2,6.85,6.85,0,0,1,.6,3Zm-2.37-.51a4.86,4.86,0,0,0-.64-2.72,2.26,2.26,0,0,0-3.65,0,4.74,4.74,0,0,0-.65,2.69v.55a4.83,4.83,0,0,0,.64,2.71,2.24,2.24,0,0,0,3.66,0,4.84,4.84,0,0,0,.64-2.7Z" transform="translate(-5302.07 -13157.116)" fill="#344154"/>
    <path id="Trazado_108049" data-name="Trazado 108049" d="M301.42,243.27h-2.35l-4.56-7.48v7.48h-2.34V231.9h2.34l4.57,7.5v-7.5h2.34Z" transform="translate(-5302.07 -13157.116)" fill="#344154"/>
    <path id="Trazado_108050" data-name="Trazado 108050" d="M303.46,243.27V231.9H307a5.25,5.25,0,0,1,2.69.68,4.67,4.67,0,0,1,1.84,1.92,5.83,5.83,0,0,1,.67,2.83v.52a6,6,0,0,1-.65,2.82,4.731,4.731,0,0,1-1.84,1.92,5.37,5.37,0,0,1-2.68.68Zm2.35-9.47v7.59h1.13a2.53,2.53,0,0,0,2.1-.9,4,4,0,0,0,.74-2.57v-.6a4.14,4.14,0,0,0-.72-2.63,2.54,2.54,0,0,0-2.1-.89Z" transform="translate(-5302.07 -13157.116)" fill="#344154"/>
    <path id="Trazado_108051" data-name="Trazado 108051" d="M320.71,238.34h-4.5v3h5.28v1.88h-7.63V231.9h7.61v1.9h-5.26v2.71h4.5Z" transform="translate(-5302.07 -13157.116)" fill="#344154"/>
    <path id="Trazado_108052" data-name="Trazado 108052" d="M327.07,239.11h-1.86v4.16h-2.35V231.9h4.23a4.78,4.78,0,0,1,3.11.9,3.09,3.09,0,0,1,1.09,2.54,3.56,3.56,0,0,1-.5,1.94,3.49,3.49,0,0,1-1.53,1.24l2.46,4.65v.1h-2.51Zm-1.86-1.9h1.89a1.92,1.92,0,0,0,1.36-.45,1.58,1.58,0,0,0,.49-1.24,1.7,1.7,0,0,0-.46-1.26,1.88,1.88,0,0,0-1.4-.46h-1.88Z" transform="translate(-5302.07 -13157.116)" fill="#344154"/>
    <path id="Trazado_108053" data-name="Trazado 108053" d="M339.49,240.93h-4.11l-.78,2.34h-2.49l4.24-11.37h2.17l4.26,11.37h-2.5ZM336,239h2.84l-1.43-4.26Z" transform="translate(-5302.07 -13157.116)" fill="#344154"/>
    <path id="Trazado_108054" data-name="Trazado 108054" d="M343.84,243.27V231.9h3.5a5.21,5.21,0,0,1,2.68.68,4.69,4.69,0,0,1,1.85,1.92,5.94,5.94,0,0,1,.66,2.83v.52a5.87,5.87,0,0,1-.65,2.82,4.67,4.67,0,0,1-1.84,1.92,5.31,5.31,0,0,1-2.68.68Zm2.34-9.47v7.59h1.13a2.56,2.56,0,0,0,2.11-.9,4.07,4.07,0,0,0,.74-2.57v-.6a4.14,4.14,0,0,0-.72-2.63,2.55,2.55,0,0,0-2.1-.89Z" transform="translate(-5302.07 -13157.116)" fill="#344154"/>
    <path id="Trazado_108055" data-name="Trazado 108055" d="M363.58,237.84a7,7,0,0,1-.59,2.95,4.57,4.57,0,0,1-1.7,2,4.69,4.69,0,0,1-2.54.69,4.76,4.76,0,0,1-2.52-.68,4.52,4.52,0,0,1-1.72-1.94,6.681,6.681,0,0,1-.62-2.9v-.57a6.73,6.73,0,0,1,.61-3,4.44,4.44,0,0,1,1.71-2,5,5,0,0,1,5.05,0,4.44,4.44,0,0,1,1.71,2,6.7,6.7,0,0,1,.61,3Zm-2.37-.51a4.77,4.77,0,0,0-.65-2.72,2.25,2.25,0,0,0-3.64,0,4.66,4.66,0,0,0-.65,2.69v.55a4.83,4.83,0,0,0,.64,2.71,2.08,2.08,0,0,0,1.84,1,2.05,2.05,0,0,0,1.81-.93,4.76,4.76,0,0,0,.65-2.7Z" transform="translate(-5302.07 -13157.116)" fill="#344154"/>
    <path id="Trazado_108056" data-name="Trazado 108056" d="M364.3,242.17a1.15,1.15,0,0,1,.36-.88,1.4,1.4,0,0,1,1.83,0,1.15,1.15,0,0,1,.36.88,1.12,1.12,0,0,1-.36.86,1.43,1.43,0,0,1-1.83,0,1.12,1.12,0,0,1-.36-.86Z" transform="translate(-5302.07 -13157.116)" fill="#344154"/>
    <path id="Trazado_108057" data-name="Trazado 108057" d="M136.78,257.22h-4.93v4h5.73v1.22h-7.23V251.1h7.15v1.23h-5.65V256h4.93Z" transform="translate(-5302.07 -13157.116)" fill="#344154"/>
    <path id="Trazado_108058" data-name="Trazado 108058" d="M144.14,260.23a1.05,1.05,0,0,0-.44-.91,4.43,4.43,0,0,0-1.54-.56,7,7,0,0,1-1.74-.56,2.45,2.45,0,0,1-.95-.78,1.83,1.83,0,0,1-.31-1.08,2.19,2.19,0,0,1,.88-1.76,3.4,3.4,0,0,1,2.24-.72,3.53,3.53,0,0,1,2.34.75,2.36,2.36,0,0,1,.89,1.9h-1.45a1.31,1.31,0,0,0-.51-1,1.91,1.91,0,0,0-1.27-.43,2,2,0,0,0-1.23.35,1.06,1.06,0,0,0-.45.89.87.87,0,0,0,.42.79,4.85,4.85,0,0,0,1.49.51,7.86,7.86,0,0,1,1.76.58,2.41,2.41,0,0,1,1,.81,2,2,0,0,1,.33,1.15,2.16,2.16,0,0,1-.91,1.82,3.83,3.83,0,0,1-2.35.68,4.25,4.25,0,0,1-1.8-.36,2.89,2.89,0,0,1-1.22-1,2.47,2.47,0,0,1-.44-1.4h1.44a1.51,1.51,0,0,0,.59,1.16,2.27,2.27,0,0,0,1.43.42,2.35,2.35,0,0,0,1.32-.33A1,1,0,0,0,144.14,260.23Z" transform="translate(-5302.07 -13157.116)" fill="#344154"/>
    <path id="Trazado_108059" data-name="Trazado 108059" d="M154.94,262.63a3.71,3.71,0,0,1-2.8-1.13,4.18,4.18,0,0,1-1.08-3v-.26a5,5,0,0,1,.49-2.25,3.75,3.75,0,0,1,1.34-1.55,3.39,3.39,0,0,1,1.87-.56,3.17,3.17,0,0,1,2.56,1.09,4.69,4.69,0,0,1,.92,3.11v.6h-5.73a3,3,0,0,0,.73,2,2.32,2.32,0,0,0,1.78.77,2.47,2.47,0,0,0,1.29-.31,3.2,3.2,0,0,0,.93-.83l.89.69a3.55,3.55,0,0,1-3.19,1.63Zm-.18-7.58a1.93,1.93,0,0,0-1.47.64,3.09,3.09,0,0,0-.73,1.78h4.23v-.11a2.75,2.75,0,0,0-.59-1.7,1.82,1.82,0,0,0-1.44-.61Z" transform="translate(-5302.07 -13157.116)" fill="#344154"/>
    <path id="Trazado_108060" data-name="Trazado 108060" d="M161.48,262.47H160v-12h1.45Z" transform="translate(-5302.07 -13157.116)" fill="#344154"/>
    <path id="Trazado_108061" data-name="Trazado 108061" d="M171.14,261.45a2.07,2.07,0,0,0,1.35-.47,1.62,1.62,0,0,0,.64-1.17h1.37a2.53,2.53,0,0,1-.5,1.38,3.32,3.32,0,0,1-1.23,1.05,3.53,3.53,0,0,1-1.63.39,3.46,3.46,0,0,1-2.74-1.15,4.59,4.59,0,0,1-1-3.15v-.25a5.1,5.1,0,0,1,.45-2.19,3.44,3.44,0,0,1,1.3-1.49,3.65,3.65,0,0,1,2-.54,3.4,3.4,0,0,1,2.37.86,3,3,0,0,1,1,2.21h-1.37a2.072,2.072,0,0,0-3.7-1.08,3.66,3.66,0,0,0-.61,2.29v.27a3.63,3.63,0,0,0,.6,2.25A2,2,0,0,0,171.14,261.45Z" transform="translate(-5302.07 -13157.116)" fill="#344154"/>
    <path id="Trazado_108062" data-name="Trazado 108062" d="M175.74,258.17a5,5,0,0,1,.49-2.23,3.66,3.66,0,0,1,1.36-1.54,3.71,3.71,0,0,1,2-.54,3.55,3.55,0,0,1,2.79,1.2,4.62,4.62,0,0,1,1.07,3.18v.1a5.16,5.16,0,0,1-.47,2.22,3.63,3.63,0,0,1-1.35,1.52,3.71,3.71,0,0,1-2,.55,3.58,3.58,0,0,1-2.79-1.19,4.61,4.61,0,0,1-1.07-3.17Zm1.46.17a3.59,3.59,0,0,0,.65,2.26,2.218,2.218,0,0,0,3.5-.01,4,4,0,0,0,.64-2.42,3.58,3.58,0,0,0-.66-2.25,2.08,2.08,0,0,0-1.75-.87,2.11,2.11,0,0,0-1.73.85,4,4,0,0,0-.65,2.44Z" transform="translate(-5302.07 -13157.116)" fill="#344154"/>
    <path id="Trazado_108063" data-name="Trazado 108063" d="M190.17,260.23a1.05,1.05,0,0,0-.44-.91,4.341,4.341,0,0,0-1.54-.56,7,7,0,0,1-1.74-.56,2.45,2.45,0,0,1-.95-.78,1.83,1.83,0,0,1-.31-1.08,2.19,2.19,0,0,1,.88-1.76,3.4,3.4,0,0,1,2.24-.72,3.53,3.53,0,0,1,2.34.75,2.36,2.36,0,0,1,.89,1.9h-1.45a1.31,1.31,0,0,0-.51-1,1.91,1.91,0,0,0-1.27-.43,2,2,0,0,0-1.23.35,1.06,1.06,0,0,0-.45.89.87.87,0,0,0,.42.79,4.84,4.84,0,0,0,1.5.51,7.939,7.939,0,0,1,1.75.58,2.51,2.51,0,0,1,1,.81,2,2,0,0,1,.32,1.15,2.16,2.16,0,0,1-.91,1.82,3.83,3.83,0,0,1-2.35.68,4.29,4.29,0,0,1-1.8-.36,3,3,0,0,1-1.22-1,2.47,2.47,0,0,1-.44-1.4h1.45a1.5,1.5,0,0,0,.58,1.16,2.27,2.27,0,0,0,1.43.42,2.35,2.35,0,0,0,1.32-.33A1,1,0,0,0,190.17,260.23Z" transform="translate(-5302.07 -13157.116)" fill="#344154"/>
    <path id="Trazado_108064" data-name="Trazado 108064" d="M195.46,252v2H197v1.12h-1.58v5.25a1.17,1.17,0,0,0,.21.76.89.89,0,0,0,.72.25,3.613,3.613,0,0,0,.69-.09v1.17a4.351,4.351,0,0,1-1.11.15,1.77,1.77,0,0,1-1.46-.59,2.49,2.49,0,0,1-.49-1.66v-5.24h-1.54V254H194v-2Z" transform="translate(-5302.07 -13157.116)" fill="#344154"/>
    <path id="Trazado_108065" data-name="Trazado 108065" d="M198.19,258.17a4.91,4.91,0,0,1,.49-2.23A3.59,3.59,0,0,1,200,254.4a3.69,3.69,0,0,1,2-.54,3.55,3.55,0,0,1,2.79,1.2,4.61,4.61,0,0,1,1.06,3.18v.1a5,5,0,0,1-.47,2.22,3.5,3.5,0,0,1-1.35,1.52,3.71,3.71,0,0,1-2,.55,3.57,3.57,0,0,1-2.78-1.19,4.61,4.61,0,0,1-1.07-3.17Zm1.45.17a3.59,3.59,0,0,0,.66,2.26,2.21,2.21,0,0,0,3.49,0,4,4,0,0,0,.65-2.42,3.58,3.58,0,0,0-.66-2.25,2.19,2.19,0,0,0-3.48,0A3.92,3.92,0,0,0,199.64,258.34Z" transform="translate(-5302.07 -13157.116)" fill="#344154"/>
    <path id="Trazado_108066" data-name="Trazado 108066" d="M218.8,258.34a5.12,5.12,0,0,1-.88,3.11,2.83,2.83,0,0,1-2.39,1.18,3.09,3.09,0,0,1-2.43-1v4.07h-1.44V254H213l.07.94a3,3,0,0,1,2.45-1.1,2.89,2.89,0,0,1,2.41,1.15,5.14,5.14,0,0,1,.89,3.2Zm-1.45-.16a3.7,3.7,0,0,0-.61-2.26,2,2,0,0,0-1.67-.83,2.13,2.13,0,0,0-2,1.17v4a2.13,2.13,0,0,0,2,1.16,2,2,0,0,0,1.65-.82,4.08,4.08,0,0,0,.63-2.42Z" transform="translate(-5302.07 -13157.116)" fill="#344154"/>
    <path id="Trazado_108067" data-name="Trazado 108067" d="M224.72,255.32a3.92,3.92,0,0,0-.71-.06,1.91,1.91,0,0,0-1.93,1.21v6h-1.45V254H222v1a2.26,2.26,0,0,1,2-1.14,1.53,1.53,0,0,1,.64.11Z" transform="translate(-5302.07 -13157.116)" fill="#344154"/>
    <path id="Trazado_108068" data-name="Trazado 108068" d="M225.51,258.17a4.91,4.91,0,0,1,.49-2.23,3.59,3.59,0,0,1,1.36-1.54,3.69,3.69,0,0,1,2-.54,3.55,3.55,0,0,1,2.79,1.2,4.62,4.62,0,0,1,1.07,3.18v.1a5,5,0,0,1-.48,2.22,3.5,3.5,0,0,1-1.35,1.52,3.69,3.69,0,0,1-2,.55,3.57,3.57,0,0,1-2.78-1.19,4.61,4.61,0,0,1-1.07-3.17Zm1.45.17a3.59,3.59,0,0,0,.66,2.26,2.21,2.21,0,0,0,3.49,0,4,4,0,0,0,.65-2.42,3.58,3.58,0,0,0-.66-2.25,2.19,2.19,0,0,0-3.48,0,3.92,3.92,0,0,0-.62,2.41Z" transform="translate(-5302.07 -13157.116)" fill="#344154"/>
    <path id="Trazado_108069" data-name="Trazado 108069" d="M236.38,254v.94a3.11,3.11,0,0,1,2.5-1.1,2.43,2.43,0,0,1,2.42,1.36,3.18,3.18,0,0,1,2.69-1.36c1.86,0,2.8,1,2.83,2.95v5.66h-1.44V256.9a1.93,1.93,0,0,0-.42-1.36,1.81,1.81,0,0,0-1.39-.45,1.89,1.89,0,0,0-1.33.48,1.93,1.93,0,0,0-.62,1.29v5.61h-1.45v-5.53a1.62,1.62,0,0,0-1.81-1.85,1.93,1.93,0,0,0-1.94,1.21v6.17H235V254Z" transform="translate(-5302.07 -13157.116)" fill="#344154"/>
    <path id="Trazado_108070" data-name="Trazado 108070" d="M252.55,262.63a3.71,3.71,0,0,1-2.8-1.13,4.18,4.18,0,0,1-1.08-3v-.26a5.09,5.09,0,0,1,.48-2.25,3.78,3.78,0,0,1,1.35-1.55,3.39,3.39,0,0,1,1.87-.56,3.17,3.17,0,0,1,2.56,1.09,4.69,4.69,0,0,1,.92,3.11v.6h-5.73a3,3,0,0,0,.73,2,2.32,2.32,0,0,0,1.78.77,2.47,2.47,0,0,0,1.29-.31,3.2,3.2,0,0,0,.93-.83l.89.69a3.55,3.55,0,0,1-3.19,1.63Zm-.18-7.58a1.93,1.93,0,0,0-1.47.64,3,3,0,0,0-.73,1.78h4.23v-.11a2.75,2.75,0,0,0-.59-1.7,1.82,1.82,0,0,0-1.44-.61Z" transform="translate(-5302.07 -13157.116)" fill="#344154"/>
    <path id="Trazado_108071" data-name="Trazado 108071" d="M257.17,258.18a4.92,4.92,0,0,1,.92-3.13,3.12,3.12,0,0,1,4.76-.17v-4.41h1.45v12H263l-.07-.9a2.93,2.93,0,0,1-2.41,1.06,2.9,2.9,0,0,1-2.4-1.2,5,5,0,0,1-.92-3.14Zm1.44.16a3.71,3.71,0,0,0,.6,2.25,1.91,1.91,0,0,0,1.64.81,2.1,2.1,0,0,0,2-1.23v-3.88a2.11,2.11,0,0,0-2-1.2,1.9,1.9,0,0,0-1.65.82,4.11,4.11,0,0,0-.59,2.43Z" transform="translate(-5302.07 -13157.116)" fill="#344154"/>
    <path id="Trazado_108072" data-name="Trazado 108072" d="M266.55,251.78a.85.85,0,0,1,.21-.59.8.8,0,0,1,.64-.25.79.79,0,0,1,.64.25.82.82,0,0,1,.22.59.79.79,0,0,1-.22.58.82.82,0,0,1-.64.24.78.78,0,0,1-.85-.82Zm1.56,10.69h-1.44V254h1.44Z" transform="translate(-5302.07 -13157.116)" fill="#344154"/>
    <path id="Trazado_108073" data-name="Trazado 108073" d="M270,258.17a4.91,4.91,0,0,1,.49-2.23,3.59,3.59,0,0,1,1.36-1.54,3.69,3.69,0,0,1,2-.54,3.55,3.55,0,0,1,2.79,1.2,4.62,4.62,0,0,1,1.07,3.18v.1a5,5,0,0,1-.48,2.22,3.5,3.5,0,0,1-1.35,1.52,3.69,3.69,0,0,1-2,.55,3.57,3.57,0,0,1-2.78-1.19,4.61,4.61,0,0,1-1.07-3.17Zm1.45.17a3.59,3.59,0,0,0,.66,2.26,2.21,2.21,0,0,0,3.49,0,4,4,0,0,0,.65-2.42,3.58,3.58,0,0,0-.66-2.25,2.19,2.19,0,0,0-3.48,0,3.92,3.92,0,0,0-.62,2.41Z" transform="translate(-5302.07 -13157.116)" fill="#344154"/>
    <path id="Trazado_108074" data-name="Trazado 108074" d="M283.16,258.18a5,5,0,0,1,.92-3.13,2.91,2.91,0,0,1,2.41-1.19,3,3,0,0,1,2.36,1v-4.41h1.44v12H289l-.07-.9a2.93,2.93,0,0,1-2.41,1.06,2.9,2.9,0,0,1-2.4-1.2,5,5,0,0,1-.92-3.14Zm1.44.16a3.71,3.71,0,0,0,.6,2.25,1.91,1.91,0,0,0,1.64.81,2.13,2.13,0,0,0,2-1.23v-3.88a2.14,2.14,0,0,0-2-1.2,1.91,1.91,0,0,0-1.65.82A4.11,4.11,0,0,0,284.6,258.34Z" transform="translate(-5302.07 -13157.116)" fill="#344154"/>
    <path id="Trazado_108075" data-name="Trazado 108075" d="M296,262.63a3.72,3.72,0,0,1-2.8-1.13,4.22,4.22,0,0,1-1.07-3v-.26a5.09,5.09,0,0,1,.48-2.25,3.75,3.75,0,0,1,1.34-1.55,3.41,3.41,0,0,1,1.87-.56,3.17,3.17,0,0,1,2.56,1.09,4.69,4.69,0,0,1,.92,3.11v.6h-5.73a3,3,0,0,0,.73,2,2.32,2.32,0,0,0,1.78.77,2.53,2.53,0,0,0,1.3-.31,3.47,3.47,0,0,0,.93-.83l.88.69a3.55,3.55,0,0,1-3.19,1.63Zm-.18-7.58a1.93,1.93,0,0,0-1.47.64,3.09,3.09,0,0,0-.73,1.78h4.23v-.11a2.75,2.75,0,0,0-.59-1.7,1.8,1.8,0,0,0-1.4-.61Z" transform="translate(-5302.07 -13157.116)" fill="#344154"/>
    <path id="Trazado_108076" data-name="Trazado 108076" d="M302.58,262.47h-1.45v-12h1.45Z" transform="translate(-5302.07 -13157.116)" fill="#344154"/>
    <path id="Trazado_108077" data-name="Trazado 108077" d="M308.86,251.78a.82.82,0,0,1,.22-.59.77.77,0,0,1,.63-.25.79.79,0,0,1,.64.25.82.82,0,0,1,.22.59.79.79,0,0,1-.22.58.82.82,0,0,1-.64.24.79.79,0,0,1-.85-.82Zm1.56,10.69H309V254h1.44Z" transform="translate(-5302.07 -13157.116)" fill="#344154"/>
    <path id="Trazado_108078" data-name="Trazado 108078" d="M314.1,254v1.06a3.09,3.09,0,0,1,2.53-1.22q2.69,0,2.7,3v5.58h-1.44v-5.59a1.93,1.93,0,0,0-.42-1.35,1.68,1.68,0,0,0-1.28-.44,2.09,2.09,0,0,0-1.23.38,2.56,2.56,0,0,0-.83,1v6h-1.44V254Z" transform="translate(-5302.07 -13157.116)" fill="#344154"/>
    <path id="Trazado_108079" data-name="Trazado 108079" d="M324.35,260.51l2.1-6.49h1.47l-3,8.45h-1.1L320.73,254h1.48Z" transform="translate(-5302.07 -13157.116)" fill="#344154"/>
    <path id="Trazado_108080" data-name="Trazado 108080" d="M332.72,262.63a3.71,3.71,0,0,1-2.8-1.13,4.22,4.22,0,0,1-1.07-3v-.26a5.089,5.089,0,0,1,.48-2.25,3.75,3.75,0,0,1,1.34-1.55,3.41,3.41,0,0,1,1.87-.56A3.17,3.17,0,0,1,335.1,255a4.69,4.69,0,0,1,.92,3.11v.6h-5.73a3,3,0,0,0,.73,2,2.32,2.32,0,0,0,1.78.77,2.53,2.53,0,0,0,1.3-.31,3.469,3.469,0,0,0,.93-.83l.88.69A3.55,3.55,0,0,1,332.72,262.63Zm-.18-7.58a1.93,1.93,0,0,0-1.47.64,3.09,3.09,0,0,0-.73,1.78h4.23v-.11a2.75,2.75,0,0,0-.59-1.7A1.8,1.8,0,0,0,332.54,255.05Z" transform="translate(-5302.07 -13157.116)" fill="#344154"/>
    <path id="Trazado_108081" data-name="Trazado 108081" d="M339.06,254v1.06a3.09,3.09,0,0,1,2.53-1.22c1.79,0,2.69,1,2.71,3v5.58h-1.45v-5.59a1.88,1.88,0,0,0-.42-1.35,1.66,1.66,0,0,0-1.27-.44,2.12,2.12,0,0,0-1.24.38,2.56,2.56,0,0,0-.83,1v6h-1.44V254Z" transform="translate(-5302.07 -13157.116)" fill="#344154"/>
    <path id="Trazado_108082" data-name="Trazado 108082" d="M348.48,252v2h1.58v1.12h-1.58v5.25a1.17,1.17,0,0,0,.21.76.89.89,0,0,0,.72.25,3.811,3.811,0,0,0,.69-.09v1.17a4.351,4.351,0,0,1-1.11.15,1.76,1.76,0,0,1-1.46-.59,2.49,2.49,0,0,1-.5-1.66v-5.24h-1.54V254H347v-2Z" transform="translate(-5302.07 -13157.116)" fill="#344154"/>
    <path id="Trazado_108083" data-name="Trazado 108083" d="M357,262.47a3,3,0,0,1-.2-.89,3.21,3.21,0,0,1-2.41,1.05,3,3,0,0,1-2.05-.71,2.3,2.3,0,0,1-.8-1.79,2.4,2.4,0,0,1,1-2.05,4.71,4.71,0,0,1,2.82-.73h1.41v-.66a1.6,1.6,0,0,0-.46-1.21A1.8,1.8,0,0,0,355,255a2.11,2.11,0,0,0-1.3.39,1.15,1.15,0,0,0-.52.94h-1.46a2,2,0,0,1,.45-1.22,3.13,3.13,0,0,1,1.22-.93,4.09,4.09,0,0,1,1.69-.35,3.32,3.32,0,0,1,2.29.74,2.62,2.62,0,0,1,.86,2v3.89a4.729,4.729,0,0,0,.3,1.85v.12Zm-2.4-1.1a2.45,2.45,0,0,0,1.29-.35,2.16,2.16,0,0,0,.89-.91v-1.74H355.6c-1.77,0-2.65.52-2.65,1.56a1.33,1.33,0,0,0,.45,1.06,1.71,1.71,0,0,0,1.16.38Z" transform="translate(-5302.07 -13157.116)" fill="#344154"/>
    <path id="Trazado_108084" data-name="Trazado 108084" d="M363.46,258.23h-3.82v-1.18h3.82Z" transform="translate(-5302.07 -13157.116)" fill="#344154"/>
    <path id="Trazado_108085" data-name="Trazado 108085" d="M134.21,274.52a3.921,3.921,0,0,0-.71-.06,1.91,1.91,0,0,0-1.93,1.21v6h-1.44v-8.45h1.4v1a2.23,2.23,0,0,1,2-1.13,1.53,1.53,0,0,1,.64.1Z" transform="translate(-5302.07 -13157.116)" fill="#344154"/>
    <path id="Trazado_108086" data-name="Trazado 108086" d="M135.55,271a.85.85,0,0,1,.21-.59.8.8,0,0,1,.64-.25.79.79,0,0,1,.64.25.82.82,0,0,1,.22.59.83.83,0,0,1-.22.59.85.85,0,0,1-.64.23.76.76,0,0,1-.85-.82Zm1.56,10.69h-1.44v-8.45h1.44Z" transform="translate(-5302.07 -13157.116)" fill="#344154"/>
    <path id="Trazado_108087" data-name="Trazado 108087" d="M139,277.37a4.91,4.91,0,0,1,.49-2.23,3.59,3.59,0,0,1,1.36-1.54,3.68,3.68,0,0,1,2-.53,3.54,3.54,0,0,1,2.79,1.19,4.62,4.62,0,0,1,1.07,3.18v.1a5,5,0,0,1-.48,2.22,3.5,3.5,0,0,1-1.35,1.52,3.69,3.69,0,0,1-2,.55,3.57,3.57,0,0,1-2.78-1.19,4.61,4.61,0,0,1-1.07-3.17Zm1.45.17a3.59,3.59,0,0,0,.66,2.26,2.21,2.21,0,0,0,3.49,0,4,4,0,0,0,.65-2.42,3.58,3.58,0,0,0-.66-2.25,2.19,2.19,0,0,0-3.48,0,3.92,3.92,0,0,0-.62,2.41Z" transform="translate(-5302.07 -13157.116)" fill="#344154"/>
    <path id="Trazado_108088" data-name="Trazado 108088" d="M152.16,277.38a5,5,0,0,1,.92-3.13,2.9,2.9,0,0,1,2.41-1.18,2.94,2.94,0,0,1,2.36,1v-4.41h1.44v12H158l-.07-.9a2.93,2.93,0,0,1-2.41,1.06,2.9,2.9,0,0,1-2.4-1.2,5,5,0,0,1-.92-3.14Zm1.44.16a3.71,3.71,0,0,0,.6,2.25,1.91,1.91,0,0,0,1.64.81,2.13,2.13,0,0,0,2-1.23v-3.88a2.14,2.14,0,0,0-2-1.2,1.94,1.94,0,0,0-1.65.82,4.11,4.11,0,0,0-.59,2.43Z" transform="translate(-5302.07 -13157.116)" fill="#344154"/>
    <path id="Trazado_108089" data-name="Trazado 108089" d="M166.75,280.84a3.07,3.07,0,0,1-2.47,1,2.63,2.63,0,0,1-2.06-.78,3.45,3.45,0,0,1-.72-2.33v-5.5H163v5.46q0,1.92,1.56,1.92a2.16,2.16,0,0,0,2.2-1.23v-6.15h1.45v8.45h-1.38Z" transform="translate(-5302.07 -13157.116)" fill="#344154"/>
    <path id="Trazado_108090" data-name="Trazado 108090" d="M174.44,274.52a4,4,0,0,0-.71-.06,1.91,1.91,0,0,0-1.93,1.21v6h-1.45v-8.45h1.41v1a2.25,2.25,0,0,1,2-1.13,1.559,1.559,0,0,1,.64.1Z" transform="translate(-5302.07 -13157.116)" fill="#344154"/>
    <path id="Trazado_108091" data-name="Trazado 108091" d="M180.67,281.67a3,3,0,0,1-.2-.89,3.21,3.21,0,0,1-2.41,1.05,3,3,0,0,1-2.05-.71,2.3,2.3,0,0,1-.8-1.79,2.4,2.4,0,0,1,1-2.05,4.71,4.71,0,0,1,2.82-.73h1.41v-.66a1.6,1.6,0,0,0-.46-1.21,1.8,1.8,0,0,0-1.33-.45,2.11,2.11,0,0,0-1.3.39,1.15,1.15,0,0,0-.52.95h-1.46a2,2,0,0,1,.45-1.23,3.13,3.13,0,0,1,1.22-.93,4.12,4.12,0,0,1,1.69-.34,3.32,3.32,0,0,1,2.29.73,2.58,2.58,0,0,1,.86,2v3.89a4.73,4.73,0,0,0,.3,1.85v.12Zm-2.39-1.1a2.44,2.44,0,0,0,1.28-.35,2.11,2.11,0,0,0,.89-.91v-1.74h-1.14c-1.77,0-2.65.52-2.65,1.56a1.33,1.33,0,0,0,.45,1.06A1.72,1.72,0,0,0,178.28,280.57Z" transform="translate(-5302.07 -13157.116)" fill="#344154"/>
    <path id="Trazado_108092" data-name="Trazado 108092" d="M185.53,273.22v1.06a3.08,3.08,0,0,1,2.53-1.21c1.79,0,2.69,1,2.71,3v5.58h-1.45v-5.59a1.88,1.88,0,0,0-.42-1.35,1.67,1.67,0,0,0-1.27-.44,2.12,2.12,0,0,0-1.24.38,2.56,2.56,0,0,0-.83,1v6h-1.44V273.2Z" transform="translate(-5302.07 -13157.116)" fill="#344154"/>
    <path id="Trazado_108093" data-name="Trazado 108093" d="M195,271.17v2.05h1.58v1.12H195v5.25a1.17,1.17,0,0,0,.21.76.89.89,0,0,0,.72.25,3.621,3.621,0,0,0,.68-.09v1.17a4.339,4.339,0,0,1-1.1.15,1.79,1.79,0,0,1-1.47-.59,2.55,2.55,0,0,1-.49-1.66v-5.24H192v-1.12h1.54v-2.05Z" transform="translate(-5302.07 -13157.116)" fill="#344154"/>
    <path id="Trazado_108094" data-name="Trazado 108094" d="M201.72,281.83a3.71,3.71,0,0,1-2.8-1.13,4.22,4.22,0,0,1-1.07-3v-.26a5.09,5.09,0,0,1,.48-2.25,3.75,3.75,0,0,1,1.34-1.55,3.4,3.4,0,0,1,1.87-.55,3.17,3.17,0,0,1,2.56,1.08,4.71,4.71,0,0,1,.92,3.11v.6h-5.73a3,3,0,0,0,.73,2,2.32,2.32,0,0,0,1.78.77,2.53,2.53,0,0,0,1.3-.31,3.47,3.47,0,0,0,.93-.83l.88.69A3.55,3.55,0,0,1,201.72,281.83Zm-.18-7.58a1.93,1.93,0,0,0-1.47.64,3.09,3.09,0,0,0-.73,1.78h4.23v-.1a2.75,2.75,0,0,0-.59-1.71,1.8,1.8,0,0,0-1.44-.61Z" transform="translate(-5302.07 -13157.116)" fill="#344154"/>
    <path id="Trazado_108095" data-name="Trazado 108095" d="M215.87,280.84a3.08,3.08,0,0,1-2.48,1,2.65,2.65,0,0,1-2.06-.78,3.4,3.4,0,0,1-.71-2.33v-5.5h1.44v5.46c0,1.28.53,1.92,1.57,1.92a2.16,2.16,0,0,0,2.2-1.23v-6.15h1.45v8.45H215.9Z" transform="translate(-5302.07 -13157.116)" fill="#344154"/>
    <path id="Trazado_108096" data-name="Trazado 108096" d="M220.84,273.22v1.06a3.09,3.09,0,0,1,2.54-1.21q2.67,0,2.7,3v5.58h-1.45v-5.59a1.93,1.93,0,0,0-.41-1.35,1.7,1.7,0,0,0-1.28-.44,2.12,2.12,0,0,0-1.24.38,2.46,2.46,0,0,0-.82,1v6h-1.45V273.2Z" transform="translate(-5302.07 -13157.116)" fill="#344154"/>
    <path id="Trazado_108097" data-name="Trazado 108097" d="M239.4,277.54a5.05,5.05,0,0,1-.88,3.11,2.83,2.83,0,0,1-2.39,1.18,3.05,3.05,0,0,1-2.42-1v4.07h-1.45V273.2h1.32l.07.94a3,3,0,0,1,2.45-1.09,2.88,2.88,0,0,1,2.41,1.14,5.14,5.14,0,0,1,.89,3.2Zm-1.44-.16a3.77,3.77,0,0,0-.61-2.26,2,2,0,0,0-1.68-.83,2.11,2.11,0,0,0-2,1.17v4a2.11,2.11,0,0,0,2,1.16,2,2,0,0,0,1.65-.82,4.08,4.08,0,0,0,.68-2.42Z" transform="translate(-5302.07 -13157.116)" fill="#344154"/>
    <path id="Trazado_108098" data-name="Trazado 108098" d="M244.74,281.83A3.7,3.7,0,0,1,242,280.7a4.18,4.18,0,0,1-1.08-3v-.26a5.09,5.09,0,0,1,.48-2.25,3.83,3.83,0,0,1,1.34-1.55,3.4,3.4,0,0,1,1.87-.55,3.19,3.19,0,0,1,2.57,1.08,4.71,4.71,0,0,1,.91,3.11v.6h-5.73a3,3,0,0,0,.74,2,2.28,2.28,0,0,0,1.77.77,2.5,2.5,0,0,0,1.3-.31,3.471,3.471,0,0,0,.93-.83l.88.69A3.55,3.55,0,0,1,244.74,281.83Zm-.18-7.58a1.89,1.89,0,0,0-1.46.64,3.1,3.1,0,0,0-.74,1.78h4.24v-.1a2.76,2.76,0,0,0-.6-1.71,1.79,1.79,0,0,0-1.44-.61Z" transform="translate(-5302.07 -13157.116)" fill="#344154"/>
    <path id="Trazado_108099" data-name="Trazado 108099" d="M253.8,274.52a4,4,0,0,0-.71-.06,1.91,1.91,0,0,0-1.93,1.21v6h-1.45v-8.45h1.41v1a2.25,2.25,0,0,1,2-1.13,1.559,1.559,0,0,1,.64.1Z" transform="translate(-5302.07 -13157.116)" fill="#344154"/>
    <path id="Trazado_108100" data-name="Trazado 108100" d="M255.13,271a.86.86,0,0,1,.22-.59.79.79,0,0,1,.64-.25.8.8,0,0,1,.64.25.86.86,0,0,1,.22.59.88.88,0,0,1-.22.59.86.86,0,0,1-.64.23.85.85,0,0,1-.64-.23.88.88,0,0,1-.22-.59Zm1.57,10.69h-1.45v-8.45h1.45Z" transform="translate(-5302.07 -13157.116)" fill="#344154"/>
    <path id="Trazado_108101" data-name="Trazado 108101" d="M258.63,277.37a4.91,4.91,0,0,1,.49-2.23,3.57,3.57,0,0,1,1.35-1.54,3.73,3.73,0,0,1,2-.53,3.57,3.57,0,0,1,2.8,1.19,4.61,4.61,0,0,1,1.06,3.18v.1a5.16,5.16,0,0,1-.47,2.22,3.63,3.63,0,0,1-1.35,1.52,3.71,3.71,0,0,1-2,.55,3.58,3.58,0,0,1-2.79-1.19,4.6,4.6,0,0,1-1.06-3.17Zm1.45.17a3.65,3.65,0,0,0,.65,2.26,2.22,2.22,0,0,0,3.5,0,4,4,0,0,0,.65-2.42,3.58,3.58,0,0,0-.66-2.25,2.19,2.19,0,0,0-3.48-.02,3.92,3.92,0,0,0-.66,2.43Z" transform="translate(-5302.07 -13157.116)" fill="#344154"/>
    <path id="Trazado_108102" data-name="Trazado 108102" d="M267.78,277.38a4.92,4.92,0,0,1,.93-3.13,3.14,3.14,0,0,1,4.76-.17v-4.41h1.45v12h-1.33l-.07-.9a3,3,0,0,1-2.42,1.06,2.88,2.88,0,0,1-2.39-1.2,5,5,0,0,1-.93-3.14Zm1.45.16a3.78,3.78,0,0,0,.59,2.25,1.94,1.94,0,0,0,1.64.81,2.11,2.11,0,0,0,2-1.23v-3.88a2.12,2.12,0,0,0-2-1.2,2,2,0,0,0-1.66.82,4.19,4.19,0,0,0-.57,2.43Z" transform="translate(-5302.07 -13157.116)" fill="#344154"/>
    <path id="Trazado_108103" data-name="Trazado 108103" d="M276.78,277.37a5,5,0,0,1,.48-2.23,3.66,3.66,0,0,1,1.36-1.54,3.7,3.7,0,0,1,2-.53,3.54,3.54,0,0,1,2.79,1.19,4.57,4.57,0,0,1,1.07,3.18v.1a5.16,5.16,0,0,1-.47,2.22,3.63,3.63,0,0,1-1.35,1.52,3.71,3.71,0,0,1-2,.55,3.58,3.58,0,0,1-2.79-1.19,4.6,4.6,0,0,1-1.06-3.17Zm1.45.17a3.65,3.65,0,0,0,.65,2.26,2.22,2.22,0,0,0,3.5,0,4,4,0,0,0,.65-2.42,3.58,3.58,0,0,0-.66-2.25,2.2,2.2,0,0,0-3.49,0,4,4,0,0,0-.65,2.41Z" transform="translate(-5302.07 -13157.116)" fill="#344154"/>
    <path id="Trazado_108104" data-name="Trazado 108104" d="M286.31,280.92a.92.92,0,0,1,.23-.63.87.87,0,0,1,.67-.25.89.89,0,0,1,.67.25.92.92,0,0,1,.23.63.85.85,0,0,1-.23.6.89.89,0,0,1-.67.24.87.87,0,0,1-.67-.24A.85.85,0,0,1,286.31,280.92Z" transform="translate(-5302.07 -13157.116)" fill="#344154"/>
  </g>
</svg>
