<svg id="Grupo_57514" data-name="Grupo 57514" xmlns="http://www.w3.org/2000/svg" width="120" height="120" viewBox="0 0 120 120">
  <rect id="Rectángulo_5880" data-name="Rectángulo 5880" width="120" height="120" transform="translate(0 0)" fill="#5e6178" opacity="0"/>
  <g id="Grupo_57513" data-name="Grupo 57513" transform="translate(10.385 10.385)">
    <ellipse id="Elipse_4182" data-name="Elipse 4182" cx="49.615" cy="49.615" rx="49.615" ry="49.615" fill="#12263f"/>
    <path id="Trazado_105685" data-name="Trazado 105685" d="M536.126,4618.86h14.132l.077.966-6.906,10.47-7.419-10.573.116-.862Z" transform="translate(-493.577 -4570.652)" fill="#b3b3b3"/>
    <path id="Trazado_105686" data-name="Trazado 105686" d="M529.894,4614.366l-.122,5.906-10.02,5.479v20.084h33.732V4625.75l-9.311-5.788-.512-5.905-13.767.308Z" transform="translate(-487.247 -4569.042)" fill="#f0ba7d"/>
    <path id="Trazado_105687" data-name="Trazado 105687" d="M527.011,4576.918a1.533,1.533,0,0,0-2.117-.636c-1.543.624.07,6.862.659,7.733s1.537.317,1.883.283c.491,3.718.535,6.281,2.023,7.849a46.207,46.207,0,0,0,6.338,5.566,9.484,9.484,0,0,0,5.638,0,46.1,46.1,0,0,0,6.338-5.566c1.488-1.568,1.532-4.13,2.024-7.849.345.034,1.294.586,1.883-.283s2.2-7.109.659-7.733a1.533,1.533,0,0,0-2.117.636,13.377,13.377,0,0,0-1.185-9.72c-1.858-3.3-6.094-5.019-10.42-5.145-4.326.126-8.562,1.84-10.42,5.145a13.377,13.377,0,0,0-1.185,9.72Z" transform="translate(-489.002 -4547.366)" fill="#fed298"/>
    <path id="Trazado_105688" data-name="Trazado 105688" d="M521.845,4625.359l2.4-.945,1.933-1.738,6.827,5.178h1.7l6.829-5.184,4.332,2.689,7.528,12.8-5.962,32.346a51,51,0,0,1-24.742.606l-10.686-31.93,9.839-13.819Z" transform="translate(-484.2 -4573.113)" fill="#aed3f2"/>
    <g id="Grupo_57508" data-name="Grupo 57508" transform="translate(39.789 48.18)">
      <path id="Trazado_105689" data-name="Trazado 105689" d="M558.127,4622.259l-2.756-3.4-6.215,7.513,5.335,5.927Z" transform="translate(-538.479 -4618.86)" fill="#cee5f7"/>
      <path id="Trazado_105690" data-name="Trazado 105690" d="M531.684,4622.2l2.76-3.339,6.216,7.513-5.547,5.866Z" transform="translate(-531.684 -4618.86)" fill="#cee5f7"/>
    </g>
    <path id="Trazado_105691" data-name="Trazado 105691" d="M515.772,4624.324l-18.269,5.941a2.06,2.06,0,0,0-1.361,1.64l-5.372,27.224a50.826,50.826,0,0,0,12.242,8.558l2.671-8.717a.214.214,0,0,1,.419.051l.386,10.237a50.528,50.528,0,0,0,19.111,3.729v-3.4l-9.826-45.264Z" transform="translate(-475.415 -4573.756)" fill="#fff"/>
    <g id="Grupo_57509" data-name="Grupo 57509" transform="translate(31.769 50.568)">
      <path id="Trazado_105692" data-name="Trazado 105692" d="M526.825,4624.324l-2.093.643-5.543,9.459,7,.219-4.3,2.447,14.761,32.5-9.826-45.263Z" transform="translate(-519.189 -4624.324)" fill="#eef3f7"/>
      <path id="Trazado_105693" data-name="Trazado 105693" d="M557.586,4624.422l18.274,5.881a2.057,2.057,0,0,1,1.361,1.639l5.372,27.225a50.834,50.834,0,0,1-12.243,8.558l-2.671-8.717a.214.214,0,0,0-.418.051l-.384,10.237a50.544,50.544,0,0,1-19.112,3.73h0v-3.4l9.821-45.2Z" transform="translate(-530.303 -4624.362)" fill="#eef3f7"/>
    </g>
    <path id="Trazado_105694" data-name="Trazado 105694" d="M557.586,4624.422l1.161.354,6.475,9.748-7,.22,4.3,2.446-14.756,32.437,9.821-45.2h0Z" transform="translate(-498.375 -4573.794)" fill="#fff"/>
    <path id="Trazado_105695" data-name="Trazado 105695" d="M550.443,4698.049a1.113,1.113,0,1,0,1.116,1.112A1.114,1.114,0,0,0,550.443,4698.049Z" transform="translate(-498.803 -4602.43)" fill="#d9dada"/>
    <path id="Trazado_105696" data-name="Trazado 105696" d="M549.424,4576.251l1.076-.038.346-1.227,1.013-1.01c.669-5.036.866-12.874-4.133-12.647,0,0-.451-5.715-9.467-4.6s-13.09,6.942-12.605,11.8.29,5.444.29,5.444l1.013,1.011.153,1.4.884-.056a22.53,22.53,0,0,1,.555-2.69,9.1,9.1,0,0,0,.191-2.484s10.65.679,13.528-2.982c1.778-2.26,5.86-6.178,6.066-.752.061,1.609-.537,4.02.607,5.774a3.178,3.178,0,0,1,.486,3.059h0Z" transform="translate(-489.527 -4545.24)" fill="#344154"/>
    <path id="Trazado_105697" data-name="Trazado 105697" d="M545.964,4672.244l2.879-13.25-1.957-26.119,1.066-.456-1.14-1.266h-1.7l-1.168,1.237,1.1.484-1.907,26.33,2.831,13.039Z" transform="translate(-496.349 -4576.413)" fill="#5e6178"/>
    <path id="Trazado_105698" data-name="Trazado 105698" d="M550.344,4698.049a1.014,1.014,0,1,0,1.017,1.013A1.016,1.016,0,0,0,550.344,4698.049Z" transform="translate(-498.8 -4602.43)" fill="#fff"/>
    <path id="Trazado_105699" data-name="Trazado 105699" d="M575.141,4666a3.636,3.636,0,1,1,4.2-2.964,3.636,3.636,0,0,1-4.2,2.964Z" transform="translate(-508.051 -4586.689)" fill="#fefefe"/>
    <path id="Trazado_105700" data-name="Trazado 105700" d="M575.312,4665.929a3.424,3.424,0,1,1,3.957-2.791,3.423,3.423,0,0,1-3.957,2.791Z" transform="translate(-508.184 -4586.822)" fill="#5e6178"/>
    <path id="Trazado_105701" data-name="Trazado 105701" d="M576.546,4665.4a1.895,1.895,0,1,1,2.189-1.545,1.895,1.895,0,0,1-2.189,1.545Z" transform="translate(-509.144 -4587.777)" fill="#ebecec"/>
    <path id="Trazado_105702" data-name="Trazado 105702" d="M577.911,4660.364l.833.143.447-2.592-.832-.144Z" transform="translate(-510.288 -4586.204)" fill="#fefefe"/>
    <path id="Trazado_105703" data-name="Trazado 105703" d="M522.106,4660.2l1.56-.31A2.464,2.464,0,0,0,525.6,4657l-1.834-9.242c-.693-3.487-3.421-5.267-6.539-5.66a11.768,11.768,0,0,0-7.1,1.407c-2.724,1.552-4.56,4.233-3.866,7.727l1.834,9.243a2.454,2.454,0,0,0,1.046,1.562h0a2.453,2.453,0,0,0,1.842.37l1.559-.31-.128-.644-1.559.311a1.8,1.8,0,0,1-1.351-.272h0a1.8,1.8,0,0,1-.768-1.145l-1.834-9.243c-.629-3.169,1.053-5.612,3.545-7.031a11.09,11.09,0,0,1,6.7-1.329c2.854.362,5.349,1.978,5.977,5.141l1.835,9.243a1.806,1.806,0,0,1-1.417,2.118l-1.56.31.127.643Z" transform="translate(-481.534 -4580.17)" fill="#21d0c3"/>
    <path id="Trazado_105704" data-name="Trazado 105704" d="M524.119,4648.992l-.281-1.411c-.714-3.6-3.521-5.429-6.726-5.835a11.974,11.974,0,0,0-7.231,1.435c-2.8,1.595-4.689,4.357-3.974,7.959l.281,1.412,1.071-.213-.28-1.411c-.607-3.062,1.024-5.426,3.439-6.8a10.888,10.888,0,0,1,6.562-1.3c2.765.35,5.182,1.911,5.789,4.968l.28,1.411,1.071-.212Z" transform="translate(-481.38 -4579.847)" fill="#4d4d4d"/>
    <g id="Grupo_57510" data-name="Grupo 57510" transform="translate(29.529 78.905)">
      <path id="Trazado_105705" data-name="Trazado 105705" d="M514.5,4674.439l.835-.166a.917.917,0,1,0-.18-.91l-.834.166.18.91Z" transform="translate(-514.316 -4671.112)" fill="#076673"/>
      <path id="Trazado_105706" data-name="Trazado 105706" d="M531.706,4671.122l-.834.166a.916.916,0,1,1-.18-.909l.834-.166Z" transform="translate(-520.062 -4670.071)" fill="#076673"/>
    </g>
    <path id="Trazado_105707" data-name="Trazado 105707" d="M518.06,4640.884l-.318-1.6-.633.126-.632.125.322,1.619c.241-.069.485-.129.731-.18Q517.794,4640.921,518.06,4640.884Z" transform="translate(-485.582 -4578.752)" fill="#666"/>
    <g id="Grupo_57511" data-name="Grupo 57511" transform="translate(30.731 79.167)">
      <path id="Trazado_105708" data-name="Trazado 105708" d="M516.623,4673.706a.277.277,0,1,0-.326-.218.277.277,0,0,0,.326.218Z" transform="translate(-516.292 -4671.516)" fill="#5e6178"/>
      <path id="Trazado_105709" data-name="Trazado 105709" d="M530.123,4671.021a.277.277,0,1,0-.326-.218A.277.277,0,0,0,530.123,4671.021Z" transform="translate(-521.542 -4670.472)" fill="#5e6178"/>
    </g>
    <path id="Trazado_105710" data-name="Trazado 105710" d="M576.435,4665.5a1.792,1.792,0,1,1,2.07-1.461,1.793,1.793,0,0,1-2.07,1.461Z" transform="translate(-509.13 -4587.897)" fill="#fefefe"/>
    <g id="Grupo_57512" data-name="Grupo 57512" transform="translate(30.438 50.876)">
      <path id="Trazado_105711" data-name="Trazado 105711" d="M525.752,4624.519c-.028,0-9.875.083-8.212,8.7l-.916.175c-1.875-9.712,9.085-9.8,9.117-9.8Z" transform="translate(-516.409 -4623.589)" fill="#4d4d4d"/>
      <path id="Trazado_105712" data-name="Trazado 105712" d="M563.841,4623.661a9.32,9.32,0,0,1,7.1,3.389c2.339,2.845,3.979,8.071,2.753,17.652l-.923-.117c1.187-9.273-.347-14.266-2.548-16.944a8.406,8.406,0,0,0-6.405-3.05l.021-.93Z" transform="translate(-534.848 -4623.617)" fill="#4d4d4d"/>
    </g>
  </g>
</svg>
