<svg xmlns="http://www.w3.org/2000/svg" xmlns:xlink="http://www.w3.org/1999/xlink" width="456.992" height="414.13" viewBox="0 0 456.992 414.13">
  <defs>
    <clipPath id="clip-path">
      <path id="Trazado_106663" data-name="Trazado 106663" d="M269,168.69a65.59,65.59,0,0,1-7.82,26.75c-7.58,14.26-4,41.23-.23,39.93s26.76-16.55,29.89-25.22,2.44-21.62,8-35.43S308,153.07,308,153.07,274.82,168.25,269,168.69Z" fill="none"/>
    </clipPath>
    <clipPath id="clip-path-2">
      <path id="Trazado_106667" data-name="Trazado 106667" d="M283.52,73.09a56.71,56.71,0,0,0-19.39,21.84c-7.13,14.49-6.68,33.65-6.68,33.65s.67,21.4-.45,29.86,9.4,14.49,14.26,14.72,20.05-9.81,27.19-12.71,9.14-3.35,16-10.25,18.73-27.87,19.4-39.67S332.54,85,322.27,76.66,298.22,65.74,283.52,73.09Z" fill="none"/>
    </clipPath>
    <clipPath id="clip-path-3">
      <path id="Trazado_106682" data-name="Trazado 106682" d="M312.49,269.88s6.23,15.82,10.69,21.14,16.44,14,26.52,20.72,12,21.62,10.47,27.19-6.23,10-16.71,7.13-18.95-15.38-27.64-28.31-14.48-22.51-15.15-23.18S312.49,269.88,312.49,269.88Z" fill="none"/>
    </clipPath>
    <clipPath id="clip-path-4">
      <path id="Trazado_106687" data-name="Trazado 106687" d="M319.17,441.93s5.81,2.13,17.83-2.55c17.14-6.64,44.46-29.15,44.46-29.15a112.491,112.491,0,0,1-39.92,0c-22.09-4-34-9.91-34-9.91l-23.23,33.14Z" fill="none"/>
    </clipPath>
    <clipPath id="clip-path-5">
      <path id="Trazado_106691" data-name="Trazado 106691" d="M338.43,383.07s9.27-1.5,4.18,12.38-21.74,26.12-23.72,36,.28,10.47.28,10.47l-28.88-6.22s2.27-21.52,18.12-37.94S338.43,383.07,338.43,383.07Z" fill="none"/>
    </clipPath>
    <clipPath id="clip-path-6">
      <path id="Trazado_106696" data-name="Trazado 106696" d="M282.07,451.32s4.82-1.17,9.63-8.22,15.57-29.45,24.36-41.34,22.37-18.68,22.37-18.68l-68.82-7.65s-28,31.43-37.65,42.48-10.76,21.23-4,23.77,28.31,5.1,34,6S277.26,452.15,282.07,451.32Z" fill="none"/>
    </clipPath>
    <clipPath id="clip-path-7">
      <path id="Trazado_106700" data-name="Trazado 106700" d="M302.75,371.48s5.66,0,2.55,9.06-21.52,32.88-27.47,49,4.24,21.8,4.24,21.8-2.26,3.4-35.39-3.67-54.35-7.94-56.36-13.6,11-20.95,15.85-33.12,17-40.77,17-40.77,48.15,9.39,58.33,10.19S302.75,371.48,302.75,371.48Z" fill="none"/>
    </clipPath>
    <clipPath id="clip-path-8">
      <path id="Trazado_106705" data-name="Trazado 106705" d="M266.78,407.41s0,2.26,8.51-7.93,27.46-28,27.46-28l-87.49-19s-24.92,25.74-28,29.7-5.39,5.09,2.83,8.78,49.32,8.22,58,10.48S266.78,407.41,266.78,407.41Z" fill="none"/>
    </clipPath>
    <clipPath id="clip-path-9">
      <path id="Trazado_106712" data-name="Trazado 106712" d="M300.45,262.27s-1.95,6.38-4.78,27.62-7,45.58-12.74,63.7-16.71,44.46-17.55,47.85a7,7,0,0,0,1.4,5.94s-11-1.69-42.19-5.09-61.71-18.68-60.87-20.67S185,359.53,196.6,333.48,226.33,242,226.33,242s36.81,17.28,47.85,18.42S300.45,262.27,300.45,262.27Z" fill="none"/>
    </clipPath>
    <clipPath id="clip-path-10">
      <path id="Trazado_106722" data-name="Trazado 106722" d="M300.45,262.27s-5.13,14.49-10.92,32.32a326.48,326.48,0,0,0-9.15,35.66s-4-2.23-33.86-12.48S179.21,295,179.21,295s28.08-33,34-48.8,9.14-12.92,23-7.57,33,15.14,44.12,16.26S300.45,260.07,300.45,262.27Z" fill="none"/>
    </clipPath>
    <clipPath id="clip-path-11">
      <path id="Trazado_106728" data-name="Trazado 106728" d="M192.36,175.61s1.34,22.72,1.34,23.61-36.78,39.24-45.24,48.15-8.69,16.26-6.7,21.84,8.93,13.6,15.16,14.48,13.15-5.34,19.39-19.17,28.53-55.49,31-59.94,8.22-8.47,8.22-8.47,6-3.12,8.68-7.58,7.8-13.37,13.37-17.62,8.22-5.35,5.8-6.68-10.25,1.55-12.48,3.11-7.13,5.58-7.13,5.58-4.24-6.25-4.46-11.59,1.11-13-2-11.42S209,163,202.35,169.13C196.14,174.94,192.36,172.26,192.36,175.61Z" fill="none"/>
    </clipPath>
  </defs>
  <g id="cf16_norma_copia_2" data-name="cf16_norma copia 2" transform="translate(-18.99 -38.527)">
    <g id="freepik--background-simple--inject-143">
      <path id="Trazado_106656" data-name="Trazado 106656" d="M159.41,86.53s-71.25,41.1-104.14,99.81-24.93,130.93,23.55,182,133.49,38.75,207.45,68.49,152.45,17.85,181.26-56.5-24.09-98.22-38.69-181.3S328.27-1.71,159.41,86.53Z" fill="#eff6fc"/>
    </g>
    <g id="freepik--Pictures--inject-143">
      <rect id="Rectángulo_8495" data-name="Rectángulo 8495" width="71.04" height="94.73" transform="translate(147.61 111.86)" fill="#b5b5b5"/>
      <rect id="Rectángulo_8496" data-name="Rectángulo 8496" width="58.02" height="77.36" transform="translate(154.12 120.54)" fill="#d9a171"/>
      <rect id="Rectángulo_8497" data-name="Rectángulo 8497" width="58.02" height="77.36" transform="translate(154.12 120.54)" fill="#5e6178" opacity="0.5"/>
      <rect id="Rectángulo_8498" data-name="Rectángulo 8498" width="60.39" height="80.52" transform="translate(69.45 167.12)" fill="#b5b5b5"/>
      <rect id="Rectángulo_8499" data-name="Rectángulo 8499" width="49.32" height="65.76" transform="translate(74.99 174.5)" fill="#d9a171"/>
      <rect id="Rectángulo_8500" data-name="Rectángulo 8500" width="49.32" height="65.76" transform="translate(74.99 174.5)" fill="#5e6178" opacity="0.5"/>
    </g>
    <g id="freepik--Window--inject-143">
      <path id="Trazado_106657" data-name="Trazado 106657" d="M318.37,349.93H467V111.72H318.37Zm77.5-57.28h65.21v-5.72H395.89V233.71H461.1v-5.77H395.89V175.88H461.1V170.1H395.89V117.5h65.63V344.13H395.89ZM323.79,117.5h66.68v52.6H323.79Zm0,58.38h66.68v52.06H323.79Zm0,57.83h66.68v53.22H323.79Zm0,58.94h66.68v51.5H323.79Z" fill="#aed3f2"/>
      <path id="Trazado_106658" data-name="Trazado 106658" d="M466.44,106.26a74.58,74.58,0,0,0-148.53,0l-.35,3.9H466.79ZM325.53,103a67,67,0,0,1,16.85-35.68L384.28,103Zm62.35-6.32L347.5,62.35a67.28,67.28,0,0,1,40.38-16.61Zm7.19-51a67.22,67.22,0,0,1,38.75,14.09l-38.75,36.4ZM398.23,103l41-38.52A67.08,67.08,0,0,1,458.92,103Z" fill="#aed3f2"/>
    </g>
    <g id="freepik--Character--inject-143">
      <path id="Trazado_106659" data-name="Trazado 106659" d="M263.45,186.31s-22.51,1.32-34.55,1.1-20.72-3.11-23.83,2.23-3.53,3.13-8.71,12.71-53,53.4-54,60.31c-1.56,10.89,9.72,18.68,16,20.24s40.1-32.31,40.1-32.31-3.44,55.19-4.55,77.9-1.78,89.37-1.78,89.37H307.58s-2.23-53.93-2-64.86,12.92-64.58,12.92-64.58-.9,21.14,2,29.64,22.15,28.08,33.29,24.06,5.49-20.94,4.15-32.75-1.34-45.91-1.34-68.42,1.34-27-6.46-29.64-22.95-5.79-34.54-10.25-29.64-9.59-32.77-10.7S263.45,186.31,263.45,186.31Z" fill="#344154" stroke="#263238" stroke-linecap="round" stroke-linejoin="round" stroke-width="1"/>
      <line id="Línea_474" data-name="Línea 474" x2="409.18" transform="translate(54.27 417.86)" fill="none" stroke="#263238" stroke-linecap="round" stroke-linejoin="round" stroke-width="1"/>
      <path id="Trazado_106660" data-name="Trazado 106660" d="M270.35,179.39s-7.35-.44-13.58,6.69-21.14,31.65-23.4,34.76,2,1.56,6.23,1.12,17-2.23,19.83-1.12,14.94,2.46,19.85,7.81S295.1,246,296.66,242.91s5.34-17.38,7.13-27,3.12-19.16-4.23-28.76S270.35,179.39,270.35,179.39Z" fill="#5e6178" stroke="#263238" stroke-linecap="round" stroke-linejoin="round" stroke-width="1"/>
      <path id="Trazado_106661" data-name="Trazado 106661" d="M269,168.69a65.59,65.59,0,0,1-7.82,26.75c-7.58,14.26-4,41.23-.23,39.93s26.76-16.55,29.89-25.22,2.44-21.62,8-35.43S308,153.07,308,153.07,274.82,168.25,269,168.69Z" fill="#ffbf9d"/>
      <g id="Grupo_59562" data-name="Grupo 59562" clip-path="url(#clip-path)">
        <path id="Trazado_106662" data-name="Trazado 106662" d="M269,168.69a58.19,58.19,0,0,1-2.79,14.67,31.87,31.87,0,0,0,10.14,1.26c12.07,0,13.31-2.08,13.31-2.08s-2.5,17.89-5.41,26.63c-1.68,5.06-4.06,10.67-5.78,14.51,5.76-4.61,11-9.69,12.37-13.53,3.11-8.69,2.44-21.62,8-35.43S308,153.07,308,153.07,274.82,168.25,269,168.69Z" opacity="0.15"/>
      </g>
      <path id="Trazado_106664" data-name="Trazado 106664" d="M269,168.69a65.59,65.59,0,0,1-7.82,26.75c-7.58,14.26-4,41.23-.23,39.93s26.76-16.55,29.89-25.22,2.44-21.62,8-35.43S308,153.07,308,153.07,274.82,168.25,269,168.69Z" fill="none" stroke="#263238" stroke-linecap="round" stroke-linejoin="round" stroke-width="1"/>
      <path id="Trazado_106665" data-name="Trazado 106665" d="M283.52,73.09a56.71,56.71,0,0,0-19.39,21.84c-7.13,14.49-6.68,33.65-6.68,33.65s.67,21.4-.45,29.86,9.4,14.49,14.26,14.72,20.05-9.81,27.19-12.71,9.14-3.35,16-10.25,18.73-27.87,19.4-39.67S332.54,85,322.27,76.66,298.22,65.74,283.52,73.09Z" fill="#ffbf9d"/>
      <g id="Grupo_59563" data-name="Grupo 59563" clip-path="url(#clip-path-2)">
        <path id="Trazado_106666" data-name="Trazado 106666" d="M266.26,171.7a14.22,14.22,0,0,0,5,1.46c4.9.22,20.05-9.81,27.19-12.71s9.14-3.35,16-10.25,18.73-27.87,19.4-39.67a54.419,54.419,0,0,0-2.22-19.77A32.66,32.66,0,0,0,317.57,101c-8.32,10.41,0,18.79-7,30s-18.33,17.44-26.66,26.22S277.54,171.48,266.26,171.7Z" opacity="0.15"/>
      </g>
      <path id="Trazado_106668" data-name="Trazado 106668" d="M283.52,73.09a56.71,56.71,0,0,0-19.39,21.84c-7.13,14.49-6.68,33.65-6.68,33.65s.67,21.4-.45,29.86,9.4,14.49,14.26,14.72,20.05-9.81,27.19-12.71,9.14-3.35,16-10.25,18.73-27.87,19.4-39.67S332.54,85,322.27,76.66,298.22,65.74,283.52,73.09Z" fill="none" stroke="#263238" stroke-linecap="round" stroke-linejoin="round" stroke-width="1"/>
      <path id="Trazado_106669" data-name="Trazado 106669" d="M274.82,122.45s-3.13,1.56-3.13,3.35,2.23,2.22,2.23,2.22" fill="none" stroke="#263238" stroke-linecap="round" stroke-linejoin="round" stroke-width="1"/>
      <path id="Trazado_106670" data-name="Trazado 106670" d="M276.38,123.12s-3.13,3.52-1.56,5.79,6.23.67,6.23.67-.22,1.12,2.46,1.34,4.23-3.12,2.67-5.34l-1.56-2.24" fill="none" stroke="#263238" stroke-linecap="round" stroke-linejoin="round" stroke-width="1"/>
      <path id="Trazado_106671" data-name="Trazado 106671" d="M278.67,111c-.54,1.61-1.6,2.71-2.35,2.46s-1-1.78-.44-3.39,1.59-2.71,2.35-2.45S279.2,109.38,278.67,111Z" fill="#344154" stroke="#263238" stroke-linecap="round" stroke-linejoin="round" stroke-width="1"/>
      <path id="Trazado_106672" data-name="Trazado 106672" d="M279.06,108.19a3.34,3.34,0,0,0-4.35-1.84l-.12.05c-3.12,1.34-4.69,9.15-1.34,10.7" fill="none" stroke="#263238" stroke-linecap="round" stroke-linejoin="round" stroke-width="1"/>
      <path id="Trazado_106673" data-name="Trazado 106673" d="M297.39,116.33c-.54,1.63-1.6,2.72-2.35,2.47s-1-1.77-.44-3.38,1.6-2.71,2.35-2.46S297.91,114.73,297.39,116.33Z" fill="#344154" stroke="#263238" stroke-linecap="round" stroke-linejoin="round" stroke-width="1"/>
      <path id="Trazado_106674" data-name="Trazado 106674" d="M297.77,113.54a3.32,3.32,0,0,0-4.32-1.84h-.14c-3.11,1.34-4.7,9.14-1.34,10.7" fill="none" stroke="#263238" stroke-linecap="round" stroke-linejoin="round" stroke-width="1"/>
      <path id="Trazado_106675" data-name="Trazado 106675" d="M269.25,142.85c-1.34-.67-7.14-4.24-6.92-6.47S264.79,131,267,133s8,6.25,8,6.25,3.35,4,9.58,1.17" fill="none" stroke="#263238" stroke-linecap="round" stroke-linejoin="round" stroke-width="1"/>
      <path id="Trazado_106676" data-name="Trazado 106676" d="M269.7,100.94s2.89-5.57,6.9-6,6,4,6,4.69" fill="none" stroke="#263238" stroke-linecap="round" stroke-linejoin="round" stroke-width="4"/>
      <path id="Trazado_106677" data-name="Trazado 106677" d="M292,103.84s4,4.91,12.92,5.36" fill="none" stroke="#263238" stroke-linecap="round" stroke-linejoin="round" stroke-width="4"/>
      <path id="Trazado_106678" data-name="Trazado 106678" d="M333.88,110.53c.66-11.81-1.34-25.63-11.59-33.87s-24.07-10.92-38.75-3.53c0,0-1.08.65-2.77,1.93a27,27,0,0,0,18.6,10.33c13.81,1.56,18.27-1.17,22.31,1.79s5.12,10.92,2.22,13.58-9.8,2.46-10.25,6.47,6.47,13.6,5.58,16.71-2.68,5.14-1.34,6.47,5.13-.44,6-.89.42,5-2.18,11.24C327.52,131.45,333.41,118.77,333.88,110.53Z" fill="#344154" stroke="#263238" stroke-linecap="round" stroke-linejoin="round" stroke-width="1"/>
      <path id="Trazado_106679" data-name="Trazado 106679" d="M315.15,135s5.58-7.35,9.58-7.35,6,6.46,3.8,12.48-6.24,9.14-11.15,9.58-5.34-2-4.89-3.52" fill="#ffbf9d" stroke="#263238" stroke-linecap="round" stroke-linejoin="round" stroke-width="1"/>
      <path id="Trazado_106680" data-name="Trazado 106680" d="M312.49,269.88s6.23,15.82,10.69,21.14,16.44,14,26.52,20.72,12,21.62,10.47,27.19-6.23,10-16.71,7.13-18.95-15.38-27.64-28.31-14.48-22.51-15.15-23.18S312.49,269.88,312.49,269.88Z" fill="#ffbf9d"/>
      <g id="Grupo_59564" data-name="Grupo 59564" clip-path="url(#clip-path-3)">
        <path id="Trazado_106681" data-name="Trazado 106681" d="M360.17,339c1.56-5.57-.44-20.5-10.47-27.18s-22.07-15.39-26.52-20.73-10.69-21.14-10.69-21.14S300,294,300.67,294.61s6.46,10.25,15.15,23.18l.31.46,6-9.2s32.46,25,33.29,30.8a23.383,23.383,0,0,1,0,5.67,10.66,10.66,0,0,0,4.75-6.52Z" opacity="0.15"/>
      </g>
      <path id="Trazado_106683" data-name="Trazado 106683" d="M312.49,269.88s6.23,15.82,10.69,21.14,16.44,14,26.52,20.72,12,21.62,10.47,27.19-6.23,10-16.71,7.13-18.95-15.38-27.64-28.31-14.48-22.51-15.15-23.18S312.49,269.88,312.49,269.88Z" fill="none" stroke="#263238" stroke-linecap="round" stroke-linejoin="round" stroke-width="1"/>
      <path id="Trazado_106684" data-name="Trazado 106684" d="M319.17,441.93s5.81,2.13,17.83-2.55c17.14-6.64,44.46-29.15,44.46-29.15a112.491,112.491,0,0,1-39.92,0c-22.09-4-34-9.91-34-9.91l-23.23,33.14Z" fill="#6595bf"/>
      <g id="Grupo_59566" data-name="Grupo 59566" clip-path="url(#clip-path-4)">
        <g id="Grupo_59565" data-name="Grupo 59565">
          <path id="Trazado_106685" data-name="Trazado 106685" d="M319.17,441.93s5.81,2.13,17.83-2.55c17.14-6.64,44.46-29.15,44.46-29.15a112.491,112.491,0,0,1-39.92,0c-22.09-4-34-9.91-34-9.91l-23.23,33.14Z" fill="#d9a171"/>
          <path id="Trazado_106686" data-name="Trazado 106686" d="M319.17,441.93s5.81,2.13,17.83-2.55c17.14-6.64,44.46-29.15,44.46-29.15a112.491,112.491,0,0,1-39.92,0c-22.09-4-34-9.91-34-9.91l-23.23,33.14Z" fill="#6595bf" opacity="0.5"/>
        </g>
      </g>
      <path id="Trazado_106688" data-name="Trazado 106688" d="M319.17,441.93s5.81,2.13,17.83-2.55c17.14-6.64,44.46-29.15,44.46-29.15a112.491,112.491,0,0,1-39.92,0c-22.09-4-34-9.91-34-9.91l-23.23,33.14Z" fill="none" stroke="#263238" stroke-linecap="round" stroke-linejoin="round" stroke-width="1"/>
      <line id="Línea_475" data-name="Línea 475" x2="44.71" y2="7.5" transform="translate(287.77 430.05)" fill="none" stroke="#263238" stroke-linecap="round" stroke-linejoin="round" stroke-width="1"/>
      <line id="Línea_476" data-name="Línea 476" x1="44.38" y1="8.16" transform="translate(294.3 425.48)" fill="none" stroke="#263238" stroke-linecap="round" stroke-linejoin="round" stroke-width="1"/>
      <line id="Línea_477" data-name="Línea 477" x1="38.18" y1="6.86" transform="translate(305.07 422.86)" fill="none" stroke="#263238" stroke-linecap="round" stroke-linejoin="round" stroke-width="1"/>
      <line id="Línea_478" data-name="Línea 478" x1="36.23" y1="6.84" transform="translate(313.55 417.98)" fill="none" stroke="#263238" stroke-linecap="round" stroke-linejoin="round" stroke-width="1"/>
      <line id="Línea_479" data-name="Línea 479" x1="34.28" y1="5.87" transform="translate(317.79 414.71)" fill="none" stroke="#263238" stroke-linecap="round" stroke-linejoin="round" stroke-width="1"/>
      <path id="Trazado_106689" data-name="Trazado 106689" d="M338.43,383.07s9.27-1.5,4.18,12.38-21.74,26.12-23.72,36,.28,10.47.28,10.47l-28.88-6.22s2.27-21.52,18.12-37.94S338.43,383.07,338.43,383.07Z" fill="#6595bf"/>
      <g id="Grupo_59567" data-name="Grupo 59567" clip-path="url(#clip-path-5)">
        <path id="Trazado_106690" data-name="Trazado 106690" d="M338.43,383.07s9.27-1.5,4.18,12.38-21.74,26.12-23.72,36,.28,10.47.28,10.47l-28.88-6.22s2.27-21.52,18.12-37.94S338.43,383.07,338.43,383.07Z" opacity="0.15"/>
      </g>
      <path id="Trazado_106692" data-name="Trazado 106692" d="M338.43,383.07s9.27-1.5,4.18,12.38-21.74,26.12-23.72,36,.28,10.47.28,10.47l-28.88-6.22s2.27-21.52,18.12-37.94S338.43,383.07,338.43,383.07Z" fill="none" stroke="#263238" stroke-linecap="round" stroke-linejoin="round" stroke-width="1"/>
      <path id="Trazado_106693" data-name="Trazado 106693" d="M282.07,451.32s4.82-1.17,9.63-8.22,15.57-29.45,24.36-41.34,22.37-18.68,22.37-18.68l-68.82-7.65s-28,31.43-37.65,42.48-10.76,21.23-4,23.77,28.31,5.1,34,6S277.26,452.15,282.07,451.32Z" fill="#6595bf"/>
      <g id="Grupo_59569" data-name="Grupo 59569" clip-path="url(#clip-path-6)">
        <g id="Grupo_59568" data-name="Grupo 59568">
          <path id="Trazado_106694" data-name="Trazado 106694" d="M282.07,451.32s4.82-1.17,9.63-8.22,15.57-29.45,24.36-41.34,22.37-18.68,22.37-18.68l-68.82-7.65s-28,31.43-37.65,42.48-10.76,21.23-4,23.77,28.31,5.1,34,6S277.26,452.15,282.07,451.32Z" fill="#d9a171"/>
          <path id="Trazado_106695" data-name="Trazado 106695" d="M282.07,451.32s4.82-1.17,9.63-8.22,15.57-29.45,24.36-41.34,22.37-18.68,22.37-18.68l-68.82-7.65s-28,31.43-37.65,42.48-10.76,21.23-4,23.77,28.31,5.1,34,6S277.26,452.15,282.07,451.32Z" fill="#6595bf" opacity="0.5"/>
        </g>
      </g>
      <path id="Trazado_106697" data-name="Trazado 106697" d="M282.07,451.32s4.82-1.17,9.63-8.22,15.57-29.45,24.36-41.34,22.37-18.68,22.37-18.68l-68.82-7.65s-28,31.43-37.65,42.48-10.76,21.23-4,23.77,28.31,5.1,34,6S277.26,452.15,282.07,451.32Z" fill="none" stroke="#263238" stroke-linecap="round" stroke-linejoin="round" stroke-width="1"/>
      <line id="Línea_480" data-name="Línea 480" x1="61.86" y1="13.15" transform="translate(224.48 428.43)" fill="none" stroke="#263238" stroke-linecap="round" stroke-linejoin="round" stroke-width="1"/>
      <line id="Línea_481" data-name="Línea 481" x1="61.87" y1="13.16" transform="translate(228.36 420.63)" fill="none" stroke="#263238" stroke-linecap="round" stroke-linejoin="round" stroke-width="1"/>
      <line id="Línea_482" data-name="Línea 482" x1="61.87" y1="13.15" transform="translate(233.24 411.87)" fill="none" stroke="#263238" stroke-linecap="round" stroke-linejoin="round" stroke-width="1"/>
      <line id="Línea_483" data-name="Línea 483" x1="61.87" y1="13.15" transform="translate(238.6 401.15)" fill="none" stroke="#263238" stroke-linecap="round" stroke-linejoin="round" stroke-width="1"/>
      <line id="Línea_484" data-name="Línea 484" x1="61.86" y1="13.15" transform="translate(244.45 390.43)" fill="none" stroke="#263238" stroke-linecap="round" stroke-linejoin="round" stroke-width="1"/>
      <line id="Línea_485" data-name="Línea 485" x1="61.87" y1="13.15" transform="translate(249.31 381.67)" fill="none" stroke="#263238" stroke-linecap="round" stroke-linejoin="round" stroke-width="1"/>
      <line id="Línea_486" data-name="Línea 486" x1="61.87" y1="13.15" transform="translate(256.63 374.85)" fill="none" stroke="#263238" stroke-linecap="round" stroke-linejoin="round" stroke-width="1"/>
      <path id="Trazado_106698" data-name="Trazado 106698" d="M302.75,371.48s5.66,0,2.55,9.06-21.52,32.88-27.47,49,4.24,21.8,4.24,21.8-2.26,3.4-35.39-3.67-54.35-7.94-56.36-13.6,11-20.95,15.85-33.12,17-40.77,17-40.77,48.15,9.39,58.33,10.19S302.75,371.48,302.75,371.48Z" fill="#6595bf"/>
      <g id="Grupo_59570" data-name="Grupo 59570" clip-path="url(#clip-path-7)">
        <path id="Trazado_106699" data-name="Trazado 106699" d="M302.75,371.48s-11.05-.29-21.24-1.18-58.33-10.19-58.33-10.19-12.17,28.59-17,40.77a91.451,91.451,0,0,1-6.8,12.92l77.5,18.68a21.985,21.985,0,0,1,1-3c5.94-16.13,24.34-39.92,27.46-49S302.75,371.48,302.75,371.48Z" opacity="0.15"/>
      </g>
      <path id="Trazado_106701" data-name="Trazado 106701" d="M302.75,371.48s5.66,0,2.55,9.06-21.52,32.88-27.47,49,4.24,21.8,4.24,21.8-2.26,3.4-35.39-3.67-54.35-7.94-56.36-13.6,11-20.95,15.85-33.12,17-40.77,17-40.77,48.15,9.39,58.33,10.19S302.75,371.48,302.75,371.48Z" fill="none" stroke="#263238" stroke-linecap="round" stroke-linejoin="round" stroke-width="1"/>
      <path id="Trazado_106702" data-name="Trazado 106702" d="M266.78,407.41s0,2.26,8.51-7.93,27.46-28,27.46-28l-87.49-19s-24.92,25.74-28,29.7-5.39,5.09,2.83,8.78,49.32,8.22,58,10.48S266.78,407.41,266.78,407.41Z" fill="#6595bf"/>
      <g id="Grupo_59572" data-name="Grupo 59572" clip-path="url(#clip-path-8)">
        <g id="Grupo_59571" data-name="Grupo 59571">
          <path id="Trazado_106703" data-name="Trazado 106703" d="M266.78,407.41s0,2.26,8.51-7.93,27.46-28,27.46-28l-87.49-19s-24.92,25.74-28,29.7-5.39,5.09,2.83,8.78,49.32,8.22,58,10.48S266.78,407.41,266.78,407.41Z" fill="#d9a171"/>
          <path id="Trazado_106704" data-name="Trazado 106704" d="M266.78,407.41s0,2.26,8.51-7.93,27.46-28,27.46-28l-87.49-19s-24.92,25.74-28,29.7-5.39,5.09,2.83,8.78,49.32,8.22,58,10.48S266.78,407.41,266.78,407.41Z" fill="#6595bf" opacity="0.5"/>
        </g>
      </g>
      <path id="Trazado_106706" data-name="Trazado 106706" d="M266.78,407.41s0,2.26,8.51-7.93,27.46-28,27.46-28l-87.49-19s-24.92,25.74-28,29.7-5.39,5.09,2.83,8.78,49.32,8.22,58,10.48S266.78,407.41,266.78,407.41Z" fill="none" stroke="#263238" stroke-linecap="round" stroke-linejoin="round" stroke-width="1"/>
      <path id="Trazado_106707" data-name="Trazado 106707" d="M273.41,398.39s-52.84-6.2-67.57-9.15" fill="none" stroke="#263238" stroke-linecap="round" stroke-linejoin="round" stroke-width="1"/>
      <path id="Trazado_106708" data-name="Trazado 106708" d="M278,389.9s-31.35-3.26-44.4-5.87" fill="none" stroke="#263238" stroke-linecap="round" stroke-linejoin="round" stroke-width="1"/>
      <path id="Trazado_106709" data-name="Trazado 106709" d="M284.83,381.08s-38.51-6.85-48.31-9.46" fill="none" stroke="#263238" stroke-linecap="round" stroke-linejoin="round" stroke-width="1"/>
      <line id="Línea_487" data-name="Línea 487" x1="46.03" y1="10.77" transform="translate(245 363.46)" fill="none" stroke="#263238" stroke-linecap="round" stroke-linejoin="round" stroke-width="1"/>
      <path id="Trazado_106710" data-name="Trazado 106710" d="M300.45,262.27s-1.95,6.38-4.78,27.62-7,45.58-12.74,63.7-16.71,44.46-17.55,47.85a7,7,0,0,0,1.4,5.94s-11-1.69-42.19-5.09-61.71-18.68-60.87-20.67S185,359.53,196.6,333.48,226.33,242,226.33,242s36.81,17.28,47.85,18.42S300.45,262.27,300.45,262.27Z" fill="#6595bf"/>
      <g id="Grupo_59573" data-name="Grupo 59573" clip-path="url(#clip-path-9)">
        <path id="Trazado_106711" data-name="Trazado 106711" d="M295.67,289.91c2.83-21.24,4.78-27.62,4.78-27.62s-15.27-.7-26.3-1.83-47.85-18.41-47.85-18.41-13,46.84-24,77l83.58,24.33a477.866,477.866,0,0,0,9.79-53.47Z" opacity="0.15"/>
      </g>
      <path id="Trazado_106713" data-name="Trazado 106713" d="M300.45,262.27s-1.95,6.38-4.78,27.62-7,45.58-12.74,63.7-16.71,44.46-17.55,47.85a7,7,0,0,0,1.4,5.94s-11-1.69-42.19-5.09-61.71-18.68-60.87-20.67S185,359.53,196.6,333.48,226.33,242,226.33,242s36.81,17.28,47.85,18.42S300.45,262.27,300.45,262.27Z" fill="none" stroke="#263238" stroke-linecap="round" stroke-linejoin="round" stroke-width="1"/>
      <path id="Trazado_106714" data-name="Trazado 106714" d="M307.8,249.6s5.57,1.33,7.13,10,1.34,30.31.67,33-19.17,5.12-27.19,6.06-3.79-2-.22-14.71,7.35-22.07,9.14-24.73S302.89,246.92,307.8,249.6Z" fill="#ffbf9d" stroke="#263238" stroke-linecap="round" stroke-linejoin="round" stroke-width="1"/>
      <path id="Trazado_106715" data-name="Trazado 106715" d="M301.77,259.53s1.46,31.1,2.07,34.54-20.39,5-20.39,5l12.91-36.21" opacity="0.15"/>
      <path id="Trazado_106716" data-name="Trazado 106716" d="M302.22,305.72s-7.57,5.35-10.25,6.69S275,308,274.59,305.94s2.46-1.56,6.46-1.17,10.92,1.56,13.82.44S302.89,303.09,302.22,305.72Z" fill="#ffbf9d" stroke="#263238" stroke-linecap="round" stroke-linejoin="round" stroke-width="1"/>
      <path id="Trazado_106717" data-name="Trazado 106717" d="M312,296.39s-2.45,6.7-5.58,8.69-15.81,4-21.39,3.53-10.25-4-8.91-6-.23-.89,7.35-2,16.94-1.79,20.94-3.13A22.46,22.46,0,0,1,312,296.39Z" fill="#ffbf9d" stroke="#263238" stroke-linecap="round" stroke-linejoin="round" stroke-width="1"/>
      <path id="Trazado_106718" data-name="Trazado 106718" d="M312.7,283.24s-8.47,4.46-15.37,7.59a72.066,72.066,0,0,1-6.93,2.57,74.778,74.778,0,0,1-8.46.54c-4.89,0-7.79-.43-7.79,1.56,0,3.05,5.34,4.7,7.61,5.32,7.88,2.26,17.16-.5,25.1-1.81a16.66,16.66,0,0,0,5-1.51c4.12-2,4.89-6.91,4.22-9.81l-.27-.35" fill="#ffbf9d" stroke="#263238" stroke-linecap="round" stroke-linejoin="round" stroke-width="1"/>
      <path id="Trazado_106719" data-name="Trazado 106719" d="M300.45,262.27s-5.13,14.49-10.92,32.32a326.48,326.48,0,0,0-9.15,35.66s-4-2.23-33.86-12.48S179.21,295,179.21,295s28.08-33,34-48.8,9.14-12.92,23-7.57,33,15.14,44.12,16.26S300.45,260.07,300.45,262.27Z" fill="#6595bf"/>
      <g id="Grupo_59575" data-name="Grupo 59575" clip-path="url(#clip-path-10)">
        <g id="Grupo_59574" data-name="Grupo 59574">
          <path id="Trazado_106720" data-name="Trazado 106720" d="M300.45,262.27s-5.13,14.49-10.92,32.32a326.48,326.48,0,0,0-9.15,35.66s-4-2.23-33.86-12.48S179.21,295,179.21,295s28.08-33,34-48.8,9.14-12.92,23-7.57,33,15.14,44.12,16.26S300.45,260.07,300.45,262.27Z" fill="#d9a171"/>
          <path id="Trazado_106721" data-name="Trazado 106721" d="M300.45,262.27s-5.13,14.49-10.92,32.32a326.48,326.48,0,0,0-9.15,35.66s-4-2.23-33.86-12.48S179.21,295,179.21,295s28.08-33,34-48.8,9.14-12.92,23-7.57,33,15.14,44.12,16.26S300.45,260.07,300.45,262.27Z" fill="#6595bf" opacity="0.5"/>
        </g>
      </g>
      <path id="Trazado_106723" data-name="Trazado 106723" d="M300.45,262.27s-5.13,14.49-10.92,32.32a326.48,326.48,0,0,0-9.15,35.66s-4-2.23-33.86-12.48S179.21,295,179.21,295s28.08-33,34-48.8,9.14-12.92,23-7.57,33,15.14,44.12,16.26S300.45,260.07,300.45,262.27Z" fill="none" stroke="#263238" stroke-linecap="round" stroke-linejoin="round" stroke-width="1"/>
      <line id="Línea_488" data-name="Línea 488" x1="74.74" y1="25.78" transform="translate(203.88 283.82)" fill="none" stroke="#263238" stroke-linecap="round" stroke-linejoin="round" stroke-width="1"/>
      <line id="Línea_489" data-name="Línea 489" x1="72.01" y1="24.83" transform="translate(209.75 275.99)" fill="none" stroke="#263238" stroke-linecap="round" stroke-linejoin="round" stroke-width="1"/>
      <line id="Línea_490" data-name="Línea 490" x1="69.85" y1="24.16" transform="translate(214.98 267.82)" fill="none" stroke="#263238" stroke-linecap="round" stroke-linejoin="round" stroke-width="1"/>
      <line id="Línea_491" data-name="Línea 491" x1="65.28" y1="22.2" transform="translate(222.16 259.01)" fill="none" stroke="#263238" stroke-linecap="round" stroke-linejoin="round" stroke-width="1"/>
      <line id="Línea_492" data-name="Línea 492" x1="60.72" y1="21.55" transform="translate(228.68 249.54)" fill="none" stroke="#263238" stroke-linecap="round" stroke-linejoin="round" stroke-width="1"/>
      <ellipse id="Elipse_4212" data-name="Elipse 4212" cx="2.94" cy="2.13" rx="2.94" ry="2.13" transform="translate(197.02 280.55)" fill="none" stroke="#263238" stroke-linecap="round" stroke-linejoin="round" stroke-width="1"/>
      <ellipse id="Elipse_4213" data-name="Elipse 4213" cx="2.94" cy="2.13" rx="2.94" ry="2.13" transform="translate(203.22 272.72)" fill="none" stroke="#263238" stroke-linecap="round" stroke-linejoin="round" stroke-width="1"/>
      <ellipse id="Elipse_4214" data-name="Elipse 4214" cx="2.94" cy="2.13" rx="2.94" ry="2.13" transform="translate(208.11 265.37)" fill="none" stroke="#263238" stroke-linecap="round" stroke-linejoin="round" stroke-width="1"/>
      <ellipse id="Elipse_4215" data-name="Elipse 4215" cx="2.94" cy="2.13" rx="2.94" ry="2.13" transform="translate(213.34 255.24)" fill="none" stroke="#263238" stroke-linecap="round" stroke-linejoin="round" stroke-width="1"/>
      <path id="Trazado_106724" data-name="Trazado 106724" d="M226.07,247.59c0-1.17-1.31-2.12-2.93-2.12s-2.94.95-2.94,2.12,1.32,2.12,2.94,2.12S226.07,248.75,226.07,247.59Z" fill="none" stroke="#263238" stroke-linecap="round" stroke-linejoin="round" stroke-width="1"/>
      <path id="Trazado_106725" data-name="Trazado 106725" d="M306.91,256.5s-6.91,12-11.37,13.83-17.38-.23-16.44-3.13,7.35-3.79,11.59-9.39,8-12.92,12-11.81,6.91,5.78,7.14,7.35" fill="#ffbf9d" stroke="#263238" stroke-linecap="round" stroke-linejoin="round" stroke-width="1"/>
      <path id="Trazado_106726" data-name="Trazado 106726" d="M192.36,175.61s1.34,22.72,1.34,23.61-36.78,39.24-45.24,48.15-8.69,16.26-6.7,21.84,8.93,13.6,15.16,14.48,13.15-5.34,19.39-19.17,28.53-55.49,31-59.94,8.22-8.47,8.22-8.47,6-3.12,8.68-7.58,7.8-13.37,13.37-17.62,8.22-5.35,5.8-6.68-10.25,1.55-12.48,3.11-7.13,5.58-7.13,5.58-4.24-6.25-4.46-11.59,1.11-13-2-11.42S209,163,202.35,169.13C196.14,174.94,192.36,172.26,192.36,175.61Z" fill="#ffbf9d"/>
      <g id="Grupo_59576" data-name="Grupo 59576" clip-path="url(#clip-path-11)">
        <path id="Trazado_106727" data-name="Trazado 106727" d="M243.39,164.24c-2.45-1.33-10.25,1.55-12.48,3.12s-7.13,5.57-7.13,5.57-4.24-6.24-4.46-11.59,1.12-13-2-11.42S209,163,202.39,169.14a16.49,16.49,0,0,1-6,3.76l-1.11,4.7s4.58,2.92,4.58,6.66,5.87,5,6.23,8.74-2.49,7.9-4.58,10.41-35.79,60.75-44.53,67.83c-3.65,2.95-8.45,3.22-12.81,2.54,3.08,4.64,8.13,9.31,12.8,10,6.24.89,13.15-5.35,19.39-19.17s28.53-55.49,31-59.94,8.21-8.47,8.21-8.47,6-3.12,8.69-7.58,7.74-13.4,13.3-17.62S245.85,165.57,243.39,164.24Z" opacity="0.15"/>
      </g>
      <path id="Trazado_106729" data-name="Trazado 106729" d="M192.36,175.61s1.34,22.72,1.34,23.61-36.78,39.24-45.24,48.15-8.69,16.26-6.7,21.84,8.93,13.6,15.16,14.48,13.15-5.34,19.39-19.17,28.53-55.49,31-59.94,8.22-8.47,8.22-8.47,6-3.12,8.68-7.58,7.8-13.37,13.37-17.62,8.22-5.35,5.8-6.68-10.25,1.55-12.48,3.11-7.13,5.58-7.13,5.58-4.24-6.25-4.46-11.59,1.11-13-2-11.42S209,163,202.35,169.13C196.14,174.94,192.36,172.26,192.36,175.61Z" fill="none" stroke="#263238" stroke-linecap="round" stroke-linejoin="round" stroke-width="1"/>
      <path id="Trazado_106730" data-name="Trazado 106730" d="M261,151.09l.1.18a2.56,2.56,0,0,1-1,3.5h0l-42.36,23.49-8.2,1.79,5.6-6.44,42.37-23.49a2.58,2.58,0,0,1,3.49.97Z" fill="#d9a171" stroke="#263238" stroke-linecap="round" stroke-linejoin="round" stroke-width="1"/>
      <path id="Trazado_106731" data-name="Trazado 106731" d="M217.74,178.28l.3-.18-2.6-4.66-.31.16-5.59,6.45Z" fill="#6595bf" stroke="#263238" stroke-linecap="round" stroke-linejoin="round" stroke-width="1"/>
      <path id="Trazado_106732" data-name="Trazado 106732" d="M255.73,157.21l4.37-2.44a2.57,2.57,0,0,0,1-3.49h0l-.1-.17a2.58,2.58,0,0,0-3.5-1h0l-4.37,2.44Z" fill="#6595bf" stroke="#263238" stroke-linecap="round" stroke-linejoin="round" stroke-width="1"/>
      <rect id="Rectángulo_8501" data-name="Rectángulo 8501" width="2.68" height="5.35" transform="translate(251.375 153.531) rotate(-29.17)" fill="#6595bf" stroke="#263238" stroke-linecap="round" stroke-linejoin="round" stroke-width="1"/>
      <path id="Trazado_106733" data-name="Trazado 106733" d="M209.54,180.05l3.86-.85-1.23-2.19Z" fill="#6595bf" stroke="#263238" stroke-linecap="round" stroke-linejoin="round" stroke-width="1"/>
      <path id="Trazado_106734" data-name="Trazado 106734" d="M202.39,181s-.67,5.36-4.91,5.57" fill="none" stroke="#263238" stroke-linecap="round" stroke-linejoin="round" stroke-width="1"/>
      <path id="Trazado_106735" data-name="Trazado 106735" d="M214.41,154.24s7.8,12.48,10.48,14.94,6,2,6.68-.23-3.78-6.9-5.57-12.91-2.45-7.8-6-6.91S214.64,152,214.41,154.24Z" fill="#ffbf9d" stroke="#263238" stroke-linecap="round" stroke-linejoin="round" stroke-width="1"/>
      <path id="Trazado_106736" data-name="Trazado 106736" d="M226.9,170.26s-14-7.13-17.16-10.7-6.68,1.11-7.35,3.52,10.25,6.91,15.37,8.69,8.22,2.46,9.8.67S226.9,170.26,226.9,170.26Z" fill="#ffbf9d" stroke="#263238" stroke-linecap="round" stroke-linejoin="round" stroke-width="1"/>
      <path id="Trazado_106737" data-name="Trazado 106737" d="M203.28,165.12s-4.7,1.57-5.58,3.53,1.57,3.34,6,6,11.59,3.52,13.36,2.67,2-2.67-.45-3.53S205.29,166.46,203.28,165.12Z" fill="#ffbf9d" stroke="#263238" stroke-linecap="round" stroke-linejoin="round" stroke-width="1"/>
      <path id="Trazado_106738" data-name="Trazado 106738" d="M199.27,172s-5.12-1.34-6.69,1.56.23,4.7,5.57,6.24,13.37,2.68,13.6-.23-4.24-3.34-8-4.89S199.27,172,199.27,172Z" fill="#ffbf9d" stroke="#263238" stroke-linecap="round" stroke-linejoin="round" stroke-width="1"/>
    </g>
    <g id="freepik--Plants--inject-143">
      <path id="Trazado_106739" data-name="Trazado 106739" d="M73.88,361.59s-2.56-8.34-10-11.33c-5.2-2.09-11.18-1.54-16.57-.6-10,1.74-18.79,5.73-28.32,9.15,0,0,4.06-1.51,20.73,6.62,6.14,3,13.17,5.32,20.19,5.15C65.51,370.47,74.15,368.86,73.88,361.59Z" fill="#5e6178"/>
      <path id="Trazado_106740" data-name="Trazado 106740" d="M74.78,337.09s0-8.72-6.34-13.75c-4.38-3.52-10.27-4.69-15.7-5.36-10.12-1.18-19.65.06-29.75.57,0,0,4.32-.26,17.94,12.34,5,4.64,11.06,8.89,17.84,10.77C64.2,343.16,72.94,344.13,74.78,337.09Z" fill="#5e6178"/>
      <path id="Trazado_106741" data-name="Trazado 106741" d="M92,369.48S85.22,364,85.2,356c0-5.6,2.69-11,5.55-15.63,5.32-8.69,12.26-15.35,18.94-22.94,0,0-2.89,3.22-1.48,21.71.52,6.81.09,14.2-2.65,20.67C103.36,365,98.68,372.41,92,369.48Z" fill="#5e6178"/>
      <path id="Trazado_106742" data-name="Trazado 106742" d="M116.12,382.88s-1-8.68,4.69-14.4c4-4,9.66-5.87,15-7.14,9.91-2.35,19.52-2.21,29.62-2.86,0,0-4.32.24-16.44,14.32-4.45,5.19-10,10.11-16.44,12.77C127.34,387.69,118.76,389.65,116.12,382.88Z" fill="#5e6178"/>
      <path id="Trazado_106743" data-name="Trazado 106743" d="M114.53,352s-8.64-1.17-12.8-8.09c-2.89-4.8-3.31-10.79-3.25-16.26.1-10.2,2.63-19.48,4.46-29.36,0,0-.82,4.24,9.89,19.39,3.93,5.59,7.36,12.14,8.34,19.09C122,342.27,121.75,351.07,114.53,352Z" fill="#5e6178"/>
      <path id="Trazado_106744" data-name="Trazado 106744" d="M139.4,336.45s6.23,6.13,14.23,5.2c5.56-.63,10.57-4,14.87-7.34,8-6.29,13.82-14,20.58-21.49,0,0-2.86,3.24-21.39,4-6.83.28-14.09,1.57-20.22,5.05C142.61,324.66,135.71,330.18,139.4,336.45Z" fill="#5e6178"/>
      <path id="Trazado_106745" data-name="Trazado 106745" d="M132.2,330.38s8.69.87,14.35-4.86c3.94-4,5.76-9.72,7-15,2.29-9.93,2-19.55,2.56-29.65,0,0-.2,4.32-14.16,16.54-5.14,4.51-10,10.07-12.59,16.6C127.34,319.23,125.4,327.83,132.2,330.38Z" fill="#5e6178"/>
      <path id="Trazado_106746" data-name="Trazado 106746" d="M101.23,414.88,86.24,378,68.96,335.37" fill="none" stroke="#263238" stroke-linecap="round" stroke-linejoin="round" stroke-width="1"/>
      <path id="Trazado_106747" data-name="Trazado 106747" d="M104.68,408.54l14.98-51.29,16.12-31.68" fill="none" stroke="#263238" stroke-linecap="round" stroke-linejoin="round" stroke-width="1"/>
      <line id="Línea_493" data-name="Línea 493" y1="8.64" x2="14.98" transform="translate(110.44 379.73)" fill="none" stroke="#263238" stroke-linecap="round" stroke-linejoin="round" stroke-width="1"/>
      <line id="Línea_494" data-name="Línea 494" x1="7.49" y1="16.71" transform="translate(112.17 340.55)" fill="none" stroke="#263238" stroke-linecap="round" stroke-linejoin="round" stroke-width="1"/>
      <line id="Línea_495" data-name="Línea 495" y1="8.15" x2="18.29" transform="translate(129.03 332.48)" fill="none" stroke="#263238" stroke-linecap="round" stroke-linejoin="round" stroke-width="1"/>
      <line id="Línea_496" data-name="Línea 496" y1="25.35" x2="6.34" transform="translate(89.12 359.56)" fill="none" stroke="#263238" stroke-linecap="round" stroke-linejoin="round" stroke-width="1"/>
      <line id="Línea_497" data-name="Línea 497" x1="14.64" y1="7.81" transform="translate(66.08 357.83)" fill="none" stroke="#263238" stroke-linecap="round" stroke-linejoin="round" stroke-width="1"/>
      <path id="Trazado_106748" data-name="Trazado 106748" d="M116.17,433.31H89.16l-5.79-30.54h38.59Z" fill="#344154" stroke="#263238" stroke-linecap="round" stroke-linejoin="round" stroke-width="1"/>
    </g>
  </g>
</svg>
