<svg id="Grupo_57522" data-name="Grupo 57522" xmlns="http://www.w3.org/2000/svg" width="120" height="120" viewBox="0 0 120 120">
  <rect id="Rectángulo_5881" data-name="Rectángulo 5881" width="120" height="120" transform="translate(0 0)" fill="#5e6178" opacity="0"/>
  <g id="Grupo_57521" data-name="Grupo 57521" transform="translate(10.385 10.298)">
    <path id="Trazado_105713" data-name="Trazado 105713" d="M1025.377,4537.806a49.642,49.642,0,0,0-23.6,93.3l23.6-5.464,23.6,5.464a49.642,49.642,0,0,0-23.6-93.3Z" transform="translate(-975.762 -4537.806)" fill="#12263f"/>
    <g id="Grupo_57518" data-name="Grupo 57518" transform="translate(25.633 8.567)">
      <path id="Trazado_105714" data-name="Trazado 105714" d="M1079.239,4581.927l2.112,4.255a5.278,5.278,0,0,0,7.074,2.381s-7.6-15.683-8.025-16.317l-1.893,4.434Z" transform="translate(-1042.441 -4559.768)" fill="#ffbda9"/>
      <g id="Grupo_57517" data-name="Grupo 57517" transform="translate(0 22.163)">
        <path id="Trazado_105715" data-name="Trazado 105715" d="M1043.629,4610.654h-24.143v-22.56h24.143l8.169,11.955Z" transform="translate(-1019.486 -4588.095)" fill="#d9a171"/>
        <path id="Trazado_105716" data-name="Trazado 105716" d="M1058.73,4588.095h23.982v22.56H1058.73Z" transform="translate(-1034.749 -4588.095)" fill="#a66d58"/>
        <g id="Grupo_57515" data-name="Grupo 57515" transform="translate(17.094 5.068)">
          <path id="Trazado_105717" data-name="Trazado 105717" d="M1057.618,4603.275l-3.271,6.887a6.887,6.887,0,0,1,0-13.774Z" transform="translate(-1047.46 -4596.388)" fill="#f5ede9"/>
          <path id="Trazado_105718" data-name="Trazado 105718" d="M1065.617,4603.275a6.887,6.887,0,0,1-6.887,6.887v-13.774A6.887,6.887,0,0,1,1065.617,4603.275Z" transform="translate(-1051.843 -4596.388)" fill="#f2e9e4"/>
        </g>
        <path id="Trazado_105719" data-name="Trazado 105719" d="M1029.03,4618.39a6.909,6.909,0,0,0-6.909-6.909v6.909Z" transform="translate(-1020.511 -4597.19)" fill="#f5ede9"/>
        <path id="Trazado_105720" data-name="Trazado 105720" d="M1022.121,4597.229a6.909,6.909,0,0,0,6.909-6.909h-6.909Z" transform="translate(-1020.511 -4588.96)" fill="#f5ede9"/>
        <g id="Grupo_57516" data-name="Grupo 57516" transform="translate(39.703 1.36)">
          <path id="Trazado_105721" data-name="Trazado 105721" d="M1084.458,4590.321a6.909,6.909,0,0,0,6.909,6.909v-6.909Z" transform="translate(-1084.458 -4590.321)" fill="#f2e9e4"/>
          <path id="Trazado_105722" data-name="Trazado 105722" d="M1091.367,4611.481a6.909,6.909,0,0,0-6.909,6.909h6.909Z" transform="translate(-1084.458 -4598.551)" fill="#f2e9e4"/>
        </g>
      </g>
      <path id="Trazado_105723" data-name="Trazado 105723" d="M1051.4,4551.826h-8.66v9.024a28.829,28.829,0,0,0-3.127,13.644v17.594a2.363,2.363,0,1,0,4.726,0v-10.625h1.6v14.344a2.462,2.462,0,0,0,2.15,2.409,2.362,2.362,0,0,0,2.576-2.353v-14.4h.733l2.831-14.276Z" transform="translate(-1027.312 -4551.826)" fill="#ffccbd"/>
      <path id="Trazado_105724" data-name="Trazado 105724" d="M1067.778,4561.039l-.086-.019v-9.194H1058.9v29.637h.733v17.311a2.463,2.463,0,0,0,2.15,2.409,2.364,2.364,0,0,0,2.576-2.354v-17.366h1.6V4596.8a2.461,2.461,0,0,0,2.15,2.408,2.363,2.363,0,0,0,2.575-2.354v-22.137a7.591,7.591,0,0,0,.93-.733l1.162-9.68a7.54,7.54,0,0,0-5-3.266Z" transform="translate(-1034.814 -4551.826)" fill="#ffbda9"/>
    </g>
    <path id="Trazado_105725" data-name="Trazado 105725" d="M1053.5,4663.816a4.337,4.337,0,1,0-6.958,4.979l3.892,3.892h0l3.066,3.066h0l2.138-7.18Z" transform="translate(-1003.807 -4588.043)" fill="#e40058"/>
    <path id="Trazado_105726" data-name="Trazado 105726" d="M1058.732,4675.754l3.067-3.066h0l3.892-3.892a4.336,4.336,0,1,0-6.958-4.979Z" transform="translate(-1009.213 -4588.043)" fill="#d00050"/>
    <path id="Trazado_105727" data-name="Trazado 105727" d="M1019.271,4648.974v27.542a50.413,50.413,0,0,0,24.114,6.1l5.037-14.927-5.037-18.715h-24.114Z" transform="translate(-993.483 -4583.214)" fill="#aed3f2"/>
    <path id="Trazado_105728" data-name="Trazado 105728" d="M1058.732,4682.617a50.41,50.41,0,0,0,24.113-6.1v-27.542h-24.113Z" transform="translate(-1009.456 -4583.214)" fill="#839eb6"/>
    <g id="Grupo_57519" data-name="Grupo 57519" transform="translate(21.662 58.247)">
      <path id="Trazado_105729" data-name="Trazado 105729" d="M1040.941,4648.6h-27.953v-13.078h9.246l18.707,3.01,5.838,4.52Z" transform="translate(-1012.988 -4635.522)" fill="#a3bfd9"/>
      <path id="Trazado_105730" data-name="Trazado 105730" d="M1086.685,4648.6h-27.953v-10.068l18.707-3.01h9.246Z" transform="translate(-1030.779 -4635.522)" fill="#aed3f2"/>
    </g>
    <g id="Grupo_57520" data-name="Grupo 57520" transform="translate(30.908 58.397)">
      <path id="Trazado_105731" data-name="Trazado 105731" d="M1046.826,4638.532h-18.707v-3.01h18.707l3.907,1.5Z" transform="translate(-1028.119 -4635.522)" fill="#905041"/>
      <path id="Trazado_105732" data-name="Trazado 105732" d="M1058.732,4635.522h18.707v3.01h-18.707Z" transform="translate(-1040.025 -4635.522)" fill="#784132"/>
    </g>
  </g>
</svg>
