<svg id="Capa_2" data-name="Capa 2" xmlns="http://www.w3.org/2000/svg" width="150" height="150" viewBox="0 0 150 150">
  <circle id="Elipse_4258" data-name="Elipse 4258" cx="65" cy="65" r="65" transform="translate(10 10)" fill="#344154"/>
  <g id="Grupo_59876" data-name="Grupo 59876">
    <path id="Trazado_108249" data-name="Trazado 108249" d="M41.07,56.27H141.79v52.31H36.85l4.22-37.71Z" fill="#c1d5e5" fill-rule="evenodd"/>
    <path id="Trazado_108250" data-name="Trazado 108250" d="M41.07,115.3H5.14c-1.64,0-2.26-.78-2.26-2.25V97.12A3.18,3.18,0,0,1,5,94l9.63-3.9L32.36,70.87h8.71Z" fill="#d9a171" fill-rule="evenodd"/>
    <path id="Trazado_108251" data-name="Trazado 108251" d="M41.07,115.3H5.14c-1.64,0-2.26-.78-2.26-2.25v-4.78H28.39A5.65,5.65,0,0,0,34,102.63V70.87h7V115.3Z" fill="#a37955" fill-rule="evenodd"/>
    <path id="Trazado_108252" data-name="Trazado 108252" d="M134.75,58.43h7v48H41.07v-7H127.7a7.07,7.07,0,0,0,7-7Z" fill="#84aacc" fill-rule="evenodd"/>
    <path id="Trazado_108253" data-name="Trazado 108253" d="M144.86,106.42a2.27,2.27,0,0,1,2.26,2.25v4.38a2.26,2.26,0,0,1-2.26,2.25H41.07v-8.88Z" fill="#6595bf" fill-rule="evenodd"/>
    <path id="Trazado_108254" data-name="Trazado 108254" d="M48.47,49.54l28.41,2.54,28.73-2.54L78.67,23.63a2.08,2.08,0,0,0-3.25,0Z" fill="#f0d9c6" fill-rule="evenodd"/>
    <path id="Trazado_108255" data-name="Trazado 108255" d="M88.73,49.54l21.81,2.4,18.69-2.4L110.6,31.63a2.08,2.08,0,0,0-3.25,0Z" fill="#d9a171" fill-rule="evenodd"/>
    <path id="Trazado_108256" data-name="Trazado 108256" d="M34.62,49.54H144.86a2.27,2.27,0,0,1,2.26,2.25v4.39a2.26,2.26,0,0,1-2.26,2.25H34.62a2.26,2.26,0,0,1-2.26-2.25V51.79a2.26,2.26,0,0,1,2.26-2.25Z" fill="#6595bf" fill-rule="evenodd"/>
    <path id="Trazado_108257" data-name="Trazado 108257" d="M103.36,88.78l9.91-17.16A4.457,4.457,0,1,1,121,76.06l-9.9,17.17a4.45,4.45,0,0,1-7.7-4.45Zm-41.47,0L71.8,71.62a4.444,4.444,0,0,1,7.7,4.44L69.59,93.23a4.45,4.45,0,0,1-7.7-4.45Zm20.74,0,9.91-17.16a4.44,4.44,0,1,1,7.69,4.44L90.32,93.23a4.442,4.442,0,0,1-7.69-4.45Z" fill="#5e6178" fill-rule="evenodd"/>
    <path id="Trazado_108258" data-name="Trazado 108258" d="M14.61,90.12h15.5a2,2,0,0,0,2.25-2.25v-17H25.91a3.25,3.25,0,0,0-3.21,2Z" fill="#aed3f2" fill-rule="evenodd"/>
    <path id="Trazado_108259" data-name="Trazado 108259" d="M22,127.15A11.85,11.85,0,1,0,10.13,115.3,11.85,11.85,0,0,0,22,127.15Z" fill="#5e6178" fill-rule="evenodd"/>
    <path id="Trazado_108260" data-name="Trazado 108260" d="M126.05,127.15A11.85,11.85,0,1,0,114.2,115.3a11.85,11.85,0,0,0,11.85,11.85Z" fill="#5e6178" fill-rule="evenodd"/>
    <path id="Trazado_108261" data-name="Trazado 108261" d="M137.37,111.79a12,12,0,0,1,.53,3.51,11.85,11.85,0,0,1-23.7,0,11.35,11.35,0,0,1,.54-3.51,11.85,11.85,0,0,0,22.63,0Z" fill="#47495a" fill-rule="evenodd"/>
    <path id="Trazado_108262" data-name="Trazado 108262" d="M93.46,127.15A11.85,11.85,0,1,0,81.61,115.3a11.85,11.85,0,0,0,11.85,11.85Z" fill="#5e6178" fill-rule="evenodd"/>
    <path id="Trazado_108263" data-name="Trazado 108263" d="M104.78,111.79a11.65,11.65,0,0,1,.53,3.51,11.85,11.85,0,1,1-23.7,0,11.665,11.665,0,0,1,.541-3.513,11.85,11.85,0,0,0,22.63,0Z" fill="#47495a" fill-rule="evenodd"/>
    <path id="Trazado_108264" data-name="Trazado 108264" d="M33.29,111.79a11.66,11.66,0,0,1,.54,3.51,11.85,11.85,0,0,1-23.7,0,11.65,11.65,0,0,1,.53-3.51,11.85,11.85,0,0,0,22.63,0Z" fill="#47495a" fill-rule="evenodd"/>
    <g id="Grupo_59875" data-name="Grupo 59875">
      <path id="Trazado_108265" data-name="Trazado 108265" d="M22,119.41a4.11,4.11,0,1,0-4.12-4.11A4.11,4.11,0,0,0,22,119.41Z" fill="#e0dbee" fill-rule="evenodd"/>
      <path id="Trazado_108266" data-name="Trazado 108266" d="M126.05,119.41a4.11,4.11,0,1,0-4.11-4.11A4.11,4.11,0,0,0,126.05,119.41Z" fill="#e0dbee" fill-rule="evenodd"/>
      <path id="Trazado_108267" data-name="Trazado 108267" d="M93.46,119.41a4.11,4.11,0,1,0-4.1-4.11,4.11,4.11,0,0,0,4.1,4.11Z" fill="#e0dbee" fill-rule="evenodd"/>
    </g>
    <path id="Trazado_108268" data-name="Trazado 108268" d="M96.05,42.5l-7.32,7h40.5l-7.32-7Z" fill="#a37955" fill-rule="evenodd"/>
    <path id="Trazado_108269" data-name="Trazado 108269" d="M88.73,49.54l7.32-7H55.8l-7.33,7Z" fill="#e8c7aa" fill-rule="evenodd"/>
  </g>
  <rect id="Rectángulo_8801" data-name="Rectángulo 8801" width="150" height="150" fill="none"/>
</svg>
