<svg xmlns="http://www.w3.org/2000/svg" width="250" height="250" viewBox="0 0 250 250">
  <g id="Grupo_58231" data-name="Grupo 58231" transform="translate(-531.929 -6831.064)">
    <rect id="Rectángulo_5925" data-name="Rectángulo 5925" width="250" height="250" transform="translate(531.929 6831.064)" fill="#344154" opacity="0"/>
    <g id="Grupo_58230" data-name="Grupo 58230">
      <rect id="Rectángulo_5926" data-name="Rectángulo 5926" width="21.219" height="0.16" transform="translate(745.587 7057.549)" fill="#aed3f2"/>
      <rect id="Rectángulo_5927" data-name="Rectángulo 5927" width="5.568" height="0.16" transform="translate(685.202 7059.292)" fill="#aed3f2"/>
      <rect id="Rectángulo_5928" data-name="Rectángulo 5928" width="12.295" height="0.16" transform="translate(732.651 7051.603)" fill="#aed3f2"/>
      <rect id="Rectángulo_5929" data-name="Rectángulo 5929" width="4.056" height="0.16" transform="translate(545.552 7052.68)" fill="#aed3f2"/>
      <rect id="Rectángulo_5930" data-name="Rectángulo 5930" width="60.019" height="0.16" transform="translate(562.793 7055.383)" fill="#aed3f2"/>
      <rect id="Rectángulo_5931" data-name="Rectángulo 5931" width="9.264" height="12.916" transform="translate(603.284 6913.248)" fill="#aed3f2"/>
      <rect id="Rectángulo_5932" data-name="Rectángulo 5932" width="9.264" height="12.916" transform="translate(615.611 6913.248)" fill="#aed3f2"/>
      <rect id="Rectángulo_5933" data-name="Rectángulo 5933" width="9.264" height="12.916" transform="translate(627.938 6913.248)" fill="#aed3f2"/>
      <rect id="Rectángulo_5934" data-name="Rectángulo 5934" width="9.264" height="12.916" transform="translate(565.939 6936.44)" fill="#aed3f2"/>
      <rect id="Rectángulo_5935" data-name="Rectángulo 5935" width="9.264" height="12.916" transform="translate(578.259 6936.44)" fill="#aed3f2"/>
      <rect id="Rectángulo_5936" data-name="Rectángulo 5936" width="9.264" height="12.916" transform="translate(590.586 6936.44)" fill="#aed3f2"/>
      <rect id="Rectángulo_5937" data-name="Rectángulo 5937" width="9.264" height="12.916" transform="translate(602.913 6936.44)" fill="#aed3f2"/>
      <rect id="Rectángulo_5938" data-name="Rectángulo 5938" width="9.264" height="12.916" transform="translate(615.233 6936.44)" fill="#aed3f2"/>
      <rect id="Rectángulo_5939" data-name="Rectángulo 5939" width="9.264" height="12.916" transform="translate(627.56 6936.44)" fill="#aed3f2"/>
      <rect id="Rectángulo_5940" data-name="Rectángulo 5940" width="9.264" height="12.916" transform="translate(577.888 6959.633)" fill="#aed3f2"/>
      <rect id="Rectángulo_5941" data-name="Rectángulo 5941" width="9.264" height="12.916" transform="translate(590.208 6959.633)" fill="#aed3f2"/>
      <rect id="Rectángulo_5942" data-name="Rectángulo 5942" width="9.264" height="12.916" transform="translate(602.535 6959.633)" fill="#aed3f2"/>
      <rect id="Rectángulo_5943" data-name="Rectángulo 5943" width="9.264" height="12.916" transform="translate(577.51 6982.826)" fill="#aed3f2"/>
      <rect id="Rectángulo_5944" data-name="Rectángulo 5944" width="9.264" height="12.916" transform="translate(589.836 6982.826)" fill="#aed3f2"/>
      <rect id="Rectángulo_5945" data-name="Rectángulo 5945" width="9.264" height="12.916" transform="translate(602.157 6982.826)" fill="#aed3f2"/>
      <rect id="Rectángulo_5946" data-name="Rectángulo 5946" width="9.264" height="12.916" transform="translate(577.132 7006.019)" fill="#aed3f2"/>
      <rect id="Rectángulo_5947" data-name="Rectángulo 5947" width="9.264" height="12.916" transform="translate(601.785 7006.019)" fill="#aed3f2"/>
      <rect id="Rectángulo_5948" data-name="Rectángulo 5948" width="9.264" height="12.916" transform="translate(601.407 7029.211)" fill="#aed3f2"/>
      <rect id="Rectángulo_5949" data-name="Rectángulo 5949" width="9.264" height="13.371" transform="translate(570.93 6932.539)" fill="#aed3f2"/>
      <rect id="Rectángulo_5950" data-name="Rectángulo 5950" width="9.264" height="13.371" transform="translate(583.257 6932.539)" fill="#aed3f2"/>
      <rect id="Rectángulo_5951" data-name="Rectángulo 5951" width="9.264" height="13.371" transform="translate(582.879 6956.551)" fill="#aed3f2"/>
      <rect id="Rectángulo_5952" data-name="Rectángulo 5952" width="9.264" height="13.371" transform="translate(582.507 6980.571)" fill="#aed3f2"/>
      <rect id="Rectángulo_5953" data-name="Rectángulo 5953" width="2.422" height="17.869" transform="translate(601.785 6837.608)" fill="#aed3f2"/>
      <rect id="Rectángulo_5954" data-name="Rectángulo 5954" width="2.422" height="17.869" transform="translate(662.65 6837.608)" fill="#aed3f2"/>
      <rect id="Rectángulo_5955" data-name="Rectángulo 5955" width="81.546" height="25.967" transform="translate(591.797 6852.037)" fill="#f2e9e4"/>
      <rect id="Rectángulo_5956" data-name="Rectángulo 5956" width="3.396" height="25.967" transform="translate(669.941 6852.037)" fill="#aed3f2"/>
      <g id="freepik--Plant--inject-48">
        <path id="Trazado_106030" data-name="Trazado 106030" d="M561.811,7051.135s-3.62-7.9.519-15.683,5.33-9.611,2.7-11.212-3.844,6.227-3.844,6.227a17.6,17.6,0,0,1-.384-11.013c1.832-5.632,2.985-14.807.48-15.793s-.48,11.442-2.652,15.684a36.515,36.515,0,0,1-2.127-9.245c-.3-4.523.166-11.744-1.813-13.6s-3.242-.57-1.282,9.412a104.289,104.289,0,0,1,1.922,18.1s-4.3-13.1-7.182-13.454-2.877,3.844-.41,7.534,7.227,10.251,8.009,13.66c0,0-4.716-9.854-8.97-6.83s3.69,8.97,7.227,11.122,5.99,15.633,5.99,15.633Z" fill="#d9a171"/>
        <path id="Trazado_106031" data-name="Trazado 106031" d="M561.811,7051.135s-3.62-7.9.519-15.683,5.33-9.611,2.7-11.212-3.844,6.227-3.844,6.227a17.6,17.6,0,0,1-.384-11.013c1.832-5.632,2.985-14.807.48-15.793s-.48,11.442-2.652,15.684a36.515,36.515,0,0,1-2.127-9.245c-.3-4.523.166-11.744-1.813-13.6s-3.242-.57-1.282,9.412a104.289,104.289,0,0,1,1.922,18.1s-4.3-13.1-7.182-13.454-2.877,3.844-.41,7.534,7.227,10.251,8.009,13.66c0,0-4.716-9.854-8.97-6.83s3.69,8.97,7.227,11.122,5.99,15.633,5.99,15.633Z" fill="#47495a" opacity="0.6" style="isolation: isolate"/>
        <path id="Trazado_106032" data-name="Trazado 106032" d="M558.941,7054.371s3.523-7.951-.7-15.671-5.446-9.54-2.832-11.174,3.921,6.17,3.921,6.17a17.578,17.578,0,0,0,.256-11.02c-1.9-5.606-3.165-14.735-.64-15.78s.64,11.437,2.844,15.639a36.435,36.435,0,0,0,2.012-9.27c.25-4.53-.307-11.744,1.647-13.628s3.241-.64,1.416,9.393a104.171,104.171,0,0,0-1.711,18.125s4.139-13.154,7.047-13.583,2.922,3.844.5,7.535-7.1,10.372-7.842,13.774c0,0,4.594-9.924,8.874-6.97s-3.582,9.027-7.093,11.231-5.8,15.722-5.8,15.722Z" fill="#d9a171"/>
        <path id="Trazado_106033" data-name="Trazado 106033" d="M558.941,7054.371s3.523-7.951-.7-15.671-5.446-9.54-2.832-11.174,3.921,6.17,3.921,6.17a17.578,17.578,0,0,0,.256-11.02c-1.9-5.606-3.165-14.735-.64-15.78s.64,11.437,2.844,15.639a36.435,36.435,0,0,0,2.012-9.27c.25-4.53-.307-11.744,1.647-13.628s3.241-.64,1.416,9.393a104.171,104.171,0,0,0-1.711,18.125s4.139-13.154,7.047-13.583,2.922,3.844.5,7.535-7.1,10.372-7.842,13.774c0,0,4.594-9.924,8.874-6.97s-3.582,9.027-7.093,11.231-5.8,15.722-5.8,15.722Z" fill="#5e6178" opacity="0.7" style="isolation: isolate"/>
        <path id="Trazado_106034" data-name="Trazado 106034" d="M575.208,7048.7H546.095l2.358,20.835h24.4Z" fill="#d9a171"/>
      </g>
      <g id="freepik--trash-bin--inject-48">
        <path id="Trazado_106035" data-name="Trazado 106035" d="M762.276,7053.653a1.921,1.921,0,0,0-1.531-2.735,4.075,4.075,0,0,0-1.281-4.485.941.941,0,0,0-.558-.25,1.127,1.127,0,0,0-.608.263l-3.569,2.562a2.124,2.124,0,0,0-.711.7c-.73,1.416,1.922,3.2.82,4.4-.307.333-.807.4-1.2.641-.852.531-.955,1.7-1.345,2.62s-1.782,1.634-2.307.782c.391-.885-.794-1.641-1.749-1.756s-1.96-.166-2.492-1.063c-1.365,1.185-4.408-2.128-4.338-3.467a2.623,2.623,0,0,0-2.127,2.179,15.66,15.66,0,0,0-.115,3.331c-.032,2.172-.73,4.293-.692,6.458,0,1.685.679,3.556,2.223,4.235a5.783,5.783,0,0,0,2.39.321l17.574-.109a2.769,2.769,0,0,0,1.236-.205c.795-.417.961-1.461,1.038-2.352l.942-11.449Z" fill="#d9a171"/>
        <path id="Trazado_106036" data-name="Trazado 106036" d="M762.276,7053.653a1.921,1.921,0,0,0-1.531-2.735,4.075,4.075,0,0,0-1.281-4.485.941.941,0,0,0-.558-.25,1.127,1.127,0,0,0-.608.263l-3.569,2.562a2.124,2.124,0,0,0-.711.7c-.73,1.416,1.922,3.2.82,4.4-.307.333-.807.4-1.2.641-.852.531-.955,1.7-1.345,2.62s-1.782,1.634-2.307.782c.391-.885-.794-1.641-1.749-1.756s-1.96-.166-2.492-1.063c-1.365,1.185-4.408-2.128-4.338-3.467a2.623,2.623,0,0,0-2.127,2.179,15.66,15.66,0,0,0-.115,3.331c-.032,2.172-.73,4.293-.692,6.458,0,1.685.679,3.556,2.223,4.235a5.783,5.783,0,0,0,2.39.321l17.574-.109a2.769,2.769,0,0,0,1.236-.205c.795-.417.961-1.461,1.038-2.352l.942-11.449Z" fill="#ffbf9d" opacity="0.3" style="isolation: isolate"/>
        <path id="Trazado_106037" data-name="Trazado 106037" d="M763.3,7035.08H736.034l.224,2.755.16,1.967.417,5.125.237,2.941.314,3.915.134,1.678.045.5.16,1.973.218,2.7.135,1.678.141,1.705.16,1.973.122,1.493.134,1.678.058.731h25.025l.058-.731.134-1.672.122-1.505.16-1.974.141-1.7.135-1.678.217-2.71.161-1.967.038-.5.134-1.678.321-3.915.237-2.934.41-5.126.16-1.967.224-2.755Zm1.64,1.807h0l-.526-.526h.571Zm-.135,1.672-.051.641-2.441,2.441-2.8-2.8,2.505-2.5h.59Zm-.705,8.726-1.787,1.787-2.8-2.8,2.8-2.794,1.922,1.922Zm-25.947-1.871h0l1.922-1.922,2.8,2.794-2.8,2.8L738.3,7047.3Zm23.256-2.844-2.8,2.8-2.8-2.8,2.8-2.8Zm-4.4-6.209h3.2l-1.6,1.6Zm.692,9.912-2.793,2.8-2.775-2.8,2.8-2.794Zm-9.3,3.7,2.8-2.794,2.794,2.794-2.794,2.774Zm1.89,3.7-2.8,2.8-2.794-2.794,2.8-2.8Zm4.613-2.793,2.793,2.8-2.793,2.794-2.775-2.8Zm-3.7-5.517-2.8-2.8,2.8-2.8,2.794,2.8Zm-.909.9-2.794,2.8-2.8-2.8,2.8-2.794Zm-6.49-.9-2.794-2.8,2.794-2.8,2.8,2.8Zm0,1.813,2.8,2.794-2.8,2.774-2.794-2.8Zm2.8,10.207-2.8,2.793-2.794-2.793,2.794-2.8Zm.9.9,2.8,2.8-2.793,2.8-2.813-2.812Zm.909-.9,2.8-2.8,2.794,2.8-2.794,2.793Zm6.5.9,2.794,2.8-2.794,2.8-2.787-2.812Zm3.7,3.7,2.8,2.8-1.813,1.813h-1.973l-1.813-1.813Zm-2.8-4.606,2.8-2.8,2.8,2.8-2.8,2.793Zm0-7.413,2.8-2.794,2.8,2.794-2.812,2.774Zm1.89-11.11-2.794,2.8-2.787-2.8,2.505-2.505h.59Zm-6.5-.9-1.6-1.6h3.2Zm-.91.9-2.793,2.8-2.8-2.8,2.5-2.505h.59Zm-4.9-2.505-1.6,1.6-1.6-1.6Zm-5.01,0,2.505,2.505-2.8,2.8-2.434-2.441-.051-.641,2.191-2.2Zm-2.4,0-.519.519h0l-.045-.519Zm-.173,4.837,1.371,1.372-1.16,1.166Zm.762,9.386-.109-1.326h0l.718.718-.641.608Zm.135,1.685,1.377-1.383,2.8,2.8-2.8,2.794-1.127-1.128Zm.416,5.177v-.122l.064.065-.057.057Zm.487,5.965-.352-4.293.826-.826,2.8,2.8-2.8,2.793-.474-.474Zm.257,3.2-.052-.64.269-.269.91.909Zm1.127-1.813,2.794-2.8,2.8,2.8-1.813,1.813h-1.973Zm5.593,1.813.91-.909.91.909Zm3.627,0-1.814-1.813,2.8-2.8,2.794,2.8-1.807,1.813Zm3.78,0,.909-.909.91.909Zm8.534,0h-1.128l.91-.909.269.269Zm.262-3.2-.48.474-2.813-2.806,2.8-2.8.826.827Zm.494-6.093v.128l-.058-.057.07-.071Zm.16-1.967-1.134,1.128-2.8-2.794,2.8-2.8,1.384,1.383Zm.384-4.76-.641-.641.724-.717Zm.75-9.373-.205,2.562-1.173-1.172,1.378-1.377Z" fill="#d9a171"/>
        <g id="Grupo_58226" data-name="Grupo 58226" opacity="0.6">
          <path id="Trazado_106038" data-name="Trazado 106038" d="M763.3,7035.08H736.034l.224,2.755.16,1.967.417,5.125.237,2.941.314,3.915.134,1.678.045.5.16,1.973.218,2.7.135,1.678.141,1.705.16,1.973.122,1.493.134,1.678.058.731h25.025l.058-.731.134-1.672.122-1.505.16-1.974.141-1.7.135-1.678.217-2.71.161-1.967.038-.5.134-1.678.321-3.915.237-2.934.41-5.126.16-1.967.224-2.755Zm1.64,1.807h0l-.526-.526h.571Zm-.135,1.672-.051.641-2.441,2.441-2.8-2.8,2.505-2.5h.59Zm-.705,8.726-1.787,1.787-2.8-2.8,2.8-2.794,1.922,1.922Zm-25.947-1.871h0l1.922-1.922,2.8,2.794-2.8,2.8L738.3,7047.3Zm23.256-2.844-2.8,2.8-2.8-2.8,2.8-2.8Zm-4.4-6.209h3.2l-1.6,1.6Zm.692,9.912-2.793,2.8-2.775-2.8,2.8-2.794Zm-9.3,3.7,2.8-2.794,2.794,2.794-2.794,2.774Zm1.89,3.7-2.8,2.8-2.794-2.794,2.8-2.8Zm4.613-2.793,2.793,2.8-2.793,2.794-2.775-2.8Zm-3.7-5.517-2.8-2.8,2.8-2.8,2.794,2.8Zm-.909.9-2.794,2.8-2.8-2.8,2.8-2.794Zm-6.49-.9-2.794-2.8,2.794-2.8,2.8,2.8Zm0,1.813,2.8,2.794-2.8,2.774-2.794-2.8Zm2.8,10.207-2.8,2.793-2.794-2.793,2.794-2.8Zm.9.9,2.8,2.8-2.793,2.8-2.813-2.812Zm.909-.9,2.8-2.8,2.794,2.8-2.794,2.793Zm6.5.9,2.794,2.8-2.794,2.8-2.787-2.812Zm3.7,3.7,2.8,2.8-1.813,1.813h-1.973l-1.813-1.813Zm-2.8-4.606,2.8-2.8,2.8,2.8-2.8,2.793Zm0-7.413,2.8-2.794,2.8,2.794-2.812,2.774Zm1.89-11.11-2.794,2.8-2.787-2.8,2.505-2.505h.59Zm-6.5-.9-1.6-1.6h3.2Zm-.91.9-2.793,2.8-2.8-2.8,2.5-2.505h.59Zm-4.9-2.505-1.6,1.6-1.6-1.6Zm-5.01,0,2.505,2.505-2.8,2.8-2.434-2.441-.051-.641,2.191-2.2Zm-2.4,0-.519.519h0l-.045-.519Zm-.173,4.837,1.371,1.372-1.16,1.166Zm.762,9.386-.109-1.326h0l.718.718-.641.608Zm.135,1.685,1.377-1.383,2.8,2.8-2.8,2.794-1.127-1.128Zm.416,5.177v-.122l.064.065-.057.057Zm.487,5.965-.352-4.293.826-.826,2.8,2.8-2.8,2.793-.474-.474Zm.257,3.2-.052-.64.269-.269.91.909Zm1.127-1.813,2.794-2.8,2.8,2.8-1.813,1.813h-1.973Zm5.593,1.813.91-.909.91.909Zm3.627,0-1.814-1.813,2.8-2.8,2.794,2.8-1.807,1.813Zm3.78,0,.909-.909.91.909Zm8.534,0h-1.128l.91-.909.269.269Zm.262-3.2-.48.474-2.813-2.806,2.8-2.8.826.827Zm.494-6.093v.128l-.058-.057.07-.071Zm.16-1.967-1.134,1.128-2.8-2.794,2.8-2.8,1.384,1.383Zm.384-4.76-.641-.641.724-.717Zm.75-9.373-.205,2.562-1.173-1.172,1.378-1.377Z" fill="#ffbf9d"/>
        </g>
        <rect id="Rectángulo_5957" data-name="Rectángulo 5957" width="33.828" height="3.569" rx="1.051" transform="translate(734.291 7033.933)" fill="#d9a171"/>
        <rect id="Rectángulo_5958" data-name="Rectángulo 5958" width="28.952" height="3.569" rx="1.051" transform="translate(736.726 7065.974)" fill="#d9a171"/>
      </g>
      <g id="freepik--character-2--inject-48">
        <path id="Trazado_106039" data-name="Trazado 106039" d="M612.594,6937.741h19.221l13.012,5.279H625.606Z" fill="#ffbf9d" opacity="0.3" style="isolation: isolate"/>
        <g id="freepik--group--inject-48">
          <path id="Trazado_106040" data-name="Trazado 106040" d="M675.823,6902.01c4.049,2.063,2.889,11.994-7.464,30.535l-7.093-5.766a104.84,104.84,0,0,1,6.51-16.76C671.972,6901.651,675.823,6902.01,675.823,6902.01Z" fill="#d9a171"/>
          <path id="Trazado_106041" data-name="Trazado 106041" d="M675.823,6902.01c4.049,2.063,2.889,11.994-7.464,30.535l-7.093-5.766a104.84,104.84,0,0,1,6.51-16.76C671.972,6901.651,675.823,6902.01,675.823,6902.01Z" fill="#ffbf9d" opacity="0.4" style="isolation: isolate"/>
          <path id="Trazado_106042" data-name="Trazado 106042" d="M710.6,6946.64H683.05c-2.621,14.319-10.828,64.978-4.94,110.114l9.315-1.159s-.865-59.923,7.381-82.072c.948,11.853,2.069,24.468,3.05,31.182,2.383,16.517,7.509,52.626,7.509,52.626h9.5s-1.922-34.559-2.845-50.8C711.06,6988.906,710.637,6950.241,710.6,6946.64Z" fill="#344154"/>
          <path id="Trazado_106043" data-name="Trazado 106043" d="M673.849,6902.151c2.851-.641,17.888-4.011,30.023-3.537,0,0,3.9,39.985,7.56,56.24l-31.733,5.561s-7.125-39.787-6.349-57.662A.64.64,0,0,1,673.849,6902.151Z" fill="#d9a171"/>
          <path id="Trazado_106044" data-name="Trazado 106044" d="M673.849,6902.151c2.851-.641,17.888-4.011,30.023-3.537,0,0,3.9,39.985,7.56,56.24l-31.733,5.561s-7.125-39.787-6.349-57.662A.64.64,0,0,1,673.849,6902.151Z" fill="#ffbf9d" opacity="0.6" style="isolation: isolate"/>
          <path id="Trazado_106045" data-name="Trazado 106045" d="M701.04,6898.076s-3.633,15.274,6.3,28.248l2.454,16.293,2.851,13.492-15.787,4.165-5.657-12.667-.57,13.987-12.564,1.832-1.365-16.017s-2.172-12.647-2.729-19.592c0,0-1.884-16.094,1.051-26.358l4.132-.891s.231,9.809,6.51,17.677c0,0,5.958-15.7,11.365-20.15Z" fill="#d9a171"/>
          <path id="Trazado_106046" data-name="Trazado 106046" d="M701.04,6898.076s-3.633,15.274,6.3,28.248l2.454,16.293,2.851,13.492-15.787,4.165-5.657-12.667-.57,13.987-12.564,1.832-1.365-16.017s-2.172-12.647-2.729-19.592c0,0-1.884-16.094,1.051-26.358l4.132-.891s.231,9.809,6.51,17.677c0,0,5.958-15.7,11.365-20.15Z" fill="#d9a171" opacity="0.2" style="isolation: isolate"/>
          <path id="Trazado_106047" data-name="Trazado 106047" d="M661.266,6926.779s-2.688,10.7-3.489,11.914-18.865-1.752-18.865-1.752-3.08-1.187-4.87-.375-7.48,2.914-7.836,4.39,4.075,4.271,4.977,5.03c.794.669,4.849-1.778,5.912-2.642a4.541,4.541,0,0,0,1.5-2.138s18.992,6.174,24.613,4.533,5.151-13.194,5.151-13.194Z" fill="#d9a171"/>
          <path id="Trazado_106048" data-name="Trazado 106048" d="M686.413,7064.615l-5.356.564-1.006-11.558,5.356-.57Z" fill="#d9a171"/>
          <path id="Trazado_106049" data-name="Trazado 106049" d="M713.168,7064.225h-5.2l-.429-12.032h5.2Z" fill="#d9a171"/>
          <path id="Trazado_106050" data-name="Trazado 106050" d="M707.248,7063.642h6.311a.466.466,0,0,1,.448.358l1.019,4.626a.763.763,0,0,1-.581.908l-.008,0a.8.8,0,0,1-.167,0c-2.044-.032-3.53-.154-6.093-.154-1.582,0-6.343.16-8.527.16s-2.461-2.152-1.57-2.351c4-.871,7.015-2.082,8.3-3.2A1.276,1.276,0,0,1,707.248,7063.642Z" fill="#344154"/>
          <path id="Trazado_106051" data-name="Trazado 106051" d="M705.531,7064.539a1.557,1.557,0,0,1-.993-.27.722.722,0,0,1-.263-.64.373.373,0,0,1,.212-.34c.576-.3,2.255.731,2.441.852a.11.11,0,0,1,.057.116.135.135,0,0,1-.089.109A7.092,7.092,0,0,1,705.531,7064.539Zm-.769-1.083a.325.325,0,0,0-.16.038c-.032,0-.077.045-.083.141a.519.519,0,0,0,.166.442,2.5,2.5,0,0,0,1.852.1A5.124,5.124,0,0,0,704.762,7063.456Z" fill="#d9a171"/>
          <path id="Trazado_106052" data-name="Trazado 106052" d="M706.864,7064.353H706.8c-.532-.295-1.57-1.435-1.468-1.986a.405.405,0,0,1,.4-.321.681.681,0,0,1,.525.154c.6.493.724,1.986.73,2.057a.135.135,0,0,1-.057.115A.11.11,0,0,1,706.864,7064.353Zm-1.045-2.108h-.064c-.153,0-.166.09-.179.122-.064.339.6,1.2,1.134,1.608a2.96,2.96,0,0,0-.641-1.628.424.424,0,0,0-.25-.1Z" fill="#d9a171"/>
          <path id="Trazado_106053" data-name="Trazado 106053" d="M680.487,7063.456h6.3a.468.468,0,0,1,.442.359l1.025,4.625a.769.769,0,0,1-.59.91H687.5c-2.044-.038-3.53-.16-6.093-.16-1.583,0-6.349.167-8.528.167s-2.466-2.16-1.569-2.358c4-.871,7.015-2.082,8.3-3.2A1.281,1.281,0,0,1,680.487,7063.456Z" fill="#344154"/>
          <path id="Trazado_106054" data-name="Trazado 106054" d="M678.77,7064.372a1.583,1.583,0,0,1-1-.263.755.755,0,0,1-.256-.64.367.367,0,0,1,.211-.34c.577-.3,2.256.73,2.441.852a.116.116,0,0,1,.058.116.127.127,0,0,1-.1.108A6.036,6.036,0,0,1,678.77,7064.372Zm-.775-1.076a.248.248,0,0,0-.154.032c-.039,0-.077.045-.084.147a.535.535,0,0,0,.167.442,2.565,2.565,0,0,0,1.852.09,5.138,5.138,0,0,0-1.781-.711Z" fill="#d9a171"/>
          <path id="Trazado_106055" data-name="Trazado 106055" d="M680.1,7064.186h-.058c-.538-.288-1.569-1.435-1.467-1.986a.4.4,0,0,1,.4-.32.639.639,0,0,1,.519.16c.6.487.731,1.98.737,2.05a.145.145,0,0,1-.058.115A.124.124,0,0,1,680.1,7064.186Zm-1.044-2.108h-.058c-.16,0-.173.09-.179.122-.064.34.595,1.2,1.134,1.608a2.956,2.956,0,0,0-.641-1.627A.454.454,0,0,0,679.052,7062.078Z" fill="#d9a171"/>
          <path id="Trazado_106056" data-name="Trazado 106056" d="M685.407,7053.051l-5.356.57.519,5.965,5.363-.57Z" fill="#d9a171" opacity="0.2" style="isolation: isolate"/>
          <path id="Trazado_106057" data-name="Trazado 106057" d="M712.739,7052.2h-5.2l.224,6.2h5.2Z" fill="#d9a171" opacity="0.2" style="isolation: isolate"/>
          <path id="Trazado_106058" data-name="Trazado 106058" d="M677.021,7058.926l11.552-1.717-.352-3.2-12.019,1.583Z" fill="#d9a171"/>
          <path id="Trazado_106059" data-name="Trazado 106059" d="M677.021,7058.926l11.552-1.717-.352-3.2-12.019,1.583Z" fill="#ffbf9d" opacity="0.6" style="isolation: isolate"/>
          <path id="Trazado_106060" data-name="Trazado 106060" d="M704.237,7057.408h11.206v-3.351l-11.628-.218Z" fill="#d9a171"/>
          <path id="Trazado_106061" data-name="Trazado 106061" d="M704.237,7057.408h11.206v-3.351l-11.628-.218Z" fill="#ffbf9d" opacity="0.6" style="isolation: isolate"/>
          <path id="Trazado_106062" data-name="Trazado 106062" d="M694.793,6973.523a73.759,73.759,0,0,0-3.075,11.955c-.775-10.552,2.313-21.738,2.313-21.738Z" fill="#d9a171" opacity="0.2" style="isolation: isolate"/>
          <path id="Trazado_106063" data-name="Trazado 106063" d="M693.749,6898.948c-2,2.767-8.246,3.2-8.246,3.2s-4-.237-3.459-1.589c2.152-.839,3.011-2.108,3.2-3.536a6.577,6.577,0,0,0-.314-2.595,12.473,12.473,0,0,0-.487-1.384l6.324-7.137C690.539,6889.805,690.763,6896.8,693.749,6898.948Z" fill="#d9a171"/>
          <path id="Trazado_106064" data-name="Trazado 106064" d="M689.757,6889.824a6.511,6.511,0,0,1-4.536,7.221,6.58,6.58,0,0,0-.313-2.595Z" fill="#d9a171" opacity="0.2" style="isolation: isolate"/>
          <path id="Trazado_106065" data-name="Trazado 106065" d="M677.059,6875.351s-1.563,7.048,2.044,10.078,4.485-10.3,4.485-10.3Z" fill="#344154"/>
          <path id="Trazado_106066" data-name="Trazado 106066" d="M689.725,6891.849a6.5,6.5,0,0,1-7.617,2.012,7.231,7.231,0,0,1-3.889-3.633,5.782,5.782,0,0,1-.3-.711c-1.57-4.485-1.647-12.173,3.158-14.736a7.048,7.048,0,0,1,10.379,6.016C691.68,6885.955,692.051,6888.972,689.725,6891.849Z" fill="#d9a171"/>
          <path id="Trazado_106067" data-name="Trazado 106067" d="M683.831,6883.039c.071.41-.141.776-.416.808s-.526-.3-.571-.711.148-.776.417-.8S683.786,6882.617,683.831,6883.039Z" fill="#344154"/>
          <path id="Trazado_106068" data-name="Trazado 106068" d="M679.1,6883.52c.071.41-.147.775-.422.807s-.526-.295-.571-.705.148-.781.417-.807S679.1,6883.129,679.1,6883.52Z" fill="#344154"/>
          <path id="Trazado_106069" data-name="Trazado 106069" d="M680.641,6883.571a15.311,15.311,0,0,1-1.628,3.774,2.418,2.418,0,0,0,2.038.166Z" fill="#d58745"/>
          <path id="Trazado_106070" data-name="Trazado 106070" d="M685.138,6881.367a.277.277,0,0,1-.25-.07,1.966,1.966,0,0,0-1.646-.641.25.25,0,0,1-.255-.245.252.252,0,0,1,.171-.242h0a2.456,2.456,0,0,1,2.089.807.244.244,0,0,1,0,.345h0A.305.305,0,0,1,685.138,6881.367Z" fill="#344154"/>
          <path id="Trazado_106071" data-name="Trazado 106071" d="M676.931,6882.1a.23.23,0,0,1-.147,0,.244.244,0,0,1-.149-.311v0h0a2.433,2.433,0,0,1,1.621-1.55.243.243,0,0,1,.295.178h0a.25.25,0,0,1-.186.295h0a1.975,1.975,0,0,0-1.281,1.281A.273.273,0,0,1,676.931,6882.1Z" fill="#344154"/>
          <path id="Trazado_106072" data-name="Trazado 106072" d="M687.047,6874.813l-.153,2.281a1.692,1.692,0,0,1,.961,2.082c-.641,1.922.64,4.837,2.14,5.939,0,0,0-.833.7-.64s.75,4.484-.5,6.592c0,0,1.954-1.967,2.87-6.541.852-4.229.794-7.688-.154-9.284Z" fill="#344154"/>
          <path id="Trazado_106073" data-name="Trazado 106073" d="M694.121,6884.782a4.877,4.877,0,0,1-2.563,2.749c-1.563.711-2.608-.641-2.39-2.243.2-1.429,1.243-3.568,2.922-3.588A2.2,2.2,0,0,1,694.121,6884.782Z" fill="#d9a171"/>
          <path id="Trazado_106074" data-name="Trazado 106074" d="M686.894,6877.094a15.04,15.04,0,0,0-5.228.512,8.537,8.537,0,0,1-4.556.186s-2.28-4.613.737-7.406,8.066-1.7,9.7-.756-1.685.788-1.685.788,5.343.993,7.656,3.024a5.286,5.286,0,0,1,1.282,5.939c-.474.564-.9-.679-.9-.679a6.138,6.138,0,0,1-3.2.641C688.707,6879.317,689.54,6877.555,686.894,6877.094Z" fill="#344154"/>
          <path id="Trazado_106075" data-name="Trazado 106075" d="M681.358,6889.19a13.459,13.459,0,0,1,.923,1.775,2.791,2.791,0,0,0,.339-.09c1.551-.4,2.134-1.1,2.313-1.749a2.082,2.082,0,0,0,0-.974,1.928,1.928,0,0,0-.186-.525,7.61,7.61,0,0,1-2.87,1.416Z" fill="#344154"/>
          <path id="Trazado_106076" data-name="Trazado 106076" d="M681.883,6889.043l.289.519a4.781,4.781,0,0,0,2.768-1.41,1.961,1.961,0,0,0-.186-.525A7.614,7.614,0,0,1,681.883,6889.043Z" fill="#ffbf9d"/>
          <path id="Trazado_106077" data-name="Trazado 106077" d="M682.62,6890.875c1.551-.4,2.134-1.1,2.313-1.749a5.077,5.077,0,0,0-1.627.788A1.919,1.919,0,0,0,682.62,6890.875Z" fill="#de5753"/>
          <path id="Trazado_106078" data-name="Trazado 106078" d="M692.16,6896.917a17.41,17.41,0,0,1-5.939,4.856,7.683,7.683,0,0,1-1.461-3.293,13.411,13.411,0,0,0-3.408,2.319,9.325,9.325,0,0,0,1.512,4.19l3.248-2.325,3.94,2.876s5.177-3.344,6.337-6.778Z" fill="#d9a171"/>
          <path id="Trazado_106079" data-name="Trazado 106079" d="M692.16,6896.917a17.41,17.41,0,0,1-5.939,4.856,7.683,7.683,0,0,1-1.461-3.293,13.411,13.411,0,0,0-3.408,2.319,9.325,9.325,0,0,0,1.512,4.19l3.248-2.325,3.94,2.876s5.177-3.344,6.337-6.778Z" fill="#ffbf9d" opacity="0.4" style="isolation: isolate"/>
          <rect id="Rectángulo_5959" data-name="Rectángulo 5959" width="6.458" height="4.421" transform="matrix(0.994, -0.107, 0.107, 0.994, 690.264, 6920.096)" fill="#ffbf9d" opacity="0.6" style="isolation: isolate"/>
          <path id="Trazado_106080" data-name="Trazado 106080" d="M692.359,6917.707l.64,2.12a.565.565,0,0,0,.641.4h0a.579.579,0,0,0,.481-.487l.339-2.46Z" fill="#d9a171"/>
          <path id="Trazado_106081" data-name="Trazado 106081" d="M692.359,6917.707l.64,2.12a.565.565,0,0,0,.641.4h0a.579.579,0,0,0,.481-.487l.339-2.46Z" fill="#d9a171" opacity="0.4" style="isolation: isolate"/>
          <path id="Trazado_106082" data-name="Trazado 106082" d="M697.08,6923.755s-2.383,7.156-3.408,8.713-27.453,8.393-27.453,8.393a8.98,8.98,0,0,0-3.614-1.006c-1.4.122-6.842,1.39-6.97,2.4s2.793,5.574,3.485,5.952,7.688-.673,8.431-2.493c0,0,26.992-4.843,29.529-5.862s7.977-13.057,7.977-13.057Z" fill="#d9a171"/>
          <path id="Trazado_106083" data-name="Trazado 106083" d="M703.872,6898.614c4.087.276,7.656,9.079,6.958,16.178s-7.227,19.22-7.227,19.22l-9.124-4.485s2.281-8.117,4.882-15.8S700.784,6898.4,703.872,6898.614Z" fill="#d9a171"/>
          <path id="Trazado_106084" data-name="Trazado 106084" d="M703.872,6898.614c4.087.276,7.656,9.079,6.958,16.178s-7.227,19.22-7.227,19.22l-9.124-4.485s2.281-8.117,4.882-15.8S700.784,6898.4,703.872,6898.614Z" fill="#ffbf9d" opacity="0.4" style="isolation: isolate"/>
          <path id="Trazado_106085" data-name="Trazado 106085" d="M693.39,6930.328l1.012-1.48,10.655,3.6-.551,2.646Z" fill="#d9a171"/>
          <path id="Trazado_106086" data-name="Trazado 106086" d="M693.39,6930.328l1.012-1.48,10.655,3.6-.551,2.646Z" fill="#ffbf9d" opacity="0.3" style="isolation: isolate"/>
          <path id="Trazado_106087" data-name="Trazado 106087" d="M684.153,6904.066l-.376,2.685,1.214,1.036s-1.5,6.954-1.4,7.284,1.731,3.088,1.731,3.088l3.225-6.683-2.1-3.906,2.428-2.893-2.758-2.013Z" fill="#344154"/>
          <g id="Grupo_58227" data-name="Grupo 58227">
            <path id="Trazado_106088" data-name="Trazado 106088" d="M689.354,6923.238l-.287-1.842.645-.1a.854.854,0,0,1,.529.049.443.443,0,0,1,.231.349.408.408,0,0,1-.2.431.4.4,0,0,1,.246.108.43.43,0,0,1,.122.25.491.491,0,0,1-.107.429.775.775,0,0,1-.461.214Zm.213-1.129.281-.044c.19-.033.274-.125.251-.274a.215.215,0,0,0-.1-.169.386.386,0,0,0-.238-.019l-.265.041Zm.042.268.077.5.325-.051a.32.32,0,0,0,.2-.1.221.221,0,0,0,.048-.189.233.233,0,0,0-.3-.215Z" fill="#344154"/>
            <path id="Trazado_106089" data-name="Trazado 106089" d="M691.776,6922.861a.422.422,0,0,1-.056-.117.448.448,0,0,1-.322.2.493.493,0,0,1-.352-.064.377.377,0,0,1-.177-.273.388.388,0,0,1,.109-.359.8.8,0,0,1,.448-.19l.168-.026-.012-.079a.226.226,0,0,0-.073-.144.192.192,0,0,0-.162-.033.221.221,0,0,0-.138.067.149.149,0,0,0-.034.129l-.365.057a.362.362,0,0,1,.039-.231.487.487,0,0,1,.183-.191.78.78,0,0,1,.292-.1.608.608,0,0,1,.421.065.452.452,0,0,1,.2.334l.093.593a.667.667,0,0,0,.1.287l0,.021Zm-.342-.208a.317.317,0,0,0,.144-.059.252.252,0,0,0,.086-.112l-.037-.236-.136.022c-.183.028-.271.107-.263.235l0,.022a.149.149,0,0,0,.066.1A.187.187,0,0,0,691.434,6922.653Z" fill="#344154"/>
            <path id="Trazado_106090" data-name="Trazado 106090" d="M692.495,6921.347l.036.156a.484.484,0,0,1,.365-.244.4.4,0,0,1,.343.077.611.611,0,0,1,.169.365l.137.884-.365.057-.137-.875a.241.241,0,0,0-.076-.161.227.227,0,0,0-.177-.026.253.253,0,0,0-.211.167l.15.965-.365.057-.213-1.368Z" fill="#344154"/>
            <path id="Trazado_106091" data-name="Trazado 106091" d="M694.349,6922.184a.243.243,0,0,0,.156-.081.2.2,0,0,0,.043-.158l.343-.054a.479.479,0,0,1-.037.267.5.5,0,0,1-.176.211.663.663,0,0,1-.277.109.6.6,0,0,1-.491-.115.745.745,0,0,1-.25-.489l0-.024a.737.737,0,0,1,.09-.531.592.592,0,0,1,.432-.26.581.581,0,0,1,.434.082.519.519,0,0,1,.218.365l-.342.053a.255.255,0,0,0-.093-.163.248.248,0,0,0-.356.082.541.541,0,0,0-.018.312l.006.038a.551.551,0,0,0,.112.294A.224.224,0,0,0,694.349,6922.184Z" fill="#344154"/>
            <path id="Trazado_106092" data-name="Trazado 106092" d="M695.007,6921.644a.832.832,0,0,1,.022-.375.581.581,0,0,1,.188-.282.668.668,0,0,1,.328-.141.638.638,0,0,1,.479.1.7.7,0,0,1,.267.43l.017.094a.723.723,0,0,1-.1.532.689.689,0,0,1-.944.148.734.734,0,0,1-.257-.489Zm.37-.031a.512.512,0,0,0,.12.287.266.266,0,0,0,.417-.064.57.57,0,0,0,.024-.338.516.516,0,0,0-.121-.285.245.245,0,0,0-.226-.072.24.24,0,0,0-.191.137A.574.574,0,0,0,695.377,6921.613Z" fill="#344154"/>
          </g>
        </g>
        <rect id="Rectángulo_5960" data-name="Rectángulo 5960" width="146.665" height="110.191" transform="translate(594.757 6959.345)" fill="#344154"/>
        <rect id="Rectángulo_5961" data-name="Rectángulo 5961" width="108.609" height="110.191" transform="translate(594.757 6959.345)" fill="#344154" opacity="0.4" style="isolation: isolate"/>
        <rect id="Rectángulo_5962" data-name="Rectángulo 5962" width="150.33" height="6.375" rx="0.999" transform="translate(593.213 6955.289)" fill="#d9a171"/>
        <rect id="Rectángulo_5963" data-name="Rectángulo 5963" width="111.889" height="6.375" rx="0.999" transform="translate(593.213 6955.289)" fill="#344154" opacity="0.2" style="isolation: isolate"/>
        <rect id="Rectángulo_5964" data-name="Rectángulo 5964" width="31.663" height="53.068" transform="translate(593.213 6903.221)" fill="#ffbf9d" opacity="0.56"/>
        <rect id="Rectángulo_5965" data-name="Rectángulo 5965" width="70.457" height="53.068" transform="translate(673.291 6903.221)" fill="#ffbf9d" opacity="0.56"/>
        <rect id="Rectángulo_5966" data-name="Rectángulo 5966" width="48.415" height="34.569" transform="translate(624.875 6903.221)" fill="#ffbf9d" opacity="0.56"/>
      </g>
      <g id="freepik--character-1--inject-48">
        <path id="Trazado_106093" data-name="Trazado 106093" d="M612.731,6936.87c2.211.692,2.563,13.537,2.563,13.537h-1.281s.64-13.614-2.659-13.191Z" fill="#344154"/>
        <path id="Trazado_106094" data-name="Trazado 106094" d="M612.731,6936.87c2.211.692,2.563,13.537,2.563,13.537h-1.281s.64-13.614-2.659-13.191Z" fill="#d9a171" opacity="0.2" style="isolation: isolate"/>
        <path id="Trazado_106095" data-name="Trazado 106095" d="M615.518,7058.4l-4.043.711-1.659-5.51-1.512-5.055,4.664-1.627,1.352,6.08Z" fill="#e4897b"/>
        <path id="Trazado_106096" data-name="Trazado 106096" d="M614.339,7053.122l-4.5.6-1.518-5.112,4.651-1.66Z" fill="#d9a171" opacity="0.2" style="isolation: isolate"/>
        <path id="Trazado_106097" data-name="Trazado 106097" d="M588.539,7060.265h-4.107l-.673-5.785-.609-5.273,4.869-.807.276,6.279Z" fill="#e4897b"/>
        <path id="Trazado_106098" data-name="Trazado 106098" d="M588.3,7054.729l-4.536-.2-.609-5.3,4.869-.82Z" fill="#d9a171" opacity="0.2" style="isolation: isolate"/>
        <path id="Trazado_106099" data-name="Trazado 106099" d="M594.1,7068.389a7.073,7.073,0,0,0-2.191-1.192h0s-2.383-2.364-3.53-9.482l-3.12-.813a2.673,2.673,0,0,0-2.839,1.108,1.532,1.532,0,0,0-.2.41,17.709,17.709,0,0,0-.333,2.313,64.288,64.288,0,0,0-.045,7.816h.564l.224-4.907c.083-1.666,1.358.288,1.723,2.082s1.141,3.7,4.793,3.793C593.408,7069.6,595.176,7069.408,594.1,7068.389Z" fill="#344154"/>
        <path id="Trazado_106100" data-name="Trazado 106100" d="M621.329,7067.909a7.043,7.043,0,0,0-2.191-1.192h0s-2.383-2.364-3.53-9.482l-3.12-.814a2.672,2.672,0,0,0-2.838,1.109,1.483,1.483,0,0,0-.2.41,17.671,17.671,0,0,0-.333,2.312,64.3,64.3,0,0,0-.045,7.817h.564l.224-4.908c.083-1.666,1.358.288,1.723,2.082s1.141,3.7,4.793,3.793C620.637,7069.119,622.406,7068.953,621.329,7067.909Z" fill="#344154"/>
        <path id="Trazado_106101" data-name="Trazado 106101" d="M614.724,7049.918l-6.644,1.166c-6.708-16.7-11.475-30.644-14.845-42.214-1.813-6.241-3.325-11.789-4.408-16.716l.2,18.183V7051.3h-6.548c-16.408-78.164-4.779-95.981-4.779-95.981l19.637-3.268a90.052,90.052,0,0,1,1.64,11.007l.884,6.51,7.688,39.645Z" fill="#d9a171"/>
        <g id="Grupo_58228" data-name="Grupo 58228" opacity="0.4">
          <path id="Trazado_106102" data-name="Trazado 106102" d="M614.724,7049.918l-6.644,1.166c-6.708-16.7-11.475-30.644-14.845-42.214-1.813-6.241-3.325-11.789-4.408-16.716l.2,18.183V7051.3h-6.548c-16.408-78.164-4.779-95.981-4.779-95.981l19.637-3.268a90.052,90.052,0,0,1,1.64,11.007l.884,6.51,7.688,39.645Z" fill="#ffbf9d"/>
        </g>
        <path id="Trazado_106103" data-name="Trazado 106103" d="M620.58,6932.75l6.624-6.548s.231-1.755.872-2.242,5.189-2.14,5.766-1.775,1.326,4.043.551,4.716-4.914,1.531-5.337,1.46l-7.169,8.509Z" fill="#eec1bb"/>
        <path id="Trazado_106104" data-name="Trazado 106104" d="M596.849,6920.814c2.857,1.519,13,15.7,14.5,16.4s12.917-8.56,12.917-8.56l1.922,3.287s-9.393,13.243-14.666,12.6-15.447-11.853-15.447-11.853Z" fill="#344154"/>
        <path id="Trazado_106105" data-name="Trazado 106105" d="M623.636,6929.008l.788-.75,2.082,3.524-.743,1.441Z" fill="#d9a171"/>
        <path id="Trazado_106106" data-name="Trazado 106106" d="M600.135,6936.831c-2.37-2.261-4.074-4.139-4.074-4.139l.179-2.819.891-2.735A11.242,11.242,0,0,1,600.135,6936.831Z" fill="#d9a171" opacity="0.2" style="isolation: isolate"/>
        <path id="Trazado_106107" data-name="Trazado 106107" d="M593.235,7008.87c-1.813-6.241-3.2-11.789-4.312-16.716a153.908,153.908,0,0,1,1.282-17.439S593.088,6997.2,593.235,7008.87Z" fill="#d9a171" opacity="0.2" style="isolation: isolate"/>
        <path id="Trazado_106108" data-name="Trazado 106108" d="M597.8,6950.837c.8-14.1.449-21.861.084-25.737-.4-4.132-1.038-4.286-1.038-4.286s-4.485-.436-8.374-.4a63.137,63.137,0,0,0-8.97.949,60.079,60.079,0,0,0-8.329,2q.68,1.922,1.25,3.69c.512,1.525.967,2.947,1.377,4.267.776,2.48,1.371,4.62,1.852,6.535a71.491,71.491,0,0,1,2.133,14.736s-4.933,12.878-5.894,22.328l16.337,1.762,2.243-9.45,2.242,9.77,9.13-3.2Z" fill="#344154"/>
        <path id="Trazado_106109" data-name="Trazado 106109" d="M580.915,6919.667s2.351-1.877,6.554-.378l.57,2.14s-3.607,1.365-5.426,1.006S580.915,6919.667,580.915,6919.667Z" fill="#d9a171"/>
        <path id="Trazado_106110" data-name="Trazado 106110" d="M580.915,6919.667s2.351-1.877,6.554-.378l.57,2.14s-3.607,1.365-5.426,1.006S580.915,6919.667,580.915,6919.667Z" fill="#d9a171" opacity="0.2" style="isolation: isolate"/>
        <path id="Trazado_106111" data-name="Trazado 106111" d="M576.43,6941.31c-.218-1.077-.474-2.224-.788-3.454-.2-.781-.416-1.6-.641-2.473.641-2.185,1.282-.48,1.282-.48A19.712,19.712,0,0,1,576.43,6941.31Z" fill="#d9a171" opacity="0.2" style="isolation: isolate"/>
        <path id="Trazado_106112" data-name="Trazado 106112" d="M588.251,6921.269a5.194,5.194,0,0,0-.641-.263c-.461-.365-1.019-1.243-.993-3.376a17.232,17.232,0,0,1,.231-2.5l-5.933-1.109s2.024,4,.333,6.971c-.577.256-.923.641-.865,1.1.449,3.434,7.823,6.753,7.823,6.753S591.806,6923.236,588.251,6921.269Z" fill="#eec1bb"/>
        <path id="Trazado_106113" data-name="Trazado 106113" d="M586.873,6915.125a17.377,17.377,0,0,0-.23,2.5,6.615,6.615,0,0,1-5.709-3.614Z" fill="#d9a171" opacity="0.2" style="isolation: isolate"/>
        <path id="Trazado_106114" data-name="Trazado 106114" d="M584.221,6895.526s6.945-.877,8.226,4.741a8.63,8.63,0,0,1-3.043,8.726Z" fill="#344154"/>
        <path id="Trazado_106115" data-name="Trazado 106115" d="M583.593,6898.518c5.164-.282,6.977,2.39,7.643,7.689.84,6.624-.378,11.429-6.913,10.366C575.45,6915.125,575.014,6898.986,583.593,6898.518Z" fill="#eec1bb"/>
        <path id="Trazado_106116" data-name="Trazado 106116" d="M587.886,6906.1a10.884,10.884,0,0,0,1.62,2.057,1.413,1.413,0,0,1-1.332.64Z" fill="#d4827d"/>
        <path id="Trazado_106117" data-name="Trazado 106117" d="M584.7,6905.854c.032.423-.173.782-.455.807s-.538-.3-.57-.73.173-.782.455-.807S584.669,6905.431,584.7,6905.854Z" fill="#344154"/>
        <path id="Trazado_106118" data-name="Trazado 106118" d="M584.016,6905.156l.89-.436S584.509,6905.534,584.016,6905.156Z" fill="#344154"/>
        <path id="Trazado_106119" data-name="Trazado 106119" d="M589.961,6905.354c0,.423-.173.782-.455.808s-.538-.308-.57-.731.167-.781.455-.807S589.929,6904.932,589.961,6905.354Z" fill="#344154"/>
        <path id="Trazado_106120" data-name="Trazado 106120" d="M589.244,6904.656l.9-.436S589.769,6905.034,589.244,6904.656Z" fill="#344154"/>
        <path id="Trazado_106121" data-name="Trazado 106121" d="M584.451,6902.292a2.7,2.7,0,0,0-2.2.9" fill="none" stroke="#263238" stroke-linecap="round" stroke-linejoin="round" stroke-width="0.686"/>
        <path id="Trazado_106122" data-name="Trazado 106122" d="M588.193,6901.869a2.406,2.406,0,0,1,2.082.308" fill="none" stroke="#263238" stroke-linecap="round" stroke-linejoin="round" stroke-width="0.686"/>
        <path id="Trazado_106123" data-name="Trazado 106123" d="M578.423,6907.526s2.184-4.369,1.64-7.624c0,0,10-4.741,11.077,5.613,0,0,.493-9.278-8.393-8.97s-8.143,13.269-3.344,16.882C579.4,6913.4,577.071,6910.262,578.423,6907.526Z" fill="#344154"/>
        <path id="Trazado_106124" data-name="Trazado 106124" d="M585.1,6895.142s4.241-1.044,5.446.077-7.368,9.053-11.853,9.854c0,0-1.525,4.965-.32,7.284,0,0-5.049-1.762-5.286-9.45S580.915,6892.323,585.1,6895.142Z" fill="#344154"/>
        <path id="Trazado_106125" data-name="Trazado 106125" d="M579.326,6908.6a2.269,2.269,0,0,0-2.563-1.922c-1.589.263-2.172,3.588,1.852,4.165C579.2,6910.877,579.493,6910.307,579.326,6908.6Z" fill="#eec1bb"/>
        <path id="Trazado_106126" data-name="Trazado 106126" d="M577.071,6898.172s-1.762-4.484-6.49-4.164-5.446,7.688-2.96,13.134.826,7.22.826,7.22,2.64-.32,2.64-5.208a17.663,17.663,0,0,1,.16,3.126s1.762-2.486.083-7.207,3.684-2.563,3.684-2.563Z" fill="#344154"/>
        <path id="Trazado_106127" data-name="Trazado 106127" d="M590.147,6895.61s-2.242,7.207-8.245,9.366" fill="none" stroke="#263238" stroke-linecap="round" stroke-linejoin="round" stroke-width="0.686"/>
        <path id="Trazado_106128" data-name="Trazado 106128" d="M584.118,6910.666a4.135,4.135,0,0,0,2.96,1.2" fill="none" stroke="#263238" stroke-linecap="round" stroke-linejoin="round" stroke-width="0.686"/>
        <path id="Trazado_106129" data-name="Trazado 106129" d="M580.915,6919.667s1.063,2.159,4.69,3.7l1.48,2.39v-2.723a8.424,8.424,0,0,0,.384-3.742l1.205,2.275a1.92,1.92,0,0,1,1.454,1.525c.384,1.4-1.679,6.406-1.679,6.406s-6.592-2.364-8.072-5.33c-1.1-2.21.218-2.742.218-2.742Z" fill="#d9a171"/>
        <path id="Trazado_106130" data-name="Trazado 106130" d="M589.519,6931.328a.474.474,0,1,1-.474-.474.474.474,0,0,1,.474.474Z" fill="#344154"/>
        <path id="Trazado_106131" data-name="Trazado 106131" d="M590.672,6938.74a.474.474,0,1,1-.474-.474.474.474,0,0,1,.474.474Z" fill="#344154"/>
        <path id="Trazado_106132" data-name="Trazado 106132" d="M591.166,6947.723a.474.474,0,1,1-.474-.474.474.474,0,0,1,.474.474Z" fill="#344154"/>
        <path id="Trazado_106133" data-name="Trazado 106133" d="M591.557,6957.134a.475.475,0,1,1-.474-.474.475.475,0,0,1,.474.474Z" fill="#344154"/>
        <path id="Trazado_106134" data-name="Trazado 106134" d="M628.774,6925.254a19.273,19.273,0,0,1,9.738-2.037l3.569,3.754s-3.043-.737-9.911.846Z" fill="#d9a171"/>
        <path id="Trazado_106135" data-name="Trazado 106135" d="M628.774,6925.254a19.273,19.273,0,0,1,9.738-2.037l3.569,3.754s-3.043-.737-9.911.846Z" fill="#53372c" opacity="0.4" style="isolation: isolate"/>
        <path id="Trazado_106136" data-name="Trazado 106136" d="M628.735,6924.966a19.3,19.3,0,0,1,9.611-2.563l3.767,3.556s-3.082-.545-9.86,1.377Z" fill="#d9a171"/>
        <path id="Trazado_106137" data-name="Trazado 106137" d="M628.735,6924.966a19.3,19.3,0,0,1,9.611-2.563l3.767,3.556s-3.082-.545-9.86,1.377Z" fill="#a66d58" opacity="0.2" style="isolation: isolate"/>
        <path id="Trazado_106138" data-name="Trazado 106138" d="M629.011,6924.472l3.453,2.877a17.521,17.521,0,0,1,10.988-1.73l-4.337-3.812S632.81,6921.077,629.011,6924.472Z" fill="#d9a171"/>
        <path id="Trazado_106139" data-name="Trazado 106139" d="M629.889,6924.543l2.421,2.14s4.94-2.64,9.822-1.666l-3.2-2.915S633.451,6921.41,629.889,6924.543Z" fill="#d9a171" opacity="0.2" style="isolation: isolate"/>
        <path id="Trazado_106140" data-name="Trazado 106140" d="M636.686,6923.6c0,.519-.563.942-1.281.942s-1.281-.423-1.281-.942.563-.948,1.281-.948S636.686,6923.076,636.686,6923.6Z" fill="#d9a171"/>
        <path id="Trazado_106141" data-name="Trazado 106141" d="M604.55,6964.509c.237-3.569,2.447-14.095,2.447-14.095a21.592,21.592,0,0,1,3.05-1.717,16.649,16.649,0,0,1,5.055-.968s1.006,13.282,0,14.736S604.268,6968.731,604.55,6964.509Z" fill="#344154"/>
        <path id="Trazado_106142" data-name="Trazado 106142" d="M607,6950.407s1.583-14.14,5.734-13.537c0,0-3.28.692-4.485,14Z" fill="#344154"/>
        <path id="Trazado_106143" data-name="Trazado 106143" d="M592.345,6943.706c.736-.16,2.646-4.972,2.4-5.561s-14.473,1.4-14.473,1.4l.936,5.19Z" fill="#d9a171"/>
        <path id="Trazado_106144" data-name="Trazado 106144" d="M592.345,6943.706c.736-.16,2.646-4.972,2.4-5.561s-14.473,1.4-14.473,1.4l.936,5.19Z" fill="#d9a171" opacity="0.2" style="isolation: isolate"/>
        <path id="Trazado_106145" data-name="Trazado 106145" d="M574.406,6939.637s15.184-2.159,15.863-1.922,2.076,6,2.076,6-13.154,2.082-14.3,1.749S573.867,6940.432,574.406,6939.637Z" fill="#caa79b"/>
        <path id="Trazado_106146" data-name="Trazado 106146" d="M569.248,6949.805l7.88-4.972s.6-1.659,1.333-2,5.529-.973,6-.493.423,4.229-.481,4.722-5.125.436-5.522.275l-8.835,6.747Z" fill="#eec1bb"/>
        <path id="Trazado_106147" data-name="Trazado 106147" d="M571.17,6923.364s5.126,7.483,4.4,13.89l-6.83,11.314,4.587-2.344,2.082,3.921s-5.285,8.143-12.012,6.221S571.17,6923.364,571.17,6923.364Z" fill="#344154"/>
        <path id="Trazado_106148" data-name="Trazado 106148" d="M572.849,6946.006l2.62,4.863.583-1.391-2.082-3.953Z" fill="#d9a171"/>
      </g>
      <g id="Grupo_58229" data-name="Grupo 58229">
        <path id="Trazado_106149" data-name="Trazado 106149" d="M619.54,6865.411a3.874,3.874,0,0,1-1.3,2.778,4.579,4.579,0,0,1-3.1,1.013,4.114,4.114,0,0,1-3.307-1.415,5.8,5.8,0,0,1-1.205-3.886v-.668a6.559,6.559,0,0,1,.555-2.778,4.168,4.168,0,0,1,1.588-1.843,4.963,4.963,0,0,1,5.447.372,4.159,4.159,0,0,1,1.337,2.845H617.3a2.283,2.283,0,0,0-.589-1.535,2.183,2.183,0,0,0-1.543-.477,1.914,1.914,0,0,0-1.686.807,4.524,4.524,0,0,0-.574,2.5v.826a4.838,4.838,0,0,0,.537,2.59,1.878,1.878,0,0,0,1.693.819,2.224,2.224,0,0,0,1.558-.477,2.154,2.154,0,0,0,.589-1.475Z" fill="#6595bf"/>
        <path id="Trazado_106150" data-name="Trazado 106150" d="M625.584,6869.052a2.38,2.38,0,0,1-.218-.728,2.628,2.628,0,0,1-2.05.878,2.881,2.881,0,0,1-1.978-.691,2.221,2.221,0,0,1-.785-1.741,2.3,2.3,0,0,1,.957-1.983,4.734,4.734,0,0,1,2.767-.7h1v-.465a1.341,1.341,0,0,0-.289-.9,1.136,1.136,0,0,0-.913-.338,1.287,1.287,0,0,0-.859.263.891.891,0,0,0-.312.72h-2.17a2.181,2.181,0,0,1,.436-1.306,2.884,2.884,0,0,1,1.231-.942,4.483,4.483,0,0,1,1.787-.342,3.544,3.544,0,0,1,2.384.755,2.639,2.639,0,0,1,.882,2.121v3.521a3.883,3.883,0,0,0,.323,1.749v.128Zm-1.795-1.509a1.864,1.864,0,0,0,.886-.214,1.415,1.415,0,0,0,.6-.574v-1.4h-.811q-1.629,0-1.735,1.126l-.007.128a.868.868,0,0,0,.285.668A1.109,1.109,0,0,0,623.789,6867.543Z" fill="#6595bf"/>
        <path id="Trazado_106151" data-name="Trazado 106151" d="M631.417,6860.928v8.567a2.9,2.9,0,0,1-.713,2.091,2.711,2.711,0,0,1-2.057.747,4.421,4.421,0,0,1-1.074-.128v-1.719a4.092,4.092,0,0,0,.683.068q.984,0,.984-1.044v-8.582Zm-2.35-2.1a1.067,1.067,0,0,1,.327-.8,1.41,1.41,0,0,1,1.779,0,1.151,1.151,0,0,1-.007,1.614,1.394,1.394,0,0,1-1.765,0A1.07,1.07,0,0,1,629.067,6858.826Z" fill="#6595bf"/>
        <path id="Trazado_106152" data-name="Trazado 106152" d="M637.822,6869.052a2.38,2.38,0,0,1-.218-.728,2.628,2.628,0,0,1-2.05.878,2.881,2.881,0,0,1-1.978-.691,2.221,2.221,0,0,1-.785-1.741,2.3,2.3,0,0,1,.957-1.983,4.734,4.734,0,0,1,2.767-.7h1v-.465a1.341,1.341,0,0,0-.289-.9,1.136,1.136,0,0,0-.913-.338,1.287,1.287,0,0,0-.859.263.891.891,0,0,0-.312.72h-2.17a2.181,2.181,0,0,1,.436-1.306,2.885,2.885,0,0,1,1.231-.942,4.483,4.483,0,0,1,1.787-.342,3.544,3.544,0,0,1,2.384.755,2.639,2.639,0,0,1,.882,2.121v3.521a3.884,3.884,0,0,0,.323,1.749v.128Zm-1.8-1.509a1.864,1.864,0,0,0,.886-.214,1.41,1.41,0,0,0,.6-.574v-1.4H636.7q-1.629,0-1.734,1.126l-.008.128a.869.869,0,0,0,.285.668A1.11,1.11,0,0,0,636.027,6867.543Z" fill="#6595bf"/>
        <path id="Trazado_106153" data-name="Trazado 106153" d="M650.367,6869.052H648.2v-8.364l-2.591.8v-1.764l4.528-1.622h.232Z" fill="#6595bf"/>
      </g>
    </g>
  </g>
</svg>
