<svg xmlns="http://www.w3.org/2000/svg" width="460.82" height="452.72" viewBox="0 0 460.82 452.72">
  <g id="Capa_2" data-name="Capa 2" transform="translate(-33.74 -23.561)">
    <ellipse id="Floor" cx="230.41" cy="133" rx="230.41" ry="133" transform="translate(33.74 210.28)" fill="#f5f5f5"/>
    <g id="Clouds">
      <path id="Cloud" d="M449.87,63.43l-6.18-3.56a6.186,6.186,0,0,0,.05-.76V57.32a11.05,11.05,0,0,0-5-8.66,3.9,3.9,0,0,0-3-.57c-.45-4.53-3.6-9.65-7.41-11.86-4.13-2.38-7.48-.45-7.48,4.32v2.68a13.161,13.161,0,0,0,.63,3.83l-5.13-3c-1.53-.89-2.77-.17-2.77,1.6a6.15,6.15,0,0,0,2.77,4.8l33.49,19.33c1.53.89,2.77.17,2.77-1.6a6.15,6.15,0,0,0-2.74-4.76Z" fill="#ececec"/>
      <path id="Cloud-2" data-name="Cloud" d="M367.26,43.77l3.41,1.31V37.57c0-5.95,4.75-7.38,9.91-4.4h0c5.16,3,9.34,10.22,9.34,16.17v1.09a5,5,0,0,1,4.33.67h0A14.85,14.85,0,0,1,401,62.74v.49L405.72,66a9.76,9.76,0,0,1,4.43,7.66c0,2.82-2,4-4.43,2.55L367.26,54a9.78,9.78,0,0,1-4.42-7.66C362.84,43.51,364.82,42.36,367.26,43.77Z" fill="#ececec"/>
    </g>
    <ellipse id="Shadow" cx="69.38" cy="40.05" rx="69.38" ry="40.05" transform="translate(309.82 353.46)" fill="#e1e1e1"/>
    <path id="Shadow-2" data-name="Shadow" d="M114.13,397.81,227,332.63a1.36,1.36,0,0,0,0-2.58l-8.11-4.68a4.94,4.94,0,0,0-4.46,0L168.6,351.83a5,5,0,0,1-4.47,0L80.6,303.59a5,5,0,0,0-4.47,0l-3.92,2.26a1.36,1.36,0,0,0,0,2.58l83.64,48.29a1.36,1.36,0,0,1,0,2.58l-54.3,31.25a1.36,1.36,0,0,0,0,2.58l8.11,4.68a5,5,0,0,0,4.47,0Z" fill="#e1e1e1"/>
    <g id="Plants">
      <g id="Grupo_59837" data-name="Grupo 59837">
        <path id="Trazado_108150" data-name="Trazado 108150" d="M122.68,385l8-4.55s3.82-21.05,1-39.15c-4-25.44-21.34-34.22-27.64-31.69s-7.77,10.06,3.6,24.77C114.27,343,122.89,361.38,122.68,385Z" fill="#d9a171"/>
        <g id="Grupo_59836" data-name="Grupo 59836" opacity="0.15">
          <path id="Trazado_108151" data-name="Trazado 108151" d="M122.68,385l8-4.55s3.82-21.05,1-39.15c-4-25.44-21.34-34.22-27.64-31.69s-7.77,10.06,3.6,24.77C114.27,343,122.89,361.38,122.68,385Z"/>
        </g>
        <path id="Trazado_108152" data-name="Trazado 108152" d="M125.56,374.88h-.07a.58.58,0,0,1-.49-.64c3.29-23.82-6.29-49.92-17-60.44a.57.57,0,0,1,0-.8.58.58,0,0,1,.81,0c11,10.71,20.72,37.23,17.38,61.4a.57.57,0,0,1-.63.48Z" fill="#fff"/>
      </g>
      <g id="Grupo_59838" data-name="Grupo 59838">
        <path id="Trazado_108153" data-name="Trazado 108153" d="M100.58,397.75c-1.26.73-3.85-.85-4.85-1.52a12,12,0,0,1-4-4.59,11.21,11.21,0,0,1-1-6.75,26.149,26.149,0,0,1,.85-3.6c.34-1.16.67-2.33,1-3.49a8.86,8.86,0,0,0,.51-3.52c-.31-2.38-2.42-4.06-4.35-5.5-2.13-1.59-4.35-3.7-4.33-6.57a10,10,0,0,1,2.53-6c1.37-1.74,3-3.28,4.24-5.12a7.1,7.1,0,0,0,1.45-4.46,7.23,7.23,0,0,0-1-2.79c-1-1.87-2.35-3.58-3-5.59s-.6-4.51,1-5.95c1.29-1.18,3.2-1.34,4.94-1.23a11.43,11.43,0,0,1,4.6,1.62c4.56,2.54,7.16,7.94,12,9.89A48.611,48.611,0,0,0,117,344a7.092,7.092,0,0,1,4.83,3.31c1.78,3.55-1.52,7.92-.27,11.69,1.11,3.33,4.34,4.6,6.16,7.61a7.07,7.07,0,0,1,.85,4.36,20.71,20.71,0,0,1-1.84,7.38,51.772,51.772,0,0,1-4,6.64C122.6,385.06,100.77,397.64,100.58,397.75Z" fill="#d9a171"/>
        <path id="Trazado_108154" data-name="Trazado 108154" d="M113.51,390.87h0a.58.58,0,0,1-.55-.6c.94-22.54-9.68-47.43-17.41-54.66a.57.57,0,1,1,.78-.83c7.88,7.37,18.72,32.68,17.77,55.54A.58.58,0,0,1,113.51,390.87Z" fill="#fff"/>
        <path id="Trazado_108155" data-name="Trazado 108155" d="M110.13,364.23h-.17A75.678,75.678,0,0,0,93.6,361.6a.57.57,0,0,1-.54-.59.55.55,0,0,1,.59-.55,77.641,77.641,0,0,1,16.65,2.69.56.56,0,0,1,.37.71.57.57,0,0,1-.54.37Z" fill="#fff"/>
      </g>
    </g>
    <g id="Target">
      <g id="Canvas">
        <g id="Grupo_59842" data-name="Grupo 59842">
          <path id="Trazado_108156" data-name="Trazado 108156" d="M189.22,311.66v-2.95l-52.35,30.28,2.5,1.48Z" fill="#344154"/>
          <g id="Grupo_59839" data-name="Grupo 59839">
            <path id="Trazado_108157" data-name="Trazado 108157" d="M123.94,112.32a.71.71,0,0,1,.34.76L80.91,305.62l-1.24,5.47a3.34,3.34,0,0,1-1.73-.35h0L75,309a.71.71,0,0,1-.33-.76L119.2,110.58a.69.69,0,0,1,1-.45Z" fill="#344154"/>
            <path id="Trazado_108158" data-name="Trazado 108158" d="M129.38,109.69,84.64,308.28a1.12,1.12,0,0,1-.56.75l-2.9,1.69a3.1,3.1,0,0,1-1.51.37l1.24-5.47,43.48-193Z" fill="#5e6178"/>
          </g>
          <g id="Grupo_59840" data-name="Grupo 59840">
            <path id="Trazado_108159" data-name="Trazado 108159" d="M134.38,377.33v5.74a3.33,3.33,0,0,1-1.61-.37h0l-2.7-1.56a1.12,1.12,0,0,1-.66-.94V207.75l5,2.88Z" fill="#344154"/>
            <path id="Trazado_108160" data-name="Trazado 108160" d="M139.38,207.76V380.25a1.13,1.13,0,0,1-.66.87L136,382.68a3.2,3.2,0,0,1-1.63.39V210.63Z" fill="#5e6178"/>
          </g>
          <g id="Grupo_59841" data-name="Grupo 59841">
            <path id="Trazado_108161" data-name="Trazado 108161" d="M199.1,345.71a3.381,3.381,0,0,1-1.56-.45l-2.78-1.61a1.46,1.46,0,0,1-.68-1L164.34,187.56l5,2.88L198,340.12Z" fill="#344154"/>
            <path id="Trazado_108162" data-name="Trazado 108162" d="M204.08,342.8h0a1.16,1.16,0,0,1-.69.95l-2.54,1.47-.12.08a3.44,3.44,0,0,1-1.63.39l-1.1-5.57L169.3,190.44l5-2.87,29.69,155h0Z" fill="#5e6178"/>
          </g>
          <path id="Trazado_108163" data-name="Trazado 108163" d="M137.65,347.19l56.55-32.65v-5.75l-56.55,32.65Z" fill="#5e6178"/>
        </g>
      </g>
      <g id="Grupo_59845" data-name="Grupo 59845">
        <g id="Grupo_59843" data-name="Grupo 59843">
          <path id="Trazado_108164" data-name="Trazado 108164" d="M196.65,39.41h-.1l-.27-.16c-1.45-.81-7.45-4.19-20.4-11.63-10.33-5.93-23.15-5.57-37,2.45-34.19,19.74-61.9,78.43-61.9,131.07,0,31.26,9.78,53.36,24.87,62,9.08,5.21,18.4,10.49,20.52,11.69l.23.13.22.13h0c10.26,5.71,22.94,5.27,36.66-2.66,34.19-19.74,61.91-78.42,61.91-131.07C221.35,70.2,211.65,48.15,196.65,39.41Z" fill="#d9a171"/>
          <path id="Trazado_108165" data-name="Trazado 108165" d="M196.65,39.41h-.1l-.27-.16c-1.45-.81-7.45-4.19-20.4-11.63-10.33-5.93-23.15-5.57-37,2.45-34.19,19.74-61.9,78.43-61.9,131.07,0,31.26,9.78,53.36,24.87,62,9.08,5.21,18.4,10.49,20.52,11.69l.23.13.22.13h0c10.26,5.71,22.94,5.27,36.66-2.66,34.19-19.74,61.91-78.42,61.91-131.07C221.35,70.2,211.65,48.15,196.65,39.41Z" opacity="0.1"/>
          <path id="Trazado_108166" data-name="Trazado 108166" d="M208.13,167.85,88.54,98.8c-7.31,19.87-11.61,41.55-11.61,62.29,0,31.26,9.78,53.36,24.87,62,9.08,5.21,18.4,10.49,20.52,11.69l.23.13.22.13h0c10.26,5.71,22.94,5.27,36.66-2.66C179.2,221,196.8,196.59,208.13,167.85Z" opacity="0.1"/>
          <path id="Trazado_108167" data-name="Trazado 108167" d="M77.05,167c1.17,28.12,10.63,48,24.75,56.1,9.08,5.21,18.4,10.49,20.52,11.69l.23.13.22.13h0c10.26,5.71,22.94,5.27,36.66-2.66a76.269,76.269,0,0,0,13.47-10Z" opacity="0.1"/>
        </g>
        <g id="Grupo_59844" data-name="Grupo 59844">
          <path id="Trazado_108168" data-name="Trazado 108168" d="M159.43,41.76c-34.19,19.75-61.9,78.43-61.9,131.08s27.73,79.31,61.91,59.57S221.35,154,221.35,101.34,193.63,22,159.43,41.76Z" fill="#d9a171"/>
          <path id="Trazado_108169" data-name="Trazado 108169" d="M159.44,60.69C132,76.52,109.82,123.55,109.82,165.74S132,229.3,159.44,213.48s49.61-62.85,49.61-105S186.84,44.87,159.44,60.69Z" fill="#fafafa"/>
          <path id="Trazado_108170" data-name="Trazado 108170" d="M159.44,79.62c-20.62,11.9-37.32,47.28-37.32,79s16.71,47.81,37.32,35.91,37.32-47.28,37.32-79S180.05,67.72,159.44,79.62Z" fill="#d9a171"/>
          <path id="Trazado_108171" data-name="Trazado 108171" d="M159.44,98.55c-13.83,8-25,31.71-25,53s11.21,32.06,25,24.08,25-31.7,25-53S173.26,90.57,159.44,98.55Z" fill="#fafafa"/>
          <path id="Trazado_108172" data-name="Trazado 108172" d="M159.44,117.48c-7,4.06-12.74,16.13-12.73,27s5.7,16.31,12.73,12.25,12.73-16.13,12.73-27S166.47,113.42,159.44,117.48Z" fill="#5e6178"/>
        </g>
      </g>
    </g>
    <g id="Character">
      <g id="Character-2" data-name="Character">
        <g id="Character-3" data-name="Character">
          <g id="Grupo_59850" data-name="Grupo 59850">
            <path id="Trazado_108173" data-name="Trazado 108173" d="M392.42,372.83c-.26,1.89-1.12,3.43,1.34,7.8,1.91,3.38,4.67,4.78,6.45,6a27.34,27.34,0,0,1,5.35,5,24,24,0,0,0,5.62,5.43c1.68,1.12,5.95.69,7.89-.43s2.5-2.93,1.95-6.2-10.63-3.1-10.63-3.1Z" fill="#344154"/>
            <path id="Trazado_108174" data-name="Trazado 108174" d="M419.34,353l-.5,30.59c0,1.8-9.87,4-12-.06a67.785,67.785,0,0,0-1.48-9.39c-.77-3.06-2.08-8.41-2.08-8.41-1.12-6.36-1.62-11.07-1.62-11.07Z" fill="#ffaaa8"/>
            <path id="Trazado_108175" data-name="Trazado 108175" d="M373.89,367s-4.65,28.3-4.79,29.85-4.53,2.58-7.78,2.47-5.17-1.6-5.14-2.3l-.8-30.21Z" fill="#ffaaa8"/>
            <path id="Trazado_108176" data-name="Trazado 108176" d="M378,329.33s.41-5.45,3.62-21.89c2.24-11.41,4.1-23.64,4.1-23.64s4,14.75,6.35,26.39c1.69,8.46,3.37,16.43,6.63,32.55a200.791,200.791,0,0,0,5.2,21c6.27,3.33,15.44-.49,15.44-.49s.38-9.83.25-22c-.16-15.77-3.61-21.93-3.61-21.93s-1.33-21.26-2-36.94c-.9-22.26-.21-43-5.45-60.33-.81-.22-50-21.71-51.28,7.72-.31,7.27-.85,26.63-1.37,42.15-.88,26.33-.64,45.9-.67,54.87-.18,8.62-.26,16.71-.09,32.82.07,7,.48,13,.48,13,5.9,3.95,18.51-.89,18.51-.89s.56-6.91,2.31-16.69C379.54,337.93,378,329.33,378,329.33Z" fill="#344154"/>
            <g id="Grupo_59846" data-name="Grupo 59846" opacity="0.2">
              <path id="Trazado_108177" data-name="Trazado 108177" d="M377.9,264.05c-2.77-.79-8.34-4.07-9.37-6.14-1.19-2.4-1.45-15-1.46-15.48V242l20.25-1.44.06.44a127.151,127.151,0,0,1,1.19,13.82v.65c.08,2-7.89,8.14-8.7,8.64a1.39,1.39,0,0,1-.66.17,4,4,0,0,1-1.31-.23ZM368,242.86c.09,3.87.48,12.87,1.36,14.63s6,4.86,8.78,5.66c1,.28,1.22.14,1.23.13,1.74-1.06,8.29-6.65,8.25-7.79v-.66a125.821,125.821,0,0,0-1.13-13.28Z"/>
            </g>
            <g id="Grupo_59847" data-name="Grupo 59847" opacity="0.2">
              <path id="Trazado_108178" data-name="Trazado 108178" d="M413.33,258.63l.19-1c-3.43-1.66-8.42-4.41-8.8-5.33-.47-1.15-1.35-9.16-1.7-12.64,1-.27,4.13-1,8.82-2l-.19-.92c-5.86,1.23-9.23,2.13-9.26,2.14l-.39.1v.4c.12,1.2,1.18,11.77,1.8,13.3S411.9,257.94,413.33,258.63Z"/>
            </g>
            <path id="Trazado_108179" data-name="Trazado 108179" d="M355.29,364.59l.09,2.25s1.82,2.37,9.57,2.53,9.78-1.87,9.78-1.87l.25-1.88c1.24.29,1,1.76.18,5.44s-1.5,6.84-2.29,7.6-5,2-9.56,1.85-7.54-2.11-8.34-3.21-1.07-5.5-1.29-7.87S353.94,364.69,355.29,364.59Z" fill="#d9a171"/>
            <path id="Trazado_108180" data-name="Trazado 108180" d="M400.92,352.59l.54,2.24s1.78,2,9.51,1.35,8.64-2.83,8.64-2.83v-1.82c1.64.24,2.07,1.55,1.65,5.28s-.79,7-1.5,7.8-4.73,2.55-9.31,2.82-6.74-1.15-7.64-2.16-1.72-5.83-2.18-8.16S399.59,352.82,400.92,352.59Z" fill="#d9a171"/>
            <path id="Trazado_108181" data-name="Trazado 108181" d="M385.76,283.8l3.53-17.46a16.9,16.9,0,0,0,9.11-11.27s.59,8-6.38,12l-4.34,16.63,1.73,14.34Z" opacity="0.2"/>
            <g id="Grupo_59848" data-name="Grupo 59848">
              <path id="Trazado_108182" data-name="Trazado 108182" d="M328.27,407.38c-.7-.06-.62,2-.38,2.94s3.13,3.93,8.27,5,12.23.11,15.28,0,8.3,1.35,11.33,1.8,8.5-.58,10.31-2.3a3.18,3.18,0,0,0,.74-2.51c-.06-2-.24-2.42-.48-2.4Z" fill="#344154"/>
              <path id="Trazado_108183" data-name="Trazado 108183" d="M372.36,393.6a18.721,18.721,0,0,0,.64-3.32,6.23,6.23,0,0,0-.39-2.77,2.94,2.94,0,0,0-1.84-1.37l-.44,2.77c-.59.56-2.25.82-2.93,1.27-1.53,1-1.83,3.06-2.22,4.85a3,3,0,0,1-.47,1.17c-1.38,1.71-1.78-1.28-1.84-2.08-.11-1.16-.21-2.46-1.07-3.24a5.47,5.47,0,0,0-3-1c-1-.1-2.3-.06-2.87-1l-.07-1.78c-.89-.1-2.16.08-2.53,1a3.17,3.17,0,0,0-.08,1.44c.14,1.33.33,2.66.59,4a14.924,14.924,0,0,1,.45,3,5.464,5.464,0,0,1,0,.57,2.85,2.85,0,0,1-1,1.06,13,13,0,0,1-5.24,1.23c-2.64.17-4.88-.24-7.85-.28a16,16,0,0,0-7.9,1.61,7.11,7.11,0,0,0-4,7.05A9.74,9.74,0,0,0,333,412a25.41,25.41,0,0,0,7.78,1.68c3.13.33,7.46-.23,10.6-.4a30.24,30.24,0,0,1,7.84.83c4,.8,6.72,1,10.33-.09,1.37-.41,3.07-1.23,3.7-2.73a20,20,0,0,0-.37-6.21q-.11-.6-.24-1.2c-.11-.5-.24-1-.37-1.49-.19-.74-.21-1.56-.34-2.33-.05-.28-.2-1-.39-1.91a22.836,22.836,0,0,1,.4-2.61C372.05,394.9,372.2,394.25,372.36,393.6Z" fill="#5e6178"/>
              <path id="Trazado_108184" data-name="Trazado 108184" d="M352.46,398.53a9.12,9.12,0,0,0-3.17,6c.06,1.52-2.62,1.62-2.68.1A12.89,12.89,0,0,1,349,399.3a4.84,4.84,0,0,1,3.46-.77Z" fill="#fafafa"/>
              <path id="Trazado_108185" data-name="Trazado 108185" d="M346.63,399.42a9.49,9.49,0,0,0-2.93,5.11c0,1.12-2.38,1-2.33-.13,0,0,.36-3.59,2.94-5.08A2.052,2.052,0,0,1,346.63,399.42Z" fill="#fafafa"/>
              <path id="Trazado_108186" data-name="Trazado 108186" d="M342.05,399.17c-1.23,0-3.81,1.64-5.08,5.4a21.49,21.49,0,0,0-.58,8.51,12.12,12.12,0,0,1-6.8-3.24,7.241,7.241,0,0,1-1.7-2.16,7.49,7.49,0,0,1,1.29-5.74c1.79-2.13,4.55-3.52,8.89-3.74,4.87-.24,5.29,1.06,5.29,1.06Z" fill="#fafafa"/>
            </g>
            <path id="Trazado_108187" data-name="Trazado 108187" d="M395.09,368.83c2.41-1.41,9.37,1.77,9.37,1.77l.41,1.64s.29,1.16.44,1.72c.36,1.29,2,1.71,3.2,1.89a18,18,0,0,0,9.15-1.59c1.27-.71,1.35-1.47,1.35-1.47v-1.71c.78,0,1.67.36,1.54,2-.23,2.93-.49,8.07,0,10.74.22,1.31.59,2.86.79,4.18.13.89.09,3.5-1.08,4.55h0a4.48,4.48,0,0,1-1.17,1.05c-2.54,1.58-7,1.31-9.08-.75-2.64-2.56-4.5-4.89-8.2-8-2.18-1.81-4.3-2.68-6.08-4.92h0a14.369,14.369,0,0,1-2.21-4.26C392.19,372,392.61,370.29,395.09,368.83Z" fill="#5e6178"/>
            <g id="Grupo_59849" data-name="Grupo 59849">
              <path id="Trazado_108188" data-name="Trazado 108188" d="M402.09,378.37a8.78,8.78,0,0,1,3.25-4.28c-.15-.61-.31-1.22-.47-1.85a9.17,9.17,0,0,0-4.8,5.32C399.72,378.68,401.31,379.31,402.09,378.37Z" fill="#fafafa"/>
              <path id="Trazado_108189" data-name="Trazado 108189" d="M405.69,379.89a9,9,0,0,1,.72-1.53c-.21-.82-.43-1.72-.67-2.66a9.1,9.1,0,0,0-2.06,3.38C403.33,380.2,404.92,380.83,405.69,379.89Z" fill="#fafafa"/>
              <path id="Trazado_108190" data-name="Trazado 108190" d="M395.71,380h0c0-.3-.42-7.17,8.75-9.42l-.22-.89h0a8.05,8.05,0,0,0-4.21-2c-3.35-.47-5.79.7-7.21,3.11S393.85,378.83,395.71,380Z" fill="#fafafa"/>
            </g>
          </g>
        </g>
        <g id="Grupo_59853" data-name="Grupo 59853">
          <g id="Grupo_59851" data-name="Grupo 59851">
            <path id="Trazado_108191" data-name="Trazado 108191" d="M342.24,180.65c-3.87-.92-10.81-3-18.53-5.67-8.49-3-17.33-5.61-18.82-5.87-2.83-.51-6.91-.24-9.43-.92-3-.82-6-1.07-8.68-3a3.2,3.2,0,0,1-1.53-2.21c0-.47.12-.94.09-1.41,0-.73-.48-1.42-.41-2.14.1-1,1.16-1.74,1.2-2.76a6.6,6.6,0,0,0-.24-1.3c-.12-.81.67-1.88,1.11-2.52.24-.35.91-.94.53-1.39a33.149,33.149,0,0,0-4.23-3.95c-2.78-2.33-4.3-4.46-3.14-5.8,1.61-1.84,4.54.54,8.26,3.15,2.07,1.45,4.11,3,6.2,4.38.82.55,4.14,3.25,5,1.9a2.27,2.27,0,0,0,.21-1.46c-.09-1-.27-2.06-.29-3.1a6.06,6.06,0,0,1,.6-3,2.211,2.211,0,0,1,.76-.87,1.15,1.15,0,0,1,1.12-.06,1.77,1.77,0,0,1,.66,1l1.43,3.75a27.79,27.79,0,0,0,2.63,6,10.76,10.76,0,0,0,3.56,3.48c1,.47,7.66,2.08,9.84,2.6,3.76.91,25.13,5.32,25.55,5.41l57.52-6.26-.79,18.75S349.82,182.44,342.24,180.65Z" fill="#ffaaa8"/>
            <path id="Trazado_108192" data-name="Trazado 108192" d="M400.43,156.78c3.91-.53,9.81-.49,13.16,3.9s3.31,7.87,3.27,13.48-2.78,15.58-2.78,15.58Z" fill="#6595bf"/>
            <path id="Trazado_108193" data-name="Trazado 108193" d="M295.8,157.42a1,1,0,0,1-.24.8,1.09,1.09,0,0,1-.79.3,4,4,0,0,1-.85-.11c-.23,0-.54,0-.6.2a.45.45,0,0,0,.14.37,10.067,10.067,0,0,0,1.27,1.08c.55.47,1.22,1.38.6,2.05a1.6,1.6,0,0,1-1.41.53c-.39,0-.78-.16-1.18-.17-.07,0-.16,0-.15.1l.05.06A5.89,5.89,0,0,1,294.1,164a1.42,1.42,0,0,1,.25,1.22,1.77,1.77,0,0,1-1.44.74h-.16a1.69,1.69,0,0,0,.44.12,1.54,1.54,0,0,0,1.68-1.14,1.69,1.69,0,0,0-.53-1.79,2,2,0,0,0,1.82-.72c1-1.12.35-2.06-.53-2.9a1.61,1.61,0,0,0,.83-.39,11.59,11.59,0,0,0,1.95,5.64,18.6,18.6,0,0,1-1.11-6.65,8.31,8.31,0,0,1,.16-1.65,14.28,14.28,0,0,1,.28-1.45,10.721,10.721,0,0,1,.73-2.29,4.09,4.09,0,0,0-1.3,1.22c-.3.43-.28,1.07-.93,1.14a1.81,1.81,0,0,1-1.07-.31,3.209,3.209,0,0,0-1-.47h-.23c-.05,0,0,.22.08.31a6.61,6.61,0,0,1,1.75,2.35A1.12,1.12,0,0,1,295.8,157.42Z" fill="#ff9090"/>
          </g>
          <g id="Grupo_59852" data-name="Grupo 59852">
            <path id="Trazado_108194" data-name="Trazado 108194" d="M375.41,149.95l1.91,18.33,18.31,1-1.46-21.26Z" fill="#ffaaa8"/>
            <path id="Trazado_108195" data-name="Trazado 108195" d="M364.71,128s-4.64,6.29-4.19,7,3.59,1.41,3.59,1.41Z" fill="#ff9090"/>
            <path id="Trazado_108196" data-name="Trazado 108196" d="M377.6,110.6c-8.79,1.37-11.5,5.06-13.06,18.83-1.62,14.38-.39,19,1.4,21,1.21,1.38,8.31,2,11.95,1.2,4.56-1,14.89-4,20-11.06,6.05-8.24,8.14-19.74,2.4-24.81C392.26,108.67,381.18,110,377.6,110.6Z" fill="#ffaaa8"/>
            <path id="Trazado_108197" data-name="Trazado 108197" d="M363.54,115.2a12.251,12.251,0,0,0,2.12,1.88,32.121,32.121,0,0,0,3.53,2.21,21,21,0,0,1,3.44,1.84c1.52,1.21,1.64,2.71,1.58,4.52,0,1.19-.11,2.66-.18,4.26-.1,2.4,1.33,4.3,2.25,1.13,0,0,1.66-5.26,6.12-4.35s4.58,6,2.23,9.86c-1.44,2.35-4.9,1.53-4.9,1.53a15.72,15.72,0,0,0,4,12.34s3.47,2.06,10.62.93c5.2-6.41,8.42-9.48,11.31-15.1,6.12-11.88,3.89-19.65-.17-23.09-.54-5.66-4.82-8.41-9.79-9.83-7.44-2.13-14.71,2-22.07-.1a37.292,37.292,0,0,1-3.58-1.15,2,2,0,0,0-1.46-.18,1.68,1.68,0,0,0-.8,1.63,4.5,4.5,0,0,0,2,3.64c-.15-.1-.88.06-1.09.07h-1.25a20.321,20.321,0,0,1-2.44-.3,4.58,4.58,0,0,0-1.69,0,3.05,3.05,0,0,0-2.09,3,7.54,7.54,0,0,0,1.15,3.68,10.393,10.393,0,0,0,.83,1.35,3.918,3.918,0,0,0,.33.23Z" fill="#344154"/>
            <path id="Trazado_108198" data-name="Trazado 108198" d="M365.94,150.47c1,1.12,5.81,1.73,9.55,1.51h.26l-.26-2.06S369.51,151.35,365.94,150.47Z" fill="#ff9090"/>
          </g>
          <path id="Trazado_108199" data-name="Trazado 108199" d="M412.57,166.42c-2.25-5.42-7.13-10.56-13.41-9.51-1.46.24-2.85.36-4.23.61-.74,3.07-10.53,3.36-18.57,1.5l-9.43,1.12c-5.77,1.94-10.4,13.07-11.23,30s.09,43,.42,54.79a64.68,64.68,0,0,0,36.57,3.75c17.29-3.43,20.11-10.86,20.11-10.86l-1.33-30.25c0-6.58,2.4-15.5,2.91-19.73C415.92,174.82,413.93,169.71,412.57,166.42Z" fill="#5e6178"/>
        </g>
      </g>
      <g id="Dart">
        <g id="Grupo_59854" data-name="Grupo 59854">
          <path id="Trazado_108200" data-name="Trazado 108200" d="M241.5,178.64a3,3,0,0,0-1.21,2.44,1,1,0,0,0,.46.86l32.79,16.27,1.71-3.45-32.79-16.28A1,1,0,0,0,241.5,178.64Z" fill="#5e6178"/>
          <path id="Trazado_108201" data-name="Trazado 108201" d="M240.75,181.94c-4-2-12.21-8.2-12.21-8.2s11.92,3.72,13.92,4.74Z" fill="#5e6178"/>
          <path id="Trazado_108202" data-name="Trazado 108202" d="M274.29,194.91,242.03,179l-13.49-5.26,13.02,6.55,32.61,16.29Z" fill="#fff" opacity="0.2"/>
          <path id="Trazado_108203" data-name="Trazado 108203" d="M274.29,194.91a3,3,0,0,0-1.21,2.45c.06.86.69,1.18,1.41.69a3,3,0,0,0,1.21-2.44C275.64,194.74,275,194.43,274.29,194.91Z" fill="#344154"/>
        </g>
        <g id="Grupo_59855" data-name="Grupo 59855">
          <path id="Trazado_108204" data-name="Trazado 108204" d="M273.13,195.79c4.57-8.41,27.07-19.59,45.69-10.39s53.12,44.9,62.24,63.53c-21.84,3.75-66.48.32-84.44-8.56S269.25,215.37,273.13,195.79Z" fill="#d9a171"/>
          <path id="Trazado_108205" data-name="Trazado 108205" d="M273.13,195.79c4.57-8.41,27.07-19.59,45.69-10.39s53.12,44.9,62.24,63.53c-21.84,3.75-66.48.32-84.44-8.56S269.25,215.37,273.13,195.79Z" fill="#fff" opacity="0.7"/>
          <path id="Trazado_108206" data-name="Trazado 108206" d="M289.05,225.24C288.13,211,295.71,194,306,187.1c4.34-2.89,8.46-3.49,11.85-2.15-18.42-8.34-40.21,2.58-44.7,10.84-3.88,19.58,5.52,35.69,23.49,44.58h0C292.45,238.26,289.55,233,289.05,225.24Z" fill="#d9a171"/>
          <path id="Trazado_108207" data-name="Trazado 108207" d="M296.62,240.37c18,8.88,62.6,12.31,84.44,8.56-19.09.37-54.07-5.77-73.9-16.23-16.38-8.64-30.78-23.76-34-36.91C269.25,215.37,278.65,231.48,296.62,240.37Z" opacity="0.15"/>
          <path id="Trazado_108208" data-name="Trazado 108208" d="M273.13,195.79c17.58-7.08,35.87-3.29,48.27,3.34s50.14,35.93,59.66,49.8c0,0-27.11-37.56-56.55-55S273.13,195.79,273.13,195.79Z" fill="#fff" opacity="0.5"/>
        </g>
        <g id="Grupo_59857" data-name="Grupo 59857">
          <path id="Trazado_108209" data-name="Trazado 108209" d="M419.85,284.72c-2.94,4.13-13.56-1.16-25.09-10.54h0l-6.08-13,2.13,9.64a145.554,145.554,0,0,1-19.51-20.78c3.35-.23,6.62-.6,9.76-1.12l16.12,7.78S424.78,277.79,419.85,284.72Z" fill="#d9a171"/>
          <path id="Trazado_108210" data-name="Trazado 108210" d="M419.85,284.72c-2.94,4.13-13.56-1.16-25.09-10.54h0l-6.08-13,2.13,9.64a145.554,145.554,0,0,1-19.51-20.78c3.35-.23,6.62-.6,9.76-1.12l16.12,7.78S424.78,277.79,419.85,284.72Z" opacity="0.15"/>
          <g id="Grupo_59856" data-name="Grupo 59856" opacity="0.15">
            <path id="Trazado_108211" data-name="Trazado 108211" d="M371.3,250.05a137.073,137.073,0,0,0,9,10.65,35.75,35.75,0,0,1-5.56-8.81l6.4-1.11,16,5.93-16.12-7.78C377.92,249.45,374.65,249.82,371.3,250.05Z"/>
          </g>
        </g>
        <g id="Grupo_59858" data-name="Grupo 59858">
          <path id="Trazado_108212" data-name="Trazado 108212" d="M397.18,256.71l-16.12-7.78c-4.29-3.69-5.21-5.48-9.48-8.77a183.66,183.66,0,0,1,21.81-.8l-3.78,5.41,10-5c8.85.85,14.52,2.85,17.72,5.59C426.94,253.58,414.8,260.41,397.18,256.71Z" fill="#d9a171"/>
          <path id="Trazado_108213" data-name="Trazado 108213" d="M389.61,244.77l3.78-5.41a183.673,183.673,0,0,0-21.81.8s16.71-.18,19.35.28Z" fill="#fff" opacity="0.5"/>
          <path id="Trazado_108214" data-name="Trazado 108214" d="M406,257.73c12.42.18,19.18-5.63,11.28-12.39-3.2-2.74-8.87-4.74-17.72-5.59l-5,2.51,5.57-1.54s11.38,1.15,16.47,6.77C419.76,250.93,416.22,257.65,406,257.73Z" fill="#fff" opacity="0.5"/>
        </g>
      </g>
      <g id="Grupo_59859" data-name="Grupo 59859">
        <path id="Trazado_108215" data-name="Trazado 108215" d="M364.31,185.46c-10.54,19.92-16.56,33.36-19.87,36.72s-28.29,23-37.33,23.89-17.11-1.86-17.9-6.46a10.52,10.52,0,0,1,0-3.89s2.17,1.52,2.28,1.56c2.75.94,6.92.63,8.91-.9,2.94-2.24-3.7-4-5.25-5.88-2-2.34-1.13-4.88,3.86-2.7,4.35,1.9,8.21,3.42,11.29,3.32s20.84-18.68,20.84-18.68,9.52-20.12,14-30.85c8.33-20.17,16.48-20.07,20.9-20.17Z" fill="#ffaaa8"/>
        <path id="Trazado_108216" data-name="Trazado 108216" d="M366.93,160.14c-4.33.43-7.56.63-11.18,2.53-4.39,2.32-5.93,6.45-7.93,11-3.79,8.63-7.39,16.48-7.39,16.48,1.44,3.9,9.48,13.25,16.77,10.53,0,0,6.14-10.6,9.34-17.44C369.53,176.85,370.12,165.41,366.93,160.14Z" fill="#6595bf"/>
      </g>
    </g>
  </g>
</svg>
